<?xml version="1.0" standalone="no"?>
<!DOCTYPE svg PUBLIC "-//W3C//DTD SVG 20010904//EN"
 "http://www.w3.org/TR/2001/REC-SVG-20010904/DTD/svg10.dtd">
<svg version="1.0" xmlns="http://www.w3.org/2000/svg"
 width="1500.000000pt" height="2098.000000pt" viewBox="0 0 1500.000000 2098.000000"
 preserveAspectRatio="xMidYMid meet">
<metadata>
Created by potrace 1.16, written by Peter Selinger 2001-2019
</metadata>
<g transform="translate(0.000000,2098.000000) scale(0.100000,-0.100000)"
fill="none" stroke="grey" stroke-width="2">
<path d="M0 10490 l0 -10490 7500 0 7500 0 0 10490 0 10490 -7500 0 -7500 0 0
-10490z m7535 7540 c16 -14 77 -16 97 -4 7 4 47 9 89 9 l77 1 -6 -38 c-3 -25
1 -46 11 -62 l16 -24 -62 -6 c-140 -13 -332 -18 -489 -11 l-168 7 -6 34 c-3
19 -3 59 1 89 5 45 10 55 26 55 17 0 19 -7 19 -59 0 -90 18 -106 115 -106 69
0 79 3 96 24 11 13 19 39 19 58 0 26 4 34 14 30 28 -11 87 14 104 43 l17 30 7
-29 c5 -16 15 -34 23 -41z m-517 -1165 c17 -38 104 -125 124 -125 9 0 20 -5
23 -10 4 -6 23 -17 43 -26 59 -24 125 -74 161 -121 19 -24 44 -46 57 -49 24
-6 24 -7 -8 -24 -26 -14 -36 -15 -48 -6 -33 26 -73 40 -110 39 -37 -2 -38 -1
-49 41 -13 53 -30 68 -77 68 -26 0 -44 -8 -65 -28 -36 -34 -55 -38 -151 -34
-28 2 -46 -5 -69 -24 -17 -14 -39 -26 -49 -26 -10 0 -25 -8 -32 -17 -14 -19
-50 -35 -133 -59 -27 -8 -58 -19 -68 -24 -12 -8 -24 -6 -44 7 -37 25 -118 23
-172 -4 -35 -18 -47 -19 -62 -10 -16 10 -19 24 -19 95 0 70 3 84 18 89 9 3 24
12 32 19 19 16 99 47 230 88 174 55 332 113 385 140 62 32 69 32 83 1z m1308
-114 c5 -5 54 -20 109 -35 55 -14 132 -38 170 -52 39 -14 111 -35 160 -46 50
-11 104 -26 120 -33 17 -8 47 -18 68 -24 41 -11 76 -45 77 -76 0 -11 4 -27 9
-34 7 -11 -2 -26 -37 -58 -25 -24 -53 -43 -61 -43 -16 0 -165 30 -166 33 -9
23 -41 60 -58 68 -32 14 -62 33 -82 49 -26 22 -131 19 -180 -4 -43 -21 -61
-24 -169 -30 -78 -4 -106 -24 -106 -75 0 -28 -39 -55 -65 -45 -22 9 -97 -16
-133 -44 -19 -15 -56 -32 -81 -37 -34 -7 -51 -18 -66 -41 -17 -26 -26 -31 -60
-30 -22 0 -49 -3 -60 -8 -11 -5 -33 -10 -49 -12 -17 -3 -51 -25 -83 -54 -60
-55 -86 -60 -36 -7 45 48 63 79 63 107 0 31 75 83 135 94 46 8 111 50 127 80
11 20 31 38 69 61 9 6 49 36 87 68 39 31 81 62 94 68 58 26 81 44 118 91 22
27 40 56 40 64 0 15 31 19 46 5z m-746 -2058 c0 -35 -5 -45 -30 -63 -27 -19
-34 -20 -65 -10 -61 20 -74 79 -27 122 38 36 52 38 89 14 28 -18 33 -27 33
-63z m2186 -298 c13 -33 -40 -125 -60 -105 -5 5 -18 10 -28 10 -14 0 -13 4 7
25 14 13 25 35 25 49 0 34 45 51 56 21z m-260 -552 c-8 -15 -15 -25 -16 -21 0
12 23 58 27 54 3 -2 -2 -17 -11 -33z m-1950 -5 c20 -39 18 -54 -13 -82 l-26
-25 -19 25 c-11 13 -27 24 -37 24 -24 0 -41 19 -34 39 13 37 36 52 76 49 31
-2 41 -7 53 -30z m140 -755 c126 -42 213 -143 244 -286 11 -47 11 -73 0 -141
-12 -75 -11 -88 3 -109 19 -29 50 -37 115 -26 26 4 223 10 438 14 357 7 633
18 743 31 27 4 52 14 66 28 l23 23 10 -21 c7 -17 5 -27 -8 -44 -10 -12 -23
-22 -28 -22 -6 0 -19 -11 -29 -24 -11 -13 -34 -27 -52 -31 -19 -4 -39 -18 -49
-33 -13 -21 -26 -28 -56 -29 -21 -2 -53 -12 -70 -23 l-31 -19 -25 51 c-18 37
-32 54 -50 58 -23 6 -259 4 -575 -3 -109 -3 -138 -7 -177 -25 -26 -12 -66 -24
-89 -27 -23 -3 -45 -8 -50 -10 -4 -3 -42 -10 -84 -15 -63 -8 -83 -15 -122 -45
-25 -19 -51 -35 -56 -35 -6 0 -21 -10 -33 -21 -28 -26 -127 -52 -142 -37 -6 6
-32 10 -59 10 -69 -2 -162 25 -205 59 -20 16 -40 29 -45 29 -4 1 -17 15 -28
32 -24 38 -62 50 -135 43 -30 -3 -85 -7 -121 -10 -36 -2 -78 -9 -92 -14 -15
-6 -56 -11 -93 -13 l-67 -2 -38 44 c-37 43 -39 44 -96 43 -77 -2 -145 6 -138
17 3 5 101 9 218 10 367 3 446 9 469 37 9 11 13 54 13 142 1 114 4 132 27 183
46 100 138 181 241 213 60 19 174 18 233 -2z m1628 -118 l6 -50 -15 40 c-9 22
-13 46 -10 54 8 21 12 12 19 -44z m-3782 -122 c4 -46 3 -61 -6 -52 -10 10 -18
99 -8 99 5 0 12 -21 14 -47z m3798 -120 l-1 -58 -15 35 c-11 26 -12 41 -5 57
16 36 21 28 21 -34z m-3793 -20 c-3 -10 -5 -4 -5 12 0 17 2 24 5 18 2 -7 2
-21 0 -30z m206 -179 c51 -2 110 -6 132 -9 22 -3 152 -8 289 -10 137 -2 251
-7 254 -10 5 -5 -115 -9 -320 -10 l-107 0 -40 -39 -40 -39 -38 16 c-48 21
-117 36 -164 37 -29 0 -38 5 -47 25 -7 15 -27 33 -45 41 l-32 15 33 -7 c18 -3
74 -8 125 -10z m1747 -429 c0 -7 9 -24 20 -38 15 -19 18 -31 11 -49 -14 -37
-36 -51 -51 -33 -7 8 -20 15 -30 15 -26 0 -31 11 -15 34 8 11 15 34 15 51 0
25 4 30 25 31 14 1 25 -4 25 -11z m30 -870 c35 -22 40 -30 40 -62 0 -85 -98
-115 -135 -42 -22 41 -19 59 17 96 18 18 33 33 35 33 2 0 21 -11 43 -25z m10
-912 c38 -22 46 -56 23 -96 -25 -42 -93 -58 -93 -22 0 7 -9 24 -20 38 -26 33
-25 43 5 72 28 29 47 31 85 8z m23 -856 c40 -46 -1 -127 -63 -127 -78 0 -92
111 -20 147 30 15 59 8 83 -20z m-15 -903 c12 -14 22 -32 22 -40 0 -30 -30
-72 -60 -82 -26 -10 -34 -8 -60 14 -49 42 -39 116 20 137 24 8 53 -3 78 -29z
m-5 -857 c24 -31 18 -62 -17 -100 -31 -34 -46 -34 -85 -1 -48 40 -40 97 19
128 31 16 58 7 83 -27z m2 -843 c44 -29 21 -127 -32 -141 -41 -10 -93 41 -93
91 0 7 9 25 21 40 24 30 67 35 104 10z m-25 -809 c7 -8 19 -15 26 -15 19 0 40
-49 36 -82 -2 -19 -9 -28 -22 -28 -10 0 -26 -10 -35 -22 -14 -19 -18 -20 -23
-8 -3 8 -18 27 -34 42 -35 33 -35 45 0 91 31 41 35 43 52 22z m-573 -2567 c-3
-8 -6 -5 -6 6 -1 11 2 17 5 13 3 -3 4 -12 1 -19z m33 -246 c-1 -27 7 -42 37
-69 20 -20 50 -40 65 -45 37 -13 35 -25 -4 -26 -38 -1 -78 -40 -78 -76 0 -13
9 -35 20 -48 23 -30 68 -39 305 -63 88 -9 190 -21 226 -27 37 -6 100 -8 140
-6 90 7 110 25 108 99 -1 27 1 52 5 57 10 9 126 3 148 -9 28 -15 366 -62 380
-53 4 3 16 0 27 -5 10 -6 60 -17 110 -25 63 -11 111 -26 158 -50 115 -59 158
-75 249 -91 124 -22 200 -13 359 41 87 30 166 50 240 60 60 8 113 18 118 23 5
5 24 5 43 -1 34 -9 91 -8 348 8 73 4 162 2 230 -5 61 -6 161 -12 221 -13 118
-1 333 9 346 17 4 3 10 1 13 -4 10 -16 -32 -95 -71 -132 -40 -38 -163 -101
-223 -114 -19 -4 -39 -10 -45 -14 -5 -3 -93 -6 -195 -7 -128 0 -194 -4 -215
-13 -16 -7 -56 -14 -88 -16 -44 -2 -64 -8 -82 -25 -15 -14 -39 -23 -65 -25
-23 -2 -48 -9 -56 -16 -8 -7 -30 -14 -47 -16 -18 -2 -40 -13 -51 -25 -10 -13
-19 -21 -20 -19 -3 10 -83 -12 -101 -29 -19 -17 -144 -66 -195 -75 -14 -3 -41
-12 -60 -20 -117 -49 -287 -61 -420 -30 -56 13 -77 20 -113 40 -24 12 -54 26
-68 30 -13 4 -43 23 -66 41 -23 19 -44 34 -48 34 -4 0 -18 9 -32 20 -14 11
-32 20 -40 20 -7 0 -33 20 -56 45 -24 25 -51 45 -60 45 -9 0 -18 4 -21 9 -3 4
-27 14 -53 22 -27 7 -59 19 -73 26 -14 7 -32 13 -40 13 -9 0 -21 5 -27 11 -14
14 -151 26 -231 21 -14 -1 -30 -14 -40 -31 -17 -30 -128 -110 -172 -124 -30
-10 -261 -10 -345 -1 -181 19 -279 0 -307 -62 -6 -13 -18 -24 -27 -24 -9 0
-43 -28 -76 -61 -36 -37 -84 -73 -120 -90 -33 -16 -73 -38 -90 -49 -37 -24
-36 -24 -110 -49 -67 -23 -182 -44 -235 -43 -33 1 -138 1 -170 0 -20 -1 -230
13 -255 16 -11 2 -31 8 -45 14 -14 6 -79 28 -145 48 -66 20 -124 41 -129 46
-6 4 -17 8 -25 8 -8 0 -28 10 -45 23 -17 13 -47 29 -66 37 -19 7 -42 19 -51
27 -8 7 -23 13 -31 13 -9 0 -18 7 -21 15 -6 14 -81 55 -102 55 -6 0 -22 11
-35 25 -12 13 -39 29 -59 36 -20 6 -49 17 -66 24 -30 13 -110 30 -195 40 -79
10 -193 45 -287 91 -51 24 -98 44 -106 44 -8 0 -20 7 -27 15 -7 8 -18 15 -24
15 -6 0 -22 9 -36 20 -14 11 -31 20 -38 20 -8 0 -28 10 -45 22 -17 12 -45 29
-63 38 -64 33 -184 153 -184 185 0 2 57 -12 128 -30 70 -18 172 -41 227 -50
55 -10 169 -35 253 -56 103 -26 188 -40 255 -44 117 -7 250 -28 352 -55 72
-19 231 -44 365 -56 41 -3 84 -8 95 -10 11 -2 67 -8 125 -14 58 -5 173 -21
255 -35 207 -33 476 -47 558 -29 34 8 76 25 92 38 29 23 30 27 37 143 4 65 10
154 13 198 9 153 27 300 38 320 10 17 13 9 20 -50 4 -38 7 -85 7 -103z m2385
-192 c-3 -5 -12 -10 -18 -10 -7 0 -6 4 3 10 19 12 23 12 15 0z"/>
<path d="M7493 12973 c-81 -20 -107 -80 -58 -129 22 -22 23 -25 7 -30 -33 -10
-47 -21 -62 -47 -12 -22 -12 -33 -2 -69 7 -24 17 -60 21 -81 11 -51 25 -63 92
-80 73 -19 177 -7 199 23 8 12 30 39 48 61 34 44 43 100 21 141 -8 16 -8 30 1
58 25 75 -18 139 -105 159 -57 13 -93 11 -162 -6z"/>
</g>
</svg>
