<?xml version="1.0" standalone="no"?>
<!DOCTYPE svg PUBLIC "-//W3C//DTD SVG 20010904//EN"
 "http://www.w3.org/TR/2001/REC-SVG-20010904/DTD/svg10.dtd">
<svg version="1.0" xmlns="http://www.w3.org/2000/svg"
 width="1500.000000pt" height="2098.000000pt" viewBox="0 0 1500.000000 2098.000000"
 preserveAspectRatio="xMidYMid meet">
<metadata>
Created by potrace 1.16, written by Peter Selinger 2001-2019
</metadata>
<g transform="translate(0.000000,2098.000000) scale(0.100000,-0.100000)"
fill="none" stroke="grey" stroke-width="2">
<path d="M0 10490 l0 -10490 7500 0 7500 0 0 10490 0 10490 -7500 0 -7500 0 0
-10490z m6254 7765 c-5 -28 -1 -43 19 -74 42 -63 57 -109 51 -150 -5 -30 -1
-43 19 -67 36 -43 76 -127 83 -176 3 -24 15 -55 25 -70 11 -15 19 -44 19 -66
0 -24 8 -49 19 -64 11 -13 23 -37 26 -51 6 -22 4 -27 -11 -27 -10 0 -28 12
-39 26 -30 37 -91 37 -121 -1 l-21 -27 -22 29 c-12 15 -30 38 -39 51 -12 16
-30 24 -67 28 -91 9 -90 8 -93 44 -3 27 -1 32 10 23 14 -12 38 -16 75 -14 26
1 83 75 83 107 0 29 -46 84 -71 84 -18 0 -19 5 -13 58 8 78 -12 105 -81 105
-40 0 -52 -4 -72 -27 -44 -52 -18 -166 38 -166 26 0 33 -23 23 -71 -9 -39 -10
-40 -26 -22 -41 42 -65 81 -78 123 -7 25 -20 57 -28 71 -18 33 -11 56 20 61
12 2 33 19 46 38 12 19 36 41 52 47 43 19 64 57 64 119 1 32 5 54 12 54 6 0
19 9 29 20 10 11 31 20 47 20 28 0 29 -2 22 -35z m2504 4 c26 -7 56 -20 68
-30 11 -11 27 -19 36 -19 18 0 31 -27 21 -43 -4 -7 -26 -36 -50 -65 -25 -31
-43 -63 -43 -78 0 -33 39 -71 83 -79 22 -4 42 -17 56 -36 12 -16 27 -29 33
-29 6 0 20 -8 31 -17 14 -14 37 -18 92 -18 70 0 72 -1 59 -20 -21 -29 -17 -66
11 -108 24 -35 25 -39 10 -59 -20 -30 -19 -71 3 -97 13 -16 29 -22 67 -24 65
-3 90 -28 69 -69 -19 -36 -18 -58 4 -88 11 -17 17 -44 17 -81 l0 -55 -34 -1
c-53 -2 -65 -22 -68 -114 -2 -79 -3 -81 -41 -123 l-40 -43 -20 26 c-17 23 -26
26 -85 26 -77 0 -97 -13 -106 -71 -5 -32 -10 -38 -36 -41 -30 -4 -65 -34 -65
-57 0 -7 -17 -12 -42 -12 -54 -2 -82 -32 -75 -84 2 -19 7 -42 11 -50 5 -12 0
-16 -21 -18 -36 -2 -59 -31 -68 -83 -6 -36 -3 -47 23 -84 l30 -43 -21 -20
c-14 -14 -23 -41 -27 -80 -6 -44 -14 -65 -34 -85 -29 -29 -33 -62 -11 -93 21
-31 62 -35 141 -15 l69 17 31 61 31 62 18 -40 c20 -43 82 -99 110 -99 23 0 14
-22 -16 -37 -50 -26 -65 -82 -31 -123 25 -31 89 -31 114 0 16 20 21 21 49 10
45 -19 91 -15 111 11 26 30 23 82 -6 115 -20 24 -31 28 -77 28 l-55 1 21 37
c15 28 23 34 33 26 7 -6 31 -11 54 -11 57 0 93 39 84 92 -3 20 -6 51 -6 70 1
20 -9 49 -24 72 -20 30 -36 40 -78 52 -97 28 -123 26 -146 -13 -19 -30 -19
-30 -29 -7 -41 88 -42 117 -7 152 19 19 24 34 22 58 -3 27 3 36 35 60 20 16
40 40 44 55 3 14 16 40 28 58 l22 33 19 -25 c21 -27 44 -31 134 -20 37 4 60
12 71 25 17 21 34 115 23 132 -7 12 34 59 53 59 31 0 42 43 41 158 -1 104 0
114 20 127 27 19 43 12 62 -27 39 -82 174 -36 145 49 -6 15 -20 32 -33 38 -14
6 -22 19 -22 33 0 13 -13 36 -29 51 -15 14 -31 36 -35 48 -11 34 -31 44 -95
48 -75 5 -81 8 -81 50 0 19 -4 45 -9 59 -7 16 -6 35 2 55 8 23 8 39 1 59 -10
27 -9 30 18 40 30 11 29 12 66 -36 22 -29 83 -33 112 -7 15 14 27 15 62 9 24
-5 48 -8 53 -9 6 0 18 -12 27 -27 10 -16 26 -28 37 -28 11 0 28 -15 40 -36 12
-20 30 -38 41 -41 14 -4 20 -14 20 -32 0 -15 7 -37 17 -50 18 -26 24 -66 23
-157 -1 -43 5 -73 19 -100 11 -22 29 -63 39 -91 16 -42 17 -53 6 -53 -43 0
-60 -138 -22 -185 10 -14 28 -25 38 -25 9 0 23 -7 30 -15 7 -8 18 -15 25 -15
12 0 25 -63 25 -124 0 -38 34 -96 56 -96 9 0 28 -10 44 -23 l27 -23 -23 -28
c-13 -15 -24 -39 -24 -54 0 -41 54 -120 87 -128 37 -9 41 -18 36 -67 -5 -52
25 -106 59 -108 73 -4 109 27 118 98 l6 48 17 -32 c9 -18 17 -45 17 -60 0 -15
11 -48 25 -72 14 -23 25 -53 25 -66 0 -12 9 -34 20 -48 11 -14 20 -38 20 -54
0 -16 7 -39 17 -52 9 -13 20 -40 24 -60 4 -20 15 -65 24 -101 9 -36 16 -82 16
-103 -1 -28 5 -44 24 -63 14 -14 25 -34 25 -45 0 -11 5 -29 10 -40 8 -15 7
-19 -4 -19 -42 0 -63 -107 -28 -150 12 -15 30 -22 59 -23 50 -2 69 -29 53 -73
-17 -44 -11 -74 21 -106 28 -29 29 -32 13 -41 -10 -6 -43 -11 -73 -12 -66 -2
-94 -28 -89 -84 3 -34 3 -34 -54 -47 -31 -7 -80 -28 -110 -47 -82 -53 -164
-80 -212 -71 -55 10 -78 6 -98 -17 -9 -10 -23 -19 -31 -19 -20 0 -77 -54 -77
-74 0 -9 -3 -16 -7 -17 -5 0 -28 -2 -53 -3 -25 -2 -56 -7 -69 -11 -22 -7 -43
-7 -136 -3 -71 4 -139 -22 -235 -90 -67 -47 -77 -71 -85 -212 -7 -106 -7 -106
-33 -108 -33 -2 -62 -35 -62 -69 0 -14 13 -37 30 -54 35 -36 36 -38 26 -114
-17 -139 -28 -176 -53 -186 -14 -5 -30 -23 -36 -39 -10 -25 -15 -28 -37 -22
-14 4 -43 6 -65 5 -57 -2 -78 -32 -73 -99 l4 -52 -47 -6 c-81 -11 -99 -59 -51
-135 l28 -44 -29 -30 c-15 -17 -31 -42 -33 -57 l-6 -27 -156 2 c-87 1 -168 -1
-182 -5 -38 -10 -58 -52 -43 -90 11 -29 10 -32 -27 -56 -41 -28 -90 -99 -90
-132 0 -32 32 -62 67 -65 35 -2 46 -17 14 -17 -23 0 -61 -45 -61 -72 0 -11 6
-32 13 -46 8 -15 20 -40 28 -57 13 -26 24 -31 88 -46 71 -16 109 -14 143 7 7
5 24 10 38 12 30 3 60 36 60 65 0 46 24 88 53 94 56 11 73 71 34 120 -19 23
-22 37 -19 80 3 44 7 52 25 55 12 2 31 17 42 34 17 26 26 31 63 31 40 0 48 5
94 52 47 50 50 55 46 95 -3 27 0 49 8 61 8 10 14 33 14 50 0 19 8 39 20 50 28
25 34 14 13 -23 -21 -37 -10 -82 24 -97 28 -12 37 -52 24 -102 -5 -21 -10 -65
-10 -98 0 -33 -8 -100 -17 -150 -14 -75 -17 -175 -21 -615 -2 -336 1 -565 8
-635 9 -90 11 -656 4 -935 -2 -78 -3 -80 -26 -80 -11 0 -40 -20 -65 -44 -37
-37 -44 -51 -44 -83 0 -21 7 -49 16 -62 12 -17 17 -48 18 -120 1 -111 17 -148
67 -158 19 -3 34 -14 39 -28 5 -12 13 -127 19 -255 9 -200 8 -235 -4 -253 -20
-29 -19 -59 4 -88 16 -21 19 -48 23 -239 l4 -215 -40 -2 c-50 -2 -76 -30 -76
-83 0 -56 26 -83 82 -84 l45 -1 -3 -120 c-2 -90 -8 -127 -21 -152 -15 -29 -16
-38 -4 -80 7 -27 21 -95 31 -153 11 -58 29 -143 40 -190 16 -65 22 -123 24
-247 1 -90 0 -163 -3 -164 -74 -11 -84 -17 -107 -60 -32 -63 -4 -121 58 -121
20 0 41 2 45 5 5 3 7 -9 5 -27 -3 -24 3 -40 22 -63 14 -17 26 -37 26 -44 0 -8
9 -40 20 -72 14 -43 24 -121 35 -300 9 -133 20 -273 25 -312 5 -38 14 -110 20
-160 23 -196 52 -400 60 -419 8 -24 20 -157 22 -262 1 -52 -3 -77 -15 -95 -24
-33 -21 -55 13 -111 26 -42 30 -56 25 -92 -4 -26 -1 -56 8 -81 8 -22 21 -66
28 -98 11 -51 10 -62 -4 -93 -23 -47 -21 -71 6 -97 24 -25 51 -77 43 -85 -3
-3 -13 5 -23 16 -18 20 -35 25 -81 23 -25 -1 -62 -53 -62 -88 0 -36 45 -80 90
-88 39 -7 40 -8 41 -48 1 -23 0 -53 0 -67 -1 -14 7 -38 18 -52 13 -16 21 -41
21 -65 0 -21 6 -47 13 -58 28 -41 46 -114 41 -167 -3 -32 0 -71 9 -99 13 -44
13 -47 -10 -73 -36 -43 -26 -98 22 -116 41 -16 57 -71 62 -210 3 -77 10 -133
18 -145 7 -12 15 -41 18 -65 6 -56 25 -184 32 -227 6 -31 5 -32 -23 -24 -66
19 -112 -13 -112 -79 0 -70 55 -120 116 -104 39 10 61 -71 99 -366 14 -111 26
-159 48 -194 18 -29 39 -97 36 -121 -5 -62 -1 -194 9 -295 34 -335 33 -329 15
-356 -15 -24 -15 -31 1 -112 9 -48 18 -139 19 -202 2 -63 7 -123 13 -134 9
-14 6 -23 -13 -42 -24 -24 -29 -54 -13 -83 7 -14 1 -26 -33 -58 -128 -120
-256 -165 -389 -134 -53 12 -88 3 -107 -30 -9 -16 -21 -29 -27 -29 -5 0 -23
-13 -39 -30 -16 -17 -33 -30 -38 -30 -4 0 -23 -11 -40 -24 -38 -28 -100 -56
-142 -63 -16 -3 -34 -8 -40 -12 -5 -5 -48 -16 -95 -26 -47 -9 -94 -22 -105
-28 -22 -12 -247 -13 -280 -2 -11 4 -32 11 -46 16 -14 6 -36 11 -50 12 -13 0
-29 9 -36 18 -7 9 -32 21 -57 28 -36 9 -54 8 -98 -6 -29 -9 -60 -22 -68 -28
-8 -7 -42 -17 -75 -25 -33 -7 -64 -15 -70 -18 -5 -4 -40 -7 -76 -9 -83 -3
-191 -27 -227 -51 -37 -25 -61 -39 -100 -58 -18 -9 -46 -30 -63 -45 -17 -16
-35 -29 -40 -29 -5 0 -38 -22 -72 -48 -34 -27 -75 -52 -91 -56 -16 -4 -40 -15
-53 -25 -12 -11 -39 -22 -59 -26 -20 -3 -47 -13 -58 -20 -30 -20 -171 -46
-215 -39 -20 3 -49 11 -66 19 -16 7 -47 16 -67 20 -24 5 -39 14 -43 26 -4 11
-27 36 -51 57 -25 20 -65 63 -90 95 -28 35 -61 64 -87 76 -23 11 -47 28 -54
39 -7 12 -28 23 -52 27 -23 4 -43 10 -46 15 -10 17 -86 22 -138 9 -71 -17 -98
-16 -147 10 -9 5 -31 12 -49 16 -18 4 -48 17 -67 29 -101 65 -125 76 -179 84
-80 13 -135 -4 -215 -68 -95 -74 -171 -116 -191 -105 -4 3 -38 -2 -74 -12 -53
-14 -70 -15 -85 -5 -11 7 -26 12 -34 12 -23 0 -98 82 -126 137 -24 46 -27 48
-85 60 -53 11 -70 10 -141 -7 -169 -42 -268 -42 -376 1 -93 37 -135 49 -185
54 -85 9 -123 17 -128 25 -3 5 -29 16 -58 24 -60 17 -80 37 -126 118 -18 32
-36 60 -41 63 -4 3 -11 24 -15 48 -4 23 -18 59 -31 79 -13 21 -24 42 -24 47 0
16 76 168 98 196 12 14 25 55 32 95 10 62 16 74 46 96 18 14 36 36 40 47 12
41 33 56 63 47 64 -18 111 15 111 76 0 48 -28 76 -75 76 -29 0 -45 -6 -60 -24
-16 -19 -26 -23 -42 -17 -21 7 -21 13 -18 183 2 96 7 181 11 188 5 7 12 40 16
73 3 33 14 125 22 205 9 80 21 155 26 168 6 13 10 36 10 53 0 47 21 121 43
151 15 20 18 34 12 55 -12 46 -4 276 14 388 21 133 40 265 51 350 6 50 15 113
20 140 5 28 12 75 15 105 5 52 8 56 33 58 34 2 64 38 61 71 -2 14 5 40 14 58
29 54 22 100 -18 138 l-36 32 21 47 c11 26 20 58 20 71 0 43 9 54 38 46 43
-11 69 -2 102 35 37 43 40 91 7 130 -19 22 -32 26 -75 28 -58 1 -60 6 -41 81
5 22 14 78 19 125 6 47 15 114 21 150 13 81 20 145 24 235 2 39 8 94 14 124 6
29 11 69 11 88 0 18 7 44 15 57 9 13 16 44 16 67 0 100 5 145 17 168 9 14 11
35 7 55 -7 35 -7 45 -2 135 3 46 9 66 21 73 9 5 23 22 31 38 8 16 25 30 37 32
28 4 68 62 68 97 0 34 -26 71 -49 71 -24 0 -43 23 -43 52 0 13 5 57 11 98 6
41 16 108 22 148 14 104 21 118 63 126 46 9 66 38 67 101 l1 50 12 -63 c15
-76 31 -94 82 -94 50 0 75 29 74 86 0 23 2 58 6 78 4 25 0 54 -12 87 -17 48
-17 49 4 76 38 49 21 155 -24 155 -9 0 -23 9 -33 21 -24 30 -89 29 -114 -2
-15 -18 -17 -33 -12 -78 l6 -56 -16 34 c-26 56 -12 278 20 324 10 14 15 44 15
87 0 54 6 79 37 147 21 46 42 81 48 80 5 -2 8 -26 6 -53 -3 -54 25 -104 57
-104 11 0 25 -17 37 -42 24 -51 59 -71 128 -71 56 0 87 25 87 69 0 17 6 24 19
24 25 0 61 46 61 77 0 35 -74 111 -121 123 -38 10 -39 12 -39 55 0 61 -40 107
-92 107 -48 0 -77 -17 -94 -57 l-13 -33 -34 31 -33 31 13 61 c7 33 13 125 13
205 0 80 5 173 10 208 6 34 12 133 14 220 2 86 11 211 20 276 15 105 20 123
46 153 24 27 30 43 30 81 0 26 -4 53 -9 60 -5 9 0 22 15 37 31 32 41 88 20
120 -9 14 -23 25 -31 25 -18 0 -19 33 -4 100 5 25 14 88 19 140 10 100 23 201
42 313 8 48 15 67 26 67 9 0 26 9 38 21 25 24 44 18 44 -12 0 -33 18 -57 57
-76 82 -38 143 -8 157 77 4 24 16 54 26 68 29 37 25 64 -20 118 -22 27 -40 52
-40 55 0 4 18 10 40 14 45 8 80 43 80 81 0 15 6 24 15 24 8 0 22 11 31 25 22
34 11 90 -27 127 -34 34 -34 37 -12 75 32 56 -8 125 -71 125 -32 0 -45 -7 -77
-41 -33 -35 -39 -48 -39 -86 0 -25 6 -61 14 -79 l14 -34 -31 9 c-44 13 -95 1
-113 -26 -9 -14 -18 -69 -24 -155 -5 -73 -12 -135 -15 -138 -2 -3 -12 1 -21 9
-15 12 -16 30 -10 157 4 105 10 149 22 167 12 18 14 37 10 72 -10 73 -10 89
-3 216 4 68 14 134 23 155 19 46 29 223 22 410 -2 41 0 76 4 78 12 8 22 -20
19 -57 -4 -55 32 -92 89 -92 73 0 100 53 61 117 -14 22 -17 36 -11 46 15 23
12 61 -10 119 -11 32 -17 65 -13 82 6 34 -19 79 -45 80 -13 0 -11 3 6 9 12 5
26 20 31 32 23 58 33 108 27 132 -9 35 11 75 35 69 12 -3 19 -14 19 -28 0 -41
30 -66 85 -70 28 -3 65 -9 83 -14 84 -25 128 15 120 107 -6 57 -6 57 33 85 22
16 39 32 39 37 0 5 13 5 29 0 70 -20 119 20 106 87 l-7 37 20 -24 c18 -22 27
-25 97 -25 69 0 79 2 96 24 10 13 19 34 19 48 0 25 -40 73 -62 73 -7 0 -21 13
-30 30 -12 21 -29 32 -62 41 -43 11 -44 12 -39 43 7 46 -22 78 -72 78 -28 0
-44 -6 -56 -21 -22 -27 -27 -26 -51 4 -11 14 -29 26 -41 26 l-22 2 22 4 c28 5
44 25 52 64 6 29 9 31 56 34 36 2 54 9 67 25 42 51 9 110 -62 113 -37 2 -48 7
-62 29 -19 29 -48 38 -93 26 -41 -11 -138 -18 -268 -21 -105 -2 -110 -3 -132
-29 -13 -15 -29 -52 -36 -83 -11 -48 -10 -60 3 -88 11 -24 14 -52 11 -103 -4
-53 -1 -78 11 -102 21 -40 22 -122 2 -122 -31 0 -46 -42 -46 -127 0 -47 -5
-85 -11 -88 -7 -5 -9 14 -4 61 8 95 9 266 2 409 -4 66 -7 156 -7 200 -1 44 -6
92 -12 107 -8 21 -6 32 6 50 21 30 20 70 -3 99 -10 13 -21 42 -24 64 -3 22
-14 108 -26 190 -34 239 -37 285 -18 285 20 0 47 38 47 65 0 11 -15 44 -34 72
-29 45 -35 65 -45 149 -7 68 -7 103 1 117 18 34 0 117 -38 174 -32 49 -51 60
-87 54 -76 -14 -93 -12 -127 13 -19 14 -51 34 -70 45 -19 10 -73 49 -120 86
-47 37 -94 71 -105 75 -17 6 -16 8 13 15 19 4 40 18 50 33 9 14 27 36 39 49
36 35 29 64 -32 140 l-55 68 6 65 c9 92 -15 118 -104 112 -14 -1 -30 -14 -40
-32 -9 -16 -21 -30 -25 -30 -4 0 -24 18 -44 40 -21 22 -44 40 -53 40 -12 0
-14 9 -12 43 3 37 -1 49 -38 95 -23 28 -50 53 -61 54 -10 0 -25 1 -31 2 -7 1
-20 10 -29 20 -24 29 -106 27 -131 -3 -37 -47 -11 -119 45 -123 24 -2 27 -6
27 -41 0 -30 -8 -48 -31 -75 -23 -26 -30 -42 -27 -63 4 -23 1 -29 -15 -29 -32
0 -75 -52 -82 -101 l-7 -44 -46 0 c-26 0 -59 -4 -73 -8 -54 -14 -139 81 -139
156 0 8 25 60 55 115 30 56 55 108 55 115 0 8 12 36 26 63 15 27 30 63 33 79
6 25 11 29 32 25 13 -2 53 -4 88 -4 59 0 66 3 92 32 21 23 29 43 29 70 0 41
-23 82 -45 82 -10 0 -12 9 -8 34 3 19 1 41 -4 51 -8 13 -4 23 15 42 19 19 23
31 19 58 -4 27 -2 34 13 38 10 3 29 26 41 51 28 61 39 66 39 17 0 -45 31 -89
65 -92 50 -4 67 2 82 29 11 20 31 33 61 42 31 9 50 22 63 44 24 40 23 70 -4
126 -24 48 -52 62 -99 49 -15 -4 -29 -4 -32 -1 -2 4 1 40 7 80 8 59 13 72 28
72 22 0 49 37 49 67 0 16 6 23 19 23 10 0 30 15 44 33 14 18 41 49 61 69 63
63 39 129 -47 132 -52 1 -53 2 -32 30 17 23 19 59 5 86 -13 25 32 118 84 173
26 26 36 46 36 69 0 33 108 226 159 283 15 17 40 50 57 74 38 58 93 111 114
111 9 0 25 7 36 15 29 22 34 18 34 -23 0 -70 49 -103 122 -81 18 6 45 12 61
14 26 4 27 3 12 -18 -21 -31 -19 -62 9 -94 l24 -27 -29 -27 c-32 -30 -38 -72
-15 -105 10 -13 11 -25 5 -35 -13 -21 -11 -63 6 -85 8 -10 15 -29 15 -41 0
-12 5 -33 11 -46 16 -36 -27 -122 -62 -123 -86 -3 -119 -32 -119 -105 0 -66
23 -92 83 -92 55 0 71 11 92 67 14 37 21 43 46 44 39 1 48 8 66 51 14 33 17
34 27 17 31 -52 42 -59 91 -59 53 0 85 25 85 68 0 28 -36 75 -58 75 -9 0 -26
17 -37 38 -12 23 -29 38 -42 40 -17 2 -23 10 -23 27 0 13 -5 36 -12 49 -8 20
-8 36 1 67 10 35 14 39 28 28 8 -8 41 -13 76 -12 60 0 63 -1 77 -31 9 -19 24
-32 38 -34 32 -5 37 -26 14 -59 -13 -18 -22 -52 -26 -99 -8 -92 8 -117 74
-117 35 0 48 6 66 27 13 14 30 26 38 26 16 0 62 50 70 78 4 10 17 19 33 20 15
1 32 7 37 12 6 6 18 10 28 10 11 0 30 11 44 25 33 33 38 32 30 -7 -19 -92 -19
-91 19 -141 21 -28 44 -47 55 -47 11 0 20 -6 20 -12 0 -11 32 -65 72 -121 9
-13 26 -19 53 -19 69 0 108 74 70 130 -17 23 -10 47 20 72 21 17 35 -1 35 -46
0 -17 9 -43 21 -58 l20 -26 -20 -26 c-12 -15 -21 -39 -21 -53 0 -35 26 -71 51
-71 18 0 19 -2 4 -30 -8 -16 -15 -39 -15 -51 0 -25 76 -99 102 -99 18 0 38
-28 38 -55 0 -10 -9 -5 -28 16 -75 84 -193 -11 -119 -97 18 -21 32 -27 65 -27
49 0 69 14 81 57 7 22 9 25 10 10 1 -12 14 -48 31 -80 16 -32 30 -66 30 -74 0
-9 7 -25 15 -37 19 -28 10 -83 -15 -83 -9 0 -24 -8 -33 -18 -9 -10 -29 -19
-44 -20 -33 -2 -73 -44 -73 -76 0 -13 8 -34 18 -46 15 -19 30 -23 96 -26 47
-3 87 -10 99 -19 12 -8 27 -15 34 -15 7 0 28 -16 47 -36 29 -30 34 -40 29 -70
-5 -28 -1 -38 26 -63 17 -16 31 -32 31 -35 0 -3 -16 -26 -35 -52 -19 -25 -35
-56 -35 -70 0 -13 -4 -24 -9 -24 -10 0 -3 29 18 83 29 73 2 114 -79 123 -134
16 -145 6 -155 -134 -9 -126 -13 -134 -62 -105 -22 12 -36 28 -34 35 3 7 6 45
8 83 5 100 -15 136 -82 151 -27 6 -63 19 -80 28 -16 9 -37 16 -45 16 -26 1
-50 26 -50 52 0 42 -30 70 -75 70 -28 0 -44 -6 -57 -22 -26 -32 -23 -86 7
-115 13 -14 23 -25 22 -26 -1 -1 -32 -2 -69 -3 -47 -2 -73 -7 -86 -19 -23 -21
-32 -22 -32 -3 0 22 -40 66 -61 66 -13 0 -19 7 -19 24 0 63 -82 89 -191 61
-67 -18 -93 -46 -85 -93 8 -51 31 -80 71 -88 37 -7 48 -24 15 -24 -11 0 -27
-11 -36 -26 l-17 -25 -31 30 c-18 17 -39 31 -48 31 -9 0 -19 8 -23 18 -3 9
-18 32 -34 51 -27 33 -32 35 -91 35 -59 0 -64 -1 -96 -37 -28 -30 -34 -45 -34
-81 0 -50 28 -93 63 -98 18 -2 21 -8 19 -34 -4 -35 23 -72 53 -75 50 -4 67 2
83 31 13 22 23 28 39 25 13 -2 36 0 52 5 24 7 33 4 51 -15 13 -13 32 -25 44
-27 13 -2 19 -9 17 -18 -20 -74 1 -112 63 -112 21 0 43 5 49 11 18 18 27 13
27 -17 0 -30 25 -72 42 -72 6 0 19 -7 29 -16 26 -23 83 -20 121 8 56 40 81 49
138 53 66 4 92 29 90 84 -1 20 -1 54 -1 76 l1 40 18 -35 c9 -20 26 -36 37 -38
13 -2 32 -23 49 -54 26 -46 29 -59 28 -143 -1 -130 30 -174 108 -155 54 13 89
128 54 178 -14 21 -14 22 5 22 25 0 51 36 51 72 0 42 17 34 25 -12 9 -54 32
-79 75 -82 23 -2 42 -12 57 -28 12 -15 43 -32 72 -40 28 -7 51 -19 51 -26 0
-6 8 -22 18 -34 15 -18 29 -23 67 -23 70 0 89 26 80 107 -9 72 -38 144 -62
153 -32 12 -40 32 -29 68 l10 33 18 -26 c54 -82 86 -116 113 -124 17 -4 36 -6
43 -3 8 3 12 -10 12 -48 0 -88 42 -133 110 -117 26 6 43 35 121 207 19 42 41
75 51 79 32 10 51 49 43 92 -6 39 -6 39 27 40 59 2 77 43 60 137 -7 38 -6 41
35 74 48 38 61 70 44 107 -8 19 -7 33 9 67 10 23 21 53 24 67 3 14 12 34 20
45 14 19 15 16 16 -35 0 -55 27 -120 50 -120 7 0 9 -15 5 -43 -10 -62 15 -90
80 -90 38 0 52 4 67 22 10 13 18 32 18 42 0 11 5 28 12 38 11 19 13 18 45 -6
43 -33 91 -33 136 1 19 14 41 26 50 26 20 0 47 38 47 67 0 19 5 22 42 21 49
-1 78 27 78 72 0 71 -91 101 -137 44 -20 -26 -24 -27 -47 -14 -32 17 -85 15
-104 -3 -8 -8 -17 -30 -21 -48 -5 -25 -13 -35 -29 -37 -12 -2 -28 -12 -35 -23
-14 -19 -14 -19 -32 1 -10 11 -24 20 -32 20 -11 0 -9 7 6 26 12 15 21 38 21
53 0 14 7 35 15 45 23 30 18 66 -15 119 -30 47 -40 52 -96 48 -27 -3 -37 21
-24 55 8 21 13 24 24 15 8 -7 30 -13 48 -15 19 -2 40 -6 47 -10 21 -13 81 -9
99 7 9 8 29 17 44 21 25 6 29 2 43 -30 8 -20 24 -38 35 -41 12 -3 22 -16 26
-32 11 -55 28 -75 74 -86 25 -6 55 -9 68 -7 33 6 55 45 49 84 -3 18 2 61 11
94 15 58 14 63 -4 94 -10 18 -26 36 -34 40 -8 4 -25 12 -37 18 -13 7 -28 12
-35 12 -7 0 -21 14 -30 30 -17 29 -34 35 -83 30 -11 -1 -25 -6 -31 -11 -7 -6
-24 -3 -45 7 -19 10 -41 20 -48 24 -8 4 -18 19 -22 34 -10 37 -27 56 -51 56
-10 0 -17 4 -13 9 3 6 18 6 37 1 17 -5 34 -7 39 -5 4 3 31 7 61 10 38 3 58 11
71 26 41 50 7 112 -62 112 l-42 0 20 21 c28 30 54 103 56 156 1 25 7 55 13 67
7 12 12 40 12 63 0 34 4 42 24 50 14 5 30 19 37 32 7 13 23 36 35 51 29 35 30
67 5 98 -18 22 -25 24 -113 22 -51 -1 -158 -9 -238 -18 -272 -29 -266 -29
-273 -12 -5 13 -1 14 24 7 18 -5 54 -5 90 2 67 12 93 37 87 84 -3 25 0 27 37
31 22 2 55 8 74 13 23 6 39 6 48 -1 17 -15 80 -14 99 1 16 14 86 17 119 5 38
-13 43 -13 84 -3 23 6 49 20 59 32 9 12 35 35 56 51 53 40 96 102 96 137 0 18
-10 39 -25 54 -30 30 -31 40 -5 79 25 38 25 66 0 98 -37 47 -28 54 48 36z
m-3088 -199 c0 -5 -4 -10 -9 -10 -6 0 -13 5 -16 10 -3 6 1 10 9 10 9 0 16 -4
16 -10z m-120 -77 c0 -14 -8 -31 -17 -38 -14 -10 -20 -8 -39 14 -24 29 -23 38
10 50 30 12 46 3 46 -26z m250 -62 c0 -9 6 -26 14 -36 12 -17 12 -22 -5 -44
-10 -13 -19 -34 -19 -46 0 -12 -6 -27 -13 -33 -9 -8 -18 -1 -34 29 -20 37 -21
39 -2 39 29 0 53 44 46 85 -4 21 -2 33 4 30 5 -4 9 -14 9 -24z m3410 -50 c-6
-12 -18 -21 -26 -21 -12 0 -11 6 7 32 24 33 38 24 19 -11z m-1535 -81 c-10
-11 -20 -18 -23 -15 -3 3 3 14 13 25 10 11 20 18 23 15 3 -3 -3 -14 -13 -25z
m-369 -17 c-7 -7 -26 7 -26 19 0 6 6 6 15 -2 9 -7 13 -15 11 -17z m536 -61 c3
-34 1 -38 -15 -34 -11 3 -16 10 -13 19 3 8 6 23 6 34 0 35 18 19 22 -19z
m-2084 -37 c9 -18 7 -20 -24 -20 -40 0 -45 13 -12 30 13 6 24 11 24 11 1 -1 6
-10 12 -21z m172 -76 c0 -6 -4 -7 -10 -4 -5 3 -25 2 -43 -3 -30 -8 -35 -7 -48
17 -15 26 -15 27 10 29 14 1 30 7 36 13 7 7 17 2 33 -16 12 -14 22 -31 22 -36z
m4370 -691 c0 -14 -18 -9 -24 8 -11 28 -6 39 9 20 8 -11 15 -23 15 -28z
m-2280 -437 c0 -6 -4 -13 -10 -16 -5 -3 -10 1 -10 9 0 9 5 16 10 16 6 0 10 -4
10 -9z m-693 -203 c-3 -8 -6 -5 -6 6 -1 11 2 17 5 13 3 -3 4 -12 1 -19z m-830
-430 c-3 -8 -6 -5 -6 6 -1 11 2 17 5 13 3 -3 4 -12 1 -19z m-400 -113 c-18 -9
-24 -8 -35 7 -7 10 -19 18 -26 18 -10 0 -11 7 -2 35 l11 34 37 -41 c37 -41 37
-42 15 -53z m-1502 -335 c3 -5 -1 -10 -10 -10 -9 0 -13 5 -10 10 3 6 8 10 10
10 2 0 7 -4 10 -10z m205 -85 c0 -8 -7 -15 -15 -15 -8 0 -24 -15 -36 -32 -19
-32 -20 -54 -4 -104 7 -22 6 -22 -42 -7 -26 8 -84 32 -128 53 -97 46 -118 51
-172 41 -39 -8 -43 -6 -43 12 0 11 3 18 6 15 3 -4 20 -2 37 3 18 6 53 11 79
13 40 3 50 -1 62 -19 17 -25 101 -48 146 -38 32 6 60 36 60 65 0 9 10 18 23
21 12 2 23 5 25 6 1 0 2 -6 2 -14z m1250 -2328 c35 -13 47 -13 73 -6 27 8 28
7 25 -24 -3 -30 -5 -32 -47 -34 -25 -1 -51 -9 -62 -19 -14 -13 -22 -15 -31 -6
-14 14 -48 89 -42 95 5 5 64 1 84 -6z m-280 -1797 c0 -5 -2 -10 -4 -10 -3 0
-8 5 -11 10 -3 6 -1 10 4 10 6 0 11 -4 11 -10z"/>
<path d="M5173 17048 c-42 -11 -68 -49 -59 -86 4 -15 11 -44 15 -65 5 -21 13
-43 19 -49 15 -15 2 -47 -21 -50 -12 -2 -28 -16 -36 -33 -8 -16 -20 -42 -28
-57 -33 -66 -3 -130 61 -130 45 0 72 22 97 77 l18 40 0 -51 c1 -68 23 -96 75
-96 21 0 45 7 56 17 24 22 45 8 53 -33 22 -111 44 -144 98 -144 19 0 39 2 44
4 6 1 27 -10 47 -25 38 -30 72 -35 146 -24 42 6 42 6 27 -16 -36 -51 -4 -109
60 -109 94 0 101 131 8 134 -30 1 -31 2 -18 22 22 31 18 88 -8 127 l-23 34 36
2 c47 3 72 34 69 87 -3 50 9 106 22 106 19 0 59 50 59 73 0 44 -31 70 -82 70
-55 0 -66 -6 -84 -48 -11 -26 -19 -32 -46 -33 -22 0 -39 -9 -53 -26 -12 -14
-36 -27 -58 -31 -44 -9 -67 -36 -67 -82 0 -18 -4 -33 -10 -33 -5 0 -29 20 -52
44 -26 27 -57 48 -78 53 -27 7 -41 20 -67 65 -18 30 -44 63 -58 72 -15 10 -25
26 -25 39 0 13 -7 32 -15 43 -8 10 -15 30 -15 44 0 57 -44 84 -107 68z"/>
<path d="M6532 16875 c-84 -20 -127 -102 -83 -156 16 -20 28 -23 86 -23 79 0
98 15 110 89 12 81 -27 112 -113 90z"/>
<path d="M6295 16682 c-11 -2 -37 -21 -57 -43 -47 -49 -49 -81 -8 -119 17 -15
30 -34 30 -42 0 -21 30 -58 55 -68 12 -5 31 -28 43 -53 12 -25 27 -49 33 -53
18 -11 87 -8 102 5 8 6 17 8 20 5 3 -3 23 -6 43 -6 71 0 97 70 47 121 -24 24
-28 37 -30 90 -2 72 -16 122 -43 146 -25 23 -86 22 -112 -1 -21 -20 -24 -20
-48 0 -18 16 -49 23 -75 18z"/>
<path d="M9855 16172 c-11 -2 -27 -10 -35 -17 -8 -7 -24 -15 -35 -17 -27 -5
-50 -48 -41 -81 3 -14 26 -41 49 -59 24 -18 42 -39 39 -46 -3 -10 -12 -6 -32
13 -39 37 -95 37 -127 0 -41 -47 -21 -107 40 -121 17 -3 45 -17 60 -30 16 -13
37 -24 48 -24 23 0 24 -17 4 -44 -8 -11 -15 -38 -15 -61 0 -23 7 -50 15 -61 8
-10 15 -29 15 -41 0 -20 -3 -21 -32 -12 -57 17 -100 13 -120 -11 -10 -13 -20
-21 -21 -19 -2 2 -11 16 -20 32 -10 15 -25 27 -35 27 -34 0 -42 20 -21 54 10
17 19 42 19 56 0 31 -26 70 -46 70 -11 0 -14 14 -14 59 0 75 -20 103 -72 103
-20 0 -42 -3 -47 -7 -23 -14 -41 -67 -47 -137 -6 -70 -5 -74 26 -115 17 -24
37 -43 44 -43 26 0 35 -22 20 -46 -9 -13 -14 -38 -12 -56 3 -27 -1 -33 -22
-38 -27 -6 -60 -59 -60 -96 0 -66 93 -91 138 -38 18 21 23 36 20 65 -4 42 1
41 58 -18 17 -18 42 -34 55 -34 38 -2 63 2 73 12 6 5 17 2 27 -7 10 -9 35 -16
56 -16 46 0 93 46 93 92 0 27 2 29 42 28 35 0 47 5 70 31 33 37 35 63 8 126
-25 58 -25 58 1 44 36 -19 91 -14 111 11 24 30 23 64 -5 96 -19 22 -32 27 -68
27 l-44 -1 3 39 c3 30 -2 49 -22 79 -14 22 -35 45 -45 52 -15 9 -17 17 -10 42
27 93 -10 153 -86 138z"/>
<path d="M8183 16073 c-53 -10 -80 -90 -45 -132 19 -23 42 -27 117 -17 75 10
107 60 70 113 -12 18 -88 46 -112 42 -4 -1 -18 -4 -30 -6z"/>
<path d="M8633 16022 c-13 -2 -32 -15 -44 -30 -17 -22 -20 -36 -15 -75 4 -37
1 -55 -14 -80 -25 -40 -26 -98 -2 -127 19 -24 85 -31 105 -11 7 7 16 7 29 0
11 -6 32 -11 48 -11 26 -1 28 -4 23 -29 -11 -57 36 -94 100 -78 l27 8 0 -62
c0 -34 3 -71 6 -82 3 -14 -5 -34 -25 -59 -17 -21 -31 -49 -31 -61 0 -14 -7
-25 -20 -28 -11 -3 -25 -18 -32 -34 -7 -15 -20 -39 -30 -52 -10 -13 -18 -34
-18 -46 0 -14 -7 -25 -19 -28 -26 -6 -61 -64 -61 -99 0 -75 98 -109 150 -51
20 22 36 28 71 30 32 2 49 8 64 26 24 28 51 25 59 -6 3 -12 23 -39 45 -61 31
-30 46 -38 76 -38 53 0 129 77 151 153 27 89 28 149 5 184 -31 45 -38 57 -50
88 -6 15 -22 32 -36 37 -30 11 -31 15 -5 47 27 35 25 67 -8 104 -24 27 -35 32
-87 34 -58 3 -60 4 -66 35 -4 18 -14 39 -22 47 -14 14 -82 21 -94 9 -3 -3 -13
4 -22 15 -9 12 -29 21 -47 21 -31 1 -32 2 -27 39 4 26 0 47 -11 63 -9 14 -16
37 -16 51 0 29 -24 80 -43 92 -7 4 -20 20 -29 34 -17 27 -45 37 -85 31z m477
-892 c0 -5 -4 -10 -10 -10 -5 0 -10 5 -10 10 0 6 5 10 10 10 6 0 10 -4 10 -10z"/>
<path d="M10163 15992 c-53 -8 -82 -97 -45 -140 20 -24 43 -29 94 -19 67 14
87 73 43 125 -25 30 -52 40 -92 34z"/>
<path d="M5383 15972 c-48 -7 -68 -72 -35 -112 39 -48 132 -17 132 44 0 48
-41 76 -97 68z"/>
<path d="M9120 15941 c-31 -9 -55 -50 -47 -82 4 -13 17 -37 30 -53 31 -38 100
-41 129 -6 26 33 23 75 -9 109 -30 32 -64 42 -103 32z"/>
<path d="M8033 15912 c-27 -4 -53 -38 -53 -69 0 -21 -3 -22 -27 -16 -34 9 -67
8 -91 -2 -9 -5 -28 -10 -42 -12 -34 -5 -60 -39 -60 -78 0 -39 26 -73 60 -77
14 -2 32 -11 41 -22 11 -13 28 -19 57 -19 47 0 73 18 91 62 8 18 20 27 39 29
44 4 51 16 79 129 11 47 -35 84 -94 75z"/>
<path d="M5128 15884 c-2 -2 -26 -6 -54 -9 -36 -4 -55 -13 -72 -31 -20 -23
-22 -32 -16 -85 6 -56 6 -59 -19 -68 -76 -29 -56 -125 28 -135 22 -2 51 -7 65
-10 41 -10 83 7 100 40 8 16 23 40 33 54 9 13 17 31 17 40 0 10 11 16 33 17
40 3 67 34 67 78 0 46 -27 75 -71 78 -20 1 -43 7 -50 13 -15 12 -56 24 -61 18z"/>
<path d="M8913 15883 c-27 -5 -53 -39 -53 -69 0 -40 32 -67 80 -67 33 0 48 6
62 23 47 58 -7 128 -89 113z"/>
<path d="M5570 15610 c-14 -3 -30 -17 -36 -30 -59 -124 -37 -187 62 -181 32 2
104 96 104 136 0 61 -56 93 -130 75z"/>
<path d="M8190 15592 c-8 -2 -22 -6 -30 -10 -8 -3 -36 -7 -62 -7 -60 -2 -72
-13 -94 -81 -17 -56 -15 -70 18 -116 10 -14 7 -21 -20 -47 -18 -16 -40 -31
-50 -33 -9 -2 -24 -18 -32 -35 -8 -18 -23 -33 -32 -33 -32 0 -48 -40 -48 -122
0 -71 2 -80 29 -110 25 -28 34 -32 81 -32 43 0 56 4 71 23 29 36 34 71 16 103
-14 25 -14 28 -1 28 8 0 25 5 37 12 12 7 32 14 45 15 12 2 38 14 57 28 27 17
42 22 63 16 67 -17 109 20 98 86 -4 21 -7 53 -6 72 0 42 -24 81 -50 81 -24 0
-25 8 -5 34 41 55 -20 146 -85 128z"/>
<path d="M7783 15482 c-28 -4 -63 -47 -63 -76 0 -12 -11 -37 -25 -56 -35 -47
-32 -76 12 -116 35 -32 53 -38 98 -35 23 2 65 45 65 67 0 8 9 14 19 14 26 0
61 46 61 79 0 34 -26 71 -49 71 -10 0 -26 11 -34 24 -16 24 -45 34 -84 28z"/>
<path d="M7100 15321 c-32 -9 -55 -50 -46 -84 14 -57 112 -81 148 -37 49 61
-20 143 -102 121z"/>
<path d="M5523 15272 c-49 -7 -69 -80 -35 -122 14 -17 29 -23 62 -23 33 0 48
6 62 23 47 58 -8 134 -89 122z"/>
<path d="M6720 15250 c-45 -11 -56 -47 -42 -142 7 -48 20 -93 30 -108 19 -24
19 -25 -15 -56 -20 -19 -33 -41 -33 -56 0 -32 54 -108 78 -109 9 0 26 -3 37
-5 85 -19 128 9 124 81 -2 22 3 53 11 68 11 22 11 35 2 61 -7 18 -12 46 -12
62 0 38 -24 72 -53 76 -19 3 -22 8 -19 38 6 63 -45 105 -108 90z"/>
<path d="M6153 15182 c-59 -9 -84 -107 -40 -158 19 -21 32 -27 67 -27 53 0 80
27 80 82 0 70 -44 113 -107 103z"/>
<path d="M7393 15122 c-26 -4 -53 -37 -53 -65 0 -10 -9 -30 -20 -44 -25 -32
-25 -59 0 -100 19 -32 35 -38 85 -34 30 3 55 39 55 80 0 20 7 45 15 55 42 56
-7 119 -82 108z"/>
<path d="M5513 15072 c-40 -6 -53 -39 -53 -133 0 -126 31 -154 135 -119 71 24
93 70 58 120 -9 13 -16 38 -15 56 4 58 -48 89 -125 76z"/>
<path d="M9330 15030 c-14 -3 -35 -21 -48 -40 -25 -37 -25 -54 -4 -165 5 -27
7 -65 5 -83 -5 -29 -11 -34 -49 -43 -48 -12 -104 -66 -104 -99 0 -14 -7 -20
-21 -20 -27 0 -89 -62 -89 -89 0 -28 24 -86 40 -96 30 -18 79 -6 141 37 35 23
77 50 93 58 31 16 66 64 66 92 0 11 12 18 40 23 52 9 73 38 69 98 -2 28 3 52
14 67 9 14 17 28 17 32 0 4 11 24 25 44 48 71 21 144 -61 161 -27 6 -62 15
-79 20 -16 5 -41 7 -55 3z"/>
<path d="M8030 14811 c-36 -10 -67 -71 -55 -107 6 -15 17 -30 25 -34 84 -42
115 -42 165 -4 19 14 38 38 42 52 8 33 -15 74 -47 82 -48 13 -105 18 -130 11z"/>
<path d="M7432 14802 c-33 -5 -62 -58 -60 -108 1 -37 -4 -46 -53 -95 -108
-108 -116 -171 -24 -205 19 -7 19 -8 -2 -11 -48 -9 -68 -73 -35 -113 39 -48
132 -17 132 44 0 31 -28 66 -52 66 -31 0 -15 11 24 16 39 6 68 36 68 73 0 23
4 26 36 28 19 1 42 7 50 14 11 9 14 7 14 -13 0 -28 26 -68 45 -68 7 0 22 -17
32 -37 14 -30 27 -40 63 -51 66 -19 117 -7 141 32 24 39 24 64 2 96 -10 14
-25 39 -33 55 -8 17 -24 31 -35 33 -17 2 -20 9 -17 40 5 55 -22 85 -78 85 -52
0 -80 -27 -80 -78 0 -18 -7 -38 -15 -45 -13 -11 -15 0 -15 87 0 85 -3 104 -20
125 -20 27 -48 36 -88 30z"/>
<path d="M5822 14712 c-27 -4 -47 -33 -61 -87 -20 -81 -36 -115 -52 -115 -31
0 -41 -21 -65 -140 -7 -33 26 -76 65 -83 40 -8 97 9 116 36 8 12 15 35 15 52
0 57 10 74 50 85 21 6 43 17 50 25 10 12 16 13 26 4 8 -7 33 -12 56 -12 51 0
78 28 78 82 0 66 -48 101 -116 82 -24 -6 -33 -2 -63 30 -37 38 -60 47 -99 41z"/>
<path d="M7082 14592 c-13 -2 -31 -17 -42 -35 -10 -18 -23 -36 -29 -40 -73
-63 -88 -99 -58 -141 9 -12 12 -36 9 -65 -6 -64 18 -94 76 -94 23 0 48 6 56
12 8 6 18 11 22 10 30 -5 56 4 69 24 13 21 14 41 4 153 -6 71 -17 139 -24 150
-14 22 -44 32 -83 26z"/>
<path d="M6140 14530 c-31 -7 -55 -49 -47 -81 4 -13 17 -37 30 -52 18 -23 31
-29 62 -29 71 0 99 72 50 130 -27 32 -55 42 -95 32z"/>
<path d="M6544 14493 c-12 -2 -30 -13 -40 -24 -9 -10 -25 -19 -35 -19 -20 0
-49 -36 -49 -61 0 -10 8 -37 19 -61 l19 -44 -23 -26 c-25 -29 -41 -119 -30
-168 5 -22 1 -37 -14 -56 -12 -15 -21 -37 -21 -50 0 -30 43 -113 75 -143 20
-18 25 -33 25 -70 0 -49 21 -91 46 -91 20 0 18 -5 -12 -35 -21 -21 -25 -32
-20 -58 4 -18 6 -50 6 -72 0 -57 47 -130 90 -139 33 -6 97 6 137 26 28 14 40
4 22 -18 -20 -25 -30 -141 -17 -197 10 -38 9 -55 -1 -80 -24 -59 -24 -82 1
-111 14 -16 35 -27 53 -29 l31 -2 -20 -37 c-24 -43 -15 -87 22 -103 16 -7 22
-18 22 -41 0 -37 34 -84 61 -84 10 0 19 -5 19 -11 0 -6 -9 -8 -22 -3 -66 21
-118 -9 -118 -67 0 -22 -5 -29 -19 -29 -26 0 -51 -37 -51 -74 0 -28 -1 -29
-19 -12 -29 26 -91 24 -113 -4 -24 -30 -23 -64 5 -95 44 -52 137 -26 137 38 0
16 3 18 12 9 7 -7 18 -12 24 -12 7 0 26 -13 42 -30 17 -16 40 -30 51 -30 15 0
21 -6 21 -24 0 -64 71 -88 143 -47 35 20 37 20 37 2 0 -59 94 -88 132 -41 40
49 8 112 -55 112 -21 0 -43 -5 -50 -10 -9 -8 -15 -3 -23 22 l-10 33 36 -4 c53
-5 93 10 114 43 17 24 27 29 65 30 51 1 81 28 81 73 0 33 -26 71 -48 71 -11 0
-25 17 -37 43 -11 23 -29 46 -41 51 -20 9 -20 9 3 32 15 15 23 35 23 56 0 43
-43 107 -73 110 -37 2 -72 -3 -81 -13 -16 -14 -26 -11 -26 10 0 34 -33 63 -70
63 -19 0 -39 -1 -45 -2 -34 -7 -44 0 -39 30 4 18 1 38 -8 52 -15 23 -17 96 -4
117 4 6 16 11 26 11 23 0 50 36 50 67 0 13 -15 40 -33 60 -18 21 -41 50 -50
66 -10 15 -26 27 -38 27 -19 0 -19 1 -5 22 11 15 27 23 55 24 53 3 80 19 97
60 8 19 19 32 24 29 6 -4 4 -15 -5 -28 -29 -41 -8 -102 38 -109 18 -2 21 -9
19 -33 -3 -40 31 -95 60 -97 71 -4 112 22 106 71 -2 16 5 34 20 48 26 26 29
69 7 100 -12 18 -56 33 -107 37 -3 1 -10 4 -14 9 -4 4 -15 7 -25 7 -16 0 -16
3 2 37 12 24 32 43 59 55 46 22 53 35 71 135 12 72 12 73 -16 113 -35 50 -38
52 -82 52 -55 0 -68 -22 -90 -147 -2 -16 -17 -48 -32 -70 -25 -37 -30 -40 -67
-36 -21 2 -52 4 -69 5 -47 2 -68 35 -60 98 5 43 2 59 -14 84 -30 49 -100 52
-129 5 -17 -28 -17 -27 -20 55 -1 46 -9 98 -16 116 -13 30 -12 35 5 57 10 13
19 32 19 44 0 19 1 19 19 3 40 -37 206 -13 230 33 16 30 13 66 -8 92 -15 19
-28 23 -79 23 -33 0 -67 -6 -75 -12 -21 -18 -36 6 -44 69 -11 90 -81 141 -169
122z m541 -1733 c3 -5 2 -10 -4 -10 -5 0 -13 5 -16 10 -3 6 -2 10 4 10 5 0 13
-4 16 -10z"/>
<path d="M8655 14452 c-30 -6 -115 -98 -115 -125 0 -37 27 -65 67 -71 59 -10
95 5 120 50 49 86 11 162 -72 146z"/>
<path d="M5872 14343 c-30 -6 -62 -59 -62 -103 1 -55 39 -123 75 -132 102 -27
157 47 124 165 -14 53 -72 83 -137 70z"/>
<path d="M7672 14221 c-12 -4 -38 -26 -57 -50 -37 -46 -46 -101 -25 -141 5
-10 7 -26 4 -34 -5 -14 -9 -13 -31 4 -14 11 -33 20 -42 20 -9 0 -25 17 -36 37
-33 61 -117 66 -158 11 -16 -21 -18 -35 -12 -77 9 -63 30 -91 72 -94 18 -1 33
-7 33 -13 0 -25 36 -55 67 -56 l32 -1 6 -66 c7 -82 40 -153 75 -161 46 -11 71
2 118 61 26 32 54 58 63 58 8 1 30 16 48 35 32 33 33 33 75 21 23 -7 54 -11
68 -8 21 4 27 0 32 -21 15 -59 112 -79 153 -31 28 32 29 65 4 96 -15 19 -27
23 -73 22 l-54 -1 -17 42 c-9 23 -17 53 -17 67 0 64 -80 93 -183 68 -50 -13
-67 -13 -95 -4 -15 6 -3 33 34 78 29 34 30 62 5 103 -20 32 -50 44 -89 35z"/>
<path d="M8442 14203 c-29 -6 -49 -37 -58 -90 -9 -57 11 -86 67 -99 60 -14 90
-4 116 35 43 64 23 132 -45 151 -38 10 -41 10 -80 3z"/>
<path d="M5753 14002 c-49 -7 -69 -80 -35 -122 13 -16 29 -22 57 -22 45 0 75
28 75 71 0 53 -39 82 -97 73z"/>
<path d="M7410 13699 c-41 -12 -70 -42 -70 -73 0 -11 10 -39 23 -60 24 -43 59
-59 109 -49 34 7 78 56 78 86 0 28 -46 97 -65 97 -7 0 -19 2 -27 4 -7 2 -29 0
-48 -5z"/>
<path d="M7783 13523 c-26 -5 -53 -39 -53 -66 0 -34 33 -119 51 -130 17 -10
17 -12 -2 -35 -37 -47 -15 -128 36 -133 48 -4 66 2 83 29 11 18 27 28 47 30
60 6 80 64 50 146 -9 26 -11 45 -4 57 14 27 11 54 -9 80 -17 19 -29 23 -98 24
-43 1 -89 0 -101 -2z"/>
<path d="M6403 13433 c-75 -15 -68 -158 7 -164 55 -4 71 1 90 34 48 79 -4 148
-97 130z"/>
<path d="M7052 13242 c-30 -5 -52 -41 -52 -83 1 -19 -2 -50 -5 -69 -5 -27 -2
-41 15 -63 12 -15 29 -27 39 -27 9 0 22 -5 28 -11 6 -6 28 -11 49 -11 41 0 74
28 74 62 0 9 13 37 30 61 34 51 37 78 12 109 -15 18 -30 23 -85 26 -37 2 -71
5 -75 7 -4 2 -17 1 -30 -1z"/>
<path d="M7860 13108 c-36 -11 -71 -21 -78 -24 -19 -5 -35 -49 -29 -76 4 -13
19 -38 34 -56 26 -31 34 -34 98 -39 105 -7 118 -5 138 18 21 26 22 59 2 85 -8
10 -15 29 -15 40 0 29 -29 61 -60 67 -14 3 -54 -4 -90 -15z"/>
<path d="M8640 12911 c-18 -4 -32 -21 -49 -59 -16 -32 -31 -52 -42 -52 -9 0
-22 -6 -28 -14 -17 -20 -51 -116 -51 -142 0 -33 31 -64 67 -67 17 -2 39 -9 47
-16 9 -7 32 -13 53 -13 62 0 87 48 58 115 -5 12 -3 17 8 17 28 0 59 51 53 85
-4 16 -6 46 -6 66 1 60 -48 96 -110 80z"/>
<path d="M6153 12592 c-12 -2 -36 -17 -54 -33 -29 -27 -31 -33 -25 -72 12 -74
41 -99 104 -88 30 5 82 76 82 111 0 54 -49 91 -107 82z"/>
<path d="M7455 12582 c-33 -7 -44 -21 -62 -82 l-17 -58 -30 10 c-55 16 -99 12
-118 -12 -21 -26 -23 -52 -6 -83 6 -12 11 -48 10 -80 -1 -37 5 -73 18 -102 23
-55 19 -68 -36 -120 -35 -33 -47 -39 -68 -34 -13 4 -27 5 -29 3 -2 -3 -7 8
-10 23 -8 40 -66 99 -110 111 -50 14 -88 2 -113 -36 -22 -32 -34 -32 -34 -1 0
34 -33 61 -75 61 -70 0 -99 -69 -50 -118 23 -23 26 -36 32 -130 8 -134 17
-148 98 -148 45 0 61 4 74 19 10 13 31 21 56 22 44 3 75 30 75 65 0 16 3 18
13 10 7 -6 25 -12 39 -14 15 -2 36 -12 46 -22 11 -9 33 -17 48 -17 62 -1 136
10 150 22 11 9 14 8 14 -7 0 -11 3 -29 6 -41 5 -18 2 -23 -14 -23 -25 0 -62
-45 -62 -74 0 -12 7 -31 15 -42 8 -10 15 -31 15 -45 0 -36 29 -69 62 -71 23
-2 26 -5 21 -33 -5 -34 27 -85 54 -85 13 0 15 -10 9 -68 -6 -60 -4 -71 14 -95
19 -24 20 -28 5 -63 -20 -49 -19 -62 9 -127 30 -65 36 -70 94 -70 35 0 49 5
64 22 20 25 24 89 9 152 -6 26 -4 41 6 55 8 11 13 37 12 59 -3 40 4 77 22 126
6 14 12 55 14 92 2 36 8 74 13 84 6 10 13 43 17 73 9 74 -12 103 -73 102 -37
-1 -44 3 -58 29 -14 28 -29 38 -77 53 -17 5 -17 8 -1 37 10 20 14 43 10 62 -4
20 0 40 14 62 17 28 20 47 18 116 -3 78 -2 84 20 95 31 16 71 54 77 75 5 14
11 16 40 8 19 -6 47 -9 62 -7 20 2 30 -3 41 -23 14 -24 13 -30 -13 -82 -28
-55 -29 -59 -17 -115 7 -32 12 -74 12 -94 0 -71 29 -86 146 -75 48 5 51 4 61
-24 6 -16 20 -32 30 -35 10 -3 26 -10 35 -15 10 -5 23 -9 29 -9 6 0 19 -10 28
-22 22 -26 97 -30 133 -6 33 21 52 13 33 -15 -22 -32 -18 -63 13 -98 22 -25
36 -31 67 -31 72 0 101 80 51 139 -17 20 -22 34 -15 44 5 8 9 29 9 47 0 28 5
35 33 47 19 8 51 33 71 55 36 40 37 44 32 93 -4 39 -3 45 4 24 5 -16 14 -35
22 -44 8 -10 11 -39 9 -87 -4 -94 13 -118 85 -120 27 -1 62 3 77 7 21 6 28 5
25 -4 -2 -7 -22 -17 -44 -23 -29 -9 -43 -20 -56 -45 -27 -54 -44 -66 -95 -67
-38 -1 -52 -7 -70 -28 -47 -55 -17 -119 55 -119 23 0 52 7 65 16 20 13 26 13
42 1 10 -8 26 -14 34 -14 9 0 27 -13 41 -29 24 -29 40 -35 88 -32 27 1 62 54
62 94 0 16 9 40 20 54 21 27 26 73 10 102 -8 15 -5 18 21 19 17 0 38 7 48 15
9 8 24 17 34 20 9 4 26 22 38 41 23 40 40 46 138 49 63 2 76 6 92 26 34 42 25
90 -31 165 -50 65 -61 71 -115 67 -11 -1 -31 -14 -44 -29 -22 -24 -31 -27 -92
-27 -50 0 -72 -5 -86 -18 -11 -9 -27 -17 -36 -17 -9 0 -23 -10 -31 -22 -13
-18 -18 -19 -31 -8 -8 7 -15 21 -15 32 0 11 -18 38 -39 59 -21 22 -42 50 -45
63 -3 14 -17 38 -31 54 -18 22 -25 42 -25 72 0 34 -6 47 -30 70 -31 29 -79 43
-120 35 -14 -3 -50 -7 -80 -9 -62 -6 -90 -29 -90 -76 0 -45 28 -70 84 -75 26
-2 50 -5 51 -7 2 -2 1 -23 -2 -48 -5 -42 -7 -45 -35 -47 -17 -1 -35 -6 -42
-11 -6 -5 -24 -9 -41 -10 -34 -2 -65 -33 -65 -66 0 -11 -12 -34 -26 -50 l-25
-29 -30 34 c-16 19 -31 45 -35 59 -11 48 -25 72 -44 77 -24 6 -24 4 -6 45 8
18 17 45 20 59 5 21 13 28 40 33 21 4 44 18 57 34 18 23 20 35 15 82 -4 30
-15 66 -24 80 -36 48 -199 63 -233 21 -8 -10 -24 -21 -35 -23 -10 -2 -29 -22
-42 -45 -22 -41 -23 -41 -50 -27 -15 7 -34 14 -42 14 -9 0 -21 5 -27 11 -23
23 -128 2 -148 -30 -8 -14 -65 45 -65 67 0 39 -31 61 -90 65 -30 2 -64 2 -75
-1z m-13 -202 c16 0 17 -3 4 -32 -8 -18 -17 -41 -20 -50 -3 -10 -10 -18 -16
-18 -16 0 -29 43 -19 62 5 9 9 27 9 39 0 18 3 20 12 11 7 -7 20 -12 30 -12z
m617 -343 c0 -33 -2 -38 -9 -22 -12 28 -12 78 0 70 6 -3 10 -25 9 -48z"/>
<path d="M8793 12462 c-29 -4 -63 -47 -63 -79 0 -28 22 -74 45 -93 26 -22 96
-16 117 10 23 29 22 55 -5 110 -23 45 -48 59 -94 52z"/>
<path d="M6193 12202 c-27 -4 -53 -38 -53 -69 0 -16 -6 -23 -20 -23 -24 0 -80
-73 -80 -104 0 -30 27 -66 50 -66 17 0 17 -2 -5 -25 -47 -46 -25 -140 38 -169
85 -39 148 -39 173 -1 8 13 16 56 18 108 2 48 8 93 14 100 14 17 43 95 49 132
6 39 -21 73 -62 77 -16 2 -35 10 -42 19 -14 18 -45 26 -80 21z"/>
<path d="M7133 11752 c-35 -5 -66 -51 -59 -87 4 -16 8 -64 10 -105 3 -90 18
-156 39 -177 26 -27 85 -19 121 16 18 17 39 31 48 31 43 0 64 98 31 139 -11
13 -31 22 -50 24 -32 2 -33 3 -33 47 0 79 -41 122 -107 112z"/>
<path d="M6495 11692 c-29 -6 -53 -30 -67 -69 -7 -20 -19 -33 -28 -32 -71 6
-100 -31 -100 -131 0 -71 18 -110 49 -110 35 0 31 -29 -10 -89 -37 -55 -40
-63 -34 -105 7 -43 6 -46 -14 -46 -12 0 -33 -11 -46 -25 -21 -20 -25 -34 -25
-81 0 -49 -4 -59 -29 -83 -34 -32 -49 -90 -33 -126 11 -25 69 -62 123 -78 10
-3 24 -28 34 -56 9 -28 25 -57 34 -63 10 -7 20 -26 23 -43 5 -27 15 -59 40
-123 4 -13 17 -26 27 -29 15 -4 18 -12 14 -42 -7 -52 20 -83 72 -83 45 0 75
28 75 71 0 30 -25 71 -43 71 -16 0 -14 78 2 108 20 37 12 72 -33 151 -12 20
-12 28 -1 45 7 12 18 54 25 94 16 99 -1 128 -77 125 -7 -1 -13 4 -13 11 0 6
17 12 38 13 51 3 76 34 67 83 -4 19 -10 55 -15 80 -4 25 -11 53 -15 63 -6 14
-2 17 26 16 118 -6 175 26 166 92 -4 33 -2 36 26 45 38 11 63 51 54 85 -10 36
-99 109 -139 112 -29 2 -33 6 -39 40 -10 66 -78 120 -134 109z"/>
<path d="M8390 11570 c-27 -6 -69 -77 -70 -117 0 -14 18 -42 45 -70 26 -26 45
-56 45 -69 0 -38 31 -66 75 -66 67 0 97 62 55 115 -11 14 -20 34 -20 44 0 11
-7 28 -15 39 -8 10 -15 33 -15 49 0 58 -41 89 -100 75z"/>
<path d="M9252 11262 c-33 -5 -72 -68 -72 -118 0 -62 25 -87 85 -87 41 0 52 4
73 28 21 25 24 35 18 78 -9 81 -39 109 -104 99z"/>
<path d="M7102 11122 c-12 -2 -28 -12 -35 -23 -7 -11 -29 -24 -49 -30 -26 -7
-46 -22 -69 -53 -27 -39 -34 -43 -57 -37 -61 17 -122 -23 -122 -81 0 -27 52
-98 72 -98 6 0 33 -24 60 -52 l50 -53 -16 -50 c-8 -27 -18 -77 -21 -110 -8
-76 11 -106 67 -108 l36 -1 -14 -27 c-30 -59 -3 -151 48 -161 46 -8 72 6 100
57 21 39 27 64 27 116 1 53 6 71 26 99 14 19 25 47 25 62 0 31 -39 78 -63 78
-22 0 -16 69 8 95 61 68 75 87 75 106 0 11 6 30 14 42 8 12 18 43 21 70 6 41
4 53 -19 87 -14 22 -34 40 -44 40 -10 0 -26 6 -37 13 -25 17 -53 24 -83 19z"/>
<path d="M7572 10992 c-37 -6 -52 -40 -52 -123 -2 -183 8 -229 51 -229 10 0
23 -9 29 -19 32 -60 136 -85 172 -42 15 19 17 35 12 99 -4 52 -12 86 -25 104
-10 15 -19 39 -19 53 0 14 -11 37 -25 51 -14 14 -25 29 -25 34 0 5 -11 22 -25
38 -25 30 -52 40 -93 34z"/>
<path d="M6013 10933 c-52 -10 -69 -83 -30 -128 47 -55 147 -20 147 50 0 49
-60 88 -117 78z"/>
<path d="M8313 10743 c-50 -9 -71 -98 -35 -143 14 -17 29 -23 62 -23 54 0 80
27 80 83 0 61 -44 94 -107 83z"/>
<path d="M6132 10732 c-13 -2 -32 -18 -42 -35 -20 -32 -20 -32 -104 -32 -97 0
-113 -9 -127 -72 -4 -21 -13 -60 -20 -87 -8 -36 -8 -59 0 -86 6 -21 11 -51 11
-68 0 -46 28 -74 75 -74 58 0 80 31 89 123 9 91 14 109 31 109 7 0 23 12 35
28 19 24 29 27 82 28 51 0 64 4 80 23 26 33 22 65 -12 104 -30 35 -56 45 -98
39z"/>
<path d="M5613 10618 c-42 -11 -67 -49 -60 -88 5 -23 2 -32 -14 -41 -45 -24
-64 -128 -31 -169 22 -27 84 -30 111 -6 10 9 25 16 33 16 26 0 56 33 74 80 29
79 28 110 -5 161 -32 50 -56 61 -108 47z"/>
<path d="M8614 10578 c-38 -10 -124 -100 -124 -131 0 -78 130 -113 169 -46 9
16 24 29 33 29 21 0 48 37 48 66 0 29 -43 80 -72 86 -13 2 -37 1 -54 -4z"/>
<path d="M8095 10338 c-17 -4 -50 -10 -75 -13 -47 -6 -80 -32 -80 -65 0 -9 -9
-25 -20 -35 -11 -10 -22 -25 -25 -35 -4 -11 -16 -17 -38 -18 -19 0 -38 -9 -48
-21 -16 -20 -16 -20 -27 2 -5 12 -18 48 -27 79 -9 31 -23 62 -30 68 -18 15
-81 15 -99 1 -39 -32 -60 -191 -59 -441 0 -209 8 -232 78 -232 49 0 78 31 73
77 -3 29 -2 30 36 31 27 1 45 8 56 22 9 11 31 23 49 27 22 5 39 17 50 36 9 16
24 29 33 29 27 0 52 45 43 78 -11 39 -9 96 4 120 12 22 31 20 108 -14 18 -8
46 -16 62 -17 26 -2 28 -4 15 -22 -33 -46 -1 -145 47 -145 10 0 19 -6 19 -14
0 -8 8 -24 18 -36 22 -28 81 -30 120 -4 15 11 40 23 57 29 36 12 75 68 75 107
0 35 -21 88 -43 107 -26 21 -88 17 -108 -8 -10 -12 -19 -26 -21 -33 -3 -7 -12
-6 -30 6 -14 9 -39 18 -55 19 -28 2 -29 3 -16 23 23 36 28 119 9 149 -9 14
-23 25 -31 25 -11 0 -15 11 -15 38 0 67 -40 98 -105 80z"/>
<path d="M9153 10332 c-38 -6 -73 -58 -73 -107 0 -56 -8 -75 -30 -75 -25 0
-70 -56 -70 -87 0 -30 52 -82 84 -84 44 -3 62 3 80 24 13 16 30 22 64 23 87 3
101 64 51 219 -25 79 -46 97 -106 87z"/>
<path d="M5702 10323 c-39 -8 -55 -45 -47 -108 8 -71 29 -97 79 -97 22 0 45 7
54 16 15 14 17 13 27 -12 8 -19 8 -35 1 -54 -22 -59 25 -110 100 -110 45 0 82
25 89 60 3 15 17 48 30 75 30 56 31 77 8 106 -20 23 -35 25 -135 17 -68 -6
-68 -6 -68 20 0 28 -49 84 -73 84 -9 0 -21 2 -29 4 -7 2 -23 1 -36 -1z"/>
<path d="M8863 10233 c-50 -9 -71 -98 -35 -143 14 -17 29 -23 62 -23 54 0 80
27 80 83 0 61 -44 94 -107 83z"/>
<path d="M6549 10116 c-64 -21 -75 -85 -26 -142 20 -23 32 -27 72 -27 40 0 52
4 72 27 31 36 29 68 -7 109 -35 40 -64 48 -111 33z"/>
<path d="M8910 10021 c-27 -8 -78 -90 -79 -128 -1 -12 10 -34 22 -49 21 -24
31 -27 91 -28 60 -1 70 2 87 23 10 13 19 34 19 47 0 25 -43 119 -57 127 -18
10 -60 14 -83 8z"/>
<path d="M8642 10003 c-28 -6 -53 -42 -52 -79 0 -16 -3 -48 -6 -70 -5 -36 -2
-46 23 -74 61 -69 162 -26 149 64 -3 23 -6 57 -6 77 1 59 -44 93 -108 82z"/>
<path d="M5958 9874 c-3 -3 -45 -6 -92 -8 -63 -2 -91 -7 -103 -19 -15 -14 -26
-58 -39 -147 -8 -50 19 -82 68 -82 46 0 42 -25 -5 -26 -33 -1 -67 -31 -67 -61
0 -9 -7 -25 -15 -35 -8 -11 -15 -37 -15 -59 l0 -39 -18 22 c-25 31 -89 31
-114 0 -40 -50 -8 -112 57 -112 41 0 75 27 75 61 0 9 8 3 20 -16 11 -19 31
-35 47 -39 15 -4 37 -17 48 -30 47 -54 155 -18 155 52 0 33 30 84 50 84 8 1
40 13 70 28 77 38 85 65 42 142 -5 8 -15 28 -23 45 -16 33 -50 45 -92 34 -22
-6 -32 -3 -50 15 l-23 23 49 14 c76 20 99 73 55 122 -22 24 -69 42 -80 31z"/>
<path d="M8452 9743 c-31 -6 -50 -38 -57 -98 -9 -67 13 -97 70 -97 32 0 45 6
72 36 70 77 17 177 -85 159z"/>
<path d="M7943 9662 c-48 -7 -68 -72 -35 -112 39 -48 132 -17 132 44 0 48 -41
76 -97 68z"/>
<path d="M7573 9593 c-29 -5 -53 -40 -53 -73 0 -30 -17 -50 -41 -50 -10 0 -29
-15 -44 -32 -14 -18 -37 -45 -50 -61 -14 -15 -25 -32 -25 -37 0 -22 -21 -8
-34 23 -17 43 -60 70 -110 70 -56 0 -80 -31 -72 -93 3 -25 9 -78 13 -117 5
-47 14 -79 25 -90 21 -21 109 -23 132 -3 19 15 35 5 19 -11 -6 -6 -22 -16 -35
-23 -25 -12 -54 -85 -65 -162 -5 -37 -2 -46 20 -68 15 -15 40 -29 57 -33 41
-8 56 -36 35 -65 -37 -55 -5 -120 60 -120 52 0 79 31 72 82 -3 26 1 43 14 59
21 26 24 88 9 159 -30 133 -30 147 0 155 27 7 56 73 64 146 6 69 32 111 68
111 29 0 50 45 56 118 3 55 1 71 -14 89 -20 22 -63 34 -101 26z"/>
<path d="M6555 9482 c-11 -2 -27 -10 -36 -18 -11 -10 -18 -11 -27 -2 -6 6 -32
11 -58 11 -41 0 -51 -4 -81 -36 -24 -26 -33 -46 -33 -70 0 -19 -5 -59 -11 -90
-9 -45 -16 -57 -30 -57 -30 0 -52 -44 -45 -87 12 -66 7 -93 -19 -124 -14 -17
-25 -36 -25 -44 0 -8 -13 -13 -37 -13 -42 0 -73 -29 -73 -67 0 -68 104 -95
138 -36 13 23 23 29 49 29 19 0 40 6 48 12 12 10 19 10 33 -4 10 -9 27 -16 36
-16 14 0 17 -5 12 -22 -3 -13 -6 -31 -6 -40 0 -12 -11 -19 -35 -24 -57 -10
-83 -67 -50 -110 8 -10 15 -26 15 -35 0 -32 33 -60 72 -62 36 -2 38 -4 38 -35
0 -35 37 -82 63 -82 19 0 27 -22 27 -70 0 -22 8 -47 19 -61 16 -21 28 -24 85
-23 86 0 95 10 113 121 13 88 10 118 -18 191 -6 15 -5 30 2 43 13 26 2 104
-20 131 -13 15 -30 21 -63 22 -36 1 -53 7 -76 29 -16 15 -42 31 -58 36 -25 6
-29 12 -30 52 -1 24 -6 69 -12 99 -6 34 -6 63 0 76 6 13 6 40 0 73 -9 50 -8
53 20 79 17 15 36 41 44 59 11 26 19 31 49 31 20 0 42 6 51 12 8 7 15 11 17 9
1 -2 15 -18 30 -36 l29 -31 -21 -47 c-27 -60 -26 -78 2 -110 30 -36 92 -38
119 -5 10 12 18 28 18 36 0 7 11 24 25 38 14 14 25 36 25 50 0 29 -33 111 -49
120 -6 4 -11 16 -11 26 0 10 -10 31 -23 45 -30 36 -92 38 -120 4 l-18 -22 -14
20 c-15 22 -47 31 -80 25z"/>
<path d="M8470 9290 c-35 -8 -57 -51 -45 -87 6 -15 20 -32 33 -38 15 -7 22
-18 22 -37 0 -15 10 -39 23 -54 18 -21 32 -27 65 -27 23 0 49 6 58 13 23 20
54 85 54 114 0 38 -39 76 -80 79 -19 1 -40 9 -47 18 -15 20 -49 27 -83 19z"/>
<path d="M5875 9083 c-11 -2 -30 -16 -42 -31 -17 -20 -32 -26 -68 -28 -72 -3
-78 -14 -80 -145 -2 -130 5 -145 75 -154 83 -12 98 -9 118 23 9 15 28 28 42
30 35 4 70 47 70 85 0 18 7 41 15 51 26 35 11 122 -26 153 -17 14 -76 23 -104
16z"/>
<path d="M8579 9006 c-3 -4 -32 -8 -63 -11 -62 -4 -81 -15 -92 -48 -4 -12 -17
-35 -30 -50 -13 -16 -24 -38 -24 -50 0 -36 47 -97 81 -104 16 -3 29 -11 29
-18 0 -30 36 -57 74 -57 44 0 62 14 91 74 11 23 28 45 38 50 9 4 25 12 35 17
22 11 37 52 28 82 -3 13 -23 43 -44 66 -28 32 -47 44 -77 49 -22 3 -43 3 -46
0z"/>
<path d="M9152 8703 c-12 -3 -28 -13 -34 -23 -9 -13 -18 -16 -38 -10 -65 19
-120 -22 -120 -90 0 -53 26 -82 74 -82 39 0 71 21 81 53 5 14 16 18 57 17 42
-1 54 3 69 21 48 59 -6 129 -89 114z"/>
<path d="M6150 8560 c-56 -14 -91 -141 -52 -190 27 -33 89 -31 118 5 11 15 32
32 45 39 47 23 48 107 2 122 -10 3 -27 9 -38 14 -36 15 -50 17 -75 10z"/>
<path d="M8911 8490 c-13 -3 -33 -17 -44 -32 -16 -21 -18 -35 -13 -72 10 -63
32 -88 81 -88 53 0 85 36 85 96 0 71 -46 112 -109 96z"/>
<path d="M8535 8483 c-11 -3 -31 -15 -45 -27 -14 -12 -38 -23 -55 -24 -47 -3
-65 -33 -65 -112 0 -85 18 -112 74 -112 20 0 40 3 43 6 4 3 14 -1 24 -10 10
-9 35 -16 55 -16 45 0 74 29 74 73 0 17 7 41 16 54 21 33 11 106 -19 139 -23
25 -67 38 -102 29z"/>
<path d="M5303 8212 c-13 -2 -32 -15 -44 -30 -17 -22 -20 -35 -15 -71 11 -82
49 -110 122 -89 68 18 82 79 34 145 -30 40 -54 52 -97 45z"/>
<path d="M8007 8117 c-28 -7 -45 -20 -64 -48 -14 -22 -34 -39 -44 -39 -48 0
-72 -86 -49 -171 10 -37 65 -89 93 -89 17 0 27 -21 27 -55 0 -35 39 -75 75
-77 45 -1 144 10 156 18 6 4 20 25 31 48 11 22 29 57 39 76 42 78 12 145 -72
156 -48 6 -49 7 -50 43 0 50 -47 133 -79 141 -14 3 -42 2 -63 -3z"/>
<path d="M9010 8100 c-42 -10 -54 -45 -45 -133 9 -97 31 -129 88 -129 21 0 46
7 55 14 24 21 51 31 92 34 63 6 92 75 51 125 -15 19 -28 23 -70 22 -47 -1 -54
2 -77 32 -26 35 -53 45 -94 35z"/>
<path d="M5633 8062 c-47 -7 -70 -85 -38 -128 8 -10 15 -30 15 -44 1 -34 36
-109 55 -116 20 -8 51 -8 100 -1 38 5 42 3 68 -34 16 -22 37 -39 48 -39 18 0
18 -1 -1 -32 -39 -64 -13 -120 55 -120 69 0 108 74 69 130 -8 12 -24 22 -35
22 -19 0 -19 1 -5 22 9 12 16 34 16 47 0 15 13 37 35 57 41 38 44 62 13 124
-25 49 -53 62 -103 48 -16 -4 -39 -19 -50 -33 -19 -22 -24 -24 -58 -14 -21 5
-48 9 -60 7 -18 -2 -22 3 -28 34 -9 59 -37 79 -96 70z"/>
<path d="M8762 7922 c-35 -5 -72 -68 -72 -123 0 -63 23 -91 74 -91 33 0 45 7
82 46 53 54 56 82 14 129 -30 35 -56 45 -98 39z"/>
<path d="M7143 7903 c-13 -3 -32 -16 -43 -30 -38 -49 -18 -153 30 -153 32 0
31 -16 -5 -54 -76 -80 -49 -161 54 -169 l30 -2 -5 -81 c-5 -75 -3 -84 18 -107
22 -25 39 -31 85 -28 23 1 93 94 93 123 0 8 -13 44 -29 79 -30 65 -34 87 -16
81 32 -11 81 -2 97 18 40 49 8 112 -55 112 -33 0 -37 3 -37 24 0 40 -27 94
-53 103 -13 5 -40 25 -58 44 -34 35 -66 47 -106 40z"/>
<path d="M9143 7732 c-48 -7 -68 -72 -35 -112 39 -48 132 -17 132 44 0 48 -41
76 -97 68z"/>
<path d="M7862 7702 c-30 -5 -48 -36 -56 -99 -11 -84 32 -145 100 -145 62 0
93 58 62 115 -7 12 -11 35 -9 50 5 54 -36 88 -97 79z"/>
<path d="M8213 7582 c-42 -6 -54 -38 -47 -127 7 -89 22 -122 59 -131 23 -6 25
-10 19 -40 -11 -62 32 -100 96 -83 21 5 30 0 55 -34 17 -21 41 -51 55 -66 l25
-27 -32 -43 c-18 -23 -33 -52 -33 -65 0 -29 27 -66 48 -66 9 -1 24 -16 33 -34
12 -27 13 -39 4 -58 -7 -12 -18 -51 -25 -86 -12 -59 -12 -65 7 -90 11 -14 32
-29 49 -34 39 -10 100 7 119 35 23 32 19 113 -9 169 -14 29 -19 52 -15 60 15
22 10 65 -10 89 -13 17 -17 33 -14 56 4 25 0 37 -20 56 -26 27 -20 47 14 47 9
0 31 16 48 35 34 39 40 79 16 111 -19 26 -19 33 4 27 31 -8 100 16 117 41 19
29 10 117 -15 148 -27 32 -89 28 -121 -10 -14 -16 -38 -32 -54 -36 -16 -4 -50
-25 -77 -48 -40 -34 -51 -39 -63 -28 -9 6 -34 13 -58 14 l-42 2 -11 75 c-15
110 -51 152 -122 141z"/>
<path d="M6002 7482 c-33 -5 -49 -38 -57 -120 -8 -85 5 -116 55 -126 46 -9
117 12 140 42 29 37 26 88 -8 122 -16 15 -36 39 -45 53 -16 25 -45 35 -85 29z"/>
<path d="M7450 7191 c-18 -4 -34 -24 -57 -71 -18 -36 -32 -77 -32 -91 -1 -33
32 -77 62 -81 19 -3 22 -8 19 -39 -5 -53 23 -82 80 -82 24 0 50 3 56 7 24 15
60 102 66 161 5 50 2 67 -17 105 -31 63 -116 107 -177 91z"/>
<path d="M7202 7182 c-12 -2 -30 -14 -38 -28 -9 -13 -25 -24 -35 -24 -46 0
-63 -81 -30 -137 22 -36 47 -42 110 -29 34 8 50 19 72 50 61 83 15 182 -79
168z"/>
<path d="M9243 7172 c-48 -7 -70 -84 -37 -130 8 -12 22 -22 31 -22 9 0 24 -7
34 -16 18 -17 87 -26 132 -17 35 7 87 74 87 113 0 15 -9 38 -19 51 -17 22 -27
24 -112 24 -52 0 -104 -1 -116 -3z"/>
<path d="M7557 6744 c-3 -3 -34 -7 -69 -10 -77 -4 -98 -24 -98 -91 0 -52 28
-86 84 -101 53 -15 80 -3 131 56 48 58 55 88 28 120 -18 20 -65 36 -76 26z"/>
<path d="M6072 6712 c-25 -4 -72 -66 -72 -97 0 -27 27 -65 46 -65 8 0 14 -10
14 -24 0 -37 39 -75 80 -78 32 -3 37 -8 67 -71 35 -70 40 -75 83 -79 15 -2 32
-15 42 -30 21 -33 84 -42 116 -16 16 14 24 6 16 -15 -3 -9 -18 -20 -34 -26
-37 -12 -59 -55 -66 -128 -5 -49 -3 -62 14 -83 17 -21 28 -24 77 -24 50 0 60
3 81 27 13 15 30 27 38 27 19 0 46 38 46 65 0 11 -7 30 -15 42 -13 19 -13 25
3 55 9 18 22 36 29 41 23 15 54 78 52 104 -2 16 5 41 16 56 10 16 20 50 23 77
8 84 -34 120 -117 98 -44 -12 -71 -41 -71 -79 0 -16 -5 -29 -12 -29 -6 0 -19
-7 -28 -15 -23 -20 -42 -11 -60 28 -12 25 -25 35 -66 47 -28 8 -66 27 -85 41
-19 14 -41 28 -50 31 -8 3 -21 24 -27 46 -7 22 -18 44 -25 49 -17 14 -88 29
-115 25z"/>
<path d="M5220 6563 c-8 -2 -22 -7 -30 -10 -19 -8 -29 -10 -58 -11 -26 -2 -62
-55 -62 -91 0 -13 9 -39 21 -57 l21 -34 -26 -31 c-28 -33 -32 -59 -15 -91 6
-11 11 -54 10 -95 -1 -72 0 -76 30 -104 60 -56 160 -34 159 35 0 11 -11 38
-24 59 -22 36 -23 39 -8 81 15 40 15 47 -1 86 l-17 43 44 47 c53 56 67 107 42
145 -9 14 -23 25 -30 25 -8 0 -20 2 -28 4 -7 3 -20 2 -28 -1z"/>
<path d="M5493 6443 c-35 -7 -53 -41 -53 -99 0 -83 30 -106 118 -90 46 8 72
35 72 74 0 23 -33 97 -47 105 -15 9 -68 14 -90 10z"/>
<path d="M6063 6392 c-42 -6 -67 -68 -44 -111 8 -14 5 -17 -17 -19 -17 -1 -41
-17 -64 -41 -43 -46 -49 -85 -19 -122 15 -19 28 -23 76 -23 48 0 61 4 77 23
20 25 25 99 9 130 -8 14 -5 17 17 19 53 4 80 72 47 119 -15 22 -45 31 -82 25z"/>
<path d="M7373 6383 c-49 -9 -70 -89 -35 -133 27 -33 89 -31 119 5 56 64 3
144 -84 128z"/>
<path d="M9233 6342 c-12 -2 -36 -19 -53 -39 -27 -31 -31 -41 -25 -72 3 -20 6
-76 5 -125 -1 -116 -15 -139 -88 -141 -48 -2 -55 -6 -102 -54 -31 -32 -50 -60
-50 -75 0 -15 -7 -26 -20 -29 -11 -3 -28 -19 -37 -36 -23 -40 -39 -36 -77 18
-17 24 -43 48 -58 55 -36 15 -77 78 -87 132 -10 50 -26 74 -50 74 -9 0 -21 4
-27 9 -9 10 -43 15 -82 13 -25 -2 -62 -54 -62 -88 0 -12 9 -33 20 -47 12 -15
20 -40 20 -64 0 -45 23 -83 50 -83 12 0 30 -16 44 -39 14 -21 29 -41 33 -42 4
-2 15 -17 23 -33 18 -35 92 -60 139 -46 26 7 31 4 60 -36 30 -43 43 -49 96
-45 31 3 75 57 75 92 0 17 9 42 20 56 11 14 20 34 20 43 0 16 51 45 71 42 4
-1 22 3 40 8 19 6 37 6 43 1 6 -5 20 -10 31 -11 70 -8 90 13 111 115 8 36 20
75 28 88 22 36 28 120 12 168 -13 37 -13 45 0 63 19 28 18 79 -3 105 -18 21
-70 31 -120 23z"/>
<path d="M9603 6192 c-28 -4 -53 -38 -53 -72 0 -38 36 -90 62 -91 67 -4 98 21
98 76 0 59 -46 96 -107 87z"/>
<path d="M7380 6153 c-54 -18 -81 -38 -104 -77 -31 -53 -32 -65 -7 -114 30
-59 64 -85 111 -85 33 0 47 6 69 30 20 22 43 33 89 43 48 10 69 20 87 42 30
35 32 77 6 109 -15 19 -27 23 -72 22 -30 -1 -58 2 -64 7 -5 4 -23 10 -40 14
-16 4 -37 9 -45 11 -8 2 -22 1 -30 -2z"/>
<path d="M5250 6001 c-33 -9 -68 -83 -76 -158 -5 -50 -3 -62 16 -85 12 -16 28
-28 36 -28 8 0 28 -9 43 -21 39 -29 99 -28 123 1 25 31 22 63 -8 99 -24 29
-24 32 -10 53 50 71 -33 164 -124 139z"/>
<path d="M9563 5952 c-48 -7 -68 -72 -35 -112 39 -48 132 -17 132 44 0 48 -41
76 -97 68z"/>
<path d="M8433 5782 c-38 -6 -66 -51 -60 -98 4 -42 4 -42 -28 -42 -70 0 -145
-58 -145 -112 0 -41 28 -67 85 -78 103 -21 140 8 133 107 l-4 59 35 0 c44 0
81 39 81 85 0 58 -37 88 -97 79z"/>
<path d="M9222 5712 c-27 -4 -59 -52 -68 -100 -11 -59 47 -107 114 -94 31 6
62 58 62 103 0 63 -45 100 -108 91z"/>
<path d="M7378 5604 c-2 -1 -23 -5 -48 -9 -111 -15 -107 -126 5 -141 75 -10
98 -6 118 17 22 27 22 56 -2 95 -16 26 -62 50 -73 38z"/>
<path d="M6243 5392 c-49 -7 -70 -88 -35 -132 13 -16 29 -22 57 -22 47 0 75
28 75 76 0 57 -37 87 -97 78z"/>
<path d="M6300 5180 c-38 -9 -57 -50 -44 -98 11 -42 1 -82 -22 -82 -18 0 -44
-40 -44 -66 0 -42 32 -67 87 -68 82 -2 103 -26 87 -101 -8 -41 20 -74 66 -78
25 -2 34 -8 31 -18 -2 -8 -4 -40 -4 -71 0 -61 21 -108 50 -108 9 0 27 -9 39
-21 26 -25 89 -28 111 -6 16 15 32 76 33 119 0 20 -15 44 -54 85 -40 41 -53
61 -47 72 27 53 13 203 -22 239 -16 15 -70 20 -107 10 l-25 -7 3 65 c4 63 3
65 -33 98 -40 37 -66 46 -105 36z"/>
<path d="M7592 5132 c-30 -5 -54 -44 -51 -84 2 -18 -3 -43 -10 -56 -17 -31 -5
-96 23 -129 30 -35 89 -35 125 0 14 14 41 39 59 55 18 18 32 40 32 54 0 29
-26 68 -45 68 -7 0 -24 19 -37 42 -24 43 -51 57 -96 50z"/>
<path d="M5523 5013 c-55 -10 -70 -93 -28 -156 25 -36 40 -42 90 -38 34 3 55
39 55 92 0 73 -47 114 -117 102z"/>
<path d="M4895 4902 c-31 -6 -42 -19 -59 -72 -21 -65 -20 -84 7 -116 19 -21
32 -27 67 -27 61 0 78 24 78 105 1 90 -28 123 -93 110z"/>
<path d="M9343 4843 c-36 -7 -53 -41 -53 -106 0 -58 18 -118 40 -132 21 -13
82 -7 98 9 25 24 27 178 4 204 -18 22 -54 31 -89 25z"/>
<path d="M8443 4752 c-13 -2 -32 -15 -43 -29 -45 -57 -7 -135 65 -135 49 0 75
28 75 81 0 62 -35 92 -97 83z"/>
<path d="M7553 4652 c-48 -7 -68 -72 -35 -112 39 -48 132 -17 132 44 0 48 -41
76 -97 68z"/>
<path d="M6065 4643 c-11 -3 -27 -11 -35 -18 -8 -7 -37 -19 -65 -27 -35 -9
-53 -21 -61 -38 -58 -120 -55 -116 -91 -117 -20 -1 -44 -10 -57 -22 -35 -33
-50 -26 -84 43 -36 71 -47 84 -82 87 -54 5 -71 -1 -90 -33 -19 -31 -20 -46
-16 -213 2 -99 4 -187 4 -195 1 -8 -2 -67 -6 -130 l-7 -115 -34 -3 c-69 -5
-116 -65 -93 -117 10 -22 9 -23 -26 -23 -28 0 -43 -7 -64 -31 -15 -17 -32 -31
-37 -31 -15 0 -41 -42 -41 -66 0 -31 41 -87 70 -94 44 -11 86 7 119 52 32 44
41 100 21 138 -8 16 -5 18 25 18 20 0 42 6 50 12 12 10 18 10 30 0 8 -6 31
-12 52 -12 53 0 73 28 73 104 0 44 5 66 19 84 14 18 19 41 20 89 0 54 -4 69
-24 94 -30 35 -31 41 -5 41 23 0 47 33 56 78 6 28 9 30 28 20 11 -6 30 -22 42
-36 30 -36 99 -35 131 2 13 15 23 35 23 45 0 9 16 49 35 88 31 64 37 70 65 71
33 1 80 26 80 42 0 21 18 9 30 -19 18 -44 44 -63 86 -63 46 0 74 29 74 77 0
37 -33 85 -59 85 -12 0 -25 18 -40 54 -12 30 -28 59 -34 64 -16 13 -58 20 -82
15z"/>
<path d="M7253 4552 c-27 -4 -53 -38 -53 -68 0 -31 37 -73 73 -82 22 -6 37
-19 52 -47 32 -63 88 -66 150 -9 36 32 37 36 30 81 -12 84 -42 109 -109 91
-21 -5 -35 -3 -47 7 -20 19 -67 32 -96 27z"/>
<path d="M8482 4492 c-27 -4 -47 -34 -56 -80 -3 -19 -17 -47 -31 -64 -14 -16
-25 -39 -25 -51 0 -37 35 -84 68 -90 22 -5 34 -16 50 -50 23 -49 38 -64 67
-67 49 -5 65 1 90 37 45 67 28 118 -51 154 -36 16 -44 24 -38 37 4 9 12 39 18
65 16 77 -20 120 -92 109z"/>
<path d="M6483 4413 c-27 -5 -53 -39 -53 -68 0 -36 -20 -47 -40 -22 -15 18
-28 21 -80 21 -53 -1 -66 -5 -82 -24 -24 -30 -23 -63 5 -96 21 -24 31 -28 82
-28 47 0 61 4 75 21 15 20 17 20 27 3 16 -25 69 -32 131 -18 93 20 115 76 63
159 -22 35 -37 48 -61 53 -18 3 -35 5 -39 5 -3 -1 -16 -4 -28 -6z"/>
<path d="M6602 4112 c-33 -5 -50 -40 -51 -100 0 -69 28 -104 82 -104 49 0 62
12 83 79 16 49 16 59 3 81 -15 28 -76 51 -117 44z"/>
<path d="M7472 4002 c-33 -5 -50 -40 -50 -102 0 -53 24 -120 49 -135 5 -4 27
-7 47 -7 68 0 104 80 69 150 -8 15 -20 40 -28 56 -14 31 -46 44 -87 38z"/>
<path d="M4872 3942 c-25 -4 -72 -66 -72 -97 0 -11 6 -29 14 -40 7 -11 16 -32
20 -47 7 -32 41 -57 79 -60 22 -2 27 -7 27 -28 0 -14 10 -43 23 -64 39 -70
121 -72 182 -5 40 45 43 70 15 117 -18 30 -37 38 -80 34 -32 -3 -70 10 -70 24
0 8 -9 31 -20 51 -11 21 -20 45 -20 53 0 42 -44 70 -98 62z"/>
<path d="M8670 3941 c-27 -7 -70 -72 -70 -106 0 -30 46 -92 72 -97 46 -8 72 6
96 52 12 24 22 57 22 72 0 53 -62 94 -120 79z"/>
<path d="M9263 3813 c-49 -9 -68 -73 -35 -114 15 -18 29 -22 67 -22 38 0 52 4
67 22 49 62 -12 131 -99 114z"/>
<path d="M8510 3721 c-30 -8 -70 -65 -70 -98 0 -31 60 -93 92 -94 78 -5 103 0
126 26 12 14 22 34 22 45 0 23 -35 106 -49 114 -16 10 -93 14 -121 7z"/>
<path d="M5563 3652 c-35 -5 -53 -40 -53 -100 0 -78 36 -110 115 -103 57 5 77
114 30 169 -25 30 -52 40 -92 34z"/>
<path d="M8582 3423 c-31 -6 -52 -41 -59 -101 -9 -82 31 -120 110 -105 32 7
86 82 87 120 0 51 -75 98 -138 86z"/>
<path d="M7513 3242 c-30 -5 -63 -48 -63 -84 0 -18 10 -39 25 -54 15 -15 25
-36 25 -53 0 -16 9 -39 19 -52 17 -21 28 -24 86 -23 58 0 70 3 86 23 24 30 23
61 -4 136 -22 59 -29 66 -97 93 -38 16 -53 18 -77 14z"/>
<path d="M6253 2612 c-12 -2 -27 -10 -33 -18 -7 -8 -21 -14 -31 -14 -10 0 -24
-8 -31 -18 -7 -10 -26 -22 -41 -26 -38 -9 -77 -49 -77 -78 0 -37 35 -85 67
-91 43 -8 81 3 102 29 l19 24 31 -26 c34 -28 91 -35 116 -14 13 11 15 6 15
-33 0 -60 24 -89 73 -89 44 0 62 13 88 63 25 50 24 72 -4 104 -25 30 -77 36
-116 16 -20 -11 -21 -9 -21 28 0 35 -7 47 -47 89 -49 49 -71 60 -110 54z"/>
<path d="M6063 2282 c-48 -7 -68 -72 -35 -112 39 -48 132 -17 132 44 0 48 -41
76 -97 68z"/>
<path d="M6553 2082 c-29 -4 -53 -38 -53 -73 0 -35 84 -139 114 -140 71 -4
101 24 92 84 -9 51 -31 94 -57 108 -32 17 -71 25 -96 21z"/>
<path d="M5060 2030 c-15 -3 -32 -19 -42 -40 -37 -73 -12 -132 57 -132 47 0
70 24 80 82 11 68 -29 106 -95 90z"/>
<path d="M5873 2032 c-29 -4 -103 -97 -103 -128 0 -14 15 -41 33 -60 31 -35
37 -37 97 -37 54 0 66 3 82 22 22 28 23 60 3 87 -8 10 -15 30 -15 44 0 52 -40
81 -97 72z"/>
<path d="M9083 1993 c-27 -5 -63 -48 -63 -75 0 -22 45 -114 61 -124 6 -4 30
-7 52 -7 30 0 45 6 59 23 32 39 18 134 -24 167 -17 13 -57 21 -85 16z"/>
<path d="M5662 1833 c-26 -5 -72 -68 -72 -99 0 -12 8 -32 18 -44 15 -19 28
-23 82 -23 54 0 66 3 82 22 10 13 18 33 18 45 0 27 -46 96 -65 96 -7 0 -19 2
-27 4 -7 2 -23 1 -36 -1z"/>
</g>
</svg>
