<?xml version="1.0" standalone="no"?>
<!DOCTYPE svg PUBLIC "-//W3C//DTD SVG 20010904//EN"
 "http://www.w3.org/TR/2001/REC-SVG-20010904/DTD/svg10.dtd">
<svg version="1.0" xmlns="http://www.w3.org/2000/svg"
 width="1500.000000pt" height="2098.000000pt" viewBox="0 0 1500.000000 2098.000000"
 preserveAspectRatio="xMidYMid meet">
<metadata>
Created by potrace 1.16, written by Peter Selinger 2001-2019
</metadata>
<g transform="translate(0.000000,2098.000000) scale(0.100000,-0.100000)"
fill="none" stroke="grey" stroke-width="2">
<path d="M0 10490 l0 -10490 7500 0 7500 0 0 10490 0 10490 -7500 0 -7500 0 0
-10490z m6554 7744 c124 -134 236 -201 414 -248 141 -38 295 -50 547 -43 443
12 602 54 837 223 51 37 108 80 126 96 43 37 23 42 352 -87 52 -21 156 -57
230 -82 74 -24 141 -52 148 -61 16 -20 12 -55 -29 -327 -50 -326 -62 -518 -56
-890 6 -387 16 -465 113 -872 75 -316 188 -473 437 -608 56 -30 87 -53 87 -63
0 -10 -7 -48 -16 -87 -8 -38 -19 -92 -25 -120 -12 -62 -73 -609 -94 -845 -9
-96 -23 -226 -31 -287 -60 -464 -68 -697 -34 -1018 33 -315 67 -587 105 -840
20 -132 45 -298 55 -370 11 -71 23 -175 26 -230 4 -61 12 -109 21 -124 17 -26
20 -102 28 -576 5 -313 7 -357 18 -435 4 -30 14 -140 22 -245 8 -104 19 -226
25 -270 6 -50 6 -137 0 -234 -5 -85 -7 -157 -5 -160 2 -3 6 -107 10 -231 3
-123 9 -228 12 -233 4 -7 13 -150 12 -197 -2 -122 4 -255 12 -277 7 -18 13
-131 14 -303 2 -151 8 -331 14 -400 6 -69 13 -193 16 -275 2 -83 11 -211 19
-285 8 -74 20 -175 25 -225 11 -94 19 -273 27 -555 2 -91 8 -196 13 -235 25
-184 32 -260 36 -385 5 -143 33 -515 58 -765 9 -82 18 -233 22 -335 4 -102 11
-219 17 -260 5 -41 13 -106 18 -145 5 -38 13 -97 18 -130 27 -161 52 -341 62
-440 6 -60 15 -132 20 -160 12 -65 26 -161 45 -310 8 -66 26 -190 40 -275 45
-276 75 -482 90 -620 9 -74 22 -184 30 -245 8 -60 20 -159 26 -218 7 -73 19
-127 35 -163 26 -59 24 -70 -27 -149 -28 -43 -93 -105 -109 -105 -18 0 -90
-72 -112 -112 -41 -72 -110 -87 -194 -41 -40 22 -63 27 -129 29 -44 1 -114 -6
-155 -14 -99 -22 -147 -19 -195 8 -28 16 -56 24 -94 24 -52 0 -55 -1 -95 -47
-22 -26 -54 -55 -71 -63 -35 -19 -134 -20 -197 -4 -38 11 -70 9 -138 -8 -49
-12 -176 -3 -260 18 -110 28 -160 22 -209 -27 -60 -60 -75 -66 -136 -59 -30 3
-72 16 -92 27 -47 27 -124 32 -178 13 -82 -28 -143 -12 -225 59 -120 104 -296
130 -376 56 -66 -63 -94 -71 -274 -75 -91 -2 -193 -6 -227 -9 -60 -5 -187 -39
-208 -55 -22 -16 -120 -32 -167 -27 -27 4 -81 22 -121 41 -92 44 -135 55 -236
60 -103 5 -162 27 -234 89 -58 49 -137 83 -167 72 -8 -4 -57 -8 -110 -10 -168
-8 -177 -11 -207 -58 -70 -112 -134 -161 -222 -170 -23 -2 -95 6 -159 19 -64
13 -132 24 -150 24 -48 0 -129 53 -180 116 -55 69 -90 80 -196 59 -82 -15
-120 -13 -176 12 -42 20 -65 46 -81 98 -7 22 -21 56 -31 75 -17 34 -17 37 8
130 13 52 29 138 34 190 18 171 27 235 39 263 6 16 11 48 11 72 0 24 5 56 11
72 6 15 15 55 19 88 9 64 24 168 40 275 5 36 14 115 20 175 14 143 28 251 45
350 23 130 33 211 50 385 9 91 23 195 31 231 7 37 14 79 14 93 0 15 6 57 14
94 8 37 19 108 25 157 6 50 18 142 27 205 15 114 23 217 43 585 20 347 35 515
75 820 8 61 14 181 15 268 0 87 3 163 7 168 3 5 12 87 20 182 9 95 19 201 24
237 23 182 39 403 43 600 0 25 8 178 17 340 10 162 18 347 19 410 1 63 6 162
11 220 24 263 29 364 35 800 3 256 8 483 11 505 12 103 34 581 39 855 6 370
13 482 32 580 8 42 14 123 13 185 -2 120 8 241 21 266 4 9 13 67 19 130 29
307 54 529 75 684 110 790 124 1139 67 1745 -17 184 -36 398 -42 475 -15 195
-38 403 -63 580 -26 184 -27 235 -7 246 8 4 55 27 104 50 95 45 193 126 246
204 42 61 126 223 145 279 36 109 83 557 91 878 9 341 -24 807 -81 1123 -20
116 -27 188 -18 202 5 6 64 33 133 58 109 41 326 128 500 201 30 13 63 24 74
24 10 0 49 -33 90 -76z"/>
<path d="M7225 17918 c-43 -5 -65 -14 -77 -29 -24 -28 -23 -81 1 -110 17 -21
27 -24 96 -24 69 0 79 3 96 24 23 28 25 88 4 118 -18 26 -44 31 -120 21z"/>
</g>
</svg>
