<?xml version="1.0" standalone="no"?>
<!DOCTYPE svg PUBLIC "-//W3C//DTD SVG 20010904//EN"
 "http://www.w3.org/TR/2001/REC-SVG-20010904/DTD/svg10.dtd">
<svg version="1.0" xmlns="http://www.w3.org/2000/svg"
 width="1500.000000pt" height="2098.000000pt" viewBox="0 0 1500.000000 2098.000000"
 preserveAspectRatio="xMidYMid meet">
<metadata>
Created by potrace 1.16, written by Peter Selinger 2001-2019
</metadata>
<g transform="translate(0.000000,2098.000000) scale(0.100000,-0.100000)"
fill="none" stroke="grey" stroke-width="2">
<path d="M0 10490 l0 -10490 7500 0 7500 0 0 10490 0 10490 -7500 0 -7500 0 0
-10490z m8467 7824 c24 -4 61 -22 92 -45 28 -21 56 -39 62 -39 11 0 89 -40
134 -70 37 -24 72 -40 89 -40 8 0 19 -7 26 -15 7 -8 18 -15 25 -15 8 0 26 -6
42 -14 156 -75 251 -124 272 -142 14 -11 47 -30 73 -42 25 -12 49 -26 52 -31
4 -5 30 -17 60 -25 29 -9 59 -23 66 -31 7 -8 19 -15 27 -15 8 0 26 -9 40 -20
14 -11 32 -20 40 -20 13 0 83 -37 176 -94 18 -11 57 -32 87 -48 76 -40 97 -52
117 -70 10 -8 38 -20 63 -28 56 -17 131 -58 148 -82 7 -10 19 -18 27 -18 13 0
76 -47 126 -95 14 -14 31 -25 37 -25 7 0 39 -24 72 -52 32 -29 84 -73 115 -98
31 -25 67 -62 81 -82 13 -21 30 -38 38 -38 7 0 44 -30 83 -67 38 -38 94 -92
125 -121 l57 -54 -33 -66 c-18 -37 -43 -98 -55 -137 -57 -182 -77 -236 -117
-320 -41 -85 -74 -189 -74 -232 0 -11 -11 -41 -25 -67 -14 -26 -25 -55 -25
-64 0 -9 -11 -46 -24 -82 -54 -145 -126 -411 -126 -464 0 -17 -9 -60 -20 -96
-55 -184 -73 -249 -81 -290 -16 -83 -28 -124 -58 -210 -17 -47 -31 -95 -31
-107 0 -25 -10 -32 -99 -62 -78 -27 -152 -87 -190 -155 -16 -28 -77 -147 -136
-264 -59 -117 -111 -215 -115 -217 -4 -2 -15 -26 -24 -52 -20 -54 -42 -102
-151 -328 -43 -88 -88 -182 -101 -209 -13 -28 -24 -55 -24 -61 0 -6 -16 -43
-35 -81 -50 -102 -63 -156 -46 -197 21 -50 27 -338 10 -447 -5 -36 -12 -81
-15 -101 -4 -24 3 -64 24 -130 37 -113 86 -312 106 -429 23 -135 37 -202 47
-240 5 -19 14 -64 19 -100 15 -106 53 -319 95 -540 9 -47 25 -130 35 -185 23
-121 38 -189 51 -232 12 -38 21 -83 50 -248 11 -66 36 -176 55 -245 29 -107
49 -206 71 -345 2 -16 13 -68 25 -115 11 -47 20 -105 20 -129 0 -24 4 -56 10
-70 6 -14 14 -53 19 -86 4 -33 17 -100 28 -150 12 -49 25 -126 30 -170 5 -44
21 -161 36 -260 14 -99 31 -216 36 -259 5 -44 16 -111 24 -150 7 -39 21 -118
29 -176 45 -300 78 -510 87 -549 5 -24 12 -71 15 -105 2 -33 11 -92 19 -131 8
-38 22 -117 31 -175 8 -58 19 -127 23 -155 5 -27 18 -113 30 -190 12 -77 28
-176 36 -220 15 -87 85 -578 90 -635 3 -33 75 -533 110 -769 42 -281 126
-1092 155 -1496 32 -457 61 -941 65 -1090 2 -93 9 -200 15 -237 12 -71 8 -240
-7 -323 -11 -63 -44 -114 -119 -187 -60 -58 -188 -164 -247 -205 -102 -71
-147 -106 -147 -114 0 -5 -5 -9 -11 -9 -13 0 -58 -36 -148 -117 -32 -29 -62
-53 -68 -53 -5 0 -35 -27 -66 -59 -38 -40 -57 -68 -57 -85 0 -14 -5 -28 -11
-31 -6 -4 -25 -39 -44 -79 -53 -114 -196 -232 -272 -225 -15 2 -48 0 -71 -5
-73 -14 -179 26 -266 101 -22 18 -47 33 -55 33 -9 0 -22 9 -29 20 -7 11 -18
20 -25 20 -7 0 -26 13 -42 30 -31 33 -146 91 -215 110 -100 27 -249 1 -325
-55 -16 -13 -55 -35 -85 -50 -30 -15 -62 -33 -70 -39 -17 -14 -77 -32 -130
-40 -35 -6 -201 -18 -230 -18 -8 0 -39 -6 -68 -14 -29 -8 -57 -12 -62 -9 -9 5
-163 -31 -260 -61 -52 -16 -91 -21 -210 -29 -47 -4 -101 -9 -120 -13 -64 -14
-534 -1 -595 16 -22 6 -60 11 -85 10 -174 -3 -325 89 -432 265 -23 40 -74 104
-113 143 -60 61 -78 72 -131 87 -74 21 -94 21 -181 3 -38 -8 -102 -17 -142
-21 -64 -5 -84 -2 -165 26 -50 17 -128 48 -173 70 -44 21 -84 39 -88 39 -4 0
-21 6 -38 14 -84 37 -306 102 -427 126 -196 39 -393 94 -471 131 -73 36 -115
75 -139 131 -12 29 -31 63 -43 76 -19 21 -20 26 -9 85 16 83 30 193 48 359 21
208 44 415 54 493 5 39 14 126 20 195 6 69 15 141 20 160 6 19 10 55 10 80 0
25 9 124 20 220 37 317 56 568 90 1190 6 107 17 267 25 355 7 88 14 189 14
225 1 36 8 126 16 200 7 74 21 209 30 300 30 310 36 365 50 450 8 47 15 110
15 140 0 30 5 82 10 115 14 76 27 169 45 315 8 63 19 142 25 175 6 33 15 92
20 131 4 39 15 107 23 150 22 117 34 195 53 334 9 69 23 137 30 152 7 14 14
52 14 85 -1 32 4 85 10 118 13 69 15 84 36 255 13 107 64 443 79 520 14 71 48
290 50 320 4 51 52 305 70 375 9 33 20 78 25 100 11 56 27 105 39 118 19 24
51 123 51 161 0 68 22 170 43 198 14 19 18 34 13 55 -12 47 -8 161 8 273 9 58
32 236 52 395 38 310 44 349 97 605 19 91 40 206 46 255 7 50 18 113 26 140
18 65 14 331 -5 362 -14 22 -5 140 20 263 6 30 15 105 20 165 5 61 16 127 24
147 21 48 20 70 -4 142 -22 64 -25 96 -14 139 5 21 0 37 -19 65 -18 26 -30 66
-41 130 -9 52 -21 102 -26 112 -5 9 -14 42 -19 71 -5 30 -24 101 -41 159 -44
147 -56 189 -68 240 -28 117 -39 160 -76 290 -22 79 -98 228 -140 277 -29 33
-54 48 -120 73 -77 29 -85 35 -105 74 -11 24 -24 58 -27 77 -4 19 -14 50 -24
69 -15 31 -32 85 -84 259 -9 29 -16 67 -16 85 0 17 -9 45 -20 61 -11 17 -27
55 -35 85 -32 110 -37 126 -55 175 -10 28 -33 97 -49 155 -49 164 -57 190 -86
265 -15 39 -33 88 -40 110 -8 22 -28 76 -45 120 -17 44 -35 100 -40 125 -15
78 -57 184 -121 312 -11 20 -19 46 -19 56 0 11 -8 30 -19 43 -10 13 -26 39
-36 58 l-17 34 79 76 c43 42 125 117 180 166 154 136 444 398 557 504 185 171
453 364 526 376 22 4 53 18 69 31 16 13 66 38 112 55 46 18 91 38 100 45 8 8
21 14 28 14 6 0 67 27 134 59 67 33 141 62 164 66 22 4 49 15 59 26 9 10 23
19 31 19 7 0 21 4 31 8 9 5 37 18 62 29 25 12 70 33 100 47 30 14 77 30 103
37 26 6 53 19 60 29 7 9 42 31 79 48 69 32 113 36 155 13 10 -5 48 -17 83 -26
36 -9 92 -27 125 -40 33 -13 101 -31 150 -40 50 -9 127 -23 172 -32 45 -8 85
-13 90 -10 5 3 42 1 83 -4 91 -12 181 -13 320 -4 58 3 112 6 120 6 8 0 42 5
75 10 140 24 248 56 375 109 79 34 139 54 145 49 6 -4 29 -11 52 -15z"/>
</g>
</svg>
