<?xml version="1.0" standalone="no"?>
<!DOCTYPE svg PUBLIC "-//W3C//DTD SVG 20010904//EN"
 "http://www.w3.org/TR/2001/REC-SVG-20010904/DTD/svg10.dtd">
<svg version="1.0" xmlns="http://www.w3.org/2000/svg"
 width="1500.000000pt" height="2098.000000pt" viewBox="0 0 1500.000000 2098.000000"
 preserveAspectRatio="xMidYMid meet">
<metadata>
Created by potrace 1.16, written by Peter Selinger 2001-2019
</metadata>
<g transform="translate(0.000000,2098.000000) scale(0.100000,-0.100000)"
fill="none" stroke="grey" stroke-width="2">
<path d="M0 10490 l0 -10490 7500 0 7500 0 0 10490 0 10490 -7500 0 -7500 0 0
-10490z m6655 7834 c265 -77 390 -94 715 -101 383 -7 702 27 906 98 90 31 219
59 273 59 36 0 67 -9 117 -35 157 -80 699 -295 908 -360 47 -15 89 -31 92 -36
3 -5 -4 -59 -15 -121 -53 -288 -73 -821 -51 -1343 25 -592 27 -613 76 -815 64
-258 145 -458 219 -542 30 -32 32 -40 25 -70 -5 -18 -20 -80 -35 -138 -14 -58
-37 -168 -50 -245 -33 -198 -54 -307 -77 -405 -11 -47 -23 -107 -28 -135 -5
-27 -20 -97 -34 -155 -13 -58 -31 -152 -40 -210 -9 -58 -35 -191 -57 -295 -55
-255 -57 -280 -46 -502 9 -170 8 -198 -6 -244 -24 -72 -21 -123 13 -268 16
-69 36 -182 45 -251 27 -208 52 -346 145 -786 49 -231 105 -510 125 -620 20
-109 47 -235 61 -279 23 -78 76 -398 89 -540 4 -38 20 -151 35 -250 16 -99 39
-243 50 -320 12 -77 41 -261 65 -410 24 -148 60 -378 80 -510 20 -132 49 -328
66 -435 33 -217 127 -953 158 -1240 23 -214 31 -304 71 -880 34 -470 77 -993
115 -1375 13 -137 29 -304 35 -370 6 -66 26 -277 45 -470 19 -192 43 -485 55
-650 11 -165 30 -376 40 -470 11 -93 25 -226 30 -295 6 -69 19 -195 30 -280
10 -85 22 -225 26 -311 5 -130 4 -161 -9 -185 -12 -23 -15 -62 -15 -164 0 -94
-6 -174 -21 -265 -26 -154 -36 -184 -78 -250 -18 -27 -33 -54 -33 -60 0 -11
-64 -65 -78 -65 -5 0 -17 -9 -27 -20 -10 -11 -24 -20 -30 -20 -7 0 -18 -7 -25
-15 -14 -17 -67 -45 -85 -45 -7 0 -18 -7 -25 -15 -7 -8 -18 -15 -26 -15 -7 0
-25 -5 -41 -11 -15 -7 -41 -13 -56 -15 -16 -2 -36 -8 -45 -13 -9 -5 -36 -12
-59 -16 -24 -4 -45 -10 -48 -15 -3 -4 -14 -6 -25 -3 -10 3 -43 -2 -72 -10
-125 -36 -350 -80 -403 -80 -124 2 -237 16 -321 39 -29 8 -56 14 -60 13 -20
-5 -67 15 -89 37 -13 13 -31 24 -38 24 -8 0 -37 22 -63 48 -27 26 -58 54 -69
62 -27 19 -65 74 -65 92 0 8 -13 42 -30 74 -17 34 -34 90 -39 129 -12 82 -37
172 -51 180 -6 3 -10 21 -10 39 0 50 -30 81 -92 94 -65 14 -94 8 -132 -29 -15
-16 -35 -29 -43 -29 -8 0 -54 -40 -101 -89 -48 -49 -105 -100 -127 -115 -22
-14 -57 -38 -79 -52 -45 -30 -137 -61 -183 -62 -18 -1 -53 -2 -77 -2 -99 -3
-243 53 -334 132 -18 15 -37 28 -42 28 -4 0 -32 20 -60 44 -63 54 -107 64
-171 41 -24 -9 -69 -23 -99 -31 -30 -9 -75 -22 -100 -31 -25 -8 -54 -17 -65
-19 -78 -15 -127 -29 -131 -36 -3 -4 -13 -8 -22 -8 -9 0 -29 -6 -43 -14 -14
-7 -49 -19 -78 -26 -28 -6 -54 -16 -57 -21 -3 -5 -13 -9 -23 -9 -9 0 -32 -16
-51 -35 -19 -19 -39 -35 -45 -35 -6 0 -32 -23 -58 -50 -26 -28 -51 -50 -56
-50 -5 0 -21 -13 -34 -30 -14 -16 -30 -30 -35 -30 -9 0 -59 -22 -94 -41 -10
-5 -24 -9 -32 -9 -7 0 -19 -6 -25 -14 -6 -8 -22 -16 -34 -19 -12 -3 -40 -10
-62 -16 -43 -10 -124 -24 -140 -23 -69 4 -106 10 -117 18 -7 6 -29 18 -49 27
-19 9 -49 29 -66 45 -16 16 -34 31 -39 33 -17 7 -94 105 -94 119 0 25 -49 97
-86 125 -45 34 -109 39 -163 12 -19 -9 -37 -17 -41 -17 -4 0 -34 -18 -66 -39
-33 -22 -84 -47 -114 -56 -30 -9 -71 -24 -90 -32 -34 -16 -54 -17 -190 -10
-72 4 -137 21 -210 54 -53 24 -53 24 -130 88 -40 33 -87 71 -105 85 -18 14
-57 44 -86 66 -30 23 -70 58 -90 77 -20 19 -41 36 -46 38 -5 2 -39 47 -75 101
-59 87 -67 105 -82 184 -9 48 -23 98 -31 111 -14 20 -14 43 -1 210 8 104 22
303 31 443 68 1121 87 1377 170 2330 123 1399 349 3256 610 5015 26 171 57
390 70 487 25 191 51 332 67 361 18 34 48 217 73 449 24 211 69 571 95 753 5
39 19 144 30 235 11 91 29 217 40 280 44 262 62 418 55 482 -9 90 -10 237 -1
433 l8 170 -46 247 c-79 427 -176 1182 -176 1373 0 53 -6 83 -25 123 l-25 54
64 96 c103 155 141 262 180 512 66 427 57 1065 -23 1730 -5 41 -14 122 -20
180 -6 58 -17 152 -25 210 -7 58 -12 106 -11 108 1 1 92 39 201 83 229 93 394
170 566 265 152 84 271 133 323 133 22 0 126 -24 230 -55z"/>
</g>
</svg>
