<?xml version="1.0" standalone="no"?>
<!DOCTYPE svg PUBLIC "-//W3C//DTD SVG 20010904//EN"
 "http://www.w3.org/TR/2001/REC-SVG-20010904/DTD/svg10.dtd">
<svg version="1.0" xmlns="http://www.w3.org/2000/svg"
 width="1500.000000pt" height="2098.000000pt" viewBox="0 0 1500.000000 2098.000000"
 preserveAspectRatio="xMidYMid meet">
<metadata>
Created by potrace 1.16, written by Peter Selinger 2001-2019
</metadata>
<g transform="translate(0.000000,2098.000000) scale(0.100000,-0.100000)"
fill="none" stroke="grey" stroke-width="2">
<path d="M0 10490 l0 -10490 7500 0 7500 0 0 10490 0 10490 -7500 0 -7500 0 0
-10490z m6785 7749 c39 -5 84 -12 100 -14 78 -11 625 -56 673 -55 13 0 28 3
34 6 12 8 78 14 199 17 52 2 101 7 107 11 7 4 52 9 100 10 48 2 126 7 174 11
104 9 108 5 82 -75 -22 -67 -14 -252 13 -303 9 -17 15 -48 14 -68 -2 -30 6
-48 50 -105 29 -38 70 -92 92 -121 40 -53 62 -64 108 -52 23 6 25 4 21 -22 -5
-35 21 -79 48 -79 10 0 21 -4 24 -9 3 -4 20 -11 38 -15 28 -6 30 -8 15 -17 -9
-5 -24 -23 -32 -39 -36 -70 -1 -142 70 -142 29 0 45 6 60 24 11 12 33 24 49
26 35 4 124 78 133 111 3 14 1 37 -4 52 -6 15 -7 33 -2 40 15 24 10 57 -14 85
-19 21 -32 27 -66 27 -23 0 -47 -5 -52 -10 -6 -6 -19 -8 -30 -6 -17 5 -17 7
-4 26 27 39 18 73 -32 131 -61 69 -85 106 -122 183 -16 34 -38 67 -49 74 -12
8 -17 20 -14 35 5 27 -22 74 -42 74 -7 0 -39 24 -71 54 l-58 53 34 6 c21 3 40
0 49 -8 8 -8 29 -17 45 -21 45 -11 109 -58 157 -116 71 -87 124 -135 154 -141
18 -4 37 -19 49 -39 17 -28 29 -35 80 -45 33 -6 82 -24 109 -40 27 -15 69 -40
95 -55 25 -15 53 -27 62 -27 9 -1 24 -10 34 -21 10 -11 24 -20 31 -20 7 0 22
-20 33 -45 20 -45 28 -52 66 -58 32 -4 45 -17 45 -43 0 -35 29 -121 46 -135 7
-6 30 -11 51 -11 28 0 43 7 60 26 26 31 33 32 33 7 0 -32 32 -61 69 -64 26 -1
52 -17 110 -69 42 -37 102 -87 133 -110 31 -24 59 -49 63 -57 4 -11 3 -11 -10
-1 -24 20 -87 15 -106 -9 -10 -12 -24 -21 -33 -21 -42 0 -62 -98 -28 -140 20
-25 75 -30 111 -11 21 12 21 11 16 -71 -5 -76 -10 -116 -34 -233 -4 -22 -15
-57 -24 -79 -10 -21 -17 -49 -17 -62 0 -17 -6 -24 -20 -24 -45 0 -49 -25 -60
-390 -6 -190 -13 -364 -16 -388 -7 -47 11 -86 45 -97 17 -5 19 -15 18 -88 -1
-89 14 -221 39 -332 36 -161 54 -228 64 -240 5 -7 13 -34 17 -61 4 -31 15 -57
30 -72 12 -12 23 -27 23 -31 0 -5 9 -20 20 -33 14 -19 18 -34 13 -61 -4 -29
-1 -40 21 -62 14 -14 26 -32 26 -39 0 -7 8 -24 19 -37 10 -13 21 -34 25 -46 4
-11 13 -27 21 -33 8 -7 15 -20 15 -30 0 -9 9 -29 20 -43 11 -14 20 -31 20 -38
0 -19 70 -119 84 -119 18 0 39 -65 28 -87 -5 -10 -12 -37 -15 -60 -3 -23 -15
-62 -28 -88 -20 -39 -21 -50 -11 -78 12 -34 2 -98 -22 -126 -6 -8 -11 -39 -12
-70 -1 -55 -17 -146 -51 -285 -13 -55 -14 -74 -5 -100 16 -43 15 -100 -5 -226
-16 -102 -23 -199 -28 -405 -2 -55 -8 -158 -14 -229 -14 -167 -13 -345 3 -473
7 -56 9 -108 4 -115 -13 -21 -9 -102 6 -124 22 -31 30 -132 15 -184 -8 -30
-13 -128 -14 -300 -1 -226 -4 -260 -21 -300 -16 -38 -19 -72 -20 -230 -1 -102
-5 -204 -9 -228 -8 -45 12 -92 38 -92 46 0 109 -577 127 -1161 8 -243 13 -325
25 -353 12 -29 17 -130 26 -533 11 -472 12 -499 31 -527 14 -20 20 -43 20 -80
-1 -28 3 -80 9 -116 5 -36 14 -126 18 -200 5 -74 17 -220 25 -325 9 -104 20
-232 24 -283 4 -52 4 -99 -1 -108 -6 -10 -5 -36 2 -68 23 -98 30 -182 41 -474
6 -161 15 -385 20 -497 5 -113 7 -211 4 -219 -3 -8 -1 -70 5 -138 6 -68 13
-235 16 -373 2 -137 12 -410 21 -605 12 -250 17 -582 19 -1120 l2 -765 -39
-83 c-88 -187 -232 -264 -498 -266 -121 -1 -174 4 -253 24 -93 24 -169 6 -284
-67 -28 -18 -103 -59 -165 -91 -115 -60 -254 -145 -260 -160 -3 -9 -124 -82
-135 -82 -4 0 -15 -7 -25 -17 -30 -27 -202 -28 -308 -2 -47 12 -96 29 -110 38
-14 9 -50 23 -80 33 -30 9 -73 23 -94 31 -35 13 -46 13 -100 -3 -59 -16 -63
-19 -144 -121 -157 -197 -171 -212 -224 -245 -21 -13 -38 -28 -38 -33 0 -4
-17 -16 -37 -27 -21 -10 -62 -34 -90 -51 -89 -55 -166 -83 -278 -102 -70 -12
-482 -10 -570 3 -22 3 -65 8 -96 10 -31 3 -103 15 -160 29 -132 31 -217 47
-255 47 -17 0 -34 4 -40 9 -5 6 -29 12 -54 16 -54 6 -70 10 -91 19 -9 4 -27 8
-40 10 -13 2 -31 6 -39 9 -28 10 -115 36 -140 42 -52 12 -199 43 -299 64 -58
12 -108 24 -112 26 -4 3 -30 8 -58 11 -28 3 -97 19 -153 35 -57 17 -123 36
-148 43 -45 13 -100 39 -193 90 -27 14 -74 40 -105 57 -31 18 -64 38 -73 45
-8 8 -19 14 -24 14 -14 0 -118 52 -160 81 -48 32 -83 92 -132 227 l-35 97 6
355 c4 195 9 562 11 815 7 598 22 1219 36 1417 7 104 7 162 1 175 -11 21 -1
306 22 598 8 99 15 248 15 330 0 206 25 513 66 805 57 413 60 445 45 490 -13
41 -10 91 31 510 5 52 14 234 19 404 6 170 13 313 15 316 2 3 7 337 10 741 7
806 14 993 39 1053 21 51 20 68 -5 100 -16 20 -20 35 -15 59 20 108 25 192 14
224 -10 27 -9 45 5 100 14 53 16 91 12 173 -6 103 23 541 45 690 6 36 15 99
21 140 6 41 13 78 15 82 5 7 27 366 27 433 0 17 -5 48 -11 70 -15 54 -15 475
0 549 10 50 9 65 -6 107 -21 58 -24 126 -7 158 8 13 10 37 7 56 -6 28 -2 38
20 60 21 21 25 32 20 58 -4 18 -6 53 -6 78 1 54 -22 88 -61 91 -30 2 -27 -9
-49 223 -6 61 -15 133 -19 160 -5 28 -14 84 -21 125 -7 41 -23 94 -36 116 -28
47 -27 52 28 143 22 35 48 86 59 115 11 28 29 69 39 91 10 22 24 60 31 85 8
25 24 60 36 78 22 34 63 133 63 154 0 6 7 19 16 29 16 18 24 41 44 134 19 84
32 129 46 160 35 78 68 482 68 815 0 186 -21 522 -35 560 -5 14 -14 54 -19 90
-22 138 -26 156 -34 169 -5 8 -10 57 -11 110 -2 53 -7 120 -12 148 -10 58 -9
60 15 12 27 -53 99 -59 129 -12 15 22 15 35 5 107 -17 114 -16 176 2 176 8 0
22 10 30 21 14 20 27 24 111 32 13 1 40 -18 75 -55 53 -54 67 -62 117 -59 64
3 68 120 6 178 l-34 33 42 40 c23 22 48 40 54 40 19 0 45 35 56 74 7 25 16 36
29 36 10 0 26 10 34 22 13 18 18 19 31 8 20 -16 90 -17 109 0 9 6 18 22 22 33
6 18 112 157 121 157 1 0 -13 -32 -32 -72 -19 -40 -35 -84 -35 -98 0 -28 25
-70 41 -70 6 0 19 -10 29 -22 17 -21 26 -23 125 -23 100 0 108 1 126 24 10 13
19 33 19 45 1 27 23 56 43 56 23 0 54 45 74 107 16 51 16 57 1 84 -16 27 -16
29 1 29 29 0 49 31 101 154 89 209 109 236 188 247 26 3 49 7 52 7 3 1 37 -3
75 -9z"/>
<path d="M7313 18043 c-32 -6 -53 -41 -53 -88 0 -54 20 -80 72 -93 82 -20 119
3 133 81 9 49 -13 83 -62 96 -39 11 -51 12 -90 4z"/>
<path d="M7413 17692 c-27 -4 -53 -38 -53 -68 0 -31 41 -87 70 -95 22 -6 22
-7 4 -8 -11 -1 -23 -4 -27 -7 -3 -4 -25 -8 -49 -10 -47 -3 -78 -30 -78 -68 0
-25 26 -66 41 -66 6 0 18 -9 27 -21 11 -13 29 -20 52 -21 38 -1 90 -24 104
-48 5 -8 23 -28 39 -43 16 -15 28 -29 26 -30 -44 -25 -46 -25 -57 -6 -11 18
-85 44 -100 35 -4 -2 -28 -7 -52 -11 -57 -8 -80 -33 -80 -90 0 -26 7 -50 18
-63 22 -25 92 -42 136 -32 25 5 36 4 40 -5 2 -7 17 -19 33 -27 24 -12 28 -18
25 -50 -4 -46 26 -105 68 -137 44 -32 106 -33 132 -1 38 47 11 142 -45 153
l-22 4 22 2 c12 0 31 13 42 27 19 24 21 40 21 149 0 109 -2 125 -21 149 -11
14 -29 26 -40 26 -23 0 -24 8 -4 34 19 25 19 57 1 81 -8 11 -12 33 -9 55 7 51
-20 82 -72 82 -43 0 -75 -28 -75 -65 0 -16 -3 -18 -12 -9 -7 7 -21 12 -32 13
-21 0 -20 0 0 9 29 11 54 48 54 78 0 28 -49 78 -82 83 -13 3 -33 3 -45 1z"/>
<path d="M7022 17613 c-13 -3 -37 -23 -53 -46 -26 -36 -30 -48 -24 -82 3 -22
6 -82 6 -134 0 -103 8 -127 44 -141 17 -6 27 -22 35 -52 6 -24 14 -51 17 -62
4 -16 2 -16 -25 4 -61 45 -142 18 -142 -47 0 -27 62 -92 89 -94 9 0 25 -3 36
-5 83 -19 132 11 122 73 -5 28 -3 33 13 33 11 0 27 11 36 25 24 37 16 349 -9
389 -10 14 -24 26 -32 26 -10 0 -12 9 -8 33 8 54 -40 91 -105 80z"/>
<path d="M6422 17582 c-44 -7 -62 -64 -53 -172 1 -8 -2 -30 -5 -48 -7 -38 28
-163 51 -182 25 -21 87 -15 107 10 21 26 22 43 7 125 -5 33 -10 95 -9 139 1
108 -23 139 -98 128z"/>
<path d="M6121 17375 c-113 -27 -123 -178 -12 -178 23 0 47 5 54 12 6 6 19 11
28 11 42 0 65 92 34 137 -19 26 -49 32 -104 18z"/>
<path d="M8382 17313 c-32 -6 -56 -47 -47 -81 9 -37 25 -160 25 -199 -1 -42
36 -83 75 -85 59 -3 120 13 139 35 14 17 17 31 12 66 -7 51 -30 91 -51 91 -15
0 -20 34 -15 101 3 53 -62 87 -138 72z"/>
<path d="M7893 17212 c-44 -7 -53 -36 -53 -178 0 -154 10 -177 83 -190 57 -10
79 -7 100 19 27 31 19 166 -12 207 -11 16 -21 44 -21 62 0 59 -36 89 -97 80z"/>
<path d="M8932 17112 c-52 -8 -81 -116 -44 -162 14 -17 29 -23 62 -23 56 0 90
35 90 92 0 65 -44 103 -108 93z"/>
<path d="M7343 16893 c-30 -6 -63 -49 -63 -82 0 -31 25 -71 44 -71 7 0 18 -11
24 -24 6 -14 24 -33 39 -43 15 -10 43 -35 61 -55 19 -21 40 -38 47 -38 15 0
25 -54 13 -72 -13 -21 -9 -55 10 -78 23 -29 89 -31 112 -3 20 22 55 43 74 43
58 0 60 179 3 180 -7 1 -21 15 -32 32 -11 18 -30 35 -43 38 -23 5 -122 97
-122 112 0 4 -17 19 -37 32 -39 26 -92 37 -130 29z"/>
<path d="M7063 16873 c-45 -9 -67 -70 -40 -107 12 -16 10 -22 -10 -42 -26 -26
-30 -60 -8 -91 18 -26 55 -33 108 -21 65 16 77 36 77 133 0 64 -4 87 -17 103
-18 22 -71 33 -110 25z"/>
<path d="M7893 16682 c-48 -7 -68 -72 -35 -112 39 -48 132 -17 132 44 0 48
-41 76 -97 68z"/>
<path d="M7333 16433 c-50 -9 -71 -98 -35 -143 14 -17 29 -23 62 -23 54 0 80
27 80 83 0 61 -44 94 -107 83z"/>
<path d="M6643 16153 c-28 -5 -53 -39 -53 -71 0 -14 19 -43 48 -74 44 -46 53
-51 92 -51 33 0 48 6 62 23 26 32 22 59 -16 116 -26 38 -43 53 -67 58 -17 3
-34 5 -38 5 -3 -1 -16 -4 -28 -6z"/>
<path d="M7402 16093 c-37 -8 -55 -46 -47 -100 10 -69 27 -90 89 -108 54 -16
98 -13 125 9 7 6 30 12 50 13 44 3 71 32 71 77 0 61 -18 72 -160 101 -45 10
-105 13 -128 8z"/>
<path d="M6973 15852 c-48 -7 -68 -72 -35 -112 39 -48 132 -17 132 44 0 48
-41 76 -97 68z"/>
<path d="M7433 15802 c-48 -7 -68 -72 -35 -112 39 -48 132 -17 132 44 0 48
-41 76 -97 68z"/>
<path d="M5233 15383 c-28 -5 -53 -39 -53 -71 0 -30 42 -101 95 -159 35 -39
46 -45 80 -45 41 0 75 27 75 61 0 22 -67 182 -83 197 -13 14 -80 24 -114 17z"/>
<path d="M9733 14872 c-36 -5 -53 -40 -53 -109 0 -80 26 -115 85 -115 56 0 75
27 75 107 0 90 -35 128 -107 117z"/>
<path d="M9743 14482 c-28 -4 -63 -47 -63 -78 0 -13 13 -38 28 -55 22 -25 36
-31 67 -31 68 0 93 52 57 121 -17 36 -47 50 -89 43z"/>
<path d="M6053 14072 c-27 -4 -53 -38 -53 -68 0 -27 37 -74 58 -74 9 0 25 -14
34 -30 25 -43 88 -45 126 -4 34 39 28 69 -25 125 -48 49 -81 61 -140 51z"/>
<path d="M6403 12453 c-30 -6 -53 -40 -53 -78 0 -33 24 -75 42 -75 6 0 20 -7
30 -16 27 -26 97 -22 120 6 29 35 22 66 -24 114 -43 44 -73 56 -115 49z"/>
<path d="M6573 12292 c-48 -7 -68 -72 -35 -112 39 -48 132 -17 132 44 0 48
-41 76 -97 68z"/>
</g>
</svg>
