<?xml version="1.0" standalone="no"?>
<!DOCTYPE svg PUBLIC "-//W3C//DTD SVG 20010904//EN"
 "http://www.w3.org/TR/2001/REC-SVG-20010904/DTD/svg10.dtd">
<svg version="1.0" xmlns="http://www.w3.org/2000/svg"
 width="1500.000000pt" height="2098.000000pt" viewBox="0 0 1500.000000 2098.000000"
 preserveAspectRatio="xMidYMid meet">
<metadata>
Created by potrace 1.16, written by Peter Selinger 2001-2019
</metadata>
<g transform="translate(0.000000,2098.000000) scale(0.100000,-0.100000)"
fill="none" stroke="grey" stroke-width="2">
<path d="M0 10490 l0 -10490 7500 0 7500 0 0 10490 0 10490 -7500 0 -7500 0 0
-10490z m9062 7846 c95 -28 114 -31 155 -23 l48 10 72 -72 c43 -41 82 -72 95
-73 38 -2 62 1 85 13 17 9 32 6 80 -15 32 -15 67 -35 78 -45 11 -10 31 -22 45
-26 25 -8 35 -15 139 -100 30 -25 62 -45 72 -45 10 0 25 -16 36 -39 l19 -38
-30 -2 c-63 -5 -78 -3 -92 17 -19 27 -59 32 -117 15 -66 -19 -107 -60 -107
-106 0 -47 26 -77 72 -81 21 -2 43 -8 50 -14 14 -11 47 -16 86 -14 14 1 30 14
40 32 13 22 22 28 37 23 83 -26 145 40 99 105 -8 12 -11 22 -5 22 18 0 61 -44
79 -80 10 -21 26 -36 38 -38 27 -4 56 -35 86 -92 18 -34 31 -46 58 -54 19 -5
37 -11 39 -12 4 -4 -41 -84 -48 -85 -3 0 -26 -2 -51 -4 -54 -5 -75 -26 -85
-90 -5 -34 -2 -53 9 -69 14 -22 13 -26 -21 -65 -19 -23 -55 -80 -79 -127 -24
-48 -57 -101 -72 -118 -16 -18 -39 -53 -51 -78 -12 -25 -29 -52 -39 -61 -19
-17 -16 -34 -24 165 -4 96 -16 112 -88 112 -71 0 -114 -43 -140 -140 -10 -38
-24 -83 -31 -100 -7 -18 -9 -42 -5 -59 9 -34 78 -102 110 -107 38 -6 80 11
109 44 l29 33 -6 -35 c-21 -136 -36 -190 -65 -242 -18 -32 -35 -58 -37 -58 -3
0 0 9 6 19 15 30 12 66 -9 92 -16 20 -27 23 -91 23 -64 -1 -75 -4 -92 -23 -10
-13 -18 -32 -18 -42 0 -11 -10 -23 -24 -29 -48 -18 -60 -79 -25 -124 11 -14
29 -26 39 -26 10 0 21 -4 24 -9 9 -15 56 -19 93 -9 24 6 41 21 56 46 17 28 23
33 25 19 5 -26 -18 -77 -34 -77 -19 0 -44 -40 -44 -71 0 -15 -11 -40 -24 -56
-30 -36 -46 -67 -46 -89 0 -10 -8 -27 -18 -38 -11 -12 -50 -73 -87 -136 -38
-63 -83 -136 -101 -162 -40 -59 -54 -137 -30 -173 9 -13 16 -38 16 -54 0 -46
38 -83 83 -83 21 0 44 6 52 12 12 10 19 10 33 -4 10 -9 25 -16 33 -16 8 0 23
-6 34 -14 11 -7 45 -24 75 -36 161 -66 152 -49 146 -281 -3 -101 -6 -204 -6
-229 -1 -82 -9 -108 -32 -112 -13 -2 -29 -15 -37 -30 -20 -36 -5 -78 34 -97
17 -8 33 -19 37 -25 14 -21 8 -104 -10 -148 -23 -54 -29 -261 -8 -293 21 -33
29 -95 15 -126 -8 -20 -15 -26 -23 -20 -6 5 -28 12 -48 16 -27 5 -38 12 -38
25 0 51 -88 85 -168 66 -50 -13 -92 -54 -92 -92 0 -31 63 -101 109 -120 32
-14 50 -30 51 -45 0 -4 -27 -12 -60 -19 -66 -14 -90 -36 -90 -80 0 -44 25 -68
78 -75 26 -3 84 -15 130 -26 80 -19 122 -18 150 4 15 12 12 21 28 -98 7 -55
17 -127 23 -160 34 -215 50 -330 56 -397 6 -67 5 -78 -8 -78 -9 0 -22 -9 -30
-20 -14 -20 -14 -20 -25 4 -6 14 -9 40 -6 58 4 24 1 40 -13 57 -39 47 -133 20
-133 -40 0 -10 -25 -44 -55 -76 -62 -64 -75 -95 -54 -132 17 -31 57 -42 132
-37 67 5 99 27 118 84 l12 35 13 -33 c17 -39 18 -82 3 -129 -20 -62 -24 -65
-109 -86 -85 -22 -110 -40 -110 -81 0 -12 8 -32 19 -45 17 -21 27 -23 104 -24
82 0 85 -1 115 -33 16 -17 38 -32 49 -32 28 -1 53 -25 53 -52 0 -53 -12 -88
-31 -88 -23 0 -49 -37 -49 -71 0 -34 73 -129 99 -129 15 0 20 -11 26 -62 4
-35 8 -102 9 -149 1 -49 6 -92 13 -100 25 -30 67 -236 65 -313 -1 -27 4 -59
11 -70 14 -23 33 -100 43 -182 5 -43 3 -56 -15 -80 -13 -18 -23 -52 -27 -89
-5 -52 -3 -64 16 -87 12 -16 30 -28 40 -28 20 0 30 -26 30 -80 0 -31 35 -287
60 -445 6 -33 17 -139 25 -235 9 -96 20 -197 25 -225 13 -71 12 -115 -2 -115
-6 0 -19 -7 -29 -16 -9 -8 -30 -16 -45 -17 -22 -2 -33 4 -46 25 -17 27 -36 33
-83 28 -49 -5 -94 -80 -79 -133 8 -27 5 -38 -21 -79 -16 -25 -45 -54 -64 -63
-18 -9 -40 -30 -49 -45 -14 -24 -23 -29 -56 -28 -52 1 -80 -30 -73 -82 3 -19
-5 -72 -16 -116 l-21 -82 27 -41 c15 -22 34 -41 42 -41 20 0 57 -38 50 -50 -4
-6 -15 -10 -25 -10 -10 0 -28 -12 -39 -26 -41 -52 -16 -121 46 -127 18 -2 41
-11 50 -19 34 -30 102 -46 147 -35 22 5 46 14 53 19 19 15 93 155 93 175 0 31
-29 62 -65 69 -31 5 -33 8 -29 37 7 43 -15 70 -68 82 -41 10 -43 13 -40 44 3
22 -4 45 -22 72 -14 21 -26 42 -26 47 0 4 22 8 50 8 43 0 53 4 83 35 21 21 44
35 63 37 38 3 64 35 64 81 0 28 5 38 24 47 19 9 25 8 35 -8 6 -10 20 -18 30
-18 26 0 51 -26 51 -54 0 -13 10 -36 22 -51 14 -19 21 -40 20 -60 -2 -20 6
-44 22 -68 20 -30 24 -42 16 -57 -17 -31 -11 -64 15 -100 22 -30 25 -44 24
-100 -3 -109 14 -257 38 -335 6 -19 6 -40 -1 -58 -9 -24 -7 -36 17 -78 22 -40
27 -62 27 -117 0 -79 17 -234 31 -277 5 -17 16 -89 24 -160 17 -153 24 -197
66 -457 35 -218 35 -221 -27 -233 -44 -8 -84 -46 -84 -79 0 -13 11 -47 25 -74
14 -28 25 -56 25 -64 0 -7 8 -25 17 -38 20 -28 18 -81 -3 -122 -31 -59 -4
-107 61 -111 31 -1 44 -8 57 -30 10 -15 24 -27 32 -27 16 0 27 -96 23 -220 -2
-70 -4 -75 -25 -78 -13 -2 -28 1 -35 6 -30 24 -93 17 -113 -13 -14 -21 -14
-34 -4 -95 15 -88 33 -112 85 -112 44 0 72 25 82 74 3 15 10 28 15 28 6 0 7
-8 4 -17 -4 -9 -2 -67 4 -127 12 -131 37 -459 45 -603 6 -97 5 -103 -13 -103
-49 0 -69 -64 -78 -261 -5 -82 -3 -98 13 -118 18 -22 59 -30 103 -19 12 2 14
-6 12 -42 -4 -56 -45 -130 -72 -130 -44 0 -66 -87 -32 -129 18 -23 59 -30 100
-17 20 7 22 4 22 -36 0 -24 3 -94 7 -156 3 -65 2 -112 -3 -112 -5 0 -16 13
-26 29 -18 33 -46 41 -98 28 -51 -12 -70 -40 -70 -102 0 -76 20 -98 93 -99 31
-1 57 -5 57 -11 0 -5 -10 -30 -21 -55 -15 -34 -19 -56 -14 -91 8 -57 38 -109
64 -109 25 0 45 -50 37 -92 -4 -18 -11 -60 -16 -93 -5 -33 -12 -74 -15 -92 -6
-26 -2 -37 18 -57 l26 -26 1 -297 c0 -164 -1 -362 -3 -440 -4 -135 -5 -144
-30 -181 -15 -21 -27 -47 -27 -58 0 -28 28 -64 49 -64 28 0 32 -28 46 -316 l5
-112 -35 -42 c-19 -23 -35 -52 -35 -65 0 -30 37 -75 61 -75 23 0 26 -40 8
-101 -10 -31 -9 -45 5 -78 25 -64 21 -108 -14 -148 -16 -18 -30 -44 -30 -56 0
-31 27 -67 50 -67 17 0 19 -5 13 -32 -3 -18 -10 -41 -14 -50 -5 -9 -9 -24 -9
-33 0 -10 -11 -25 -24 -36 -30 -24 -42 -56 -55 -153 -10 -73 -15 -83 -54 -126
-62 -69 -76 -70 -327 -45 -30 3 -68 7 -85 10 -16 3 -94 5 -173 5 -151 -1 -238
-14 -327 -51 -100 -42 -116 -49 -153 -66 -20 -9 -44 -22 -52 -29 -8 -6 -44
-18 -81 -26 -72 -17 -180 -8 -230 18 -16 8 -34 14 -40 14 -7 0 -22 9 -34 20
-12 11 -34 21 -51 22 -16 1 -36 7 -44 14 -21 16 -112 34 -139 27 -13 -3 -64
-47 -115 -97 -60 -59 -106 -96 -132 -105 -21 -7 -50 -23 -64 -36 -26 -23 -88
-42 -167 -50 -26 -3 -51 -9 -57 -15 -5 -5 -33 -10 -60 -10 -28 0 -67 -4 -86
-10 -19 -5 -64 -12 -100 -14 -36 -3 -81 -8 -100 -11 -52 -9 -226 -9 -240 0 -7
4 -40 9 -75 10 -35 2 -67 5 -72 8 -17 11 -82 18 -203 21 -69 3 -150 9 -182 14
-43 8 -68 7 -110 -4 -29 -7 -71 -14 -93 -14 -50 0 -115 -17 -136 -36 -14 -13
-24 -13 -77 0 -34 8 -75 13 -92 12 -16 -1 -30 1 -30 5 0 13 -84 109 -95 109
-7 0 -10 11 -7 29 6 43 -43 94 -106 109 -44 10 -61 8 -138 -13 -49 -13 -92
-21 -96 -19 -4 3 -25 0 -45 -5 -67 -18 -185 -32 -300 -36 -127 -4 -239 18
-277 54 -12 12 -30 21 -38 21 -9 0 -20 9 -23 20 -4 11 -19 28 -33 37 -15 10
-52 38 -82 63 -30 26 -68 54 -85 62 -143 74 -193 103 -277 160 -171 118 -212
116 -349 -10 -52 -48 -109 -98 -128 -112 -46 -32 -142 -79 -163 -80 -9 0 -20
-5 -24 -11 -10 -16 -211 11 -240 33 -19 14 -129 68 -139 68 -18 0 -104 47
-155 85 -36 26 -52 46 -60 73 -14 52 -13 62 9 62 23 0 51 36 51 65 0 29 -28
65 -51 65 -36 0 -43 39 -30 163 6 62 11 139 11 172 0 57 0 58 19 41 29 -26 91
-24 113 4 24 29 22 56 -5 105 -18 33 -31 43 -71 55 l-48 14 6 66 c3 36 6 90 6
120 0 48 3 57 22 65 36 16 45 58 23 102 -11 21 -21 41 -23 45 -2 4 15 12 37
18 44 12 81 50 81 85 0 31 -42 89 -67 93 -16 2 -23 13 -28 41 -6 37 10 235 21
252 3 5 9 37 15 71 5 35 17 87 26 117 16 52 16 54 -8 97 -23 42 -23 45 -6 73
21 36 21 61 1 109 -22 50 -25 385 -6 522 16 110 19 217 7 310 -5 48 -4 74 7
100 14 33 17 35 68 36 47 1 57 5 83 34 28 32 32 55 16 109 -3 10 6 16 31 18
38 3 66 29 77 71 7 31 -15 75 -41 80 -10 2 -28 15 -40 29 -16 19 -31 25 -61
25 -73 0 -115 -78 -85 -156 15 -40 -6 -40 -30 1 -20 35 -22 47 -18 159 3 67 8
126 12 132 4 7 15 2 31 -14 34 -34 99 -36 127 -3 9 10 21 19 27 19 15 0 41 41
41 66 0 12 -16 41 -35 65 -53 67 -106 71 -151 12 -15 -20 -30 -50 -34 -67 -4
-17 -7 58 -7 167 0 108 1 197 3 197 3 0 12 -4 22 -9 93 -47 143 -47 172 2 27
43 25 79 -5 115 -14 17 -25 37 -25 45 0 31 -34 59 -73 59 -21 0 -43 -5 -50
-10 -8 -7 -18 -7 -27 -2 -12 8 -12 17 4 64 16 47 17 59 6 86 -9 22 -11 57 -5
128 4 53 7 120 7 148 l-1 50 37 1 c41 1 82 39 82 76 0 31 -27 67 -50 67 -10 0
-27 12 -38 28 -18 25 -19 37 -11 172 8 144 15 219 25 253 5 15 9 12 28 -15 61
-91 191 -57 172 44 -11 58 -34 80 -90 83 -36 2 -52 9 -63 25 -14 20 -14 26 6
68 17 36 21 62 19 112 -2 52 0 64 11 62 27 -6 116 -16 149 -16 26 -1 32 -5 32
-22 0 -42 32 -67 85 -67 38 0 52 4 67 22 10 13 18 32 18 42 0 11 10 23 23 28
12 5 39 27 60 50 31 34 37 48 37 85 0 71 -22 89 -108 89 -39 0 -82 -4 -94 -10
-64 -29 -80 -34 -93 -23 -21 18 -72 15 -110 -6 -55 -29 -60 -16 -46 123 6 65
16 147 21 183 5 36 17 137 26 224 9 98 21 168 30 182 11 15 14 45 13 101 -3
93 9 221 22 229 5 3 9 -10 9 -28 0 -46 23 -74 65 -82 24 -5 39 -15 49 -35 21
-40 41 -53 83 -53 28 0 43 7 60 27 13 14 23 34 23 43 0 9 7 26 15 36 8 11 15
30 15 42 0 25 -45 84 -64 84 -7 0 -21 8 -30 19 -9 10 -30 21 -45 24 -31 6
-124 -15 -145 -33 -11 -8 -15 -3 -20 24 -9 48 7 110 38 146 14 18 26 35 27 38
7 48 6 218 -1 231 -8 15 6 196 17 210 1 2 11 -6 21 -19 27 -34 78 -29 144 13
30 19 69 38 86 42 49 10 62 38 62 128 0 75 -2 80 -30 107 -56 53 -122 46 -157
-16 -13 -21 -23 -47 -23 -56 0 -9 -12 -23 -27 -30 -19 -9 -32 -27 -41 -56 -14
-44 -36 -59 -28 -19 3 12 12 83 21 157 21 176 28 211 40 213 5 1 12 -15 16
-36 9 -56 29 -71 95 -71 46 0 60 4 74 22 10 12 25 22 34 22 8 0 22 10 30 23
18 26 50 206 51 287 1 30 7 65 13 77 30 54 -2 191 -54 233 -25 22 -44 66 -44
107 -1 52 -16 113 -32 129 -7 8 -26 15 -41 16 -15 1 -27 4 -27 6 0 1 15 22 33
46 30 41 35 44 77 42 35 -2 51 -9 75 -33 26 -26 30 -39 33 -94 2 -41 10 -75
23 -95 10 -17 19 -40 19 -50 0 -52 62 -83 126 -65 17 5 51 24 76 44 30 22 63
37 93 41 37 6 50 13 66 39 44 72 13 126 -93 160 -9 3 -46 1 -83 -5 -63 -11
-67 -10 -81 10 -8 12 -24 22 -35 22 -16 0 -18 3 -9 19 28 53 -5 104 -68 104
-35 0 -42 3 -52 28 -17 41 -45 61 -84 61 -45 0 -52 -5 -78 -55 -21 -39 -23
-40 -26 -17 -1 14 5 59 13 100 9 41 20 116 25 165 4 50 12 110 18 135 6 25 10
63 10 85 1 22 6 62 11 88 6 26 20 115 31 198 29 225 39 270 65 301 13 15 26
37 30 47 9 30 33 33 57 7 19 -18 23 -35 25 -90 1 -77 18 -111 60 -119 45 -9
79 2 118 39 36 33 37 36 31 81 -8 63 -28 91 -71 99 -39 7 -41 11 -20 38 21 28
18 54 -13 110 -19 35 -35 52 -55 57 -39 10 -94 -8 -113 -36 -25 -38 -48 -33
-40 8 4 17 10 48 13 67 3 19 12 44 19 55 8 11 14 32 14 46 0 15 8 41 17 58 14
24 16 36 7 59 -12 32 -6 99 26 292 38 227 49 294 54 352 3 31 10 68 16 82 9
24 14 26 67 25 48 -2 60 2 75 21 42 51 11 119 -57 123 l-40 2 -5 60 c-3 33 -2
74 3 90 4 17 10 77 13 135 3 58 10 161 16 230 5 69 11 145 13 170 11 163 17
235 21 242 7 11 54 -46 54 -65 0 -8 8 -25 18 -37 14 -18 28 -22 63 -22 39 1
47 -3 69 -34 53 -75 64 -84 110 -89 81 -10 140 -8 155 5 9 7 17 11 18 9 19
-26 36 -61 46 -90 15 -47 35 -64 91 -77 84 -20 130 7 130 76 0 48 -14 67 -64
92 -25 12 -48 29 -51 39 -15 47 -94 71 -131 41 -12 -11 -17 -10 -29 6 -8 10
-12 26 -8 34 3 8 8 29 10 45 8 53 -73 139 -137 146 -48 5 -61 -3 -90 -50 -41
-66 -60 -73 -60 -21 0 59 -42 103 -98 103 -25 0 -50 -7 -60 -17 -10 -9 -22
-16 -26 -16 -9 0 -1 49 21 118 16 49 16 54 0 85 -13 24 -19 76 -26 212 -5 99
-7 183 -3 187 4 3 16 8 27 10 25 4 65 64 65 97 0 39 -25 68 -64 75 -32 6 -35
10 -41 49 -3 23 -3 83 1 132 4 50 7 116 7 148 1 48 4 57 19 57 9 0 25 12 35
26 14 21 15 33 6 65 -16 61 -1 73 89 75 68 1 77 4 121 37 67 51 85 55 111 22
39 -49 141 -29 161 30 6 17 18 42 29 57 14 21 17 39 12 75 -7 57 -7 53 0 123
5 46 2 60 -16 83 -12 15 -30 27 -41 27 -10 0 -19 5 -19 11 0 18 -70 119 -82
119 -6 0 -31 23 -56 50 -25 28 -50 50 -56 50 -6 0 -19 12 -29 25 -16 23 -17
27 -3 47 20 28 20 57 2 83 -13 19 -25 89 -26 143 -1 99 -49 242 -81 242 -6 0
-3 10 5 22 21 30 20 91 -2 118 -13 16 -32 23 -80 27 -57 5 -65 9 -73 32 -6 14
-18 35 -28 46 -10 11 -24 37 -30 57 -15 47 -31 59 -82 63 -45 3 -65 20 -94 80
-8 17 -26 45 -40 64 -14 19 -25 45 -25 58 0 13 -12 36 -27 51 -35 34 -93 129
-93 151 0 25 -29 61 -49 61 -20 0 -76 56 -85 86 -6 18 -2 21 26 22 33 1 68 30
68 57 0 16 38 65 51 65 5 0 9 -9 9 -19 0 -11 10 -32 23 -47 31 -35 88 -36 148
-3 77 43 77 109 -1 152 -19 10 -39 22 -43 26 -11 10 13 61 28 61 7 0 37 21 68
48 123 105 132 111 277 189 14 7 31 13 39 13 7 0 34 15 60 34 65 48 145 76
232 80 76 4 122 16 134 36 8 13 72 40 95 40 12 0 26 -22 47 -72 52 -126 57
-144 39 -170 -9 -12 -16 -37 -16 -55 0 -37 -24 -95 -57 -136 -29 -36 -29 -69
0 -102 17 -20 32 -27 59 -27 20 0 43 4 50 8 24 15 43 9 63 -21 12 -16 30 -31
41 -33 15 -2 29 -20 47 -62 14 -32 23 -61 20 -64 -10 -10 -73 37 -92 69 -11
19 -29 35 -43 37 -30 5 -118 -20 -140 -39 -10 -9 -35 -17 -55 -19 -24 -2 -45
-11 -56 -25 -10 -12 -29 -28 -42 -35 -21 -11 -24 -10 -29 10 -3 12 -19 34 -35
50 -54 51 -136 34 -181 -39 -39 -63 -16 -109 60 -121 69 -10 92 -6 122 23 26
25 28 25 28 7 0 -37 31 -111 55 -134 28 -26 94 -31 121 -9 9 7 29 41 45 75 16
34 37 65 46 68 19 8 13 17 53 -82 32 -82 65 -122 100 -122 10 0 28 -8 41 -18
24 -19 109 -44 130 -40 20 5 49 -83 42 -129 -5 -39 -2 -46 26 -72 17 -16 31
-33 31 -39 0 -5 13 -36 30 -68 16 -32 30 -66 30 -75 0 -8 20 -44 45 -79 26
-37 45 -75 45 -91 0 -14 9 -38 20 -51 19 -24 19 -26 1 -42 -9 -9 -25 -16 -34
-16 -25 0 -47 -40 -47 -88 0 -36 6 -49 38 -83 31 -34 44 -41 75 -41 21 0 46 7
56 16 43 39 117 8 151 -63 13 -25 35 -59 51 -76 40 -43 119 -164 119 -182 0
-8 13 -27 29 -42 16 -15 43 -49 60 -75 16 -27 77 -103 134 -170 94 -110 104
-125 99 -154 -2 -20 2 -41 12 -57 9 -13 16 -42 16 -64 0 -27 8 -48 24 -68 21
-25 22 -31 10 -48 -17 -23 -17 -39 -3 -104 15 -72 36 -94 89 -94 54 0 90 35
90 87 0 62 12 97 36 106 26 10 44 39 44 69 0 11 24 56 53 98 78 115 204 295
262 373 28 37 41 57 131 190 81 120 112 154 153 165 22 6 40 20 47 35 21 43
37 108 31 124 -4 9 24 70 67 147 l73 132 54 17 c42 13 61 26 87 59 17 24 32
52 32 65 0 27 -27 66 -46 66 -18 0 -18 24 2 80 20 58 28 67 68 74 19 4 39 13
46 21 7 8 18 15 25 15 19 0 55 49 55 74 0 29 -27 66 -48 66 -9 1 -24 15 -32
33 -14 31 -14 35 8 67 12 18 25 45 29 59 3 14 17 39 30 54 27 33 29 66 7 109
-16 32 -15 65 6 140 10 35 90 128 111 128 14 0 39 43 39 68 0 14 -15 39 -36
60 -28 28 -35 41 -30 61 18 87 26 120 35 151 5 19 16 61 24 92 11 46 32 90 41
88 0 -1 49 -16 108 -34z m-4348 -8256 c-7 -34 17 -80 41 -80 10 0 15 -10 15
-28 0 -15 7 -38 16 -51 14 -19 14 -25 3 -32 -8 -5 -22 -9 -31 -9 -28 0 -51
-45 -44 -85 6 -29 4 -35 -10 -35 -10 0 -28 -10 -41 -22 -13 -12 -26 -19 -29
-15 -8 8 14 206 32 283 8 33 14 70 14 82 0 15 6 22 20 22 16 0 19 -5 14 -30z"/>
<path d="M9413 17763 c-55 -11 -84 -107 -45 -151 17 -20 34 -25 79 -23 27 1
83 73 83 106 0 48 -56 80 -117 68z"/>
<path d="M9573 17542 c-33 -5 -53 -40 -53 -89 0 -35 6 -50 33 -79 27 -30 40
-36 72 -36 28 0 44 6 57 22 22 28 33 86 22 118 -14 38 -82 72 -131 64z"/>
<path d="M5212 17452 c-29 -4 -54 -44 -50 -79 2 -22 -1 -29 -19 -31 -32 -5
-43 -23 -59 -99 -28 -135 -12 -185 61 -185 43 0 75 28 75 64 0 11 14 33 30 48
36 33 40 75 10 113 -25 31 -25 37 -1 37 23 0 51 36 51 65 0 47 -42 75 -98 67z"/>
<path d="M5383 17072 c-12 -2 -27 -10 -33 -18 -7 -8 -21 -14 -31 -14 -23 0
-49 -37 -49 -70 0 -38 26 -68 70 -80 56 -15 100 -1 128 40 50 75 3 155 -85
142z"/>
<path d="M8923 16973 c-12 -2 -36 -17 -53 -33 -48 -45 -37 -96 26 -126 51 -24
94 -21 122 11 12 14 22 38 22 53 0 33 -35 92 -54 92 -8 0 -20 2 -28 4 -7 2
-23 1 -35 -1z"/>
<path d="M5613 16962 c-48 -7 -68 -72 -35 -112 39 -48 132 -17 132 44 0 48
-41 76 -97 68z"/>
<path d="M6113 16802 c-34 -5 -63 -49 -63 -94 0 -42 27 -103 56 -129 45 -38
118 -32 143 12 9 16 24 29 33 29 24 0 48 39 48 76 0 50 -28 76 -82 78 -26 1
-52 7 -60 13 -17 13 -47 20 -75 15z"/>
<path d="M8993 16419 c-81 -23 -81 -104 -1 -199 29 -35 58 -60 69 -60 26 0 26
-63 -1 -113 -27 -50 -25 -81 8 -118 40 -44 91 -44 138 2 43 42 79 103 88 149
4 19 14 49 23 66 24 47 11 77 -55 126 -31 24 -66 45 -76 48 -11 3 -23 18 -27
33 -11 41 -25 54 -67 61 -20 4 -44 9 -52 11 -8 1 -30 -1 -47 -6z"/>
<path d="M5860 16311 c-14 -4 -31 -20 -39 -36 -8 -17 -20 -42 -28 -57 -7 -14
-13 -36 -13 -47 0 -12 -6 -32 -14 -44 -8 -12 -18 -49 -21 -82 -6 -50 -4 -64
12 -83 36 -45 144 -19 166 39 13 33 21 35 62 13 38 -20 82 -20 120 0 26 14 31
14 46 0 27 -24 89 -21 111 6 39 49 8 112 -54 112 -20 0 -41 -3 -47 -7 -7 -3
-11 2 -11 14 0 10 -3 27 -6 35 -9 23 -103 82 -143 91 -19 4 -42 15 -50 25 -19
21 -57 30 -91 21z"/>
<path d="M8760 16251 c-27 -8 -70 -72 -70 -107 0 -44 36 -68 97 -65 27 1 83
73 83 106 0 48 -55 81 -110 66z"/>
<path d="M6223 15742 c-48 -7 -68 -72 -35 -112 39 -48 132 -17 132 44 0 48
-41 76 -97 68z"/>
<path d="M9290 15510 c-32 -8 -55 -48 -46 -83 19 -77 106 -107 153 -52 32 36
29 71 -7 105 -32 30 -62 39 -100 30z"/>
<path d="M9113 15492 c-25 -4 -53 -37 -53 -64 0 -9 -11 -28 -25 -42 -14 -14
-25 -35 -25 -47 0 -11 -13 -34 -30 -49 -44 -41 -41 -81 9 -131 36 -37 57 -44
106 -39 30 3 39 14 63 77 13 32 34 79 47 106 31 58 31 91 2 141 -22 40 -51 55
-94 48z"/>
<path d="M7223 15412 c-49 -7 -69 -80 -35 -122 13 -16 29 -22 57 -22 45 0 75
28 75 71 0 53 -39 82 -97 73z"/>
<path d="M6550 15211 c-55 -16 -65 -94 -15 -127 38 -25 104 -22 127 6 51 63
-25 146 -112 121z"/>
<path d="M9383 15202 c-30 -4 -53 -39 -53 -77 0 -34 24 -75 45 -75 20 0 63
-56 75 -99 5 -21 18 -45 27 -53 43 -37 147 -29 178 15 23 32 18 57 -20 112
-20 28 -47 67 -60 87 -14 21 -36 45 -49 53 -31 21 -114 42 -143 37z"/>
<path d="M8820 15150 c-16 -4 -33 -21 -47 -47 -21 -37 -22 -49 -16 -132 7
-111 20 -133 78 -133 48 0 75 28 75 78 0 27 4 34 19 34 24 0 51 36 51 68 0 13
-12 36 -28 50 -15 15 -35 39 -44 53 -18 29 -48 39 -88 29z"/>
<path d="M8053 15053 c-49 -9 -68 -73 -35 -114 15 -18 29 -22 67 -22 38 0 52
4 67 22 49 62 -12 131 -99 114z"/>
<path d="M5763 14923 c-26 -5 -53 -39 -53 -65 0 -10 -6 -18 -14 -18 -8 0 -23
-11 -34 -25 -11 -14 -27 -25 -36 -25 -9 0 -25 -13 -34 -30 -11 -19 -31 -34
-57 -42 -32 -11 -44 -22 -62 -58 -28 -56 -28 -81 -3 -112 24 -31 56 -38 118
-26 60 12 82 37 82 94 0 49 -1 49 56 29 23 -8 64 -17 90 -21 75 -9 172 -58
185 -91 27 -69 34 -77 82 -91 44 -12 55 -12 117 7 79 24 100 46 100 106 0 57
-20 81 -82 95 -31 8 -60 22 -72 37 -15 18 -33 25 -59 26 -28 1 -37 5 -37 18 0
32 -34 61 -73 62 -34 1 -37 3 -37 31 0 39 -34 96 -57 97 -10 0 -36 1 -58 3
-22 2 -50 1 -62 -1z"/>
<path d="M6893 14882 c-45 -7 -67 -69 -38 -108 22 -29 18 -47 -15 -66 -16 -9
-32 -29 -36 -44 -9 -35 14 -78 45 -82 17 -3 21 -8 15 -20 -5 -9 -9 -39 -9 -66
-1 -45 -3 -50 -35 -65 -44 -20 -60 -62 -40 -98 17 -31 126 -73 166 -65 39 7
58 44 50 96 -6 35 -3 51 14 77 11 19 20 42 20 52 0 25 -38 97 -55 104 -21 7
-9 48 25 81 31 31 48 109 31 140 -20 38 -92 72 -138 64z"/>
<path d="M7243 14872 c-55 -9 -74 -112 -28 -157 13 -14 32 -25 42 -25 10 0 25
-13 34 -29 27 -47 135 -52 172 -8 16 18 18 32 12 87 -4 36 -13 75 -21 87 -16
25 -70 42 -131 41 -22 0 -45 2 -50 4 -4 2 -18 2 -30 0z"/>
<path d="M7593 14753 c-30 -6 -83 -68 -83 -97 0 -13 9 -35 20 -49 11 -14 20
-34 20 -46 0 -11 10 -32 23 -46 30 -36 92 -38 119 -5 26 32 26 188 1 218 -19
21 -63 32 -100 25z"/>
<path d="M7593 14292 c-48 -7 -68 -72 -35 -112 39 -48 132 -17 132 44 0 48
-41 76 -97 68z"/>
<path d="M9090 14231 c-31 -9 -55 -50 -47 -82 3 -13 19 -39 35 -58 25 -30 34
-34 77 -34 38 0 52 4 67 22 39 50 7 132 -59 150 -21 6 -40 10 -43 10 -3 -1
-16 -4 -30 -8z"/>
<path d="M8063 14132 c-27 -4 -53 -38 -53 -68 0 -13 10 -35 23 -51 13 -15 29
-43 37 -61 20 -50 52 -66 126 -65 68 0 87 9 110 54 29 57 5 105 -56 113 -58 7
-76 16 -98 46 -21 28 -49 38 -89 32z"/>
<path d="M7212 14097 c-55 -15 -82 -47 -82 -98 0 -31 8 -48 43 -87 23 -27 50
-63 59 -81 11 -20 25 -31 40 -32 85 -4 96 13 95 142 0 96 -2 104 -26 130 -31
33 -71 41 -129 26z"/>
<path d="M8415 13944 c-90 -23 -124 -100 -71 -161 21 -25 30 -27 91 -27 84 -1
105 19 105 98 0 89 -34 113 -125 90z"/>
<path d="M9550 13722 c-33 -10 -70 -67 -70 -108 0 -52 45 -97 96 -97 56 0 80
16 109 73 30 58 31 80 8 109 -20 24 -98 36 -143 23z"/>
<path d="M6283 13673 c-13 -2 -28 -12 -35 -22 -7 -10 -29 -22 -48 -26 -55 -12
-70 -23 -91 -72 -24 -56 -24 -75 0 -104 15 -19 28 -23 71 -23 45 0 56 4 76 28
13 15 29 24 35 21 25 -16 83 -7 101 15 25 30 25 130 1 158 -18 22 -71 33 -110
25z"/>
<path d="M7253 13652 c-48 -7 -68 -72 -35 -112 39 -48 132 -17 132 44 0 48
-41 76 -97 68z"/>
<path d="M7212 13503 c-34 -7 -56 -46 -48 -88 6 -31 4 -36 -18 -45 -44 -17
-60 -75 -31 -117 31 -44 159 -37 189 10 8 12 17 60 21 107 6 75 4 89 -12 107
-19 22 -62 34 -101 26z"/>
<path d="M8113 13502 c-28 -4 -63 -47 -63 -77 0 -66 92 -93 137 -40 52 60 8
129 -74 117z"/>
<path d="M7470 13481 c-33 -9 -70 -66 -70 -107 0 -23 11 -45 38 -77 20 -24 45
-58 54 -76 17 -30 33 -36 83 -31 48 5 85 71 85 153 0 30 -8 46 -41 82 -35 37
-93 69 -119 64 -3 -1 -16 -4 -30 -8z"/>
<path d="M9603 13462 c-12 -2 -27 -10 -33 -18 -7 -8 -18 -14 -26 -14 -21 0
-44 -41 -44 -79 0 -35 50 -154 70 -166 6 -4 28 -7 48 -7 49 0 83 38 80 90 -1
20 2 60 6 87 6 43 4 55 -13 77 -21 26 -49 36 -88 30z"/>
<path d="M6533 13453 c-51 -10 -79 -85 -48 -129 42 -61 195 -14 195 59 0 54
-67 86 -147 70z"/>
<path d="M7823 13412 c-48 -7 -68 -72 -35 -112 39 -48 132 -17 132 44 0 48
-41 76 -97 68z"/>
<path d="M5463 13362 c-32 -5 -83 -67 -83 -100 0 -15 12 -49 25 -77 14 -27 25
-55 25 -61 0 -24 41 -62 73 -68 19 -4 42 -15 52 -26 10 -11 24 -20 30 -20 7 0
18 -13 25 -29 31 -75 142 -120 181 -73 16 20 16 20 35 1 30 -29 189 -44 218
-20 7 6 21 29 31 51 22 48 13 89 -23 105 -13 6 -22 19 -22 31 0 12 -8 32 -18
44 -23 29 -89 31 -112 4 -34 -40 -60 -56 -99 -60 -23 -2 -41 0 -41 4 0 4 16
25 35 45 60 64 37 128 -47 131 -35 2 -51 8 -65 25 -15 18 -31 24 -67 25 -41 2
-49 6 -66 33 -18 30 -46 41 -87 35z"/>
<path d="M8228 13324 c-3 -3 -34 -7 -69 -9 -51 -3 -68 -9 -81 -26 -24 -28 -24
-100 0 -129 25 -31 89 -31 117 2 13 15 33 24 55 25 86 6 93 118 9 137 -14 3
-28 3 -31 0z"/>
<path d="M5253 13272 c-12 -2 -36 -16 -53 -32 -57 -53 -30 -132 45 -132 32 0
45 6 72 36 63 68 26 142 -64 128z"/>
<path d="M7783 13262 c-28 -4 -63 -47 -63 -77 0 -41 32 -68 80 -68 50 0 80 27
80 72 0 52 -39 82 -97 73z"/>
<path d="M6793 13002 c-48 -7 -71 -92 -37 -140 12 -18 13 -22 1 -22 -31 0 -52
-41 -54 -104 -1 -33 -5 -77 -8 -98 -6 -32 -3 -41 27 -73 28 -31 40 -37 73 -37
63 0 75 23 75 146 0 83 -4 107 -20 134 -15 25 -17 32 -5 32 22 0 45 41 45 80
0 61 -36 91 -97 82z"/>
<path d="M8900 12781 c-38 -11 -58 -53 -43 -92 8 -21 9 -38 3 -50 -18 -32 -10
-66 24 -111 37 -48 68 -61 119 -51 64 13 86 119 38 184 -12 15 -21 39 -21 52
0 51 -60 85 -120 68z"/>
<path d="M9183 12682 c-28 -4 -63 -47 -63 -77 0 -35 48 -135 68 -141 9 -3 28
-11 41 -17 13 -6 41 -11 62 -11 30 1 39 -2 39 -15 0 -25 39 -83 60 -88 10 -3
30 -23 44 -44 26 -39 40 -44 96 -40 32 2 90 63 90 95 0 34 -35 73 -73 81 -17
4 -46 21 -64 37 -25 24 -41 31 -72 31 -34 0 -41 3 -41 19 0 31 -25 70 -77 119
-49 47 -71 57 -110 51z"/>
<path d="M5953 12672 c-27 -4 -53 -38 -53 -69 0 -13 -6 -23 -14 -23 -24 0 -46
-41 -46 -85 0 -46 22 -85 49 -85 9 0 22 -5 28 -11 20 -20 85 -13 105 11 10 12
18 28 18 36 0 8 6 14 14 14 19 0 46 39 46 66 0 12 -10 34 -22 49 -12 16 -29
42 -38 59 -15 31 -47 45 -87 38z"/>
<path d="M5222 12622 c-37 -6 -54 -42 -46 -102 9 -70 29 -93 84 -93 37 0 47 5
72 34 15 19 31 44 34 57 8 29 -10 71 -33 78 -10 3 -27 9 -38 14 -33 13 -49 16
-73 12z"/>
<path d="M5529 12556 c-21 -7 -40 -22 -49 -41 -8 -16 -23 -41 -33 -55 -9 -13
-17 -32 -17 -41 0 -10 -13 -31 -30 -47 -18 -18 -30 -41 -30 -56 0 -16 -6 -26
-14 -26 -21 0 -46 -40 -46 -72 0 -73 89 -105 151 -54 22 19 37 25 53 20 31
-10 75 -7 92 7 20 16 38 82 30 112 -3 14 -17 39 -31 55 l-25 30 30 7 c34 7 60
39 60 72 0 29 -53 89 -84 95 -13 3 -39 0 -57 -6z"/>
<path d="M8642 12553 c-14 -3 -35 -23 -53 -51 -21 -33 -37 -47 -57 -49 -32 -4
-62 -36 -62 -68 0 -24 54 -105 70 -105 6 0 10 -4 10 -9 0 -5 -25 -9 -56 -8
-72 2 -94 -21 -94 -94 0 -66 38 -111 93 -111 21 0 44 6 53 13 8 6 36 13 62 14
107 4 152 28 152 80 0 12 -13 42 -30 68 -16 26 -30 51 -30 55 0 5 17 9 37 9
27 1 44 8 60 28 21 24 22 33 17 98 -8 92 -21 113 -76 122 -24 3 -50 8 -58 9
-8 2 -25 1 -38 -1z"/>
<path d="M6443 12442 c-50 -8 -70 -88 -35 -133 15 -18 29 -22 67 -22 38 0 52
4 67 22 50 63 -12 147 -99 133z"/>
<path d="M8201 12401 c-28 -7 -90 -102 -91 -137 0 -12 9 -33 21 -48 12 -15 24
-51 28 -82 9 -66 27 -86 75 -86 45 0 56 9 88 69 22 40 26 62 27 132 l1 83 -37
34 c-20 19 -42 34 -49 34 -7 0 -18 2 -26 4 -7 2 -24 1 -37 -3z"/>
<path d="M7143 12392 c-29 -4 -83 -67 -83 -96 0 -13 8 -34 19 -47 15 -19 28
-23 71 -23 45 0 56 4 76 28 29 33 30 61 5 102 -19 31 -46 42 -88 36z"/>
<path d="M7490 12351 c-14 -4 -35 -22 -48 -41 -20 -30 -22 -42 -17 -85 9 -65
26 -91 68 -99 53 -10 94 3 127 41 25 28 30 42 30 87 0 72 -19 94 -85 99 -27 3
-61 1 -75 -2z"/>
<path d="M9663 12333 c-49 -9 -69 -81 -35 -123 14 -17 29 -23 62 -23 50 0 80
27 80 73 0 51 -48 83 -107 73z"/>
<path d="M5984 12302 c-12 -2 -38 -18 -58 -36 -39 -36 -46 -72 -24 -121 18
-39 -4 -56 -35 -27 -13 12 -27 22 -32 22 -5 0 -16 6 -24 14 -16 14 -47 21 -87
18 -30 -3 -124 -117 -124 -151 0 -35 26 -71 51 -71 16 0 18 -3 9 -19 -15 -29
-12 -56 8 -81 25 -31 95 -32 125 -1 56 55 84 70 126 69 33 0 49 6 71 27 41 40
56 80 42 117 -10 26 -8 30 13 38 29 11 55 58 55 97 0 16 -11 45 -25 64 -24 36
-50 47 -91 41z"/>
<path d="M6190 12301 c-32 -9 -55 -50 -47 -83 10 -37 71 -80 115 -80 88 0 101
136 15 156 -16 4 -35 8 -43 10 -8 2 -26 1 -40 -3z"/>
<path d="M7740 12095 c-34 -8 -52 -21 -77 -54 -18 -23 -33 -52 -33 -65 0 -29
27 -66 48 -66 19 -1 46 -55 56 -111 20 -115 135 -155 194 -68 20 29 23 42 17
84 -8 60 -28 95 -56 95 -16 0 -19 4 -14 18 19 43 15 77 -14 123 -33 53 -55 60
-121 44z"/>
<path d="M6153 12083 c-36 -7 -53 -41 -53 -105 0 -75 27 -110 84 -110 33 0 46
7 83 46 36 38 43 53 43 85 0 56 -24 81 -85 85 -27 3 -60 2 -72 -1z"/>
<path d="M9772 12073 c-34 -7 -56 -46 -49 -91 l6 -37 -40 -2 c-22 0 -46 -6
-53 -12 -8 -7 -18 -11 -22 -10 -34 6 -56 -5 -79 -38 -44 -65 -34 -95 53 -160
43 -33 135 -51 201 -41 43 7 62 5 89 -8 19 -9 50 -16 70 -16 77 0 130 107 85
171 -9 13 -17 38 -19 55 -6 75 -22 138 -37 153 -10 10 -34 17 -64 17 -26 1
-52 4 -58 7 -17 10 -59 16 -83 12z"/>
<path d="M8183 12003 c-28 -6 -63 -49 -63 -78 0 -29 36 -75 59 -75 9 0 22 -5
28 -11 20 -20 85 -13 105 11 26 32 23 93 -4 124 -23 26 -79 39 -125 29z"/>
<path d="M8560 11971 c-13 -4 -38 -25 -53 -48 -27 -38 -28 -44 -22 -107 9 -80
27 -107 75 -108 40 -1 140 11 151 18 15 9 69 112 69 131 0 33 -38 72 -83 84
-23 6 -46 14 -52 19 -17 12 -59 18 -85 11z"/>
<path d="M7533 11943 c-50 -10 -70 -89 -35 -133 28 -34 98 -32 129 4 58 68 -1
147 -94 129z"/>
<path d="M8023 11872 c-48 -7 -68 -72 -35 -112 39 -48 132 -17 132 44 0 48
-41 76 -97 68z"/>
<path d="M9240 11795 c-40 -9 -48 -16 -68 -58 -18 -39 -21 -56 -16 -103 4 -30
15 -65 25 -77 16 -20 26 -22 130 -21 104 0 113 2 130 23 24 30 24 62 -1 94
-11 14 -20 36 -20 50 0 67 -91 113 -180 92z"/>
<path d="M5663 11783 c-27 -5 -63 -48 -63 -75 0 -17 -1 -18 -25 -2 -38 25
-104 22 -127 -6 -16 -20 -21 -21 -49 -10 -45 19 -91 15 -111 -11 -27 -32 -22
-65 15 -105 36 -39 48 -41 182 -31 62 5 73 9 97 37 16 17 28 42 28 57 0 21 3
24 12 15 7 -7 20 -12 29 -12 20 0 29 -20 29 -65 0 -49 27 -77 75 -77 64 0 104
69 72 124 -10 18 -14 40 -10 61 10 66 -70 118 -154 100z"/>
<path d="M7083 11782 c-33 -5 -53 -40 -53 -93 0 -67 23 -92 85 -92 38 0 52 4
67 22 23 30 22 56 -5 111 -23 45 -48 59 -94 52z"/>
<path d="M8522 11642 c-40 -6 -53 -40 -46 -121 9 -97 26 -116 102 -112 27 1
82 82 82 121 0 20 -42 100 -53 100 -1 0 -16 4 -32 8 -17 4 -40 6 -53 4z"/>
<path d="M6742 11602 c-27 -4 -44 -29 -66 -95 -26 -79 -42 -97 -76 -87 -54 15
-82 -1 -116 -66 -24 -44 -37 -58 -50 -56 -11 1 -37 3 -58 4 -49 1 -77 -28 -76
-81 0 -20 -2 -50 -6 -66 -8 -41 24 -80 72 -90 20 -3 47 -13 60 -21 12 -9 40
-16 61 -17 23 -1 44 -9 53 -20 23 -28 89 -26 112 3 28 35 23 84 -14 125 -31
36 -31 37 -15 65 10 16 17 49 17 77 0 27 2 52 5 55 3 3 22 0 43 -8 45 -16 79
-9 114 23 82 75 78 68 78 136 0 47 -5 70 -17 85 -19 21 -84 40 -121 34z"/>
<path d="M6082 11593 c-28 -5 -82 -87 -82 -123 0 -33 26 -70 50 -70 10 0 22
-4 25 -10 3 -5 14 -10 24 -10 10 0 21 -9 24 -19 4 -16 -2 -21 -34 -26 -107
-18 -124 -184 -19 -187 147 -4 197 23 185 99 -4 31 -2 49 11 68 16 25 16 37
-5 123 -6 23 -15 60 -20 83 -5 23 -15 47 -22 55 -15 14 -99 25 -137 17z"/>
<path d="M9020 11511 c-39 -11 -63 -61 -54 -117 9 -64 39 -96 89 -96 46 0 85
37 85 80 -1 42 -17 104 -32 117 -18 17 -58 24 -88 16z"/>
<path d="M8720 11422 c-30 -7 -64 -22 -76 -33 -11 -10 -26 -19 -32 -19 -19 0
-44 -47 -40 -76 3 -24 -2 -29 -29 -36 -35 -9 -63 -41 -63 -73 0 -50 98 -143
156 -147 16 -2 23 -7 19 -16 -3 -8 -5 -30 -5 -50 l0 -37 -47 -1 c-75 -3 -107
-61 -63 -116 24 -31 58 -39 111 -26 26 7 43 7 52 0 15 -12 84 -27 112 -23 26
3 55 38 55 66 0 13 -8 33 -19 46 -13 16 -17 34 -14 59 4 28 -2 44 -26 78 -29
38 -43 46 -88 45 -7 0 -10 11 -6 32 3 18 0 42 -6 53 -6 11 -8 28 -5 37 6 14
10 13 30 -6 20 -19 36 -23 90 -23 58 0 69 3 85 23 37 45 18 181 -24 181 -7 0
-24 15 -39 34 -33 41 -57 46 -128 28z"/>
<path d="M9233 11403 c-50 -9 -70 -89 -35 -133 14 -17 29 -23 62 -23 52 0 80
27 80 78 0 56 -46 89 -107 78z"/>
<path d="M7083 11343 c-31 -6 -53 -40 -53 -84 0 -27 10 -49 40 -87 40 -50 63
-61 108 -53 34 5 52 40 58 112 8 84 -9 108 -81 113 -27 1 -60 1 -72 -1z"/>
<path d="M8273 11202 c-30 -4 -63 -48 -63 -82 0 -15 8 -38 19 -51 15 -19 28
-23 71 -23 43 0 56 4 71 23 26 32 24 64 -6 99 -25 30 -52 40 -92 34z"/>
<path d="M6132 11053 c-26 -5 -62 -57 -62 -89 0 -12 8 -32 19 -45 15 -19 28
-23 71 -23 62 0 90 25 90 79 0 57 -51 91 -118 78z"/>
<path d="M5673 11003 c-47 -9 -68 -77 -38 -120 15 -22 71 -39 110 -34 11 1 28
11 38 23 49 58 -25 146 -110 131z"/>
<path d="M9430 11000 c-14 -3 -31 -19 -39 -35 -8 -17 -20 -42 -28 -57 -20 -39
-16 -64 15 -99 23 -26 36 -32 71 -32 28 0 49 7 64 20 12 11 35 27 52 34 39 18
55 61 35 96 -8 14 -22 29 -30 33 -93 44 -109 48 -140 40z"/>
<path d="M9965 10982 c-11 -2 -27 -10 -35 -17 -8 -8 -45 -19 -83 -25 -78 -14
-97 -32 -97 -95 0 -28 8 -52 24 -74 13 -17 29 -52 35 -76 6 -24 15 -47 21 -50
5 -3 10 -30 10 -59 0 -38 6 -61 19 -77 18 -23 18 -23 -3 -40 -12 -9 -41 -22
-64 -28 -47 -13 -66 -37 -76 -93 -4 -21 -18 -49 -32 -63 -23 -23 -25 -31 -19
-78 12 -95 51 -123 140 -101 61 16 88 46 83 91 -4 31 -2 34 34 43 47 13 108
88 109 134 0 17 1 51 2 76 1 25 0 79 -1 121 -2 69 -6 82 -36 127 l-34 51 29 6
c15 4 42 22 59 41 69 80 12 205 -85 186z"/>
<path d="M8213 10922 c-35 -5 -63 -48 -63 -97 0 -59 24 -87 75 -87 53 0 85 36
85 95 0 68 -33 99 -97 89z"/>
<path d="M9190 10824 c-49 -18 -81 -37 -91 -55 -24 -46 17 -169 57 -169 8 0
27 -26 42 -57 20 -43 34 -59 55 -64 47 -12 80 3 101 46 11 22 24 42 30 44 24
9 56 52 56 74 0 31 -36 77 -61 77 -12 0 -19 7 -19 18 0 30 -29 61 -68 71 -63
17 -86 20 -102 15z"/>
<path d="M6350 10810 c-15 -3 -33 -20 -45 -42 -35 -66 7 -120 93 -120 68 0 95
73 47 130 -27 32 -55 42 -95 32z"/>
<path d="M7804 10782 c-12 -2 -30 -12 -40 -23 -9 -10 -25 -19 -35 -19 -21 0
-59 -45 -59 -71 0 -16 75 -178 115 -249 8 -14 15 -37 15 -51 0 -91 136 -94
189 -4 12 21 28 35 40 35 50 0 67 93 28 151 -25 37 -58 49 -101 37 -24 -6 -35
-3 -51 12 -12 11 -29 20 -38 20 -23 0 -21 7 8 42 53 63 12 133 -71 120z"/>
<path d="M5593 10752 c-38 -6 -73 -57 -73 -107 0 -59 24 -87 75 -87 50 0 80
32 89 97 11 72 -22 107 -91 97z"/>
<path d="M5263 10652 c-49 -7 -69 -80 -35 -122 14 -17 29 -23 62 -23 33 0 48
6 62 23 47 58 -8 134 -89 122z"/>
<path d="M9263 10452 c-48 -7 -68 -72 -35 -112 39 -48 132 -17 132 44 0 48
-41 76 -97 68z"/>
<path d="M8233 10283 c-27 -5 -63 -48 -63 -74 0 -15 -8 -18 -47 -17 -37 0 -50
-4 -65 -22 -43 -53 -8 -110 79 -129 32 -7 68 -22 80 -33 13 -13 35 -20 59 -20
31 0 44 7 82 47 38 41 43 51 38 79 -4 17 -6 46 -6 64 0 17 -4 41 -10 52 -17
31 -101 61 -147 53z"/>
<path d="M9163 10242 c-31 -5 -63 -48 -63 -86 0 -43 23 -73 63 -81 17 -4 46
-20 62 -35 17 -16 43 -30 60 -32 16 -2 39 -14 50 -26 23 -26 70 -32 117 -13
33 13 44 32 53 97 5 41 3 54 -13 74 -17 21 -28 23 -109 25 -91 2 -91 3 -122
38 -31 35 -57 45 -98 39z"/>
<path d="M7653 10232 c-51 -8 -72 -105 -34 -153 19 -24 19 -25 0 -48 -41 -51
-10 -113 56 -113 62 0 96 59 61 107 -12 17 -12 22 5 44 24 31 24 87 0 127 -19
31 -46 42 -88 36z"/>
<path d="M5542 10109 c-21 -6 -40 -23 -56 -47 -22 -35 -26 -37 -72 -35 -27 1
-65 3 -84 4 -59 2 -89 -59 -55 -108 15 -21 73 -40 103 -34 8 1 20 -3 27 -9 8
-7 31 -12 50 -12 24 0 46 -9 66 -25 47 -40 93 -34 141 17 31 32 39 48 37 73
-1 18 1 44 5 59 11 39 -1 66 -42 92 -47 29 -79 36 -120 25z"/>
<path d="M7052 10072 c-39 -6 -62 -57 -62 -137 0 -72 17 -115 44 -115 7 0 23
-11 36 -25 24 -26 87 -48 119 -43 11 2 28 -5 39 -15 21 -19 80 -26 102 -12 23
14 40 75 40 140 0 57 -3 69 -27 95 -20 22 -38 32 -63 33 -19 1 -40 6 -47 10
-6 4 -24 8 -40 9 -16 2 -37 14 -50 29 -24 28 -51 37 -91 31z"/>
<path d="M8123 9913 c-31 -6 -63 -50 -63 -85 0 -38 23 -81 53 -101 14 -9 33
-33 43 -54 31 -61 87 -64 149 -7 36 33 37 36 31 81 -7 55 -29 93 -54 93 -9 0
-30 15 -47 34 -30 35 -68 48 -112 39z"/>
<path d="M6045 9813 c-11 -3 -28 -12 -38 -21 -25 -22 -48 -24 -69 -5 -10 9
-35 16 -60 16 -33 0 -47 -6 -65 -27 -28 -33 -29 -59 -4 -100 10 -17 24 -48 30
-68 15 -47 32 -60 78 -60 40 0 70 26 105 91 10 18 23 29 29 26 25 -16 83 -7
101 15 23 28 23 82 1 108 -19 22 -73 34 -108 25z"/>
<path d="M8663 9803 c-31 -6 -53 -41 -53 -84 0 -74 58 -101 135 -65 106 51 39
173 -82 149z"/>
<path d="M5303 9762 c-28 -4 -53 -38 -53 -70 0 -24 93 -121 116 -122 16 0 44
-34 44 -52 0 -32 34 -60 72 -60 42 0 115 51 124 88 8 32 -14 101 -37 118 -12
8 -32 30 -45 49 -18 27 -33 37 -66 43 -45 8 -118 11 -155 6z"/>
<path d="M6243 9703 c-46 -9 -67 -70 -38 -109 8 -10 15 -29 15 -41 0 -13 13
-37 28 -54 23 -26 36 -32 70 -32 39 0 47 6 102 62 64 67 73 93 42 131 -13 16
-28 22 -57 22 -22 0 -59 6 -83 14 -23 8 -46 13 -50 13 -4 -1 -17 -4 -29 -6z"/>
<path d="M8020 9630 c-31 -7 -55 -49 -47 -81 4 -13 17 -37 30 -52 44 -55 137
-29 137 37 0 31 -45 93 -72 98 -13 2 -34 1 -48 -2z"/>
<path d="M9432 9612 c-14 -2 -32 -18 -43 -37 -13 -21 -30 -35 -50 -39 -19 -3
-36 -16 -47 -36 -9 -16 -25 -30 -34 -30 -25 0 -48 -40 -48 -84 0 -36 7 -46 74
-111 79 -77 112 -91 175 -79 51 11 65 41 55 122 -8 61 -7 71 15 113 l25 46
-18 56 c-22 72 -45 88 -104 79z"/>
<path d="M5673 9552 c-27 -4 -63 -47 -63 -74 0 -24 23 -70 44 -87 9 -7 32 -13
53 -13 66 0 92 60 55 131 -17 36 -47 50 -89 43z"/>
<path d="M5213 9493 c-29 -6 -53 -40 -53 -74 0 -36 62 -115 96 -122 63 -12
134 29 134 78 0 38 -55 103 -97 114 -39 11 -42 11 -80 4z"/>
<path d="M7873 9432 c-52 -8 -69 -82 -30 -127 47 -55 137 -25 137 45 0 54 -48
91 -107 82z"/>
<path d="M8071 9400 c-28 -6 -90 -101 -91 -137 0 -26 43 -115 66 -134 9 -8 40
-13 71 -13 77 0 90 18 91 125 0 78 -1 82 -34 119 -36 40 -63 50 -103 40z"/>
<path d="M5033 9283 c-28 -5 -53 -39 -53 -73 0 -36 46 -100 73 -101 68 -4 97
21 97 82 0 63 -52 104 -117 92z"/>
<path d="M5272 9272 c-14 -2 -33 -20 -50 -45 -14 -23 -39 -57 -54 -75 -37 -43
-35 -74 7 -137 39 -60 56 -66 169 -61 58 2 72 7 88 26 22 27 23 58 4 86 -10
13 -11 25 -5 35 30 47 -30 149 -98 165 -21 5 -48 8 -61 6z"/>
<path d="M7063 9223 c-33 -6 -73 -59 -73 -96 0 -56 96 -206 133 -208 73 -4
102 23 92 86 -4 22 -6 64 -6 94 0 29 -4 62 -10 72 -17 33 -89 60 -136 52z"/>
<path d="M8323 9173 c-32 -6 -53 -41 -53 -88 0 -53 21 -82 71 -95 99 -27 180
43 139 120 -21 40 -105 73 -157 63z"/>
<path d="M5543 8992 c-50 -8 -71 -97 -34 -143 16 -19 28 -23 76 -23 50 0 60 3
81 27 13 16 24 38 24 50 0 31 -27 67 -50 67 -10 0 -21 4 -24 9 -7 11 -44 17
-73 13z"/>
<path d="M6053 8882 c-28 -4 -63 -47 -63 -78 0 -13 13 -38 28 -55 52 -58 142
-33 142 40 0 60 -48 102 -107 93z"/>
<path d="M6223 8823 c-27 -5 -53 -39 -53 -69 0 -24 44 -119 59 -129 5 -3 12
-24 16 -48 15 -86 51 -115 156 -123 41 -3 76 -7 79 -9 6 -4 173 31 217 46 83
27 81 134 -2 142 -17 2 -37 7 -44 11 -7 4 -29 8 -49 8 -27 0 -42 -7 -60 -27
l-23 -27 -22 19 c-12 11 -34 23 -49 27 -19 4 -28 13 -28 27 0 26 -43 69 -70
69 -13 0 -20 7 -20 19 0 42 -53 74 -107 64z"/>
<path d="M5840 8777 c-37 -13 -80 -74 -80 -113 0 -31 30 -61 70 -72 44 -11
117 6 136 32 20 28 18 109 -3 134 -23 27 -78 35 -123 19z"/>
<path d="M7133 8772 c-45 -7 -67 -69 -38 -108 21 -27 19 -40 -11 -69 -22 -22
-25 -33 -21 -61 5 -28 3 -34 -13 -34 -23 0 -60 -45 -60 -74 0 -35 28 -65 68
-73 20 -4 41 -6 46 -4 5 1 32 4 60 7 70 6 81 22 95 146 7 57 15 122 18 146 5
40 3 45 -35 81 -40 38 -68 49 -109 43z"/>
<path d="M8785 8743 c-11 -3 -26 -10 -34 -16 -7 -6 -23 -16 -34 -22 -32 -16
-45 -60 -27 -93 20 -35 65 -45 179 -39 88 4 96 6 118 31 45 53 17 118 -51 118
-20 0 -40 -3 -43 -6 -4 -3 -13 0 -22 8 -19 16 -59 25 -86 19z"/>
<path d="M8053 8692 c-30 -4 -63 -48 -62 -81 0 -14 19 -62 42 -105 36 -69 47
-81 76 -89 19 -4 43 -19 53 -33 11 -13 26 -24 33 -24 8 0 16 -8 19 -18 4 -10
21 -33 40 -51 42 -41 100 -46 128 -11 10 12 22 18 28 15 6 -4 28 -7 48 -7 64
0 95 71 53 123 -17 21 -27 24 -95 23 -42 0 -76 4 -76 9 0 5 16 27 35 48 39 43
44 76 17 109 -19 24 -85 31 -105 11 -8 -8 -15 -7 -27 4 -9 8 -34 16 -56 18
-28 1 -45 10 -61 28 -23 27 -51 37 -90 31z"/>
<path d="M7863 8592 c-48 -7 -68 -72 -35 -112 39 -48 132 -17 132 44 0 48 -41
76 -97 68z"/>
<path d="M5213 8553 c-27 -5 -83 -67 -83 -92 0 -29 77 -179 98 -190 10 -5 31
-11 48 -13 16 -2 37 -13 47 -25 10 -13 25 -23 32 -23 8 0 16 -9 20 -19 17 -54
122 -93 161 -60 13 11 19 8 37 -15 23 -28 102 -55 145 -48 28 4 62 56 62 95 0
18 -12 40 -32 62 -18 18 -40 44 -48 56 -19 26 -90 31 -118 6 -20 -18 -72 -20
-72 -3 0 7 11 27 25 46 44 60 22 119 -47 123 -20 1 -45 11 -57 21 -11 10 -38
19 -61 20 -30 2 -47 9 -63 28 -23 27 -56 38 -94 31z"/>
<path d="M7770 8441 c-60 -17 -64 -102 -6 -129 69 -34 136 -5 136 58 0 55 -64
91 -130 71z"/>
<path d="M9893 8422 c-34 -5 -48 -30 -50 -91 -3 -57 -9 -112 -19 -166 -9 -46
21 -78 73 -78 52 0 55 3 90 66 24 42 30 64 31 119 0 58 -3 71 -29 106 -29 39
-53 51 -96 44z"/>
<path d="M6454 8268 c-17 -4 -39 -17 -49 -27 -17 -20 -18 -20 -34 -1 -16 18
-34 23 -77 21 -26 -1 -94 -85 -94 -117 0 -12 8 -32 18 -43 19 -24 28 -25 176
-18 88 4 90 5 122 40 41 45 52 82 33 116 -17 29 -53 41 -95 29z"/>
<path d="M10080 8200 c-28 -6 -60 -60 -60 -100 0 -14 -9 -38 -20 -55 -11 -16
-20 -38 -20 -47 0 -16 -51 -38 -87 -38 -18 0 -63 -60 -63 -85 0 -42 32 -68 81
-68 39 1 47 -3 61 -27 26 -46 102 -46 124 0 7 14 20 42 30 62 15 31 16 43 7
67 -10 27 -9 29 18 35 39 7 56 39 64 119 l7 67 -35 34 c-38 36 -67 46 -107 36z"/>
<path d="M5863 8102 c-53 -8 -70 -86 -28 -128 21 -21 23 -29 14 -45 -6 -12 -8
-42 -3 -76 5 -46 14 -64 44 -96 32 -35 42 -40 80 -40 55 0 85 31 77 79 -5 28
-1 34 34 53 46 26 59 47 59 95 0 69 -55 102 -136 82 -30 -7 -33 -4 -50 30 -19
39 -47 53 -91 46z"/>
<path d="M9092 7983 c-26 -5 -72 -68 -72 -99 0 -31 64 -111 94 -116 62 -12
116 30 116 90 0 26 -32 93 -52 109 -17 13 -57 21 -86 16z"/>
<path d="M7902 7972 c-52 -8 -66 -90 -24 -142 27 -33 89 -30 119 5 56 65 -4
152 -95 137z"/>
<path d="M8173 7912 c-50 -7 -73 -67 -48 -124 5 -14 2 -18 -13 -18 -52 0 -101
-125 -68 -174 17 -27 61 -38 126 -31 51 5 90 40 90 81 0 29 -22 75 -44 93 -22
18 -20 31 3 31 25 0 51 36 51 70 0 51 -39 81 -97 72z"/>
<path d="M9353 7913 c-31 -6 -63 -49 -63 -85 0 -37 22 -88 46 -109 24 -21 95
-38 129 -32 60 12 72 80 23 142 -18 22 -40 49 -48 60 -16 20 -51 30 -87 24z"/>
<path d="M5681 7820 c-31 -7 -79 -76 -87 -125 -9 -61 17 -89 85 -89 49 0 55 3
97 47 55 59 57 87 8 132 -38 35 -65 44 -103 35z"/>
<path d="M5053 7812 c-48 -7 -68 -72 -35 -112 39 -48 132 -17 132 44 0 48 -41
76 -97 68z"/>
<path d="M5323 7782 c-34 -5 -65 -50 -61 -90 3 -29 -4 -41 -39 -77 -25 -25
-43 -52 -43 -65 0 -12 -11 -35 -25 -52 -30 -35 -32 -67 -7 -98 23 -29 93 -32
122 -5 11 10 26 15 36 11 29 -11 84 5 100 29 8 13 17 38 20 57 5 28 0 42 -30
81 -31 41 -33 47 -17 47 25 0 61 45 61 76 0 12 -11 36 -25 52 -25 30 -52 40
-92 34z"/>
<path d="M6520 7708 c-19 -5 -40 -14 -46 -19 -6 -5 -32 -11 -59 -14 -56 -5
-65 -12 -107 -77 -22 -34 -41 -51 -62 -56 -17 -5 -37 -20 -45 -33 -21 -38 -7
-75 42 -106 23 -16 45 -31 50 -34 4 -3 5 -13 2 -21 -5 -12 -22 -15 -76 -14
-64 1 -73 -1 -91 -24 -16 -19 -18 -33 -13 -65 8 -55 29 -82 69 -93 64 -18 116
10 116 64 0 21 1 21 40 8 40 -14 50 -13 107 12 61 27 70 84 23 137 -16 19 -30
39 -30 44 0 5 41 14 91 20 93 12 114 21 124 54 4 10 19 32 36 48 17 18 29 40
29 56 0 27 -39 75 -61 75 -7 0 -22 8 -33 19 -28 24 -63 31 -106 19z"/>
<path d="M9543 7712 c-28 -4 -53 -38 -53 -70 0 -13 15 -40 35 -60 19 -20 45
-50 58 -65 18 -23 31 -29 62 -29 32 0 45 6 72 36 51 56 37 117 -30 131 -17 4
-43 17 -57 30 -27 24 -53 33 -87 27z"/>
<path d="M7090 7660 c-36 -8 -57 -51 -44 -87 9 -25 7 -31 -22 -59 -40 -38 -52
-78 -33 -113 18 -31 51 -40 104 -28 59 14 89 50 82 101 -4 27 -1 47 9 60 20
28 18 69 -6 98 -21 28 -52 37 -90 28z"/>
<path d="M8340 7550 c-17 -4 -34 -23 -52 -55 -33 -60 -34 -83 -9 -131 13 -23
18 -47 14 -68 -11 -71 72 -105 137 -54 76 59 89 68 104 68 20 0 45 39 52 81 7
39 -25 89 -55 89 -10 0 -26 9 -36 20 -10 11 -26 20 -35 20 -9 0 -21 5 -26 10
-16 16 -67 27 -94 20z"/>
<path d="M5723 7502 c-30 -4 -73 -57 -73 -88 0 -14 7 -39 16 -56 22 -42 4 -59
-27 -24 -12 14 -27 26 -33 26 -5 0 -17 6 -25 14 -16 14 -38 19 -78 17 -27 -1
-93 -84 -93 -116 0 -12 9 -34 21 -48 11 -15 24 -50 28 -78 10 -62 28 -81 75
-81 27 0 48 9 80 36 25 20 55 36 69 36 13 0 39 3 57 6 54 11 88 92 60 145 -9
16 -7 19 10 19 29 0 80 53 80 82 0 28 -26 68 -44 68 -7 0 -24 8 -37 18 -28 22
-55 29 -86 24z"/>
<path d="M9986 7343 c-2 -3 -41 -6 -87 -7 -73 -2 -84 -5 -101 -27 -15 -17 -19
-33 -15 -61 6 -44 -3 -53 -61 -63 -45 -7 -72 -34 -72 -72 0 -30 54 -89 88 -96
15 -3 83 6 152 19 155 31 171 43 170 138 0 33 2 73 6 88 8 35 -16 74 -50 80
-14 3 -28 3 -30 1z"/>
<path d="M7688 7308 c-45 -12 -108 -77 -108 -112 0 -31 29 -64 60 -68 17 -2
30 -14 43 -39 26 -53 50 -71 93 -71 58 0 93 56 65 101 -6 10 -5 22 5 35 21 30
17 55 -15 107 -22 35 -37 48 -61 53 -37 7 -33 7 -82 -6z"/>
<path d="M8313 7173 c-28 -5 -63 -49 -63 -77 0 -28 27 -66 47 -66 9 0 24 -7
34 -16 27 -24 89 -21 111 6 59 73 -26 174 -129 153z"/>
<path d="M8193 6842 c-48 -7 -68 -72 -35 -112 39 -48 132 -17 132 44 0 48 -41
76 -97 68z"/>
<path d="M8312 6742 c-13 -2 -32 -18 -43 -35 -40 -66 -13 -129 56 -129 46 0
71 24 81 78 11 60 -28 96 -94 86z"/>
<path d="M5555 6522 c-32 -6 -64 -43 -76 -86 -12 -45 -5 -187 12 -217 22 -41
136 -66 165 -37 20 20 64 146 64 183 0 38 -25 75 -51 75 -12 0 -19 7 -19 18 0
43 -45 74 -95 64z"/>
<path d="M6973 6373 c-59 -12 -72 -104 -23 -171 29 -40 53 -51 98 -43 33 5 50
37 57 106 6 50 4 64 -11 82 -19 23 -78 36 -121 26z"/>
<path d="M4703 6142 c-48 -7 -68 -72 -35 -112 39 -48 132 -17 132 44 0 48 -41
76 -97 68z"/>
<path d="M8123 6143 c-35 -7 -66 -52 -59 -88 4 -16 6 -53 6 -82 -1 -46 3 -57
33 -90 32 -35 38 -37 92 -37 48 0 61 4 77 23 30 39 18 94 -25 110 -18 7 -20
15 -18 63 3 78 -34 114 -106 101z"/>
<path d="M7042 5903 c-30 -6 -54 -45 -51 -80 2 -16 -4 -39 -14 -53 -13 -19
-17 -45 -17 -112 0 -76 3 -90 23 -114 19 -21 32 -27 67 -27 63 0 77 22 85 130
3 49 10 98 16 111 34 84 -23 160 -109 145z"/>
<path d="M7353 5782 c-28 -4 -53 -38 -53 -72 0 -38 36 -90 62 -91 67 -4 98 21
98 76 0 59 -46 96 -107 87z"/>
<path d="M9183 5772 c-34 -5 -53 -40 -53 -98 0 -68 22 -96 75 -96 28 0 44 6
57 22 21 26 24 13 3 -14 -23 -30 -18 -54 21 -112 35 -53 46 -59 99 -55 25 3
65 46 65 71 0 11 -5 30 -11 44 -10 21 -8 29 10 52 11 15 21 38 21 51 0 28 -41
73 -66 73 -10 0 -28 9 -40 21 -13 12 -38 22 -61 23 -21 2 -46 6 -55 10 -30 10
-42 12 -65 8z"/>
<path d="M5823 5632 c-48 -7 -68 -72 -35 -112 39 -48 132 -17 132 44 0 48 -41
76 -97 68z"/>
<path d="M4713 5532 c-28 -4 -63 -47 -63 -77 0 -66 92 -93 137 -40 52 60 8
129 -74 117z"/>
<path d="M4500 5441 c-59 -16 -94 -159 -52 -211 26 -32 81 -30 125 5 44 33 48
44 41 111 -10 81 -48 112 -114 95z"/>
<path d="M5733 5393 c-28 -5 -63 -49 -63 -78 0 -67 100 -95 147 -41 53 62 2
134 -84 119z"/>
<path d="M5092 5365 c-53 -13 -72 -36 -71 -89 0 -23 -3 -57 -6 -77 -6 -31 -3
-41 24 -71 54 -62 136 -61 178 3 24 37 24 39 12 114 -18 116 -49 142 -137 120z"/>
<path d="M9732 5293 c-55 -10 -77 -108 -46 -203 18 -54 29 -67 59 -70 53 -6
64 1 101 55 34 52 36 59 30 107 -4 28 -12 60 -17 70 -15 28 -81 49 -127 41z"/>
<path d="M10472 5242 c-28 -4 -72 -67 -72 -103 0 -37 40 -91 75 -101 103 -29
187 50 123 116 -13 13 -30 36 -38 51 -16 30 -48 43 -88 37z"/>
<path d="M5723 5222 c-28 -4 -63 -47 -63 -78 0 -40 40 -76 85 -76 47 0 75 28
75 76 0 57 -37 87 -97 78z"/>
<path d="M9543 5112 c-48 -7 -68 -72 -35 -112 39 -48 132 -17 132 44 0 48 -41
76 -97 68z"/>
<path d="M4660 4850 c-31 -7 -55 -49 -47 -81 4 -13 20 -39 35 -57 23 -28 35
-34 67 -34 28 0 44 6 57 22 24 29 24 101 1 129 -19 22 -70 32 -113 21z"/>
<path d="M9533 4832 c-12 -2 -34 -17 -49 -34 -27 -33 -27 -48 -6 -116 10 -30
9 -34 -13 -42 -46 -18 -61 -98 -26 -141 15 -19 28 -23 71 -23 46 0 56 4 78 29
21 25 24 36 19 75 l-6 47 32 1 c58 2 87 69 51 120 -8 12 -23 22 -32 22 -9 0
-24 13 -33 29 -17 28 -45 39 -86 33z"/>
<path d="M8312 4763 c-34 -7 -54 -46 -59 -118 -9 -105 29 -137 140 -114 89 18
110 71 61 155 -37 63 -83 87 -142 77z"/>
<path d="M5924 4702 c-35 -5 -104 -75 -104 -104 0 -42 30 -70 74 -70 21 0 43
5 49 11 6 6 19 11 28 11 24 0 49 38 49 75 0 56 -37 86 -96 77z"/>
<path d="M7285 4672 c-11 -2 -28 -11 -38 -20 -12 -11 -39 -17 -75 -18 -61 -2
-92 -25 -92 -68 0 -27 27 -66 45 -66 8 0 26 -18 39 -39 31 -48 38 -53 84 -53
29 0 43 7 69 36 18 20 40 36 47 36 22 0 66 59 66 87 0 18 -13 38 -41 63 -40
38 -68 49 -104 42z"/>
<path d="M4613 4653 c-76 -14 -66 -181 12 -195 41 -8 107 11 133 39 16 17 22
36 22 67 0 63 -22 85 -90 89 -30 2 -65 2 -77 0z"/>
<path d="M5532 4623 c-35 -7 -55 -45 -47 -93 5 -32 4 -40 -9 -40 -34 0 -47
-42 -40 -130 9 -104 22 -123 91 -124 28 -1 58 -7 67 -15 26 -22 97 -18 117 8
9 11 24 21 33 21 53 0 57 132 6 180 -25 23 -26 28 -14 45 37 51 3 115 -63 119
-22 1 -47 7 -55 13 -17 13 -57 21 -86 16z"/>
<path d="M10540 4401 c-93 -29 -127 -78 -115 -166 8 -64 26 -91 65 -99 77 -15
164 36 159 94 -1 14 4 37 11 52 33 70 -40 143 -120 119z"/>
<path d="M4682 4342 c-35 -5 -72 -68 -72 -122 l0 -45 -63 0 c-34 0 -68 4 -75
9 -22 13 -81 9 -106 -8 -14 -8 -28 -26 -32 -38 -4 -13 -15 -34 -25 -47 -24
-30 -24 -62 -1 -91 26 -32 93 -32 128 1 19 17 27 20 36 11 7 -7 20 -12 29 -12
16 0 79 -62 79 -78 0 -4 -18 -8 -40 -8 -47 -2 -70 -20 -95 -74 -36 -81 1 -119
122 -126 112 -6 126 -5 141 9 20 20 64 146 69 198 6 57 -7 83 -50 105 -49 25
-63 54 -27 54 37 0 71 45 70 93 0 23 3 59 6 80 10 63 -27 99 -94 89z"/>
<path d="M4983 4212 c-41 -6 -62 -57 -69 -168 -6 -78 13 -106 69 -106 21 0 44
5 52 12 8 7 39 14 70 15 64 4 70 7 91 47 11 22 14 43 9 79 -9 66 -29 87 -89
94 -27 3 -54 9 -60 14 -15 11 -47 17 -73 13z"/>
<path d="M6933 4192 c-33 -5 -53 -40 -53 -92 0 -110 123 -181 170 -98 13 24
12 33 -8 96 -28 86 -48 104 -109 94z"/>
<path d="M5783 4183 c-26 -5 -73 -57 -73 -81 0 -9 9 -48 20 -87 33 -123 106
-157 207 -99 79 46 89 84 45 174 -24 48 -32 57 -76 72 -60 21 -94 27 -123 21z"/>
<path d="M8013 4082 c-33 -5 -83 -56 -83 -85 0 -30 28 -65 55 -68 42 -5 105
13 120 34 42 60 -13 131 -92 119z"/>
<path d="M9710 4065 c-35 -8 -49 -18 -61 -42 -8 -17 -27 -45 -42 -63 -31 -37
-34 -69 -9 -100 20 -24 85 -31 105 -11 6 6 18 11 28 11 23 0 87 86 95 126 8
41 -14 79 -48 86 -13 2 -43 -1 -68 -7z"/>
<path d="M10302 4066 c-57 -15 -72 -37 -72 -107 0 -90 32 -114 127 -95 46 8
93 52 93 86 0 22 -35 106 -47 113 -22 12 -62 13 -101 3z"/>
<path d="M7246 4043 c-2 -2 -30 -6 -62 -9 -44 -3 -63 -10 -76 -25 -25 -29 -22
-54 15 -129 34 -68 56 -83 107 -70 29 7 110 122 110 156 0 30 -34 71 -65 76
-13 3 -26 3 -29 1z"/>
<path d="M10523 4013 c-27 -5 -53 -39 -53 -68 0 -85 129 -134 169 -64 36 65
-36 146 -116 132z"/>
<path d="M8735 3963 c-30 -8 -50 -29 -71 -76 -10 -23 -26 -53 -36 -66 -42 -56
-4 -133 67 -133 29 0 44 6 57 24 10 12 30 35 43 51 14 15 25 33 25 40 0 7 12
14 28 15 32 2 72 44 72 76 0 47 -30 68 -100 71 -36 2 -74 1 -85 -2z"/>
<path d="M9982 3862 c-28 -4 -62 -57 -62 -96 0 -41 33 -89 91 -132 88 -64 160
-42 159 50 0 23 2 61 6 86 4 36 2 51 -13 69 -17 20 -29 24 -89 25 -38 1 -79 1
-92 -2z"/>
<path d="M8512 3742 c-14 -2 -33 -20 -49 -45 -15 -23 -28 -44 -30 -46 -2 -2
-11 3 -20 11 -48 42 -151 28 -183 -25 -22 -35 -27 -115 -10 -147 14 -26 76
-54 118 -53 20 1 46 -6 59 -14 12 -8 39 -15 60 -16 21 0 44 -4 50 -10 24 -18
86 -10 105 13 26 32 22 65 -13 104 l-31 36 21 26 c14 18 21 41 21 73 0 73 -32
103 -98 93z"/>
<path d="M10683 3742 c-30 -4 -63 -48 -63 -82 0 -33 35 -80 59 -80 31 0 31
-12 -1 -42 -26 -24 -30 -33 -25 -63 4 -23 2 -35 -6 -36 -7 0 -35 -2 -63 -3
-59 -3 -120 -42 -130 -83 -10 -39 27 -116 63 -132 17 -7 40 -30 52 -51 28 -51
44 -62 88 -62 42 0 73 28 73 67 0 13 7 25 15 29 20 7 55 66 55 92 0 12 -16 42
-35 67 -40 53 -42 57 -16 57 32 0 83 55 80 87 -2 16 2 38 9 50 7 12 12 32 12
45 0 27 -26 68 -43 68 -7 1 -21 15 -32 32 -20 32 -53 46 -92 40z"/>
<path d="M7003 3722 c-27 -4 -53 -38 -53 -69 0 -12 10 -34 23 -48 30 -36 92
-38 119 -5 47 58 -8 134 -89 122z"/>
<path d="M5843 3713 c-32 -6 -53 -41 -53 -86 0 -31 7 -46 34 -73 19 -19 41
-34 50 -34 9 0 30 -9 45 -21 55 -40 141 -17 141 38 0 8 9 26 20 40 25 32 25
64 2 93 -14 17 -31 23 -73 26 -30 1 -70 7 -89 13 -36 11 -39 11 -77 4z"/>
<path d="M4590 3620 c-27 -6 -70 -71 -70 -106 0 -12 8 -31 18 -43 16 -19 26
-22 132 -33 59 -6 84 17 95 88 6 34 3 45 -17 68 -19 23 -32 28 -78 30 -30 1
-66 0 -80 -4z"/>
<path d="M5235 3502 c-28 -6 -83 -51 -90 -73 -4 -10 -3 -40 1 -66 5 -36 15
-56 39 -78 18 -16 38 -47 44 -67 7 -20 19 -42 27 -49 18 -15 89 -15 108 0 27
22 61 139 52 178 -4 15 -11 45 -15 66 -10 46 -27 64 -61 70 -14 2 -33 7 -42
10 -31 12 -42 13 -63 9z"/>
<path d="M5683 3502 c-12 -2 -27 -10 -33 -18 -7 -8 -21 -14 -31 -14 -45 0 -63
-81 -30 -136 22 -36 52 -45 137 -38 45 3 63 9 77 26 25 30 17 80 -21 132 -30
40 -59 55 -99 48z"/>
<path d="M9512 3352 c-30 -5 -49 -36 -57 -97 -8 -64 16 -100 73 -110 35 -6 38
-9 34 -33 -6 -43 25 -74 73 -74 64 0 96 58 60 109 -8 12 -25 23 -38 25 -14 2
-20 9 -18 18 16 59 13 78 -23 118 -36 40 -61 50 -104 44z"/>
<path d="M8273 3332 c-28 -4 -63 -47 -63 -78 0 -13 -7 -39 -16 -58 -23 -47
-12 -80 37 -113 55 -36 133 -38 160 -4 24 30 24 63 0 92 -13 16 -17 34 -14 59
8 66 -39 112 -104 102z"/>
<path d="M4643 3323 c-58 -12 -103 -127 -69 -178 23 -35 63 -36 133 -5 47 22
63 44 63 87 0 33 -34 93 -52 93 -7 0 -22 2 -33 4 -11 2 -30 2 -42 -1z"/>
<path d="M5653 3212 c-51 -8 -71 -97 -34 -143 19 -23 19 -25 1 -54 -9 -16 -20
-60 -24 -97 -6 -60 -4 -69 17 -94 18 -21 32 -27 65 -27 23 0 47 5 54 10 7 6
28 14 45 18 35 7 73 47 73 76 0 29 -50 118 -75 135 -20 13 -23 20 -15 34 16
30 12 65 -12 100 -23 34 -55 48 -95 42z"/>
<path d="M5073 3153 c-27 -5 -63 -48 -63 -75 0 -46 45 -101 93 -112 26 -6 27
-7 11 -31 -27 -41 4 -135 44 -135 9 0 23 -9 30 -20 7 -11 19 -20 28 -20 9 0
23 -9 32 -21 11 -13 30 -21 52 -21 20 -1 41 -9 50 -19 15 -18 41 -24 88 -21
27 2 62 55 62 93 0 51 -27 70 -108 73 -61 3 -76 7 -88 25 -8 12 -21 21 -27 21
-7 1 -21 15 -32 33 -11 18 -31 33 -43 35 -13 2 -22 7 -20 10 2 4 14 28 28 54
38 76 12 119 -80 131 -19 3 -45 3 -57 0z m94 -189 c-3 -3 -12 -4 -19 -1 -8 3
-5 6 6 6 11 1 17 -2 13 -5z"/>
<path d="M10415 3083 c-43 -11 -85 -69 -85 -118 0 -19 15 -42 53 -78 41 -39
57 -63 65 -98 14 -57 26 -67 88 -75 27 -3 61 -15 76 -25 15 -10 33 -19 40 -19
7 0 24 -6 38 -13 61 -32 126 -25 155 16 21 30 19 99 -3 127 -15 19 -29 22 -95
24 l-78 2 -46 46 c-44 44 -46 48 -45 102 0 69 -16 90 -80 105 -49 12 -51 12
-83 4z"/>
<path d="M8811 2991 c-33 -9 -121 -124 -121 -158 0 -18 13 -37 41 -62 44 -38
45 -39 82 -84 32 -40 91 -41 124 -2 27 31 29 55 6 98 -11 22 -15 52 -14 93 2
52 -1 65 -21 87 -26 28 -60 38 -97 28z"/>
<path d="M9563 2982 c-49 -7 -69 -80 -35 -122 13 -16 29 -22 57 -22 45 0 75
28 75 71 0 53 -39 82 -97 73z"/>
<path d="M7342 2952 c-32 -5 -56 -45 -48 -80 4 -15 11 -44 15 -65 12 -53 31
-70 81 -70 60 0 75 21 97 134 10 55 -62 96 -145 81z"/>
<path d="M5053 2723 c-35 -7 -53 -41 -53 -99 0 -68 22 -96 74 -96 21 0 45 7
57 18 10 9 29 22 41 28 49 25 48 109 -2 133 -31 14 -88 22 -117 16z"/>
<path d="M10412 2672 c-31 -5 -50 -38 -58 -102 -8 -72 13 -102 71 -102 32 0
45 6 66 31 14 17 30 31 37 31 16 0 42 41 42 66 0 36 -31 62 -85 71 -27 5 -60
7 -73 5z"/>
<path d="M8752 2552 c-32 -5 -49 -37 -57 -107 -9 -85 13 -110 92 -106 31 1
103 94 103 131 0 15 -8 37 -17 48 -19 21 -84 40 -121 34z"/>
<path d="M6922 2502 c-33 -5 -49 -38 -56 -113 -7 -79 9 -108 61 -112 26 -2 37
-11 63 -49 18 -29 38 -48 49 -48 11 0 28 -15 39 -34 21 -35 46 -45 90 -37 31
5 72 67 72 111 0 19 7 44 15 54 32 42 7 100 -48 111 -17 4 -38 12 -44 17 -7 6
-28 10 -47 10 -20 0 -40 6 -47 14 -6 8 -17 14 -23 14 -7 0 -22 13 -33 29 -22
29 -50 39 -91 33z"/>
<path d="M4273 2482 c-28 -4 -73 -56 -73 -84 0 -21 76 -142 107 -170 18 -16
39 -21 80 -19 25 1 93 95 93 128 0 30 -31 62 -62 66 -18 2 -35 15 -50 37 -23
34 -55 48 -95 42z"/>
<path d="M5923 2471 c-68 -18 -95 -37 -114 -83 -10 -24 -10 -37 0 -64 10 -28
9 -37 -5 -59 -9 -14 -30 -33 -46 -41 -52 -27 -74 -112 -40 -154 29 -36 86 -30
129 14 20 20 44 36 55 36 29 0 68 45 68 79 0 40 10 44 56 20 36 -19 80 -26
113 -17 8 2 23 -14 35 -36 31 -58 109 -71 141 -22 21 32 16 233 -7 268 -19 29
-63 41 -107 28 -18 -5 -44 -5 -62 0 -16 5 -37 6 -45 3 -8 -3 -25 3 -37 14 -32
29 -64 33 -134 14z"/>
<path d="M9625 2452 c-33 -5 -105 -76 -105 -103 0 -23 75 -144 104 -168 9 -7
32 -13 53 -13 28 0 43 7 61 28 21 24 23 33 17 83 -4 31 -13 67 -19 81 -7 14
-19 38 -27 54 -14 30 -46 44 -84 38z"/>
<path d="M5430 2273 c-8 -3 -24 -8 -35 -13 -11 -4 -28 -11 -38 -14 -10 -3 -25
-19 -35 -36 -9 -16 -25 -30 -34 -30 -22 0 -48 -38 -48 -69 0 -33 37 -89 70
-106 16 -8 31 -23 35 -34 18 -58 102 -73 143 -25 21 24 24 35 19 82 -5 43 -2
64 14 93 25 49 24 69 -3 109 -23 33 -59 51 -88 43z"/>
<path d="M10762 2272 c-12 -2 -29 -14 -38 -27 -9 -13 -25 -25 -37 -27 -14 -2
-29 -17 -40 -40 -12 -24 -26 -38 -37 -38 -25 0 -60 -46 -60 -78 0 -17 14 -39
43 -66 23 -23 50 -53 59 -68 20 -30 48 -37 98 -25 58 14 72 40 64 114 -6 56
-4 67 20 107 53 90 18 162 -72 148z"/>
<path d="M8083 2202 c-27 -4 -53 -38 -53 -68 0 -32 43 -111 88 -163 33 -37 43
-43 77 -43 34 0 45 7 87 50 29 31 48 60 48 74 0 31 -27 68 -49 68 -9 0 -32 11
-51 25 -19 14 -39 25 -46 25 -6 0 -17 6 -23 14 -13 16 -45 23 -78 18z"/>
<path d="M5773 1893 c-30 -6 -53 -40 -53 -80 0 -22 -5 -33 -14 -33 -20 0 -46
-39 -46 -68 0 -12 11 -33 23 -45 104 -97 136 -114 193 -98 34 9 93 100 94 144
0 33 -40 77 -70 77 -15 0 -20 6 -20 29 0 52 -48 85 -107 74z"/>
<path d="M6283 1842 c-29 -4 -63 -47 -63 -79 0 -65 109 -102 153 -51 22 26 22
55 -2 94 -19 31 -46 42 -88 36z"/>
<path d="M7103 1733 c-24 -5 -63 -47 -63 -68 0 -9 -15 -13 -47 -12 -37 0 -50
-5 -65 -22 -23 -29 -23 -72 0 -101 34 -42 120 -23 137 30 5 15 17 18 72 17 57
-1 68 2 84 22 24 29 24 58 0 97 -16 27 -62 49 -90 43 -3 -1 -16 -4 -28 -6z"/>
<path d="M6073 1723 c-12 -2 -27 -11 -33 -19 -7 -8 -18 -14 -25 -14 -20 0 -65
-59 -65 -84 0 -28 36 -76 56 -76 8 0 32 -16 54 -36 33 -30 48 -37 82 -37 67 0
97 54 63 113 -8 14 -14 44 -15 66 0 66 -47 101 -117 87z"/>
</g>
</svg>
