<?xml version="1.0" standalone="no"?>
<!DOCTYPE svg PUBLIC "-//W3C//DTD SVG 20010904//EN"
 "http://www.w3.org/TR/2001/REC-SVG-20010904/DTD/svg10.dtd">
<svg version="1.0" xmlns="http://www.w3.org/2000/svg"
 width="1500.000000pt" height="2098.000000pt" viewBox="0 0 1500.000000 2098.000000"
 preserveAspectRatio="xMidYMid meet">
<metadata>
Created by potrace 1.16, written by Peter Selinger 2001-2019
</metadata>
<g transform="translate(0.000000,2098.000000) scale(0.100000,-0.100000)"
fill="none" stroke="grey" stroke-width="2">
<path d="M0 10490 l0 -10490 7500 0 7500 0 0 10490 0 10490 -7500 0 -7500 0 0
-10490z m9241 7814 c25 -12 61 -25 80 -29 18 -4 93 -37 164 -74 l130 -67 -1
-44 c0 -25 -6 -124 -13 -220 -11 -144 -28 -497 -32 -650 -1 -19 2 -98 5 -175
3 -77 8 -268 10 -425 3 -157 10 -349 16 -427 22 -289 113 -554 257 -755 39
-54 39 -53 20 -166 -10 -61 -27 -109 -60 -175 -55 -111 -181 -383 -209 -452
-11 -27 -31 -75 -45 -105 -20 -47 -66 -187 -119 -365 -10 -32 -19 -136 -26
-295 -19 -428 12 -1070 71 -1470 25 -167 77 -571 90 -705 6 -55 29 -255 51
-445 22 -190 51 -455 65 -590 14 -135 39 -366 55 -515 16 -148 34 -322 40
-385 6 -63 14 -126 17 -140 6 -29 7 -43 33 -320 11 -113 25 -279 30 -370 10
-155 25 -364 33 -455 8 -81 57 -826 67 -1005 5 -102 14 -243 20 -315 25 -346
63 -949 80 -1285 5 -102 14 -239 20 -305 5 -66 15 -230 20 -365 9 -222 41
-517 81 -760 6 -36 15 -99 19 -140 5 -41 20 -176 34 -300 27 -239 46 -477 71
-890 28 -469 36 -584 61 -810 31 -277 38 -343 58 -495 23 -170 21 -224 -8
-256 -49 -56 -126 -84 -265 -95 -79 -6 -127 -19 -286 -75 -152 -54 -186 -54
-328 -5 -165 57 -249 49 -445 -45 -56 -27 -104 -49 -107 -49 -3 0 -40 -16 -83
-37 -102 -48 -189 -62 -372 -58 -137 2 -161 0 -261 -25 -89 -23 -127 -27 -207
-25 -53 1 -122 10 -152 18 -30 9 -71 14 -90 13 -102 -10 -148 -19 -203 -42
-80 -32 -213 -47 -367 -42 -86 3 -301 -45 -374 -84 -11 -6 -34 -13 -51 -14
-81 -8 -182 -16 -195 -15 -8 0 -74 2 -145 4 -72 2 -135 6 -141 9 -6 4 -30 9
-55 12 -110 14 -282 98 -329 161 -8 11 -26 32 -40 47 -14 15 -36 44 -50 63
-51 73 -55 77 -114 90 -47 11 -65 11 -100 1 -43 -13 -220 -15 -233 -2 -3 3
-12 6 -19 6 -8 0 -47 16 -88 35 -41 19 -81 35 -87 35 -7 0 -20 6 -28 14 -29
26 -141 50 -298 65 -165 15 -271 79 -327 197 -32 68 -34 142 -7 264 11 47 25
112 31 145 13 66 72 346 93 440 8 33 24 157 36 275 39 387 72 733 81 835 4 55
12 112 18 126 6 14 10 50 10 80 -1 76 14 208 67 589 39 288 73 558 80 640 3
41 10 102 15 135 15 99 23 182 86 915 14 162 30 336 34 385 5 50 14 160 20
245 5 85 19 250 30 365 43 448 74 845 105 1330 22 341 61 842 105 1340 17 198
29 346 50 625 35 463 65 787 101 1090 5 47 14 132 20 190 5 58 14 130 19 160
19 104 69 585 89 850 26 347 28 448 9 610 -9 74 -22 200 -28 280 -21 249 -27
302 -53 405 -14 55 -32 136 -42 180 -19 93 -60 220 -81 252 -7 12 -32 68 -54
125 -23 57 -81 186 -130 288 -119 251 -171 406 -140 425 14 9 108 154 167 260
91 161 149 329 164 469 15 139 5 407 -33 861 -6 83 -12 166 -12 185 2 147 -44
516 -98 790 -42 212 -48 252 -42 262 8 12 146 78 164 78 31 0 236 54 251 67
21 17 117 46 129 38 10 -6 75 -128 210 -393 48 -95 94 -180 103 -190 8 -9 38
-62 68 -117 81 -154 215 -389 284 -500 64 -104 129 -210 246 -402 97 -161 303
-465 409 -605 19 -26 67 -90 105 -143 106 -145 192 -242 220 -247 58 -12 73 0
149 116 40 61 123 179 186 261 128 170 267 376 389 575 45 74 121 196 168 270
90 141 199 341 308 569 36 73 78 149 95 167 20 23 30 45 30 67 0 18 9 46 20
62 11 17 20 39 20 49 0 11 13 42 29 70 15 28 31 67 35 87 3 20 20 56 36 80 16
24 30 52 30 62 0 26 17 56 56 100 19 20 34 41 34 46 0 5 7 17 16 26 21 21 91
12 155 -21z"/>
</g>
</svg>
