<?xml version="1.0" standalone="no"?>
<!DOCTYPE svg PUBLIC "-//W3C//DTD SVG 20010904//EN"
 "http://www.w3.org/TR/2001/REC-SVG-20010904/DTD/svg10.dtd">
<svg version="1.0" xmlns="http://www.w3.org/2000/svg"
 width="1500.000000pt" height="2098.000000pt" viewBox="0 0 1500.000000 2098.000000"
 preserveAspectRatio="xMidYMid meet">
<metadata>
Created by potrace 1.16, written by Peter Selinger 2001-2019
</metadata>
<g transform="translate(0.000000,2098.000000) scale(0.100000,-0.100000)"
fill="none" stroke="grey" stroke-width="2">
<path d="M0 10490 l0 -10490 7500 0 7500 0 0 10490 0 10490 -7500 0 -7500 0 0
-10490z m7195 7830 c116 -6 228 -14 250 -18 55 -11 737 4 805 18 30 6 85 13
121 16 62 6 72 3 170 -39 57 -24 143 -57 191 -72 57 -18 109 -42 150 -72 82
-58 223 -125 334 -158 192 -57 399 -127 444 -150 27 -14 67 -27 90 -31 23 -4
44 -12 47 -19 2 -7 -7 -55 -22 -106 -29 -107 -46 -224 -76 -529 -26 -266 -37
-772 -20 -917 16 -140 48 -305 77 -403 50 -165 172 -419 243 -508 57 -69 63
-103 34 -177 -8 -22 -27 -74 -42 -115 -15 -41 -48 -120 -73 -175 -53 -114
-154 -385 -221 -590 -97 -296 -247 -903 -281 -1135 -38 -258 -42 -623 -16
-1210 6 -113 14 -311 20 -440 6 -129 19 -381 30 -560 33 -556 59 -1053 70
-1350 11 -311 22 -511 45 -810 30 -387 45 -745 55 -1300 5 -311 15 -772 21
-1025 5 -253 9 -653 8 -890 -1 -388 1 -444 20 -577 31 -224 72 -736 91 -1148
6 -118 15 -309 20 -425 5 -115 14 -381 20 -590 6 -209 17 -470 25 -580 19
-256 19 -447 1 -499 -12 -35 -33 -66 -104 -156 -13 -16 -42 -43 -65 -59 -85
-61 -131 -80 -218 -89 -101 -11 -116 -10 -289 16 -145 22 -373 24 -439 3 -19
-6 -37 -9 -41 -6 -3 2 -80 -7 -171 -21 -90 -13 -197 -26 -236 -29 -40 -2 -130
-16 -200 -29 -136 -27 -195 -36 -280 -41 -29 -2 -56 -6 -61 -9 -9 -5 -97 -14
-222 -21 -119 -7 -627 -1 -740 9 -36 3 -123 9 -195 12 -275 11 -359 20 -389
39 -11 7 -37 16 -56 20 -19 4 -46 17 -60 30 -14 12 -47 35 -73 51 -27 16 -62
37 -78 46 -70 42 -258 68 -347 47 -20 -4 -76 -11 -124 -15 -167 -13 -239 34
-268 172 -16 79 -9 537 14 844 8 118 20 332 26 475 10 250 16 362 60 1130 41
719 50 912 60 1375 16 723 39 1525 51 1720 5 96 14 409 19 695 5 286 11 549
15 585 3 36 14 207 25 380 11 173 27 414 35 535 32 469 59 1024 90 1865 8 217
22 532 31 700 24 461 10 934 -36 1215 -27 166 -66 337 -132 579 -38 142 -80
304 -93 360 -31 138 -192 589 -273 767 -17 36 -40 95 -52 132 -12 36 -27 70
-34 76 -7 6 -23 33 -36 61 -28 61 -21 82 45 123 50 32 86 84 149 217 139 296
196 579 196 985 0 206 -9 314 -66 795 -17 147 -61 400 -76 440 -12 31 11 50
61 50 20 1 52 7 71 14 19 8 89 35 155 61 66 25 185 69 265 96 80 28 154 56
165 63 11 7 65 28 120 46 55 18 136 51 180 75 44 23 112 53 150 65 39 12 106
38 149 57 44 20 102 39 130 44 54 8 212 5 561 -11z"/>
<path d="M7233 18242 c-49 -8 -69 -80 -34 -123 17 -21 28 -24 91 -24 63 0 74
3 91 24 24 29 24 72 1 101 -13 16 -30 22 -72 24 -30 1 -65 0 -77 -2z"/>
</g>
</svg>
