<?xml version="1.0" standalone="no"?>
<!DOCTYPE svg PUBLIC "-//W3C//DTD SVG 20010904//EN"
 "http://www.w3.org/TR/2001/REC-SVG-20010904/DTD/svg10.dtd">
<svg version="1.0" xmlns="http://www.w3.org/2000/svg"
 width="1500.000000pt" height="2098.000000pt" viewBox="0 0 1500.000000 2098.000000"
 preserveAspectRatio="xMidYMid meet">
<metadata>
Created by potrace 1.16, written by Peter Selinger 2001-2019
</metadata>
<g transform="translate(0.000000,2098.000000) scale(0.100000,-0.100000)"
fill="none" stroke="grey" stroke-width="2">
<path d="M0 10490 l0 -10490 7500 0 7500 0 0 10490 0 10490 -7500 0 -7500 0 0
-10490z m6865 7860 c77 -6 201 -15 275 -22 176 -15 827 -16 995 -1 196 18 499
25 600 14 87 -9 141 -26 195 -62 14 -9 59 -28 100 -42 41 -13 111 -43 155 -65
44 -22 145 -67 225 -100 209 -87 288 -124 396 -187 53 -32 111 -63 129 -71 18
-7 88 -49 156 -92 68 -43 161 -98 207 -122 119 -61 366 -290 412 -380 7 -14
37 -47 67 -75 l55 -50 -36 -110 c-19 -60 -42 -137 -50 -170 -27 -113 -106
-410 -130 -490 -36 -120 -74 -345 -96 -564 -69 -686 -63 -1041 22 -1277 16
-45 4 -75 -51 -136 -26 -29 -62 -80 -78 -113 -34 -68 -152 -342 -190 -443 -13
-37 -47 -108 -74 -159 -44 -84 -51 -105 -73 -240 -14 -81 -43 -211 -65 -288
-45 -154 -52 -238 -26 -312 9 -25 19 -117 25 -225 18 -312 40 -534 66 -676 34
-181 42 -232 64 -392 10 -74 34 -225 54 -335 79 -452 150 -921 261 -1720 33
-237 109 -859 130 -1055 9 -85 20 -193 26 -240 10 -94 41 -430 64 -700 19
-214 52 -572 65 -700 5 -52 14 -158 20 -235 6 -77 22 -268 36 -425 25 -295 57
-715 74 -975 5 -82 14 -199 20 -260 21 -228 69 -844 105 -1355 17 -239 40
-547 55 -745 5 -71 12 -179 15 -240 3 -60 10 -173 15 -250 6 -77 14 -210 20
-295 5 -85 16 -207 25 -272 14 -110 14 -118 -4 -160 -18 -43 -76 -98 -136
-131 -70 -37 -131 -50 -250 -53 -189 -5 -212 -9 -236 -47 -17 -27 -19 -42 -14
-96 6 -64 -8 -124 -43 -178 -24 -39 -154 -173 -167 -173 -7 0 -18 -7 -25 -15
-7 -8 -19 -15 -27 -15 -8 0 -26 -9 -40 -20 -14 -11 -32 -20 -40 -20 -8 0 -35
-10 -61 -22 -26 -12 -60 -23 -76 -25 -16 -2 -43 -10 -59 -18 -16 -8 -44 -17
-63 -21 -19 -3 -37 -10 -39 -15 -3 -4 -12 -6 -19 -3 -8 3 -40 -2 -72 -10 -31
-8 -61 -13 -66 -10 -4 3 -27 -1 -50 -7 -24 -7 -54 -13 -68 -15 -24 -1 -109
-11 -180 -20 -19 -2 -111 -6 -205 -9 -240 -7 -315 -12 -360 -24 -44 -11 -93
-19 -170 -26 -27 -3 -68 -8 -90 -11 -49 -9 -61 -10 -150 -18 -38 -4 -99 -13
-134 -20 -73 -15 -110 -8 -178 37 -24 15 -46 27 -50 27 -28 2 -122 218 -123
283 0 16 -10 38 -23 51 -30 30 -43 79 -56 211 -8 76 -16 117 -28 133 -22 29
-65 45 -213 76 -312 66 -497 66 -645 2 -39 -18 -237 -86 -348 -122 -49 -15
-105 -40 -124 -56 -20 -15 -39 -28 -44 -28 -8 0 -64 -82 -90 -131 -69 -131
-100 -169 -138 -169 -9 0 -28 -7 -43 -14 -15 -8 -53 -18 -84 -22 -72 -9 -168
19 -183 53 -6 12 -26 40 -46 62 -34 37 -81 152 -68 165 3 2 2 40 -2 83 -7 72
-10 80 -43 110 -20 18 -42 33 -49 33 -23 0 -34 36 -23 82 5 24 10 76 10 116 0
63 -3 76 -23 96 -30 30 -92 41 -148 26 -50 -13 -126 -87 -162 -156 -54 -102
-69 -124 -104 -151 -80 -60 -172 -90 -298 -96 -43 -2 -174 15 -255 33 -89 19
-356 105 -375 119 -5 5 -24 12 -41 15 -17 4 -56 20 -85 36 -30 16 -63 34 -75
39 -12 5 -34 24 -50 41 -16 18 -47 50 -68 73 l-39 41 7 100 c3 56 11 119 16
141 5 22 17 110 25 195 16 163 53 464 60 490 2 8 11 85 20 170 9 85 22 206 30
268 8 62 21 209 30 325 8 117 21 307 30 422 8 116 22 307 30 425 18 249 50
620 110 1255 88 926 244 2335 310 2795 14 96 37 267 51 380 26 217 47 384 88
700 32 248 51 429 71 650 63 738 100 1071 174 1595 22 154 47 343 56 420 9 77
32 259 50 405 18 146 36 309 40 363 3 54 13 123 21 155 18 67 12 139 -18 225
-35 102 -58 188 -89 332 -40 191 -37 179 -75 280 -41 113 -245 470 -428 751
l-30 46 3 396 c3 537 -10 738 -83 1237 -8 55 -22 152 -31 215 -9 63 -34 210
-55 325 -34 185 -44 222 -85 309 -43 92 -44 99 -28 112 10 7 27 16 37 20 11 3
44 27 75 51 31 25 85 68 121 96 35 29 96 82 135 118 87 82 308 252 395 304 36
21 79 50 95 65 28 25 231 138 555 309 122 65 474 233 575 276 22 9 63 21 90
25 56 9 306 4 520 -10z"/>
<path d="M7533 17993 c-31 -6 -63 -49 -63 -84 0 -15 10 -40 23 -55 20 -23 31
-27 77 -27 44 0 57 5 72 23 23 29 23 91 1 118 -18 22 -71 33 -110 25z"/>
<path d="M7530 17648 c-94 -25 -93 -131 1 -156 75 -20 119 10 119 79 0 65 -49
96 -120 77z"/>
</g>
</svg>
