<?xml version="1.0" standalone="no"?>
<!DOCTYPE svg PUBLIC "-//W3C//DTD SVG 20010904//EN"
 "http://www.w3.org/TR/2001/REC-SVG-20010904/DTD/svg10.dtd">
<svg version="1.0" xmlns="http://www.w3.org/2000/svg"
 width="1500.000000pt" height="2098.000000pt" viewBox="0 0 1500.000000 2098.000000"
 preserveAspectRatio="xMidYMid meet">
<metadata>
Created by potrace 1.16, written by Peter Selinger 2001-2019
</metadata>
<g transform="translate(0.000000,2098.000000) scale(0.100000,-0.100000)"
fill="none" stroke="grey" stroke-width="2">
<path d="M0 10490 l0 -10490 7500 0 7500 0 0 10490 0 10490 -7500 0 -7500 0 0
-10490z m5708 7834 c36 -25 27 -41 -30 -54 -29 -7 -57 -16 -63 -20 -19 -15
-187 -70 -196 -64 -23 14 -4 33 59 63 38 17 75 31 83 31 8 0 34 14 58 30 51
34 58 36 89 14z m3611 -30 c82 -32 211 -93 211 -100 0 -3 -6 -17 -13 -32 -19
-37 -64 -232 -72 -312 -4 -36 -14 -78 -23 -95 -43 -84 -102 -598 -102 -886 0
-82 3 -100 21 -123 11 -14 29 -26 40 -26 15 0 19 -7 19 -35 0 -28 -4 -35 -19
-35 -49 0 -65 -89 -36 -202 13 -49 14 -65 3 -94 -7 -20 -19 -34 -29 -34 -22 0
-141 -139 -190 -223 -44 -75 -68 -173 -52 -210 13 -28 6 -133 -11 -172 -67
-154 -58 -244 24 -247 63 -2 78 2 108 27 17 14 37 25 45 25 9 0 22 8 29 18 7
9 24 18 38 20 14 2 36 17 50 33 14 16 32 29 40 29 9 0 21 5 28 12 7 7 26 17
44 22 40 14 55 41 68 132 l11 70 50 -2 c38 -3 58 -10 82 -31 18 -15 55 -43 84
-61 28 -18 53 -39 56 -46 3 -7 -8 -76 -23 -152 -38 -190 -111 -682 -146 -976
-3 -32 -10 -58 -15 -58 -5 0 -9 8 -9 18 0 26 -36 115 -64 158 -51 79 -54 81
-116 97 -100 25 -125 9 -149 -96 -15 -63 -14 -101 3 -142 12 -27 13 -57 6
-147 -4 -62 -8 -165 -9 -228 -1 -106 1 -119 27 -170 21 -42 34 -56 57 -62 39
-11 93 -1 122 22 14 11 36 17 55 15 l33 -3 -3 -98 c-1 -55 -7 -174 -13 -266
-8 -141 -7 -176 5 -220 43 -151 140 -867 216 -1588 5 -52 14 -135 20 -185 18
-167 31 -395 25 -424 -3 -17 -14 -31 -25 -34 -38 -10 -45 -49 -25 -140 9 -45
21 -95 26 -112 4 -16 13 -49 19 -72 6 -23 21 -55 34 -70 22 -27 25 -43 35
-203 17 -264 29 -381 57 -540 22 -134 112 -935 134 -1200 6 -63 14 -146 19
-185 13 -92 48 -463 121 -1265 22 -239 49 -534 60 -655 11 -121 29 -321 40
-445 10 -124 28 -313 39 -420 56 -541 111 -1230 111 -1385 0 -55 5 -152 10
-216 5 -63 16 -194 24 -290 34 -398 35 -467 14 -584 -8 -45 -21 -73 -52 -112
-23 -29 -48 -52 -57 -53 -20 0 -55 -37 -68 -73 -6 -16 -11 -81 -11 -146 0 -83
-5 -129 -15 -154 -8 -20 -15 -46 -15 -58 0 -45 -54 -134 -109 -178 -45 -37
-64 -46 -125 -56 -68 -12 -175 -12 -206 -1 -8 3 -35 10 -59 16 -25 7 -58 22
-75 34 -17 12 -51 29 -76 36 -25 8 -49 17 -55 21 -5 4 -26 10 -45 14 -35 8
-46 12 -89 34 -13 7 -49 14 -80 16 -83 6 -142 13 -177 24 -17 5 -43 7 -57 4
-15 -3 -57 2 -94 11 -97 22 -303 12 -349 -19 -13 -8 -30 -15 -38 -15 -8 0 -27
-18 -43 -40 -15 -22 -34 -40 -40 -40 -7 0 -18 -9 -25 -20 -7 -11 -18 -20 -24
-20 -16 0 -74 -67 -74 -84 0 -15 -89 -106 -104 -106 -5 0 -24 -16 -43 -35 -19
-19 -41 -35 -49 -35 -9 0 -28 -8 -42 -18 -28 -19 -99 -44 -162 -57 -19 -4 -39
-10 -45 -14 -5 -3 -21 -6 -35 -7 -150 -10 -260 -16 -280 -14 -28 2 -51 2 -95
0 -46 -2 -157 6 -180 13 -43 13 -196 37 -205 32 -4 -2 -43 4 -87 15 -43 10
-92 19 -109 18 -16 0 -56 7 -88 15 -33 9 -63 14 -67 11 -4 -2 -10 0 -13 5 -3
5 -23 12 -43 16 -69 12 -258 68 -273 81 -8 6 -30 15 -47 19 -18 3 -35 11 -38
16 -4 5 -26 18 -50 29 -24 11 -47 25 -50 31 -4 6 -39 34 -79 64 -39 29 -102
83 -140 119 -38 36 -76 66 -84 66 -9 0 -23 6 -31 14 -48 43 -188 63 -275 40
-28 -7 -93 -23 -144 -35 -51 -12 -95 -25 -98 -30 -3 -5 -9 -7 -12 -5 -4 2 -43
-4 -87 -15 -44 -10 -104 -21 -132 -23 -29 -2 -60 -9 -68 -16 -8 -7 -32 -14
-52 -15 -21 -2 -62 -8 -92 -13 -29 -5 -67 -6 -85 -3 -17 4 -42 5 -56 1 -14 -3
-36 -1 -50 6 -14 7 -38 18 -55 26 -66 29 -265 195 -265 221 0 5 -13 31 -28 56
-15 25 -34 66 -41 91 -7 25 -17 55 -22 68 -5 12 -12 48 -15 80 -5 39 -16 72
-36 102 -32 49 -34 80 -9 231 6 36 22 166 36 290 13 123 31 283 40 354 16 143
48 447 70 679 8 81 21 201 30 265 27 214 34 285 40 411 7 155 70 813 90 935 9
54 13 135 11 200 -3 97 16 418 29 500 3 17 12 102 20 190 8 88 26 282 39 430
14 149 37 410 51 580 97 1192 150 1720 215 2149 21 136 30 166 30 99 0 -45 23
-81 55 -84 48 -4 68 3 96 30 24 24 29 38 29 76 0 80 -36 127 -96 127 -44 0
-65 -19 -74 -69 l-8 -38 -1 40 c0 22 6 83 15 135 13 81 67 596 94 900 17 188
52 435 63 442 32 20 62 -47 78 -171 14 -106 28 -131 79 -134 19 -1 41 -6 49
-11 15 -10 84 -12 98 -3 5 3 22 23 36 44 22 31 27 54 32 122 3 46 12 102 19
125 7 22 20 66 29 96 9 30 25 87 36 125 30 103 40 157 51 280 19 219 36 317
64 369 17 33 26 64 26 95 0 47 -21 91 -43 91 -7 0 -20 14 -29 30 -15 26 -43
38 -63 28 -2 -2 -11 7 -20 18 -17 25 -57 35 -96 24 -26 -8 -29 -6 -29 13 0 30
-27 67 -48 67 -37 0 -46 38 -43 185 2 109 -2 162 -18 240 -11 55 -25 150 -31
210 -9 92 -52 348 -90 535 -31 159 -43 261 -32 285 17 38 15 64 -12 120 l-24
49 21 11 c37 18 43 56 18 118 -29 72 -48 97 -72 97 -12 0 -19 7 -19 20 0 18
-28 128 -70 270 -10 36 -21 84 -24 107 -6 42 -6 43 36 64 24 12 68 39 98 61
l55 39 5 -50 c9 -81 20 -87 155 -77 73 6 105 25 105 66 0 23 -38 110 -59 135
-10 11 -26 39 -36 62 l-18 43 36 78 c126 275 139 734 41 1434 -7 47 -6 47 19
42 15 -2 38 -9 52 -14 29 -11 228 -42 248 -39 18 4 100 -23 118 -38 9 -7 29
-37 44 -66 15 -28 42 -68 60 -87 17 -19 38 -49 45 -67 11 -30 10 -35 -19 -75
-17 -23 -31 -51 -31 -63 0 -34 28 -64 73 -76 47 -12 151 -91 188 -141 14 -18
35 -55 48 -83 13 -27 41 -68 61 -90 103 -109 121 -132 126 -155 3 -14 11 -38
18 -55 8 -21 10 -55 4 -119 -9 -107 -25 -135 -121 -227 -67 -64 -69 -68 -64
-105 9 -68 34 -154 51 -173 26 -28 21 -93 -14 -187 -5 -11 -24 -28 -44 -38
-40 -19 -86 -79 -86 -113 0 -34 47 -81 93 -95 40 -11 56 -19 143 -68 69 -39
89 -54 131 -93 35 -34 48 -40 84 -40 49 0 72 22 89 81 13 50 71 163 107 209
49 65 108 162 135 226 7 15 20 27 28 27 9 0 49 34 90 76 96 98 110 105 212
103 77 -1 83 0 105 25 29 34 32 103 6 135 -15 18 -32 22 -113 26 -244 12 -279
18 -327 57 -61 49 -139 96 -164 100 -13 2 -35 15 -49 30 -14 15 -36 28 -50 30
-29 3 -53 52 -54 108 0 37 37 100 60 100 6 0 17 7 24 15 7 8 20 15 30 15 10 0
31 15 47 33 35 38 58 52 101 62 18 3 40 18 50 32 15 22 37 49 120 151 43 52
85 74 150 77 31 1 93 7 137 14 87 12 115 31 115 77 0 51 -111 135 -195 147
-44 6 -133 58 -159 92 -15 19 -31 35 -36 35 -6 0 -25 16 -43 36 -35 38 -39 39
-145 32 -26 -2 -41 5 -71 35 -31 30 -40 47 -45 88 -7 52 -40 99 -69 99 -8 0
-22 9 -32 20 -18 20 -17 20 56 15 41 -2 148 -11 239 -19 282 -27 471 -19 920
39 310 39 520 96 729 197 117 56 130 66 238 171 95 93 121 124 149 184 20 40
40 73 46 73 6 0 41 -12 77 -26z m108 -2081 c-3 -10 -5 -2 -5 17 0 19 2 27 5
18 2 -10 2 -26 0 -35z"/>
<path d="M8833 16112 c-37 -6 -63 -48 -63 -102 0 -70 23 -94 90 -94 43 0 56 4
71 23 25 31 24 67 -3 121 -24 45 -49 59 -95 52z"/>
<path d="M8932 15092 c-21 -3 -72 -65 -72 -87 0 -6 -9 -16 -19 -22 -44 -27
-54 -146 -17 -190 27 -33 42 -119 27 -166 -5 -18 -15 -52 -22 -77 -7 -25 -23
-57 -35 -72 -20 -25 -22 -42 -29 -232 -6 -178 -5 -209 8 -230 20 -30 61 -38
112 -21 22 8 60 14 84 13 35 0 49 5 63 22 22 28 20 19 64 275 66 390 78 542
49 627 -13 35 -30 57 -83 99 -70 57 -92 67 -130 61z"/>
<path d="M6760 14470 c-27 -6 -59 -55 -69 -102 -4 -17 -15 -36 -26 -41 -11 -6
-27 -14 -35 -18 -59 -31 -120 -58 -148 -64 -23 -5 -40 -17 -53 -40 -13 -21
-30 -35 -49 -38 -56 -12 -62 -38 -51 -194 6 -76 11 -258 11 -404 0 -241 2
-269 18 -289 13 -16 29 -22 57 -22 36 0 45 6 88 53 77 85 107 130 107 159 0
25 27 59 60 74 8 4 26 13 40 21 14 8 40 15 59 15 37 0 151 27 166 40 27 23
138 79 167 85 18 4 45 16 60 26 14 11 32 19 40 19 8 0 23 6 33 14 11 8 25 12
32 9 7 -3 44 5 83 17 101 31 126 77 75 138 -14 17 -25 34 -25 40 0 5 -8 20
-18 33 -11 13 -27 45 -37 71 -9 25 -28 57 -41 69 -14 13 -38 51 -54 85 -33 71
-34 72 -85 78 -20 3 -45 12 -55 21 -9 9 -33 17 -52 19 -44 4 -66 20 -100 73
-37 57 -106 75 -198 53z"/>
<path d="M8644 13571 c-11 -4 -41 -24 -65 -45 -43 -38 -47 -39 -123 -40 -69
-1 -80 -4 -97 -25 -24 -30 -24 -58 1 -98 18 -30 37 -39 77 -34 26 3 92 -34 97
-55 9 -36 81 -86 123 -86 61 0 69 18 76 188 5 119 4 152 -8 170 -15 23 -48 33
-81 25z"/>
<path d="M6510 12060 c-18 -4 -34 -23 -57 -65 -35 -67 -40 -103 -19 -144 23
-43 41 -53 105 -56 32 -2 78 -9 101 -15 83 -22 150 8 150 68 0 36 -17 61 -53
76 -18 8 -60 41 -94 74 -64 61 -89 73 -133 62z"/>
<path d="M8482 12042 c-26 -4 -62 -55 -62 -88 0 -65 93 -91 137 -39 55 63 9
140 -75 127z"/>
<path d="M5493 11812 c-28 -4 -63 -47 -63 -77 0 -66 92 -93 137 -40 52 60 8
129 -74 117z"/>
<path d="M8555 11122 c-11 -2 -32 -16 -47 -31 -38 -39 -177 -76 -283 -76 -57
0 -81 5 -183 34 -78 22 -125 19 -145 -8 -7 -9 -25 -17 -42 -19 -16 -1 -38 -13
-49 -25 -16 -19 -18 -33 -13 -104 3 -46 1 -109 -4 -141 -10 -54 -13 -60 -45
-72 -39 -16 -114 -93 -114 -118 0 -9 -8 -22 -17 -28 -31 -20 -103 -177 -103
-225 0 -16 -7 -41 -16 -54 -15 -24 -19 -91 -13 -215 4 -71 -9 -227 -20 -249
-6 -11 -11 -70 -10 -133 0 -137 -18 -234 -60 -320 -47 -98 -45 -107 54 -205
66 -66 85 -91 85 -112 0 -16 12 -46 26 -67 29 -42 29 -23 -5 -229 -5 -33 -15
-61 -20 -63 -6 -2 -21 -12 -33 -22 -21 -16 -23 -27 -25 -136 -1 -66 -6 -139
-10 -163 -8 -41 -11 -45 -47 -55 -30 -9 -47 -22 -70 -58 -17 -26 -35 -46 -41
-46 -43 2 -62 -7 -104 -49 -45 -45 -48 -52 -54 -115 -3 -38 -11 -76 -16 -86
-5 -10 -13 -46 -17 -80 -4 -41 -11 -62 -20 -62 -18 0 -44 -40 -44 -68 0 -13
13 -37 29 -53 17 -16 32 -38 36 -48 9 -31 32 -44 76 -44 30 0 47 7 69 28 17
16 32 36 35 46 3 9 20 20 39 23 18 4 42 16 52 27 18 20 47 35 114 59 67 25 97
55 115 117 9 32 20 72 25 88 5 17 17 68 26 115 20 94 40 136 75 154 12 6 37
35 54 64 17 29 44 61 60 71 17 10 36 25 44 34 7 10 22 17 33 17 11 0 33 14 50
30 24 25 29 37 25 63 -9 57 -35 139 -51 156 -10 11 -12 21 -6 31 13 21 12 74
-2 105 -29 63 64 265 122 265 9 0 20 4 26 10 9 9 43 18 77 19 27 1 67 46 67
75 0 39 -38 74 -90 81 -50 7 -137 71 -177 130 -25 38 -23 85 8 147 27 53 24
80 -16 155 -53 99 -46 176 21 246 73 76 84 95 84 151 0 36 8 66 28 102 68 128
96 153 190 169 31 5 48 15 64 38 27 39 48 56 69 57 9 0 24 9 34 20 10 11 50
29 89 41 110 32 106 19 106 313 0 205 -3 255 -15 273 -15 22 -46 31 -80 25z"/>
<path d="M9495 10990 c-33 -11 -67 -29 -77 -40 -9 -11 -21 -20 -27 -20 -6 0
-28 -9 -48 -20 -36 -19 -38 -19 -58 -1 -24 22 -100 40 -147 35 -22 -3 -42 3
-61 17 -40 29 -96 28 -120 -2 -20 -25 -20 -25 3 -179 11 -80 24 -159 51 -315
11 -66 24 -151 29 -190 4 -38 12 -84 18 -101 5 -17 13 -63 17 -102 9 -90 28
-117 100 -137 29 -9 57 -15 61 -14 9 2 65 -20 111 -43 35 -18 86 -12 105 12
17 21 18 102 2 239 -6 53 3 89 44 166 9 16 21 52 28 80 22 89 39 124 85 174
90 100 98 111 109 149 9 29 9 54 0 103 -6 35 -14 88 -19 117 -4 29 -14 59 -22
67 -25 25 -116 27 -184 5z"/>
<path d="M6042 10563 c-28 -6 -54 -44 -51 -75 2 -13 -2 -32 -8 -43 -6 -11 -10
-61 -9 -112 2 -110 11 -124 92 -142 67 -15 72 -25 81 -154 5 -78 10 -94 33
-121 34 -39 50 -69 50 -94 0 -35 32 -61 83 -67 69 -7 133 11 158 46 11 16 27
29 35 29 7 0 28 19 45 43 l31 42 -4 125 c-5 128 -20 197 -71 312 -34 78 -61
91 -152 75 l-40 -8 -30 56 c-16 31 -35 61 -42 67 -7 5 -38 12 -70 14 -32 2
-69 5 -83 8 -14 2 -35 1 -48 -1z"/>
<path d="M6742 10302 c-33 -5 -50 -38 -58 -113 -7 -70 5 -128 31 -149 19 -16
81 -15 100 0 18 15 55 135 55 177 0 17 -8 40 -17 51 -20 23 -75 40 -111 34z"/>
<path d="M7089 10276 c-2 -2 -24 -7 -48 -11 -62 -9 -88 -21 -105 -47 -26 -41
-44 -140 -45 -250 l0 -107 35 -43 c20 -24 43 -50 50 -58 8 -8 22 -25 32 -38
14 -18 30 -23 86 -28 39 -2 76 -9 83 -15 17 -15 80 -14 98 1 26 22 33 75 39
311 6 219 5 238 -12 259 -18 22 -56 28 -137 20 -17 -2 -39 0 -51 4 -11 3 -22
4 -25 2z"/>
<path d="M5925 8822 c-23 -5 -101 -57 -111 -74 -24 -38 -61 -446 -46 -500 8
-30 6 -41 -9 -64 -41 -63 -13 -136 53 -136 73 0 115 51 103 127 -3 24 -2 46 4
49 16 10 44 113 39 145 -5 35 -2 37 22 16 19 -17 90 -26 129 -16 41 11 71 65
71 126 0 66 -21 94 -72 99 -63 5 -84 38 -53 80 21 27 19 99 -2 125 -18 22 -85
34 -128 23z"/>
<path d="M6392 8232 c-30 -5 -53 -42 -52 -83 1 -19 -2 -46 -6 -61 -4 -18 -1
-36 9 -52 13 -19 14 -30 5 -54 -13 -34 -2 -149 27 -287 10 -49 14 -99 11 -130
-17 -141 -17 -162 2 -185 18 -23 18 -24 -6 -68 -23 -40 -25 -55 -24 -146 1
-56 1 -142 1 -192 0 -73 4 -95 18 -113 38 -46 143 -18 169 46 12 28 14 58 8
139 l-7 104 27 21 c35 28 53 65 62 127 5 39 3 58 -9 76 -15 22 -14 26 4 60 10
20 19 51 19 69 0 31 2 33 35 34 20 1 43 7 51 14 28 23 46 71 42 110 -2 27 0
39 9 39 25 0 42 44 41 105 -1 68 6 103 33 161 46 98 18 134 -121 151 -29 3
-55 14 -72 31 -23 21 -37 26 -87 26 -34 0 -66 -6 -75 -13 -14 -11 -16 -11 -16
6 0 45 -43 73 -98 65z"/>
<path d="M9924 7962 c-11 -2 -38 -21 -59 -42 -22 -22 -47 -40 -57 -40 -38 0
-63 -70 -53 -147 6 -47 13 -61 48 -97 23 -22 56 -58 73 -79 25 -33 35 -39 69
-39 70 0 75 16 75 221 0 139 -3 181 -15 198 -15 21 -45 31 -81 25z"/>
<path d="M4950 7250 c-41 -10 -72 -66 -69 -125 2 -27 -2 -60 -9 -72 -15 -27
-15 -58 -1 -84 8 -15 6 -25 -10 -46 -12 -14 -21 -36 -21 -49 0 -12 -8 -36 -17
-52 -15 -26 -16 -36 -5 -64 6 -19 12 -54 12 -78 0 -23 5 -60 12 -81 9 -31 8
-48 -2 -79 -15 -47 -2 -89 30 -97 18 -5 18 -7 5 -26 -24 -34 -19 -120 10 -177
30 -58 36 -63 88 -63 45 0 77 28 77 67 0 11 7 29 15 40 8 11 14 40 14 71 -1
33 5 62 16 78 10 16 16 41 14 64 -1 21 3 48 9 60 17 32 15 57 -9 87 l-20 26
20 0 c32 0 54 43 47 87 -4 21 -6 60 -6 86 1 54 -20 97 -49 97 -27 0 -32 10
-16 34 8 11 15 30 15 41 0 29 -28 65 -50 65 -14 0 -17 5 -13 23 4 12 12 31 20
42 20 29 16 60 -12 93 -27 32 -55 42 -95 32z"/>
<path d="M6342 6742 c-28 -4 -55 -43 -51 -74 2 -13 -4 -34 -14 -48 -22 -32
-22 -92 1 -120 27 -33 89 -31 119 5 24 27 29 60 14 84 -7 10 -3 23 10 39 47
60 1 126 -79 114z"/>
<path d="M10043 6483 c-13 -3 -31 -14 -40 -26 -22 -28 -90 -70 -118 -74 -11
-2 -29 -7 -40 -12 -63 -29 -79 -30 -155 -11 -71 18 -101 15 -122 -11 -24 -28
-23 -60 2 -92 11 -14 25 -48 30 -76 10 -54 42 -125 61 -137 35 -21 266 -1 293
26 5 5 18 10 27 10 24 0 69 56 69 85 0 22 20 79 41 115 38 65 59 113 59 134 0
47 -50 79 -107 69z"/>
<path d="M9650 5901 c-14 -4 -31 -20 -39 -36 -8 -17 -20 -41 -26 -55 -32 -66
-25 -229 11 -259 11 -9 18 -26 16 -38 -2 -12 1 -30 6 -39 6 -12 5 -25 -6 -43
-30 -53 15 -187 68 -202 15 -4 18 -7 8 -8 -62 -4 -65 -182 -4 -240 25 -23 45
-26 135 -17 61 6 96 31 110 80 9 30 9 30 10 5 2 -42 31 -71 73 -71 47 0 51 3
83 57 29 51 56 184 75 379 10 102 9 120 -4 141 -9 13 -24 26 -34 29 -10 4 -26
22 -35 41 -9 20 -24 38 -33 42 -20 8 -60 47 -75 74 -6 11 -26 27 -44 35 -18 7
-49 32 -68 55 -20 23 -49 48 -64 56 -31 16 -124 24 -163 14z"/>
<path d="M6438 3945 c-3 -4 -43 -8 -89 -10 -76 -2 -85 -5 -106 -29 -30 -36
-29 -70 6 -158 48 -124 81 -225 81 -255 1 -43 41 -117 66 -121 19 -3 20 -6 10
-43 -13 -48 6 -92 42 -97 12 -2 22 -8 22 -13 0 -5 16 -26 35 -48 19 -21 35
-44 35 -50 0 -27 43 -93 67 -102 43 -16 222 -38 251 -30 37 10 59 51 47 88
-11 31 -66 72 -107 80 -15 3 -33 12 -39 19 -6 8 -19 14 -28 14 -25 0 -54 108
-48 173 8 83 36 188 57 215 43 53 18 136 -75 252 -46 56 -66 72 -99 82 -22 6
-45 15 -51 19 -15 10 -70 20 -77 14z"/>
</g>
</svg>
