<?xml version="1.0" standalone="no"?>
<!DOCTYPE svg PUBLIC "-//W3C//DTD SVG 20010904//EN"
 "http://www.w3.org/TR/2001/REC-SVG-20010904/DTD/svg10.dtd">
<svg version="1.0" xmlns="http://www.w3.org/2000/svg"
 width="1500.000000pt" height="2098.000000pt" viewBox="0 0 1500.000000 2098.000000"
 preserveAspectRatio="xMidYMid meet">
<metadata>
Created by potrace 1.16, written by Peter Selinger 2001-2019
</metadata>
<g transform="translate(0.000000,2098.000000) scale(0.100000,-0.100000)"
fill="none" stroke="grey" stroke-width="2">
<path d="M0 10490 l0 -10490 7500 0 7500 0 0 10490 0 10490 -7500 0 -7500 0 0
-10490z m6995 7787 c33 -3 83 -12 110 -21 32 -10 60 -13 77 -9 15 5 103 4 197
-1 133 -7 218 -5 393 8 366 27 461 36 505 46 87 21 100 16 132 -47 30 -57 99
-136 159 -181 19 -14 36 -38 42 -60 6 -20 32 -61 58 -90 39 -43 54 -53 85 -56
21 -2 43 -8 50 -15 6 -6 16 -11 23 -11 21 0 236 -70 299 -97 127 -55 168 -77
189 -100 12 -12 35 -24 52 -26 16 -2 36 -7 43 -11 7 -5 34 -10 61 -11 27 -2
70 -15 97 -29 26 -14 54 -26 61 -26 17 0 150 -112 151 -127 1 -7 -14 -12 -41
-11 -47 0 -78 -26 -78 -67 0 -80 124 -93 152 -16 2 5 16 7 31 4 18 -4 48 -28
85 -71 31 -35 113 -128 182 -205 155 -173 250 -285 250 -293 0 -19 73 -114 88
-114 9 0 24 -4 32 -10 12 -8 12 -11 -2 -27 -8 -10 -23 -34 -33 -53 -9 -19 -43
-62 -75 -95 -34 -36 -79 -100 -112 -160 -30 -55 -76 -138 -102 -185 -26 -47
-70 -126 -98 -176 -48 -88 -52 -92 -90 -98 -22 -4 -50 -12 -62 -18 -11 -7 -25
-11 -31 -9 -5 1 -26 3 -45 3 -65 0 -94 -79 -46 -127 24 -24 24 -24 2 -27 -13
-2 -28 -17 -39 -41 -17 -34 -18 -45 -6 -148 15 -134 26 -152 92 -153 38 -1 46
-4 41 -16 -15 -34 -33 -282 -23 -308 9 -23 7 -29 -11 -42 -51 -34 -70 -60 -70
-90 0 -45 26 -99 52 -110 48 -20 55 -34 74 -142 15 -93 16 -112 4 -148 -12
-37 -12 -45 4 -74 17 -31 16 -34 -8 -92 -14 -32 -64 -153 -112 -269 -83 -201
-148 -347 -200 -446 -13 -26 -24 -53 -24 -61 0 -13 -29 -87 -129 -333 -23 -55
-53 -145 -67 -199 -14 -55 -30 -109 -36 -120 -7 -13 -10 -136 -9 -371 2 -256
-1 -359 -10 -378 -14 -30 1 -215 28 -350 18 -95 14 -102 -64 -103 -72 -1 -93
-23 -93 -99 0 -69 21 -96 77 -99 23 -1 50 -10 61 -19 10 -9 23 -17 29 -17 9 0
20 -31 57 -159 9 -29 16 -73 16 -97 0 -24 4 -53 9 -66 9 -24 18 -74 51 -283
11 -71 29 -175 40 -230 10 -55 21 -111 24 -125 2 -14 18 -92 36 -174 25 -117
29 -155 21 -173 -27 -60 0 -208 50 -277 23 -31 27 -78 15 -181 -10 -83 -15
-95 -36 -95 -33 0 -49 -39 -49 -117 0 -99 20 -121 107 -115 15 1 32 17 51 48
l29 45 11 -53 c15 -68 31 -160 41 -223 4 -27 14 -75 23 -105 8 -30 20 -91 27
-135 6 -44 17 -99 24 -122 7 -24 9 -47 5 -55 -15 -22 -10 -54 12 -82 14 -18
21 -41 21 -72 0 -26 9 -67 20 -93 13 -30 20 -72 21 -123 2 -43 8 -83 14 -89 9
-9 7 -18 -7 -37 -11 -14 -20 -34 -20 -46 0 -27 27 -66 45 -66 19 0 28 -51 27
-149 -1 -65 4 -92 19 -120 10 -19 19 -47 19 -61 0 -15 9 -73 19 -131 11 -57
22 -147 26 -199 3 -52 10 -106 15 -120 5 -14 14 -68 20 -120 6 -52 17 -153 25
-225 8 -71 20 -161 25 -200 9 -64 24 -200 51 -460 5 -55 16 -154 25 -220 8
-66 19 -190 24 -275 5 -85 12 -175 15 -200 3 -25 8 -139 11 -255 4 -190 27
-570 53 -890 6 -66 15 -257 21 -425 6 -168 15 -359 20 -425 5 -66 14 -199 20
-295 6 -96 20 -274 30 -395 10 -121 24 -317 30 -435 14 -267 24 -404 46 -641
l17 -187 -23 -37 c-38 -62 -89 -69 -213 -30 -43 14 -88 25 -100 25 -12 0 -76
-14 -142 -31 -143 -38 -334 -48 -445 -25 -121 26 -235 29 -298 10 -70 -21 -78
-28 -103 -76 -24 -47 -43 -117 -79 -290 -16 -76 -35 -148 -42 -162 -23 -42
-84 -100 -129 -123 -37 -19 -52 -21 -99 -15 -75 11 -125 37 -174 90 -52 56
-68 84 -90 152 -21 67 -51 143 -109 275 -39 89 -50 106 -105 152 -44 38 -79
57 -127 72 -88 27 -145 26 -230 -5 -301 -110 -279 -109 -563 -6 -69 25 -89 29
-115 20 -18 -5 -43 -11 -57 -13 -93 -11 -171 -27 -202 -40 -46 -18 -89 -97
-88 -159 0 -60 -19 -218 -29 -242 -5 -12 -13 -42 -16 -68 -6 -37 -14 -52 -44
-74 -98 -76 -205 -83 -324 -22 -22 11 -45 20 -52 20 -7 0 -18 7 -26 16 -21 25
-138 80 -211 98 -37 9 -109 21 -160 26 -160 17 -183 28 -333 153 -101 85 -151
116 -204 129 -89 20 -166 -22 -271 -149 -28 -34 -64 -69 -81 -77 -49 -24 -133
-39 -183 -32 -25 4 -48 7 -51 6 -8 -1 -217 110 -235 125 -23 19 -107 61 -191
95 -79 32 -123 69 -155 130 -18 33 -19 71 -19 710 0 652 6 853 44 1610 8 152
47 550 101 1040 27 245 35 331 70 795 18 239 39 478 46 515 3 19 10 89 14 155
17 229 29 370 40 430 5 33 17 114 25 180 9 66 19 138 24 160 6 22 15 101 21
175 7 74 18 162 25 195 17 78 41 227 55 340 26 220 32 266 45 355 8 52 19 127
24 165 6 39 22 126 36 195 15 69 30 150 35 180 8 56 36 194 70 350 11 47 31
148 46 225 15 77 32 149 39 160 7 11 18 65 24 121 6 55 20 129 31 165 11 35
20 75 20 88 0 13 13 83 30 157 24 107 35 138 56 159 22 22 26 33 22 63 -12 84
57 384 142 627 15 44 30 91 33 105 3 14 17 70 31 125 34 127 56 233 56 265 0
14 9 42 20 63 12 23 20 53 19 76 -2 20 0 42 4 47 3 6 11 57 17 115 5 57 13
124 16 149 6 43 3 49 -36 99 l-43 54 7 121 c4 67 12 150 18 185 6 36 8 98 4
139 -3 45 -2 90 5 111 6 20 15 51 21 69 15 50 -29 229 -67 272 -35 40 -225
619 -225 687 0 50 -20 93 -44 93 -7 0 -20 18 -29 40 -14 38 -14 40 3 40 54 0
72 96 53 296 l-8 91 -60 62 c-63 64 -105 84 -157 74 -16 -3 -35 -14 -42 -25
-13 -19 -14 -18 -21 14 -4 18 -16 59 -27 91 l-20 58 21 104 c12 57 21 113 21
124 0 24 2 24 52 11 53 -15 167 4 191 31 37 45 10 115 -48 122 -23 3 -31 10
-37 34 -11 41 -30 55 -77 56 -38 2 -40 3 -46 43 -3 23 -8 108 -10 190 -3 82
-12 187 -20 234 -17 88 -40 232 -54 335 -5 33 -13 74 -19 90 -6 17 -16 47 -22
69 -15 48 -70 148 -157 286 -103 165 -138 222 -166 270 -14 25 -55 79 -91 120
-36 41 -66 78 -66 81 0 3 34 39 76 80 41 41 94 100 116 131 46 65 55 70 100
57 55 -15 94 -2 128 44 16 23 30 48 30 56 0 29 131 217 218 312 31 33 86 76
143 109 52 31 99 67 108 82 10 18 38 36 81 54 36 15 82 38 102 51 46 28 133
63 173 68 32 5 132 42 151 57 6 4 34 15 61 23 29 9 60 27 76 45 15 16 35 30
45 31 127 5 168 31 390 257 l194 198 107 -12 c58 -7 133 -14 166 -17z m-1759
-4163 c-3 -9 -6 -33 -6 -55 0 -49 -12 -50 -29 -3 -11 31 -11 38 5 55 21 23 38
25 30 3z"/>
<path d="M7685 17753 c-11 -3 -26 -10 -33 -16 -19 -15 -52 -83 -52 -105 0 -33
32 -62 72 -66 21 -2 43 -8 50 -14 14 -11 47 -16 85 -14 36 3 56 43 47 97 -8
59 -43 101 -90 109 -19 4 -41 9 -47 10 -7 2 -21 1 -32 -1z"/>
<path d="M7120 17722 c-28 -8 -70 -81 -70 -122 0 -33 26 -70 50 -70 10 0 21
-4 24 -9 12 -19 76 -21 143 -5 73 18 103 41 103 81 0 28 -32 94 -55 113 -18
15 -155 23 -195 12z"/>
<path d="M5713 17622 c-29 -4 -73 -57 -73 -87 0 -39 31 -61 125 -89 103 -30
144 -28 175 12 42 53 13 111 -58 116 -23 2 -54 11 -68 21 -33 21 -72 32 -101
27z"/>
<path d="M7613 17552 c-27 -4 -53 -38 -53 -69 0 -12 10 -34 23 -48 30 -36 92
-38 119 -5 47 58 -8 134 -89 122z"/>
<path d="M6420 17510 c-32 -8 -55 -49 -46 -81 3 -13 21 -41 39 -62 28 -33 40
-39 72 -39 49 0 75 29 75 83 0 70 -67 118 -140 99z"/>
<path d="M8925 17478 c-17 -5 -46 -11 -65 -14 -53 -7 -73 -37 -66 -99 11 -85
57 -123 133 -109 67 13 126 142 90 198 -18 27 -50 36 -92 24z"/>
<path d="M5205 17102 c-11 -2 -34 -19 -52 -38 -20 -21 -49 -38 -79 -46 -70
-19 -77 -35 -63 -158 14 -122 32 -152 92 -152 37 0 78 25 157 97 19 18 45 35
57 37 18 5 22 0 28 -38 9 -65 32 -87 90 -87 38 0 52 4 67 22 54 68 -10 161
-104 152 -12 -2 -18 5 -18 19 0 27 -23 72 -71 136 -37 50 -62 64 -104 56z"/>
<path d="M8682 17083 c-29 -6 -82 -78 -82 -112 0 -15 6 -36 14 -47 13 -18 12
-20 -12 -22 -16 -1 -40 -16 -60 -37 -18 -20 -44 -40 -58 -45 -37 -15 -50 -51
-35 -102 24 -81 45 -119 74 -140 34 -24 99 -28 125 -6 24 20 72 39 83 33 4 -3
28 -1 51 5 42 12 103 1 135 -23 24 -18 86 -10 105 13 23 29 23 91 1 119 -17
20 -84 34 -164 34 -20 0 -33 10 -53 41 -29 43 -29 46 -10 196 4 36 2 50 -13
67 -19 22 -62 34 -101 26z"/>
<path d="M9813 17082 c-34 -5 -53 -40 -53 -98 0 -68 22 -96 75 -96 53 0 85 36
85 96 0 70 -42 108 -107 98z"/>
<path d="M7324 16662 c-12 -2 -37 -18 -57 -36 -59 -54 -62 -117 -7 -156 33
-24 92 -29 114 -11 16 14 46 100 46 133 0 49 -41 79 -96 70z"/>
<path d="M9273 16583 c-12 -2 -36 -17 -53 -33 -51 -47 -36 -99 37 -132 65 -29
112 -26 140 7 28 32 29 60 3 102 -27 44 -75 65 -127 56z"/>
<path d="M7085 16473 c-11 -3 -39 -25 -63 -49 -23 -24 -49 -44 -57 -44 -17 0
-45 -38 -45 -63 0 -10 13 -46 29 -80 52 -111 54 -131 26 -236 -29 -107 -30
-129 -10 -157 46 -67 185 -14 185 70 0 25 4 36 15 36 23 0 49 48 56 104 4 28
12 78 19 111 8 39 10 92 5 152 -8 107 -24 136 -83 153 -39 10 -45 11 -77 3z"/>
<path d="M8423 16372 c-30 -4 -63 -48 -63 -82 0 -70 90 -100 137 -45 54 63 9
140 -74 127z"/>
<path d="M5493 16353 c-27 -5 -53 -39 -53 -68 0 -39 37 -83 75 -91 19 -3 56
-22 81 -41 44 -34 95 -46 124 -28 16 10 50 91 50 119 0 37 -27 64 -71 71 -22
4 -65 16 -94 26 -54 19 -69 20 -112 12z"/>
<path d="M7873 16313 c-49 -9 -68 -73 -35 -114 15 -18 29 -22 67 -22 38 0 52
4 67 22 49 62 -12 131 -99 114z"/>
<path d="M9386 16265 c-62 -17 -74 -29 -91 -94 -16 -63 -70 -116 -127 -126
-46 -8 -84 -50 -93 -103 -4 -25 -13 -41 -28 -47 -48 -21 -47 -107 2 -131 44
-22 46 -31 16 -73 -22 -33 -26 -47 -21 -75 10 -54 35 -78 81 -78 40 0 75 27
75 58 0 17 22 18 37 3 6 -6 28 -11 49 -11 63 0 94 59 58 110 -8 12 -21 22 -29
22 -17 0 -84 36 -105 56 -13 12 -11 18 13 42 26 25 33 27 120 28 140 2 136 1
157 37 34 55 22 119 -26 137 -19 8 -24 17 -24 45 0 28 5 37 24 45 70 26 59
148 -14 163 -14 3 -47 -1 -74 -8z"/>
<path d="M6225 16072 c-11 -2 -39 -25 -62 -49 -33 -36 -46 -44 -63 -38 -36 12
-157 -24 -180 -52 -23 -30 -24 -52 -9 -138 10 -50 9 -77 -4 -149 -18 -95 -35
-125 -87 -155 -19 -11 -51 -39 -71 -63 -25 -29 -53 -49 -89 -63 -29 -11 -59
-30 -67 -42 -20 -29 -9 -95 21 -130 19 -22 30 -26 75 -24 46 1 58 -3 89 -30
19 -17 45 -35 57 -41 19 -9 22 -16 18 -52 -9 -80 61 -115 148 -73 59 28 67 46
86 190 4 38 9 47 25 47 27 0 78 54 78 82 0 13 -7 33 -15 45 -14 21 -14 26 11
75 15 29 38 66 52 83 30 36 59 100 78 174 13 49 13 62 -5 148 -19 88 -19 96
-4 144 15 45 15 54 2 77 -15 27 -50 41 -84 34z"/>
<path d="M6492 15700 c-26 -6 -73 -64 -97 -120 -9 -19 -22 -47 -30 -62 -25
-44 -19 -86 16 -121 34 -33 37 -51 54 -262 6 -79 6 -75 -1 -116 -4 -22 1 -55
11 -85 19 -55 23 -170 7 -200 -5 -10 -13 -48 -17 -84 -9 -83 9 -112 69 -112
21 0 43 5 48 10 6 6 21 7 39 2 34 -10 141 -6 160 6 30 18 169 20 201 3 36 -19
84 -13 122 16 19 15 38 34 41 43 3 10 16 22 30 29 22 10 27 8 37 -10 6 -12 11
-36 9 -53 -4 -47 34 -86 82 -86 32 0 46 8 86 49 27 26 57 53 67 59 10 6 26 22
33 36 13 23 13 32 1 69 -29 86 -49 96 -165 85 -52 -5 -64 -11 -89 -39 -22 -24
-30 -29 -34 -17 -21 57 -156 118 -233 105 -21 -4 -42 -11 -45 -16 -3 -5 -15 2
-26 16 -10 14 -25 25 -31 25 -7 0 -32 11 -57 23 -45 22 -46 22 -37 60 5 20 15
37 23 37 23 0 46 46 43 87 -1 21 2 51 6 66 11 40 -8 74 -50 94 -20 10 -56 35
-80 58 -43 40 -43 40 -28 70 9 17 24 41 34 54 11 13 19 32 19 43 0 24 -74 152
-98 170 -9 7 -25 25 -34 39 -18 28 -48 39 -86 29z"/>
<path d="M9132 15492 c-23 -4 -62 -54 -62 -81 0 -8 -7 -22 -16 -32 -16 -18
-23 -41 -50 -162 -14 -63 -14 -72 2 -113 10 -26 31 -56 50 -71 41 -30 47 -49
48 -135 1 -97 42 -143 114 -130 29 6 62 57 62 95 0 16 9 40 20 54 11 14 20 37
20 50 0 28 -41 73 -67 73 -26 0 -57 58 -60 110 -1 25 -5 64 -8 87 -6 33 -3 47
12 66 10 14 25 44 33 67 13 39 12 45 -6 78 -19 37 -49 51 -92 44z"/>
<path d="M7523 15382 c-48 -7 -68 -72 -35 -112 39 -48 132 -17 132 44 0 48
-41 76 -97 68z"/>
<path d="M5420 15291 c-16 -5 -35 -24 -52 -56 -23 -41 -27 -58 -23 -98 6 -51
-2 -74 -46 -125 -32 -36 -36 -67 -14 -99 30 -43 113 -34 158 17 15 17 34 30
43 30 8 0 26 11 39 25 19 18 25 35 25 69 0 76 -22 196 -39 215 -19 22 -56 31
-91 22z"/>
<path d="M8076 14839 c-50 -14 -96 -71 -96 -121 0 -27 104 -128 133 -128 25 0
17 -22 -14 -37 -59 -30 -67 -98 -18 -144 17 -16 41 -30 53 -30 35 -2 60 2 72
12 14 11 44 99 44 126 0 28 -28 63 -51 63 -23 0 -24 8 -4 34 8 11 15 31 15 45
0 14 9 40 20 56 41 62 15 111 -64 121 -28 3 -52 7 -55 8 -3 2 -19 0 -35 -5z
m91 -255 c-3 -3 -12 -4 -19 -1 -8 3 -5 6 6 6 11 1 17 -2 13 -5z"/>
<path d="M9042 14450 c-13 -3 -36 -23 -50 -44 -17 -24 -40 -44 -61 -51 -89
-29 -80 -126 13 -140 64 -10 121 3 154 33 24 22 30 38 35 91 10 92 -20 129
-91 111z"/>
<path d="M7912 14403 c-13 -3 -31 -17 -40 -31 -9 -15 -28 -28 -42 -30 -38 -5
-69 -29 -76 -59 -6 -21 2 -45 29 -98 20 -38 40 -84 46 -102 10 -33 2 -117 -18
-183 -27 -88 -2 -143 65 -143 22 0 50 6 63 12 26 14 61 68 61 94 0 10 11 22
24 27 14 5 29 17 34 27 28 55 33 389 6 430 -25 39 -99 66 -152 56z"/>
<path d="M5480 13878 c-40 -10 -80 -50 -80 -79 0 -61 76 -132 142 -132 44 0
78 27 78 62 0 21 -36 119 -50 136 -15 18 -49 23 -90 13z"/>
<path d="M7329 13806 c-3 -3 -34 -7 -69 -10 -57 -4 -68 -8 -92 -35 -52 -58
-31 -108 57 -136 82 -25 129 -14 172 43 37 49 41 80 16 110 -17 20 -74 38 -84
28z"/>
<path d="M8753 13133 c-33 -6 -47 -30 -55 -97 -4 -34 -10 -75 -13 -91 -8 -39
22 -80 66 -89 28 -5 62 -19 166 -69 45 -21 86 -11 121 30 18 21 35 48 38 61
10 36 -12 72 -54 88 -20 9 -45 28 -53 43 -10 18 -28 30 -47 34 -21 4 -36 16
-47 36 -21 42 -70 63 -122 54z"/>
<path d="M7701 12855 c-64 -15 -81 -47 -81 -150 0 -56 5 -87 15 -102 16 -23
87 -48 111 -39 7 3 16 1 19 -3 16 -26 117 -14 145 17 8 9 32 23 53 30 33 12
41 12 55 -1 17 -15 86 -33 110 -29 6 2 12 -5 12 -15 0 -30 27 -60 59 -66 38
-8 169 33 188 59 27 37 5 96 -43 114 -16 7 -24 17 -24 34 0 33 -30 66 -60 67
-51 1 -144 -11 -177 -23 -27 -10 -38 -10 -51 0 -49 35 -128 46 -157 22 -13
-11 -15 -9 -15 13 0 58 -77 93 -159 72z"/>
<path d="M7810 12503 c-103 -5 -179 -23 -195 -47 -25 -34 -18 -66 22 -104 36
-33 37 -38 37 -101 0 -36 -4 -89 -8 -116 -11 -66 11 -97 69 -97 32 0 44 6 71
39 30 35 42 64 73 178 6 22 31 67 56 100 49 65 55 91 28 123 -20 24 -59 30
-153 25z"/>
<path d="M8340 12446 c-112 -29 -82 -149 37 -149 38 0 50 5 70 27 27 32 30 76
6 104 -24 27 -58 32 -113 18z"/>
<path d="M7673 11892 c-36 -5 -73 -58 -73 -101 0 -21 -3 -58 -6 -82 -13 -98
64 -121 191 -55 39 19 75 36 82 36 17 0 43 41 43 67 0 37 -53 88 -112 107 -84
28 -102 32 -125 28z"/>
<path d="M6310 11760 c-23 -5 -39 -26 -81 -107 -18 -33 -3 -71 37 -95 24 -14
44 -39 62 -77 20 -40 34 -57 52 -61 40 -10 74 4 90 36 8 16 23 40 33 54 13 18
17 45 17 105 0 104 -10 118 -92 134 -92 18 -91 18 -118 11z"/>
<path d="M8832 11073 c-12 -3 -30 -16 -39 -29 -15 -23 -15 -40 -4 -177 7 -93
17 -160 26 -173 17 -26 56 -35 101 -22 45 12 64 42 64 103 0 27 7 75 16 105
29 96 29 133 2 165 -21 23 -32 28 -83 30 -33 1 -70 0 -83 -2z"/>
<path d="M7592 10332 c-41 -6 -55 -43 -47 -127 8 -91 25 -117 77 -117 20 0 41
3 46 6 20 12 72 117 72 144 0 35 -25 72 -50 72 -10 0 -21 4 -24 9 -7 11 -44
17 -74 13z"/>
<path d="M8903 10302 c-30 -4 -63 -48 -63 -81 0 -28 25 -71 41 -71 5 0 22 -14
37 -31 35 -40 96 -44 124 -9 57 70 -43 207 -139 192z"/>
<path d="M8943 9863 c-50 -10 -63 -70 -44 -202 5 -37 15 -60 29 -72 12 -9 22
-24 22 -32 0 -8 8 -25 18 -37 24 -30 89 -31 113 -1 10 12 24 21 33 21 24 0 46
41 46 87 0 35 -7 51 -43 95 -23 29 -49 67 -56 85 -7 18 -18 36 -25 42 -15 12
-65 20 -93 14z"/>
<path d="M8110 8360 c-28 -7 -69 -61 -77 -102 -3 -14 -13 -29 -22 -31 -9 -3
-29 -13 -46 -23 -48 -27 -60 -32 -99 -39 -64 -13 -85 -71 -43 -121 19 -22 31
-26 65 -25 52 3 88 3 149 0 62 -3 83 22 83 97 0 47 3 54 19 54 48 0 89 116 58
164 -17 26 -49 35 -87 26z"/>
<path d="M6162 8302 c-26 -4 -62 -55 -62 -89 0 -28 39 -71 65 -74 50 -4 66 2
85 34 25 41 25 68 0 99 -20 27 -48 36 -88 30z"/>
<path d="M6223 7383 c-32 -6 -63 -50 -63 -88 0 -49 28 -78 77 -78 22 0 46 4
53 8 15 9 40 68 40 94 0 42 -53 74 -107 64z"/>
</g>
</svg>
