<?xml version="1.0" standalone="no"?>
<!DOCTYPE svg PUBLIC "-//W3C//DTD SVG 20010904//EN"
 "http://www.w3.org/TR/2001/REC-SVG-20010904/DTD/svg10.dtd">
<svg version="1.0" xmlns="http://www.w3.org/2000/svg"
 width="1500.000000pt" height="2098.000000pt" viewBox="0 0 1500.000000 2098.000000"
 preserveAspectRatio="xMidYMid meet">
<metadata>
Created by potrace 1.16, written by Peter Selinger 2001-2019
</metadata>
<g transform="translate(0.000000,2098.000000) scale(0.100000,-0.100000)"
fill="none" stroke="grey" stroke-width="2">
<path d="M0 10490 l0 -10490 7500 0 7500 0 0 10490 0 10490 -7500 0 -7500 0 0
-10490z m6213 7750 c125 -74 431 -207 571 -246 66 -19 181 -45 257 -58 75 -14
160 -32 188 -42 32 -10 69 -15 96 -12 29 4 48 1 57 -8 15 -16 13 -16 203 -10
255 8 477 67 695 183 84 45 223 138 277 187 26 23 55 45 63 48 15 5 85 -21
198 -73 35 -16 68 -29 74 -29 6 0 25 -9 42 -19 68 -42 372 -149 441 -155 62
-6 83 -21 91 -62 9 -50 -2 -170 -21 -224 -27 -77 -117 -412 -131 -485 -38
-214 -66 -641 -46 -720 6 -22 56 -139 112 -260 56 -121 121 -263 145 -315 143
-312 174 -377 237 -492 l70 -127 -17 -98 c-9 -54 -18 -100 -20 -103 -8 -13
-35 -165 -45 -251 -5 -51 -17 -141 -25 -199 -18 -122 -68 -562 -90 -795 -9
-88 -22 -218 -30 -290 -20 -172 -19 -252 4 -425 11 -80 29 -230 41 -335 37
-345 151 -1416 175 -1655 29 -283 100 -968 115 -1100 5 -52 17 -165 25 -250 8
-85 26 -265 39 -400 24 -231 46 -464 81 -835 35 -372 100 -1244 135 -1795 18
-292 46 -707 71 -1045 34 -481 51 -727 69 -1010 33 -531 40 -635 70 -1010 16
-198 32 -403 35 -455 3 -52 13 -176 20 -275 14 -177 25 -351 46 -730 32 -563
24 -612 -108 -742 -84 -83 -172 -130 -349 -188 -60 -20 -118 -40 -129 -45 -11
-5 -36 -12 -55 -16 -19 -4 -45 -13 -57 -21 -28 -19 -159 -56 -241 -69 -20 -3
-41 -8 -46 -11 -37 -23 -211 -39 -407 -36 -125 1 -163 6 -275 33 -71 17 -151
40 -179 50 -27 11 -114 38 -191 60 -130 37 -259 94 -305 135 -8 8 -19 15 -24
15 -4 0 -41 20 -82 45 -40 25 -76 45 -78 45 -7 0 -99 63 -143 98 -23 19 -60
56 -82 82 l-39 47 -16 159 c-8 87 -19 263 -25 389 -6 127 -15 282 -20 345 -5
63 -14 221 -20 350 -5 129 -14 300 -20 380 -5 80 -17 332 -26 560 -14 346 -19
421 -33 451 -15 32 -16 39 -3 55 16 22 11 179 -7 213 -6 11 -11 52 -11 91 0
70 -17 131 -40 145 -24 15 -84 7 -100 -12 -10 -13 -24 -79 -39 -179 -12 -87
-26 -177 -31 -199 -5 -22 -12 -76 -15 -120 -4 -44 -11 -96 -16 -117 -5 -20
-14 -94 -19 -165 -5 -70 -16 -184 -24 -253 -8 -69 -17 -195 -21 -280 -4 -85
-13 -236 -21 -335 -8 -99 -19 -245 -24 -325 -6 -80 -17 -185 -25 -235 -20
-116 -33 -291 -45 -590 -21 -504 -19 -486 -48 -529 -27 -40 -182 -181 -217
-197 -11 -6 -60 -37 -110 -69 -207 -138 -305 -165 -559 -156 -186 6 -198 7
-217 22 -8 6 -48 21 -89 33 -87 26 -124 38 -165 56 -16 8 -68 30 -115 50 -47
20 -116 51 -155 70 -93 45 -144 63 -245 87 -76 18 -116 20 -372 19 l-286 -1
-49 33 c-54 38 -71 66 -108 186 -26 83 -26 86 -16 235 6 83 13 192 16 241 3
50 10 146 15 215 6 69 19 240 30 380 11 140 26 336 34 435 8 99 22 275 31 390
8 116 20 257 25 315 5 58 12 148 15 200 3 52 14 219 25 370 11 151 27 392 35
535 9 143 22 361 30 485 8 124 19 299 25 390 16 240 58 782 80 1030 18 198 46
530 70 840 5 69 17 208 25 310 8 102 22 286 30 410 32 468 114 1435 170 1997
40 401 107 968 135 1148 5 33 18 128 29 210 11 83 30 211 41 285 35 226 88
605 115 821 14 112 27 211 30 219 3 8 9 78 15 155 10 138 3 355 -30 925 -16
260 -36 448 -81 725 -10 66 -22 162 -25 214 -4 52 -15 119 -24 150 -17 54 -17
58 0 91 10 19 42 58 70 85 69 67 187 207 231 276 73 111 76 121 98 339 30 302
34 401 21 545 -6 72 -19 265 -30 430 -20 294 -35 460 -65 700 -26 202 -29 263
-16 279 7 8 34 22 59 32 152 54 199 72 307 121 66 30 136 62 155 73 19 10 37
17 40 16 3 -2 44 -27 93 -56z"/>
</g>
</svg>
