<?xml version="1.0" standalone="no"?>
<!DOCTYPE svg PUBLIC "-//W3C//DTD SVG 20010904//EN"
 "http://www.w3.org/TR/2001/REC-SVG-20010904/DTD/svg10.dtd">
<svg version="1.0" xmlns="http://www.w3.org/2000/svg"
 width="1500.000000pt" height="2098.000000pt" viewBox="0 0 1500.000000 2098.000000"
 preserveAspectRatio="xMidYMid meet">
<metadata>
Created by potrace 1.16, written by Peter Selinger 2001-2019
</metadata>
<g transform="translate(0.000000,2098.000000) scale(0.100000,-0.100000)"
fill="none" stroke="grey" stroke-width="2">
<path d="M0 10490 l0 -10490 7500 0 7500 0 0 10490 0 10490 -7500 0 -7500 0 0
-10490z m8627 7802 c48 -27 179 -100 290 -162 186 -103 203 -115 208 -144 4
-17 -1 -92 -9 -166 -28 -247 -40 -658 -26 -909 12 -227 27 -342 80 -591 16
-74 36 -173 45 -220 34 -170 70 -217 210 -266 115 -40 125 -48 125 -100 0 -38
-42 -237 -115 -549 -39 -164 -101 -496 -124 -657 -22 -150 -51 -492 -51 -592
0 -31 -5 -66 -11 -78 -8 -14 -8 -50 1 -126 27 -255 47 -372 140 -797 159 -730
227 -1153 264 -1630 17 -209 51 -803 61 -1060 4 -82 11 -199 16 -260 10 -113
28 -371 54 -765 8 -124 20 -288 25 -365 6 -77 15 -205 20 -285 10 -148 39
-486 65 -755 8 -82 19 -204 25 -270 12 -124 79 -707 104 -900 15 -110 87 -720
126 -1060 29 -255 76 -628 105 -845 38 -282 192 -1507 209 -1665 32 -291 67
-589 101 -845 47 -369 56 -450 50 -460 -3 -4 -29 -14 -57 -20 -29 -7 -60 -18
-68 -25 -8 -7 -38 -18 -67 -25 -29 -6 -58 -18 -64 -27 -7 -8 -31 -23 -53 -34
-45 -20 -294 -83 -394 -99 -92 -15 -263 -73 -382 -128 -30 -15 -77 -32 -105
-38 -27 -7 -79 -19 -115 -28 -85 -22 -171 -39 -190 -38 -33 1 -546 3 -565 2
-153 -8 -406 30 -447 67 -10 9 -28 21 -40 27 -12 6 -34 31 -48 56 -25 43 -30
46 -95 60 l-70 15 -6 40 c-8 46 -34 429 -49 725 -22 421 -41 726 -70 1120 -47
637 -59 816 -75 1105 -16 280 -21 354 -55 740 -17 195 -39 592 -40 716 0 53
-27 81 -75 81 -62 0 -75 -24 -75 -141 0 -53 -5 -154 -10 -226 -6 -71 -17 -263
-25 -425 -13 -279 -47 -715 -80 -1025 -8 -77 -19 -194 -25 -260 -5 -66 -21
-239 -34 -385 -14 -146 -30 -332 -36 -415 -6 -82 -19 -249 -30 -370 -23 -261
-56 -716 -71 -975 -16 -295 -23 -340 -53 -340 -8 0 -19 -6 -25 -14 -6 -7 -30
-16 -52 -20 -23 -4 -51 -12 -63 -18 -11 -7 -59 -22 -106 -34 -47 -12 -150 -38
-230 -59 -80 -20 -164 -43 -188 -51 -23 -8 -77 -21 -120 -30 -42 -9 -95 -22
-117 -31 -94 -34 -262 -72 -330 -75 -54 -1 -138 6 -151 15 -13 7 -176 47 -216
52 -194 25 -313 54 -415 101 -28 13 -57 24 -63 24 -5 0 -18 4 -28 9 -9 5 -48
23 -87 41 -38 17 -78 35 -87 41 -51 27 -66 36 -96 61 -18 16 -36 28 -41 28 -5
0 -48 39 -96 86 -60 60 -102 92 -134 104 -59 23 -59 29 -27 236 14 87 43 294
66 459 22 165 49 363 60 440 11 77 24 174 30 215 5 41 21 158 35 260 28 203
63 480 95 750 21 183 58 468 90 705 36 267 60 441 95 710 37 276 64 469 90
655 9 58 26 188 40 290 13 102 31 232 39 290 9 58 27 213 41 345 14 132 34
303 45 380 22 160 46 386 60 560 5 66 14 154 20 195 10 75 42 420 60 645 19
233 40 593 50 835 17 404 49 1021 65 1245 8 116 19 275 25 355 13 194 38 474
55 640 26 245 55 495 60 515 2 11 14 99 25 195 12 96 37 267 55 380 18 113 43
268 55 345 12 77 38 230 58 340 l37 200 -2 308 c-2 276 -19 533 -39 600 -3 9
-20 27 -38 40 -18 12 -45 36 -58 52 l-26 30 -4 267 c-3 251 -5 269 -24 295
-12 15 -31 30 -44 31 -22 4 -22 4 -18 145 3 78 1 168 -5 200 -9 57 -9 59 19
89 35 37 169 102 267 130 40 11 146 37 237 58 274 64 463 124 703 226 243 103
402 199 574 345 91 78 361 361 498 523 216 255 419 563 515 782 86 194 119
255 153 287 42 39 81 33 194 -31z"/>
</g>
</svg>
