<?xml version="1.0" standalone="no"?>
<!DOCTYPE svg PUBLIC "-//W3C//DTD SVG 20010904//EN"
 "http://www.w3.org/TR/2001/REC-SVG-20010904/DTD/svg10.dtd">
<svg version="1.0" xmlns="http://www.w3.org/2000/svg"
 width="1500.000000pt" height="2098.000000pt" viewBox="0 0 1500.000000 2098.000000"
 preserveAspectRatio="xMidYMid meet">
<metadata>
Created by potrace 1.16, written by Peter Selinger 2001-2019
</metadata>
<g transform="translate(0.000000,2098.000000) scale(0.100000,-0.100000)"
fill="none" stroke="grey" stroke-width="2">
<path d="M0 10490 l0 -10490 7500 0 7500 0 0 10490 0 10490 -7500 0 -7500 0 0
-10490z m8643 7851 c23 -11 83 -35 132 -54 50 -18 126 -49 171 -67 l81 -34 7
-140 c8 -175 44 -709 51 -756 3 -19 10 -93 15 -165 15 -188 68 -612 91 -735
39 -206 96 -366 189 -535 74 -133 143 -211 265 -299 57 -42 113 -88 124 -103
33 -41 28 -111 -15 -213 -20 -47 -64 -159 -99 -250 -34 -91 -78 -203 -97 -250
-78 -188 -163 -510 -209 -795 -16 -99 -34 -210 -40 -246 -10 -56 -9 -70 5 -97
9 -18 27 -37 40 -41 26 -10 26 -5 -6 -226 -11 -77 -24 -194 -28 -260 -8 -105
-6 -131 12 -210 11 -49 34 -124 51 -165 49 -124 256 -750 272 -825 8 -38 21
-93 30 -121 8 -29 19 -74 25 -100 18 -95 69 -330 89 -419 59 -253 124 -555
146 -677 14 -76 29 -157 34 -180 24 -104 61 -381 91 -678 11 -107 29 -271 40
-365 29 -253 57 -526 85 -850 14 -159 32 -351 40 -425 9 -74 24 -236 35 -360
11 -124 26 -290 34 -370 8 -80 17 -190 21 -245 3 -55 10 -147 15 -205 5 -58
19 -253 30 -435 18 -282 51 -697 91 -1165 5 -63 16 -198 24 -300 35 -452 73
-862 120 -1290 19 -173 39 -378 45 -455 12 -177 44 -478 75 -710 30 -223 52
-404 77 -637 14 -128 8 -144 -67 -192 -143 -91 -342 -135 -685 -152 -74 -3
-151 -8 -170 -9 -19 -2 -80 -6 -135 -10 -55 -4 -123 -11 -151 -16 -28 -5 -64
-12 -80 -15 -16 -3 -54 -11 -84 -19 -56 -14 -185 -21 -545 -30 -110 -3 -211
-8 -225 -11 -14 -3 -115 -7 -225 -8 -197 -3 -435 12 -525 34 -60 14 -76 17
-144 25 -32 4 -59 13 -60 19 -2 6 -13 43 -26 81 -15 46 -21 84 -18 110 12 92
-50 1395 -99 2119 -20 291 -20 292 -110 287 -42 -2 -50 -34 -67 -261 -63 -853
-72 -986 -81 -1230 -3 -85 -12 -254 -20 -375 -8 -121 -17 -296 -20 -390 -7
-206 -18 -283 -48 -329 -29 -45 -53 -54 -162 -61 -49 -3 -106 -8 -125 -11 -19
-2 -179 -7 -355 -10 -400 -7 -389 -7 -575 -4 -85 1 -193 -4 -240 -10 -47 -7
-155 -13 -240 -15 -85 -2 -168 -6 -185 -9 -51 -10 -176 -5 -250 9 -22 4 -47 9
-55 11 -50 9 -202 48 -242 61 -26 8 -53 13 -60 10 -7 -2 -31 2 -53 10 -45 16
-135 29 -245 38 -87 6 -114 12 -155 30 -16 7 -37 16 -45 19 -8 3 -28 15 -45
26 -16 11 -36 23 -42 26 -7 3 -13 12 -13 19 0 7 -9 24 -20 38 -24 31 -25 70
-6 273 8 82 19 210 25 284 7 74 16 185 21 245 6 61 15 196 20 300 6 105 12
206 15 225 3 19 12 116 20 215 8 99 22 243 30 320 8 77 29 280 45 450 17 171
37 360 45 420 7 61 16 142 20 180 3 39 12 117 20 175 8 58 19 161 25 230 6 69
18 175 26 235 8 61 19 151 24 200 6 50 19 155 30 234 21 148 53 414 70 581 5
52 16 165 25 250 8 85 26 252 40 370 46 408 104 974 150 1483 19 213 42 431
49 485 8 53 20 151 26 217 13 144 35 342 55 485 8 58 17 137 20 175 3 39 15
133 25 210 11 77 31 228 45 335 31 234 109 701 129 773 30 107 76 362 76 419
0 30 23 107 93 308 9 25 23 84 31 131 9 47 33 143 55 215 56 182 123 469 136
584 3 30 18 93 32 139 26 83 26 83 8 139 -34 109 -46 471 -18 562 33 111 23
198 -78 655 -33 149 -75 317 -94 375 -19 58 -52 164 -75 235 -22 72 -60 195
-85 274 -25 79 -45 150 -45 158 0 8 -9 31 -20 53 -35 68 -25 88 75 155 82 55
206 184 271 281 168 253 246 552 339 1304 61 496 67 569 72 852 4 197 9 280
17 287 28 24 410 161 446 161 9 0 56 -33 105 -73 108 -87 136 -105 240 -156
141 -70 355 -125 565 -148 85 -9 106 -8 136 8 16 8 32 7 62 -3 57 -19 159 -7
332 38 324 84 476 151 709 313 41 28 83 51 93 51 11 0 38 -9 61 -19z"/>
<path d="M8228 17964 c-76 -23 -98 -76 -59 -140 24 -39 67 -49 135 -31 64 17
91 51 82 100 -14 74 -70 99 -158 71z"/>
<path d="M7868 17854 c-61 -19 -83 -50 -73 -101 14 -81 51 -102 139 -76 60 17
86 43 86 87 0 35 -33 96 -52 96 -7 0 -22 2 -33 5 -11 2 -41 -3 -67 -11z"/>
<path d="M7452 17472 c-44 -7 -51 -35 -61 -242 -5 -107 -6 -254 -2 -327 7
-157 12 -167 92 -166 43 0 56 4 72 24 21 26 21 8 1 514 -8 186 -20 209 -102
197z"/>
</g>
</svg>
