<?xml version="1.0" standalone="no"?>
<!DOCTYPE svg PUBLIC "-//W3C//DTD SVG 20010904//EN"
 "http://www.w3.org/TR/2001/REC-SVG-20010904/DTD/svg10.dtd">
<svg version="1.0" xmlns="http://www.w3.org/2000/svg"
 width="1500.000000pt" height="2098.000000pt" viewBox="0 0 1500.000000 2098.000000"
 preserveAspectRatio="xMidYMid meet">
<metadata>
Created by potrace 1.16, written by Peter Selinger 2001-2019
</metadata>
<g transform="translate(0.000000,2098.000000) scale(0.100000,-0.100000)"
fill="none" stroke="grey" stroke-width="2">
<path d="M0 10490 l0 -10490 7500 0 7500 0 0 10490 0 10490 -7500 0 -7500 0 0
-10490z m8919 7777 c73 -45 262 -137 386 -188 44 -18 208 -97 365 -177 157
-79 309 -153 339 -164 44 -17 76 -43 189 -156 186 -187 242 -273 595 -917 63
-115 138 -248 167 -295 76 -122 115 -191 175 -310 50 -99 128 -232 186 -317
14 -21 55 -87 89 -148 35 -60 88 -150 117 -199 29 -49 53 -93 53 -99 0 -5 -13
-25 -30 -44 -22 -24 -30 -44 -30 -70 0 -64 -73 -154 -256 -313 -28 -25 -107
-94 -175 -153 -189 -165 -227 -197 -236 -197 -5 0 -24 -13 -44 -29 -33 -28
-133 -82 -209 -114 -19 -8 -57 -25 -84 -37 -27 -12 -81 -33 -120 -46 -39 -14
-92 -34 -118 -46 -39 -17 -55 -19 -95 -12 -26 5 -58 8 -71 6 -30 -4 -62 -57
-62 -100 0 -19 -8 -46 -19 -60 -39 -56 -52 -95 -71 -219 -56 -353 -84 -504
-125 -663 -41 -160 -45 -198 -53 -435 -10 -315 -5 -1460 8 -2000 14 -534 22
-722 44 -970 22 -253 55 -923 101 -2060 8 -209 19 -438 24 -510 6 -71 15 -224
21 -340 6 -115 18 -293 26 -395 25 -325 53 -749 74 -1130 6 -102 15 -248 20
-325 6 -77 15 -207 21 -290 42 -636 54 -795 84 -1135 8 -91 17 -208 20 -260 2
-52 7 -149 10 -215 3 -66 10 -147 15 -180 5 -33 14 -150 20 -260 14 -259 38
-611 50 -747 6 -58 7 -144 4 -191 -4 -54 -3 -96 4 -117 9 -25 8 -39 -2 -65
-19 -43 -42 -55 -113 -55 -79 0 -129 -16 -150 -46 -61 -88 -177 -182 -238
-191 -16 -2 -48 -8 -69 -13 -42 -9 -108 0 -182 25 -24 8 -50 12 -59 9 -9 -4
-15 0 -15 9 0 8 -13 42 -30 75 -16 34 -30 69 -30 80 0 10 -7 27 -15 38 -8 10
-15 40 -15 65 0 32 -7 57 -25 83 -14 20 -25 48 -25 61 0 13 -11 37 -24 52 -22
26 -30 28 -93 28 -139 -1 -288 -71 -402 -188 -169 -174 -368 -223 -701 -171
-127 20 -143 21 -198 10 -27 -5 -55 -20 -77 -41 -19 -18 -53 -44 -75 -59 -22
-14 -40 -30 -40 -35 0 -5 -12 -14 -27 -20 -16 -6 -40 -19 -54 -29 -15 -9 -48
-30 -75 -46 -27 -16 -60 -36 -74 -46 -36 -24 -154 -47 -225 -44 -39 2 -75 12
-105 27 -25 14 -57 27 -71 31 -14 3 -48 28 -75 56 -27 28 -59 56 -70 63 -83
47 -109 58 -170 69 -38 7 -147 13 -244 13 -96 0 -186 4 -200 8 -70 23 -280
103 -350 135 -138 62 -175 59 -280 -24 -101 -79 -100 -79 -255 -112 -74 -16
-246 -14 -319 3 -92 21 -134 44 -178 98 -34 41 -45 47 -121 67 -178 47 -286
124 -273 195 10 55 39 544 66 1125 21 458 35 686 50 875 11 130 24 331 40 600
6 94 14 231 20 305 5 74 14 209 20 300 6 91 17 246 25 345 8 99 21 281 30 405
30 428 46 646 60 840 8 107 19 269 25 360 6 91 24 368 41 615 17 248 36 542
44 655 7 113 21 302 29 420 9 118 20 283 26 365 22 325 32 454 70 918 21 265
44 556 50 647 6 91 15 226 20 300 20 286 32 992 26 1605 -5 617 -6 633 -30
756 -14 70 -30 173 -36 230 -19 185 -41 343 -50 374 -34 118 -81 302 -90 363
-14 89 -33 114 -83 114 -29 0 -47 -9 -83 -41 -48 -42 -52 -43 -159 -46 -55 -2
-165 35 -255 86 -8 4 -43 22 -77 39 -61 31 -195 157 -303 285 -23 28 -154 162
-291 298 -189 188 -257 262 -279 305 -17 31 -35 64 -42 73 -15 22 -6 53 38
124 20 33 64 110 97 170 33 61 83 143 111 183 28 40 100 157 159 260 263 453
302 520 330 572 16 30 41 73 55 95 14 22 79 143 145 270 147 284 180 336 313
507 91 116 147 170 244 233 140 92 380 219 565 300 72 31 238 110 370 175 240
119 328 156 344 145 5 -3 53 -62 107 -131 105 -135 149 -177 233 -219 102 -51
405 -112 596 -121 55 -2 132 -7 170 -10 107 -9 446 -5 580 6 481 41 597 92
783 343 45 61 92 120 104 130 26 21 41 17 127 -36z"/>
</g>
</svg>
