<?xml version="1.0" standalone="no"?>
<!DOCTYPE svg PUBLIC "-//W3C//DTD SVG 20010904//EN"
 "http://www.w3.org/TR/2001/REC-SVG-20010904/DTD/svg10.dtd">
<svg version="1.0" xmlns="http://www.w3.org/2000/svg"
 width="1500.000000pt" height="2098.000000pt" viewBox="0 0 1500.000000 2098.000000"
 preserveAspectRatio="xMidYMid meet">
<metadata>
Created by potrace 1.16, written by Peter Selinger 2001-2019
</metadata>
<g transform="translate(0.000000,2098.000000) scale(0.100000,-0.100000)"
fill="none" stroke="grey" stroke-width="2">
<path d="M0 10490 l0 -10490 7500 0 7500 0 0 10490 0 10490 -7500 0 -7500 0 0
-10490z m8435 7909 c52 -35 158 -86 214 -103 30 -9 74 -27 98 -42 25 -14 83
-39 131 -55 58 -20 94 -38 111 -58 26 -28 111 -66 301 -133 93 -33 123 -53
115 -77 -14 -47 -116 -712 -149 -971 -15 -117 -64 -481 -92 -690 -8 -63 -26
-180 -39 -260 -61 -370 -55 -553 29 -837 56 -193 57 -199 36 -373 -10 -85 -35
-254 -55 -375 -61 -374 -73 -463 -94 -675 -80 -801 -83 -906 -32 -1245 35
-229 70 -444 116 -700 24 -137 51 -295 60 -350 9 -55 41 -235 71 -400 31 -165
71 -388 90 -495 34 -191 132 -838 154 -1015 23 -183 81 -610 85 -625 8 -27 65
-461 95 -720 76 -661 102 -878 125 -1040 13 -96 29 -213 34 -260 6 -47 26
-211 46 -365 76 -597 155 -1254 180 -1482 13 -131 34 -312 45 -403 30 -241 88
-747 110 -955 65 -617 107 -995 115 -1035 3 -14 16 -126 30 -250 14 -124 32
-285 40 -358 9 -74 24 -211 35 -304 18 -155 19 -173 5 -188 -9 -10 -21 -35
-26 -56 -6 -22 -23 -52 -37 -68 -39 -42 -160 -94 -297 -128 -169 -41 -205 -47
-319 -54 -56 -3 -114 -9 -131 -13 -16 -4 -43 -4 -60 0 -16 5 -104 11 -195 13
-147 5 -188 8 -265 21 -11 1 -45 10 -76 19 -31 9 -61 16 -65 14 -21 -5 -125
37 -174 71 -39 27 -61 51 -84 95 -49 93 -81 96 -306 20 -166 -56 -224 -83
-320 -148 -41 -28 -82 -55 -91 -61 -9 -5 -35 -24 -58 -41 -22 -18 -78 -44
-123 -59 -72 -24 -93 -27 -168 -22 -108 6 -192 31 -235 68 -18 16 -36 29 -40
29 -10 0 -45 46 -66 88 -10 19 -21 61 -25 93 -3 32 -15 71 -25 88 -23 38 -63
44 -231 39 -109 -3 -129 -6 -181 -31 -31 -15 -90 -56 -130 -91 -78 -68 -204
-148 -253 -160 -28 -7 -102 -17 -134 -18 -61 -2 -206 42 -270 82 -47 29 -142
69 -188 79 -64 13 -212 14 -267 1 -57 -14 -159 -30 -224 -36 -31 -3 -67 -7
-80 -10 -27 -6 -313 -5 -407 1 -67 4 -165 35 -204 63 -43 32 -57 111 -41 239
7 60 19 164 26 233 8 69 30 238 49 375 20 138 49 363 66 500 18 138 42 329 56
425 43 312 53 398 79 684 14 154 44 439 66 631 21 193 55 492 74 665 40 359
121 1020 165 1345 33 248 52 415 75 655 8 91 20 208 25 260 6 52 24 257 40
455 17 198 41 475 55 615 14 140 32 327 41 415 17 181 40 381 54 470 18 116
69 531 85 690 9 88 55 423 101 745 46 322 98 682 115 800 16 118 43 307 59
420 109 763 111 880 29 1453 -45 316 -76 478 -155 797 -73 300 -122 593 -111
673 3 23 26 85 51 137 90 192 127 374 127 635 0 169 -29 578 -66 915 -13 127
-27 286 -40 460 -10 141 -46 535 -63 688 -10 84 -15 157 -12 162 7 12 138 62
245 95 52 15 101 37 116 51 14 13 71 39 127 58 56 19 119 44 139 55 21 11 83
35 138 52 55 17 126 45 158 61 34 17 76 30 98 30 47 0 186 -53 250 -97 55 -37
193 -85 339 -117 139 -30 409 -32 540 -5 128 27 267 76 321 113 189 131 262
156 324 113z"/>
<path d="M7303 17723 c-47 -10 -68 -77 -38 -120 33 -47 150 -53 180 -10 20 29
19 80 -2 106 -18 22 -92 35 -140 24z"/>
</g>
</svg>
