<?xml version="1.0" standalone="no"?>
<!DOCTYPE svg PUBLIC "-//W3C//DTD SVG 20010904//EN"
 "http://www.w3.org/TR/2001/REC-SVG-20010904/DTD/svg10.dtd">
<svg version="1.0" xmlns="http://www.w3.org/2000/svg"
 width="1500.000000pt" height="2098.000000pt" viewBox="0 0 1500.000000 2098.000000"
 preserveAspectRatio="xMidYMid meet">
<metadata>
Created by potrace 1.16, written by Peter Selinger 2001-2019
</metadata>
<g transform="translate(0.000000,2098.000000) scale(0.100000,-0.100000)"
fill="none" stroke="grey" stroke-width="2">
<path d="M0 10490 l0 -10490 7500 0 7500 0 0 10490 0 10490 -7500 0 -7500 0 0
-10490z m6100 7830 c12 -6 28 -37 40 -77 26 -83 41 -100 96 -109 43 -6 245
-11 525 -12 81 -1 177 -7 215 -14 58 -10 266 -15 299 -7 6 1 39 -1 75 -4 96
-10 331 -19 529 -21 133 -1 175 -4 179 -14 3 -11 -56 -13 -318 -10 l-322 3
-20 -25 c-15 -19 -18 -32 -13 -60 6 -33 26 -1008 25 -1250 0 -63 0 -167 0
-230 0 -63 3 -231 7 -372 9 -297 8 -294 99 -289 20 1 84 68 203 214 l53 65 55
-1 c47 -1 58 2 74 22 24 29 24 57 0 104 l-19 36 87 141 c201 329 256 428 395
720 14 30 54 105 89 166 34 60 100 191 147 290 46 98 99 199 117 223 18 24 33
53 33 65 0 29 -27 66 -49 66 -9 0 -25 6 -36 13 -17 13 -15 14 15 21 19 3 44
13 55 20 22 15 58 107 70 181 11 73 36 135 53 136 41 3 88 -4 100 -13 21 -18
90 -13 114 8 11 11 23 15 24 9 19 -52 42 -81 74 -90 19 -5 40 -13 45 -16 16
-11 198 -59 221 -59 13 0 24 -8 27 -19 3 -14 -2 -18 -25 -19 -71 -2 -105 -60
-72 -121 21 -39 53 -52 97 -40 l27 8 0 -160 c0 -153 -1 -159 -20 -159 -35 0
-57 -52 -58 -133 0 -83 14 -118 65 -163 l36 -32 19 -173 c10 -96 20 -194 22
-219 2 -25 13 -99 24 -165 11 -66 27 -165 35 -220 14 -91 39 -219 97 -484 11
-52 20 -106 20 -121 0 -14 7 -35 15 -47 8 -11 31 -61 51 -109 20 -49 51 -126
70 -172 19 -45 41 -96 49 -112 8 -16 15 -46 15 -67 0 -21 7 -48 15 -59 9 -14
12 -34 8 -57 -5 -36 -6 -36 -22 -16 -12 15 -29 21 -56 21 -56 0 -75 -27 -75
-104 0 -55 3 -63 32 -90 18 -17 43 -34 55 -39 29 -11 28 -20 -3 -149 -14 -58
-30 -141 -35 -185 -5 -44 -18 -125 -28 -180 -11 -55 -36 -194 -56 -310 -19
-115 -47 -251 -60 -301 -14 -50 -25 -108 -24 -130 0 -57 -18 -220 -36 -322 -9
-48 -22 -195 -30 -327 -7 -132 -18 -296 -24 -365 -12 -137 -25 -534 -22 -645
1 -38 -4 -99 -10 -134 -12 -56 -11 -67 4 -93 15 -26 16 -64 11 -406 -3 -218
-1 -474 5 -607 16 -339 32 -732 36 -880 4 -184 24 -631 30 -685 3 -25 9 -160
15 -300 6 -140 17 -304 25 -365 7 -60 16 -182 20 -270 3 -88 9 -234 15 -325 9
-172 34 -826 33 -895 0 -22 4 -94 8 -160 5 -66 11 -221 14 -345 3 -124 10
-261 15 -305 5 -44 12 -152 15 -239 4 -88 8 -163 10 -167 6 -9 37 -286 81
-709 48 -476 54 -550 48 -577 -4 -14 -2 -72 4 -131 6 -59 18 -186 27 -282 9
-96 20 -202 26 -235 6 -33 17 -96 24 -140 50 -281 55 -317 55 -361 0 -22 5
-55 10 -74 10 -32 68 -444 105 -745 39 -319 65 -460 95 -530 37 -84 30 -161
-24 -289 -25 -59 -46 -113 -46 -119 0 -33 -110 -180 -187 -249 -76 -68 -99
-85 -143 -102 -8 -3 -22 -10 -30 -15 -71 -42 -161 -70 -248 -76 -75 -6 -187
-41 -239 -77 -23 -15 -45 -28 -50 -28 -4 0 -28 -10 -54 -23 -77 -39 -170 -58
-319 -63 -76 -2 -130 -6 -240 -18 -19 -2 -62 -12 -95 -21 -33 -9 -72 -18 -86
-20 -15 -3 -60 -11 -100 -20 -71 -14 -261 -21 -324 -11 -86 14 -225 28 -275
28 -61 1 -231 -20 -243 -30 -10 -9 -48 -18 -147 -37 -14 -3 -52 -10 -85 -16
-156 -30 -411 6 -570 81 -75 36 -260 46 -390 23 -64 -12 -223 -7 -240 7 -6 5
-25 11 -41 12 -16 1 -41 10 -56 20 -15 10 -55 28 -90 40 -77 26 -249 31 -291
9 -44 -23 -192 -11 -259 22 -30 15 -59 27 -65 27 -5 0 -18 9 -28 20 -10 11
-22 20 -28 20 -5 0 -26 13 -47 30 -21 16 -41 30 -45 30 -4 0 -27 14 -52 30
-24 17 -48 30 -54 30 -8 0 -48 21 -104 57 -11 7 -37 23 -59 35 -21 13 -47 28
-58 34 -38 22 -143 141 -168 190 -21 42 -25 63 -25 141 0 74 -3 95 -18 111
-18 20 -17 23 17 129 44 139 74 277 91 428 21 178 53 423 77 570 11 72 24 164
29 205 17 136 60 451 96 690 19 129 45 308 58 397 13 89 28 171 34 182 6 11
11 50 11 88 0 37 4 122 10 188 5 66 19 269 30 450 20 318 39 568 61 820 13
146 17 206 28 401 5 85 14 161 21 175 9 16 14 88 15 234 1 115 8 302 14 415 6
113 19 360 27 550 23 488 28 563 37 577 4 7 3 88 -3 180 -7 93 -9 209 -5 259
6 87 8 91 36 108 42 25 50 46 55 146 6 101 -3 126 -47 142 l-30 10 5 157 c3
86 5 172 4 191 -3 166 4 425 13 470 12 52 20 180 18 280 0 25 0 240 1 478 l1
432 25 25 c27 27 29 44 13 95 -11 37 -21 209 -19 344 1 44 -4 119 -10 167 -6
47 -13 120 -15 160 -3 41 -9 112 -14 159 -14 130 -13 222 4 244 19 25 19 57 0
82 -11 14 -13 38 -9 99 7 93 -19 529 -41 690 -8 61 -15 123 -15 139 l0 28 18
-22 c13 -16 29 -22 57 -22 67 0 97 62 55 115 -11 14 -20 32 -20 40 0 31 -35
59 -72 59 -20 0 -42 -3 -49 -7 -9 -6 -10 11 -5 74 6 64 4 87 -7 104 -8 12 -17
60 -21 107 -10 137 -16 175 -60 405 -56 289 -66 362 -51 377 8 8 92 -76 98
-98 3 -10 11 -52 17 -92 10 -63 18 -80 56 -127 l45 -55 -12 -80 c-8 -59 -19
-92 -40 -123 -36 -53 -37 -88 -1 -128 22 -24 36 -31 65 -31 21 0 43 5 51 11
21 17 65 105 86 171 27 84 25 135 -5 189 -14 23 -25 53 -25 65 0 13 -22 67
-50 121 -27 54 -50 106 -50 116 0 28 -46 111 -79 143 -42 40 -105 41 -137 1
l-22 -28 -12 44 c-6 24 -17 64 -25 89 -19 59 -65 313 -65 360 0 24 18 73 50
140 72 146 124 271 154 372 l26 86 43 8 c23 5 54 7 69 6 71 -8 138 34 138 84
0 42 -31 65 -90 69 -30 2 -60 4 -66 4 -22 2 -23 55 -2 88 11 18 18 45 17 60
-3 28 6 53 19 53 4 0 6 -22 4 -48 -5 -64 18 -94 73 -94 33 0 45 6 77 41 66 70
43 143 -44 145 -50 1 -52 9 -16 55 41 53 14 158 -47 181 l-23 9 24 133 c13 73
28 153 34 178 25 103 41 204 55 345 8 83 19 184 24 225 20 147 22 339 6 470
-8 69 -15 131 -15 137 0 21 96 63 153 68 95 7 167 55 167 111 0 18 6 24 23 25
12 0 31 3 42 5 11 2 47 8 80 13 33 5 64 9 68 10 5 0 17 -4 27 -9z"/>
<path d="M6420 18082 c-15 -4 -32 -22 -43 -44 -14 -29 -26 -38 -62 -47 -75
-19 -93 -72 -56 -167 10 -27 44 -128 74 -224 116 -363 127 -396 148 -450 11
-30 29 -80 39 -110 42 -129 85 -242 131 -350 27 -63 55 -144 63 -179 8 -34 26
-80 40 -100 33 -47 76 -153 76 -187 0 -15 12 -38 32 -57 31 -32 78 -119 78
-147 0 -26 28 -58 84 -95 30 -19 73 -53 98 -74 70 -62 162 -75 193 -27 7 12
15 66 18 131 17 342 29 504 38 535 6 21 8 72 4 130 -12 167 -14 632 -3 698 8
51 8 71 -5 105 -11 31 -16 95 -19 243 -3 165 -7 206 -20 227 -31 46 -101 40
-131 -11 -18 -31 -18 -40 -7 -165 22 -234 6 -310 -69 -330 -69 -18 -131 34
-131 110 l0 26 24 -22 c33 -31 93 -31 118 -1 37 46 13 136 -37 141 -46 4 -67
-2 -91 -26 l-25 -25 7 38 c6 33 59 188 111 325 16 43 17 50 3 74 -12 21 -28
30 -70 40 -63 14 -572 26 -610 15z"/>
<path d="M8850 17940 c-27 -6 -70 -71 -70 -106 0 -66 101 -94 147 -40 15 18
23 40 23 64 0 65 -39 97 -100 82z"/>
<path d="M9143 17912 c-36 -6 -53 -40 -53 -108 0 -79 19 -106 75 -106 31 0 45
6 67 31 34 38 35 70 5 131 -23 45 -48 59 -94 52z"/>
<path d="M8700 17481 c-32 -8 -81 -102 -77 -148 2 -23 -2 -33 -14 -36 -10 -3
-30 -23 -46 -46 -15 -22 -35 -40 -44 -41 -34 0 -129 -158 -129 -212 0 -20 9
-46 19 -60 20 -25 20 -25 -5 -61 -14 -21 -29 -37 -35 -37 -5 0 -21 -11 -34
-25 -21 -20 -25 -34 -25 -79 0 -31 -5 -75 -11 -98 -10 -38 -9 -48 10 -85 11
-23 21 -49 21 -58 0 -22 45 -108 65 -125 21 -18 99 -17 121 1 24 19 54 88 54
123 0 16 6 45 12 64 11 28 10 38 -5 64 -22 39 -22 44 11 87 41 52 82 138 82
172 0 17 6 32 15 35 26 10 85 109 85 141 0 17 -9 41 -19 55 -23 29 -27 45 -16
81 4 17 3 38 -3 52 -9 19 -8 24 8 28 11 3 25 18 31 34 6 15 17 40 25 55 39 73
-15 140 -96 119z"/>
<path d="M5903 17422 c-25 -4 -53 -37 -53 -64 0 -9 -11 -28 -25 -42 -18 -18
-25 -36 -25 -64 0 -57 26 -85 79 -85 51 0 85 28 112 91 24 54 24 78 1 121 -17
36 -47 50 -89 43z"/>
<path d="M5883 16292 c-26 -4 -53 -37 -53 -65 0 -11 8 -36 18 -56 10 -20 25
-49 33 -65 15 -31 50 -46 86 -37 37 10 143 116 143 144 0 43 -30 69 -78 69
-23 0 -47 -4 -52 -7 -6 -4 -16 -2 -23 3 -16 12 -47 18 -74 14z"/>
<path d="M5560 15291 c-39 -9 -120 -177 -120 -249 0 -29 -5 -62 -11 -74 -14
-25 -4 -80 20 -109 13 -16 28 -22 60 -22 39 0 46 5 104 67 35 36 70 66 79 66
26 0 60 51 55 80 -13 63 -26 103 -41 119 -9 10 -16 22 -16 27 0 6 -14 28 -30
51 -31 42 -57 53 -100 44z"/>
<path d="M7023 14902 c-48 -7 -68 -72 -35 -112 39 -48 132 -17 132 44 0 48
-41 76 -97 68z"/>
<path d="M5850 14621 c-86 -24 -46 -159 53 -177 23 -4 51 -7 62 -5 29 3 65 48
65 81 0 37 -41 86 -79 93 -16 3 -39 8 -52 11 -13 2 -35 1 -49 -3z"/>
<path d="M9262 13722 c-19 -3 -31 -15 -58 -60 -1 -2 -21 -5 -45 -8 -24 -2 -51
-12 -59 -22 -9 -9 -25 -22 -35 -28 -11 -6 -24 -23 -30 -38 -8 -22 -4 -36 18
-76 19 -34 27 -62 27 -98 0 -72 22 -96 89 -96 42 0 56 5 80 28 47 45 83 120
80 169 -1 24 5 55 14 74 21 40 22 102 2 130 -15 22 -45 31 -83 25z"/>
<path d="M5960 13248 c-104 -27 -87 -133 25 -162 61 -15 95 -8 114 25 18 32
10 65 -26 106 -32 36 -63 45 -113 31z"/>
<path d="M8203 13042 c-12 -2 -37 -22 -55 -45 -37 -48 -53 -60 -88 -64 -56 -8
-76 -72 -41 -129 25 -40 56 -46 128 -21 87 29 163 113 163 180 0 51 -50 88
-107 79z"/>
<path d="M5723 12772 c-47 -7 -71 -92 -38 -138 13 -20 13 -21 -18 -20 -18 1
-43 8 -57 15 -39 22 -110 19 -130 -7 -25 -31 -35 -118 -16 -147 25 -37 115
-43 156 -10 8 6 33 12 55 12 65 2 96 59 59 111 -12 18 -13 23 -3 21 41 -5 61
3 79 34 25 41 25 68 0 99 -20 26 -48 36 -87 30z"/>
<path d="M7295 12752 c-11 -2 -24 -8 -29 -13 -6 -5 -19 -9 -29 -9 -10 0 -32
-14 -48 -31 -16 -18 -42 -33 -61 -36 -47 -7 -66 -19 -83 -53 -19 -37 -19 -50
1 -110 20 -60 27 -66 84 -76 70 -11 83 -11 110 -4 18 5 29 1 40 -13 23 -28 89
-26 112 3 24 29 23 71 -2 103 -19 24 -19 27 -4 63 18 43 13 113 -10 150 -15
22 -47 33 -81 26z"/>
<path d="M7883 12492 c-49 -7 -69 -80 -35 -122 13 -16 29 -22 57 -22 45 0 75
28 75 71 0 53 -39 82 -97 73z"/>
<path d="M7070 12331 c-14 -4 -32 -21 -41 -39 -9 -17 -19 -29 -22 -26 -24 25
-165 -26 -187 -67 -14 -26 -12 -70 5 -120 21 -60 39 -76 98 -90 29 -6 57 -15
62 -19 39 -30 122 -17 144 22 15 26 14 34 -19 141 -6 19 -5 27 3 26 56 -7 81
17 92 86 5 31 3 45 -12 62 -20 24 -81 36 -123 24z"/>
<path d="M7920 12030 c-14 -3 -34 -20 -45 -37 -16 -26 -24 -30 -45 -25 -98 25
-153 -46 -97 -129 24 -36 58 -49 98 -38 16 4 31 3 37 -3 16 -16 91 -13 107 3
20 20 55 115 55 148 0 57 -52 95 -110 81z"/>
<path d="M6813 11112 c-33 -5 -63 -49 -63 -92 0 -54 26 -82 75 -82 47 0 70 24
80 82 11 66 -25 102 -92 92z"/>
<path d="M7663 10522 c-31 -5 -63 -49 -63 -87 0 -49 28 -77 75 -77 46 0 71 24
81 78 11 59 -28 96 -93 86z"/>
<path d="M8883 10093 c-13 -2 -30 -14 -38 -26 -46 -65 32 -158 115 -137 27 6
60 60 60 96 0 49 -66 81 -137 67z"/>
<path d="M5929 10056 c-51 -18 -108 -64 -116 -94 -8 -33 15 -74 47 -82 14 -3
57 0 95 8 110 21 146 79 88 141 -34 36 -67 44 -114 27z"/>
<path d="M8453 10023 c-49 -9 -69 -81 -35 -123 27 -33 89 -31 119 5 53 61 1
133 -84 118z"/>
<path d="M6302 9472 c-12 -2 -30 -14 -38 -27 -15 -23 -87 -65 -111 -65 -18 0
-53 -50 -53 -76 0 -12 11 -35 24 -51 13 -16 30 -58 39 -97 19 -81 32 -98 81
-98 43 0 61 13 86 61 11 20 25 46 31 59 10 17 10 31 2 52 -6 16 -7 34 -2 41 5
8 9 28 9 44 0 17 7 39 15 49 42 56 -7 119 -83 108z"/>
<path d="M7953 9223 c-27 -5 -53 -39 -53 -69 0 -40 32 -67 80 -67 33 0 48 6
62 23 47 58 -7 128 -89 113z"/>
</g>
</svg>
