<?xml version="1.0" standalone="no"?>
<!DOCTYPE svg PUBLIC "-//W3C//DTD SVG 20010904//EN"
 "http://www.w3.org/TR/2001/REC-SVG-20010904/DTD/svg10.dtd">
<svg version="1.0" xmlns="http://www.w3.org/2000/svg"
 width="1500.000000pt" height="2098.000000pt" viewBox="0 0 1500.000000 2098.000000"
 preserveAspectRatio="xMidYMid meet">
<metadata>
Created by potrace 1.16, written by Peter Selinger 2001-2019
</metadata>
<g transform="translate(0.000000,2098.000000) scale(0.100000,-0.100000)"
fill="none" stroke="grey" stroke-width="2">
<path d="M0 10490 l0 -10490 7500 0 7500 0 0 10490 0 10490 -7500 0 -7500 0 0
-10490z m6235 7742 c55 -37 122 -81 150 -98 27 -16 84 -51 125 -76 41 -25 125
-72 185 -103 61 -32 126 -68 145 -79 54 -33 239 -113 292 -126 70 -18 428 -8
548 15 193 36 306 67 429 115 154 61 234 106 438 247 172 118 183 124 261 152
40 14 64 16 103 10 58 -9 236 -88 364 -161 165 -95 469 -276 529 -315 32 -21
93 -59 135 -85 147 -90 247 -168 393 -305 177 -167 418 -416 418 -433 0 -6
-20 -43 -45 -81 -142 -220 -394 -773 -494 -1084 -84 -265 -177 -630 -226 -895
-119 -641 -132 -692 -248 -990 -14 -36 -28 -94 -31 -130 -15 -176 -23 -216
-56 -280 -28 -55 -31 -71 -27 -112 5 -37 0 -64 -19 -115 -18 -49 -24 -78 -19
-103 17 -98 17 -118 -4 -165 -12 -26 -21 -60 -21 -76 0 -16 -6 -48 -14 -71
-16 -53 -19 -211 -5 -292 14 -83 27 -288 29 -446 0 -25 6 -63 12 -85 6 -22 10
-57 9 -79 -3 -52 17 -141 41 -187 15 -30 20 -63 23 -151 2 -62 10 -170 19
-238 17 -133 36 -348 61 -680 9 -113 20 -245 25 -295 14 -140 65 -879 75
-1090 5 -126 13 -250 35 -555 10 -145 18 -290 45 -885 26 -567 35 -1171 40
-2550 4 -1286 13 -1755 45 -2490 5 -99 8 -189 8 -200 -2 -106 5 -322 11 -334
14 -27 4 -300 -13 -371 -9 -36 -16 -79 -16 -97 0 -19 -9 -43 -22 -58 l-23 -26
-40 21 c-83 44 -120 28 -170 -70 -33 -64 -95 -145 -136 -174 -53 -39 -158 -88
-198 -92 -13 -2 -31 -6 -40 -10 -15 -7 -175 -51 -216 -59 -60 -13 -72 -16 -95
-20 -14 -3 -36 -7 -50 -9 -14 -3 -43 -8 -65 -10 -22 -3 -67 -10 -100 -15 -33
-6 -100 -15 -150 -21 -49 -7 -102 -13 -116 -15 -15 -2 -55 -7 -90 -10 -35 -3
-109 -15 -164 -27 -55 -11 -125 -22 -155 -25 -30 -2 -71 -8 -91 -13 -20 -6
-76 -12 -125 -15 -49 -3 -107 -8 -130 -10 -60 -6 -468 -7 -544 -1 -128 10
-196 17 -240 26 -25 5 -83 12 -130 16 -47 3 -112 12 -144 20 -33 7 -63 11 -66
9 -4 -3 -22 0 -41 5 -34 10 -75 17 -157 25 -24 3 -48 7 -52 10 -5 3 -29 8 -53
10 -24 2 -100 16 -168 31 -68 14 -137 28 -153 31 -16 3 -75 18 -130 34 -55 15
-102 26 -105 24 -2 -3 -9 -1 -15 4 -6 5 -50 21 -98 35 -47 15 -103 36 -124 47
-21 10 -43 19 -49 19 -6 0 -30 9 -53 20 -22 11 -47 20 -55 20 -7 0 -22 7 -33
15 -10 8 -25 15 -32 15 -23 0 -185 80 -240 118 -80 54 -93 82 -104 224 -6 79
-5 502 3 1217 7 603 15 1438 19 1856 9 862 24 1649 39 1995 14 307 29 756 36
1050 7 272 15 429 50 960 46 692 48 740 71 1295 23 574 54 925 120 1345 44
279 82 664 105 1065 13 217 13 220 -31 725 -5 52 -27 156 -59 270 -99 350
-120 425 -160 580 -22 85 -86 301 -141 480 -56 179 -119 381 -140 450 -21 69
-89 260 -150 425 -61 165 -160 433 -220 595 -142 386 -257 670 -281 696 -10
11 -19 25 -19 30 0 5 39 50 88 99 48 50 121 127 162 173 83 93 177 173 292
250 42 28 79 56 83 62 4 6 41 33 83 62 42 28 124 86 182 128 58 43 123 87 145
99 22 12 63 36 90 53 59 36 394 219 480 261 33 16 69 37 80 47 11 10 43 32 70
48 66 41 87 36 210 -46z"/>
</g>
</svg>
