<?xml version="1.0" standalone="no"?>
<!DOCTYPE svg PUBLIC "-//W3C//DTD SVG 20010904//EN"
 "http://www.w3.org/TR/2001/REC-SVG-20010904/DTD/svg10.dtd">
<svg version="1.0" xmlns="http://www.w3.org/2000/svg"
 width="1500.000000pt" height="2098.000000pt" viewBox="0 0 1500.000000 2098.000000"
 preserveAspectRatio="xMidYMid meet">
<metadata>
Created by potrace 1.16, written by Peter Selinger 2001-2019
</metadata>
<g transform="translate(0.000000,2098.000000) scale(0.100000,-0.100000)"
fill="none" stroke="grey" stroke-width="2">
<path d="M0 10490 l0 -10490 7500 0 7500 0 0 10490 0 10490 -7500 0 -7500 0 0
-10490z m8801 7780 c57 -22 122 -49 144 -60 22 -11 59 -24 82 -29 45 -9 135
-66 221 -138 35 -30 79 -54 132 -73 102 -36 144 -65 135 -94 -52 -163 -80
-346 -95 -606 -9 -164 -16 -219 -46 -344 -62 -262 -73 -397 -54 -671 15 -213
49 -372 120 -565 18 -47 38 -112 46 -145 8 -33 24 -91 36 -129 20 -66 21 -75
9 -185 -16 -145 -18 -155 -101 -496 -139 -569 -159 -675 -197 -1025 -25 -225
-24 -860 1 -1090 35 -319 66 -587 76 -640 5 -30 14 -102 20 -160 27 -279 74
-672 89 -755 5 -27 16 -90 25 -140 8 -49 24 -144 35 -210 11 -66 27 -183 36
-260 8 -77 17 -150 20 -162 3 -12 16 -102 30 -200 34 -242 42 -299 64 -433 11
-63 25 -155 31 -205 6 -49 20 -137 31 -195 11 -58 26 -157 34 -220 8 -63 22
-160 30 -215 9 -55 20 -131 25 -170 4 -38 20 -153 34 -255 95 -673 119 -848
141 -1031 8 -69 22 -161 30 -205 8 -43 22 -137 30 -209 9 -71 20 -159 25 -195
5 -36 14 -117 20 -180 10 -108 20 -195 70 -615 11 -93 27 -240 35 -325 20
-214 32 -319 55 -505 29 -235 49 -422 60 -580 14 -180 36 -383 60 -560 11 -77
25 -187 31 -245 11 -101 34 -234 63 -370 18 -79 43 -206 56 -280 5 -30 16 -84
25 -120 8 -36 22 -117 30 -180 8 -63 19 -133 24 -155 34 -158 93 -396 135
-542 19 -68 21 -86 11 -110 -6 -15 -15 -52 -19 -81 -15 -116 -70 -204 -174
-280 -37 -27 -72 -51 -77 -53 -40 -16 -250 -168 -292 -212 -70 -74 -217 -197
-235 -197 -8 0 -19 -5 -26 -12 -6 -6 -17 -13 -24 -14 -153 -26 -185 -30 -338
-35 -25 -1 -76 7 -115 17 -38 9 -78 17 -87 16 -9 0 -22 6 -29 14 -6 8 -17 14
-23 14 -6 0 -36 20 -67 43 -244 183 -256 190 -355 213 -77 18 -153 14 -200
-11 -16 -8 -36 -15 -45 -15 -9 0 -24 -9 -34 -20 -10 -11 -22 -20 -26 -20 -5 0
-30 -16 -56 -36 -42 -30 -77 -67 -209 -217 -13 -15 -36 -46 -51 -69 -16 -24
-40 -53 -55 -66 -15 -13 -30 -31 -33 -42 -3 -10 -22 -35 -41 -54 -18 -18 -34
-41 -34 -50 0 -9 -6 -16 -13 -16 -7 0 -26 -13 -41 -29 -18 -19 -49 -35 -89
-46 -34 -9 -73 -24 -86 -32 -13 -9 -43 -18 -65 -20 -48 -5 -40 -5 -141 3 -105
8 -105 8 -143 1 -19 -3 -44 0 -60 8 -15 8 -45 17 -67 19 -22 3 -60 12 -85 20
-25 7 -49 15 -55 16 -5 2 -28 18 -51 36 -23 19 -44 34 -47 34 -19 0 -114 117
-129 158 -35 100 -49 136 -63 156 -8 11 -15 28 -15 37 0 26 -81 119 -110 126
-14 3 -37 15 -51 26 -28 20 -91 26 -112 9 -6 -5 -23 -12 -37 -15 -14 -4 -65
-45 -114 -92 -49 -47 -93 -85 -99 -85 -5 0 -29 -13 -53 -30 -25 -16 -57 -33
-72 -36 -15 -4 -31 -9 -37 -12 -14 -9 -86 -2 -124 11 -40 14 -103 77 -186 184
-128 165 -255 264 -380 294 -81 19 -110 18 -195 -10 -70 -23 -206 -87 -214
-100 -4 -5 -23 -15 -44 -21 -20 -6 -46 -16 -57 -21 -35 -16 -116 -16 -186 1
-37 8 -71 19 -75 23 -4 4 -13 7 -20 7 -7 0 -28 10 -46 23 -97 67 -128 92 -128
102 0 5 -17 40 -38 76 -35 59 -39 76 -51 184 -11 99 -18 127 -39 160 -33 52
-39 118 -18 215 9 41 23 111 32 155 8 44 28 135 44 201 17 67 30 132 30 146 0
22 84 409 116 532 9 33 24 114 35 180 10 67 26 159 34 206 39 217 54 312 65
405 7 55 21 147 31 204 11 57 24 142 29 190 6 47 22 149 36 226 14 77 29 167
34 200 5 33 16 96 24 140 24 122 34 182 46 275 6 47 17 119 25 160 14 76 50
352 60 470 9 96 53 461 70 570 20 130 33 255 40 380 4 58 15 175 26 260 10 85
25 236 34 335 8 99 21 227 29 285 29 207 50 394 71 645 8 94 24 251 35 350 32
274 110 918 135 1105 7 58 26 206 40 330 15 124 40 331 57 460 38 302 77 665
103 960 4 36 19 189 35 340 16 151 34 329 40 395 18 199 24 576 11 740 -6 83
-16 229 -21 325 -34 637 -39 674 -205 1355 -89 365 -90 371 -106 516 -12 110
-11 119 9 185 12 38 26 92 32 119 6 28 17 66 25 85 19 48 67 190 93 275 34
112 62 312 62 442 0 116 -6 166 -50 408 -20 105 -22 152 -21 386 1 276 -8 386
-49 619 -23 131 -24 163 -10 191 9 16 101 66 170 93 17 7 24 11 128 79 85 56
168 95 293 137 139 46 156 47 242 11 152 -63 322 -108 440 -117 40 -3 137 -14
217 -25 80 -10 263 -24 408 -30 234 -11 277 -10 395 5 289 38 458 85 692 190
96 44 109 43 256 -14z"/>
</g>
</svg>
