<?xml version="1.0" standalone="no"?>
<!DOCTYPE svg PUBLIC "-//W3C//DTD SVG 20010904//EN"
 "http://www.w3.org/TR/2001/REC-SVG-20010904/DTD/svg10.dtd">
<svg version="1.0" xmlns="http://www.w3.org/2000/svg"
 width="1500.000000pt" height="2098.000000pt" viewBox="0 0 1500.000000 2098.000000"
 preserveAspectRatio="xMidYMid meet">
<metadata>
Created by potrace 1.16, written by Peter Selinger 2001-2019
</metadata>
<g transform="translate(0.000000,2098.000000) scale(0.100000,-0.100000)"
fill="none" stroke="grey" stroke-width="2">
<path d="M0 10490 l0 -10490 7500 0 7500 0 0 10490 0 10490 -7500 0 -7500 0 0
-10490z m5823 7595 c331 -408 438 -511 1025 -988 39 -32 264 -202 572 -431 66
-49 347 -240 553 -374 81 -53 201 -133 266 -178 271 -186 835 -524 1240 -744
56 -30 122 -68 148 -83 l46 -28 -7 -72 c-4 -40 -11 -88 -16 -107 -5 -19 -23
-107 -40 -195 -36 -190 -55 -409 -70 -800 -13 -356 -20 -455 -71 -890 -5 -49
-14 -142 -20 -205 -33 -405 -30 -380 -67 -460 -64 -139 -106 -263 -110 -325
-4 -64 21 -373 39 -483 6 -37 21 -119 34 -182 56 -269 110 -550 129 -675 8
-49 23 -142 35 -205 21 -119 67 -432 81 -555 4 -38 20 -162 34 -275 14 -113
37 -313 51 -445 41 -385 64 -588 86 -744 25 -189 50 -414 94 -846 19 -192 37
-361 40 -375 8 -38 22 -288 44 -750 11 -228 25 -485 31 -570 6 -85 20 -297 31
-470 30 -464 38 -574 49 -685 8 -86 22 -258 70 -870 5 -66 16 -167 24 -225 8
-58 20 -168 26 -245 6 -77 22 -257 36 -400 84 -879 81 -832 60 -853 -12 -13
-36 -17 -91 -19 -44 -1 -83 -7 -97 -16 -13 -8 -36 -18 -52 -21 -43 -10 -244
-90 -332 -132 -41 -19 -101 -44 -132 -55 -66 -23 -345 -87 -412 -95 -25 -2
-52 -7 -60 -9 -15 -4 -126 -14 -218 -20 -26 -1 -94 -7 -152 -13 -58 -6 -177
-13 -265 -16 -88 -3 -173 -7 -190 -10 -16 -3 -85 -10 -153 -16 -124 -10 -472
-79 -637 -126 -147 -42 -257 -74 -300 -89 -129 -44 -388 -116 -465 -129 -14
-2 -63 -11 -110 -20 -125 -23 -268 -37 -525 -52 -49 -2 -97 -6 -105 -9 -17 -4
-113 -13 -235 -20 -98 -6 -235 -15 -295 -20 -457 -40 -786 -40 -1075 2 -113
16 -158 33 -210 79 l-30 27 3 111 c4 169 21 508 33 631 13 146 44 465 69 700
11 105 27 262 35 350 46 485 79 747 160 1280 35 231 73 494 85 585 11 91 31
244 45 340 36 256 51 387 85 760 17 184 39 403 50 485 11 83 31 281 45 440 14
160 29 340 35 400 6 61 24 288 40 505 29 386 55 659 85 910 42 351 77 618 95
730 11 69 27 172 35 230 9 58 25 155 36 215 11 61 26 148 34 196 8 47 22 119
30 160 17 78 69 458 111 814 32 276 47 626 39 905 -7 248 -58 885 -75 940 -6
19 -15 103 -20 185 -15 225 -39 416 -66 507 -3 10 -41 65 -84 123 -44 58 -86
118 -94 134 -18 33 -142 151 -177 167 -13 6 -42 21 -64 32 -22 12 -59 30 -82
41 -23 12 -45 25 -48 31 -3 5 -13 10 -22 10 -8 0 -31 13 -49 30 -19 16 -47 33
-62 36 -30 8 -69 32 -121 77 -18 16 -45 34 -60 40 -14 6 -42 25 -62 42 -20 16
-69 57 -109 90 -40 33 -111 95 -158 137 -74 69 -119 104 -297 236 -24 17 -50
32 -58 32 -7 0 -23 14 -35 30 -13 17 -28 30 -35 30 -7 0 -18 9 -25 20 -7 12
-21 24 -32 28 -26 10 -158 139 -175 172 -8 16 -26 37 -40 48 -28 22 -64 72
-91 125 -9 17 -58 91 -109 162 -89 126 -185 288 -185 314 0 14 71 99 188 225
129 139 417 408 689 643 94 81 225 200 353 319 48 45 132 112 186 150 123 85
185 131 294 215 47 36 141 98 210 139 69 41 145 88 170 106 73 52 599 320 700
356 18 7 29 -5 193 -207z"/>
</g>
</svg>
