<?xml version="1.0" standalone="no"?>
<!DOCTYPE svg PUBLIC "-//W3C//DTD SVG 20010904//EN"
 "http://www.w3.org/TR/2001/REC-SVG-20010904/DTD/svg10.dtd">
<svg version="1.0" xmlns="http://www.w3.org/2000/svg"
 width="1500.000000pt" height="2098.000000pt" viewBox="0 0 1500.000000 2098.000000"
 preserveAspectRatio="xMidYMid meet">
<metadata>
Created by potrace 1.16, written by Peter Selinger 2001-2019
</metadata>
<g transform="translate(0.000000,2098.000000) scale(0.100000,-0.100000)"
fill="none" stroke="grey" stroke-width="2">
<path d="M0 10490 l0 -10490 7500 0 7500 0 0 10490 0 10490 -7500 0 -7500 0 0
-10490z m6600 7789 c113 -76 258 -129 455 -165 84 -15 155 -18 435 -19 226 0
361 4 415 13 183 29 375 99 488 176 46 31 71 33 116 5 19 -11 96 -49 170 -84
75 -35 204 -95 286 -135 83 -40 173 -81 200 -91 69 -27 88 -43 87 -76 -1 -39
-45 -323 -93 -603 -111 -650 -92 -983 77 -1312 60 -117 173 -234 276 -288 37
-19 69 -40 72 -46 2 -5 0 -32 -5 -60 -61 -361 -175 -1202 -199 -1469 -6 -66
-25 -199 -42 -295 -19 -104 -33 -220 -36 -287 -3 -108 -2 -114 21 -137 13 -13
42 -27 65 -31 62 -10 67 -22 54 -116 -13 -93 -16 -99 -43 -99 -11 0 -31 -11
-44 -25 -35 -34 -33 -72 20 -279 25 -97 57 -247 70 -334 34 -220 109 -821 140
-1123 14 -139 34 -318 45 -398 19 -148 27 -234 55 -626 15 -207 24 -302 59
-655 16 -162 34 -366 72 -825 44 -544 53 -664 69 -935 8 -146 17 -296 20 -335
3 -38 12 -167 20 -285 9 -118 25 -325 35 -460 11 -135 29 -405 40 -600 11
-195 27 -434 35 -530 8 -96 19 -242 25 -325 6 -82 22 -280 35 -440 13 -159 34
-450 45 -645 11 -195 27 -431 35 -525 14 -166 20 -243 50 -705 23 -342 45
-790 52 -1037 l6 -222 -24 -10 c-14 -5 -31 -16 -38 -25 -28 -34 -284 -96 -536
-131 -192 -27 -302 -67 -418 -153 -32 -24 -81 -55 -108 -69 -48 -24 -56 -25
-162 -18 -62 3 -146 11 -187 16 -41 5 -133 17 -205 25 -217 24 -254 30 -400
60 -144 29 -226 66 -282 124 -35 37 -43 55 -57 119 -9 42 -21 121 -26 176 -15
150 -27 252 -65 560 -38 313 -72 639 -110 1070 -49 553 -53 593 -64 613 -6 11
-11 39 -11 62 0 43 -20 103 -40 115 -20 12 -82 8 -97 -7 -15 -15 -43 -133 -43
-181 0 -15 -6 -38 -14 -50 -8 -14 -18 -83 -25 -187 -32 -445 -113 -1267 -187
-1885 -6 -48 -27 -157 -59 -299 -10 -44 -25 -80 -43 -101 -15 -17 -44 -59 -64
-93 -27 -44 -53 -71 -93 -97 -30 -19 -61 -35 -68 -35 -7 0 -17 -4 -23 -9 -13
-12 -152 -59 -194 -66 -71 -11 -216 -24 -245 -21 -16 1 -43 -1 -60 -5 -43 -11
-194 -21 -312 -21 -84 0 -112 4 -150 22 -75 34 -105 51 -144 82 -20 15 -43 28
-50 28 -7 0 -22 8 -33 18 -48 41 -346 154 -600 227 -106 31 -243 105 -314 170
-5 4 30 468 68 920 16 193 41 501 55 685 14 184 43 562 65 840 36 456 49 631
80 1085 5 77 12 208 15 290 4 83 15 269 25 415 11 146 24 355 30 465 6 110 15
252 20 315 5 63 16 277 25 475 30 737 39 887 91 1595 19 269 73 924 79 975 5
39 40 469 70 855 15 193 65 767 86 990 39 421 76 689 125 925 14 66 31 154 39
195 7 41 20 93 28 115 25 72 29 127 11 170 -22 54 -15 160 15 208 15 24 21 51
21 90 0 31 5 67 11 80 9 19 6 52 -9 143 -12 66 -28 180 -37 254 -30 246 -129
979 -150 1110 -7 47 -30 184 -49 305 -19 121 -38 234 -41 252 -6 32 -5 32 82
74 109 52 204 144 278 269 132 226 178 472 155 840 -20 331 -45 494 -162 1057
-8 39 -8 56 1 67 6 7 69 39 139 71 251 113 488 226 557 265 39 22 77 40 85 40
8 0 35 -14 60 -31z"/>
</g>
</svg>
