<?xml version="1.0" standalone="no"?>
<!DOCTYPE svg PUBLIC "-//W3C//DTD SVG 20010904//EN"
 "http://www.w3.org/TR/2001/REC-SVG-20010904/DTD/svg10.dtd">
<svg version="1.0" xmlns="http://www.w3.org/2000/svg"
 width="1500.000000pt" height="2098.000000pt" viewBox="0 0 1500.000000 2098.000000"
 preserveAspectRatio="xMidYMid meet">
<metadata>
Created by potrace 1.16, written by Peter Selinger 2001-2019
</metadata>
<g transform="translate(0.000000,2098.000000) scale(0.100000,-0.100000)"
fill="none" stroke="grey" stroke-width="2">
<path d="M0 10490 l0 -10490 7500 0 7500 0 0 10490 0 10490 -7500 0 -7500 0 0
-10490z m9025 7785 c55 -8 129 -18 165 -22 l65 -8 6 -320 c4 -204 12 -364 22
-440 9 -66 17 -121 17 -122 0 -2 -9 -3 -19 -3 -23 0 -51 -36 -51 -65 0 -11 15
-57 34 -102 19 -45 44 -112 55 -149 29 -93 74 -368 67 -407 -11 -58 -63 -154
-115 -211 -55 -61 -63 -89 -33 -126 17 -21 27 -23 140 -24 139 -1 137 0 172
-91 65 -167 252 -500 341 -606 21 -26 39 -55 39 -66 0 -26 28 -63 48 -63 9 -1
39 -20 65 -43 l48 -43 -7 -353 -7 -353 -39 -58 c-21 -32 -38 -70 -38 -84 0
-15 -6 -39 -13 -54 -12 -24 -36 -105 -67 -227 -9 -38 -9 -37 -4 15 3 30 12 74
20 98 29 88 7 135 -64 135 -37 0 -50 -8 -119 -69 -76 -67 -132 -112 -183 -146
-14 -10 -51 -35 -84 -58 -32 -22 -60 -40 -63 -40 -13 0 -73 -54 -78 -71 -4
-12 -19 -22 -36 -26 -36 -7 -99 -75 -99 -107 0 -38 31 -68 71 -68 36 0 99 35
129 71 8 10 46 31 84 46 68 26 70 27 99 10 16 -10 47 -18 69 -18 31 0 47 7 76
36 39 37 91 67 117 67 8 0 24 15 35 33 19 31 20 31 20 7 0 -14 -13 -50 -30
-80 -22 -41 -29 -69 -30 -110 0 -55 -16 -116 -37 -141 -17 -22 -73 -131 -73
-143 0 -7 -13 -52 -29 -101 -29 -92 -58 -295 -48 -337 3 -13 0 -31 -9 -42 -18
-25 -18 -78 -1 -114 14 -28 11 -132 -14 -432 -31 -368 -6 -1045 51 -1419 25
-163 21 -192 -27 -191 -16 1 -56 -2 -89 -6 -93 -10 -235 30 -347 99 -65 40
-121 41 -154 3 -25 -30 -29 -56 -11 -89 17 -32 12 -175 -7 -227 -27 -72 -29
-103 -8 -129 27 -34 89 -33 135 2 46 35 100 57 142 57 74 0 97 -89 55 -213
-49 -144 -109 -233 -276 -408 -109 -114 -120 -136 -85 -179 30 -37 76 -29 167
28 117 72 136 80 211 92 38 6 76 18 84 26 11 10 17 46 21 122 14 261 58 436
145 582 31 52 61 110 67 130 l11 35 7 -50 c57 -372 99 -849 99 -1130 0 -83 7
-173 20 -250 22 -130 26 -215 10 -215 -33 0 -215 280 -266 411 -29 73 -47 96
-79 99 -55 6 -64 0 -111 -72 -26 -40 -52 -85 -58 -100 -6 -16 -18 -28 -26 -28
-9 0 -29 -14 -46 -31 -101 -107 -510 -302 -702 -334 -67 -11 -93 -67 -54 -116
18 -21 29 -23 188 -30 213 -10 270 -16 367 -40 162 -39 195 -104 123 -247 -38
-75 -90 -128 -162 -161 -67 -32 -126 -41 -235 -39 -95 3 -102 2 -120 -21 -39
-48 -20 -92 54 -125 68 -30 133 -100 142 -154 15 -91 -46 -186 -143 -222 -34
-13 -98 -25 -162 -30 -90 -7 -107 -11 -122 -30 -29 -36 -22 -64 31 -126 69
-81 135 -197 161 -282 31 -101 45 -116 106 -113 144 8 145 8 244 -41 91 -45
304 -184 425 -277 67 -51 117 -58 147 -21 28 34 22 64 -24 120 -203 248 -351
502 -435 747 -24 70 -27 92 -27 228 -1 148 -1 151 29 205 40 73 85 103 145 97
33 -4 50 -12 68 -34 30 -36 103 -181 143 -281 33 -84 44 -99 74 -102 46 -5 65
1 81 26 16 24 16 31 -4 127 -49 237 -56 299 -57 482 0 180 0 180 29 238 43 84
93 114 161 96 84 -23 122 -150 164 -554 24 -218 69 -995 76 -1295 1 -41 10
-205 20 -365 10 -159 19 -328 20 -375 1 -47 5 -152 9 -235 5 -82 9 -231 10
-330 1 -99 5 -236 9 -305 4 -69 9 -228 12 -355 3 -126 7 -291 11 -365 8 -203
6 -1486 -4 -1880 -5 -190 -5 -424 -1 -520 4 -96 10 -242 14 -325 3 -82 10
-166 15 -185 5 -19 16 -99 26 -178 15 -132 15 -146 0 -185 -9 -24 -16 -56 -16
-72 0 -40 -8 -50 -51 -68 -20 -8 -45 -29 -55 -46 -10 -17 -23 -31 -29 -31 -6
0 -26 -16 -45 -35 -19 -19 -38 -35 -44 -35 -5 0 -23 -11 -40 -23 -17 -13 -43
-27 -58 -30 -15 -4 -40 -12 -55 -19 -24 -10 -98 -20 -143 -18 -131 3 -198 8
-209 14 -7 4 -36 9 -65 11 -29 2 -71 8 -93 14 -46 13 -156 17 -172 7 -6 -4
-46 -9 -89 -11 -81 -3 -107 -9 -133 -32 -9 -7 -27 -16 -40 -18 -180 -35 -266
-40 -561 -32 -113 3 -152 8 -171 20 -14 9 -35 18 -48 20 -13 2 -37 9 -52 15
-16 7 -33 12 -39 12 -5 0 -21 9 -35 20 -14 11 -34 20 -44 20 -10 0 -34 18 -54
39 -22 23 -51 43 -73 48 -94 24 -264 -6 -300 -52 -14 -18 -22 -20 -47 -13 -28
7 -78 3 -99 -10 -5 -2 -36 -6 -70 -8 -33 -2 -83 -6 -111 -9 -27 -3 -77 -5
-110 -5 -98 3 -368 4 -395 2 -14 -1 -119 1 -235 4 -246 8 -258 8 -350 2 -38
-2 -87 -1 -107 4 -33 7 -104 13 -253 23 -27 1 -65 6 -83 9 -19 4 -58 8 -88 11
-29 2 -62 9 -73 14 -11 6 -33 13 -50 14 -16 2 -36 8 -43 14 -7 6 -38 16 -68
22 -30 6 -68 18 -84 26 -15 8 -71 22 -124 30 -81 13 -100 20 -117 41 -13 17
-32 26 -55 27 -85 6 -109 53 -90 180 7 48 10 151 8 246 -3 163 -3 164 20 172
12 5 25 15 28 24 4 8 15 15 25 15 26 0 52 44 47 80 -4 24 -2 27 9 18 23 -18
95 -13 112 8 9 11 31 26 49 33 43 18 62 47 62 92 0 45 -26 78 -62 81 -22 2
-27 6 -22 21 25 78 -117 160 -168 97 -10 -12 -18 -34 -18 -49 0 -38 35 -91 62
-92 l23 -2 -22 -4 c-29 -6 -53 -40 -53 -76 0 -27 -1 -28 -22 -13 -12 9 -30 16
-39 16 -27 0 -39 54 -39 169 l0 106 33 2 c36 3 67 33 67 67 0 12 -20 50 -44
84 -24 34 -49 81 -55 105 -14 47 -11 385 3 390 4 1 27 -17 49 -39 28 -27 69
-52 121 -74 95 -38 143 -41 168 -10 25 30 23 60 -6 103 -14 20 -28 53 -32 74
-4 21 -19 50 -34 65 -15 14 -33 40 -40 57 -17 43 -34 54 -82 54 -33 0 -46 -6
-63 -27 -24 -30 -41 -33 -67 -9 -16 14 -18 33 -17 157 0 78 3 148 7 156 4 8
21 16 37 18 37 3 65 35 65 72 0 16 -21 68 -47 117 l-48 88 -3 187 c-3 178 -2
189 17 214 25 31 26 45 6 99 -9 26 -12 62 -9 100 2 33 9 258 14 500 16 708 39
1321 56 1443 10 75 13 142 9 200 -6 77 1 264 22 591 5 86 10 108 26 124 l21
21 14 -40 c13 -38 12 -134 -4 -224 -8 -50 19 -82 70 -82 35 0 44 7 96 64 133
147 291 206 329 122 24 -54 5 -156 -50 -266 -34 -67 -36 -88 -11 -118 27 -33
76 -29 156 14 58 31 76 36 129 35 52 -1 63 2 79 21 23 28 23 61 1 131 -12 38
-17 86 -17 164 1 98 4 120 33 200 18 50 35 100 38 112 8 34 -20 70 -61 77 -52
10 -219 -36 -334 -92 -53 -26 -114 -53 -134 -60 -46 -16 -141 -17 -197 -2 -28
7 -53 8 -76 1 -27 -7 -35 -6 -35 4 0 7 -12 27 -26 44 -24 29 -25 34 -20 123 3
51 7 113 8 138 6 188 20 320 40 383 21 67 21 70 4 102 -10 18 -15 41 -12 51 6
22 23 267 55 824 6 102 14 199 16 216 12 74 101 35 193 -84 13 -18 28 -24 56
-24 77 0 81 19 92 412 6 253 6 266 -13 289 -14 17 -29 23 -57 23 -21 0 -42 -4
-48 -10 -5 -5 -55 -99 -110 -208 l-100 -199 6 80 c3 44 10 175 16 290 7 145
15 223 27 254 12 33 14 57 8 100 -11 76 -11 167 -1 344 9 149 19 190 29 117 8
-60 38 -114 67 -120 39 -9 70 0 87 27 15 22 14 34 -12 161 -15 75 -35 199 -45
275 -18 143 -32 177 -72 177 -21 0 -21 -2 -7 97 9 55 19 86 35 106 18 21 24
41 24 76 0 67 35 133 79 147 51 16 71 47 71 106 0 101 24 141 144 245 47 40
22 114 -39 115 -28 0 -207 -41 -249 -58 -19 -7 -19 -2 -13 184 3 105 10 199
15 209 6 11 9 141 7 309 -2 160 0 296 4 303 4 6 52 15 112 21 88 7 106 12 121
30 23 29 23 58 -2 111 -11 24 -20 58 -20 75 0 47 -28 76 -74 76 -43 0 -81 -30
-112 -88 -10 -19 -21 -34 -25 -34 -3 0 -9 96 -12 213 -5 201 -20 356 -51 547
-8 54 -10 87 -4 91 13 9 93 0 149 -16 78 -22 129 3 129 65 0 38 -41 103 -70
110 -24 7 -93 1 -187 -15 -62 -11 -58 17 7 50 88 45 117 130 63 184 -19 19
-48 31 -90 40 -61 13 -63 15 -69 50 -3 20 -19 90 -34 156 -16 66 -34 147 -40
180 -7 33 -20 87 -31 119 -10 33 -19 63 -19 67 0 24 136 58 174 43 14 -5 14
-9 -4 -31 -39 -50 -23 -106 73 -256 43 -65 62 -87 79 -88 76 -4 103 23 93 91
-8 55 -70 246 -89 275 -8 12 -11 27 -6 34 4 8 84 24 196 42 104 16 211 33 237
39 71 15 75 14 87 -29 13 -49 30 -63 77 -63 47 0 70 27 79 93 4 27 12 53 18
58 6 5 74 29 150 51 76 23 154 49 173 56 l34 14 18 -43 c28 -64 33 -99 33
-213 -1 -124 10 -146 73 -146 48 0 65 18 90 99 21 66 48 113 94 160 56 58 40
92 -73 163 -31 19 -56 38 -56 42 0 4 24 17 53 30 28 12 120 56 202 97 120 59
160 75 199 76 38 2 54 7 68 25 10 12 18 28 18 35 0 7 37 35 83 61 45 26 114
67 152 93 69 45 72 46 175 52 58 4 168 17 245 28 162 24 175 32 175 110 0 46
-28 122 -50 136 -26 16 -80 7 -111 -19 -47 -39 -58 -31 -16 12 29 30 45 38 74
39 44 1 73 31 73 74 0 22 21 54 92 134 50 58 100 105 109 105 25 0 59 47 59
81 0 20 21 58 63 117 35 48 101 142 146 210 57 83 89 122 102 122 26 0 52 44
46 78 -4 21 13 62 75 180 45 85 86 152 94 152 23 0 47 47 41 82 -3 26 9 59 62
161 36 71 73 141 82 155 8 15 25 47 38 70 19 37 26 43 44 38 12 -4 67 -13 122
-21z"/>
<path d="M8400 16650 c-16 -4 -35 -24 -56 -61 -41 -69 -187 -219 -236 -242
-97 -45 -72 -133 44 -157 77 -17 137 -42 178 -76 20 -18 42 -26 67 -26 55 0
69 24 77 129 4 48 11 124 17 168 14 119 12 217 -6 242 -16 23 -48 32 -85 23z"/>
<path d="M9043 16362 c-31 -5 -53 -39 -53 -82 0 -68 49 -100 124 -79 61 17 87
83 49 127 -19 21 -84 40 -120 34z"/>
<path d="M9095 15866 c-27 -7 -64 -20 -80 -28 -41 -22 -97 -110 -94 -146 2
-15 -4 -38 -14 -52 -9 -13 -17 -38 -17 -55 -1 -16 -7 -41 -15 -55 -35 -62 -5
-123 61 -123 34 0 51 9 110 56 38 31 89 63 113 72 51 17 124 20 152 5 53 -29
64 -137 24 -235 -30 -72 -31 -86 -7 -115 29 -36 80 -30 144 18 101 75 162 91
209 53 21 -17 24 -28 23 -84 -1 -115 -84 -255 -273 -465 -117 -129 -127 -150
-93 -192 31 -38 79 -30 166 29 105 70 168 100 234 112 87 15 93 27 86 163 -7
131 12 264 54 372 23 60 26 82 24 164 -3 126 -11 136 -128 171 -205 60 -381
153 -474 249 -90 94 -120 106 -205 86z"/>
<path d="M7233 15832 c-44 -7 -67 -68 -42 -113 29 -56 -20 -84 -179 -104 -97
-12 -120 -18 -134 -36 -22 -26 -23 -61 -3 -99 34 -65 48 -178 43 -343 -6 -192
-1 -203 89 -198 15 1 41 28 86 89 110 150 182 206 332 259 136 48 352 3 488
-101 27 -21 49 -29 79 -29 56 0 78 27 78 97 0 106 -87 233 -225 326 -99 66
-134 83 -289 134 -75 25 -164 60 -198 78 -74 38 -95 45 -125 40z"/>
<path d="M8462 15832 c-35 -5 -54 -45 -63 -135 -8 -82 -49 -230 -88 -320 -26
-59 -26 -78 -3 -107 13 -16 29 -22 55 -22 34 0 46 8 130 95 56 57 113 105 146
123 47 25 60 39 93 99 42 78 48 130 20 164 -14 18 -29 22 -84 24 -63 3 -71 6
-105 39 -40 37 -62 46 -101 40z"/>
<path d="M7528 14944 c-76 -18 -114 -39 -228 -123 -52 -39 -120 -84 -150 -99
-65 -33 -83 -67 -60 -110 27 -47 77 -54 310 -41 209 11 309 28 405 69 66 28
175 101 229 152 51 50 58 81 27 119 -18 22 -26 24 -98 22 -43 -1 -116 5 -162
13 -103 17 -197 17 -273 -2z"/>
<path d="M6860 14740 c-30 -7 -72 -82 -67 -122 2 -16 -2 -29 -9 -32 -7 -3 -25
-28 -39 -55 -14 -28 -45 -72 -68 -99 -54 -61 -107 -151 -107 -183 0 -14 7 -34
15 -46 14 -20 13 -21 -20 -21 -20 0 -43 -6 -52 -13 -34 -29 -113 -143 -113
-164 0 -69 113 -96 147 -36 17 28 17 28 33 8 24 -29 97 -28 122 3 34 41 12
120 -33 120 -19 0 -37 25 -26 36 3 3 20 1 39 -4 24 -7 47 -5 81 6 45 14 47 14
65 -8 28 -34 98 -32 129 4 31 36 29 66 -13 204 -37 120 -57 222 -43 222 4 0
24 15 43 34 43 40 46 72 11 114 -27 32 -55 42 -95 32z"/>
<path d="M7114 13726 c-23 -6 -59 -27 -81 -47 -26 -23 -92 -58 -203 -105 -118
-50 -175 -79 -203 -106 -22 -21 -46 -38 -53 -38 -44 0 -194 -237 -194 -307 0
-48 29 -76 78 -76 51 0 87 23 110 69 19 40 47 57 169 103 117 43 195 54 347
49 155 -6 251 -31 391 -105 108 -55 174 -63 206 -24 37 45 21 86 -46 126 -67
39 -213 163 -264 224 -25 29 -72 94 -105 144 -67 101 -84 111 -152 93z"/>
<path d="M5965 13532 c-11 -2 -51 -23 -90 -46 -38 -23 -92 -52 -120 -63 -93
-39 -100 -107 -15 -152 156 -83 217 -129 268 -203 32 -47 59 -60 108 -50 47 9
57 39 45 146 -6 52 -11 119 -11 148 0 43 -7 63 -40 119 -23 37 -49 73 -58 82
-20 17 -59 26 -87 19z"/>
<path d="M7913 12883 c-28 -5 -63 -48 -63 -77 0 -31 27 -64 64 -80 45 -19 80
-68 106 -148 25 -79 37 -91 90 -91 71 0 81 23 100 221 16 177 10 183 -179 181
-53 -1 -106 -4 -118 -6z"/>
<path d="M7240 12862 c-35 -11 -57 -53 -45 -88 7 -20 28 -37 75 -60 43 -22 84
-54 120 -93 35 -38 64 -60 80 -62 55 -5 71 1 88 33 9 17 38 55 65 85 67 76 60
120 -26 165 -37 20 -59 23 -187 25 -80 1 -156 -1 -170 -5z"/>
<path d="M7665 12503 c-95 -27 -110 -78 -42 -150 37 -38 48 -45 82 -45 45 0
69 22 85 80 14 53 12 77 -7 100 -25 28 -60 33 -118 15z"/>
<path d="M7030 12310 c-31 -8 -55 -49 -47 -81 8 -32 145 -149 218 -186 51 -26
65 -28 229 -34 96 -4 190 -12 208 -17 45 -15 90 -4 109 25 14 21 14 32 5 74
-7 28 -12 63 -12 78 0 63 -53 90 -128 64 -95 -32 -293 -14 -423 38 -87 35
-132 46 -159 39z"/>
<path d="M6516 12252 c-34 -7 -141 -82 -168 -119 -52 -69 -32 -126 62 -177 67
-36 126 -39 152 -6 22 27 23 59 3 86 -20 27 -19 35 15 85 16 24 30 53 30 64 0
45 -44 77 -94 67z"/>
<path d="M8414 12222 c-12 -2 -64 -40 -116 -85 -129 -114 -202 -157 -287 -172
-64 -11 -90 -63 -55 -113 8 -12 41 -38 72 -58 79 -50 117 -88 167 -165 44 -67
62 -79 113 -71 32 5 49 36 76 138 12 49 47 174 76 278 49 173 52 191 39 214
-15 27 -49 40 -85 34z"/>
<path d="M9370 12042 c-40 -11 -81 -35 -90 -52 -20 -37 -24 -108 -8 -132 25
-38 204 -140 246 -140 47 0 72 30 72 86 -1 51 -9 65 -94 159 -65 71 -93 89
-126 79z"/>
<path d="M5553 11882 c-27 -4 -53 -38 -53 -67 0 -11 14 -40 31 -65 60 -89 113
-213 148 -346 14 -53 40 -76 87 -76 52 0 70 24 77 109 6 77 30 157 58 192 39
49 15 102 -54 120 -24 6 -72 30 -106 53 -101 69 -143 87 -188 80z"/>
<path d="M6193 11682 c-26 -4 -53 -37 -53 -66 0 -11 13 -40 30 -65 38 -60 60
-147 60 -237 0 -88 17 -116 72 -116 48 0 54 4 83 62 14 27 45 72 70 100 55 62
58 91 14 129 -17 14 -70 62 -119 107 -85 79 -111 93 -157 86z"/>
<path d="M7032 11582 c-33 -5 -56 -45 -49 -88 5 -27 1 -40 -13 -54 -25 -25
-45 -29 -169 -33 -94 -3 -105 -5 -122 -26 -23 -28 -24 -55 -3 -112 25 -71 30
-265 9 -392 -16 -98 -16 -109 -1 -131 16 -25 44 -34 84 -28 14 3 47 36 86 86
143 183 255 246 413 233 83 -6 200 -63 296 -142 56 -46 76 -57 105 -57 53 0
72 28 72 106 -1 71 -15 115 -61 193 -76 126 -193 225 -369 313 -58 29 -127 68
-154 87 -53 38 -88 51 -124 45z"/>
<path d="M8889 11400 c-15 -4 -52 -28 -83 -53 -74 -61 -90 -69 -149 -73 -61
-4 -80 -20 -121 -101 -17 -34 -44 -87 -60 -118 -27 -50 -28 -59 -18 -89 24
-66 7 -121 -72 -231 -20 -27 -36 -60 -36 -71 0 -28 29 -62 55 -65 54 -4 64 4
198 155 128 145 211 219 324 289 23 15 47 36 53 46 13 25 40 173 40 223 0 66
-64 109 -131 88z"/>
<path d="M8250 11290 c-14 -3 -30 -17 -37 -30 -36 -75 -73 -164 -73 -180 0
-64 106 -87 138 -30 9 16 22 30 29 30 6 0 21 12 33 27 18 23 20 35 14 82 -10
89 -39 117 -104 101z"/>
<path d="M7215 10666 c-65 -16 -81 -25 -202 -113 -56 -40 -127 -85 -158 -99
-58 -27 -85 -55 -85 -90 0 -43 30 -63 125 -84 215 -47 475 -6 683 107 165 91
211 146 165 202 -15 17 -32 22 -103 25 -55 3 -123 15 -190 35 -113 33 -156 36
-235 17z"/>
<path d="M6623 10463 c-49 -9 -69 -81 -35 -124 15 -18 29 -22 67 -22 38 0 52
4 67 22 48 61 -15 139 -99 124z"/>
<path d="M6553 10252 c-30 -4 -35 -13 -78 -122 -20 -52 -86 -194 -146 -316
-60 -121 -109 -230 -109 -240 0 -30 27 -61 57 -67 15 -3 53 3 83 13 140 46
196 48 315 11 69 -22 109 -18 130 12 21 30 20 40 -26 188 -22 72 -60 208 -84
301 -24 94 -51 180 -59 193 -15 23 -45 33 -83 27z"/>
<path d="M6872 9312 c-13 -2 -33 -19 -46 -40 -37 -58 -62 -76 -206 -147 -162
-80 -226 -126 -287 -208 -70 -96 -153 -275 -153 -332 0 -67 93 -93 138 -38
144 172 272 243 439 243 203 0 378 -80 496 -225 100 -124 221 -405 234 -541 3
-38 13 -74 22 -86 24 -29 85 -27 119 5 80 73 202 128 322 146 79 12 110 33
110 73 0 39 -23 59 -119 107 -202 102 -418 266 -572 436 -134 147 -285 352
-372 506 -54 95 -71 110 -125 101z"/>
<path d="M5866 9042 c-10 -2 -69 -54 -130 -114 -61 -61 -135 -129 -164 -151
-56 -42 -72 -64 -72 -95 0 -30 37 -70 71 -77 80 -18 145 -58 222 -137 69 -71
82 -80 115 -80 26 0 42 7 55 23 21 26 20 52 -7 169 -18 78 -20 245 -5 340 10
59 10 73 -4 93 -16 25 -47 36 -81 29z"/>
<path d="M5160 8880 c-19 -4 -39 -31 -87 -120 -35 -63 -63 -125 -63 -136 0
-34 31 -65 66 -66 17 -1 65 13 107 31 42 17 82 31 91 31 20 0 56 48 56 75 0
12 -16 42 -35 66 -19 24 -35 51 -35 59 0 44 -48 72 -100 60z"/>
<path d="M6013 8252 c-48 -7 -68 -72 -35 -112 39 -48 132 -17 132 44 0 48 -41
76 -97 68z"/>
<path d="M5810 8091 c-52 -14 -63 -80 -22 -131 27 -33 89 -31 119 5 29 33 29
67 1 98 -26 28 -61 38 -98 28z"/>
<path d="M7052 8042 c-48 -7 -55 -39 -49 -205 8 -235 46 -319 200 -435 128
-97 172 -150 196 -236 8 -29 6 -40 -9 -58 -17 -21 -20 -22 -81 -10 -35 6 -111
17 -169 22 -58 6 -127 18 -154 25 -27 8 -52 12 -57 9 -5 -3 -12 2 -15 10 -3 8
-34 36 -69 62 -94 69 -136 140 -150 257 -9 72 11 212 42 302 36 99 38 126 16
154 -15 18 -29 24 -60 24 -55 0 -116 -51 -179 -146 -99 -151 -149 -312 -165
-532 -5 -71 -11 -157 -15 -190 -5 -50 -3 -64 13 -84 23 -28 80 -31 115 -7 31
22 42 20 83 -15 25 -22 45 -31 70 -31 45 0 62 14 76 63 19 60 40 74 91 60 24
-7 50 -13 58 -14 8 -2 26 -14 40 -28 34 -34 152 -90 295 -140 149 -53 200 -90
301 -221 75 -97 84 -104 139 -98 36 3 55 34 90 149 56 183 43 276 -59 411 -32
44 -48 76 -56 118 -19 98 -40 142 -106 217 -92 106 -104 148 -59 220 42 68 26
127 -38 140 -59 13 -111 47 -192 125 -80 77 -100 89 -143 82z"/>
<path d="M7690 7679 c-43 -12 -80 -51 -80 -85 0 -40 39 -68 135 -98 159 -49
251 -122 332 -261 51 -87 71 -162 79 -285 5 -71 2 -117 -11 -180 -28 -137 -29
-153 -8 -179 22 -27 85 -32 111 -7 29 25 131 68 167 69 23 1 39 -6 52 -20 10
-12 27 -23 38 -24 54 -4 65 2 99 56 48 74 91 95 193 95 43 0 95 -4 116 -9 50
-12 89 0 107 32 26 46 6 74 -95 134 -49 29 -111 75 -136 102 -47 50 -99 158
-99 205 0 13 -8 34 -18 46 -15 18 -27 22 -63 21 -24 -2 -55 -3 -69 -3 -47 -2
-105 36 -215 142 -128 123 -201 181 -267 209 -103 44 -281 63 -368 40z"/>
<path d="M5815 6973 c-33 -8 -43 -22 -59 -76 -27 -93 -112 -226 -328 -514 -62
-83 -71 -115 -40 -153 30 -37 82 -30 139 18 114 95 225 138 268 102 20 -17 84
-15 102 3 20 20 63 281 63 383 0 87 -24 173 -58 213 -19 21 -56 31 -87 24z"/>
<path d="M6273 6772 c-29 -4 -35 -13 -81 -119 -49 -114 -72 -209 -72 -305 0
-111 -25 -192 -62 -202 -14 -3 -34 9 -69 41 -38 35 -56 45 -83 45 -46 0 -54
-6 -77 -58 -30 -72 -90 -152 -198 -266 -107 -114 -117 -136 -83 -177 23 -29
62 -29 140 -2 42 14 86 21 136 21 68 0 76 -2 118 -34 25 -19 62 -60 83 -91 37
-57 94 -202 95 -241 0 -61 93 -92 132 -44 23 28 24 147 3 230 -18 69 -105 260
-127 278 -22 18 -7 80 27 110 21 18 38 22 89 22 34 0 88 -5 119 -11 39 -8 68
-9 96 -2 32 8 42 7 55 -5 9 -9 33 -15 62 -15 58 0 84 26 84 84 0 33 -9 48 -72
118 -40 45 -76 81 -81 81 -15 0 -46 44 -47 66 0 12 -13 53 -29 92 -33 80 -47
143 -56 257 -9 110 -31 138 -102 127z"/>
<path d="M8490 6531 c-20 -5 -36 -27 -75 -105 -46 -92 -49 -103 -49 -170 1
-59 9 -91 47 -191 82 -212 88 -248 85 -500 -3 -202 -1 -223 16 -255 11 -19 19
-45 17 -57 -3 -28 34 -100 59 -116 12 -6 25 -28 30 -48 12 -44 138 -168 173
-170 78 -4 97 18 97 115 0 69 -19 156 -40 181 -12 14 -13 47 -4 92 5 26 1 37
-19 57 -19 19 -22 26 -10 30 7 3 19 18 26 33 7 16 19 39 28 53 9 14 19 49 22
78 4 37 13 58 27 70 21 17 38 65 47 135 4 27 10 37 23 37 29 0 61 49 60 90 -3
51 -2 54 15 40 19 -16 76 -15 111 2 46 22 52 58 21 122 -32 65 -37 69 -90 69
-44 0 -77 -28 -77 -65 0 -20 0 -20 -17 1 -11 13 -31 23 -50 24 -27 2 -33 7
-38 32 -4 17 -9 38 -11 47 -3 9 -44 43 -92 75 -116 78 -194 156 -229 228 -30
62 -53 77 -103 66z"/>
<path d="M7842 6401 c-111 -24 -123 -52 -73 -164 33 -74 39 -79 87 -79 45 0
55 10 104 97 44 82 48 103 23 133 -25 28 -57 31 -141 13z"/>
<path d="M7733 6059 c-43 -13 -67 -49 -59 -91 3 -18 2 -38 -2 -44 -20 -30
-233 -52 -362 -37 -93 11 -120 5 -140 -29 -17 -32 -6 -75 24 -92 33 -19 208
-132 271 -176 89 -62 141 -105 242 -203 82 -80 95 -89 129 -89 27 0 43 6 56
22 24 29 23 50 -7 141 -13 42 -31 128 -41 190 -14 99 -15 130 -4 236 11 110
11 125 -4 148 -9 14 -23 25 -30 25 -8 0 -20 2 -28 4 -7 2 -28 0 -45 -5z"/>
<path d="M9795 6030 c-64 -6 -83 -12 -97 -30 -29 -36 -22 -64 33 -127 57 -65
69 -89 69 -139 0 -41 -12 -66 -51 -112 -17 -19 -29 -44 -29 -60 0 -30 25 -72
42 -72 7 0 21 -9 32 -19 21 -19 41 -24 84 -22 29 1 59 51 68 111 3 25 14 54
24 65 44 50 52 107 21 146 -18 23 -18 24 1 50 16 21 19 36 14 66 -3 21 -6 52
-6 69 1 71 -51 90 -205 74z"/>
<path d="M9390 5547 c-33 -6 -55 -19 -82 -48 -21 -21 -38 -46 -38 -54 0 -9 -7
-26 -16 -40 -13 -20 -18 -68 -15 -135 0 -8 -2 -35 -5 -60 -8 -67 16 -94 84
-94 36 0 57 6 71 19 27 24 131 219 131 245 0 13 7 20 19 20 45 0 67 79 34 119
-22 26 -118 41 -183 28z"/>
<path d="M5733 5270 c-62 -22 -140 -65 -241 -133 -152 -101 -198 -113 -249
-65 -29 27 -91 27 -114 -1 -19 -23 -39 -123 -39 -193 0 -59 23 -88 71 -91 35
-2 36 -3 22 -24 -8 -12 -13 -35 -12 -50 2 -15 -2 -38 -9 -50 -29 -52 1 -151
48 -163 60 -15 86 9 110 97 6 23 33 76 60 116 28 41 50 80 50 86 0 6 6 11 13
11 8 0 22 10 33 22 27 30 165 132 233 171 69 40 131 63 195 72 90 12 118 70
73 150 -37 65 -138 84 -244 45z"/>
<path d="M9833 4902 c-28 -4 -53 -38 -53 -72 0 -14 11 -43 23 -65 24 -43 69
-66 114 -57 29 5 63 55 63 92 0 30 -25 70 -44 70 -8 0 -19 6 -25 14 -13 16
-45 23 -78 18z"/>
<path d="M8293 4812 c-55 -8 -68 -83 -28 -162 28 -56 34 -61 75 -62 27 -1 45
5 100 32 8 4 19 19 25 34 13 37 -16 89 -70 125 -46 31 -69 38 -102 33z"/>
<path d="M5965 4781 c-48 -15 -85 -55 -85 -93 0 -11 -6 -15 -18 -11 -41 10
-86 -11 -107 -52 -14 -28 -28 -41 -45 -43 -14 -2 -31 -9 -38 -15 -19 -15 -62
-102 -79 -161 -34 -114 -64 -141 -158 -141 -50 0 -63 4 -80 23 -11 12 -32 23
-47 24 -24 2 -25 4 -12 22 34 49 2 108 -59 108 -21 0 -45 -6 -54 -13 -8 -8
-21 -14 -27 -14 -120 -5 -166 -81 -91 -149 22 -20 35 -42 35 -57 0 -43 19 -92
47 -121 15 -15 31 -28 36 -28 5 0 18 -11 29 -25 10 -13 46 -39 80 -57 33 -17
81 -51 107 -73 25 -23 54 -44 64 -48 10 -4 17 -17 17 -32 0 -34 76 -114 112
-117 20 -2 25 -6 18 -18 -4 -8 -11 -36 -15 -62 -6 -39 -3 -53 14 -81 12 -19
21 -44 21 -56 0 -31 48 -121 68 -128 9 -4 24 -15 32 -24 15 -18 34 -22 77 -20
45 2 123 155 123 244 0 25 7 43 21 55 37 31 71 110 69 161 -4 67 -2 71 24 81
27 10 96 124 96 157 0 36 -32 65 -73 65 -32 0 -45 -8 -104 -70 -83 -85 -132
-111 -201 -110 -28 1 -57 -3 -64 -9 -10 -9 -14 8 -16 87 -2 79 1 108 18 152
11 29 20 63 20 76 0 13 6 22 15 22 8 0 33 27 55 60 23 34 64 91 91 127 35 48
49 75 49 99 0 26 4 33 23 36 14 2 29 16 40 41 10 20 25 37 32 37 18 0 65 69
65 95 0 30 -26 62 -53 67 -13 3 -46 -2 -72 -11z"/>
<path d="M9342 4553 c-38 -7 -54 -45 -59 -138 l-4 -86 37 -34 c21 -19 45 -35
53 -35 8 0 25 -9 37 -21 24 -23 88 -29 107 -10 7 7 14 7 24 -1 7 -6 32 -11 55
-11 45 0 73 23 85 71 7 30 -15 75 -40 80 -9 2 -47 35 -84 73 -37 38 -74 69
-81 69 -8 0 -21 9 -30 19 -18 21 -62 31 -100 24z"/>
<path d="M8533 4202 c-51 -8 -68 -79 -35 -143 15 -30 17 -58 16 -190 -2 -135
-5 -163 -23 -204 -11 -26 -21 -55 -21 -65 0 -34 -31 -47 -110 -45 -96 2 -148
22 -166 64 -7 17 -20 34 -29 37 -8 3 -15 18 -15 33 0 37 -34 89 -62 93 -40 6
-69 -4 -85 -28 -13 -20 -13 -35 -3 -114 7 -49 10 -116 6 -147 -15 -136 -21
-157 -54 -190 -18 -17 -32 -38 -32 -47 0 -9 -13 -19 -32 -24 -52 -13 -71 -49
-75 -143 -4 -88 11 -129 45 -129 9 0 23 -9 29 -19 26 -42 179 -35 219 10 9 10
23 19 30 19 7 0 19 8 26 18 7 9 27 18 43 20 17 2 38 10 47 19 10 9 40 16 73
18 31 1 61 7 67 13 8 8 16 4 30 -13 10 -14 38 -30 61 -36 28 -7 56 -26 84 -56
36 -38 48 -45 80 -45 29 0 43 7 65 31 15 17 28 42 28 56 0 13 -25 74 -56 134
-122 244 -103 412 51 435 51 8 76 35 75 82 0 16 3 48 6 72 7 48 -48 270 -75
304 -10 11 -29 20 -48 20 -30 1 -31 2 -18 22 8 11 15 30 15 42 0 29 -37 74
-60 74 -10 0 -21 4 -24 9 -7 11 -44 17 -73 13z"/>
<path d="M6913 2823 c-50 -9 -70 -89 -35 -133 14 -17 29 -23 62 -23 52 0 80
27 80 78 0 56 -46 89 -107 78z"/>
<path d="M8502 2213 c-38 -8 -54 -44 -46 -103 9 -68 37 -102 86 -102 52 0 77
17 99 69 37 87 16 131 -66 137 -27 3 -60 2 -73 -1z"/>
<path d="M5643 2063 c-49 -9 -68 -73 -34 -114 16 -20 28 -23 88 -24 65 0 70
-2 89 -30 10 -16 28 -31 38 -33 11 -2 27 -12 35 -22 20 -23 77 -39 111 -30 32
8 55 49 47 82 -4 15 -32 47 -62 73 -43 37 -63 47 -94 49 -27 1 -45 9 -58 25
-15 18 -30 23 -78 25 -33 2 -70 1 -82 -1z"/>
<path d="M5100 1970 c-44 -15 -86 -32 -92 -38 -9 -9 -16 -8 -30 5 -10 9 -35
16 -60 16 -65 0 -78 -23 -78 -143 0 -121 8 -132 105 -158 97 -26 113 -20 154
58 20 36 62 91 98 126 66 66 76 91 48 131 -22 32 -56 32 -145 3z"/>
<path d="M8223 1883 c-29 -5 -53 -40 -53 -75 0 -24 -2 -26 -27 -19 -32 8 -33
8 -88 -3 -22 -4 -46 -13 -54 -19 -7 -6 -23 -16 -34 -22 -56 -28 -42 -111 22
-127 54 -14 241 16 263 43 10 11 21 18 26 15 5 -3 25 -1 45 5 43 12 97 70 97
105 0 29 -49 84 -77 85 -17 0 -28 2 -77 12 -12 2 -31 2 -43 0z"/>
<path d="M9660 1791 c-29 -8 -70 -64 -70 -96 0 -37 31 -62 95 -77 136 -33 242
46 172 127 -17 20 -32 27 -62 28 -22 0 -44 3 -50 7 -18 13 -59 18 -85 11z"/>
</g>
</svg>
