<?xml version="1.0" standalone="no"?>
<!DOCTYPE svg PUBLIC "-//W3C//DTD SVG 20010904//EN"
 "http://www.w3.org/TR/2001/REC-SVG-20010904/DTD/svg10.dtd">
<svg version="1.0" xmlns="http://www.w3.org/2000/svg"
 width="1500.000000pt" height="2098.000000pt" viewBox="0 0 1500.000000 2098.000000"
 preserveAspectRatio="xMidYMid meet">
<metadata>
Created by potrace 1.16, written by Peter Selinger 2001-2019
</metadata>
<g transform="translate(0.000000,2098.000000) scale(0.100000,-0.100000)"
fill="none" stroke="grey" stroke-width="2">
<path d="M0 10490 l0 -10490 7500 0 7500 0 0 10490 0 10490 -7500 0 -7500 0 0
-10490z m8137 7841 c6 -3 22 -21 35 -40 13 -19 35 -38 49 -41 14 -4 81 -54
148 -111 175 -149 367 -304 430 -347 36 -25 61 -52 77 -84 22 -44 54 -196 69
-330 8 -74 29 -100 80 -100 53 0 78 30 73 89 -2 33 0 43 12 43 17 0 209 -105
276 -151 55 -38 61 -59 46 -178 -14 -104 -5 -134 40 -143 53 -10 72 4 108 79
19 40 39 72 43 72 4 1 41 -24 82 -55 53 -40 75 -63 75 -78 0 -34 25 -60 68
-71 32 -8 57 -29 126 -103 76 -83 84 -95 73 -113 -6 -10 -19 -19 -28 -19 -9 0
-22 -7 -30 -16 -7 -8 -29 -24 -49 -34 -31 -16 -89 -62 -197 -159 -13 -11 -23
-31 -23 -43 0 -32 27 -68 50 -68 16 0 18 -5 13 -33 -7 -48 22 -80 74 -80 51 0
59 5 84 56 12 23 27 49 34 57 8 8 23 39 35 69 23 61 104 161 129 161 9 0 50
-42 91 -92 81 -99 96 -117 150 -163 19 -17 76 -75 127 -129 90 -95 92 -98 77
-121 -12 -19 -24 -23 -60 -22 -31 0 -54 -6 -74 -21 -16 -12 -33 -22 -39 -22
-14 0 -170 -120 -186 -144 -32 -45 -6 -114 45 -118 14 -1 67 9 118 21 85 21
95 27 117 60 14 19 25 41 25 48 0 18 77 93 96 93 15 0 14 -4 -8 -27 -39 -43
-58 -87 -58 -140 -1 -26 -7 -59 -15 -73 -8 -14 -14 -34 -15 -46 0 -22 -78
-203 -98 -226 -24 -30 -100 -214 -121 -293 -4 -16 -18 -52 -29 -79 -14 -30
-28 -95 -36 -170 -8 -67 -26 -168 -40 -226 -14 -58 -26 -118 -26 -133 0 -15
-7 -41 -15 -58 -9 -16 -15 -46 -15 -67 1 -20 -4 -59 -10 -87 -6 -27 -10 -72
-10 -100 0 -128 -10 -189 -45 -260 -19 -39 -35 -79 -35 -90 0 -26 27 -65 45
-65 22 0 9 -218 -17 -290 -11 -30 -26 -71 -33 -90 -9 -26 -43 -60 -126 -128
-63 -50 -138 -106 -168 -123 -84 -50 -115 -108 -211 -395 l-82 -247 12 -86
c29 -218 31 -245 21 -269 -14 -28 -14 -68 -2 -91 6 -10 12 -67 14 -127 3 -67
10 -123 20 -146 19 -46 24 -136 9 -165 -7 -12 -12 -32 -12 -45 0 -13 -5 -29
-11 -35 -12 -12 -27 -63 -39 -138 -15 -88 -31 -159 -47 -211 -10 -32 -13 -69
-10 -100 4 -27 7 -78 7 -114 1 -57 17 -176 36 -257 18 -84 82 -234 105 -249
25 -15 83 -6 101 16 23 28 23 57 -2 122 -50 136 -63 294 -36 463 14 91 17 86
40 -70 20 -138 103 -653 121 -749 22 -116 21 -131 -12 -134 -30 -2 -63 -34
-63 -60 0 -26 41 -165 55 -187 7 -12 15 -41 17 -65 3 -25 15 -70 27 -100 23
-55 25 -84 29 -313 2 -79 5 -90 26 -112 19 -19 26 -39 31 -92 3 -37 15 -153
26 -258 20 -185 20 -254 -2 -322 -21 -67 -45 -18 -28 57 13 57 2 154 -20 181
-11 14 -28 21 -53 21 -48 0 -56 -6 -80 -61 -35 -79 -42 -128 -39 -274 1 -30
117 -311 135 -326 6 -5 20 -10 31 -11 84 -9 104 24 106 170 1 88 3 98 10 60
11 -60 45 -382 64 -610 8 -102 20 -216 25 -255 14 -92 33 -421 36 -610 5 -307
10 -412 27 -491 17 -82 23 -276 11 -342 -5 -26 -1 -41 16 -64 21 -29 23 -44
31 -267 4 -130 13 -344 19 -476 25 -576 29 -726 28 -995 -2 -429 -2 -431 11
-485 19 -80 23 -264 5 -289 -21 -30 -18 -108 5 -137 21 -27 27 -68 41 -279 21
-320 30 -521 30 -650 0 -74 5 -279 12 -456 11 -320 11 -321 -10 -365 -12 -25
-22 -52 -22 -60 0 -24 -65 -97 -142 -160 -40 -32 -76 -59 -81 -59 -5 0 -21 -9
-36 -19 -15 -11 -47 -27 -72 -36 -24 -10 -62 -25 -84 -35 -22 -10 -94 -35
-160 -55 -66 -21 -124 -41 -130 -45 -5 -4 -26 -11 -45 -15 -19 -4 -53 -15 -75
-25 -22 -10 -78 -32 -125 -50 -47 -17 -98 -38 -115 -45 -105 -45 -262 -74
-290 -54 -5 4 -30 12 -55 19 -30 8 -62 28 -95 59 -27 26 -57 51 -65 57 -8 5
-27 34 -42 64 -43 90 -85 117 -156 99 -62 -16 -84 -31 -149 -95 -35 -34 -76
-70 -92 -80 -16 -11 -56 -38 -89 -61 -51 -34 -75 -45 -132 -58 -126 -28 -334
-31 -510 -6 -120 17 -215 23 -370 26 -80 1 -164 8 -188 14 -23 7 -46 10 -51 7
-4 -3 -19 6 -31 19 -13 14 -27 25 -32 25 -11 0 -55 50 -83 94 -28 46 -44 94
-51 161 -3 33 -14 71 -24 85 -10 14 -21 46 -25 70 -9 59 -48 120 -78 121 -44
2 -60 -3 -114 -39 -113 -75 -159 -101 -218 -122 -33 -12 -76 -29 -95 -39 -19
-10 -48 -22 -64 -25 -16 -4 -57 -20 -90 -35 -34 -16 -79 -34 -101 -41 -22 -7
-44 -16 -50 -20 -5 -5 -39 -18 -74 -30 -35 -13 -83 -35 -106 -51 -24 -16 -48
-29 -54 -29 -6 0 -19 -4 -29 -9 -77 -41 -119 -50 -217 -48 -116 3 -164 21
-291 110 -126 87 -188 126 -205 126 -9 1 -22 7 -28 15 -7 8 -40 28 -74 44 -65
32 -115 83 -140 144 -44 104 -45 109 -33 251 4 48 2 86 -4 98 -7 12 -7 25 -1
37 11 21 37 377 34 477 -2 102 34 921 63 1435 12 197 20 280 30 295 8 11 14
32 14 48 0 16 9 40 20 54 24 31 25 54 5 158 -34 176 -28 658 11 840 40 184 40
192 15 226 -24 32 -24 33 -17 222 5 146 11 195 23 213 13 21 14 39 5 132 -8
71 -8 167 -2 287 5 99 9 181 9 182 1 1 11 3 23 5 12 2 29 15 38 30 13 25 13
35 -3 110 -38 171 -41 239 -29 498 14 281 17 300 43 300 10 0 26 11 35 25 13
21 14 34 5 94 -16 103 -14 271 5 354 9 40 44 128 80 201 35 72 64 136 64 143
0 8 17 48 39 91 48 96 60 168 34 201 -19 23 -59 30 -99 17 -18 -5 -24 -1 -33
25 -6 18 -11 49 -11 70 0 44 41 417 69 634 11 83 25 204 31 270 16 182 40 378
49 400 7 16 10 9 16 -30 4 -27 11 -68 17 -90 5 -22 13 -59 18 -82 12 -54 48
-139 66 -154 19 -15 83 -14 100 3 29 29 70 239 79 408 8 139 -11 248 -76 440
-39 116 -42 135 -47 255 -5 167 14 256 117 537 12 32 21 68 21 82 0 39 -30 67
-74 69 l-38 2 6 55 c3 30 12 105 21 165 18 134 19 226 3 260 -10 21 -9 31 5
55 22 37 21 66 -3 106 -20 31 -20 39 -10 216 6 101 12 208 15 238 6 88 -5 151
-31 177 -32 31 -48 85 -73 238 -27 162 -40 191 -89 211 -20 8 -86 40 -147 71
-109 55 -155 92 -155 126 0 10 -11 29 -24 42 -20 20 -24 36 -29 117 -4 51 -3
123 1 160 l7 67 50 -59 c68 -81 155 -142 203 -142 53 0 75 31 91 128 12 73 11
82 -7 124 -28 65 -115 147 -218 207 -138 80 -134 77 -134 133 0 66 -16 181
-45 325 -13 66 -29 156 -34 201 -6 45 -17 101 -26 125 -8 24 -17 67 -20 94 -7
82 -88 371 -137 490 -30 72 -63 163 -112 305 -56 163 -74 196 -136 252 -29 26
-50 52 -48 58 7 22 233 221 257 227 38 9 50 21 61 64 6 21 19 43 29 49 11 5
36 32 56 60 21 29 45 50 55 50 21 0 60 45 60 69 0 9 31 48 69 87 58 58 76 71
103 72 40 1 70 34 67 71 -2 14 1 33 6 43 22 38 149 178 162 178 8 0 22 -14 31
-31 57 -103 221 -278 264 -280 12 -1 32 0 43 1 26 3 101 55 109 75 19 51 -10
103 -72 132 -20 9 -58 34 -83 55 -26 21 -51 38 -56 38 -5 0 -35 26 -67 59
l-58 58 36 29 c19 16 79 53 134 81 83 44 103 51 128 45 47 -13 77 0 100 43 17
34 36 48 130 97 60 31 123 60 139 64 17 3 36 11 43 17 29 23 49 83 50 145 1
92 37 150 155 244 254 205 290 231 325 234 40 4 58 17 78 58 9 17 32 45 51 62
28 24 38 42 42 75 6 41 8 44 46 52 22 5 204 7 405 5 201 -2 433 -1 515 2 166
6 383 1 402 -9z"/>
<path d="M7853 18233 c-12 -2 -27 -11 -33 -19 -7 -8 -21 -14 -31 -14 -21 0
-49 -36 -49 -65 0 -41 27 -62 93 -74 76 -13 122 -6 142 23 25 34 18 73 -17
110 -33 34 -65 46 -105 39z"/>
<path d="M8373 18043 c-13 -3 -30 -14 -38 -26 -27 -38 -18 -65 40 -125 30 -31
68 -84 84 -118 16 -34 34 -65 40 -69 6 -3 11 -16 11 -28 0 -81 105 -124 147
-60 15 23 15 32 -2 121 -22 118 -29 134 -97 197 -113 107 -131 118 -185 108z"/>
<path d="M7413 18033 c-46 -9 -67 -69 -38 -111 12 -16 13 -27 5 -41 -15 -30
-12 -66 9 -92 17 -22 27 -24 101 -24 74 0 84 2 101 24 10 13 19 33 19 45 0 35
-37 86 -68 92 -24 5 -28 10 -24 33 7 48 -45 85 -105 74z"/>
<path d="M7230 17640 c-31 -7 -55 -49 -46 -81 3 -13 21 -41 39 -62 28 -33 40
-39 72 -39 79 0 100 75 40 141 -37 41 -63 51 -105 41z"/>
<path d="M8213 17422 c-13 -2 -32 -15 -43 -29 -18 -23 -20 -40 -19 -145 1
-110 2 -120 24 -147 18 -21 40 -32 87 -42 76 -16 98 -14 121 13 23 28 22 49
-13 158 -48 154 -87 203 -157 192z"/>
<path d="M8662 17302 c-44 -7 -55 -42 -43 -132 6 -44 15 -89 21 -100 5 -10 10
-31 10 -46 0 -15 9 -46 19 -68 10 -23 28 -68 39 -101 25 -74 56 -138 74 -152
18 -15 46 -18 96 -9 62 11 82 47 82 147 l0 75 -60 80 c-34 43 -74 108 -91 144
-74 162 -83 172 -147 162z"/>
<path d="M6630 17240 c-50 -11 -109 -167 -145 -384 -14 -80 -34 -172 -45 -205
-24 -72 -25 -90 -5 -118 22 -31 62 -34 145 -11 78 22 110 45 110 81 0 12 11
44 24 72 41 84 47 148 30 298 -9 72 -16 152 -16 177 1 74 -33 105 -98 90z"/>
<path d="M9023 17072 c-34 -5 -53 -40 -53 -98 0 -68 22 -96 75 -96 53 0 75 28
75 96 0 78 -30 108 -97 98z"/>
<path d="M6092 16882 c-29 -4 -45 -30 -73 -115 -17 -53 -20 -75 -13 -100 6
-18 7 -52 3 -77 -13 -78 -10 -154 6 -177 22 -31 78 -37 155 -15 89 26 100 45
76 138 -9 38 -20 101 -23 139 -5 73 -25 145 -48 181 -14 22 -44 32 -83 26z"/>
<path d="M7422 16843 c-12 -2 -30 -16 -39 -30 -26 -39 -21 -232 7 -318 27 -81
47 -99 112 -99 41 0 54 5 70 24 17 21 18 33 12 99 -4 42 -7 122 -7 178 2 126
-7 142 -82 147 -27 3 -60 2 -73 -1z"/>
<path d="M9452 16842 c-29 -5 -49 -36 -57 -93 -6 -42 -4 -50 22 -79 26 -29 36
-33 78 -33 43 0 52 4 82 36 21 24 33 47 33 66 0 34 -34 81 -60 81 -10 0 -21 4
-24 9 -7 11 -44 17 -74 13z"/>
<path d="M9052 16813 c-53 -10 -67 -101 -24 -164 9 -15 30 -45 45 -68 37 -56
113 -128 140 -133 37 -7 71 7 86 34 14 24 12 35 -23 140 -21 62 -43 119 -49
126 -14 17 -94 58 -127 64 -14 3 -35 3 -48 1z"/>
<path d="M5743 16743 c-53 -10 -70 -92 -30 -139 19 -21 32 -27 67 -27 54 0 80
27 80 83 0 62 -49 97 -117 83z"/>
<path d="M8255 16272 c-34 -7 -53 -32 -74 -96 -42 -132 -54 -278 -31 -386 29
-139 42 -160 102 -163 l34 -2 -8 -60 c-4 -33 -12 -130 -18 -215 -6 -85 -13
-169 -16 -185 -8 -45 21 -77 70 -77 69 0 93 50 96 197 0 36 7 68 15 79 8 11
15 32 15 46 0 14 9 66 20 116 61 269 61 274 25 309 -22 23 -22 25 -5 25 43 0
63 79 40 161 -13 45 -28 59 -69 62 -26 2 -31 6 -31 27 0 30 -35 90 -52 90 -7
0 -20 15 -28 32 -15 33 -47 48 -85 40z"/>
<path d="M6400 16160 c-31 -7 -69 -79 -70 -130 0 -19 -5 -80 -12 -135 -25
-215 -8 -420 41 -485 11 -16 21 -37 21 -47 0 -32 38 -83 62 -84 96 -5 94 -10
103 338 6 298 6 298 -19 397 -14 54 -32 109 -40 121 -16 25 -48 34 -86 25z"/>
<path d="M8893 16122 c-31 -5 -53 -39 -53 -83 0 -53 26 -81 75 -81 49 0 75 28
75 81 0 62 -35 92 -97 83z"/>
<path d="M4653 15983 c-28 -5 -53 -39 -53 -73 0 -18 19 -43 72 -92 40 -38 79
-68 88 -68 9 0 21 -5 27 -11 20 -20 155 -89 174 -89 6 0 18 -9 27 -19 17 -19
35 -24 79 -22 29 1 73 66 73 107 0 49 -27 75 -80 77 -29 1 -50 8 -60 20 -8 10
-32 19 -55 21 -37 3 -40 6 -46 41 -8 50 -22 60 -114 85 -102 27 -106 28 -132
23z"/>
<path d="M8873 15832 c-52 -8 -81 -92 -47 -140 13 -20 14 -22 0 -22 -21 0 -48
-44 -45 -72 2 -13 -2 -33 -9 -45 -30 -54 1 -105 63 -105 46 0 78 31 74 71 -2
14 2 36 9 48 16 29 15 54 -4 81 -14 20 -14 22 1 22 20 0 55 57 55 90 0 51 -40
81 -97 72z"/>
<path d="M10143 15365 c-23 -7 -62 -16 -87 -19 -25 -4 -48 -11 -51 -17 -4 -5
-14 -9 -24 -9 -10 0 -26 -9 -35 -19 -10 -11 -35 -22 -55 -26 -31 -5 -49 -20
-99 -76 l-62 -70 0 -94 c0 -112 13 -137 73 -137 32 0 56 13 143 79 185 137
205 154 216 181 7 15 29 43 49 63 45 43 58 82 38 118 -18 32 -54 41 -106 26z"/>
<path d="M7300 15330 c-36 -8 -79 -91 -80 -153 0 -52 18 -104 43 -125 26 -22
88 -18 108 6 25 31 36 214 15 246 -16 26 -48 35 -86 26z"/>
<path d="M4815 15322 c-11 -2 -27 -10 -35 -17 -8 -6 -23 -15 -33 -18 -24 -9
-41 -50 -33 -81 3 -14 25 -38 49 -54 23 -17 51 -39 61 -51 11 -11 24 -21 30
-21 6 0 48 -32 93 -70 45 -39 86 -70 91 -70 6 0 24 -18 42 -39 33 -42 57 -54
105 -53 59 2 77 55 54 164 -15 70 -68 121 -237 226 -130 81 -152 91 -187 84z"/>
<path d="M8793 15202 c-48 -7 -68 -72 -35 -112 39 -48 132 -17 132 44 0 48
-41 76 -97 68z"/>
<path d="M7862 15142 c-35 -5 -49 -40 -56 -137 -3 -49 -9 -117 -12 -150 -8
-78 9 -102 81 -111 88 -12 128 -7 147 17 24 29 23 53 -6 127 -14 34 -34 99
-45 144 -11 44 -25 86 -31 93 -12 15 -45 22 -78 17z"/>
<path d="M5833 15112 c-27 -4 -53 -38 -53 -69 0 -12 6 -40 14 -60 8 -21 17
-58 21 -83 3 -25 14 -59 25 -75 36 -55 39 -60 44 -86 9 -41 37 -69 71 -70 17
-1 59 1 95 4 50 5 69 11 82 28 21 25 23 61 6 92 -21 41 -159 197 -174 197 -8
0 -14 10 -14 23 0 32 -45 94 -72 98 -13 3 -33 3 -45 1z"/>
<path d="M6900 15035 c-36 -9 -48 -17 -62 -45 -37 -73 -12 -132 56 -132 33 0
46 7 83 46 46 49 53 77 28 113 -19 26 -49 32 -105 18z"/>
<path d="M5382 14752 c-39 -6 -52 -40 -45 -116 8 -89 25 -109 88 -109 38 0 52
4 67 22 28 36 24 98 -11 153 -29 45 -52 57 -99 50z"/>
<path d="M8093 14743 c-32 -6 -63 -50 -63 -88 0 -35 42 -139 60 -150 26 -16
84 -7 102 15 25 31 26 169 1 198 -19 21 -63 32 -100 25z"/>
<path d="M8552 14712 c-37 -6 -54 -42 -46 -100 8 -64 36 -112 66 -113 74 -4
98 19 98 96 0 82 -46 128 -118 117z"/>
<path d="M9253 14603 c-49 -9 -69 -81 -35 -123 14 -17 29 -23 62 -23 50 0 80
27 80 73 0 51 -48 83 -107 73z"/>
<path d="M4903 14573 c-31 -6 -53 -40 -53 -81 0 -44 42 -86 95 -96 22 -4 54
-19 72 -32 17 -13 37 -24 44 -24 7 0 36 -18 65 -41 64 -49 116 -56 146 -19 31
38 23 67 -39 132 -63 65 -109 96 -199 132 -69 27 -101 34 -131 29z"/>
<path d="M6623 14562 c-46 -7 -68 -76 -39 -117 14 -21 20 -58 34 -226 11 -132
29 -157 107 -149 38 3 50 27 56 113 4 45 14 123 23 172 9 50 16 102 16 116 0
42 -29 70 -75 73 -22 2 -48 6 -57 10 -30 10 -42 12 -65 8z"/>
<path d="M9853 14471 c-11 -3 -48 -31 -82 -63 l-61 -56 0 -75 c0 -92 17 -119
72 -119 46 0 56 7 74 46 8 17 35 62 59 101 25 38 45 81 45 96 0 50 -54 86
-107 70z"/>
<path d="M8183 14062 c-36 -5 -53 -40 -53 -108 0 -81 19 -107 80 -107 65 0 84
28 75 108 -10 91 -35 117 -102 107z"/>
<path d="M6940 13780 c-41 -10 -76 -89 -84 -190 -7 -84 -6 -86 24 -127 45 -60
107 -64 141 -9 16 26 19 51 19 156 0 94 -4 131 -15 147 -16 23 -48 32 -85 23z"/>
<path d="M7902 13772 c-41 -6 -55 -44 -48 -125 8 -80 32 -142 65 -172 18 -15
36 -19 88 -19 56 1 69 4 85 24 33 41 22 76 -68 216 -46 71 -68 84 -122 76z"/>
<path d="M6490 13510 c-37 -8 -57 -60 -69 -175 -12 -112 -3 -239 22 -295 8
-19 22 -52 31 -74 9 -21 24 -40 34 -43 10 -2 28 -20 41 -39 30 -43 53 -56 99
-56 41 0 72 29 72 67 0 12 -16 57 -36 99 -41 91 -59 165 -72 301 -20 200 -39
235 -122 215z"/>
<path d="M6872 13363 c-38 -7 -62 -59 -62 -134 0 -92 20 -114 97 -110 13 0 29
12 38 24 16 25 45 125 45 156 0 44 -59 76 -118 64z"/>
<path d="M7733 13192 c-51 -8 -70 -88 -32 -136 18 -23 30 -43 77 -131 5 -11
18 -39 27 -62 25 -59 55 -85 101 -85 28 0 43 6 57 23 16 20 18 37 13 146 -6
161 -18 181 -103 174 -14 -1 -30 10 -48 33 -26 34 -51 44 -92 38z"/>
<path d="M7172 12932 c-28 -4 -62 -56 -62 -94 0 -14 -13 -55 -28 -90 -16 -34
-34 -101 -41 -148 -16 -103 -5 -155 43 -207 27 -30 39 -36 73 -36 50 0 130 51
139 89 4 14 -4 75 -16 135 -19 90 -22 126 -17 207 9 127 -10 156 -91 144z"/>
<path d="M6180 12890 c-14 -3 -31 -18 -40 -32 -13 -24 -13 -35 3 -105 10 -43
22 -97 26 -121 4 -24 17 -56 29 -71 26 -36 52 -97 52 -125 0 -28 35 -85 58
-93 9 -3 27 -15 40 -27 20 -17 36 -21 99 -21 67 0 77 3 94 24 26 32 24 74 -6
109 -14 17 -25 37 -25 45 0 19 -38 67 -54 67 -6 0 -16 12 -22 28 -6 15 -31 54
-56 87 -24 33 -57 89 -72 125 -48 110 -64 125 -126 110z"/>
<path d="M8570 12880 c-14 -3 -31 -17 -39 -32 -13 -22 -13 -32 3 -82 28 -87
48 -103 124 -98 27 2 62 55 62 94 0 19 -13 42 -42 71 -46 47 -68 57 -108 47z"/>
<path d="M6892 12293 c-54 -11 -64 -81 -23 -150 22 -35 48 -43 106 -30 51 12
75 39 75 86 0 46 -21 77 -58 84 -66 13 -78 14 -100 10z"/>
<path d="M7742 12266 c-76 -17 -99 -26 -118 -49 -43 -51 -23 -109 43 -122 20
-4 43 -15 50 -25 15 -22 71 -33 119 -24 51 9 63 32 90 164 7 33 -21 67 -61 73
-16 3 -72 -5 -123 -17z"/>
<path d="M6190 12222 c-30 -9 -113 -45 -185 -80 -96 -48 -146 -66 -195 -73
-70 -10 -100 -32 -100 -73 0 -45 25 -62 116 -81 115 -25 183 -12 263 48 31 23
67 44 81 46 14 1 31 8 38 13 7 6 28 12 47 14 20 2 41 6 47 10 7 4 26 9 43 11
51 5 79 57 55 103 -12 23 -86 66 -125 73 -16 3 -55 -2 -85 -11z"/>
<path d="M8793 11852 c-31 -5 -53 -39 -53 -83 0 -53 26 -81 75 -81 49 0 75 28
75 81 0 62 -35 92 -97 83z"/>
<path d="M7492 11703 c-39 -7 -64 -59 -58 -122 3 -30 0 -93 -6 -139 -12 -104
-3 -203 22 -234 15 -19 27 -22 76 -21 33 0 65 -4 71 -9 7 -6 29 -10 50 -10 90
0 95 84 18 317 -25 78 -80 201 -92 208 -16 9 -58 14 -81 10z"/>
<path d="M6200 11670 c-35 -8 -64 -62 -56 -105 10 -53 35 -77 81 -77 52 0 75
28 75 91 0 74 -36 107 -100 91z"/>
<path d="M5704 11302 c-39 -6 -56 -39 -86 -164 -31 -133 -36 -195 -20 -273 24
-122 32 -157 41 -173 41 -79 76 -245 88 -413 6 -88 -11 -229 -38 -313 -20 -62
-21 -71 -8 -94 30 -55 100 -48 139 14 15 24 30 41 34 37 3 -3 6 -33 6 -65 0
-49 4 -62 28 -87 15 -17 36 -31 47 -32 76 -6 93 16 99 128 3 44 8 92 11 106
11 44 -38 221 -71 258 -8 9 -29 19 -45 23 -29 6 -30 7 -15 28 21 29 20 58 -1
88 -10 14 -16 37 -15 51 2 15 -8 49 -21 76 -51 102 -107 291 -116 393 -9 112
-8 131 21 259 19 83 20 96 7 119 -15 27 -49 40 -85 34z"/>
<path d="M7576 10980 c-69 -19 -86 -38 -86 -100 0 -35 9 -60 36 -106 47 -79
55 -86 100 -86 59 0 70 21 77 149 9 154 -10 176 -127 143z"/>
<path d="M7903 10973 c-26 -5 -53 -39 -53 -66 0 -10 18 -57 40 -104 22 -47 50
-114 61 -149 28 -87 45 -106 94 -106 68 0 73 15 71 202 -2 182 -5 189 -75 195
-22 1 -47 7 -54 12 -16 13 -57 21 -84 16z"/>
<path d="M7183 10962 c-26 -4 -63 -47 -63 -73 0 -20 66 -145 82 -155 5 -3 26
-6 46 -6 26 0 42 7 55 23 24 29 19 67 -20 145 -29 60 -50 74 -100 66z"/>
<path d="M8700 10560 c-27 -6 -79 -88 -80 -125 0 -11 -8 -40 -17 -65 -9 -25
-19 -67 -24 -95 -4 -27 -10 -66 -14 -85 -10 -50 17 -82 69 -82 21 0 45 7 53
15 17 17 112 328 113 367 0 53 -43 84 -100 70z"/>
<path d="M6753 10542 c-32 -5 -53 -40 -53 -88 0 -58 25 -86 75 -86 50 0 75 28
75 86 0 67 -33 98 -97 88z"/>
<path d="M6750 10321 c-14 -4 -33 -22 -44 -43 -20 -35 -20 -36 2 -179 12 -79
26 -173 31 -209 5 -36 15 -83 21 -105 15 -54 26 -99 40 -170 6 -33 18 -70 26
-82 8 -12 14 -31 14 -41 0 -11 8 -30 18 -43 10 -13 28 -56 41 -96 12 -39 28
-77 36 -83 25 -21 87 -15 107 10 16 20 18 46 18 245 l0 222 -44 89 c-74 150
-156 372 -156 423 0 44 -57 76 -110 62z"/>
<path d="M9413 10132 c-26 -4 -53 -38 -53 -66 0 -34 49 -183 68 -206 40 -49
132 -17 132 46 0 28 -55 191 -70 209 -12 15 -45 22 -77 17z"/>
<path d="M9112 9792 c-12 -2 -30 -14 -38 -28 -14 -21 -15 -35 -5 -100 6 -41
16 -85 23 -97 6 -12 13 -40 14 -62 7 -109 26 -212 43 -235 32 -44 100 -46 128
-3 15 22 15 37 3 136 -14 125 -61 327 -84 362 -15 23 -45 33 -84 27z"/>
<path d="M8513 9732 c-49 -7 -61 -60 -68 -293 -4 -111 -2 -157 10 -195 8 -27
15 -62 15 -78 0 -39 81 -208 112 -232 36 -28 92 -109 132 -191 19 -39 40 -74
46 -78 26 -16 84 -7 103 16 17 22 19 37 14 154 -4 111 -10 149 -41 260 -25 88
-39 160 -43 223 -7 111 -20 134 -76 134 -21 0 -44 -5 -52 -12 -17 -14 -16 -16
-39 81 -9 36 -16 88 -16 115 0 75 -31 106 -97 96z"/>
<path d="M5590 9471 c-14 -4 -34 -20 -44 -36 -17 -26 -27 -30 -65 -31 -74 -2
-101 -55 -62 -121 21 -34 49 -43 95 -31 18 5 35 3 42 -3 24 -19 86 -13 105 10
18 21 39 102 39 145 0 49 -55 82 -110 67z"/>
<path d="M6523 9333 c-50 -10 -71 -98 -35 -144 15 -18 29 -22 67 -22 59 0 85
25 85 83 0 62 -49 97 -117 83z"/>
<path d="M7923 9282 c-49 -7 -70 -88 -35 -132 13 -16 29 -22 57 -22 47 0 75
28 75 76 0 57 -37 87 -97 78z"/>
<path d="M5823 9042 c-62 -9 -105 -138 -107 -321 -1 -138 10 -174 56 -183 60
-11 108 36 108 105 0 15 7 38 15 50 10 15 16 66 21 159 6 116 5 141 -9 161
-16 25 -45 35 -84 29z"/>
<path d="M6502 8982 c-29 -4 -49 -36 -57 -92 -9 -62 14 -92 70 -92 49 0 70 23
80 87 10 73 -23 107 -93 97z"/>
<path d="M5445 8392 c-35 -7 -43 -21 -80 -140 -20 -64 -40 -126 -44 -137 -5
-12 -14 -63 -20 -115 -6 -52 -16 -115 -21 -140 -5 -25 -8 -110 -6 -190 2 -113
8 -163 25 -224 23 -83 44 -130 62 -141 19 -12 81 -7 96 7 7 8 25 61 39 119 36
153 41 171 64 224 30 70 70 248 70 310 0 82 -76 373 -106 406 -17 19 -48 27
-79 21z"/>
<path d="M8773 8362 c-48 -7 -68 -72 -35 -112 39 -48 132 -17 132 44 0 48 -41
76 -97 68z"/>
<path d="M6882 8342 c-31 -5 -50 -38 -57 -102 -3 -30 -12 -77 -20 -105 -16
-58 -36 -185 -43 -267 -3 -48 -7 -58 -22 -58 -10 0 -28 -12 -39 -26 -15 -19
-25 -24 -33 -17 -22 17 -98 31 -126 24 -15 -4 -34 -19 -41 -33 -16 -29 -8 -74
29 -153 10 -22 24 -66 31 -98 16 -75 60 -147 91 -148 46 -2 63 3 81 24 23 27
19 60 -24 188 -18 55 -27 95 -21 101 5 5 14 3 22 -7 7 -8 20 -15 29 -15 9 0
21 -4 27 -9 14 -15 121 -31 155 -24 17 3 38 17 47 30 14 23 14 31 -1 107 -22
104 -22 248 0 405 15 108 15 127 2 149 -15 27 -49 40 -87 34z"/>
<path d="M7903 8062 c-42 -6 -53 -38 -53 -152 1 -103 13 -252 28 -340 5 -28 3
-66 -4 -100 -25 -114 -26 -150 -8 -233 18 -87 38 -134 76 -180 19 -23 32 -29
63 -29 55 0 78 30 71 91 -5 36 -2 51 13 71 16 21 21 22 35 11 9 -8 35 -14 58
-14 33 0 47 6 65 27 13 15 23 36 23 46 0 11 -17 64 -39 117 -21 54 -69 190
-105 303 -80 244 -139 372 -176 380 -14 3 -35 4 -47 2z"/>
<path d="M9770 7590 c-25 -6 -37 -24 -60 -90 -31 -90 -56 -346 -40 -410 6 -25
15 -62 19 -82 11 -51 37 -88 64 -89 92 -5 92 -6 92 259 0 148 5 251 14 295 11
59 11 70 -2 91 -17 26 -49 35 -87 26z"/>
<path d="M8760 7331 c-29 -7 -54 -53 -73 -130 -8 -36 -17 -51 -29 -51 -17 0
-58 -44 -58 -62 0 -6 -13 -23 -30 -38 -34 -32 -36 -51 -15 -129 18 -67 33 -83
80 -83 40 0 80 29 91 66 16 55 72 163 94 182 18 16 26 36 31 80 5 33 11 73 14
89 11 53 -43 92 -105 76z"/>
<path d="M5043 7192 c-38 -6 -53 -39 -53 -117 0 -81 24 -134 62 -136 46 -2 63
3 82 24 16 19 18 33 13 100 -7 109 -32 140 -104 129z"/>
<path d="M7072 7003 c-50 -10 -57 -40 -59 -258 -2 -265 7 -297 84 -297 54 0
68 24 83 138 6 53 22 137 35 188 37 145 40 178 18 204 -15 19 -30 24 -78 26
-33 2 -70 2 -83 -1z"/>
<path d="M5803 6812 c-31 -5 -53 -39 -53 -83 0 -53 26 -81 75 -81 49 0 75 28
75 81 0 62 -35 92 -97 83z"/>
<path d="M6612 6422 c-38 -6 -50 -39 -57 -157 -3 -60 -12 -177 -20 -260 -28
-304 -28 -319 -8 -344 14 -17 29 -23 57 -23 60 0 69 16 83 154 6 68 19 168 27
223 21 132 21 353 1 382 -15 22 -45 31 -83 25z"/>
<path d="M8193 6202 c-38 -6 -53 -39 -53 -115 0 -59 3 -71 25 -92 23 -24 44
-30 90 -26 56 5 73 99 32 181 -23 45 -48 59 -94 52z"/>
<path d="M5023 6193 c-36 -7 -53 -41 -53 -104 0 -73 20 -101 74 -101 21 0 45
7 57 17 20 19 39 74 39 116 0 51 -54 84 -117 72z"/>
<path d="M9610 6063 c-8 -2 -24 -8 -35 -13 -11 -5 -39 -14 -62 -20 -47 -12
-73 -41 -73 -81 0 -42 30 -71 74 -71 20 0 40 3 43 6 3 3 11 2 17 -3 6 -5 20
-10 31 -11 68 -7 90 13 100 95 6 41 4 54 -12 72 -19 22 -57 34 -83 26z"/>
<path d="M7882 5862 c-12 -2 -29 -14 -38 -27 -23 -35 -2 -162 38 -235 54 -97
78 -149 78 -168 0 -30 43 -86 70 -92 38 -9 70 0 86 26 13 18 14 42 8 130 -6
99 -9 110 -33 132 -14 13 -35 32 -47 43 -11 11 -31 46 -43 77 -42 109 -57 124
-119 114z"/>
<path d="M5073 5663 c-32 -6 -53 -41 -53 -89 0 -57 25 -86 74 -86 69 0 129 65
110 119 -13 38 -77 66 -131 56z"/>
<path d="M7703 5612 c-42 -6 -68 -73 -44 -111 6 -9 4 -22 -6 -37 -8 -12 -17
-46 -20 -76 -4 -43 -2 -58 14 -76 25 -32 90 -33 114 -4 19 25 33 126 20 150
-6 12 -5 23 5 37 18 25 18 65 -1 92 -15 22 -45 31 -82 25z"/>
<path d="M6562 5472 c-52 -8 -69 -96 -39 -208 28 -105 68 -218 84 -236 9 -10
24 -18 35 -18 21 0 22 -4 7 -32 -8 -15 -8 -37 1 -82 17 -85 14 -162 -10 -226
-26 -70 -27 -160 -2 -190 20 -24 85 -31 105 -11 6 6 19 11 29 11 27 0 49 43
49 97 1 71 9 183 15 220 4 18 -1 57 -11 90 -27 96 -38 112 -87 127 -15 5 -16
9 -6 31 9 21 8 35 -5 73 -25 71 -67 247 -67 279 0 55 -38 84 -98 75z"/>
<path d="M5433 5273 c-27 -5 -53 -39 -53 -68 0 -30 28 -65 53 -66 20 -1 20 -2
-3 -8 -55 -15 -64 -101 -17 -157 30 -34 93 -37 118 -5 10 12 24 21 33 21 39 0
61 94 32 136 -10 13 -11 25 -5 35 15 24 10 57 -13 84 -18 20 -34 27 -73 29
-27 2 -60 1 -72 -1z"/>
<path d="M4943 5042 c-13 -2 -32 -15 -44 -30 -19 -24 -20 -35 -14 -107 7 -81
19 -116 61 -171 13 -17 24 -35 24 -40 0 -8 44 -106 93 -203 32 -66 105 -76
137 -18 13 24 13 33 -4 99 -22 87 -59 163 -86 180 -11 7 -20 24 -20 37 0 26
-44 179 -64 220 -12 26 -46 39 -83 33z"/>
<path d="M6953 4502 c-12 -2 -27 -10 -33 -17 -24 -28 -40 -173 -47 -400 -3
-126 -9 -286 -14 -355 -4 -68 -6 -128 -3 -131 2 -4 4 -46 5 -93 1 -104 15
-128 73 -128 21 0 43 5 49 11 6 6 19 11 29 11 44 0 66 97 43 196 -22 94 -20
212 5 343 11 62 20 123 19 135 -2 11 2 31 9 43 42 76 2 321 -60 370 -17 13
-47 20 -75 15z"/>
<path d="M6683 4442 c-48 -7 -68 -72 -35 -112 39 -48 132 -17 132 44 0 48 -41
76 -97 68z"/>
<path d="M6402 4302 c-41 -6 -54 -43 -55 -149 0 -109 12 -206 36 -279 9 -27
20 -82 26 -123 14 -106 50 -146 119 -133 34 7 51 41 56 113 2 35 7 77 11 92 8
32 -19 129 -41 148 -8 6 -14 28 -14 48 0 20 -5 52 -10 71 -6 19 -15 64 -21
100 -15 97 -39 122 -107 112z"/>
<path d="M7603 4222 c-33 -5 -53 -40 -53 -94 0 -64 30 -100 85 -100 52 0 75
28 75 92 0 74 -40 112 -107 102z"/>
<path d="M9735 4122 c-41 -8 -41 -9 -107 -232 -31 -106 -27 -321 11 -533 10
-62 37 -89 86 -89 67 0 70 9 72 220 2 253 8 325 29 357 14 21 16 38 10 93 -4
37 -7 82 -6 101 2 60 -38 94 -95 83z"/>
<path d="M7630 4010 c-42 -10 -79 -91 -79 -175 -1 -106 64 -332 105 -366 25
-20 86 -13 107 12 19 24 19 49 1 167 -4 30 -1 61 11 98 22 69 14 136 -21 171
-13 13 -24 29 -24 36 0 41 -50 69 -100 57z"/>
<path d="M5413 3992 c-49 -7 -70 -88 -35 -132 13 -16 29 -22 57 -22 47 0 75
28 75 76 0 57 -37 87 -97 78z"/>
<path d="M5613 3642 c-49 -7 -70 -88 -35 -132 13 -16 29 -22 57 -22 47 0 75
28 75 76 0 57 -37 87 -97 78z"/>
<path d="M5335 3592 c-30 -6 -44 -21 -70 -71 -46 -91 -61 -319 -26 -377 32
-53 106 -53 144 0 26 37 37 107 44 274 3 99 1 128 -11 147 -15 23 -46 34 -81
27z"/>
<path d="M4863 3513 c-33 -6 -53 -41 -53 -94 0 -51 22 -87 55 -90 68 -5 89 14
100 91 5 37 3 50 -12 67 -19 22 -54 32 -90 26z"/>
<path d="M7352 2983 c-29 -6 -53 -42 -52 -79 0 -16 -2 -75 -4 -132 -4 -95 -3
-104 17 -128 31 -36 92 -36 123 -1 38 44 40 287 3 322 -17 15 -56 23 -87 18z"/>
<path d="M9493 2862 c-45 -7 -68 -76 -42 -125 7 -11 13 -42 14 -67 4 -66 32
-181 48 -198 23 -23 88 -18 109 8 16 19 17 34 12 104 -4 48 -13 91 -23 106 -9
15 -15 41 -13 65 5 72 -39 117 -105 107z"/>
<path d="M5415 2742 c-32 -7 -43 -21 -60 -79 -19 -64 -12 -152 14 -184 20 -25
86 -29 108 -6 33 33 46 204 18 244 -15 22 -46 31 -80 25z"/>
<path d="M8813 2392 c-31 -5 -63 -49 -63 -87 0 -49 28 -77 75 -77 46 0 71 24
81 78 11 59 -28 96 -93 86z"/>
<path d="M7343 2352 c-36 -5 -76 -60 -70 -96 8 -51 38 -124 57 -141 28 -26 90
-22 113 6 16 20 18 33 12 94 -11 107 -43 148 -112 137z"/>
<path d="M5103 2223 c-52 -10 -69 -83 -30 -128 48 -57 147 -20 147 54 0 53
-53 87 -117 74z"/>
<path d="M9765 1722 c-30 -6 -46 -23 -66 -67 -39 -85 -14 -138 66 -138 61 0
80 21 90 98 10 82 -22 120 -90 107z"/>
</g>
</svg>
