<?xml version="1.0" standalone="no"?>
<!DOCTYPE svg PUBLIC "-//W3C//DTD SVG 20010904//EN"
 "http://www.w3.org/TR/2001/REC-SVG-20010904/DTD/svg10.dtd">
<svg version="1.0" xmlns="http://www.w3.org/2000/svg"
 width="1500.000000pt" height="2098.000000pt" viewBox="0 0 1500.000000 2098.000000"
 preserveAspectRatio="xMidYMid meet">
<metadata>
Created by potrace 1.16, written by Peter Selinger 2001-2019
</metadata>
<g transform="translate(0.000000,2098.000000) scale(0.100000,-0.100000)"
fill="none" stroke="grey" stroke-width="2">
<path d="M0 10490 l0 -10490 7500 0 7500 0 0 10490 0 10490 -7500 0 -7500 0 0
-10490z m6785 7766 c261 -78 523 -104 805 -81 350 29 539 58 727 112 110 32
126 27 176 -43 17 -26 93 -123 167 -216 l135 -169 215 -73 c563 -194 659 -229
785 -294 115 -59 140 -77 221 -157 50 -49 106 -115 126 -145 19 -31 64 -92 99
-135 36 -44 86 -107 111 -140 25 -33 84 -103 131 -156 46 -53 103 -121 126
-151 23 -31 68 -76 101 -102 33 -26 100 -92 150 -147 l91 -100 -35 -64 c-20
-35 -36 -70 -36 -78 0 -18 -37 -113 -57 -147 -8 -14 -30 -59 -49 -100 -19 -41
-41 -87 -49 -102 -8 -14 -15 -35 -15 -46 0 -11 -6 -25 -14 -31 -8 -7 -24 -37
-37 -69 -12 -31 -28 -64 -35 -72 -24 -30 -97 -235 -130 -366 -18 -73 -65 -231
-103 -351 -39 -120 -100 -333 -137 -473 -36 -140 -81 -298 -99 -350 -33 -98
-99 -231 -141 -287 -25 -33 -138 -112 -209 -147 -60 -30 -103 -64 -119 -95 -8
-15 -31 -89 -50 -165 -20 -76 -71 -233 -115 -349 l-79 -212 -6 -160 c-8 -210
-24 -419 -37 -476 -9 -42 -7 -60 26 -170 47 -155 68 -270 100 -549 14 -122 36
-289 50 -373 35 -218 42 -266 85 -627 22 -179 55 -433 75 -565 19 -132 60
-427 91 -655 30 -228 79 -586 109 -795 29 -209 78 -580 109 -825 30 -245 85
-681 121 -970 36 -289 79 -626 95 -750 81 -611 135 -1025 185 -1430 96 -777
164 -1274 240 -1760 30 -190 64 -428 76 -530 12 -102 32 -250 44 -330 l23
-145 -27 -44 c-39 -66 -93 -114 -174 -154 -181 -89 -402 -109 -681 -62 -82 14
-152 27 -155 29 -4 3 -27 7 -51 11 -25 4 -67 13 -95 22 -112 34 -291 96 -300
104 -6 4 -22 9 -35 11 -14 2 -37 12 -51 21 -15 10 -52 27 -84 38 -82 29 -124
20 -173 -37 -39 -44 -82 -147 -82 -195 1 -69 -27 -171 -67 -244 -35 -64 -137
-165 -165 -165 -9 0 -24 -10 -32 -22 -9 -12 -16 -19 -16 -16 0 4 -22 0 -50 -8
-80 -24 -254 -7 -330 33 -14 7 -31 13 -38 13 -7 0 -25 14 -39 30 -13 17 -30
30 -36 31 -12 0 -90 91 -132 154 -13 18 -25 50 -28 71 -14 93 -26 154 -33 166
-9 14 -22 82 -28 148 -2 25 -11 69 -20 99 -9 30 -16 66 -16 80 -1 40 -62 144
-92 159 -37 17 -157 31 -290 33 l-113 1 -68 -73 c-64 -70 -127 -175 -127 -213
0 -10 -7 -38 -15 -64 -8 -26 -19 -78 -24 -117 -9 -68 -33 -155 -52 -185 -5 -8
-17 -31 -28 -50 -11 -19 -45 -61 -75 -92 -32 -32 -59 -69 -62 -85 -4 -22 -12
-29 -32 -31 -15 -1 -46 -16 -69 -32 -23 -17 -47 -30 -53 -30 -7 0 -26 -6 -43
-14 -78 -34 -127 -46 -180 -45 -31 1 -63 -4 -71 -10 -10 -9 -16 -8 -25 3 -7 8
-36 26 -66 41 -30 14 -64 39 -75 56 -12 16 -28 29 -36 29 -8 0 -14 10 -14 24
0 13 -10 36 -22 52 -22 27 -37 64 -94 229 -39 110 -71 133 -198 139 -42 3
-177 -26 -208 -44 -10 -6 -23 -10 -29 -10 -11 0 -67 -22 -101 -41 -10 -5 -22
-9 -28 -9 -5 0 -34 -11 -64 -25 -30 -14 -59 -25 -64 -25 -5 0 -15 -7 -22 -15
-7 -8 -19 -15 -26 -15 -8 0 -38 -11 -67 -25 -28 -14 -70 -28 -91 -31 -21 -2
-42 -7 -46 -9 -10 -6 -109 16 -245 53 -60 17 -137 34 -170 37 -33 4 -78 8
-100 11 -211 22 -321 49 -400 99 -65 42 -80 59 -100 122 -16 49 -16 63 5 285
12 128 41 373 65 543 24 171 55 405 70 520 14 116 32 262 41 325 8 63 22 165
30 225 8 61 26 180 39 265 30 194 100 701 120 880 9 74 38 299 65 500 27 201
61 471 75 600 59 536 63 572 180 1450 14 102 47 376 75 610 27 234 57 472 65
530 33 235 61 474 90 770 9 91 29 255 45 365 42 285 77 548 95 710 66 585 170
1186 269 1555 51 188 58 239 46 371 -20 238 -58 488 -89 577 -33 97 -42 132
-66 247 -9 44 -23 100 -30 125 -25 84 -107 345 -117 373 -6 15 -53 63 -104
107 -51 44 -98 88 -103 98 -5 9 -47 49 -93 87 -109 92 -151 137 -176 188 -65
132 -213 596 -247 772 -43 223 -51 255 -64 268 -6 6 -11 21 -11 33 0 13 -18
65 -41 116 -43 100 -71 177 -88 248 -7 25 -20 65 -31 90 -10 25 -26 72 -35
105 -17 62 -46 150 -89 270 -51 143 -79 242 -86 305 -4 36 -13 94 -20 130 -6
36 -9 79 -6 96 8 40 256 294 288 294 29 0 109 84 184 191 95 136 331 427 429
528 98 103 218 197 305 241 30 15 116 47 190 70 74 24 196 67 272 97 75 29
206 77 292 107 l155 54 99 99 c55 54 130 136 167 183 105 130 127 152 150 146
11 -3 88 -25 170 -50z"/>
</g>
</svg>
