<?xml version="1.0" standalone="no"?>
<!DOCTYPE svg PUBLIC "-//W3C//DTD SVG 20010904//EN"
 "http://www.w3.org/TR/2001/REC-SVG-20010904/DTD/svg10.dtd">
<svg version="1.0" xmlns="http://www.w3.org/2000/svg"
 width="1500.000000pt" height="2098.000000pt" viewBox="0 0 1500.000000 2098.000000"
 preserveAspectRatio="xMidYMid meet">
<metadata>
Created by potrace 1.16, written by Peter Selinger 2001-2019
</metadata>
<g transform="translate(0.000000,2098.000000) scale(0.100000,-0.100000)"
fill="none" stroke="grey" stroke-width="2">
<path d="M0 10490 l0 -10490 7500 0 7500 0 0 10490 0 10490 -7500 0 -7500 0 0
-10490z m8944 7771 c12 -11 59 -34 105 -52 53 -20 95 -43 112 -62 21 -23 37
-30 71 -32 54 -2 39 4 368 -159 151 -75 280 -136 287 -136 16 0 140 -84 181
-123 20 -19 32 -41 32 -57 0 -42 26 -68 74 -75 39 -6 54 -17 115 -80 39 -40
71 -78 71 -83 0 -6 19 -32 42 -59 79 -91 128 -165 128 -192 0 -35 26 -71 51
-71 20 0 23 -4 33 -52 4 -18 21 -37 47 -54 24 -15 46 -39 55 -61 28 -66 63
-112 91 -119 30 -8 54 -32 80 -79 30 -55 95 -137 113 -142 9 -3 29 -24 45 -48
39 -63 56 -75 113 -82 44 -5 51 -9 55 -32 3 -15 -3 -45 -14 -70 -10 -24 -19
-50 -19 -57 0 -7 -11 -24 -25 -38 -14 -14 -25 -32 -25 -41 0 -9 -7 -26 -15
-39 -9 -13 -15 -39 -14 -57 2 -19 -4 -46 -12 -61 -61 -115 -79 -150 -79 -160
0 -7 -9 -22 -20 -33 -12 -12 -36 -58 -55 -101 -19 -44 -50 -96 -70 -117 -26
-28 -36 -46 -34 -65 2 -16 -10 -50 -29 -82 -17 -30 -32 -62 -32 -71 0 -9 -7
-23 -17 -30 -16 -14 -63 -110 -63 -130 0 -6 -9 -18 -20 -27 -26 -21 -59 -165
-64 -275 -3 -70 -7 -82 -32 -108 -15 -16 -34 -29 -41 -29 -19 0 -45 -45 -41
-73 3 -23 -41 -87 -59 -87 -4 0 -21 -13 -38 -29 -112 -107 -121 -117 -154
-201 -37 -94 -94 -211 -121 -250 -10 -14 -31 -50 -48 -80 -16 -30 -55 -97 -87
-148 -44 -72 -58 -106 -65 -152 -5 -33 -16 -75 -26 -92 -9 -18 -21 -58 -25
-88 -5 -30 -13 -82 -19 -115 -7 -33 -11 -78 -11 -100 0 -22 0 -87 1 -145 1
-61 -5 -133 -13 -170 -11 -51 -14 -137 -11 -405 4 -478 8 -618 18 -633 12 -20
34 -201 28 -245 -2 -23 2 -54 11 -75 17 -41 33 -138 46 -282 9 -94 52 -398
110 -788 17 -111 32 -234 32 -274 1 -39 8 -87 16 -107 9 -20 19 -91 24 -161 4
-69 12 -150 17 -180 5 -30 21 -152 36 -270 15 -118 33 -259 41 -312 8 -54 15
-127 15 -164 0 -36 5 -74 11 -86 9 -18 23 -146 32 -308 2 -30 11 -82 20 -115
9 -33 18 -103 21 -155 2 -52 9 -115 15 -139 7 -24 16 -101 22 -170 10 -128 13
-154 47 -456 11 -93 25 -242 31 -330 7 -88 18 -236 26 -330 18 -206 35 -540
42 -810 7 -276 11 -351 29 -575 8 -108 16 -245 18 -306 1 -60 5 -115 9 -121 4
-6 9 -91 12 -189 3 -99 10 -192 15 -209 11 -36 30 -417 23 -463 -3 -18 1 -46
8 -64 7 -17 14 -70 16 -117 4 -119 9 -188 17 -241 4 -25 11 -108 17 -185 14
-186 24 -283 38 -383 7 -46 16 -127 21 -180 5 -54 16 -140 25 -192 8 -52 19
-144 25 -203 5 -60 12 -112 15 -117 12 -20 35 -305 40 -514 3 -126 10 -249 15
-273 8 -33 7 -52 -5 -79 -8 -20 -15 -45 -15 -55 0 -35 -127 -209 -152 -209 -6
0 -27 -12 -47 -27 -37 -29 -54 -39 -133 -80 -26 -13 -50 -28 -53 -33 -3 -6
-12 -10 -20 -10 -35 0 -191 -142 -229 -209 -26 -45 -126 -91 -192 -89 -45 2
-56 8 -133 73 -46 38 -107 89 -135 111 -55 44 -180 114 -206 114 -8 0 -26 6
-40 13 -14 7 -50 21 -80 30 -30 10 -86 35 -125 57 -38 21 -88 49 -110 61 -22
12 -81 52 -130 88 -144 105 -176 123 -222 123 -72 0 -85 -40 -79 -243 5 -173
-6 -246 -43 -296 -58 -77 -144 -107 -356 -124 -205 -16 -378 -14 -407 5 -13 8
-34 16 -48 18 -14 2 -57 25 -97 51 -39 26 -77 47 -83 47 -6 0 -38 20 -69 44
-77 59 -226 142 -341 189 -14 5 -38 16 -55 23 -16 7 -37 15 -45 18 -8 3 -22
10 -30 15 -43 28 -185 87 -260 108 -95 26 -244 32 -394 13 -110 -13 -506 -16
-751 -6 -163 7 -240 5 -415 -10 -355 -30 -623 -16 -744 39 -60 28 -97 62 -162
154 -43 60 -48 73 -48 118 1 34 11 72 32 117 29 64 32 78 41 250 6 101 13 278
16 393 3 116 10 255 15 310 5 55 15 188 20 295 6 107 15 238 20 290 5 52 14
163 20 245 6 83 18 194 26 247 8 54 14 128 14 165 0 105 19 242 36 268 12 19
14 40 9 97 -4 46 0 120 10 198 8 69 20 181 25 250 6 69 15 145 21 170 6 25 15
99 20 165 16 232 27 321 45 358 14 29 16 44 8 65 -5 15 -7 44 -2 67 4 22 5 56
2 75 -6 43 33 386 48 413 5 11 8 33 5 50 -2 17 2 70 10 117 8 47 15 101 15
120 1 67 38 388 48 415 5 14 10 61 10 103 0 42 7 149 15 237 8 88 15 203 15
255 0 52 4 138 10 190 6 52 18 214 26 360 22 357 29 448 65 795 5 50 12 122
14 160 14 207 48 494 62 527 11 27 14 53 9 90 -6 51 -3 80 29 298 8 52 19 143
25 202 6 58 17 130 25 160 7 29 16 82 20 118 8 71 71 450 110 655 13 72 25
159 25 195 0 65 18 186 45 310 8 36 19 112 24 170 6 58 16 120 23 137 10 26
10 40 -1 68 -7 20 -14 89 -17 153 -2 64 -8 155 -14 202 -6 47 -11 112 -11 145
0 57 -12 106 -39 167 -10 22 -10 30 4 49 21 31 20 67 -4 139 -18 54 -19 63 -6
83 13 19 13 44 1 197 -8 96 -19 191 -25 210 -5 19 -19 68 -30 109 -11 41 -26
81 -34 90 -8 9 -31 50 -51 91 -20 41 -49 95 -66 120 -16 25 -51 81 -77 125
-47 79 -47 80 -110 98 -53 16 -67 25 -88 58 -13 21 -30 39 -38 39 -8 0 -17 11
-20 25 -9 35 -68 77 -111 78 -23 1 -35 6 -35 15 0 8 -9 29 -20 47 -16 26 -21
54 -24 136 -3 81 -8 113 -24 142 -16 30 -19 49 -15 92 6 56 -4 74 -63 115 -22
15 -64 100 -64 128 0 16 -67 135 -102 181 -10 13 -23 41 -28 62 -6 21 -22 52
-36 68 -14 17 -30 45 -35 63 -5 18 -24 57 -44 86 -19 30 -35 59 -35 67 0 7 -9
24 -20 38 -11 14 -20 40 -20 59 0 42 -22 74 -63 92 -38 15 -110 105 -126 158
-7 21 -17 40 -22 43 -5 4 -9 21 -9 38 0 38 -24 77 -47 77 -27 0 -84 51 -100
88 l-14 35 47 48 c27 27 56 49 66 49 20 0 48 37 48 65 0 26 137 199 161 203
21 4 49 39 49 62 0 9 23 46 52 83 43 57 58 69 95 79 54 13 78 45 69 89 -4 24
0 38 22 65 18 22 33 32 44 28 28 -8 96 15 113 39 17 25 20 70 5 97 -8 16 -2
28 35 70 25 28 45 56 45 62 0 6 35 47 79 92 43 44 86 96 95 113 21 41 74 103
90 103 20 0 106 87 106 108 0 24 67 84 185 167 93 65 189 112 312 154 48 16
120 45 158 64 39 19 83 37 98 41 16 4 85 34 154 67 147 70 173 72 173 11 0
-52 30 -98 70 -105 18 -4 36 -5 40 -2 11 7 80 -80 80 -102 0 -27 28 -63 49
-63 27 0 111 -102 111 -134 0 -40 48 -87 91 -89 27 -2 49 -14 89 -50 29 -26
96 -77 149 -113 53 -37 107 -79 121 -95 15 -17 39 -30 61 -33 42 -6 127 -41
150 -62 9 -8 40 -16 70 -19 30 -2 88 -10 129 -17 41 -8 118 -12 170 -11 216 6
330 13 356 23 15 6 54 13 88 16 33 3 67 11 76 18 23 21 90 48 130 52 21 3 42
14 52 27 39 49 49 55 95 54 56 0 85 27 81 78 -2 26 7 43 44 84 25 28 85 102
132 166 58 76 93 115 106 115 22 0 50 36 50 65 0 12 13 31 30 43 16 12 33 35
36 50 8 32 76 129 137 195 49 52 78 59 111 28z"/>
<path d="M6573 16972 c-28 -4 -63 -47 -63 -77 0 -66 92 -93 137 -40 52 60 8
129 -74 117z"/>
</g>
</svg>
