<?xml version="1.0" standalone="no"?>
<!DOCTYPE svg PUBLIC "-//W3C//DTD SVG 20010904//EN"
 "http://www.w3.org/TR/2001/REC-SVG-20010904/DTD/svg10.dtd">
<svg version="1.0" xmlns="http://www.w3.org/2000/svg"
 width="1500.000000pt" height="2098.000000pt" viewBox="0 0 1500.000000 2098.000000"
 preserveAspectRatio="xMidYMid meet">
<metadata>
Created by potrace 1.16, written by Peter Selinger 2001-2019
</metadata>
<g transform="translate(0.000000,2098.000000) scale(0.100000,-0.100000)"
fill="none" stroke="grey" stroke-width="2">
<path d="M0 10490 l0 -10490 7500 0 7500 0 0 10490 0 10490 -7500 0 -7500 0 0
-10490z m9142 6905 c41 -28 54 -30 148 -20 36 3 72 6 80 5 78 -2 226 2 270 8
72 10 81 7 105 -31 32 -53 33 -56 54 -278 12 -118 26 -248 31 -289 24 -182 40
-351 40 -427 0 -80 -1 -84 -34 -120 -33 -37 -73 -62 -128 -82 -15 -6 -34 -21
-43 -35 -16 -24 -20 -42 -45 -206 -6 -41 -23 -100 -36 -130 -21 -46 -25 -68
-23 -135 2 -66 -1 -86 -18 -113 -19 -31 -20 -45 -16 -230 3 -108 4 -204 4
-212 -3 -56 -16 -108 -34 -132 -14 -18 -22 -46 -23 -76 -2 -40 -5 -48 -25 -52
-16 -4 -32 -21 -46 -50 -66 -134 -63 -125 -62 -246 1 -135 11 -156 74 -156 41
0 75 27 75 59 0 9 16 33 35 54 19 22 35 46 35 55 0 14 3 14 16 3 16 -13 15
-68 -1 -146 -6 -26 -2 -36 20 -59 25 -25 30 -45 65 -258 35 -210 50 -294 110
-614 11 -56 24 -142 30 -190 13 -101 62 -382 100 -567 13 -64 101 -613 110
-690 5 -38 20 -137 34 -220 30 -176 66 -454 67 -510 1 -68 68 -636 84 -710 8
-38 17 -97 21 -130 3 -33 25 -217 50 -410 24 -192 46 -417 49 -499 3 -82 8
-152 10 -156 3 -4 11 -70 19 -147 8 -77 20 -151 25 -164 20 -46 103 -888 121
-1218 6 -112 15 -212 20 -221 5 -10 12 -49 14 -86 2 -38 16 -190 29 -339 33
-352 84 -997 96 -1200 10 -168 47 -608 56 -660 9 -55 33 -478 34 -603 0 -68 5
-131 10 -140 9 -16 12 -98 8 -208 -1 -23 4 -59 11 -80 10 -35 17 -152 52 -824
20 -386 31 -672 40 -1050 6 -212 14 -423 20 -470 5 -47 10 -106 10 -132 0 -44
-2 -48 -27 -54 -16 -4 -51 -30 -78 -58 -80 -82 -133 -95 -440 -111 -89 -4
-181 -14 -260 -26 -90 -14 -124 -18 -215 -24 -41 -3 -106 -8 -145 -13 -96 -10
-247 -8 -459 6 -99 7 -311 11 -470 10 -160 -1 -338 -2 -396 -2 -58 -1 -123 2
-145 6 -40 7 -171 34 -212 43 -30 7 -48 64 -67 215 -38 299 -63 571 -76 848
-6 112 -21 353 -35 535 -20 286 -31 483 -39 717 -1 30 -12 215 -24 410 -32
524 -51 873 -62 1170 -11 294 -24 534 -40 745 -25 338 -40 598 -50 840 -6 143
-15 337 -20 430 -5 94 -13 347 -16 563 -8 448 -6 435 -84 435 -59 0 -77 -24
-84 -111 -3 -37 -11 -105 -17 -152 -5 -47 -12 -103 -13 -125 -2 -23 -6 -50 -9
-60 -12 -38 -41 -541 -77 -1300 -24 -522 -32 -676 -46 -910 -8 -137 -17 -263
-19 -280 -3 -16 -7 -77 -10 -135 -5 -108 -43 -754 -70 -1220 -9 -146 -20 -301
-26 -345 -5 -44 -14 -181 -19 -305 -10 -224 -31 -578 -50 -824 -5 -70 -12
-239 -15 -375 -6 -265 -10 -343 -26 -435 -6 -33 -12 -119 -14 -192 -3 -148
-14 -182 -60 -198 -19 -6 -297 -9 -735 -9 -717 1 -867 4 -1000 22 -86 11 -312
28 -480 36 -63 3 -144 11 -180 19 -36 8 -96 17 -135 21 -112 12 -266 43 -289
59 -61 44 -58 23 -46 257 12 261 35 711 61 1204 11 204 24 465 28 580 14 323
40 726 51 765 12 45 30 289 30 409 0 51 11 247 25 435 34 452 41 534 53 581 6
22 16 159 21 305 6 146 20 375 31 510 11 135 27 322 35 417 7 94 18 181 24
192 6 11 11 34 11 51 0 19 10 44 24 61 14 16 28 49 32 75 5 38 3 51 -15 75
-18 24 -20 33 -10 50 6 12 9 39 6 60 -4 33 -2 39 14 39 32 0 47 39 48 120 1
77 -15 120 -44 120 -18 0 -19 38 -5 177 5 54 24 247 41 428 17 182 36 336 42
343 10 13 22 65 34 145 5 35 23 53 23 23 0 -54 96 -80 132 -36 38 46 9 110
-50 112 -23 1 -32 6 -32 18 0 10 -11 34 -25 55 -22 32 -25 44 -19 84 8 56 21
75 54 79 33 4 60 37 60 74 0 34 -39 78 -70 78 -24 0 -24 -11 0 195 5 44 12
118 15 165 4 75 108 846 121 910 l6 25 27 -34 c22 -27 34 -33 66 -33 52 0 75
28 75 92 0 77 -44 109 -118 86 -21 -7 -22 -5 -22 51 0 32 11 139 25 238 41
302 49 324 100 291 22 -15 44 -19 83 -17 35 2 62 55 62 124 0 39 4 57 13 57 6
0 31 17 54 38 30 27 51 38 78 39 49 3 57 12 86 83 16 41 29 60 43 62 11 2 37
28 58 58 38 54 43 77 23 123 -5 13 -2 17 14 17 32 0 71 44 71 79 0 23 5 30 22
33 13 2 32 17 43 35 11 17 28 34 38 36 10 3 23 19 29 35 6 16 20 33 32 38 32
14 41 54 25 104 -8 24 -21 46 -29 50 -57 28 -73 33 -101 32 -17 0 -36 -5 -42
-11 -7 -7 -16 -1 -29 19 -16 26 -39 36 -71 31 -4 -1 -18 11 -30 25 -29 34 -88
36 -121 5 -12 -12 -29 -21 -38 -21 -20 0 -68 -56 -68 -79 0 -10 -14 -39 -31
-65 -28 -41 -30 -52 -24 -94 3 -26 13 -57 21 -69 13 -21 13 -23 -5 -23 -31 0
-63 -48 -59 -89 3 -31 0 -35 -29 -43 -18 -5 -38 -17 -46 -28 -12 -17 -14 -16
-26 25 -11 39 -8 78 40 407 28 199 54 377 57 395 3 23 10 33 25 35 12 2 28 15
37 30 13 24 13 32 1 60 -27 64 -22 113 44 503 98 581 114 666 130 689 9 12 15
44 15 83 0 34 16 158 35 275 33 194 36 228 33 378 -3 144 -1 168 15 190 22 31
22 59 0 90 -10 13 -18 43 -19 65 -1 22 -9 74 -17 115 -9 41 -21 125 -27 185
-12 116 -45 305 -60 342 -5 12 -36 40 -69 62 -91 62 -106 108 -50 155 38 32
92 34 199 6 41 -11 89 -20 105 -20 17 0 44 -8 60 -17 36 -21 175 -23 242 -4
54 15 194 0 313 -34 60 -17 116 -25 188 -27 99 -3 105 -2 123 21 11 14 19 36
18 50 -2 14 2 36 9 48 17 31 15 57 -6 84 -15 18 -30 23 -74 24 -30 1 -60 5
-67 9 -7 5 -28 8 -48 9 -27 1 -41 8 -59 33 -14 17 -35 34 -48 36 -46 9 -271
-9 -318 -26 -86 -30 -254 -37 -292 -12 -62 40 -232 61 -314 38 -29 -8 -56 -12
-59 -8 -4 4 -9 118 -11 254 l-4 247 68 2 c57 1 71 5 86 23 27 33 22 68 -13
101 -30 28 -94 53 -111 43 -9 -6 -11 142 -2 209 l7 46 161 2 c323 5 683 2
1216 -11 592 -13 599 -13 900 -5 275 7 506 8 675 2 77 -3 167 -1 200 4 56 9
387 24 610 27 92 2 103 0 137 -23z"/>
<path d="M6125 17334 c-38 -11 -60 -12 -93 -4 -83 20 -142 -9 -142 -70 0 -27
25 -70 40 -70 5 0 37 -19 72 -43 35 -24 99 -61 143 -83 44 -21 91 -47 104 -56
13 -10 31 -18 41 -18 9 0 36 -14 60 -31 96 -70 199 -13 145 81 -8 14 -14 43
-15 65 0 22 -6 49 -13 60 -7 11 -21 41 -31 67 -22 61 -57 85 -137 97 -35 5
-77 12 -94 15 -16 3 -52 -2 -80 -10z"/>
<path d="M7379 17056 c-20 -7 -39 -23 -49 -40 -18 -36 -79 -96 -97 -96 -7 0
-44 -20 -82 -45 -38 -25 -74 -45 -79 -45 -23 0 -168 -157 -185 -200 -11 -25
-27 -64 -38 -88 -25 -56 -24 -95 4 -127 24 -29 71 -36 110 -17 12 5 29 12 38
15 9 3 44 43 78 89 72 98 58 82 151 168 41 38 82 70 92 70 9 0 27 12 40 28 12
15 36 32 52 37 45 16 65 51 72 132 5 57 4 77 -9 96 -19 30 -53 37 -98 23z"/>
<path d="M9665 16832 c-11 -2 -33 -16 -50 -32 -40 -37 -71 -53 -125 -65 -31
-7 -50 -19 -65 -40 -16 -24 -29 -30 -60 -32 -28 -2 -46 -10 -61 -27 -12 -14
-24 -23 -27 -20 -15 16 -199 -68 -228 -104 -10 -13 -23 -21 -29 -17 -6 4 -32
2 -58 -4 -81 -19 -103 -22 -252 -36 -148 -14 -429 -12 -515 4 -48 9 -92 4
-101 -10 -3 -5 -13 0 -23 13 -31 37 -105 29 -336 -40 -110 -32 -134 -54 -121
-105 9 -38 48 -60 106 -60 39 -1 50 -4 50 -17 0 -8 7 -25 15 -37 24 -34 85
-38 231 -14 519 84 539 86 874 101 379 17 350 11 471 92 32 21 65 38 73 38 42
0 326 300 326 343 0 48 -43 79 -95 69z"/>
<path d="M9372 16182 c-26 -4 -62 -55 -62 -88 0 -61 93 -92 132 -44 56 69 15
145 -70 132z"/>
<path d="M8010 16082 c-39 -11 -81 -35 -90 -52 -8 -14 -16 -17 -37 -11 -45 12
-164 -16 -190 -45 -28 -30 -30 -74 -5 -104 26 -32 132 -33 166 -1 12 11 28 21
34 21 6 0 19 11 27 24 14 21 20 23 48 15 45 -13 104 -2 122 24 19 27 19 77 0
104 -15 21 -49 33 -75 25z"/>
<path d="M7488 15948 c-43 -11 -98 -68 -98 -101 0 -53 66 -93 132 -80 40 8 98
64 98 94 0 31 -35 89 -54 89 -8 0 -20 2 -28 4 -7 2 -30 -1 -50 -6z"/>
<path d="M6143 15933 c-52 -10 -91 -119 -59 -167 32 -50 131 -36 172 23 43 63
25 122 -44 141 -20 5 -39 9 -42 9 -3 -1 -15 -4 -27 -6z"/>
<path d="M8698 15635 c-72 -26 -86 -34 -111 -64 -14 -17 -31 -31 -37 -31 -6 0
-29 -9 -52 -21 -27 -14 -63 -21 -109 -23 -53 -2 -76 -8 -99 -24 -16 -12 -33
-22 -38 -22 -5 0 -26 -11 -47 -25 -21 -15 -55 -27 -78 -29 -68 -5 -126 -25
-140 -47 -12 -21 -76 -59 -98 -59 -23 0 -115 -69 -189 -141 -130 -127 -188
-254 -145 -316 18 -26 71 -43 108 -36 29 6 117 94 117 116 0 8 35 30 79 50 43
20 89 49 102 64 36 42 108 96 162 121 26 12 50 29 53 37 4 8 12 15 19 15 8 0
23 13 34 29 30 41 76 67 146 81 52 11 160 53 205 81 8 5 25 13 38 19 12 5 25
16 28 25 3 8 9 13 13 10 16 -9 117 25 134 46 21 26 23 97 2 126 -19 26 -55 33
-97 18z"/>
<path d="M6362 15423 c-25 -5 -62 -56 -62 -86 0 -10 8 -32 17 -50 9 -18 16
-44 14 -58 -3 -33 35 -77 69 -81 14 -2 32 -11 40 -21 8 -9 29 -19 47 -20 18
-2 49 -15 70 -30 21 -14 55 -29 75 -32 21 -4 42 -13 49 -21 6 -8 20 -14 30
-14 10 0 20 -4 23 -9 8 -12 96 -35 126 -33 30 2 60 36 60 67 0 30 -33 106 -52
123 -8 6 -30 13 -49 16 -29 3 -35 8 -40 35 -8 38 -26 61 -48 61 -10 0 -27 18
-39 39 -34 60 -132 101 -197 83 -23 -6 -33 -4 -45 9 -17 19 -53 28 -88 22z"/>
<path d="M9003 15262 c-48 -7 -68 -72 -35 -112 39 -48 132 -17 132 44 0 48
-41 76 -97 68z"/>
<path d="M7130 14631 c-28 -8 -125 -143 -165 -229 -14 -30 -43 -76 -65 -104
-22 -28 -40 -55 -40 -59 0 -5 -6 -9 -14 -9 -7 0 -19 -6 -25 -14 -7 -8 -27 -17
-47 -20 -49 -10 -109 -53 -182 -133 -35 -37 -74 -78 -85 -91 -15 -15 -29 -21
-44 -17 -30 7 -89 -14 -154 -57 -29 -20 -71 -39 -92 -43 -41 -8 -77 -45 -77
-80 0 -33 41 -88 71 -96 15 -4 46 -3 70 2 24 5 87 13 139 18 53 6 137 23 192
41 91 29 101 34 178 107 45 42 90 93 101 114 22 44 54 64 122 73 41 6 52 13
77 47 16 22 36 60 45 84 15 37 24 46 67 64 28 12 56 21 64 21 18 0 54 49 54
74 0 21 6 25 86 55 17 7 54 34 83 60 55 51 65 86 36 128 -15 21 -32 26 -145
38 -85 9 -196 24 -210 28 -8 3 -26 2 -40 -2z"/>
<path d="M5983 14572 c-48 -7 -71 -92 -38 -139 28 -39 106 -49 145 -18 8 7 23
15 33 18 45 16 46 94 2 123 -24 16 -96 24 -142 16z"/>
<path d="M8546 14449 c-16 -5 -43 -21 -60 -37 -68 -63 -89 -69 -214 -62 -32 2
-51 -3 -70 -18 -43 -34 -150 -85 -162 -77 -6 4 -34 1 -63 -5 -41 -10 -63 -23
-106 -66 -29 -30 -61 -54 -70 -54 -9 0 -34 -20 -54 -45 -21 -25 -44 -45 -51
-45 -7 0 -31 -23 -54 -51 -40 -49 -42 -55 -41 -118 0 -89 13 -159 31 -178 9
-8 32 -15 53 -15 29 0 44 8 73 37 45 45 168 120 212 130 41 9 96 58 164 149
70 93 79 100 161 126 63 20 138 54 278 128 56 30 97 74 97 106 0 33 -41 88
-70 96 -14 4 -38 3 -54 -1z"/>
<path d="M9142 14302 c-28 -4 -90 -94 -126 -183 -14 -36 -26 -71 -26 -77 0 -6
-11 -22 -25 -36 -14 -14 -25 -33 -25 -43 0 -9 -20 -56 -45 -104 -25 -48 -45
-97 -45 -109 0 -12 -11 -31 -25 -42 -14 -11 -33 -34 -42 -51 -9 -18 -29 -43
-44 -58 -48 -45 -50 -103 -6 -155 17 -19 32 -26 60 -26 45 0 64 14 89 67 10
22 32 58 48 80 17 23 33 59 37 80 3 22 14 49 24 60 10 11 22 32 28 48 6 16 18
27 29 27 33 0 95 83 152 203 28 59 33 80 36 169 5 133 -13 162 -94 150z"/>
<path d="M7203 13752 c-29 -4 -53 -38 -53 -73 0 -82 153 -149 202 -89 31 38
18 100 -29 143 -20 17 -78 27 -120 19z"/>
<path d="M7890 13371 c-32 -8 -59 -62 -66 -133 -3 -29 -14 -74 -25 -100 -10
-26 -19 -58 -19 -72 0 -14 -5 -28 -10 -31 -6 -4 -24 -34 -41 -68 -44 -89 -60
-116 -91 -147 -21 -21 -28 -38 -28 -67 0 -112 113 -150 169 -57 14 24 32 44
40 44 26 0 159 129 183 178 21 43 23 60 23 197 -1 131 -3 156 -22 196 -12 26
-25 49 -30 52 -18 10 -59 14 -83 8z"/>
<path d="M6233 13262 c-13 -2 -28 -11 -35 -20 -7 -9 -26 -18 -43 -20 -16 -2
-37 -10 -46 -18 -9 -8 -18 -11 -22 -8 -3 3 -23 6 -43 6 -74 0 -95 -65 -46
-143 21 -33 27 -53 24 -79 -6 -54 22 -83 81 -83 31 0 53 6 67 18 25 23 54 98
48 127 -4 20 0 23 31 25 45 2 68 29 77 90 11 75 -25 116 -93 105z"/>
<path d="M7473 13202 c-48 -7 -68 -72 -35 -112 39 -48 132 -17 132 44 0 48
-41 76 -97 68z"/>
<path d="M5583 12932 c-38 -6 -80 -54 -88 -100 -9 -58 10 -87 67 -98 95 -18
127 4 127 91 0 81 -37 118 -106 107z"/>
<path d="M8323 12607 c-54 -20 -177 -146 -198 -203 -11 -27 -29 -62 -41 -77
-48 -58 -38 -138 20 -149 29 -6 172 39 236 74 110 60 146 82 164 97 23 20 46
64 46 89 0 27 -38 72 -61 72 -14 0 -19 7 -19 24 0 59 -80 99 -147 73z"/>
<path d="M6874 12426 c-57 -18 -94 -46 -232 -175 -19 -17 -37 -31 -42 -31 -5
0 -25 -19 -44 -42 -20 -23 -48 -49 -62 -59 -48 -31 -104 -108 -104 -144 0 -51
28 -78 82 -78 56 0 71 11 183 136 140 158 199 193 319 190 213 -5 341 -82 457
-275 23 -37 46 -71 51 -74 24 -15 83 -5 100 16 16 20 18 36 13 129 -9 151 -2
133 -95 253 -11 14 -35 30 -53 34 -17 3 -50 19 -72 34 -86 58 -121 78 -148 84
-59 14 -311 15 -353 2z"/>
<path d="M9093 12122 c-13 -2 -39 -22 -58 -45 -28 -33 -43 -42 -71 -44 -20 -1
-47 -9 -60 -18 -30 -19 -64 -72 -64 -99 0 -10 -11 -31 -24 -47 -14 -16 -30
-54 -36 -84 -11 -53 -40 -113 -87 -184 -13 -19 -23 -47 -23 -62 0 -18 -5 -29
-14 -29 -22 0 -74 -65 -85 -107 -6 -21 -11 -61 -11 -89 0 -68 22 -96 74 -96
46 0 73 23 86 74 14 48 42 75 99 91 52 14 50 12 118 183 l47 120 35 1 c38 1
71 31 71 64 0 10 7 36 16 58 12 30 23 41 45 46 47 11 67 46 68 119 0 55 -4 70
-28 104 -29 39 -55 51 -98 44z"/>
<path d="M6993 11343 c-13 -2 -30 -14 -38 -26 -63 -90 72 -178 148 -96 31 34
35 68 10 98 -18 21 -78 33 -120 24z"/>
<path d="M9093 11172 c-48 -7 -68 -72 -35 -112 39 -48 132 -17 132 44 0 48
-41 76 -97 68z"/>
<path d="M6152 11093 c-31 -6 -56 -46 -49 -80 3 -18 -1 -36 -14 -52 -22 -27
-24 -53 -7 -84 24 -42 37 -109 26 -133 -13 -27 -5 -63 20 -94 38 -47 147 -14
202 62 35 47 38 76 11 109 -17 21 -17 25 -4 46 10 15 13 33 9 51 -4 15 -7 42
-6 61 1 45 -22 78 -62 86 -18 4 -37 11 -43 15 -15 11 -57 17 -83 13z"/>
<path d="M8270 11080 c-27 -6 -70 -71 -70 -106 0 -39 32 -67 78 -67 46 0 66
13 88 54 19 38 18 62 -6 91 -21 28 -52 37 -90 28z"/>
<path d="M6423 10912 c-48 -7 -68 -72 -35 -112 39 -48 132 -17 132 44 0 48
-41 76 -97 68z"/>
<path d="M9468 10535 c-1 -2 -23 -6 -48 -10 -50 -7 -80 -33 -80 -72 0 -29 41
-73 70 -73 15 0 20 -6 20 -24 0 -32 40 -78 82 -95 19 -7 41 -26 50 -41 21 -38
78 -54 133 -39 50 14 105 68 105 103 0 26 15 33 60 27 59 -6 85 -2 102 19 45
56 7 109 -92 130 -36 7 -70 16 -75 21 -34 26 -309 71 -327 54z"/>
<path d="M6175 9894 c-39 -15 -69 -19 -204 -28 -79 -5 -111 -31 -122 -103 -13
-80 -21 -107 -40 -132 -39 -49 -15 -102 54 -119 48 -13 83 -7 111 17 10 9 20
15 22 14 19 -12 48 3 72 37 15 21 33 39 41 40 7 0 26 11 42 24 34 29 102 42
151 28 49 -13 138 3 161 30 39 46 3 126 -58 130 -16 1 -36 10 -43 19 -33 46
-126 67 -187 43z"/>
<path d="M9123 9853 c-78 -20 -136 -54 -147 -86 -8 -23 -6 -36 14 -73 32 -59
42 -66 87 -66 25 0 42 6 53 20 15 19 17 19 27 3 10 -16 118 -48 149 -45 14 2
176 -152 231 -219 35 -43 45 -49 79 -49 30 0 44 6 62 28 41 47 25 109 -72 290
-35 66 -111 139 -158 152 -20 5 -61 10 -92 10 -30 -1 -62 5 -70 11 -8 7 -37
18 -63 25 -39 10 -58 10 -100 -1z"/>
<path d="M5615 9713 c-11 -3 -41 -27 -67 -53 -36 -37 -48 -56 -48 -79 0 -21
-5 -31 -15 -31 -22 0 -42 -38 -54 -103 -6 -32 -17 -68 -26 -80 -35 -50 -4
-109 59 -109 20 0 45 7 55 16 10 9 24 16 33 16 8 0 28 15 45 33 17 17 56 52
88 77 66 51 77 69 74 113 -2 18 3 42 9 54 24 44 2 113 -35 113 -9 0 -24 6 -32
14 -19 16 -59 25 -86 19z"/>
<path d="M6883 9223 c-21 -4 -99 -87 -121 -130 -18 -32 -14 -88 6 -113 14 -17
29 -23 59 -23 36 0 48 7 95 53 29 29 61 65 70 79 23 33 23 83 1 109 -18 21
-71 33 -110 25z"/>
<path d="M10133 8732 c-48 -7 -68 -72 -35 -112 39 -48 132 -17 132 44 0 48
-41 76 -97 68z"/>
<path d="M6003 8102 c-29 -4 -73 -57 -73 -87 0 -43 32 -68 85 -68 57 0 85 25
85 77 0 57 -37 87 -97 78z"/>
<path d="M6443 7093 c-28 -5 -63 -49 -63 -78 0 -43 31 -68 85 -68 38 0 52 5
67 23 50 61 -6 138 -89 123z"/>
<path d="M8512 7003 c-34 -7 -56 -46 -48 -87 11 -56 36 -79 86 -79 36 0 48 6
72 32 15 17 28 42 28 56 0 53 -69 92 -138 78z"/>
<path d="M6283 5223 c-52 -10 -69 -83 -30 -128 29 -34 88 -37 121 -6 20 19 23
19 38 4 10 -9 33 -16 59 -16 49 0 79 28 79 73 0 45 -30 73 -78 73 -23 0 -48
-6 -57 -13 -10 -9 -19 -9 -27 -2 -16 13 -75 21 -105 15z"/>
</g>
</svg>
