<?xml version="1.0" standalone="no"?>
<!DOCTYPE svg PUBLIC "-//W3C//DTD SVG 20010904//EN"
 "http://www.w3.org/TR/2001/REC-SVG-20010904/DTD/svg10.dtd">
<svg version="1.0" xmlns="http://www.w3.org/2000/svg"
 width="1500.000000pt" height="2098.000000pt" viewBox="0 0 1500.000000 2098.000000"
 preserveAspectRatio="xMidYMid meet">
<metadata>
Created by potrace 1.16, written by Peter Selinger 2001-2019
</metadata>
<g transform="translate(0.000000,2098.000000) scale(0.100000,-0.100000)"
fill="none" stroke="grey" stroke-width="2">
<path d="M0 10490 l0 -10490 7500 0 7500 0 0 10490 0 10490 -7500 0 -7500 0 0
-10490z m6585 7869 c72 -12 148 -29 170 -39 52 -22 119 -37 228 -50 49 -6 146
-24 215 -39 116 -26 131 -27 171 -15 24 7 49 10 54 7 32 -19 371 4 542 37 213
42 462 83 495 81 8 0 66 -1 129 -1 63 0 146 -7 185 -15 83 -17 262 -88 291
-115 11 -10 43 -28 70 -40 28 -12 83 -38 124 -57 41 -19 122 -45 180 -59 58
-13 158 -39 221 -58 63 -19 158 -46 210 -61 169 -47 213 -63 322 -114 58 -28
110 -51 115 -51 18 0 214 -129 316 -209 l109 -84 -7 -45 c-4 -25 -28 -100 -55
-166 -222 -559 -303 -768 -335 -871 -20 -66 -48 -154 -60 -195 -47 -150 -119
-437 -146 -580 -21 -115 -14 -446 16 -692 14 -119 32 -239 40 -265 23 -75 18
-167 -29 -545 -49 -388 -78 -636 -100 -858 -22 -217 -39 -692 -33 -885 9 -246
30 -354 210 -1065 147 -583 168 -672 252 -1065 29 -135 184 -1136 226 -1460 5
-44 14 -107 20 -140 5 -33 34 -307 64 -610 45 -457 58 -629 75 -1020 11 -258
25 -542 31 -630 24 -346 8 -985 -26 -1025 -7 -8 -20 -32 -30 -53 -34 -73 -79
-98 -215 -119 -68 -11 -200 -13 -615 -8 -71 0 -155 -4 -185 -10 -30 -6 -91
-13 -135 -15 -44 -3 -109 -9 -145 -14 -36 -5 -110 -12 -165 -15 -55 -3 -118
-8 -140 -11 -22 -3 -92 -7 -155 -10 -133 -6 -155 -8 -310 -28 -63 -9 -158 -18
-210 -22 -52 -3 -117 -8 -145 -11 -27 -2 -108 -6 -180 -8 -71 -3 -182 -8 -245
-13 -217 -15 -828 -8 -930 12 -13 2 -51 7 -84 11 -34 3 -72 7 -86 9 -31 3
-199 34 -220 40 -8 2 -31 6 -51 9 -20 3 -90 17 -154 30 -65 14 -121 23 -125
21 -4 -2 -28 2 -54 10 -25 8 -69 16 -96 19 -27 2 -53 7 -57 9 -4 3 -26 8 -48
11 -40 6 -268 59 -505 118 -69 17 -154 37 -190 45 -36 9 -74 20 -85 24 -11 5
-33 11 -50 14 -16 2 -82 17 -145 34 -63 16 -131 32 -150 35 -19 3 -64 14 -100
25 -36 11 -75 22 -85 24 -11 2 -27 7 -35 10 -8 3 -70 24 -138 46 -68 23 -137
48 -155 57 -47 25 -173 150 -218 216 -32 50 -38 66 -38 115 -3 180 7 1021 13
1208 9 278 58 858 97 1165 17 129 34 271 40 315 5 44 13 100 18 125 6 25 17
95 26 155 23 148 53 329 65 390 6 28 26 136 45 240 54 298 95 515 110 580 8
33 26 114 40 180 26 119 79 328 136 540 60 218 119 462 133 550 28 170 45 261
90 470 43 197 47 230 68 537 22 323 22 329 5 600 -41 633 -77 898 -188 1373
l-41 180 13 125 c18 164 16 452 -5 615 -9 72 -25 202 -37 290 -40 320 -110
670 -143 716 -9 13 -21 42 -27 64 -6 22 -41 103 -78 180 -38 77 -77 160 -89
185 -11 25 -36 80 -56 122 -20 43 -36 85 -36 95 0 10 -9 43 -20 73 -11 30 -20
61 -20 69 0 9 -16 51 -34 96 -22 51 -37 104 -41 145 l-6 65 110 110 c60 61
127 124 148 142 93 76 484 273 542 273 9 0 70 15 136 34 66 19 166 46 222 60
56 14 126 36 155 50 29 14 76 30 103 37 28 7 82 28 120 47 78 39 283 171 304
195 21 26 298 23 466 -4z"/>
</g>
</svg>
