<?xml version="1.0" standalone="no"?>
<!DOCTYPE svg PUBLIC "-//W3C//DTD SVG 20010904//EN"
 "http://www.w3.org/TR/2001/REC-SVG-20010904/DTD/svg10.dtd">
<svg version="1.0" xmlns="http://www.w3.org/2000/svg"
 width="1500.000000pt" height="2098.000000pt" viewBox="0 0 1500.000000 2098.000000"
 preserveAspectRatio="xMidYMid meet">
<metadata>
Created by potrace 1.16, written by Peter Selinger 2001-2019
</metadata>
<g transform="translate(0.000000,2098.000000) scale(0.100000,-0.100000)"
fill="none" stroke="grey" stroke-width="2">
<path d="M0 10490 l0 -10490 7500 0 7500 0 0 10490 0 10490 -7500 0 -7500 0 0
-10490z m7063 7804 l92 -36 235 -9 c250 -9 315 -4 515 42 117 26 313 36 386
19 30 -7 70 -22 89 -35 20 -12 51 -26 70 -30 19 -4 53 -22 75 -40 22 -17 63
-40 90 -49 28 -10 79 -31 115 -48 36 -17 79 -36 95 -43 17 -6 46 -19 65 -28
19 -8 53 -21 75 -27 22 -7 54 -25 70 -40 35 -32 320 -180 347 -180 10 0 21 -6
24 -14 5 -13 -23 -334 -71 -811 -40 -391 -42 -561 -11 -890 14 -154 32 -311
39 -350 19 -109 12 -278 -21 -515 -38 -265 -48 -363 -67 -655 -24 -368 -23
-804 1 -923 3 -13 21 -40 41 -59 l36 -36 -6 -73 c-3 -42 -12 -83 -21 -96 -26
-36 -20 -178 14 -384 42 -246 86 -560 105 -745 26 -259 75 -989 85 -1259 9
-250 30 -641 50 -930 5 -80 14 -260 20 -400 14 -366 77 -1563 100 -1910 11
-162 25 -374 31 -470 31 -521 72 -1112 89 -1310 12 -124 32 -349 45 -500 14
-151 34 -378 45 -505 26 -293 76 -810 120 -1230 16 -152 38 -334 60 -490 11
-77 36 -261 55 -410 29 -227 72 -546 114 -845 5 -36 12 -104 15 -151 l7 -85
-50 -50 c-34 -34 -63 -53 -97 -63 -27 -8 -53 -17 -59 -21 -18 -13 -129 -47
-195 -60 -36 -6 -105 -20 -155 -30 -49 -11 -106 -22 -125 -25 -68 -12 -247
-56 -375 -93 l-130 -37 -225 0 c-127 0 -255 5 -295 12 -38 6 -126 21 -195 32
-437 71 -505 89 -559 145 -39 40 -44 73 -61 386 -19 365 -39 704 -45 760 -2
30 -9 161 -15 290 -10 239 -33 613 -50 840 -5 69 -14 226 -20 350 -11 223 -34
627 -46 810 -4 52 -13 107 -21 123 -9 18 -11 33 -4 45 5 9 9 43 9 74 0 74 -18
100 -73 100 -59 0 -76 -26 -70 -110 3 -37 5 -74 5 -82 1 -23 -16 -112 -25
-133 -4 -10 -2 -35 5 -56 9 -29 10 -43 1 -60 -16 -28 -33 -329 -20 -352 6 -11
4 -45 -6 -96 -8 -43 -14 -87 -13 -98 0 -11 -4 -94 -10 -185 -6 -91 -11 -185
-12 -210 -3 -182 -11 -324 -20 -340 -6 -11 -9 -74 -8 -147 1 -89 -2 -135 -11
-151 -9 -17 -10 -40 -5 -75 11 -75 5 -211 -12 -297 -10 -45 -15 -116 -14 -180
1 -58 0 -228 -4 -378 -5 -211 -9 -278 -20 -295 -8 -12 -19 -72 -25 -137 -21
-223 -40 -385 -46 -406 -11 -36 -195 -142 -340 -197 -71 -26 -356 -88 -430
-93 -22 -2 -76 -11 -120 -21 -108 -24 -269 -21 -390 7 -82 19 -181 36 -355 60
-173 24 -220 32 -285 46 -69 16 -159 44 -220 70 -46 19 -128 83 -168 131 -19
24 -47 75 -62 115 -15 40 -33 88 -41 106 -8 18 -14 49 -14 70 1 48 26 217 39
262 6 19 11 61 11 92 0 31 4 101 9 155 5 54 15 163 21 243 6 80 15 179 20 220
9 71 26 274 50 585 6 77 17 194 25 260 8 66 21 192 30 280 9 88 27 255 40 370
31 270 51 467 65 630 14 174 77 963 90 1145 19 254 41 514 74 870 8 85 20 245
26 355 6 110 15 274 20 365 5 91 12 242 15 335 6 185 20 424 36 605 24 278 29
347 39 555 6 121 17 328 25 460 8 132 17 310 20 395 3 85 12 268 20 405 8 138
17 324 20 415 4 91 13 244 20 340 8 96 17 227 20 290 9 177 24 363 75 910 6
63 15 144 20 180 6 36 17 119 26 184 9 66 18 124 20 130 4 11 47 314 59 411
12 102 -43 136 -191 121 l-64 -7 -20 33 c-26 42 -25 92 1 134 23 38 28 40 159
53 75 8 98 15 111 30 15 18 16 84 14 683 -1 411 -6 692 -13 738 -13 91 -67
318 -89 372 -15 36 -14 42 11 108 41 111 56 193 68 365 20 296 -8 1314 -42
1559 -6 43 -25 119 -41 168 -16 49 -29 96 -29 103 0 7 15 18 33 25 17 6 79 36
137 65 58 29 148 70 200 91 59 24 124 60 173 96 135 100 328 193 482 232 33 8
105 31 160 51 123 44 172 42 308 -11z"/>
</g>
</svg>
