<?xml version="1.0" standalone="no"?>
<!DOCTYPE svg PUBLIC "-//W3C//DTD SVG 20010904//EN"
 "http://www.w3.org/TR/2001/REC-SVG-20010904/DTD/svg10.dtd">
<svg version="1.0" xmlns="http://www.w3.org/2000/svg"
 width="1500.000000pt" height="2098.000000pt" viewBox="0 0 1500.000000 2098.000000"
 preserveAspectRatio="xMidYMid meet">
<metadata>
Created by potrace 1.16, written by Peter Selinger 2001-2019
</metadata>
<g transform="translate(0.000000,2098.000000) scale(0.100000,-0.100000)"
fill="none" stroke="grey" stroke-width="2">
<path d="M0 10490 l0 -10490 7500 0 7500 0 0 10490 0 10490 -7500 0 -7500 0 0
-10490z m7973 7798 c15 -6 41 -29 57 -52 32 -46 235 -248 323 -320 61 -51 145
-90 532 -251 317 -132 383 -160 545 -235 141 -66 336 -150 443 -191 l89 -34
-5 -35 c-3 -19 -26 -91 -52 -160 -31 -82 -55 -171 -71 -258 -13 -73 -51 -249
-83 -390 -33 -141 -71 -313 -85 -380 -15 -68 -55 -240 -91 -381 -35 -142 -78
-335 -95 -429 -16 -94 -45 -235 -64 -314 -19 -79 -42 -181 -51 -228 -9 -47
-28 -130 -41 -185 -22 -92 -62 -387 -79 -579 -4 -43 -13 -92 -20 -110 -15 -38
-24 -149 -34 -456 -7 -186 -6 -247 5 -300 135 -633 190 -998 259 -1725 14
-148 32 -333 40 -410 107 -1039 154 -1758 175 -2670 34 -1486 66 -2207 130
-2970 16 -192 39 -478 50 -635 32 -438 91 -1044 160 -1650 11 -96 31 -294 45
-440 14 -146 29 -299 34 -340 5 -41 12 -115 16 -165 3 -49 10 -119 16 -154 7
-43 6 -67 -1 -76 -6 -7 -17 -35 -25 -62 -21 -70 -75 -117 -170 -148 -27 -9
-59 -20 -70 -25 -31 -13 -112 -36 -200 -54 -44 -10 -107 -24 -140 -31 -95 -22
-204 -43 -285 -55 -41 -6 -91 -16 -110 -20 -19 -5 -75 -14 -125 -20 -49 -6
-124 -19 -165 -30 -270 -67 -546 -90 -680 -56 -165 42 -160 39 -304 161 -79
67 -85 84 -96 268 -5 89 -10 211 -10 270 0 60 -5 118 -11 129 -6 11 -12 73
-13 137 -3 176 -14 546 -25 831 -6 140 -13 680 -17 1200 -3 520 -10 983 -15
1030 -5 47 -9 93 -8 103 7 97 -8 641 -20 757 -5 47 -15 222 -21 390 -12 325
-16 349 -63 351 -92 5 -93 3 -101 -273 -21 -767 -60 -1758 -91 -2358 -14 -256
-29 -593 -35 -750 -15 -430 -33 -1447 -26 -1466 3 -8 2 -23 -3 -32 -5 -9 -10
-100 -12 -202 -2 -146 -7 -192 -20 -220 -9 -19 -19 -51 -23 -70 -21 -113 -151
-214 -341 -265 -33 -9 -82 -24 -110 -34 -83 -30 -153 -38 -290 -34 -156 5
-296 31 -567 108 -106 30 -202 55 -214 55 -11 0 -52 11 -90 24 -84 30 -373
106 -401 106 -38 0 -217 63 -304 107 -48 24 -106 61 -130 82 l-44 39 3 108 c1
60 9 172 17 249 8 77 28 311 45 520 17 209 37 445 45 525 8 80 24 258 35 395
11 138 27 311 35 385 8 74 24 259 35 410 11 151 29 370 40 485 11 116 29 329
40 475 11 146 27 346 35 445 21 268 62 855 79 1145 9 140 22 372 31 515 8 143
20 357 25 475 6 118 19 393 30 610 27 550 48 1051 60 1480 6 201 15 451 20
555 5 105 12 262 15 350 20 511 140 1507 216 1790 31 112 44 191 69 393 10 81
10 96 -4 118 -15 21 -16 51 -11 227 3 111 10 249 16 307 9 85 8 129 -5 230 -9
69 -20 186 -26 260 -32 420 -41 515 -50 548 -5 20 -25 109 -45 197 -32 150
-49 238 -124 630 -17 88 -65 291 -106 450 -41 160 -89 349 -107 420 -70 295
-139 565 -163 645 -40 132 -39 133 85 190 145 65 348 159 452 209 48 22 90 41
92 41 2 0 91 41 198 91 106 50 294 138 418 195 123 58 233 113 245 123 11 10
67 51 125 91 57 41 154 122 216 181 104 99 136 121 199 131 53 9 922 -4 948
-14z"/>
</g>
</svg>
