<?xml version="1.0" standalone="no"?>
<!DOCTYPE svg PUBLIC "-//W3C//DTD SVG 20010904//EN"
 "http://www.w3.org/TR/2001/REC-SVG-20010904/DTD/svg10.dtd">
<svg version="1.0" xmlns="http://www.w3.org/2000/svg"
 width="1500.000000pt" height="2098.000000pt" viewBox="0 0 1500.000000 2098.000000"
 preserveAspectRatio="xMidYMid meet">
<metadata>
Created by potrace 1.16, written by Peter Selinger 2001-2019
</metadata>
<g transform="translate(0.000000,2098.000000) scale(0.100000,-0.100000)"
fill="none" stroke="grey" stroke-width="2">
<path d="M0 10490 l0 -10490 7500 0 7500 0 0 10490 0 10490 -7500 0 -7500 0 0
-10490z m6478 7741 c223 -112 685 -235 887 -236 44 0 85 -3 90 -6 30 -18 83
-17 248 6 100 14 200 30 222 36 109 28 448 143 555 189 144 61 122 64 323 -33
l178 -86 -6 -58 c-4 -32 -12 -109 -18 -172 l-12 -115 -32 -8 c-36 -9 -63 -41
-63 -74 0 -27 36 -74 57 -74 13 0 15 -11 9 -72 -3 -40 -9 -125 -12 -188 -4
-70 -12 -123 -20 -135 -18 -25 -18 -66 0 -107 9 -20 19 -105 25 -211 11 -173
11 -179 -9 -204 -28 -36 -25 -70 9 -102 24 -22 29 -37 35 -96 9 -80 81 -369
124 -496 17 -50 28 -97 25 -113 -6 -29 19 -76 41 -76 7 0 18 -12 25 -27 47
-104 109 -186 235 -312 l133 -133 -34 -191 c-18 -106 -40 -230 -48 -277 -31
-183 -65 -336 -81 -363 -9 -17 -14 -40 -11 -55 3 -15 -8 -90 -24 -167 -16 -77
-29 -151 -29 -164 0 -13 -16 -41 -35 -62 -39 -44 -44 -75 -16 -110 18 -24 17
-27 -16 -189 -19 -91 -37 -175 -40 -188 -4 -15 2 -34 16 -53 32 -43 51 -240
40 -424 -3 -63 8 -191 26 -294 13 -71 14 -100 6 -118 -18 -40 -13 -79 16 -113
23 -28 29 -51 52 -209 l25 -178 -22 -28 c-32 -40 -28 -72 13 -109 34 -31 35
-36 63 -199 27 -156 28 -167 11 -167 -22 0 -59 -46 -59 -74 0 -34 28 -65 65
-72 40 -7 36 3 65 -174 11 -69 23 -137 26 -152 4 -21 2 -28 -10 -28 -19 0 -46
-38 -46 -66 0 -29 35 -72 62 -76 21 -3 25 -16 50 -163 33 -197 33 -188 6 -200
-56 -25 -43 -111 18 -129 l31 -9 30 -178 c25 -149 27 -180 16 -195 -20 -27
-16 -62 11 -89 20 -20 27 -45 45 -177 24 -165 27 -225 16 -276 -5 -23 -2 -39
11 -60 13 -19 25 -77 41 -206 19 -158 20 -182 7 -200 -21 -30 -17 -64 9 -90
24 -24 36 -119 137 -1086 43 -402 61 -590 75 -750 8 -102 19 -234 25 -295 5
-60 14 -180 20 -265 6 -85 15 -200 20 -255 5 -55 15 -165 20 -245 6 -80 18
-224 26 -320 8 -96 17 -209 20 -250 3 -41 9 -124 15 -185 5 -60 13 -175 19
-255 5 -80 14 -198 20 -262 6 -64 13 -159 15 -210 16 -378 62 -1760 69 -2088
1 -74 8 -220 15 -325 23 -376 30 -509 25 -517 -3 -4 -18 -8 -34 -8 -15 0 -56
-9 -91 -19 -78 -24 -150 -35 -394 -61 -104 -12 -220 -25 -256 -30 -36 -5 -119
-12 -185 -15 -163 -7 -279 -14 -409 -25 -175 -15 -412 -29 -517 -31 -54 -1
-118 -5 -142 -10 -124 -23 -324 -15 -353 14 -7 7 -14 52 -17 107 -3 52 -10
147 -15 210 -6 63 -13 196 -16 295 -10 332 -25 709 -36 890 -5 99 -11 225 -13
280 -4 95 -10 216 -40 735 -7 124 -13 241 -13 260 -1 19 -8 118 -16 220 -8
102 -15 210 -15 240 0 30 -5 96 -10 145 -6 50 -15 223 -21 385 -7 162 -16 333
-21 380 -5 47 -14 164 -20 260 -6 96 -19 288 -30 425 -11 138 -22 282 -24 320
-2 39 -9 120 -15 180 -7 61 -13 160 -15 220 -2 61 -11 238 -20 395 -8 157 -15
310 -16 341 0 74 -20 101 -75 101 -53 0 -72 -25 -79 -105 -6 -62 -18 -251 -36
-597 -5 -102 -14 -257 -20 -345 -6 -88 -15 -259 -20 -380 -9 -207 -16 -324
-40 -645 -6 -74 -14 -216 -20 -315 -5 -99 -14 -241 -20 -315 -14 -188 -38
-564 -45 -695 -22 -440 -47 -859 -59 -1022 -9 -106 -20 -313 -26 -460 -5 -148
-15 -342 -20 -433 -6 -91 -15 -298 -21 -460 -10 -294 -29 -560 -44 -592 -11
-27 -61 -31 -380 -31 -165 1 -480 2 -700 2 -220 1 -461 6 -535 11 -290 22
-399 30 -500 35 -58 3 -134 13 -170 22 -145 35 -169 59 -149 148 6 28 12 133
14 235 2 125 9 213 21 272 12 58 15 94 8 108 -6 13 -4 86 4 198 7 97 15 233
17 302 3 69 9 179 15 245 5 66 12 218 15 338 3 121 8 224 12 230 3 6 8 113 9
239 2 148 7 235 15 249 7 14 9 46 5 88 -3 36 -1 140 5 231 6 91 12 214 13 274
3 100 11 252 37 686 6 91 11 185 11 210 3 74 17 288 27 405 6 61 15 191 21
290 8 129 16 189 28 212 14 27 14 38 5 64 -7 17 -10 52 -7 77 2 26 11 133 19
237 8 105 23 268 32 364 15 156 19 176 40 197 27 27 30 60 8 92 -15 20 -14 39
1 198 16 159 20 179 41 200 27 27 29 60 7 92 -14 20 -14 38 2 190 13 130 21
172 35 191 21 26 25 72 9 102 -11 19 0 156 30 394 6 44 20 172 31 284 12 121
26 213 34 225 10 15 14 54 13 131 -1 109 31 335 53 377 5 10 12 53 15 96 2 42
16 144 30 226 20 121 29 155 49 178 26 31 32 76 15 107 -6 12 -6 38 0 72 5 30
14 92 19 139 16 137 99 644 111 674 5 15 10 51 10 79 0 89 45 361 65 390 13
21 16 37 10 72 -4 30 -1 62 9 93 8 26 17 68 21 94 4 34 15 56 36 77 34 35 37
68 8 105 -19 24 -21 35 -15 89 17 145 45 278 65 303 22 28 27 73 12 102 -10
20 4 128 25 188 18 50 35 262 36 454 2 120 -3 170 -25 290 -70 367 -98 518
-106 556 -6 29 -4 49 5 65 22 40 17 78 -14 107 -26 25 -31 44 -71 261 -24 128
-59 295 -77 369 -37 147 -40 177 -21 185 28 11 175 127 190 151 10 14 26 26
37 26 21 0 50 35 50 61 0 9 25 59 55 110 30 51 55 97 55 101 0 4 7 8 16 8 8 0
29 14 46 31 29 28 30 33 25 87 -5 44 -1 72 17 127 13 38 25 79 27 90 3 15 13
20 44 22 65 4 95 60 59 111 -8 12 -23 22 -33 22 -26 0 -30 8 -20 43 13 49 37
265 49 432 22 326 7 772 -29 868 -5 12 -6 37 -3 55 3 24 -1 42 -15 60 -11 15
-32 79 -47 142 -15 63 -29 123 -32 132 -4 13 14 27 78 59 63 32 328 153 346
158 1 1 37 -16 80 -38z"/>
<path d="M8653 18042 c-48 -7 -68 -72 -35 -112 39 -48 132 -17 132 44 0 48
-41 76 -97 68z"/>
<path d="M9073 12403 c-27 -5 -53 -39 -53 -69 0 -40 32 -67 80 -67 33 0 48 6
62 23 47 58 -7 128 -89 113z"/>
</g>
</svg>
