<?xml version="1.0" standalone="no"?>
<!DOCTYPE svg PUBLIC "-//W3C//DTD SVG 20010904//EN"
 "http://www.w3.org/TR/2001/REC-SVG-20010904/DTD/svg10.dtd">
<svg version="1.0" xmlns="http://www.w3.org/2000/svg"
 width="1500.000000pt" height="2098.000000pt" viewBox="0 0 1500.000000 2098.000000"
 preserveAspectRatio="xMidYMid meet">
<metadata>
Created by potrace 1.16, written by Peter Selinger 2001-2019
</metadata>
<g transform="translate(0.000000,2098.000000) scale(0.100000,-0.100000)"
fill="none" stroke="grey" stroke-width="2">
<path d="M0 10490 l0 -10490 7500 0 7500 0 0 10490 0 10490 -7500 0 -7500 0 0
-10490z m6553 7781 c189 -83 426 -158 592 -187 259 -46 658 -36 885 22 216 56
327 98 445 170 41 24 79 44 86 44 15 0 124 -40 219 -80 128 -55 318 -126 410
-155 30 -9 76 -30 101 -46 25 -16 60 -34 77 -40 37 -13 38 -17 13 -95 -22 -65
-101 -381 -149 -594 -72 -315 -108 -623 -97 -830 22 -416 102 -695 272 -954
46 -70 215 -248 283 -298 l35 -26 -22 -68 c-61 -193 -97 -350 -142 -621 -17
-101 -35 -202 -40 -225 -6 -24 -19 -104 -31 -178 -11 -74 -30 -191 -40 -260
-11 -69 -29 -197 -40 -285 -11 -88 -25 -191 -30 -230 -20 -151 -9 -241 71
-580 23 -99 22 -208 -5 -355 -16 -82 -18 -54 44 -600 16 -146 39 -368 50 -495
23 -255 61 -659 85 -890 15 -148 22 -238 50 -625 8 -107 21 -276 29 -375 8
-99 22 -288 31 -420 9 -132 22 -303 30 -380 8 -77 17 -174 20 -215 25 -335 50
-613 75 -825 44 -374 119 -1166 145 -1515 6 -76 18 -203 55 -565 11 -110 34
-344 50 -520 16 -176 38 -419 49 -540 12 -121 27 -292 36 -380 8 -88 24 -239
35 -335 31 -261 48 -434 65 -640 8 -102 26 -297 40 -435 79 -805 96 -1056 76
-1118 -27 -80 -128 -114 -476 -161 -66 -9 -163 -23 -215 -31 -130 -19 -191
-28 -215 -30 -11 -1 -54 -5 -95 -9 -41 -4 -102 -9 -135 -12 -33 -3 -118 -13
-190 -24 -274 -40 -393 -47 -710 -42 -179 3 -181 3 -320 -33 -154 -40 -286
-60 -474 -70 -142 -8 -640 -9 -721 -1 -30 3 -91 8 -135 12 -44 3 -83 8 -86 9
-3 2 -39 5 -80 5 -41 1 -101 6 -134 11 -33 5 -132 15 -220 24 -281 26 -423 46
-660 90 -130 24 -320 72 -393 99 -48 17 -329 76 -364 76 -11 0 -77 19 -146 42
-166 56 -175 70 -152 225 5 38 21 226 36 418 45 624 89 1127 129 1495 36 328
47 454 85 935 63 806 78 999 94 1170 25 266 45 489 61 700 15 190 47 530 80
845 8 80 20 199 25 265 26 287 31 347 59 626 30 295 55 584 66 779 11 186 35
472 51 600 24 198 112 1152 139 1510 8 113 24 304 35 425 11 121 26 324 35
450 16 229 51 601 80 830 47 381 52 649 16 910 -72 523 -219 1268 -270 1363
-6 11 -11 31 -11 44 0 13 -9 48 -19 78 -13 38 -16 60 -10 72 5 10 44 43 87 74
151 111 285 270 371 442 110 219 194 548 211 827 24 390 -58 762 -285 1303
-30 71 -28 88 11 103 15 5 41 22 59 37 17 16 44 33 61 39 16 6 103 39 194 73
91 34 212 85 270 112 91 44 215 83 273 87 10 0 69 -21 130 -48z"/>
<path d="M7253 17903 c-51 -10 -71 -98 -34 -144 16 -19 28 -23 76 -23 48 0 60
4 76 23 23 28 25 79 4 108 -13 18 -77 46 -95 42 -3 -1 -15 -4 -27 -6z"/>
</g>
</svg>
