<?xml version="1.0" standalone="no"?>
<!DOCTYPE svg PUBLIC "-//W3C//DTD SVG 20010904//EN"
 "http://www.w3.org/TR/2001/REC-SVG-20010904/DTD/svg10.dtd">
<svg version="1.0" xmlns="http://www.w3.org/2000/svg"
 width="1500.000000pt" height="2098.000000pt" viewBox="0 0 1500.000000 2098.000000"
 preserveAspectRatio="xMidYMid meet">
<metadata>
Created by potrace 1.16, written by Peter Selinger 2001-2019
</metadata>
<g transform="translate(0.000000,2098.000000) scale(0.100000,-0.100000)"
fill="none" stroke="grey" stroke-width="2">
<path d="M0 10490 l0 -10490 7500 0 7500 0 0 10490 0 10490 -7500 0 -7500 0 0
-10490z m8490 7715 c20 -12 107 -58 195 -102 168 -83 290 -148 315 -168 8 -6
51 -24 95 -40 44 -15 85 -31 90 -35 6 -4 69 -33 140 -64 335 -148 682 -322
790 -396 106 -74 193 -177 265 -313 47 -90 87 -194 179 -469 65 -194 135 -420
155 -503 20 -82 74 -301 121 -485 112 -447 195 -816 295 -1315 23 -115 64
-318 91 -450 27 -132 117 -573 199 -980 82 -407 189 -920 238 -1140 50 -220
120 -544 157 -720 36 -176 86 -414 110 -530 24 -115 73 -354 110 -530 36 -176
74 -361 85 -410 10 -50 42 -226 70 -390 27 -165 53 -307 56 -315 3 -8 10 -54
15 -101 4 -47 20 -119 34 -160 28 -84 31 -130 11 -162 -8 -12 -17 -40 -21 -62
-9 -53 -29 -89 -78 -142 -50 -54 -124 -103 -192 -127 -27 -10 -61 -24 -75 -31
-14 -7 -50 -18 -80 -25 -30 -7 -59 -16 -65 -20 -10 -7 -44 -17 -155 -45 -70
-18 -383 -61 -515 -71 -190 -15 -369 5 -460 49 -55 27 -64 36 -130 118 l-44
55 -6 115 c-9 170 -9 261 0 293 4 16 3 77 -3 135 -7 58 -19 174 -27 256 -38
363 -58 521 -79 626 -29 151 -55 295 -61 349 -4 30 -13 84 -22 120 -19 83 -31
159 -81 505 -36 253 -52 376 -57 441 -2 27 -9 83 -14 124 -6 41 -16 118 -22
170 -5 52 -15 113 -20 135 -5 22 -11 58 -13 80 -6 59 -50 303 -76 420 -5 22
-18 85 -30 140 -12 55 -28 116 -35 135 -24 68 -35 106 -41 152 -9 61 -43 121
-74 128 -40 10 -73 -4 -93 -38 -18 -30 -18 -44 -8 -240 13 -233 46 -541 96
-897 18 -132 36 -265 40 -295 16 -131 138 -938 161 -1065 60 -333 86 -508 144
-975 42 -339 74 -539 90 -575 25 -54 30 -77 34 -165 7 -143 27 -336 51 -505
28 -190 33 -226 75 -545 16 -124 45 -331 64 -460 19 -129 42 -316 51 -415 8
-99 24 -238 35 -310 11 -71 27 -186 35 -255 9 -69 23 -146 31 -171 13 -38 14
-65 6 -145 -18 -184 -61 -286 -172 -406 -45 -48 -85 -88 -90 -88 -5 0 -36 -18
-68 -40 -111 -76 -140 -83 -377 -86 -237 -4 -371 -10 -385 -19 -6 -4 -23 -9
-38 -11 -36 -7 -123 -33 -143 -44 -41 -21 -268 -40 -326 -26 -17 4 -44 9 -60
11 -15 2 -73 15 -128 30 -151 39 -226 42 -322 10 -89 -29 -88 -29 -128 -54
-49 -31 -167 -88 -205 -99 -61 -18 -173 -33 -235 -31 -78 3 -346 54 -485 93
-99 28 -240 28 -370 0 -126 -27 -149 -31 -230 -39 -30 -3 -68 -9 -85 -14 -16
-4 -43 -7 -60 -5 -16 2 -65 5 -108 8 -43 3 -93 9 -110 15 -18 6 -43 12 -57 15
-46 7 -235 46 -285 57 -27 7 -66 13 -85 14 -52 3 -173 14 -270 25 -47 5 -110
12 -140 15 -30 2 -66 7 -80 9 -14 3 -56 9 -95 15 -38 6 -81 13 -95 16 -14 3
-56 10 -93 15 -65 10 -175 41 -207 59 -9 5 -31 12 -50 16 -18 4 -47 16 -64 26
-32 19 -79 43 -106 53 -8 3 -22 10 -30 15 -18 11 -110 52 -165 73 -196 76
-245 104 -269 156 -18 37 -18 34 10 292 9 74 19 191 25 260 5 69 14 152 19
185 12 76 40 410 45 536 2 53 6 111 9 130 2 19 10 81 16 139 13 130 47 408 62
515 6 44 12 94 13 110 6 79 18 189 30 280 8 55 17 150 21 210 3 61 10 146 15
190 20 173 40 333 50 400 5 39 12 98 14 131 3 34 10 83 16 110 17 78 40 224
45 284 2 30 11 78 19 105 18 66 36 171 45 270 4 44 12 94 18 112 6 18 13 78
17 135 4 57 22 194 41 306 19 112 32 213 28 224 -3 11 1 37 10 57 16 36 34
136 41 221 2 25 9 72 15 105 6 33 13 89 15 124 3 34 11 91 20 125 26 107 40
214 50 361 1 23 7 50 12 60 5 11 10 57 11 102 1 46 6 100 11 120 16 62 25 308
23 622 -2 284 -3 296 -25 335 -23 41 -52 56 -95 48 -36 -7 -50 -39 -66 -157
-9 -60 -24 -169 -35 -241 -10 -72 -21 -135 -24 -140 -3 -5 -11 -48 -17 -94 -6
-47 -18 -109 -26 -139 -7 -29 -21 -99 -29 -155 -9 -55 -22 -135 -30 -176 -15
-78 -32 -177 -67 -389 -11 -68 -26 -138 -33 -155 -15 -36 -38 -221 -34 -275 2
-20 -2 -47 -8 -61 -6 -14 -32 -187 -58 -385 -70 -532 -78 -602 -105 -930 -11
-137 -30 -306 -41 -375 -13 -78 -23 -205 -28 -337 -5 -148 -11 -216 -20 -227
-13 -15 -87 -53 -146 -75 -58 -21 -249 -29 -383 -16 -85 8 -278 34 -293 40 -8
2 -30 6 -49 9 -180 22 -435 72 -520 103 -65 23 -131 75 -180 140 -24 32 -56
75 -72 95 -28 37 -29 39 -14 81 8 24 21 58 30 77 8 19 29 118 46 220 36 207
170 889 254 1285 111 524 149 709 236 1145 49 245 112 567 140 715 28 149 76
398 106 555 31 157 71 364 89 460 19 96 43 218 54 270 30 148 77 396 116 615
20 110 45 245 55 300 24 129 92 555 131 815 18 125 81 417 144 675 35 143 80
334 100 425 58 262 81 348 166 607 111 341 131 393 183 476 67 107 182 194
476 361 136 78 703 362 815 409 33 14 107 49 165 77 58 29 139 66 180 82 41
16 126 56 189 89 63 32 125 59 138 59 57 0 95 -36 248 -230 54 -69 119 -147
144 -174 111 -118 388 -251 480 -231 16 3 48 8 70 10 23 3 63 14 89 26 26 11
74 29 107 40 33 10 85 35 115 55 73 50 319 298 403 406 89 116 126 126 227 63z"/>
</g>
</svg>
