<?xml version="1.0" standalone="no"?>
<!DOCTYPE svg PUBLIC "-//W3C//DTD SVG 20010904//EN"
 "http://www.w3.org/TR/2001/REC-SVG-20010904/DTD/svg10.dtd">
<svg version="1.0" xmlns="http://www.w3.org/2000/svg"
 width="1500.000000pt" height="2098.000000pt" viewBox="0 0 1500.000000 2098.000000"
 preserveAspectRatio="xMidYMid meet">
<metadata>
Created by potrace 1.16, written by Peter Selinger 2001-2019
</metadata>
<g transform="translate(0.000000,2098.000000) scale(0.100000,-0.100000)"
fill="none" stroke="grey" stroke-width="2">
<path d="M0 10490 l0 -10490 7500 0 7500 0 0 10490 0 10490 -7500 0 -7500 0 0
-10490z m8765 7811 c350 -54 492 -78 504 -85 4 -3 11 -67 15 -143 4 -76 13
-201 21 -278 8 -77 19 -219 25 -315 14 -235 37 -467 61 -629 21 -139 73 -420
89 -481 5 -20 23 -116 39 -214 25 -146 35 -185 56 -215 29 -41 216 -234 349
-361 48 -47 93 -96 99 -110 17 -40 7 -818 -12 -932 -23 -141 -51 -435 -72
-758 -32 -510 -18 -872 46 -1220 130 -696 166 -916 230 -1400 39 -297 57 -471
75 -735 6 -77 17 -228 25 -335 32 -423 44 -626 55 -895 6 -154 15 -381 20
-505 33 -763 42 -1403 37 -2825 -4 -1083 -9 -1523 -21 -1815 -9 -226 -20 -812
-26 -1418 -5 -568 -12 -1038 -16 -1043 -3 -6 -17 -14 -29 -19 -13 -5 -32 -24
-41 -42 -9 -18 -37 -53 -63 -78 -25 -25 -72 -78 -103 -117 -79 -99 -127 -119
-298 -128 -47 -3 -101 -8 -120 -11 -19 -3 -57 -7 -85 -9 -27 -2 -97 -9 -155
-14 -58 -6 -163 -13 -235 -15 -71 -3 -177 -7 -235 -11 -131 -8 -130 -8 -160
-5 -14 1 -68 1 -120 0 -52 0 -120 2 -150 5 -30 3 -91 8 -135 10 -44 3 -102 7
-130 10 -27 4 -75 7 -106 9 -30 1 -60 6 -66 9 -6 4 -42 9 -80 12 -37 3 -81 7
-98 10 -16 2 -53 6 -82 8 -28 3 -55 7 -60 10 -12 8 -105 22 -211 32 -35 3 -78
8 -95 11 -18 2 -84 9 -147 14 -63 5 -133 12 -155 16 -22 3 -62 7 -90 9 -103 7
-188 16 -197 21 -4 3 -43 8 -86 10 -42 3 -101 9 -131 13 -60 9 -471 7 -511 -3
-14 -3 -47 -8 -75 -11 -68 -8 -91 -11 -150 -19 -27 -4 -86 -9 -130 -11 -79 -4
-140 -9 -245 -20 -261 -28 -343 -26 -465 8 -102 29 -142 61 -268 210 -27 31
-56 57 -66 57 -40 0 -42 14 -31 321 5 162 14 391 20 509 12 255 30 2461 30
3630 0 780 13 1424 40 1965 9 199 24 540 35 850 7 201 24 586 35 830 5 116 15
320 20 455 20 454 41 720 106 1290 15 139 60 462 114 820 122 816 122 820 120
1145 -1 314 -23 601 -71 915 -49 326 -89 613 -99 715 -6 61 -17 169 -25 241
-8 72 -15 151 -15 176 l0 46 113 47 c61 26 198 79 302 117 243 88 552 212 670
268 44 21 679 296 820 355 50 21 122 53 160 71 493 229 534 250 731 379 123
81 156 120 235 276 23 46 59 113 81 149 41 66 173 373 220 510 56 162 98 310
118 415 32 167 52 249 63 262 5 7 19 11 31 8 11 -2 80 -13 151 -24z"/>
</g>
</svg>
