<?xml version="1.0" standalone="no"?>
<!DOCTYPE svg PUBLIC "-//W3C//DTD SVG 20010904//EN"
 "http://www.w3.org/TR/2001/REC-SVG-20010904/DTD/svg10.dtd">
<svg version="1.0" xmlns="http://www.w3.org/2000/svg"
 width="1500.000000pt" height="2098.000000pt" viewBox="0 0 1500.000000 2098.000000"
 preserveAspectRatio="xMidYMid meet">
<metadata>
Created by potrace 1.16, written by Peter Selinger 2001-2019
</metadata>
<g transform="translate(0.000000,2098.000000) scale(0.100000,-0.100000)"
fill="none" stroke="grey" stroke-width="2">
<path d="M0 10490 l0 -10490 7500 0 7500 0 0 10490 0 10490 -7500 0 -7500 0 0
-10490z m6160 7795 c48 -25 150 -148 234 -282 28 -43 87 -134 131 -203 264
-406 322 -500 445 -720 263 -472 246 -447 334 -495 73 -39 135 -60 294 -99 89
-22 154 -33 173 -29 22 4 44 26 93 92 35 47 90 120 122 161 32 41 80 104 108
140 151 196 331 401 571 650 66 69 155 171 198 227 74 95 93 111 154 128 32 9
93 -10 140 -45 23 -17 63 -37 90 -45 48 -14 83 -43 117 -98 9 -15 25 -31 34
-34 61 -21 104 -47 119 -71 10 -15 34 -47 55 -71 21 -24 38 -51 38 -60 0 -10
-18 -64 -41 -122 -136 -347 -187 -522 -234 -809 l-28 -165 17 -171 c29 -293
23 -485 -29 -849 -66 -464 -81 -942 -41 -1257 26 -198 104 -587 175 -877 126
-508 178 -781 227 -1191 92 -786 109 -1025 129 -1845 8 -324 22 -691 30 -815
55 -796 89 -1256 110 -1470 13 -135 29 -306 35 -380 26 -313 80 -826 115
-1085 14 -104 41 -309 60 -455 19 -146 43 -332 54 -414 12 -81 35 -257 51
-390 17 -132 55 -416 85 -631 30 -214 64 -455 75 -535 82 -605 98 -702 180
-1110 16 -80 39 -203 50 -275 11 -71 29 -172 40 -223 11 -50 24 -120 30 -155
5 -34 16 -102 25 -152 13 -76 14 -99 3 -148 -12 -54 -18 -64 -78 -115 -36 -32
-81 -65 -100 -74 -61 -30 -241 -85 -353 -108 -107 -22 -210 -63 -236 -94 -7
-9 -19 -16 -25 -16 -7 0 -55 -42 -108 -93 -53 -51 -116 -106 -140 -122 -24
-16 -51 -36 -61 -44 -10 -8 -30 -17 -45 -19 -15 -2 -42 -13 -60 -24 -30 -19
-44 -20 -134 -15 -65 3 -105 10 -116 20 -19 16 -176 67 -208 67 -11 0 -24 4
-30 9 -21 20 -209 53 -376 66 -42 3 -107 12 -145 20 -37 8 -95 15 -128 15
-138 0 -392 45 -424 74 -19 17 -47 98 -56 161 -7 51 -86 1196 -125 1820 -17
264 -44 687 -60 940 -16 253 -34 566 -40 695 -18 411 -30 639 -45 865 -8 121
-22 348 -30 505 -36 662 -39 700 -64 732 -23 28 -89 28 -112 0 -19 -24 -22
-71 -44 -602 -16 -369 -37 -829 -55 -1195 -11 -229 -35 -760 -50 -1140 -20
-489 -85 -1617 -120 -2070 -6 -71 -15 -218 -20 -325 -10 -199 -26 -313 -51
-365 -23 -47 -95 -66 -276 -72 l-152 -6 -61 31 c-79 41 -118 51 -226 58 -49 3
-91 7 -94 9 -3 2 -59 6 -125 10 -66 3 -172 13 -235 21 -151 18 -262 18 -330 0
-73 -21 -173 -21 -190 -1 -7 8 -18 15 -26 15 -7 0 -19 10 -25 23 -6 12 -19 31
-29 42 -10 11 -20 32 -24 47 -16 69 -142 85 -251 34 -87 -41 -140 -56 -225
-66 -41 -5 -101 -14 -132 -21 -71 -16 -157 -1 -231 39 -67 36 -92 69 -116 154
-12 40 -27 87 -33 103 -17 43 -14 68 25 295 40 226 134 786 197 1175 23 138
54 329 70 425 15 96 31 200 34 230 10 90 134 1105 151 1230 16 122 161 1307
219 1795 48 394 159 1929 206 2830 34 653 67 1260 90 1649 19 324 67 669 146
1066 67 337 221 1043 260 1193 17 65 47 231 64 353 24 164 -15 461 -99 753
-48 168 -60 232 -97 509 l-27 203 14 217 c25 381 11 1024 -41 1962 -9 159 -14
336 -11 377 2 22 44 36 286 94 250 61 304 65 365 34z"/>
</g>
</svg>
