<?xml version="1.0" standalone="no"?>
<!DOCTYPE svg PUBLIC "-//W3C//DTD SVG 20010904//EN"
 "http://www.w3.org/TR/2001/REC-SVG-20010904/DTD/svg10.dtd">
<svg version="1.0" xmlns="http://www.w3.org/2000/svg"
 width="1500.000000pt" height="2098.000000pt" viewBox="0 0 1500.000000 2098.000000"
 preserveAspectRatio="xMidYMid meet">
<metadata>
Created by potrace 1.16, written by Peter Selinger 2001-2019
</metadata>
<g transform="translate(0.000000,2098.000000) scale(0.100000,-0.100000)"
fill="none" stroke="grey" stroke-width="2">
<path d="M0 10490 l0 -10490 7500 0 7500 0 0 10490 0 10490 -7500 0 -7500 0 0
-10490z m7693 7820 l249 0 121 -118 c67 -65 186 -177 263 -250 109 -101 148
-144 167 -185 31 -66 38 -71 182 -147 242 -127 305 -157 364 -180 34 -12 61
-24 61 -25 0 -2 -13 -31 -30 -66 -32 -70 -75 -267 -91 -419 -5 -52 -12 -214
-16 -360 -7 -310 7 -452 62 -655 67 -245 141 -411 237 -532 49 -62 173 -170
229 -198 16 -9 29 -18 29 -21 0 -3 -45 -186 -99 -407 -55 -221 -107 -438 -115
-482 -44 -225 -74 -521 -74 -724 0 -99 1 -105 26 -130 l27 -26 3 -196 c2 -124
-1 -222 -9 -265 -22 -125 -13 -292 36 -634 13 -91 38 -295 55 -455 17 -159 42
-360 55 -445 13 -85 36 -249 50 -365 14 -115 36 -284 50 -375 64 -430 92 -659
115 -955 6 -71 17 -184 25 -250 8 -66 19 -183 25 -260 6 -77 17 -203 25 -280
16 -151 40 -448 80 -975 14 -184 34 -432 45 -551 10 -119 21 -287 25 -375 3
-87 13 -289 20 -449 8 -159 19 -414 25 -565 20 -564 31 -790 45 -980 8 -107
19 -301 25 -430 9 -207 39 -602 70 -935 9 -100 33 -398 43 -550 3 -33 21 -193
41 -355 20 -162 43 -351 51 -420 9 -69 29 -192 46 -275 51 -246 54 -268 49
-318 -7 -69 -43 -107 -147 -158 -91 -43 -180 -77 -223 -85 -14 -2 -36 -9 -50
-14 -47 -16 -185 -43 -240 -46 -49 -2 -273 -25 -389 -40 -24 -3 -62 -12 -85
-19 -80 -27 -161 -41 -196 -34 -37 7 -208 18 -379 25 -98 3 -221 29 -261 55
-8 5 -26 15 -40 21 -41 21 -153 140 -177 188 -50 103 -52 118 -63 375 -6 138
-15 300 -20 360 -12 149 -56 617 -75 795 -8 80 -26 273 -40 430 -27 301 -33
364 -95 1040 -21 234 -46 535 -55 670 -8 135 -22 342 -30 460 -8 118 -20 292
-25 385 -19 312 -30 447 -50 604 -10 86 -31 255 -45 375 -22 183 -31 229 -53
275 -28 58 -51 72 -100 63 -56 -11 -61 -48 -117 -867 -20 -280 -42 -589 -50
-685 -8 -96 -22 -283 -30 -415 -8 -132 -20 -298 -25 -370 -6 -71 -22 -278 -35
-460 -14 -181 -37 -463 -50 -625 -14 -162 -34 -401 -45 -530 -11 -129 -22
-253 -25 -275 -3 -22 -21 -206 -40 -410 -37 -397 -54 -668 -54 -887 0 -102 -3
-142 -14 -160 -8 -13 -17 -49 -20 -81 -5 -48 -14 -71 -51 -126 -25 -37 -46
-74 -46 -82 0 -28 -38 -75 -106 -130 -38 -31 -80 -60 -94 -64 -14 -4 -43 -20
-65 -35 -55 -38 -181 -71 -313 -84 -29 -3 -69 -10 -90 -15 -90 -23 -265 -34
-288 -18 -7 4 -35 10 -63 14 -30 3 -57 13 -67 24 -10 11 -34 24 -54 29 -21 6
-54 21 -74 35 -20 14 -41 25 -47 25 -5 0 -17 4 -27 10 -21 11 -121 45 -182 60
-25 7 -58 18 -75 25 -16 7 -57 21 -90 30 -62 17 -86 27 -166 73 -26 15 -65 37
-86 49 -81 45 -203 175 -203 217 0 8 -11 28 -25 44 -20 24 -23 35 -16 58 13
43 67 384 141 899 23 154 47 322 56 374 17 112 28 219 49 486 9 110 22 282 30
383 65 803 78 1021 135 2297 22 484 40 803 70 1235 11 157 22 323 25 370 4 47
10 128 16 180 5 52 20 221 34 375 41 459 74 808 80 845 6 39 69 586 115 1000
62 556 92 811 116 970 14 91 29 203 35 250 38 321 57 465 101 770 60 419 77
646 53 700 -14 30 -17 78 -18 276 -2 220 0 241 17 267 17 26 18 40 12 175 -17
343 -6 285 -202 1098 -46 193 -84 362 -84 375 0 19 21 41 93 96 149 116 238
234 306 407 35 87 94 261 115 336 34 124 78 385 92 540 13 153 13 180 -5 370
-18 192 -22 214 -64 337 -25 72 -50 140 -56 151 -28 53 1 75 222 161 42 17
109 47 147 66 63 32 73 41 99 93 46 89 63 109 133 160 36 26 85 63 109 83 24
20 123 92 219 159 96 67 193 137 215 154 71 58 70 57 205 52 69 -3 237 -6 373
-6z"/>
</g>
</svg>
