<?xml version="1.0" standalone="no"?>
<!DOCTYPE svg PUBLIC "-//W3C//DTD SVG 20010904//EN"
 "http://www.w3.org/TR/2001/REC-SVG-20010904/DTD/svg10.dtd">
<svg version="1.0" xmlns="http://www.w3.org/2000/svg"
 width="1500.000000pt" height="2098.000000pt" viewBox="0 0 1500.000000 2098.000000"
 preserveAspectRatio="xMidYMid meet">
<metadata>
Created by potrace 1.16, written by Peter Selinger 2001-2019
</metadata>
<g transform="translate(0.000000,2098.000000) scale(0.100000,-0.100000)"
fill="none" stroke="grey" stroke-width="2">
<path d="M0 10490 l0 -10490 7500 0 7500 0 0 10490 0 10490 -7500 0 -7500 0 0
-10490z m6197 7870 c12 -19 34 -51 48 -70 14 -19 40 -66 58 -105 30 -62 42
-75 103 -117 95 -64 170 -101 304 -149 155 -55 223 -75 343 -98 101 -20 136
-23 437 -40 188 -10 574 -6 690 9 180 23 534 112 625 157 59 30 114 84 185
183 39 55 83 126 97 156 36 80 74 98 123 59 8 -7 38 -18 65 -25 28 -7 55 -17
60 -21 6 -4 33 -13 60 -19 105 -24 140 -33 150 -41 6 -4 27 -10 48 -14 20 -4
40 -11 43 -16 3 -5 13 -9 22 -9 9 0 39 -11 66 -25 27 -13 65 -28 85 -31 20 -4
53 -15 73 -25 21 -11 43 -19 51 -19 8 0 33 -13 55 -30 23 -16 45 -30 49 -30 3
0 48 -32 99 -71 50 -38 108 -75 128 -80 21 -6 43 -21 53 -37 9 -15 29 -40 44
-55 40 -40 92 -138 127 -237 17 -47 42 -116 57 -155 14 -38 38 -104 51 -145
14 -41 58 -140 98 -220 40 -80 96 -206 125 -280 29 -74 68 -166 86 -205 18
-38 47 -116 64 -172 16 -56 36 -112 44 -125 14 -23 27 -60 66 -188 11 -36 33
-103 49 -150 16 -47 39 -119 51 -160 13 -41 33 -97 46 -125 23 -48 55 -155 55
-182 0 -7 -21 -22 -47 -34 -27 -12 -101 -48 -167 -80 -65 -33 -122 -59 -128
-59 -5 0 -33 -11 -61 -24 -179 -85 -376 -151 -507 -171 -25 -4 -54 -9 -65 -11
-40 -8 -81 -7 -153 6 -89 15 -152 7 -180 -23 -30 -32 -64 -113 -61 -145 2 -15
-5 -39 -15 -54 -13 -20 -19 -51 -21 -112 -2 -46 -8 -93 -14 -104 -6 -11 -13
-51 -16 -90 -10 -145 -26 -254 -39 -275 -8 -12 -19 -60 -26 -107 -6 -47 -15
-101 -20 -120 -5 -19 -18 -96 -30 -170 -12 -74 -30 -173 -41 -220 -22 -89 -51
-313 -52 -390 0 -53 18 -361 33 -545 5 -71 10 -170 11 -220 0 -49 5 -130 10
-180 6 -49 14 -146 19 -215 18 -248 39 -463 110 -1155 11 -104 24 -253 30
-330 6 -77 15 -176 20 -220 22 -194 54 -621 75 -1000 3 -55 12 -161 20 -235 8
-74 21 -254 30 -400 9 -146 20 -281 25 -300 5 -19 11 -98 15 -175 3 -77 13
-212 20 -300 8 -88 17 -214 20 -280 3 -66 10 -142 15 -170 5 -27 14 -189 20
-360 6 -170 17 -391 25 -490 9 -99 22 -297 30 -440 20 -351 42 -659 61 -840 8
-82 15 -172 15 -200 0 -27 4 -72 9 -100 13 -68 28 -388 40 -830 6 -203 15
-422 20 -485 12 -139 27 -421 40 -783 5 -148 14 -307 20 -355 11 -93 13 -142
27 -467 10 -249 10 -549 0 -587 -11 -42 -64 -96 -116 -119 -83 -37 -145 -71
-174 -95 -16 -13 -33 -24 -38 -24 -5 0 -35 -20 -66 -44 -32 -24 -74 -52 -93
-62 -19 -11 -49 -29 -67 -41 -17 -13 -36 -23 -42 -23 -6 0 -19 -4 -29 -10
-117 -64 -181 -73 -527 -75 -171 0 -315 -4 -321 -7 -20 -13 -149 -30 -211 -29
-69 1 -136 28 -241 98 -34 23 -94 52 -132 63 -38 11 -72 24 -74 29 -3 5 -47
19 -97 31 -83 21 -98 22 -157 11 -56 -10 -74 -20 -123 -62 -31 -27 -61 -49
-65 -49 -5 -1 -25 -14 -44 -30 -19 -17 -40 -30 -46 -30 -7 0 -27 -8 -46 -17
-18 -9 -41 -21 -52 -26 -10 -5 -35 -11 -55 -13 -20 -3 -40 -9 -45 -14 -6 -6
-30 -11 -55 -11 -26 -1 -59 -4 -76 -8 -47 -10 -211 22 -237 46 -13 12 -42 27
-65 35 -27 9 -56 30 -79 56 -19 23 -41 42 -48 42 -6 0 -23 19 -36 42 -14 23
-37 54 -52 70 -15 15 -29 36 -32 46 -11 33 -60 71 -96 75 -76 9 -137 -35 -175
-127 -8 -19 -25 -46 -37 -59 -13 -13 -42 -47 -65 -75 -45 -53 -83 -77 -139
-88 -19 -3 -37 -10 -40 -15 -3 -5 -9 -7 -13 -4 -5 2 -23 0 -42 -6 -30 -9 -119
-18 -214 -22 -16 0 -52 5 -80 11 -27 6 -68 14 -90 16 -46 5 -271 62 -300 76
-28 13 -195 66 -236 75 -19 4 -56 17 -84 30 -27 13 -68 26 -90 30 -22 4 -57
16 -78 26 -21 10 -52 21 -70 24 -52 11 -263 83 -286 97 -12 7 -30 32 -41 55
-11 23 -31 50 -45 59 -30 19 -32 46 -10 160 8 47 18 209 25 399 11 333 24 540
41 685 6 47 14 123 18 170 5 47 15 132 24 190 9 58 21 173 27 255 6 83 16 182
21 220 5 39 13 156 19 260 5 105 14 240 20 300 22 231 42 536 61 910 6 121 15
242 20 269 5 27 9 79 9 115 0 37 7 120 15 186 8 66 21 221 30 345 9 124 22
320 30 435 16 219 33 496 33 530 1 140 51 1025 66 1165 8 74 19 214 25 310 6
96 18 290 27 430 8 140 20 282 25 315 6 33 12 130 15 215 2 85 9 185 14 222 6
37 10 104 10 150 0 46 7 135 15 198 9 63 18 149 21 190 5 72 23 239 45 420 6
47 12 112 15 145 31 414 47 631 59 845 8 141 17 269 20 285 3 17 12 131 21
255 23 330 24 344 35 470 23 276 29 367 38 570 4 118 5 242 0 275 -4 33 -15
134 -24 225 -9 91 -22 228 -30 305 -8 77 -20 223 -26 325 -11 205 -17 254 -47
385 -11 50 -28 148 -38 218 -12 86 -23 136 -35 151 -13 17 -41 27 -104 41 -74
15 -107 17 -218 9 -73 -5 -195 -8 -272 -8 -137 0 -143 1 -300 48 -270 80 -426
146 -480 204 -32 34 -31 50 1 98 15 21 37 77 50 124 13 47 44 144 69 215 25
72 55 159 67 195 33 106 184 454 298 685 21 44 55 120 75 168 19 49 53 125 74
170 21 45 58 132 81 192 23 61 51 119 61 131 11 12 24 39 30 60 6 21 28 76 50
122 21 46 39 89 39 96 0 13 79 144 113 187 12 15 35 45 50 66 23 33 36 41 83
51 42 9 67 22 106 57 27 25 56 45 62 45 7 0 25 14 41 30 16 17 32 30 37 30 5
0 25 10 46 23 46 29 231 91 333 112 115 23 335 97 382 128 14 9 30 17 35 17 5
0 17 9 27 20 28 30 65 22 92 -20z"/>
<path d="M7423 17724 c-57 -13 -83 -107 -44 -155 18 -22 27 -24 111 -24 84 0
93 2 111 24 25 30 25 101 1 131 -15 19 -30 23 -88 25 -38 2 -79 1 -91 -1z"/>
</g>
</svg>
