<?xml version="1.0" standalone="no"?>
<!DOCTYPE svg PUBLIC "-//W3C//DTD SVG 20010904//EN"
 "http://www.w3.org/TR/2001/REC-SVG-20010904/DTD/svg10.dtd">
<svg version="1.0" xmlns="http://www.w3.org/2000/svg"
 width="1500.000000pt" height="2098.000000pt" viewBox="0 0 1500.000000 2098.000000"
 preserveAspectRatio="xMidYMid meet">
<metadata>
Created by potrace 1.16, written by Peter Selinger 2001-2019
</metadata>
<g transform="translate(0.000000,2098.000000) scale(0.100000,-0.100000)"
fill="none" stroke="grey" stroke-width="2">
<path d="M0 10490 l0 -10490 7500 0 7500 0 0 10490 0 10490 -7500 0 -7500 0 0
-10490z m5952 7800 c57 -30 263 -114 363 -148 60 -20 136 -36 230 -46 77 -9
196 -26 265 -36 338 -54 343 -54 695 -54 228 -1 370 3 430 12 50 7 122 17 160
23 77 11 222 37 417 75 80 16 179 44 271 79 80 30 150 55 155 55 5 0 34 11 63
24 30 13 79 26 109 30 53 7 57 5 95 -27 28 -24 81 -48 180 -82 363 -125 470
-179 579 -289 43 -44 85 -91 94 -105 9 -14 64 -91 123 -171 58 -80 151 -212
205 -295 285 -429 349 -519 460 -645 29 -32 60 -70 70 -85 l18 -27 -40 -33
c-44 -37 -118 -141 -169 -239 -18 -35 -100 -166 -182 -292 -208 -319 -297
-476 -386 -684 -46 -110 -117 -313 -117 -339 0 -8 -9 -33 -19 -55 -11 -23 -26
-57 -34 -78 -14 -33 -20 -37 -71 -48 -80 -16 -167 -63 -218 -118 -45 -48 -104
-142 -151 -242 -34 -71 -127 -413 -174 -640 -14 -70 -27 -323 -23 -465 5 -160
-6 -418 -18 -441 -5 -10 -13 -45 -16 -76 -6 -48 -4 -65 15 -105 17 -36 23 -68
24 -133 1 -47 5 -98 9 -113 6 -19 3 -50 -9 -94 -16 -58 -17 -78 -6 -177 14
-140 18 -419 7 -602 -9 -167 -3 -232 60 -586 24 -139 69 -413 99 -608 31 -195
78 -492 106 -660 93 -569 171 -1211 264 -2165 51 -525 72 -729 106 -1015 66
-561 93 -820 154 -1455 19 -198 42 -418 51 -490 14 -119 25 -226 83 -785 21
-202 53 -601 71 -895 21 -337 48 -630 87 -925 23 -171 27 -276 13 -310 -8 -18
-26 -34 -50 -44 -49 -20 -183 -43 -290 -51 -74 -6 -503 -48 -600 -59 -39 -5
-129 -13 -240 -22 -140 -11 -540 -20 -1270 -29 -223 -2 -598 -7 -835 -10 -877
-12 -1222 -10 -1321 9 -11 2 -98 7 -194 10 -178 6 -257 11 -410 22 -47 4 -92
6 -100 6 -35 -1 -250 19 -305 29 -171 30 -203 43 -245 106 l-32 46 5 121 c2
67 9 171 15 231 6 61 16 184 22 275 7 91 23 269 36 395 14 127 29 280 35 340
5 61 21 214 34 340 14 127 32 309 40 405 9 96 22 231 30 300 20 172 71 670 95
930 43 462 52 551 71 709 22 186 49 451 79 781 11 124 29 304 40 400 43 365
60 521 75 695 23 256 127 1167 179 1575 90 695 209 1457 288 1842 28 141 31
176 39 443 4 160 11 333 15 386 5 72 2 114 -10 168 -20 89 -14 405 11 518 17
76 16 89 -16 201 -18 64 -19 82 -10 155 6 45 20 101 32 124 21 42 21 43 4 150
-24 150 -39 444 -27 518 7 40 6 79 0 115 -20 107 -78 321 -94 345 -9 13 -16
32 -16 42 0 24 -52 158 -101 262 -65 136 -171 234 -309 286 -72 28 -109 55
-110 83 0 8 -20 73 -44 145 -122 365 -259 642 -483 978 -38 57 -102 160 -143
229 -74 126 -138 216 -217 302 -58 64 -56 89 10 169 139 166 294 379 402 554
55 90 316 458 411 581 119 154 220 222 461 313 43 16 127 48 188 71 60 23 125
51 144 63 38 23 110 45 151 46 14 1 42 -8 62 -19z"/>
</g>
</svg>
