<?xml version="1.0" standalone="no"?>
<!DOCTYPE svg PUBLIC "-//W3C//DTD SVG 20010904//EN"
 "http://www.w3.org/TR/2001/REC-SVG-20010904/DTD/svg10.dtd">
<svg version="1.0" xmlns="http://www.w3.org/2000/svg"
 width="1500.000000pt" height="2098.000000pt" viewBox="0 0 1500.000000 2098.000000"
 preserveAspectRatio="xMidYMid meet">
<metadata>
Created by potrace 1.16, written by Peter Selinger 2001-2019
</metadata>
<g transform="translate(0.000000,2098.000000) scale(0.100000,-0.100000)"
fill="none" stroke="grey" stroke-width="2">
<path d="M0 10490 l0 -10490 7500 0 7500 0 0 10490 0 10490 -7500 0 -7500 0 0
-10490z m10543 6531 c39 -21 93 -46 119 -56 26 -10 64 -32 85 -50 25 -21 61
-37 107 -49 40 -10 88 -30 114 -49 l44 -32 -43 -8 c-52 -10 -89 -46 -89 -86 0
-37 63 -120 93 -123 76 -5 122 30 115 89 -2 18 -1 33 3 33 3 0 24 -19 46 -42
22 -24 137 -144 255 -268 215 -226 298 -324 298 -351 0 -8 6 -23 14 -34 7 -11
16 -32 20 -47 3 -16 30 -52 59 -80 67 -67 109 -128 153 -226 20 -42 51 -108
69 -147 18 -38 36 -87 39 -107 4 -20 20 -79 37 -130 44 -133 57 -197 47 -235
-5 -18 -31 -70 -58 -115 -49 -82 -50 -84 -50 -168 0 -47 -6 -106 -14 -131 -17
-56 -71 -165 -87 -174 -6 -4 -18 -22 -25 -39 -28 -59 -69 -105 -171 -188 -135
-110 -159 -128 -171 -128 -15 0 -72 -67 -127 -148 -51 -77 -114 -136 -224
-213 -36 -25 -75 -60 -86 -78 -41 -66 -155 -194 -206 -232 -96 -72 -165 -98
-276 -104 -222 -13 -422 -9 -451 9 -4 2 -25 7 -46 10 -22 4 -100 24 -174 46
-78 23 -153 39 -180 39 -26 -1 -51 0 -57 1 -33 7 -57 -3 -76 -32 -25 -41 -23
-83 20 -353 63 -403 81 -527 106 -740 15 -121 44 -346 65 -500 22 -154 49
-362 60 -462 11 -101 27 -233 35 -295 9 -62 22 -180 31 -263 18 -184 32 -281
93 -665 30 -184 99 -665 107 -740 3 -36 12 -90 19 -120 19 -78 82 -433 90
-505 4 -33 15 -94 25 -135 10 -41 35 -169 54 -285 20 -115 50 -282 66 -370 49
-266 111 -635 120 -720 12 -102 27 -183 40 -215 5 -14 42 -223 80 -465 38
-242 82 -505 96 -585 32 -175 130 -584 212 -885 34 -121 72 -267 87 -325 23
-92 76 -280 120 -420 32 -105 28 -144 -26 -225 -26 -38 -106 -117 -166 -161
-31 -23 -229 -146 -253 -157 -8 -4 -28 -16 -45 -27 -16 -10 -56 -31 -87 -46
-32 -15 -63 -33 -69 -40 -6 -8 -19 -14 -28 -14 -9 0 -32 -13 -51 -29 -19 -15
-45 -31 -56 -35 -41 -13 -192 -211 -243 -319 -11 -23 -39 -67 -61 -97 -23 -30
-49 -67 -59 -82 -9 -15 -50 -57 -91 -95 -41 -37 -84 -78 -97 -90 -12 -12 -30
-24 -40 -27 -10 -4 -45 -31 -77 -61 -33 -30 -65 -55 -71 -55 -7 0 -33 -16 -59
-36 -26 -19 -67 -44 -92 -55 -24 -11 -50 -29 -57 -40 -6 -10 -19 -19 -28 -19
-8 0 -28 -13 -44 -30 -16 -16 -36 -30 -46 -30 -9 0 -28 -13 -41 -28 -15 -18
-42 -33 -73 -41 -28 -7 -62 -22 -77 -32 -15 -11 -34 -19 -42 -19 -8 0 -17 -4
-20 -9 -3 -4 -26 -11 -52 -15 -26 -3 -53 -11 -61 -17 -8 -8 -59 -12 -136 -12
l-124 0 -54 37 c-29 20 -62 36 -71 36 -10 0 -18 4 -18 10 0 5 -24 34 -54 64
-30 30 -67 74 -82 98 -15 23 -44 60 -64 81 -28 28 -40 51 -44 82 -4 26 -22 65
-46 99 -22 31 -40 64 -40 72 0 22 -35 84 -73 128 -27 31 -40 38 -70 38 -19 0
-41 -3 -47 -7 -16 -10 -50 -92 -50 -120 0 -13 -11 -35 -25 -49 -14 -14 -25
-31 -25 -39 0 -7 -19 -23 -42 -35 -24 -11 -61 -39 -83 -61 -21 -23 -45 -41
-51 -41 -7 0 -21 -11 -32 -25 -11 -14 -24 -25 -30 -25 -6 0 -22 -13 -35 -30
-14 -16 -29 -30 -32 -30 -3 0 -21 -11 -39 -25 -18 -14 -40 -25 -48 -25 -9 0
-21 -6 -27 -14 -7 -8 -38 -26 -69 -41 -31 -15 -65 -34 -75 -43 -10 -9 -27 -17
-39 -19 -25 -4 -103 -29 -133 -43 -48 -22 -210 -51 -244 -44 -20 4 -63 8 -96
9 -64 2 -164 29 -205 55 -14 9 -41 24 -60 34 -46 22 -67 36 -99 66 -14 14 -39
36 -56 50 -16 14 -43 42 -58 63 -15 20 -33 37 -40 37 -7 0 -20 17 -29 38 -10
20 -33 57 -53 82 -19 25 -39 55 -45 68 -5 12 -29 48 -52 78 -47 62 -45 58 -79
128 -22 43 -63 89 -193 211 -57 53 -123 99 -166 115 -19 7 -49 19 -67 26 -17
8 -36 14 -43 14 -7 0 -24 6 -38 13 -131 67 -322 132 -422 144 -25 3 -81 0
-125 -7 -44 -7 -111 -14 -150 -16 -38 -1 -91 -5 -116 -7 -85 -8 -213 25 -444
115 -44 17 -89 39 -100 48 -11 9 -32 22 -46 29 -45 22 -192 155 -235 212 -23
30 -47 71 -53 91 -7 21 -17 41 -23 44 -13 8 -3 62 23 122 12 26 29 102 40 169
10 67 37 211 60 320 78 384 118 589 134 698 9 61 23 132 32 159 8 27 20 93 28
145 12 91 176 1022 194 1106 5 22 37 213 71 425 34 212 68 397 76 411 8 15 18
87 23 170 6 79 22 209 36 289 40 232 155 916 171 1025 9 55 21 111 29 125 15
29 40 193 32 213 -3 7 -1 33 4 58 4 24 18 99 29 167 11 67 25 133 29 145 5 12
14 63 21 112 12 100 22 169 45 325 21 140 60 425 80 580 9 69 23 145 31 169 8
24 16 75 19 115 5 91 22 233 41 361 8 55 21 165 29 245 19 196 73 672 84 740
5 30 12 82 16 115 3 33 10 74 15 90 5 17 14 75 20 130 5 55 17 173 26 262 15
148 15 164 1 186 -28 44 -101 43 -202 -3 -99 -44 -197 -82 -246 -96 -190 -53
-291 -71 -378 -67 -113 6 -266 64 -310 117 -7 9 -17 16 -21 16 -11 0 -55 45
-114 116 -60 73 -162 172 -251 244 -195 159 -242 204 -474 458 -79 86 -179
170 -261 220 -54 33 -222 217 -255 281 -16 31 -50 86 -74 121 l-44 63 6 156 5
156 44 80 c62 111 138 236 158 260 10 11 49 80 86 154 60 117 82 149 171 246
95 105 129 135 178 160 11 6 40 50 65 98 42 82 62 110 180 251 73 89 388 389
438 418 l45 26 21 -31 c26 -38 84 -60 132 -51 39 7 84 54 84 88 0 31 -27 66
-52 66 -16 0 -13 5 18 26 21 15 57 40 80 56 47 33 187 88 226 88 16 0 41 -12
60 -28 18 -16 64 -46 101 -68 38 -21 85 -49 105 -61 35 -21 80 -44 127 -65 11
-5 36 -10 57 -11 20 -2 55 -15 77 -30 22 -15 44 -27 48 -27 4 0 22 -14 39 -31
29 -28 41 -32 96 -34 35 -2 84 -8 109 -14 30 -7 57 -7 80 -1 21 6 56 6 98 0
102 -16 111 -19 139 -50 21 -22 44 -32 104 -44 42 -9 91 -16 108 -16 20 0 38
-8 49 -21 20 -25 85 -29 107 -7 12 11 30 12 92 5 42 -4 100 -6 127 -3 28 3 72
0 101 -8 28 -7 71 -11 95 -9 24 3 125 6 224 7 l180 3 20 -24 c28 -33 87 -34
120 -3 19 18 37 23 87 24 97 2 259 -11 307 -24 24 -6 50 -9 59 -5 8 3 38 8 66
11 28 3 68 12 89 19 22 8 50 10 65 6 42 -11 293 -4 343 10 24 7 107 14 184 16
77 1 203 4 280 6 77 2 158 9 180 15 22 6 77 11 122 11 45 0 88 3 94 7 6 4 74
8 150 10 93 2 165 9 221 23 46 10 94 17 108 14 15 -2 53 4 85 15 33 11 105 32
160 47 55 15 122 36 149 47 28 11 81 20 125 22 83 4 155 22 172 42 6 7 46 25
90 39 79 27 81 28 120 91 57 90 92 116 147 110 23 -3 75 -23 115 -45z"/>
<path d="M4013 16449 c-64 -19 -80 -77 -37 -128 45 -54 156 -65 189 -18 21 29
19 100 -2 126 -21 25 -100 36 -150 20z"/>
<path d="M5473 16003 c-56 -10 -83 -106 -45 -154 15 -17 29 -22 64 -22 76 0
131 55 113 112 -12 40 -81 73 -132 64z"/>
<path d="M4103 15903 c-12 -2 -36 -17 -53 -33 -35 -33 -40 -76 -11 -111 17
-21 27 -24 91 -24 63 1 75 4 91 24 28 34 23 67 -13 105 -33 34 -65 46 -105 39z"/>
<path d="M9503 15882 c-48 -7 -68 -72 -35 -112 39 -48 132 -17 132 44 0 48
-41 76 -97 68z"/>
<path d="M10793 15822 c-31 -5 -53 -39 -53 -83 0 -53 26 -81 75 -81 32 0 45 6
72 36 37 40 42 73 16 105 -18 21 -66 31 -110 23z"/>
<path d="M3693 15643 c-35 -7 -63 -50 -63 -97 0 -132 147 -178 206 -64 22 43
17 66 -28 113 -43 43 -73 55 -115 48z"/>
<path d="M5443 15493 c-27 -5 -53 -39 -53 -70 0 -12 10 -34 23 -49 31 -36 101
-38 129 -4 48 60 -15 138 -99 123z"/>
<path d="M10543 15403 c-31 -6 -63 -50 -63 -87 0 -47 30 -99 63 -107 45 -12
94 8 122 49 30 45 32 71 5 105 -17 22 -81 51 -100 46 -3 -1 -15 -4 -27 -6z"/>
<path d="M9980 15140 c-46 -13 -109 -50 -120 -69 -16 -30 -12 -76 9 -102 38
-47 176 -15 211 50 37 71 -23 144 -100 121z"/>
<path d="M8052 3423 c-32 -6 -49 -39 -56 -108 -6 -50 -3 -65 13 -92 19 -30 31
-35 76 -35 73 0 88 22 79 121 -9 97 -39 127 -112 114z"/>
</g>
</svg>
