<?xml version="1.0" standalone="no"?>
<!DOCTYPE svg PUBLIC "-//W3C//DTD SVG 20010904//EN"
 "http://www.w3.org/TR/2001/REC-SVG-20010904/DTD/svg10.dtd">
<svg version="1.0" xmlns="http://www.w3.org/2000/svg"
 width="1500.000000pt" height="2098.000000pt" viewBox="0 0 1500.000000 2098.000000"
 preserveAspectRatio="xMidYMid meet">
<metadata>
Created by potrace 1.16, written by Peter Selinger 2001-2019
</metadata>
<g transform="translate(0.000000,2098.000000) scale(0.100000,-0.100000)"
fill="none" stroke="grey" stroke-width="2">
<path d="M0 10490 l0 -10490 7500 0 7500 0 0 10490 0 10490 -7500 0 -7500 0 0
-10490z m5595 7673 c171 -77 382 -174 470 -215 476 -226 918 -415 1149 -492
323 -108 465 -128 880 -127 215 1 306 6 655 41 223 23 558 59 744 81 198 23
353 37 373 33 70 -13 133 -96 148 -194 8 -52 65 -218 106 -305 52 -112 82
-198 90 -258 6 -38 26 -93 55 -151 25 -50 45 -101 45 -114 0 -13 9 -40 20 -60
40 -75 78 -179 85 -232 4 -30 20 -88 36 -127 16 -40 43 -125 60 -189 17 -64
41 -144 54 -177 12 -34 28 -92 35 -129 18 -92 7 -133 -42 -162 -55 -31 -89
-76 -249 -326 -144 -226 -476 -673 -765 -1027 -152 -188 -140 -155 -115 -303
5 -30 10 -94 10 -141 1 -47 8 -130 16 -185 16 -112 46 -386 70 -644 9 -96 25
-265 35 -375 11 -110 35 -418 55 -685 57 -791 104 -1432 110 -1485 3 -27 19
-291 35 -585 54 -964 60 -1057 110 -1850 27 -432 61 -978 75 -1215 41 -685 53
-877 89 -1445 67 -1032 71 -1079 97 -1370 6 -63 11 -126 11 -140 0 -31 -23
-118 -40 -147 -6 -12 -12 -29 -12 -37 0 -9 -13 -34 -29 -56 -15 -21 -34 -53
-41 -70 -7 -16 -18 -30 -26 -30 -7 0 -26 -19 -42 -42 -16 -24 -54 -65 -83 -93
-30 -27 -71 -69 -91 -92 -21 -24 -40 -43 -43 -43 -2 0 -55 -50 -117 -111 -62
-61 -129 -123 -148 -137 -19 -15 -57 -45 -85 -68 -27 -22 -57 -43 -65 -46 -8
-4 -43 -29 -78 -57 -34 -28 -68 -51 -75 -51 -7 0 -22 -6 -33 -14 -11 -8 -48
-20 -82 -26 -34 -7 -67 -18 -72 -26 -11 -13 -71 -32 -165 -54 -72 -16 -240
-17 -259 -1 -34 28 -79 15 -196 -57 -87 -53 -143 -79 -230 -107 -200 -64 -210
-69 -359 -173 -89 -63 -187 -109 -256 -121 -33 -6 -157 -13 -275 -15 -247 -4
-291 -13 -362 -75 -80 -71 -112 -166 -127 -373 -5 -75 -15 -146 -21 -158 -6
-12 -10 -34 -8 -49 1 -17 -6 -38 -20 -55 -12 -16 -22 -32 -22 -37 0 -10 -48
-58 -91 -90 -49 -37 -136 -66 -189 -63 -65 4 -145 46 -173 91 -44 71 -55 98
-71 187 -10 49 -25 105 -36 125 -10 20 -26 55 -36 78 -9 23 -24 49 -33 57 -9
8 -68 28 -131 46 -63 17 -164 53 -225 80 -60 26 -132 57 -159 69 -70 31 -158
51 -222 53 -49 1 -58 -2 -85 -29 -25 -24 -34 -47 -50 -124 -11 -52 -26 -106
-34 -121 -8 -14 -15 -35 -15 -46 0 -24 -61 -87 -92 -95 -29 -8 -99 25 -135 63
-36 38 -62 136 -63 235 -1 109 -15 145 -63 168 l-39 18 7 117 c3 64 15 203 26
307 10 105 25 287 34 405 8 118 26 373 40 565 14 193 30 420 35 505 18 304 50
819 65 1035 21 296 51 774 70 1085 8 140 26 444 40 675 14 231 32 515 40 630
8 116 24 350 35 520 30 482 58 907 85 1305 13 201 31 471 40 600 8 129 22 327
30 440 8 113 23 340 35 505 36 526 89 1285 126 1795 35 488 52 885 40 934 -7
27 -109 118 -390 344 -170 138 -216 185 -256 262 -19 36 -92 242 -342 955 -77
220 -198 560 -270 755 -71 195 -169 465 -218 600 -49 135 -96 262 -104 282
-22 53 -20 88 8 117 13 15 75 89 138 167 62 77 168 208 236 290 68 82 203 255
300 384 98 129 247 323 330 430 84 107 187 244 230 303 72 103 78 108 107 104
16 -2 170 -67 340 -144z"/>
</g>
</svg>
