<?xml version="1.0" standalone="no"?>
<!DOCTYPE svg PUBLIC "-//W3C//DTD SVG 20010904//EN"
 "http://www.w3.org/TR/2001/REC-SVG-20010904/DTD/svg10.dtd">
<svg version="1.0" xmlns="http://www.w3.org/2000/svg"
 width="1500.000000pt" height="2098.000000pt" viewBox="0 0 1500.000000 2098.000000"
 preserveAspectRatio="xMidYMid meet">
<metadata>
Created by potrace 1.16, written by Peter Selinger 2001-2019
</metadata>
<g transform="translate(0.000000,2098.000000) scale(0.100000,-0.100000)"
fill="none" stroke="grey" stroke-width="2">
<path d="M0 10490 l0 -10490 7500 0 7500 0 0 10490 0 10490 -7500 0 -7500 0 0
-10490z m8308 7857 c12 -7 47 -48 77 -91 124 -178 211 -268 295 -303 19 -8 90
-41 157 -73 67 -32 137 -61 155 -65 18 -4 47 -15 63 -25 17 -10 109 -44 205
-75 265 -87 356 -121 720 -270 135 -55 147 -64 131 -94 -24 -44 -104 -383
-136 -576 -18 -110 -43 -285 -54 -390 -12 -104 -26 -215 -31 -245 -13 -82 -29
-307 -40 -565 -9 -232 -6 -779 6 -890 18 -184 123 -487 261 -756 104 -202 167
-296 331 -491 82 -98 100 -230 67 -493 -27 -214 -34 -324 -45 -653 -12 -361
-3 -610 40 -1112 6 -63 17 -203 25 -310 9 -107 20 -233 25 -280 10 -89 18
-171 50 -540 46 -534 80 -947 90 -1105 5 -93 17 -258 25 -365 9 -107 24 -305
35 -440 60 -765 78 -1141 109 -2310 10 -352 -4 -2363 -17 -2550 l-7 -94 -50
-19 c-66 -25 -170 -54 -275 -78 -70 -16 -397 -136 -462 -170 -10 -5 -23 -9
-28 -9 -6 0 -37 -12 -68 -26 -74 -33 -91 -40 -127 -52 -16 -6 -61 -22 -100
-37 -38 -14 -81 -28 -95 -31 -14 -3 -56 -13 -95 -24 -68 -18 -148 -34 -230
-45 -22 -3 -67 -9 -100 -14 -33 -5 -64 -7 -70 -5 -5 2 -55 6 -110 10 -117 8
-135 10 -155 17 -8 3 -49 16 -90 29 -52 16 -97 40 -147 77 -96 71 -126 129
-144 284 -19 168 -55 203 -189 186 -36 -5 -146 -18 -245 -29 -209 -24 -240
-31 -318 -73 -67 -35 -91 -64 -119 -145 -27 -77 -68 -147 -120 -204 -42 -46
-182 -139 -230 -153 -12 -4 -43 -16 -68 -27 -25 -12 -54 -22 -65 -24 -11 -1
-65 -13 -120 -27 -55 -14 -107 -25 -115 -25 -8 0 -49 -3 -90 -7 -76 -6 -94 -6
-230 0 -98 4 -240 34 -265 56 -11 9 -31 20 -45 24 -14 4 -42 20 -62 36 -20 16
-41 29 -46 29 -5 0 -14 10 -21 22 -6 13 -22 38 -36 56 -13 19 -27 55 -30 80
-3 26 -13 65 -21 87 -8 23 -14 51 -14 63 0 29 -22 71 -50 97 -27 24 -103 26
-330 7 -80 -6 -206 -17 -280 -23 -74 -6 -155 -13 -180 -15 -77 -7 -163 -14
-215 -19 -66 -6 -261 -6 -305 0 -19 2 -62 9 -95 14 -33 6 -103 15 -155 21 -52
7 -114 21 -137 31 -23 11 -52 22 -65 23 -13 2 -36 8 -51 15 -16 6 -35 11 -43
11 -8 0 -14 3 -14 8 0 4 -3 54 -5 112 -10 198 -22 1574 -20 2160 2 542 6 712
35 1440 18 446 41 751 85 1100 8 63 22 198 30 300 9 102 22 239 30 305 8 66
24 239 35 385 12 146 28 330 35 410 8 80 22 235 30 345 19 253 41 497 66 740
10 105 24 251 30 325 5 74 14 187 20 250 17 183 23 1152 10 1670 -6 282 -7
501 -2 540 12 89 45 153 161 308 55 74 100 139 100 145 0 6 9 20 19 31 10 12
29 46 42 76 12 30 28 62 34 70 12 15 95 208 134 310 11 30 34 90 51 133 56
145 94 326 110 517 14 169 8 768 -9 960 -6 69 -16 179 -22 245 -5 66 -16 163
-24 215 -8 52 -24 165 -35 250 -19 136 -54 332 -81 455 -5 22 -18 90 -29 150
-11 61 -30 155 -41 211 -21 107 -19 128 13 145 26 14 185 69 199 69 6 0 70 22
142 49 73 27 215 79 317 116 102 37 219 85 260 105 41 21 102 45 135 54 33 10
112 45 175 78 120 63 334 199 347 222 16 26 185 156 204 156 10 0 41 -14 68
-31 63 -38 154 -74 255 -100 109 -28 378 -52 501 -45 172 10 402 68 595 149
112 48 142 54 178 34z"/>
</g>
</svg>
