<?xml version="1.0" standalone="no"?>
<!DOCTYPE svg PUBLIC "-//W3C//DTD SVG 20010904//EN"
 "http://www.w3.org/TR/2001/REC-SVG-20010904/DTD/svg10.dtd">
<svg version="1.0" xmlns="http://www.w3.org/2000/svg"
 width="2048.000000pt" height="2864.000000pt" viewBox="0 0 2048.000000 2864.000000"
 preserveAspectRatio="xMidYMid meet">
<metadata>
Created by potrace 1.16, written by Peter Selinger 2001-2019
</metadata>
<g transform="translate(0.000000,2864.000000) scale(0.100000,-0.100000)"
fill="none" stroke="grey" stroke-width="2">
<path d="M0 14320 l0 -14320 10240 0 10240 0 0 14320 0 14320 -10240 0 -10240
0 0 -14320z m8808 10587 c136 -173 388 -355 620 -446 137 -54 448 -121 565
-121 75 0 127 -11 127 -26 0 -9 -8 -10 -30 -4 -28 8 -84 6 -177 -6 -53 -7 -73
-32 -73 -94 0 -69 17 -86 101 -100 40 -7 93 -10 118 -6 60 8 81 33 81 96 0 48
0 49 28 41 38 -10 121 -5 138 10 8 6 18 26 22 43 l8 31 175 16 c364 34 561 92
809 237 136 79 192 122 304 234 77 76 105 98 126 98 24 0 738 -318 1425 -635
97 -45 112 -63 99 -123 -6 -26 -23 -101 -37 -167 -23 -108 -95 -531 -207
-1231 -79 -491 -116 -1120 -91 -1554 37 -645 122 -900 345 -1035 40 -24 69
-49 72 -61 3 -13 -6 -49 -22 -85 -29 -68 -28 -65 -59 -494 -9 -121 -25 -294
-35 -385 -11 -91 -31 -286 -45 -435 -14 -148 -49 -493 -77 -765 -44 -435 -51
-530 -56 -785 -3 -179 0 -326 6 -385 6 -52 16 -178 22 -280 6 -102 28 -322 49
-490 22 -168 42 -339 46 -380 8 -92 48 -481 75 -726 21 -186 41 -501 60 -933
9 -219 31 -539 61 -896 30 -374 39 -552 49 -1000 19 -869 40 -1675 50 -1875
31 -646 65 -2431 69 -3604 1 -357 4 -652 6 -656 2 -4 5 -738 6 -1631 1 -1628
-1 -1748 -34 -1845 -9 -28 -20 -40 -42 -47 -45 -14 -60 -31 -86 -98 -20 -50
-36 -71 -87 -114 -35 -28 -82 -58 -105 -65 -23 -8 -46 -16 -52 -20 -5 -4 -30
-13 -55 -20 -25 -7 -49 -16 -55 -19 -5 -2 -20 -6 -33 -7 -14 -2 -32 -6 -41
-10 -9 -4 -27 -8 -41 -9 -37 -3 -94 -16 -105 -25 -5 -4 -17 -8 -25 -8 -74 -3
-292 -40 -340 -58 -8 -3 -31 -7 -50 -9 -19 -2 -48 -9 -65 -16 -16 -7 -34 -11
-39 -10 -15 3 -120 -21 -132 -30 -6 -5 -13 -7 -15 -4 -3 2 -38 -5 -79 -16 -41
-11 -89 -20 -106 -20 -16 1 -59 -8 -95 -19 -35 -12 -88 -23 -118 -26 -29 -2
-65 -11 -80 -18 -38 -19 -78 -28 -141 -31 -53 -2 -105 -12 -124 -23 -10 -6
-14 -6 -110 -16 -32 -3 -64 -10 -70 -14 -11 -9 -199 -7 -391 4 -125 7 -199 8
-300 5 -86 -2 -323 7 -350 13 -117 29 -237 75 -250 97 -4 5 -12 9 -20 9 -7 0
-27 13 -43 30 -17 16 -37 30 -45 30 -8 0 -22 9 -32 20 -10 11 -24 20 -31 20
-8 0 -34 16 -60 35 -25 19 -52 35 -60 35 -9 0 -30 11 -48 25 -36 27 -176 64
-271 72 -33 2 -76 5 -95 7 -19 1 -54 -3 -78 -10 -23 -7 -59 -10 -80 -8 -21 2
-63 -3 -93 -11 -29 -8 -101 -18 -159 -21 -121 -6 -118 -6 -310 1 -207 8 -227
8 -310 1 -41 -4 -124 -9 -185 -12 -116 -5 -283 -13 -300 -15 -9 -1 -91 4 -268
16 -43 2 -96 9 -117 15 -21 6 -59 13 -86 16 -27 3 -55 10 -62 16 -15 13 -71
45 -94 54 -22 8 -71 105 -92 184 -10 36 -26 83 -37 105 -18 38 -19 72 -21 750
-1 391 1 1041 5 1445 4 404 9 1100 12 1545 8 1345 26 2727 39 3135 7 212 14
539 15 728 1 188 4 348 6 355 2 7 9 343 15 747 12 883 28 1326 65 1790 14 182
20 268 50 725 31 480 45 703 50 795 5 90 9 145 35 475 6 77 31 298 55 490 24
193 46 382 49 420 4 39 15 169 26 290 10 121 24 303 30 405 6 102 16 208 22
237 12 59 -2 481 -27 810 -33 417 -66 805 -85 978 -11 99 -31 284 -45 410 -26
241 -40 429 -50 680 -10 241 -21 335 -44 385 -11 25 -21 52 -21 61 0 9 44 61
99 116 182 185 259 381 292 743 14 160 -2 931 -26 1195 -32 363 -90 790 -151
1110 -13 72 -33 182 -44 245 -18 103 -32 177 -100 526 -11 56 -22 126 -26 156
-6 54 -6 55 29 77 19 11 66 34 103 50 38 16 148 67 244 114 183 88 430 202
635 292 66 29 212 98 325 153 113 56 210 101 217 102 6 0 34 -28 61 -63z"/>
</g>
</svg>
