<?xml version="1.0" standalone="no"?>
<!DOCTYPE svg PUBLIC "-//W3C//DTD SVG 20010904//EN"
 "http://www.w3.org/TR/2001/REC-SVG-20010904/DTD/svg10.dtd">
<svg version="1.0" xmlns="http://www.w3.org/2000/svg"
 width="1500.000000pt" height="2098.000000pt" viewBox="0 0 1500.000000 2098.000000"
 preserveAspectRatio="xMidYMid meet">
<metadata>
Created by potrace 1.16, written by Peter Selinger 2001-2019
</metadata>
<g transform="translate(0.000000,2098.000000) scale(0.100000,-0.100000)"
fill="none" stroke="grey" stroke-width="2">
<path d="M0 10490 l0 -10490 7500 0 7500 0 0 10490 0 10490 -7500 0 -7500 0 0
-10490z m6465 7830 c33 -7 71 -19 85 -27 86 -49 278 -133 336 -146 38 -9 134
-25 214 -37 80 -11 162 -25 182 -31 35 -9 169 -19 298 -21 60 -2 415 34 579
57 82 12 115 22 153 45 27 17 54 30 60 30 6 0 19 7 29 16 36 33 171 102 221
115 63 15 85 14 144 -6 25 -8 60 -15 78 -15 19 0 39 -7 46 -15 7 -8 20 -15 30
-15 9 0 35 -13 56 -28 21 -15 87 -56 147 -91 59 -35 110 -67 113 -72 3 -5 12
-9 21 -9 9 0 30 -11 47 -24 17 -12 54 -33 81 -45 67 -30 197 -111 213 -133 7
-10 19 -18 26 -18 19 0 326 -206 343 -230 8 -11 19 -20 25 -20 6 0 41 -24 77
-53 36 -30 94 -75 128 -101 67 -50 113 -103 113 -129 0 -9 -32 -52 -71 -94
-65 -71 -107 -125 -223 -285 -71 -99 -109 -187 -136 -313 -14 -66 -36 -151
-42 -161 -9 -14 -76 -318 -88 -399 -19 -121 -29 -265 -30 -401 0 -109 4 -148
25 -228 14 -54 36 -118 49 -144 48 -97 50 -114 22 -200 -14 -42 -30 -97 -35
-122 -13 -64 -58 -273 -76 -350 -8 -36 -17 -83 -21 -105 -6 -46 -38 -214 -55
-295 -17 -80 -34 -142 -69 -255 -17 -55 -35 -127 -40 -160 -5 -33 -18 -103
-30 -155 -24 -110 -34 -169 -50 -295 -6 -49 -20 -151 -30 -225 -11 -74 -22
-157 -26 -185 -7 -60 -40 -200 -49 -215 -7 -11 18 -334 35 -450 5 -36 17 -146
26 -245 9 -99 20 -209 24 -245 23 -183 52 -447 60 -540 5 -58 13 -143 19 -190
5 -47 17 -177 25 -290 9 -113 21 -241 26 -285 18 -144 40 -409 41 -490 1 -44
5 -87 10 -95 9 -18 49 -413 54 -535 2 -44 9 -118 14 -165 6 -47 15 -184 20
-305 5 -121 16 -287 24 -370 9 -82 20 -199 26 -260 5 -60 19 -173 30 -250 11
-77 22 -187 26 -245 4 -58 12 -127 20 -155 7 -27 25 -131 39 -230 15 -99 31
-202 37 -230 6 -27 17 -88 25 -135 8 -47 21 -121 29 -165 22 -119 45 -284 45
-322 0 -19 4 -42 10 -52 5 -10 23 -107 39 -217 32 -210 40 -257 65 -369 8 -38
26 -137 40 -220 13 -82 29 -177 34 -210 6 -33 15 -81 21 -108 6 -26 22 -141
36 -255 15 -114 30 -223 35 -242 4 -19 20 -127 35 -240 15 -113 31 -221 36
-240 8 -30 59 -433 73 -575 3 -27 17 -147 31 -265 13 -118 29 -269 34 -335 18
-221 51 -542 66 -637 62 -391 94 -577 111 -632 19 -66 18 -95 -8 -163 -24 -66
-109 -156 -180 -192 -24 -12 -56 -30 -73 -40 -16 -9 -52 -26 -80 -36 -27 -10
-54 -22 -60 -25 -5 -4 -50 -17 -100 -30 -109 -28 -275 -31 -635 -12 -244 12
-499 9 -604 -8 -77 -12 -210 -54 -254 -80 -18 -11 -39 -20 -45 -20 -7 0 -43
-16 -82 -36 -82 -42 -153 -72 -215 -89 -25 -7 -85 -25 -135 -40 -89 -26 -207
-41 -275 -35 -116 10 -313 -11 -368 -40 -10 -4 -44 -14 -77 -20 -33 -7 -64
-16 -70 -20 -5 -5 -21 -8 -35 -9 -36 0 -473 -11 -485 -12 -68 -4 -196 21 -262
52 -24 10 -49 19 -57 19 -7 0 -19 7 -26 15 -7 8 -19 15 -27 15 -9 0 -41 22
-73 50 -32 27 -64 50 -71 50 -8 0 -22 13 -31 29 -27 49 -97 61 -278 48 -97 -6
-183 2 -285 28 -123 31 -183 57 -295 127 -41 27 -83 48 -92 48 -9 0 -19 4 -22
9 -7 10 -52 20 -126 27 -30 2 -65 7 -77 9 -12 3 -88 5 -170 4 -291 -1 -332 1
-411 20 -122 30 -214 115 -250 229 -50 160 -51 172 -18 269 13 39 38 140 55
224 18 85 43 206 57 269 13 63 38 228 54 365 16 138 38 306 49 375 11 69 36
238 56 375 19 138 40 273 45 300 5 28 23 172 40 320 18 149 38 322 46 385 8
63 23 194 34 290 12 96 32 256 46 355 36 256 50 366 84 660 16 143 34 296 40
340 13 99 108 835 115 890 3 22 16 132 30 245 14 113 29 248 34 300 14 142 64
573 121 1045 63 520 125 1067 145 1285 9 91 27 264 41 385 38 325 41 350 74
720 31 358 49 539 75 770 63 576 67 636 69 935 1 293 -12 473 -55 745 -20 127
-122 510 -214 800 -30 94 -64 204 -75 245 -12 41 -32 109 -45 150 -14 41 -31
107 -40 145 -8 39 -22 96 -31 128 -12 45 -13 65 -5 85 6 15 29 95 52 177 38
138 42 162 46 305 3 95 -1 242 -11 380 -9 124 -19 266 -22 315 -11 169 -48
305 -130 470 -25 50 -58 104 -74 120 -15 17 -45 59 -66 95 -21 35 -75 103
-121 151 -46 47 -83 92 -83 99 0 28 165 179 325 299 152 114 224 164 416 293
73 49 318 188 332 188 6 0 18 7 27 15 9 8 74 43 146 79 306 151 327 156 479
126z"/>
</g>
</svg>
