<?xml version="1.0" standalone="no"?>
<!DOCTYPE svg PUBLIC "-//W3C//DTD SVG 20010904//EN"
 "http://www.w3.org/TR/2001/REC-SVG-20010904/DTD/svg10.dtd">
<svg version="1.0" xmlns="http://www.w3.org/2000/svg"
 width="1500.000000pt" height="2098.000000pt" viewBox="0 0 1500.000000 2098.000000"
 preserveAspectRatio="xMidYMid meet">
<metadata>
Created by potrace 1.16, written by Peter Selinger 2001-2019
</metadata>
<g transform="translate(0.000000,2098.000000) scale(0.100000,-0.100000)"
fill="none" stroke="grey" stroke-width="2">
<path d="M0 10490 l0 -10490 7500 0 7500 0 0 10490 0 10490 -7500 0 -7500 0 0
-10490z m6362 7753 c34 -13 70 -35 80 -49 11 -13 24 -24 30 -24 6 0 19 -7 29
-16 22 -20 110 -43 143 -37 14 3 30 11 37 19 9 11 15 8 32 -12 22 -26 65 -34
187 -37 30 -1 49 -7 58 -19 17 -23 152 -52 203 -44 22 4 52 14 66 23 19 12 55
17 151 20 70 1 150 5 177 7 28 2 95 7 150 10 55 4 198 17 318 29 170 17 220
20 230 10 6 -6 23 -14 37 -16 14 -2 39 -9 55 -16 17 -7 42 -13 57 -13 l27 -1
-19 -25 c-28 -35 -25 -69 8 -100 32 -31 82 -113 82 -135 0 -8 8 -25 18 -37 24
-29 89 -31 112 -3 8 11 28 23 43 27 66 16 90 137 42 207 -52 74 -125 115 -198
110 -24 -1 -27 1 -18 16 23 39 39 53 62 53 13 0 98 16 189 36 274 59 247 57
316 24 34 -16 75 -42 92 -59 17 -17 38 -31 46 -31 26 0 86 -43 160 -114 38
-36 74 -66 81 -66 6 0 22 -11 35 -25 13 -14 31 -25 41 -25 10 0 21 -4 24 -10
3 -5 14 -10 24 -10 10 0 26 -11 34 -24 9 -13 30 -31 47 -40 16 -9 44 -23 62
-33 17 -9 52 -17 77 -19 59 -3 88 -12 95 -30 3 -7 22 -20 43 -29 l38 -16 -25
-12 c-14 -7 -29 -25 -35 -40 -16 -47 9 -76 87 -102 99 -33 121 -54 197 -190
24 -42 34 -71 33 -98 -1 -27 4 -44 21 -60 12 -13 28 -34 34 -47 7 -14 17 -32
23 -40 22 -34 80 -168 80 -186 0 -11 6 -29 14 -39 8 -11 12 -32 9 -50 -3 -22
3 -40 25 -71 l29 -40 -36 -1 c-22 -1 -41 -8 -51 -21 -9 -11 -25 -21 -35 -23
-26 -5 -85 -85 -85 -114 0 -55 97 -105 166 -86 29 7 37 19 69 98 l18 42 53
-132 c30 -73 54 -144 54 -159 0 -14 11 -39 24 -55 26 -31 69 -137 68 -168 -1
-11 -4 -35 -8 -53 -7 -36 16 -82 41 -82 9 0 20 -12 26 -27 6 -16 16 -35 23
-43 8 -8 23 -42 35 -75 12 -33 33 -79 47 -102 19 -33 22 -47 15 -62 -6 -10
-14 -44 -17 -75 l-7 -56 67 -64 c50 -48 63 -65 51 -70 -8 -3 -20 -16 -26 -30
l-11 -24 -35 39 c-20 22 -41 39 -49 39 -7 0 -18 17 -24 38 -6 20 -21 57 -33
82 -25 50 -57 64 -118 51 -30 -7 -41 -5 -56 10 -33 32 -130 30 -172 -5 -16
-12 -49 -10 -68 6 -7 5 -29 10 -50 10 -41 0 -73 -28 -73 -66 0 -12 -9 -39 -20
-61 -11 -22 -20 -44 -20 -51 0 -7 -14 -10 -42 -6 -81 9 -101 4 -132 -29 -23
-26 -30 -29 -37 -17 -25 45 -46 60 -84 60 -64 0 -92 -50 -61 -111 21 -40 41
-53 83 -53 26 0 42 6 55 22 l18 22 18 -21 c9 -12 31 -23 49 -24 46 -5 63 -23
63 -67 0 -45 25 -78 61 -82 14 -2 37 -17 51 -32 21 -25 32 -29 73 -29 38 0 52
4 67 22 10 13 18 33 18 45 0 28 -56 116 -74 116 -7 0 -16 10 -19 21 -5 20 -4
20 21 -5 15 -14 41 -28 58 -32 18 -3 36 -16 46 -35 11 -18 26 -30 40 -30 69
-5 112 0 126 14 14 14 17 13 31 -16 30 -58 131 -59 161 -1 8 16 16 31 18 33 1
2 13 -2 27 -9 58 -31 125 -1 125 56 0 24 -1 24 70 15 3 -1 5 -21 5 -45 0 -42
-3 -46 -47 -75 -26 -17 -73 -45 -105 -62 -32 -18 -65 -38 -74 -45 -8 -8 -21
-14 -27 -14 -6 0 -37 -14 -69 -30 -204 -107 -586 -174 -825 -144 -90 12 -209
9 -288 -5 -64 -12 -80 -19 -111 -50 -32 -33 -36 -43 -47 -131 -7 -52 -17 -125
-22 -162 -6 -37 -10 -124 -10 -195 l0 -128 -19 31 c-25 41 -35 47 -84 47 -57
0 -77 -27 -77 -103 0 -71 20 -101 68 -102 17 -1 37 -7 43 -15 6 -7 17 -13 24
-13 8 0 14 -17 17 -45 2 -27 -1 -45 -7 -45 -6 0 -16 -5 -22 -11 -6 -6 -31 -13
-55 -14 -70 -6 -101 -65 -60 -115 14 -18 30 -23 65 -24 26 -1 47 -3 47 -6 -1
-19 -22 -28 -64 -28 -45 1 -53 -2 -79 -33 -18 -21 -31 -29 -34 -22 -15 41 -41
57 -93 57 -43 0 -56 -4 -71 -23 -25 -30 -24 -82 1 -114 11 -14 20 -32 20 -40
0 -30 35 -59 70 -59 56 0 90 18 105 56 14 32 17 34 61 33 39 0 51 4 70 26 13
15 24 27 26 27 3 0 2 -47 -7 -305 -2 -49 -8 -132 -14 -183 -9 -85 -8 -97 9
-130 18 -34 20 -66 23 -388 2 -193 7 -356 11 -363 4 -6 9 -44 11 -84 1 -39 6
-105 10 -146 7 -63 6 -75 -8 -83 -44 -24 -54 -84 -30 -188 l6 -25 -24 22 c-27
24 -167 54 -212 46 -39 -8 -61 -44 -54 -89 8 -46 32 -84 55 -84 14 0 17 -7 14
-38 -5 -55 22 -85 78 -85 32 0 48 6 61 22 9 11 22 21 28 21 6 0 19 12 28 27
20 30 64 76 68 71 2 -2 10 -20 19 -42 20 -47 20 -83 1 -116 -26 -45 -19 -98
17 -133 40 -40 58 -121 60 -265 1 -78 -2 -106 -12 -112 -8 -5 -18 -6 -22 -3
-12 7 -108 -16 -134 -33 -22 -13 -64 -125 -64 -168 0 -33 27 -64 64 -74 49
-14 82 -4 115 34 19 21 31 28 34 20 3 -7 1 -19 -4 -27 -5 -8 -9 -22 -9 -31 0
-9 -11 -28 -25 -42 -21 -21 -25 -34 -25 -85 0 -56 3 -63 46 -116 26 -31 56
-60 67 -64 18 -7 20 -15 18 -67 -1 -36 4 -78 14 -105 10 -26 16 -71 15 -111
-1 -61 2 -71 25 -94 14 -14 25 -27 23 -28 -52 -24 -70 -64 -47 -104 8 -15 25
-28 37 -30 22 -3 23 -7 17 -57 -5 -39 -3 -61 8 -82 27 -50 52 -166 62 -278 3
-38 11 -103 17 -143 11 -64 10 -76 -5 -101 -25 -43 -20 -83 24 -176 13 -28 17
-52 13 -80 -3 -24 1 -63 12 -100 11 -37 17 -86 16 -128 -1 -38 3 -77 10 -90 6
-12 11 -37 9 -55 -1 -18 5 -44 14 -59 14 -20 15 -30 6 -50 -15 -32 -14 -64 2
-88 19 -27 25 -54 42 -165 23 -153 21 -188 -16 -226 -50 -52 -64 -150 -26
-187 12 -13 36 -52 54 -88 18 -35 39 -75 47 -89 15 -27 45 -306 52 -490 2 -58
7 -121 11 -140 3 -19 5 -52 4 -72 -2 -21 4 -50 13 -65 8 -15 20 -77 25 -138
16 -167 18 -188 26 -220 6 -28 4 -31 -22 -33 -33 -2 -63 -34 -63 -67 0 -28 36
-75 58 -75 25 0 52 -55 52 -106 0 -25 4 -53 9 -62 6 -11 4 -31 -5 -57 -19 -55
-17 -88 5 -117 35 -44 57 -182 35 -213 -21 -29 -17 -60 13 -95 28 -34 28 -34
-3 -182 -5 -20 0 -33 18 -51 26 -26 46 -100 53 -197 2 -30 9 -86 14 -125 24
-165 31 -229 46 -380 8 -88 19 -178 25 -200 5 -22 10 -67 10 -99 0 -33 7 -86
16 -118 16 -55 16 -61 -1 -92 -21 -39 -15 -91 15 -128 22 -29 44 -201 29 -230
-12 -23 -11 -75 1 -99 8 -15 7 -19 -4 -19 -20 0 -56 -48 -56 -75 0 -30 37 -75
61 -75 12 0 19 -7 19 -20 0 -12 11 -32 25 -46 34 -34 34 -84 0 -118 -14 -14
-25 -36 -25 -48 0 -32 26 -66 53 -70 20 -3 22 -10 28 -93 4 -49 11 -116 17
-148 6 -32 16 -124 22 -205 6 -81 15 -165 20 -187 5 -22 16 -74 24 -115 8 -41
20 -97 26 -125 7 -27 12 -59 12 -70 0 -38 -35 -120 -77 -180 -43 -60 -269
-306 -289 -314 -6 -2 -38 -31 -71 -63 -33 -32 -63 -58 -67 -58 -4 0 -22 -13
-40 -29 -18 -15 -55 -40 -83 -55 -27 -16 -61 -38 -75 -51 -14 -12 -43 -29 -65
-36 -22 -7 -58 -25 -80 -40 -22 -14 -54 -29 -71 -33 -17 -4 -42 -18 -54 -32
-13 -13 -30 -24 -37 -24 -8 0 -40 -12 -71 -26 -31 -14 -70 -32 -87 -40 -31
-14 -127 -41 -180 -50 -16 -4 -37 -9 -45 -14 -8 -4 -87 -7 -175 -6 -147 2
-170 5 -280 35 -218 59 -325 95 -410 138 -63 33 -79 46 -124 108 -41 55 -57
91 -65 148 -8 62 -51 144 -86 166 -17 10 -58 24 -91 30 -159 32 -336 -69 -388
-219 -12 -36 -29 -94 -36 -130 -38 -180 -68 -260 -112 -306 -13 -13 -23 -28
-23 -35 0 -21 -109 -148 -127 -149 -7 0 -24 -16 -39 -35 -14 -19 -32 -35 -38
-35 -6 0 -27 -13 -46 -30 -19 -16 -41 -29 -48 -30 -7 0 -38 -11 -69 -25 -48
-22 -65 -25 -117 -20 -93 9 -136 21 -160 44 -12 12 -26 21 -32 21 -28 2 -96
84 -141 170 -40 76 -51 108 -56 162 -3 38 -11 77 -17 87 -5 11 -10 52 -10 91
0 63 -3 74 -26 96 -23 24 -25 31 -19 78 9 67 -13 98 -68 98 -46 0 -81 -22
-103 -65 -35 -66 -96 -127 -158 -156 -155 -73 -250 -80 -471 -35 -44 9 -89 17
-100 19 -11 1 -88 16 -172 34 -164 33 -214 50 -329 111 -42 22 -81 40 -88 40
-7 0 -23 11 -36 25 -13 14 -31 25 -40 25 -9 0 -27 12 -41 26 -13 14 -39 35
-59 46 -141 85 -433 387 -444 460 -18 118 -18 148 3 174 14 18 21 41 21 73 0
41 24 220 49 374 10 55 23 104 42 155 5 13 7 45 3 72 -5 40 -3 53 16 78 19 26
22 39 18 84 -4 42 -1 64 18 107 27 59 29 88 13 125 -10 22 -8 29 16 57 28 34
28 45 10 136 -5 24 -2 38 16 62 21 29 22 34 11 79 -13 49 -8 102 13 137 7 11
17 40 24 65 7 25 17 59 23 75 22 62 21 95 -2 127 -21 28 -21 34 -10 82 7 28
13 87 15 131 1 44 10 97 18 118 9 20 16 54 16 74 0 21 7 81 16 133 9 52 18
120 19 150 7 132 31 282 56 345 6 16 9 44 5 61 -4 23 1 43 20 75 29 51 31 76
10 106 -14 19 -14 27 1 69 10 31 14 62 9 89 -6 44 19 322 35 385 5 19 14 89
20 155 16 184 32 315 42 365 6 25 14 95 19 155 4 61 13 146 19 190 15 112 30
232 35 285 2 25 13 63 24 85 23 44 26 76 10 106 -7 14 -7 42 0 92 6 40 16 112
23 161 9 71 17 94 36 113 23 23 24 29 23 156 -1 271 -1 277 21 300 109 121
138 222 71 252 -27 12 -31 27 -20 85 4 25 10 77 13 115 2 39 11 124 20 190 8
66 19 176 25 244 5 69 16 136 24 152 9 16 14 53 14 92 -1 35 4 74 11 86 6 12
10 34 9 49 -4 40 10 227 23 307 6 39 19 81 29 94 11 13 19 35 19 50 0 14 7 35
15 45 8 11 15 32 15 46 0 14 -7 35 -15 46 -19 25 -19 55 2 186 12 76 21 108
31 108 7 0 27 14 44 30 29 29 30 34 24 83 -4 29 -16 72 -28 95 -18 39 -20 55
-14 142 4 54 11 113 17 131 12 37 37 138 46 181 3 14 1 34 -4 43 -6 10 -6 35
-1 63 5 26 13 83 17 128 5 44 15 92 24 105 14 22 28 139 32 254 0 28 4 68 8
90 5 22 9 135 11 250 3 164 7 220 20 254 11 31 14 59 10 92 -5 33 -2 60 9 88
21 52 36 245 32 411 -2 74 -5 140 -6 145 -2 6 3 42 9 80 7 39 10 109 7 160 -3
50 -7 234 -10 410 -2 181 -9 335 -14 355 -6 19 -11 54 -11 77 0 24 -7 60 -15
80 -17 43 -55 285 -55 350 0 23 -7 68 -16 100 -8 32 -21 82 -28 110 -8 29 -19
59 -25 67 -11 14 -56 26 -116 31 -16 2 -75 9 -130 16 -55 6 -111 13 -125 14
-106 9 -210 24 -375 55 -55 10 -259 35 -370 45 -91 8 -185 30 -240 55 -24 11
-47 20 -51 20 -10 0 -87 63 -109 89 -41 51 -75 124 -75 163 0 31 -7 46 -30 70
-36 35 -37 40 -8 53 21 9 58 89 58 123 0 8 18 39 40 69 22 31 40 67 40 79 0
13 4 25 9 28 5 4 28 44 50 91 31 65 45 85 60 85 31 0 54 43 49 87 -4 30 4 56
38 126 24 49 44 93 44 100 0 6 10 21 21 34 13 13 25 44 30 74 5 29 20 68 34
88 14 21 25 48 25 62 0 13 14 51 30 83 17 32 30 64 30 71 0 7 7 18 16 26 29
24 56 90 52 128 -3 25 1 44 14 62 11 14 22 46 25 70 3 24 14 53 23 64 10 11
28 45 41 75 12 30 31 65 40 78 10 13 21 36 24 52 4 18 13 30 23 30 8 0 24 7
34 16 14 14 20 14 33 4 8 -7 34 -13 57 -13 35 0 47 6 75 36 22 24 33 47 33 66
0 19 10 40 25 55 49 49 22 125 -45 129 -34 2 -35 4 -32 35 2 17 8 32 13 32 5
0 9 -4 9 -9 0 -19 62 -53 96 -53 43 0 55 10 94 78 35 62 37 83 12 114 -18 22
-76 31 -101 15 -19 -11 -12 16 11 44 23 27 23 27 39 7 13 -16 29 -20 88 -20
66 -1 75 1 93 24 15 18 18 32 13 55 -7 33 -7 116 0 123 3 3 35 4 72 3 146 -5
143 -6 183 34 30 29 46 37 84 40 51 4 72 16 81 46 7 22 26 24 78 5 54 -18 86
-9 109 30 11 19 28 34 38 34 10 0 29 13 42 28 30 36 48 31 41 -11 -7 -47 21
-79 72 -79 64 0 96 58 59 110 -8 12 -21 22 -29 22 -8 0 -12 6 -10 13 3 6 24
13 48 14 31 1 47 8 62 26 35 43 73 43 177 0z m4276 -2829 c25 -5 32 -12 32
-29 0 -12 9 -34 20 -48 25 -32 25 -34 -5 -39 -18 -4 -29 1 -40 18 -9 13 -21
24 -28 24 -9 0 -12 10 -9 28 3 20 -4 38 -24 63 -26 31 -26 32 -3 12 14 -13 39
-26 57 -29z"/>
<path d="M7615 18009 c-67 -10 -95 -33 -95 -79 0 -44 28 -69 84 -76 28 -3 53
-7 57 -9 3 -3 20 0 38 5 l31 9 -18 -24 c-10 -14 -24 -22 -33 -19 -9 2 -40 5
-69 5 -79 2 -90 -15 -83 -130 5 -81 4 -92 -16 -116 -45 -58 -14 -118 62 -118
25 0 53 6 62 13 24 20 55 85 55 117 0 15 5 35 10 43 7 11 10 2 10 -33 0 -46 3
-52 58 -105 31 -31 64 -71 73 -88 29 -55 112 -53 139 3 8 18 24 33 35 35 27 4
50 48 41 81 -4 16 -23 38 -46 53 -22 15 -40 31 -40 36 0 5 5 6 11 3 26 -16 81
-6 117 22 20 15 51 29 67 30 57 5 83 68 47 113 -20 25 -82 31 -106 10 -8 -6
-25 -10 -38 -9 -54 5 -68 -2 -95 -42 l-27 -40 -12 23 c-8 13 -13 36 -14 52 0
33 -62 96 -93 96 -15 0 -18 5 -12 23 17 53 16 73 -2 96 -16 20 -30 24 -79 26
-32 1 -86 -2 -119 -6z"/>
<path d="M6542 17953 c-12 -2 -30 -15 -38 -29 -15 -21 -15 -31 -3 -86 8 -34
21 -71 29 -81 27 -33 127 -20 148 20 17 32 13 129 -6 152 -17 21 -84 33 -130
24z"/>
<path d="M7282 17952 c-23 -4 -82 -74 -82 -99 0 -7 -9 -13 -19 -13 -11 0 -27
-10 -35 -22 -38 -54 -1 -128 66 -131 21 -1 38 -3 38 -5 0 -15 -86 -112 -100
-112 -17 0 -40 -45 -40 -78 0 -29 -2 -33 -15 -22 -25 21 -87 15 -107 -10 -29
-36 -23 -69 23 -110 63 -59 127 -60 164 -3 13 20 31 33 51 37 117 23 195 117
150 181 -12 18 -12 23 4 43 10 12 25 22 33 22 31 0 55 46 74 140 7 37 -24 71
-67 73 -32 2 -35 5 -32 27 7 50 -46 91 -106 82z"/>
<path d="M8960 17790 c-54 -13 -63 -82 -17 -136 30 -35 92 -37 119 -4 23 28
23 82 1 109 -21 25 -69 40 -103 31z"/>
<path d="M6183 17642 c-28 -4 -53 -38 -53 -72 0 -27 44 -100 60 -100 6 0 10
-9 10 -20 0 -12 10 -31 23 -44 l23 -23 -30 -37 c-17 -20 -37 -36 -44 -36 -7 0
-24 -11 -37 -25 -19 -18 -25 -35 -25 -68 0 -56 24 -88 67 -89 32 -1 97 24 108
42 3 6 15 10 25 10 10 0 25 9 33 20 11 16 28 21 83 25 55 3 72 8 87 26 37 45
4 122 -57 133 -20 4 -41 4 -46 1 -18 -11 -11 6 15 37 31 37 32 71 3 128 l-23
45 -100 25 c-55 14 -110 24 -122 22z"/>
<path d="M5762 17622 c-12 -2 -30 -16 -39 -30 -10 -15 -30 -42 -45 -60 -15
-18 -28 -43 -28 -56 0 -25 35 -76 52 -76 6 0 19 -7 29 -16 9 -8 43 -18 75 -21
77 -7 92 -6 126 8 24 10 30 9 45 -9 18 -20 35 -25 80 -23 30 1 73 66 73 109 0
38 -19 79 -49 106 -24 22 -101 27 -124 8 -12 -10 -21 -5 -49 23 -28 30 -43 37
-79 39 -24 1 -54 0 -67 -2z"/>
<path d="M9130 17533 c-8 -3 -22 -7 -30 -10 -8 -3 -26 -8 -40 -10 -31 -5 -60
-38 -60 -68 0 -41 42 -89 86 -98 28 -7 44 -17 56 -38 34 -58 138 -32 138 35 0
12 -6 30 -13 41 -8 11 -22 41 -32 67 -24 64 -61 93 -105 81z"/>
<path d="M8222 17423 c-35 -7 -55 -45 -47 -93 10 -58 33 -82 80 -82 51 0 75
28 75 87 0 66 -41 100 -108 88z"/>
<path d="M6973 17312 c-49 -7 -70 -88 -35 -132 27 -33 89 -31 119 5 53 61 1
140 -84 127z"/>
<path d="M7305 17302 c-11 -2 -28 -11 -38 -20 -9 -8 -32 -17 -49 -19 -18 -2
-41 -12 -52 -22 -12 -11 -30 -21 -41 -23 -27 -5 -50 -48 -42 -81 16 -61 116
-91 162 -47 19 18 29 20 56 13 80 -20 115 14 104 99 -11 83 -39 112 -100 100z"/>
<path d="M7993 17162 c-48 -7 -68 -72 -35 -112 39 -48 132 -17 132 44 0 48
-41 76 -97 68z"/>
<path d="M6163 17102 c-13 -2 -30 -13 -38 -25 -36 -51 -3 -110 61 -110 33 0
43 -4 56 -27 30 -52 154 -52 201 0 32 36 34 68 7 103 -23 28 -51 36 -92 26
-20 -5 -34 -2 -52 12 -24 19 -94 29 -143 21z"/>
<path d="M7463 17053 c-13 -2 -31 -15 -42 -29 -10 -13 -26 -24 -34 -24 -9 0
-23 -10 -31 -22 -39 -55 0 -130 68 -130 20 0 40 3 43 6 3 3 12 1 20 -5 7 -7
39 -13 69 -14 107 -5 154 24 154 95 0 51 -22 77 -72 85 -24 4 -47 11 -53 15
-9 6 -35 14 -85 24 -8 2 -25 1 -37 -1z"/>
<path d="M6552 17042 c-28 -4 -62 -56 -62 -93 0 -69 92 -97 145 -44 60 59 5
150 -83 137z"/>
<path d="M8250 17031 c-15 -4 -31 -19 -40 -38 -8 -18 -22 -33 -31 -33 -9 0
-24 -9 -34 -20 l-18 -20 -23 21 c-33 31 -88 28 -126 -7 -39 -37 -98 -155 -98
-195 0 -21 -10 -43 -30 -66 -24 -27 -30 -43 -30 -78 0 -46 -7 -54 -28 -33 -7
7 -50 13 -109 14 -54 1 -101 3 -105 3 -5 1 -8 19 -8 40 0 54 -26 83 -73 83
-21 0 -43 -4 -50 -10 -6 -5 -27 -13 -44 -17 -36 -7 -63 -38 -63 -71 0 -12 14
-38 30 -59 17 -21 30 -46 30 -56 0 -36 42 -71 90 -74 55 -4 80 -13 80 -30 0
-7 8 -23 18 -35 27 -33 98 -32 126 1 18 21 29 24 82 23 78 -2 118 -20 43 -20
-42 0 -55 -5 -70 -23 -24 -30 -24 -58 0 -98 22 -35 48 -43 106 -30 72 17 97
76 51 121 l-23 24 35 0 c19 0 47 9 63 21 33 25 49 27 49 7 0 -8 10 -27 23 -41
40 -47 124 -31 143 27 3 10 16 30 30 43 13 13 24 36 24 50 0 18 5 25 19 25 36
0 52 38 45 108 -6 57 -5 65 15 78 11 8 27 27 35 42 8 15 27 41 44 58 41 43 52
106 25 143 -11 14 -29 27 -41 29 -12 2 -23 13 -26 27 -11 42 -85 78 -136 66z"/>
<path d="M5813 17023 c-49 -9 -69 -81 -35 -123 14 -17 29 -23 62 -23 50 0 80
27 80 73 0 51 -48 83 -107 73z"/>
<path d="M9833 17012 c-56 -9 -71 -92 -25 -143 50 -56 142 -33 142 35 0 11
-10 39 -23 60 -22 40 -51 55 -94 48z"/>
<path d="M5383 16952 c-49 -7 -69 -80 -35 -122 13 -16 29 -22 57 -22 45 0 75
28 75 71 0 53 -39 82 -97 73z"/>
<path d="M9043 16913 c-49 -9 -69 -81 -35 -123 14 -17 29 -23 62 -23 50 0 80
27 80 73 0 51 -48 83 -107 73z"/>
<path d="M6963 16843 c-29 -6 -53 -40 -53 -73 0 -33 26 -70 50 -70 16 0 18 -5
13 -33 -8 -49 21 -80 77 -80 33 0 48 6 62 23 24 29 23 81 -2 113 -11 14 -20
36 -20 50 0 51 -60 84 -127 70z"/>
<path d="M5885 16828 c-17 -5 -48 -11 -70 -13 -48 -5 -75 -34 -75 -80 0 -68
59 -96 135 -64 17 7 41 14 55 16 52 8 77 74 45 120 -17 25 -50 32 -90 21z"/>
<path d="M8833 16802 c-49 -7 -70 -88 -35 -132 13 -16 29 -22 57 -22 47 0 75
28 75 76 0 57 -37 87 -97 78z"/>
<path d="M9003 16713 c-30 -6 -63 -49 -63 -83 0 -15 8 -38 19 -51 15 -19 28
-23 76 -23 48 0 61 4 77 23 53 66 -17 152 -109 134z"/>
<path d="M6195 16613 c-33 -8 -66 -45 -92 -103 -20 -44 -24 -64 -19 -102 6
-43 5 -48 -13 -48 -11 0 -23 -4 -26 -10 -3 -5 -15 -10 -25 -10 -50 0 -70 -116
-27 -165 30 -35 74 -46 120 -30 33 11 37 11 43 -7 3 -11 -2 -34 -11 -53 -22
-40 -16 -68 28 -118 27 -32 39 -39 69 -39 32 0 47 9 103 64 67 63 105 121 105
156 0 27 -38 72 -61 72 -19 0 -19 1 2 29 17 23 20 37 15 63 -4 18 -7 54 -6 79
1 54 -22 88 -62 91 -25 2 -28 6 -28 40 0 61 -55 104 -115 91z"/>
<path d="M10042 16273 c-12 -3 -34 -22 -49 -44 -20 -31 -24 -47 -20 -75 14
-82 70 -114 162 -91 40 11 57 22 82 56 39 50 41 80 11 116 -18 20 -35 27 -78
31 -30 2 -62 6 -70 8 -8 2 -25 1 -38 -1z"/>
<path d="M7598 16225 c-3 -3 -29 -8 -59 -10 -79 -8 -91 -27 -83 -124 7 -74 23
-123 45 -137 7 -4 50 -7 98 -6 76 0 87 3 103 22 22 27 24 108 3 136 -8 10 -15
31 -15 45 0 15 -8 36 -17 47 -18 20 -65 37 -75 27z"/>
<path d="M9085 16173 c-33 -8 -52 -32 -69 -83 -21 -63 -20 -93 2 -120 19 -24
85 -31 105 -11 6 6 15 7 21 2 12 -10 38 -14 72 -12 11 0 37 16 57 35 52 47 50
82 -6 141 -40 43 -47 46 -102 50 -33 2 -69 1 -80 -2z"/>
<path d="M4600 16160 c-34 -8 -70 -64 -70 -110 0 -20 12 -60 28 -90 31 -63 58
-75 117 -54 21 7 56 16 77 19 78 14 91 84 28 162 -34 44 -47 52 -97 65 -32 8
-69 11 -83 8z"/>
<path d="M7842 16042 c-12 -2 -32 -17 -44 -33 -12 -16 -30 -29 -40 -29 -10 0
-29 -18 -44 -39 -22 -34 -25 -46 -19 -88 8 -56 29 -93 52 -93 9 0 29 -12 44
-26 28 -27 91 -36 111 -16 12 12 75 -5 100 -26 18 -15 87 -20 108 -7 14 9 50
90 50 115 0 10 -8 28 -18 41 -16 19 -29 23 -90 23 -59 1 -72 4 -72 17 0 9 -9
28 -20 42 -11 14 -20 36 -20 49 0 50 -40 79 -98 70z"/>
<path d="M9123 15882 c-33 -5 -73 -58 -73 -95 0 -43 34 -97 62 -99 77 -5 118
27 118 90 0 71 -44 114 -107 104z"/>
<path d="M9753 15853 c-28 -5 -53 -39 -53 -70 0 -13 15 -39 33 -59 27 -30 40
-36 72 -36 45 0 75 28 75 71 0 31 -34 91 -52 91 -7 0 -22 2 -33 4 -11 2 -30 2
-42 -1z"/>
<path d="M6223 15812 c-46 -7 -69 -77 -38 -118 23 -30 18 -40 -22 -41 -64 -2
-94 -65 -55 -113 14 -17 29 -23 62 -23 27 0 54 -7 70 -18 47 -34 115 -29 138
10 11 20 27 32 50 36 77 14 123 178 67 243 -20 23 -30 26 -80 26 -47 0 -61 -4
-75 -21 -17 -22 -18 -22 -34 -4 -19 20 -48 28 -83 23z m117 -122 c0 -5 -2 -10
-4 -10 -3 0 -8 5 -11 10 -3 6 -1 10 4 10 6 0 11 -4 11 -10z"/>
<path d="M5210 15648 c-54 -14 -75 -45 -90 -131 -11 -68 -11 -79 4 -102 16
-24 36 -30 86 -26 32 3 50 19 67 59 8 20 20 32 32 32 25 0 71 55 71 84 0 29
-27 66 -49 66 -9 0 -21 4 -26 9 -17 15 -59 19 -95 9z"/>
<path d="M4893 15632 c-36 -5 -83 -56 -83 -89 0 -38 45 -103 73 -105 80 -5
107 19 107 96 0 77 -30 108 -97 98z"/>
<path d="M9009 15610 c-33 -8 -61 -64 -57 -117 3 -36 0 -43 -17 -45 -26 -4
-50 -48 -42 -79 3 -13 19 -39 35 -58 24 -29 34 -34 72 -34 70 0 97 52 65 126
-4 10 -4 17 1 16 52 -9 104 47 104 112 0 56 -25 80 -86 82 -28 2 -62 0 -75 -3z"/>
<path d="M8202 15563 c-28 -5 -62 -57 -62 -94 0 -47 30 -72 87 -73 28 -1 57
-7 66 -15 27 -21 88 -16 109 9 29 36 23 76 -19 120 -31 32 -47 40 -84 45 -26
2 -53 6 -60 8 -8 3 -24 2 -37 0z"/>
<path d="M4603 15422 c-13 -2 -33 -16 -45 -31 l-23 -28 -33 25 c-38 29 -110
35 -138 11 -23 -19 -44 -71 -44 -109 0 -39 63 -110 100 -112 51 -2 116 14 148
38 17 14 37 22 43 19 6 -4 27 -7 47 -7 45 0 72 30 72 81 0 29 -30 101 -42 101
-2 0 -17 4 -33 8 -17 4 -40 6 -52 4z"/>
<path d="M9223 15392 c-48 -7 -68 -72 -35 -112 39 -48 132 -17 132 44 0 48
-41 76 -97 68z"/>
<path d="M8060 15290 c-29 -7 -70 -63 -70 -95 0 -13 8 -33 19 -46 16 -20 28
-23 81 -23 53 0 65 3 81 23 27 33 23 65 -11 104 -32 37 -59 47 -100 37z"/>
<path d="M5363 15092 c-28 -4 -63 -47 -63 -77 0 -41 32 -68 80 -68 50 0 80 27
80 72 0 52 -39 82 -97 73z"/>
<path d="M7163 15053 c-26 -5 -53 -39 -53 -66 0 -24 38 -97 53 -102 7 -3 25
-7 41 -9 16 -3 36 -12 46 -21 15 -14 16 -21 7 -46 -10 -25 -9 -35 6 -60 9 -17
17 -41 17 -55 0 -13 13 -38 28 -55 21 -24 36 -31 64 -31 20 0 42 3 48 7 18 11
40 70 40 107 0 45 -40 112 -68 116 l-23 4 30 54 c35 60 38 80 16 111 -17 25
-57 34 -97 22 -21 -6 -37 -4 -51 5 -26 17 -73 25 -104 19z"/>
<path d="M7012 14603 c-41 -8 -78 -84 -91 -186 -13 -102 -4 -130 46 -140 70
-14 121 25 109 83 -7 40 17 51 42 20 25 -31 89 -31 114 0 42 51 9 110 -62 113
-44 2 -45 3 -51 40 -3 21 -12 44 -20 51 -17 16 -56 24 -87 19z"/>
<path d="M6443 14192 c-27 -4 -53 -38 -53 -67 0 -29 28 -65 51 -65 24 0 24 -6
-1 -37 -24 -30 -26 -81 -5 -109 8 -10 17 -41 21 -67 9 -65 30 -89 77 -89 21 0
44 5 52 12 21 17 35 75 35 141 0 67 -29 118 -75 133 -17 6 -32 11 -34 12 -1 2
4 13 13 26 42 59 -4 122 -81 110z m54 -138 c-3 -3 -12 -4 -19 -1 -8 3 -5 6 6
6 11 1 17 -2 13 -5z"/>
<path d="M7193 14193 c-49 -10 -69 -81 -35 -123 28 -34 98 -32 129 4 55 64 -2
137 -94 119z"/>
<path d="M8973 13932 c-33 -5 -53 -40 -53 -93 0 -63 23 -91 75 -91 73 0 105
68 67 141 -17 36 -47 50 -89 43z"/>
<path d="M6243 13908 c-18 -5 -35 -13 -38 -18 -3 -6 -15 -10 -26 -10 -46 0
-97 -116 -70 -159 6 -10 5 -22 -5 -35 -54 -78 62 -151 131 -81 26 26 33 72 15
105 -8 14 -5 21 15 34 13 9 31 16 39 16 22 0 46 40 46 75 0 61 -42 90 -107 73z"/>
<path d="M8663 13723 c-27 -5 -53 -39 -53 -68 0 -29 28 -65 51 -65 23 0 24 -8
4 -34 -20 -27 -19 -59 3 -87 15 -18 29 -22 67 -22 38 0 52 4 67 22 34 43 12
121 -34 121 -15 0 -18 4 -13 18 33 75 -11 129 -92 115z"/>
<path d="M6464 13712 c-12 -2 -30 -12 -40 -23 -9 -10 -21 -19 -27 -19 -5 0
-22 -11 -39 -25 -16 -14 -38 -25 -48 -25 -23 0 -60 -46 -60 -75 0 -31 38 -84
87 -120 22 -16 52 -50 65 -74 20 -39 30 -46 83 -63 33 -11 74 -20 92 -20 30 0
32 -2 26 -29 -6 -33 19 -79 43 -79 9 0 23 -9 33 -21 21 -26 79 -28 113 -5 12
9 31 16 41 16 10 0 29 11 42 25 34 33 33 76 -3 116 -23 26 -36 32 -70 32 -23
0 -48 -5 -55 -12 -8 -6 -17 -8 -20 -5 -3 3 -22 6 -41 6 -30 0 -36 4 -36 20 0
40 -71 138 -99 138 -9 0 -22 9 -28 19 -10 16 -9 22 3 32 30 24 46 70 39 108
-12 68 -42 92 -101 83z"/>
<path d="M6893 13703 c-29 -6 -53 -40 -53 -73 0 -28 25 -70 41 -70 6 0 18 -9
28 -21 24 -29 89 -29 113 1 40 50 32 131 -16 150 -33 12 -87 19 -113 13z"/>
<path d="M9073 13453 c-13 -3 -31 -15 -42 -29 -10 -13 -26 -24 -34 -24 -8 0
-20 -6 -26 -14 -7 -8 -26 -17 -45 -20 -43 -8 -106 -66 -106 -99 0 -39 35 -74
80 -82 23 -4 53 -17 68 -30 37 -31 78 -38 132 -22 47 14 90 61 90 99 0 11 14
33 30 48 17 16 30 38 30 52 0 30 -26 68 -48 68 -9 0 -25 11 -37 24 -21 25 -55
36 -92 29z"/>
<path d="M8282 13403 c-13 -3 -38 -26 -59 -54 -19 -27 -38 -49 -41 -49 -4 1
-16 15 -27 32 -11 18 -32 35 -46 39 -50 13 -78 -1 -114 -56 -38 -57 -42 -80
-20 -112 15 -21 98 -48 117 -37 6 4 6 -1 -1 -14 -19 -36 -13 -72 19 -103 29
-29 29 -32 15 -59 -36 -70 -1 -142 70 -142 32 0 44 6 67 34 56 66 70 104 66
182 -2 39 -8 79 -12 89 -6 13 -4 17 11 17 32 0 93 63 93 96 0 44 -18 99 -38
116 -20 18 -66 28 -100 21z"/>
<path d="M6122 13218 c-18 -5 -38 -17 -45 -28 -6 -11 -19 -20 -28 -20 -8 0
-18 -3 -22 -6 -3 -4 -24 -8 -47 -9 -23 -2 -47 -8 -54 -14 -18 -15 -56 -122
-55 -152 0 -13 -2 -41 -6 -61 -14 -71 36 -108 114 -85 41 12 60 10 81 -7 38
-33 119 -22 145 18 20 30 10 122 -16 162 l-18 28 35 38 c39 43 43 74 14 110
-23 30 -52 38 -98 26z"/>
<path d="M7963 13073 c-49 -10 -69 -81 -34 -124 15 -19 28 -23 71 -23 43 0 56
4 71 23 24 29 24 73 2 99 -18 22 -71 33 -110 25z"/>
<path d="M6413 13062 c-12 -2 -33 -15 -45 -30 -14 -16 -36 -28 -53 -30 -38 -4
-65 -35 -65 -75 0 -24 13 -42 66 -91 69 -63 94 -76 131 -67 30 8 113 107 112
134 0 12 -17 51 -37 86 -38 66 -60 81 -109 73z"/>
<path d="M7700 12920 c-70 -17 -94 -182 -41 -290 19 -39 33 -56 51 -60 39 -9
103 10 129 38 19 21 22 32 17 64 -6 35 -3 43 24 68 62 58 28 158 -55 165 -22
1 -48 6 -57 9 -35 12 -43 13 -68 6z"/>
<path d="M8253 12792 c-50 -8 -70 -88 -35 -133 15 -18 29 -22 67 -22 40 0 52
4 72 27 27 32 30 66 6 94 -20 23 -75 40 -110 34z"/>
<path d="M6133 12733 c-13 -3 -29 -13 -36 -23 -11 -16 -19 -18 -44 -11 -43 12
-82 2 -100 -25 -8 -13 -23 -24 -33 -24 -10 0 -30 -14 -44 -30 -22 -27 -25 -40
-24 -98 1 -81 8 -96 54 -118 43 -20 90 -21 113 -1 9 8 25 17 36 18 13 3 30 25
50 66 33 67 61 103 81 103 19 0 54 49 54 75 0 46 -51 78 -107 68z"/>
<path d="M7310 12528 c-43 -11 -70 -41 -70 -79 0 -19 -5 -29 -14 -29 -20 0
-46 -39 -46 -70 0 -59 65 -92 138 -71 25 7 32 7 32 -4 0 -7 8 -23 18 -36 15
-18 29 -22 67 -22 38 0 52 4 67 22 22 28 23 60 3 87 -8 10 -15 35 -15 55 0 27
-10 49 -41 88 -22 28 -41 51 -42 51 -1 0 -16 4 -32 8 -17 5 -46 5 -65 0z"/>
<path d="M9193 12533 c-13 -2 -32 -16 -43 -30 -17 -22 -20 -41 -20 -128 0
-130 9 -143 95 -152 95 -9 118 -6 138 19 14 17 17 31 12 58 -4 19 -10 56 -14
81 -5 34 -19 59 -51 97 -25 29 -50 52 -57 52 -6 0 -17 2 -25 4 -7 2 -23 1 -35
-1z"/>
<path d="M7833 12332 c-49 -7 -69 -80 -35 -122 13 -16 29 -22 57 -22 45 0 75
28 75 71 0 53 -39 82 -97 73z"/>
<path d="M8590 12111 c-31 -9 -55 -50 -47 -82 3 -13 19 -39 34 -57 53 -64 143
-37 143 42 0 35 -33 96 -52 96 -7 0 -22 2 -33 4 -11 3 -31 1 -45 -3z"/>
<path d="M8182 12033 c-36 -7 -55 -46 -48 -98 10 -61 33 -87 78 -87 86 0 125
51 93 122 -10 22 -23 44 -29 49 -15 12 -66 19 -94 14z"/>
<path d="M9233 11982 c-48 -7 -68 -72 -35 -112 39 -48 132 -17 132 44 0 48
-41 76 -97 68z"/>
<path d="M8752 11863 c-28 -6 -72 -69 -72 -105 0 -15 5 -38 11 -52 10 -21 8
-29 -10 -52 -26 -34 -27 -64 -1 -97 36 -46 126 -56 153 -17 17 25 87 38 87 17
0 -9 -10 -17 -22 -19 -12 -2 -29 -15 -37 -30 -45 -80 84 -148 168 -89 17 13
48 25 69 27 41 5 72 34 72 68 0 33 -35 82 -69 97 -26 11 -31 20 -31 47 0 37
-22 96 -40 107 -7 4 -31 8 -53 8 -30 0 -45 -6 -59 -23 -16 -20 -18 -20 -18 -4
0 25 -57 114 -73 114 -6 0 -21 2 -32 4 -11 2 -30 2 -43 -1z"/>
<path d="M6813 11693 c-28 -5 -53 -39 -53 -70 0 -13 13 -37 28 -54 54 -61 142
-33 142 46 0 57 -51 91 -117 78z"/>
<path d="M7703 11572 c-12 -2 -34 -17 -48 -33 -35 -43 -36 -119 -1 -154 14
-13 27 -33 30 -43 12 -36 44 -55 93 -55 38 0 50 5 70 27 12 15 23 37 23 49 0
38 -28 105 -65 156 -35 48 -57 60 -102 53z"/>
<path d="M8146 11321 c-65 -19 -86 -40 -86 -85 0 -66 54 -113 116 -101 10 2
27 4 36 4 23 1 78 88 78 122 0 33 -27 65 -60 72 -14 3 -51 -3 -84 -12z"/>
<path d="M8363 11272 c-28 -4 -53 -38 -53 -70 0 -13 -11 -37 -25 -54 -33 -39
-32 -74 3 -107 22 -20 27 -31 21 -46 -4 -11 -8 -43 -8 -72 -1 -71 27 -106 88
-106 36 0 49 6 83 39 l41 39 -7 -30 c-16 -68 -17 -91 -3 -109 12 -16 11 -21
-10 -42 -30 -30 -29 -69 1 -99 l23 -23 -33 -6 c-49 -10 -87 -60 -81 -106 3
-22 -1 -43 -9 -55 -19 -26 -17 -79 4 -105 13 -16 29 -22 57 -22 33 0 44 6 68
36 16 20 36 36 45 36 8 0 24 8 34 17 18 16 17 13 -2 -32 -12 -28 -20 -64 -18
-82 3 -29 1 -32 -29 -38 -42 -8 -63 -39 -63 -91 0 -42 11 -61 77 -137 18 -20
33 -48 33 -61 0 -29 45 -86 68 -86 8 0 23 -7 32 -15 9 -8 28 -16 41 -17 21 -2
24 -6 21 -34 -3 -25 2 -39 21 -58 14 -14 28 -34 32 -45 3 -10 12 -25 20 -31
17 -15 81 -16 98 -2 6 5 31 13 54 17 45 7 83 42 83 76 0 21 -46 115 -61 125
-15 9 -75 7 -91 -2 -7 -5 -31 -9 -54 -9 -33 0 -40 3 -36 16 8 32 -40 141 -69
158 -14 8 -30 26 -35 39 -8 21 -3 31 29 62 30 31 37 45 37 77 0 24 8 50 19 64
48 63 81 158 81 239 0 64 -17 95 -57 103 -26 5 -28 9 -27 50 1 25 9 55 18 68
47 67 -28 144 -115 119 -27 -8 -30 -7 -23 8 13 28 8 84 -11 132 -38 98 -38 97
8 97 45 0 77 28 77 68 0 41 -31 68 -80 68 -53 0 -84 -31 -78 -75 4 -25 2 -28
-21 -26 -14 2 -34 13 -44 26 -10 12 -27 22 -38 22 -13 0 -19 7 -19 24 0 49
-52 79 -117 68z m347 -708 c0 -8 -9 -14 -19 -14 -11 0 -25 -2 -33 -5 -7 -3
-19 4 -26 16 -8 12 -9 19 -4 15 5 -3 22 -1 38 3 33 9 44 6 44 -15z"/>
<path d="M7313 11243 c-34 -6 -83 -57 -83 -86 0 -43 39 -79 85 -79 32 0 45 6
72 36 18 20 33 47 33 60 0 47 -50 79 -107 69z"/>
<path d="M7613 11233 c-47 -9 -67 -69 -37 -111 14 -21 14 -22 -8 -21 -13 1
-48 -1 -78 -5 -87 -9 -116 -64 -66 -123 23 -27 29 -28 108 -28 54 0 92 5 108
15 28 16 31 17 60 19 41 2 67 42 74 113 7 66 -6 115 -34 133 -13 8 -98 13
-127 8z"/>
<path d="M6773 11022 c-48 -7 -68 -72 -35 -112 39 -48 132 -17 132 44 0 48
-41 76 -97 68z"/>
<path d="M7714 10973 c-27 -8 -57 -23 -66 -35 -39 -44 -11 -99 57 -115 55 -13
86 -3 112 36 27 39 29 68 8 98 -19 28 -52 32 -111 16z"/>
<path d="M6475 10633 c-35 -9 -54 -34 -72 -93 -16 -55 -17 -57 -33 -38 -23 29
-88 27 -112 -2 -39 -49 -8 -112 54 -112 45 0 57 7 72 42 l11 27 18 -23 c17
-23 17 -24 -2 -24 -26 0 -71 -65 -71 -102 0 -15 11 -39 24 -54 20 -24 31 -28
76 -28 44 0 56 4 72 24 24 30 18 90 -12 132 -25 35 -26 34 10 41 39 8 90 78
90 123 0 59 -63 102 -125 87z"/>
<path d="M7343 10372 c-49 -7 -69 -80 -35 -122 13 -16 29 -22 57 -22 45 0 75
28 75 71 0 53 -39 82 -97 73z"/>
<path d="M9103 10232 c-30 -4 -73 -57 -73 -88 0 -29 41 -74 67 -74 10 0 24
-14 33 -32 16 -35 49 -48 90 -38 46 11 77 110 49 161 -5 11 -33 30 -62 43 -65
30 -76 33 -104 28z"/>
<path d="M9423 10218 c-39 -10 -63 -42 -63 -84 0 -35 30 -80 60 -89 16 -5 18
-10 10 -25 -27 -51 5 -102 65 -102 69 0 99 69 52 116 -18 18 -22 28 -15 40 12
21 1 93 -17 122 -16 26 -49 33 -92 22z"/>
<path d="M6243 10192 c-48 -7 -68 -72 -35 -112 39 -48 132 -17 132 44 0 48
-41 76 -97 68z"/>
<path d="M6513 10032 c-48 -7 -68 -72 -35 -112 39 -48 132 -17 132 44 0 48
-41 76 -97 68z"/>
<path d="M6052 10003 c-34 -6 -63 -60 -60 -108 2 -35 0 -40 -20 -43 -34 -5
-52 -40 -52 -103 0 -92 24 -109 135 -95 78 10 96 42 70 121 -6 19 -2 21 32 22
75 2 112 95 58 148 -13 14 -32 25 -41 25 -10 0 -25 6 -33 14 -19 16 -58 24
-89 19z"/>
<path d="M7033 9863 c-42 -8 -53 -39 -53 -153 0 -127 9 -146 75 -156 24 -3 61
-12 81 -19 47 -16 85 -6 104 28 13 22 13 31 1 59 -18 44 -38 107 -45 138 -6
30 -80 94 -116 102 -14 2 -35 3 -47 1z"/>
<path d="M8223 9789 c-45 -13 -63 -44 -63 -107 0 -66 11 -87 56 -108 76 -36
143 -5 130 61 -4 16 -6 48 -6 71 1 69 -47 102 -117 83z"/>
<path d="M8543 9652 c-13 -2 -31 -14 -42 -28 -10 -13 -26 -24 -34 -24 -22 0
-47 -39 -47 -74 0 -28 51 -129 71 -142 29 -18 79 -5 124 32 56 47 63 72 40
138 -31 90 -51 107 -112 98z"/>
<path d="M7683 9573 c-33 -6 -53 -41 -53 -89 0 -66 31 -91 107 -86 26 2 73 66
73 99 0 49 -66 88 -127 76z"/>
<path d="M5633 9489 c-46 -13 -113 -79 -113 -111 0 -41 30 -70 72 -70 20 0 41
3 47 7 6 3 11 0 11 -8 0 -34 35 -60 80 -60 75 0 106 68 55 119 -14 14 -25 36
-25 49 0 30 -37 72 -70 78 -14 3 -40 1 -57 -4z"/>
<path d="M6153 9412 c-48 -7 -68 -72 -35 -112 39 -48 132 -17 132 44 0 48 -41
76 -97 68z"/>
<path d="M8134 9383 c-85 -24 -100 -61 -63 -155 27 -70 39 -81 90 -81 49 0 79
27 79 72 0 14 7 35 15 45 21 27 19 69 -5 98 -25 33 -55 38 -116 21z"/>
<path d="M7093 9302 c-49 -7 -69 -80 -35 -122 14 -17 29 -23 62 -23 33 0 48 6
62 23 47 58 -8 134 -89 122z"/>
<path d="M7833 9193 c-47 -9 -68 -77 -38 -120 15 -22 71 -39 110 -34 28 3 55
38 55 72 0 54 -63 95 -127 82z"/>
<path d="M7042 9132 c-12 -2 -30 -14 -38 -28 -33 -49 10 -164 61 -164 9 0 26
-12 39 -26 17 -21 31 -27 63 -27 22 0 46 4 53 8 16 10 50 91 50 118 0 37 -43
100 -72 108 -35 9 -126 16 -156 11z"/>
<path d="M9563 9003 c-32 -6 -83 -57 -83 -85 -1 -15 -12 -30 -33 -43 -68 -43
-58 -119 18 -141 22 -6 51 -8 65 -4 20 5 27 1 40 -24 18 -36 64 -51 127 -41
71 10 96 73 48 121 -15 15 -25 36 -25 54 0 16 -11 42 -25 58 -14 17 -25 37
-25 45 0 38 -55 69 -107 60z"/>
<path d="M7713 8993 c-28 -5 -53 -39 -53 -71 0 -26 41 -72 65 -72 9 0 24 -9
34 -21 36 -44 142 -12 157 47 4 14 2 36 -4 49 -19 41 -137 81 -199 68z"/>
<path d="M7392 8902 c-25 -4 -72 -66 -72 -97 0 -54 56 -83 124 -64 66 18 84
75 41 127 -25 30 -52 40 -93 34z"/>
<path d="M7513 8742 c-48 -7 -68 -72 -35 -112 39 -48 132 -17 132 44 0 48 -41
76 -97 68z"/>
<path d="M6532 8702 c-29 -4 -48 -35 -57 -92 -5 -33 -16 -53 -41 -76 -18 -17
-36 -43 -40 -59 -8 -34 11 -75 42 -89 21 -10 22 -37 8 -182 -5 -44 -2 -55 19
-80 23 -26 31 -28 87 -28 53 0 66 4 81 23 23 28 24 69 3 99 -13 19 -13 28 -3
57 15 41 1 81 -33 94 -20 7 -19 8 9 14 24 5 40 20 67 60 20 30 36 66 36 81 0
27 -39 76 -60 76 -5 0 -10 11 -10 24 0 50 -50 87 -108 78z"/>
<path d="M6113 8623 c-38 -7 -73 -59 -73 -107 0 -47 29 -96 57 -96 9 0 24 -7
34 -16 27 -24 89 -21 111 6 22 27 22 48 3 109 -27 81 -70 115 -132 104z"/>
<path d="M6773 8472 c-33 -5 -83 -56 -83 -85 0 -45 31 -70 85 -70 40 0 52 4
72 27 54 63 10 141 -74 128z"/>
<path d="M6013 8302 c-66 -10 -70 -118 -6 -143 35 -13 27 -17 -41 -23 -31 -3
-63 -9 -69 -14 -7 -5 -30 -9 -52 -9 -66 -2 -97 -63 -57 -113 14 -17 29 -23 61
-23 23 0 47 5 53 11 9 9 16 8 29 -4 19 -17 79 -22 101 -8 7 5 24 10 38 12 34
4 70 46 70 83 0 22 5 29 19 29 27 0 51 37 51 80 0 46 -33 100 -62 101 -41 3
-53 5 -70 12 -29 11 -42 13 -65 9z"/>
<path d="M7313 8293 c-26 -5 -63 -48 -63 -72 0 -9 -7 -34 -15 -56 -30 -84 -8
-128 65 -128 51 0 80 27 80 73 0 22 5 29 22 32 29 4 53 47 45 80 -14 56 -69
85 -134 71z"/>
<path d="M8732 8213 c-33 -6 -56 -46 -48 -85 4 -18 7 -51 6 -74 0 -27 10 -62
29 -100 21 -42 27 -64 20 -76 -28 -53 6 -110 66 -110 32 0 44 6 67 34 87 101
88 175 5 207 l-34 14 18 51 c24 63 24 88 2 115 -18 22 -81 33 -131 24z"/>
<path d="M5310 7786 c-86 -22 -180 -94 -180 -138 0 -35 26 -66 63 -73 17 -4
42 -16 54 -27 15 -14 36 -21 64 -21 56 0 99 44 99 101 0 20 7 46 15 56 20 26
19 59 -2 84 -24 26 -58 32 -113 18z"/>
<path d="M9493 7783 c-35 -6 -53 -41 -53 -99 0 -68 22 -96 75 -96 55 0 85 36
85 101 0 72 -39 106 -107 94z"/>
<path d="M9030 7770 c-55 -13 -77 -132 -36 -195 27 -41 123 -42 151 -1 24 34
18 95 -14 147 -30 48 -55 60 -101 49z"/>
<path d="M9803 7663 c-47 -9 -67 -69 -37 -111 9 -13 11 -22 5 -23 -52 -3 -111
0 -120 6 -7 4 -29 7 -49 7 -40 0 -72 -29 -72 -66 0 -35 19 -93 35 -106 18 -15
81 -16 99 -1 9 8 16 7 24 -1 7 -7 37 -12 67 -12 41 0 60 5 77 20 13 12 31 24
41 27 9 4 23 19 29 34 7 15 20 39 30 52 20 27 24 101 7 132 -15 30 -88 52
-136 42z"/>
<path d="M7060 7511 c-59 -16 -64 -97 -9 -130 17 -11 39 -33 50 -50 25 -42 90
-47 122 -9 22 26 23 105 1 136 -26 38 -116 67 -164 53z"/>
<path d="M8993 7509 c-62 -18 -81 -77 -40 -125 19 -21 32 -27 67 -27 35 0 48
6 67 27 59 69 -2 151 -94 125z"/>
<path d="M8970 7237 c-3 -3 -29 -8 -59 -11 -30 -4 -59 -10 -65 -15 -6 -4 -37
-16 -69 -25 -63 -20 -97 -53 -97 -95 0 -40 25 -67 73 -79 24 -6 54 -20 68 -30
36 -28 68 -33 127 -20 56 12 87 39 99 87 3 14 17 39 30 54 29 36 29 69 1 101
-21 23 -94 46 -108 33z"/>
<path d="M6913 7173 c-61 -11 -85 -116 -40 -169 20 -23 32 -27 77 -27 43 0 56
4 71 22 11 13 19 36 19 53 0 28 -32 102 -47 111 -15 8 -58 14 -80 10z"/>
<path d="M5482 6913 c-39 -8 -55 -46 -49 -118 6 -80 25 -111 77 -125 52 -14
101 -1 119 32 13 23 12 33 -7 99 -13 41 -30 81 -40 90 -19 19 -65 29 -100 22z"/>
<path d="M7743 6832 c-26 -4 -63 -47 -63 -73 0 -12 -7 -19 -19 -19 -11 0 -29
-12 -41 -27 -19 -24 -21 -36 -16 -86 9 -92 33 -119 104 -119 44 0 74 32 72 76
-4 60 -3 61 47 62 38 1 52 7 70 28 13 15 23 38 23 52 0 30 -41 74 -68 74 -11
0 -25 6 -31 14 -13 16 -45 23 -78 18z"/>
<path d="M9393 6833 c-49 -10 -68 -73 -34 -114 15 -19 28 -23 71 -23 43 0 56
4 71 23 52 64 -15 134 -108 114z"/>
<path d="M9673 6602 c-28 -4 -63 -47 -63 -77 0 -66 92 -93 137 -40 52 60 8
129 -74 117z"/>
<path d="M7943 6583 c-29 -6 -53 -40 -53 -76 0 -69 107 -108 153 -55 51 60
-15 146 -100 131z"/>
<path d="M9733 6432 c-48 -7 -68 -72 -35 -112 39 -48 132 -17 132 44 0 48 -41
76 -97 68z"/>
<path d="M9033 6382 c-12 -2 -36 -19 -53 -38 -29 -33 -30 -39 -30 -124 0 -78
3 -92 23 -114 13 -15 36 -27 57 -30 19 -2 49 -8 65 -13 77 -22 111 15 101 109
-5 47 -16 76 -49 131 -43 72 -65 87 -114 79z"/>
<path d="M7723 6262 c-48 -7 -68 -72 -35 -112 39 -48 132 -17 132 44 0 48 -41
76 -97 68z"/>
<path d="M5163 6252 c-28 -4 -63 -47 -63 -76 0 -28 35 -85 58 -93 9 -4 24 -16
33 -26 23 -29 97 -27 121 3 25 31 23 64 -7 97 -13 16 -36 42 -49 59 -26 32
-53 42 -93 36z"/>
<path d="M5582 6253 c-38 -7 -55 -45 -47 -103 10 -70 31 -93 85 -93 57 0 80
27 80 94 0 73 -47 114 -118 102z"/>
<path d="M5880 6101 c-31 -9 -68 -72 -76 -132 -8 -62 16 -92 74 -92 27 0 50 7
63 19 11 10 32 20 47 21 32 4 62 37 62 68 0 33 -54 101 -87 109 -15 4 -35 8
-43 10 -8 2 -26 1 -40 -3z"/>
<path d="M9792 6103 c-39 -7 -55 -45 -47 -112 12 -107 43 -133 150 -126 54 4
79 25 92 73 8 33 -16 76 -45 80 -12 2 -22 7 -22 11 0 4 -12 21 -27 38 -29 32
-60 43 -101 36z"/>
<path d="M6117 5957 c-65 -16 -97 -90 -58 -138 26 -33 115 -33 142 0 27 33 34
86 16 115 -19 28 -49 35 -100 23z"/>
<path d="M6183 5782 c-48 -7 -68 -72 -35 -112 39 -48 132 -17 132 44 0 48 -41
76 -97 68z"/>
<path d="M7972 5752 c-27 -4 -82 -76 -82 -107 0 -13 8 -33 19 -46 15 -19 28
-23 71 -23 45 0 56 4 76 28 59 68 6 161 -84 148z"/>
<path d="M8573 5672 c-49 -7 -69 -80 -35 -122 13 -16 29 -22 57 -22 45 0 75
28 75 71 0 53 -39 82 -97 73z"/>
<path d="M9023 5672 c-26 -4 -53 -37 -53 -65 0 -30 31 -115 47 -128 8 -7 35
-12 60 -12 36 0 50 5 65 22 24 31 25 121 1 149 -19 21 -84 40 -120 34z"/>
<path d="M10043 5662 c-48 -7 -68 -72 -35 -112 39 -48 132 -17 132 44 0 48
-41 76 -97 68z"/>
<path d="M5865 5513 c-11 -3 -24 -9 -29 -14 -6 -5 -18 -9 -28 -9 -28 0 -48
-41 -54 -111 -8 -83 11 -112 74 -112 51 0 69 14 82 64 13 46 26 49 55 13 28
-35 91 -37 117 -4 40 50 8 112 -57 112 -31 0 -46 6 -65 28 -26 29 -60 41 -95
33z"/>
<path d="M5052 5472 c-29 -4 -56 -45 -49 -75 29 -117 37 -129 91 -129 34 0 35
-1 21 -21 -36 -51 -3 -109 60 -109 28 0 44 6 57 22 39 49 8 112 -55 112 -35 0
-36 1 -22 21 23 32 19 98 -7 137 -24 34 -55 48 -96 42z"/>
<path d="M9313 5469 c-23 -7 -42 -25 -68 -63 -41 -62 -44 -95 -12 -131 27 -33
87 -37 118 -9 10 9 34 19 52 21 35 3 67 34 67 65 0 27 -37 96 -58 106 -31 16
-66 20 -99 11z"/>
<path d="M8065 5380 c-129 -39 -159 -105 -82 -184 40 -42 56 -50 104 -47 28 1
103 93 103 125 0 32 -53 102 -82 108 -12 2 -32 1 -43 -2z"/>
<path d="M9502 5313 c-27 -5 -62 -57 -62 -93 0 -85 124 -107 176 -31 28 42 30
71 7 99 -18 22 -77 33 -121 25z"/>
<path d="M6013 5292 c-13 -2 -32 -15 -44 -30 -21 -28 -22 -46 -1 -126 16 -59
32 -70 103 -70 52 0 65 4 80 23 30 37 23 71 -26 138 -45 60 -66 72 -112 65z"/>
<path d="M9542 5112 c-37 -6 -54 -42 -46 -102 9 -67 29 -92 76 -92 46 0 57 7
74 48 37 89 -14 161 -104 146z"/>
<path d="M7103 5103 c-30 -6 -63 -49 -63 -82 0 -93 112 -131 152 -51 42 83 -2
149 -89 133z"/>
<path d="M5010 5061 c-31 -9 -55 -50 -47 -82 4 -13 17 -37 30 -53 19 -24 31
-29 67 -29 35 0 48 6 67 27 32 38 29 72 -8 107 -17 16 -37 29 -44 29 -7 0 -19
2 -27 4 -7 2 -24 1 -38 -3z"/>
<path d="M9177 4885 c-65 -18 -72 -25 -98 -106 -21 -64 -22 -73 -9 -97 32 -55
122 -50 154 10 16 28 26 35 50 36 37 1 66 33 66 71 0 42 -34 87 -70 95 -38 7
-32 8 -93 -9z"/>
<path d="M7883 4882 c-49 -7 -69 -80 -35 -122 13 -16 29 -22 57 -22 45 0 75
28 75 71 0 53 -39 82 -97 73z"/>
<path d="M5993 4833 c-28 -5 -53 -39 -53 -73 0 -37 54 -117 82 -122 38 -7 72
6 87 34 13 22 13 32 -3 81 -10 31 -23 60 -29 65 -16 13 -57 20 -84 15z"/>
<path d="M9300 4650 c-13 -3 -33 -20 -43 -38 -15 -26 -17 -43 -12 -97 10 -93
26 -110 105 -109 56 0 65 3 86 28 29 33 30 65 6 97 -10 13 -24 38 -31 56 -22
53 -60 76 -111 63z"/>
<path d="M7030 4609 c-141 -40 -171 -52 -195 -81 -14 -16 -25 -40 -25 -52 0
-27 35 -76 55 -76 7 0 26 -11 42 -24 38 -32 81 -39 138 -25 49 12 79 45 91 99
3 14 12 37 20 52 41 76 -27 135 -126 107z"/>
<path d="M5533 4462 c-13 -2 -28 -11 -35 -21 -8 -11 -27 -18 -48 -19 -40 -1
-70 -30 -70 -68 0 -14 15 -41 33 -61 29 -31 40 -36 78 -36 25 0 54 5 66 11 27
15 73 93 73 124 0 50 -40 79 -97 70z"/>
<path d="M4833 4272 c-48 -7 -68 -72 -35 -112 39 -48 132 -17 132 44 0 48 -41
76 -97 68z"/>
<path d="M8900 4151 c-31 -9 -55 -50 -47 -82 4 -13 22 -41 40 -62 27 -33 38
-39 72 -39 91 0 119 124 37 165 -38 20 -73 26 -102 18z"/>
<path d="M9193 4152 c-48 -7 -68 -72 -35 -112 39 -48 132 -17 132 44 0 48 -41
76 -97 68z"/>
<path d="M8633 3849 c-66 -19 -82 -83 -33 -129 37 -35 68 -41 133 -26 39 9 55
18 66 38 41 73 -65 148 -166 117z"/>
<path d="M7142 3792 c-12 -2 -29 -13 -36 -25 -19 -30 -28 -124 -17 -171 14
-59 30 -70 107 -70 61 0 69 2 91 29 21 24 24 35 18 64 -4 20 -10 55 -14 79 -5
24 -17 52 -27 61 -21 21 -87 38 -122 33z"/>
<path d="M8022 3557 c-47 -13 -72 -38 -72 -73 0 -29 74 -117 105 -126 62 -16
109 24 120 103 6 39 3 50 -17 72 -28 32 -77 40 -136 24z"/>
<path d="M9863 3312 c-48 -7 -68 -72 -35 -112 39 -48 132 -17 132 44 0 48 -41
76 -97 68z"/>
<path d="M7203 3142 c-48 -7 -68 -72 -35 -112 39 -48 132 -17 132 44 0 48 -41
76 -97 68z"/>
<path d="M9420 3010 c-30 -10 -63 -19 -73 -19 -29 -1 -67 -47 -67 -79 0 -45
29 -74 74 -74 21 0 43 5 49 11 8 8 18 2 37 -21 25 -30 31 -32 90 -32 53 0 65
3 81 23 23 28 24 53 5 89 -8 15 -19 39 -24 54 -21 53 -95 74 -172 48z"/>
<path d="M5543 2972 c-45 -7 -67 -69 -38 -108 8 -10 15 -31 15 -45 0 -44 30
-72 77 -72 22 0 46 3 52 7 18 12 50 81 57 123 5 33 2 44 -18 67 -19 23 -33 28
-73 30 -28 1 -60 0 -72 -2z"/>
<path d="M5653 2732 c-48 -7 -68 -72 -35 -112 39 -48 132 -17 132 44 0 48 -41
76 -97 68z"/>
<path d="M5962 2593 c-28 -5 -62 -57 -62 -94 0 -35 33 -75 66 -82 38 -7 91 10
109 36 46 66 -26 155 -113 140z"/>
<path d="M5492 2333 c-31 -6 -50 -38 -57 -99 -6 -44 -4 -54 17 -79 20 -22 33
-28 68 -28 60 0 80 26 80 103 0 82 -36 116 -108 103z"/>
<path d="M9922 2185 c-70 -17 -92 -67 -52 -117 49 -64 180 -29 180 48 0 29
-34 71 -62 76 -13 2 -43 -1 -66 -7z"/>
<path d="M5950 2123 c-70 -10 -146 -26 -155 -33 -5 -4 -29 -11 -53 -15 -66
-11 -95 -76 -54 -123 24 -28 190 -66 256 -58 72 8 99 40 111 132 6 40 3 53
-12 71 -19 22 -53 32 -93 26z"/>
<path d="M9363 2023 c-49 -9 -68 -73 -35 -114 15 -18 29 -22 67 -22 38 0 52 4
67 22 49 62 -12 131 -99 114z"/>
</g>
</svg>
