<?xml version="1.0" standalone="no"?>
<!DOCTYPE svg PUBLIC "-//W3C//DTD SVG 20010904//EN"
 "http://www.w3.org/TR/2001/REC-SVG-20010904/DTD/svg10.dtd">
<svg version="1.0" xmlns="http://www.w3.org/2000/svg"
 width="1500.000000pt" height="2098.000000pt" viewBox="0 0 1500.000000 2098.000000"
 preserveAspectRatio="xMidYMid meet">
<metadata>
Created by potrace 1.16, written by Peter Selinger 2001-2019
</metadata>
<g transform="translate(0.000000,2098.000000) scale(0.100000,-0.100000)"
fill="none" stroke="grey" stroke-width="2">
<path d="M0 10490 l0 -10490 7500 0 7500 0 0 10490 0 10490 -7500 0 -7500 0 0
-10490z m9118 7864 c26 -14 54 -31 62 -38 8 -7 49 -32 90 -56 41 -24 95 -58
120 -76 42 -29 93 -60 265 -161 39 -23 101 -56 139 -73 37 -18 97 -54 133 -81
35 -27 79 -56 96 -65 18 -9 50 -29 72 -44 22 -15 106 -71 187 -125 156 -102
200 -147 288 -295 18 -30 43 -66 55 -80 40 -46 86 -142 101 -209 8 -36 24
-108 34 -159 11 -52 29 -128 41 -170 11 -42 24 -93 29 -112 4 -19 24 -87 44
-150 40 -126 86 -298 115 -430 10 -47 46 -204 80 -350 105 -449 109 -470 140
-645 34 -191 71 -378 131 -665 59 -281 95 -455 125 -615 24 -127 50 -252 120
-570 61 -276 149 -610 230 -870 19 -60 59 -198 89 -305 29 -107 81 -289 114
-405 79 -276 176 -629 217 -785 18 -69 61 -218 95 -330 34 -113 80 -266 101
-340 22 -74 46 -157 54 -185 38 -131 159 -565 227 -810 10 -38 48 -167 83
-285 35 -118 98 -354 140 -525 100 -405 191 -728 221 -788 23 -44 23 -49 9
-70 -8 -12 -15 -32 -15 -45 0 -39 -26 -88 -81 -148 -69 -77 -218 -206 -310
-269 -77 -53 -78 -53 -234 -135 -55 -28 -104 -55 -110 -59 -11 -9 -162 -48
-215 -56 -19 -3 -101 -7 -182 -10 -161 -5 -181 -10 -322 -87 -38 -21 -74 -38
-80 -38 -7 0 -21 -7 -32 -15 -10 -8 -25 -15 -33 -15 -7 0 -55 -20 -105 -43
-155 -74 -211 -94 -341 -122 -99 -22 -130 -37 -156 -78 -15 -24 -19 -44 -15
-77 9 -96 18 -206 18 -225 0 -11 4 -63 9 -117 6 -61 6 -112 0 -140 -5 -23 -15
-72 -21 -108 -6 -36 -16 -81 -22 -101 -8 -28 -5 -101 11 -300 11 -145 23 -318
26 -384 3 -66 14 -194 25 -285 11 -91 24 -228 29 -305 6 -77 16 -182 23 -232
9 -73 9 -100 0 -126 -7 -18 -12 -60 -12 -93 0 -32 -7 -79 -16 -103 -17 -51
-96 -147 -127 -157 -12 -3 -31 -14 -42 -24 -11 -10 -38 -28 -60 -40 -22 -11
-49 -26 -59 -33 -11 -7 -44 -27 -72 -44 -29 -18 -59 -33 -65 -33 -7 0 -20 -6
-28 -14 -29 -25 -121 -86 -129 -86 -5 0 -17 -9 -27 -20 -10 -11 -22 -20 -26
-20 -10 0 -137 -86 -165 -111 -11 -11 -27 -19 -36 -19 -8 0 -32 -11 -52 -25
-20 -14 -39 -25 -42 -25 -3 0 -20 -6 -37 -14 -103 -47 -177 -76 -192 -76 -10
0 -44 -7 -77 -16 -48 -12 -74 -13 -131 -5 -40 6 -94 13 -122 15 -70 8 -101 18
-170 60 -33 19 -71 41 -83 48 -54 28 -187 156 -229 220 -40 60 -91 147 -112
193 -29 60 -83 107 -123 107 -49 0 -83 -17 -108 -51 -12 -17 -26 -31 -31 -31
-22 0 -120 -53 -149 -80 -18 -17 -36 -30 -42 -30 -22 0 -69 -33 -82 -58 -8
-15 -40 -54 -71 -87 -31 -33 -71 -79 -88 -102 -18 -24 -43 -46 -57 -50 -14 -3
-39 -14 -57 -24 -25 -14 -46 -17 -109 -12 -70 4 -82 8 -119 39 -23 19 -46 34
-52 34 -25 0 -177 200 -229 302 -15 29 -45 76 -68 104 -22 29 -66 86 -96 129
-73 102 -101 122 -191 136 -89 14 -264 8 -281 -9 -7 -7 -20 -12 -29 -12 -25 0
-49 -38 -49 -78 0 -19 -9 -45 -20 -59 -12 -16 -20 -41 -20 -67 -1 -40 -8 -78
-29 -161 -5 -22 -13 -65 -16 -96 -6 -52 -11 -61 -65 -116 -32 -32 -70 -64 -83
-70 -14 -7 -46 -28 -72 -47 -26 -20 -52 -36 -59 -36 -8 0 -49 -12 -92 -26 -44
-14 -93 -28 -111 -30 -17 -2 -44 -9 -60 -16 -15 -6 -36 -10 -46 -9 -10 1 -48
-7 -85 -18 -67 -20 -112 -26 -272 -36 -96 -7 -137 -13 -163 -27 -10 -5 -48
-10 -85 -11 -37 -2 -74 -7 -82 -12 -8 -5 -71 -10 -140 -11 -69 -1 -142 -6
-162 -12 -28 -7 -46 -7 -75 4 -21 7 -58 13 -83 14 -57 0 -134 21 -180 48 -19
11 -45 23 -58 27 -29 8 -162 141 -238 237 -65 82 -166 190 -384 414 -114 117
-154 165 -174 210 -15 33 -37 78 -49 102 -19 37 -22 59 -21 155 0 62 5 166 12
232 6 66 18 197 26 290 9 94 20 199 25 235 5 36 15 133 21 215 6 83 18 200 27
260 9 61 17 172 19 248 2 84 11 179 24 243 11 58 20 128 20 156 0 45 -4 54
-37 85 -21 20 -54 42 -73 50 -19 8 -49 26 -67 39 -17 13 -36 24 -41 24 -4 0
-29 19 -53 42 -25 24 -65 53 -89 65 -25 12 -61 37 -81 55 -20 18 -49 40 -64
48 -16 8 -38 24 -50 35 -12 11 -34 28 -51 37 -52 31 -68 42 -110 78 -36 30
-81 61 -152 105 -9 6 -41 26 -72 45 -30 19 -77 46 -105 60 -27 15 -95 51 -150
80 -139 74 -502 257 -610 308 -49 23 -112 55 -140 71 -27 16 -97 54 -155 84
-201 103 -214 114 -207 172 3 22 10 78 17 125 15 117 81 358 200 729 55 172
125 399 155 505 29 105 68 236 85 291 96 307 166 535 200 655 21 74 48 164 59
200 11 36 56 189 100 340 43 151 92 318 109 370 145 470 241 805 353 1230 11
41 40 174 65 295 52 256 89 430 108 500 7 28 21 86 31 130 10 44 37 161 60
260 24 99 66 281 95 405 29 124 83 353 121 510 69 290 99 418 145 615 14 61
37 157 51 215 14 58 32 145 39 193 8 49 28 143 45 210 17 67 34 140 39 162 4
22 19 85 34 140 38 146 47 183 61 250 7 33 20 94 30 135 10 41 21 93 25 115
10 56 67 304 90 395 10 41 29 116 41 165 57 238 131 437 184 495 12 14 44 63
70 110 26 47 61 107 77 134 16 27 35 67 43 88 25 74 80 150 151 210 76 64 240
178 256 178 6 0 47 17 91 39 45 21 116 53 156 72 41 19 104 49 140 67 37 19
113 54 171 79 58 25 110 49 115 53 6 4 57 28 115 53 58 24 132 58 165 75 62
32 82 36 151 34 35 -2 60 -16 160 -88 206 -148 290 -183 634 -259 63 -14 147
-30 185 -35 39 -6 106 -15 149 -21 91 -13 457 -6 606 11 52 6 111 12 130 15
70 7 263 46 328 67 37 11 114 33 172 48 148 39 219 66 289 108 64 39 190 135
251 189 43 40 76 42 138 7z"/>
</g>
</svg>
