<?xml version="1.0" standalone="no"?>
<!DOCTYPE svg PUBLIC "-//W3C//DTD SVG 20010904//EN"
 "http://www.w3.org/TR/2001/REC-SVG-20010904/DTD/svg10.dtd">
<svg version="1.0" xmlns="http://www.w3.org/2000/svg"
 width="1500.000000pt" height="2098.000000pt" viewBox="0 0 1500.000000 2098.000000"
 preserveAspectRatio="xMidYMid meet">
<metadata>
Created by potrace 1.16, written by Peter Selinger 2001-2019
</metadata>
<g transform="translate(0.000000,2098.000000) scale(0.100000,-0.100000)"
fill="none" stroke="grey" stroke-width="2">
<path d="M0 10490 l0 -10490 7500 0 7500 0 0 10490 0 10490 -7500 0 -7500 0 0
-10490z m8704 7760 c57 -39 123 -77 146 -85 23 -8 54 -24 69 -35 16 -11 44
-22 62 -24 46 -6 119 -33 140 -51 9 -9 34 -17 55 -20 43 -4 127 -30 424 -129
183 -61 197 -68 231 -106 27 -31 43 -41 67 -42 34 -1 49 -14 184 -157 184
-196 508 -682 508 -762 0 -41 24 -79 49 -79 19 0 51 -58 51 -93 0 -28 26 -67
45 -67 8 0 31 -30 51 -67 63 -114 184 -304 243 -382 96 -127 101 -135 101
-161 0 -31 17 -56 49 -73 24 -13 43 -43 57 -92 5 -16 19 -34 31 -39 24 -11 53
-56 53 -83 0 -26 28 -63 48 -63 10 0 32 -27 56 -68 22 -37 52 -84 68 -105 l30
-37 -31 -35 c-17 -20 -31 -45 -31 -57 0 -46 -62 -113 -190 -206 -116 -84 -201
-142 -209 -142 -4 0 -28 -16 -52 -35 -47 -36 -102 -68 -179 -105 -25 -12 -52
-25 -60 -30 -8 -5 -31 -17 -50 -27 -19 -9 -63 -34 -98 -55 -34 -21 -65 -38
-68 -38 -2 0 -17 -9 -32 -19 -15 -10 -83 -54 -152 -96 -214 -133 -347 -242
-385 -316 -9 -16 -22 -68 -31 -116 -8 -49 -23 -119 -33 -158 -10 -38 -22 -104
-25 -145 -17 -196 -48 -410 -68 -464 -18 -48 -19 -63 -10 -90 8 -22 8 -60 2
-131 -9 -93 -9 -102 10 -127 25 -35 27 -123 3 -173 -20 -42 -10 -85 24 -99 18
-9 23 -24 33 -105 12 -100 50 -369 75 -529 8 -51 15 -121 15 -155 0 -34 5 -78
10 -98 6 -20 12 -121 13 -226 2 -104 7 -195 11 -201 11 -18 66 -361 66 -413 0
-25 7 -68 15 -95 8 -27 15 -77 15 -112 0 -35 5 -72 11 -84 6 -11 11 -45 11
-76 -1 -32 6 -77 13 -102 16 -52 95 -680 100 -790 1 -41 7 -93 14 -115 6 -22
11 -73 11 -113 0 -40 4 -81 9 -90 13 -25 81 -668 101 -957 6 -88 15 -189 21
-225 6 -36 12 -99 14 -140 1 -41 12 -163 23 -270 38 -355 52 -515 46 -537 -3
-12 1 -43 10 -70 9 -26 18 -84 20 -128 3 -44 11 -132 20 -195 79 -603 106
-840 101 -876 -4 -27 0 -55 9 -80 9 -22 18 -75 20 -119 3 -44 10 -109 16 -145
6 -36 28 -205 48 -375 27 -227 35 -318 28 -338 -8 -22 -6 -36 8 -62 13 -23 20
-60 22 -107 1 -40 7 -91 13 -113 6 -22 8 -59 5 -82 -4 -28 -1 -56 9 -82 10
-25 22 -116 32 -248 9 -114 20 -246 25 -293 5 -47 9 -110 9 -140 0 -30 -1 -71
-1 -90 0 -19 4 -62 9 -95 5 -38 5 -70 -1 -88 -8 -19 -7 -36 2 -60 7 -17 22
-142 33 -277 10 -135 24 -281 30 -325 5 -44 14 -163 20 -265 9 -175 18 -277
34 -381 7 -44 6 -46 -25 -59 -38 -16 -56 -42 -65 -93 -8 -41 -76 -116 -130
-144 -16 -9 -43 -25 -60 -37 -62 -44 -175 -100 -380 -192 -77 -34 -349 -107
-443 -119 -17 -2 -50 -9 -74 -15 -76 -21 -243 -26 -613 -19 -194 4 -308 -11
-400 -51 -11 -5 -31 -12 -45 -15 -64 -17 -291 -114 -340 -145 -8 -6 -25 -14
-37 -19 -11 -6 -24 -15 -28 -20 -3 -6 -14 -11 -24 -11 -9 0 -37 -13 -62 -28
-24 -16 -65 -37 -91 -47 -26 -9 -53 -24 -59 -31 -6 -8 -18 -14 -27 -14 -9 0
-34 -9 -56 -19 -86 -41 -196 -63 -311 -63 -164 0 -305 8 -350 20 -54 15 -112
22 -225 28 -169 10 -332 11 -369 3 -20 -4 -63 -9 -96 -12 -60 -5 -80 -8 -291
-47 -183 -35 -246 -38 -432 -27 -95 6 -148 19 -192 47 -14 9 -43 22 -65 29
-38 13 -107 75 -143 130 -27 40 -61 153 -62 202 0 25 -4 59 -9 75 -5 16 -14
63 -21 104 -20 120 -29 148 -60 184 -56 63 -225 88 -338 50 -78 -27 -192 -85
-235 -121 -16 -12 -33 -23 -38 -23 -5 0 -30 -15 -56 -34 -101 -71 -137 -83
-280 -89 -64 -4 -77 -1 -135 29 -34 18 -78 40 -97 48 -41 20 -109 80 -136 120
-11 17 -42 69 -70 115 -28 46 -59 89 -70 95 -11 6 -22 12 -24 13 -2 1 6 20 18
43 11 22 21 48 21 56 0 9 9 27 19 40 15 19 19 42 20 111 0 49 7 169 15 268 8
99 33 419 56 710 41 528 42 530 71 589 34 69 36 94 9 129 -17 22 -19 35 -14
104 4 43 16 99 26 125 15 34 18 56 12 75 -13 45 -6 182 31 648 36 449 47 560
92 885 39 283 44 313 53 330 5 9 14 95 20 191 15 248 28 393 56 644 38 342 49
410 74 450 17 28 20 43 15 68 -5 18 -8 63 -7 101 0 57 6 79 31 128 35 67 37
80 15 116 -14 25 -12 55 26 397 50 454 84 769 106 980 10 103 23 176 35 204
22 50 24 74 8 103 -17 32 5 170 36 222 30 51 31 75 7 107 -22 27 -27 -38 54
684 59 538 95 809 148 1131 24 148 60 409 81 579 20 171 43 332 52 358 21 64
21 252 0 379 -12 77 -13 104 -4 128 10 26 9 36 -7 63 -10 18 -29 96 -42 177
-21 125 -114 482 -159 610 -8 24 -15 57 -15 74 0 18 -9 50 -21 71 -30 59 -59
137 -59 161 0 12 -12 39 -26 60 -15 21 -39 75 -54 119 -30 89 -54 141 -78 168
-14 15 -14 28 2 125 9 59 23 128 31 153 7 26 16 112 20 193 7 130 6 148 -10
172 -16 24 -17 45 -11 198 10 231 10 225 -2 277 -6 25 -16 95 -22 155 -23 226
-65 388 -125 479 -18 28 -42 68 -54 90 -55 102 -85 152 -116 189 -31 38 -89
133 -123 201 -21 42 -81 133 -92 140 -6 3 -10 16 -10 29 0 17 36 54 135 142
120 105 212 171 512 367 32 21 86 57 120 80 34 23 83 54 110 69 26 15 84 50
128 77 44 28 91 53 105 56 14 4 36 17 51 31 16 15 46 28 85 35 46 8 76 23 138
67 43 32 99 80 123 109 31 36 59 57 91 69 26 10 61 28 78 41 46 34 140 73 178
73 22 0 46 -10 71 -30 21 -16 38 -30 39 -31 8 -4 256 -21 301 -20 33 1 123 -4
200 -10 195 -14 494 -30 590 -30 103 -1 379 17 473 31 40 5 186 19 325 30 265
22 272 23 326 47 44 20 110 30 198 32 l72 1 105 -70z"/>
</g>
</svg>
