<?xml version="1.0" standalone="no"?>
<!DOCTYPE svg PUBLIC "-//W3C//DTD SVG 20010904//EN"
 "http://www.w3.org/TR/2001/REC-SVG-20010904/DTD/svg10.dtd">
<svg version="1.0" xmlns="http://www.w3.org/2000/svg"
 width="1500.000000pt" height="2098.000000pt" viewBox="0 0 1500.000000 2098.000000"
 preserveAspectRatio="xMidYMid meet">
<metadata>
Created by potrace 1.16, written by Peter Selinger 2001-2019
</metadata>
<g transform="translate(0.000000,2098.000000) scale(0.100000,-0.100000)"
fill="none" stroke="grey" stroke-width="2">
<path d="M0 10490 l0 -10490 7500 0 7500 0 0 10490 0 10490 -7500 0 -7500 0 0
-10490z m8962 7793 c17 -16 45 -26 98 -33 42 -6 103 -24 139 -40 35 -17 69
-30 76 -30 7 0 18 -6 24 -14 6 -7 25 -16 43 -20 17 -3 60 -20 97 -37 36 -17
75 -35 86 -39 96 -36 227 -96 236 -107 6 -7 18 -13 26 -13 17 0 247 -119 308
-159 22 -15 68 -63 102 -106 35 -44 77 -98 94 -120 34 -43 57 -90 112 -225 53
-131 117 -343 117 -389 0 -10 9 -29 19 -42 11 -13 77 -197 147 -409 69 -212
132 -398 140 -415 55 -128 183 -479 299 -820 35 -104 82 -237 103 -295 86
-228 132 -347 150 -385 10 -22 27 -65 37 -95 10 -30 29 -82 43 -115 14 -33 29
-73 33 -90 9 -35 57 -170 122 -340 24 -66 55 -154 67 -195 12 -41 35 -118 51
-170 16 -52 33 -113 39 -135 5 -22 26 -92 46 -155 20 -63 45 -144 55 -180 10
-36 32 -112 48 -170 17 -58 31 -113 31 -123 0 -11 7 -31 15 -45 7 -15 30 -79
49 -142 72 -240 116 -390 156 -530 23 -80 46 -158 52 -175 5 -16 19 -68 30
-115 10 -47 32 -139 48 -205 16 -66 31 -133 33 -150 8 -48 69 -291 121 -480
48 -172 58 -240 45 -309 -10 -61 -10 -65 19 -117 49 -89 49 -91 -7 -161 -58
-73 -279 -278 -319 -295 -15 -6 -36 -21 -46 -32 -11 -12 -24 -21 -31 -21 -6 0
-21 -10 -32 -22 -11 -13 -46 -45 -79 -73 -119 -101 -159 -143 -256 -258 -54
-65 -101 -124 -105 -130 -15 -24 -151 -109 -186 -117 -79 -17 -162 1 -284 62
-86 44 -139 90 -277 240 -43 48 -103 106 -132 130 -136 107 -354 459 -424 683
-7 22 -21 56 -31 75 -11 19 -19 42 -19 51 0 9 -9 28 -20 42 -11 14 -20 35 -20
46 0 12 -11 43 -24 69 -30 59 -70 186 -86 273 -20 109 -50 142 -118 130 -13
-2 -30 -15 -39 -28 -15 -22 -15 -35 -4 -121 13 -94 21 -135 43 -197 120 -342
189 -581 217 -750 13 -80 35 -171 64 -275 45 -154 101 -388 117 -485 5 -27 15
-70 23 -95 8 -25 27 -97 41 -160 15 -63 34 -140 41 -170 15 -59 43 -207 70
-360 9 -52 26 -142 37 -200 11 -58 24 -130 29 -160 4 -30 15 -84 25 -120 9
-36 27 -108 40 -160 12 -52 37 -149 54 -215 17 -66 42 -165 56 -220 13 -55 28
-113 33 -130 20 -68 71 -291 71 -310 0 -9 7 -29 15 -46 9 -16 29 -77 45 -137
16 -59 35 -127 43 -152 8 -25 20 -72 27 -105 7 -33 18 -78 26 -100 29 -83 26
-89 -100 -178 -23 -16 -38 -108 -29 -187 6 -61 -13 -135 -47 -178 -19 -24 -20
-38 -16 -296 2 -216 6 -278 18 -301 37 -72 59 -157 52 -201 -6 -41 -8 -43 -63
-65 -31 -12 -64 -29 -75 -38 -24 -21 -46 -64 -46 -91 0 -11 -8 -33 -19 -48
-10 -15 -25 -39 -34 -53 -11 -18 -27 -28 -54 -32 -22 -4 -55 -14 -74 -24 -48
-24 -192 -26 -256 -3 -85 30 -97 37 -162 98 -35 33 -74 62 -86 65 -38 7 -106
-23 -161 -69 -28 -24 -54 -44 -58 -44 -16 0 -76 -53 -82 -73 -4 -12 -14 -33
-24 -47 -9 -14 -30 -45 -46 -69 -39 -59 -107 -125 -152 -146 -20 -10 -45 -22
-54 -26 -10 -5 -22 -9 -27 -9 -5 0 -22 -5 -38 -12 -75 -31 -354 -77 -478 -79
-75 -1 -176 19 -222 44 -15 9 -54 28 -85 42 -31 15 -62 33 -69 41 -6 8 -19 14
-28 15 -30 1 -143 130 -185 214 -34 66 -53 89 -113 138 -85 69 -138 87 -267
87 -140 0 -172 -11 -481 -168 -38 -19 -81 -43 -94 -54 -13 -10 -29 -18 -37
-18 -16 0 -78 -71 -109 -125 -12 -22 -26 -60 -29 -85 -7 -41 -13 -50 -85 -107
-43 -35 -85 -63 -93 -63 -8 0 -23 -9 -33 -20 -10 -11 -26 -20 -36 -20 -10 0
-20 -4 -23 -9 -3 -4 -27 -14 -53 -21 -27 -7 -61 -21 -78 -30 -39 -23 -94 -31
-235 -37 -200 -8 -360 -1 -460 21 -36 7 -68 12 -72 10 -15 -10 -199 40 -233
63 -11 7 -27 13 -36 13 -10 0 -37 15 -61 32 -24 18 -56 40 -73 48 -16 8 -40
22 -51 33 -12 10 -37 19 -55 21 -19 1 -45 8 -59 14 -88 41 -239 44 -325 6 -22
-10 -53 -19 -68 -21 -15 -2 -38 -8 -50 -14 -39 -21 -176 -45 -247 -42 -77 2
-229 28 -258 43 -37 20 -126 102 -158 146 -31 43 -74 163 -75 209 -1 89 -31
200 -62 234 -61 65 -61 102 0 238 13 28 23 64 23 80 0 57 32 209 51 247 13 25
19 50 15 67 -3 15 2 52 11 81 8 29 19 76 23 103 5 28 14 68 20 90 7 22 17 79
22 127 14 117 7 128 -98 152 -44 10 -83 22 -89 26 -20 16 -151 67 -200 78 -27
7 -71 22 -98 35 -37 17 -49 29 -57 56 -5 19 -21 46 -34 60 -26 27 -26 27 -10
81 9 30 22 75 29 100 7 25 17 72 21 105 4 33 16 80 27 105 33 77 59 143 67
180 5 19 25 98 45 175 20 77 47 192 60 255 13 63 34 147 45 185 12 39 25 88
30 110 5 22 18 74 30 115 12 41 26 98 31 125 6 28 19 80 30 117 24 84 125 476
150 586 10 46 23 100 29 120 6 20 18 64 26 97 8 33 25 98 38 145 13 47 34 128
47 180 12 52 26 103 31 113 5 10 13 44 18 75 6 31 21 98 35 147 31 112 127
463 166 610 16 61 35 128 43 150 21 57 73 276 92 385 8 51 29 138 45 194 50
172 48 255 -5 305 -24 23 -81 31 -106 16 -22 -13 -130 -302 -130 -346 0 -14
-7 -32 -15 -39 -8 -7 -20 -31 -27 -54 -6 -22 -19 -50 -28 -61 -10 -11 -36 -65
-59 -120 -23 -55 -46 -107 -51 -115 -5 -8 -19 -32 -30 -52 -11 -20 -33 -56
-49 -80 -16 -24 -36 -61 -45 -83 -9 -22 -25 -49 -35 -60 -11 -11 -44 -68 -75
-127 -69 -133 -153 -245 -271 -363 -140 -139 -301 -224 -497 -262 -57 -11 -94
14 -251 173 -83 85 -161 157 -172 160 -17 6 -75 39 -141 82 -10 6 -29 16 -41
21 -11 6 -24 14 -27 20 -7 11 -93 71 -102 71 -3 0 -27 14 -52 32 -93 63 -101
68 -110 68 -4 0 -18 14 -30 30 -13 17 -27 30 -31 30 -5 0 -32 23 -59 50 l-50
51 11 62 c6 34 10 133 8 222 -3 162 9 309 35 445 7 41 18 98 24 125 5 28 14
79 19 115 9 60 24 131 95 445 14 61 32 144 41 185 9 41 23 95 30 120 8 25 21
74 31 110 9 36 22 85 30 110 23 74 41 141 60 220 10 41 32 120 50 175 17 55
35 116 39 135 7 36 46 172 64 225 13 38 40 123 136 420 43 132 85 263 95 290
10 28 34 102 55 165 20 63 45 136 54 161 10 25 21 59 24 76 3 17 26 86 50 154
24 68 60 178 81 244 21 66 48 145 61 175 13 30 26 71 30 90 7 42 63 197 82
225 7 11 13 29 13 40 0 25 58 193 77 220 7 11 13 28 13 39 0 11 13 56 29 100
17 45 43 119 59 166 95 275 126 360 147 405 13 28 28 70 35 95 6 25 31 95 55
155 91 233 155 394 194 490 55 137 113 285 176 445 28 74 62 155 75 180 20 40
98 148 147 205 18 21 336 268 437 340 76 54 293 166 331 172 16 2 39 14 50 26
29 32 206 126 252 133 44 7 69 19 99 46 21 19 23 19 180 -3 87 -12 206 -23
264 -24 92 -2 156 -8 340 -31 116 -14 805 -21 960 -10 47 4 114 8 150 10 58 3
359 30 635 56 55 6 132 12 170 16 39 3 97 9 130 14 33 4 92 8 132 7 59 -2 76
-6 95 -24z"/>
</g>
</svg>
