<?xml version="1.0" standalone="no"?>
<!DOCTYPE svg PUBLIC "-//W3C//DTD SVG 20010904//EN"
 "http://www.w3.org/TR/2001/REC-SVG-20010904/DTD/svg10.dtd">
<svg version="1.0" xmlns="http://www.w3.org/2000/svg"
 width="1500.000000pt" height="2098.000000pt" viewBox="0 0 1500.000000 2098.000000"
 preserveAspectRatio="xMidYMid meet">
<metadata>
Created by potrace 1.16, written by Peter Selinger 2001-2019
</metadata>
<g transform="translate(0.000000,2098.000000) scale(0.100000,-0.100000)"
fill="none" stroke="grey" stroke-width="2">
<path d="M0 10490 l0 -10490 7500 0 7500 0 0 10490 0 10490 -7500 0 -7500 0 0
-10490z m8067 7811 c18 -5 80 -49 139 -97 140 -115 481 -440 500 -475 8 -16
35 -40 62 -55 26 -15 58 -37 72 -50 14 -12 54 -37 90 -55 36 -17 112 -59 170
-92 58 -34 184 -100 280 -148 96 -47 193 -99 215 -114 22 -15 63 -37 90 -50
74 -33 163 -107 208 -173 57 -83 133 -246 156 -332 11 -41 27 -118 35 -170 27
-171 95 -534 111 -585 25 -82 95 -393 95 -423 0 -15 7 -59 15 -97 36 -162 54
-255 65 -335 7 -47 18 -116 26 -155 16 -75 65 -375 81 -490 14 -99 79 -481
103 -600 10 -55 31 -165 45 -245 26 -147 31 -174 83 -430 17 -80 36 -179 43
-220 7 -41 16 -85 21 -98 20 -57 139 -728 163 -922 14 -118 43 -334 65 -480
21 -146 41 -308 45 -360 6 -92 16 -178 55 -475 10 -77 29 -185 43 -240 13 -55
43 -201 67 -325 41 -222 59 -303 86 -389 12 -37 12 -46 -1 -64 -19 -27 -19
-56 1 -116 12 -39 13 -56 5 -87 -17 -59 -100 -173 -146 -200 -49 -29 -82 -44
-99 -44 -6 0 -16 -4 -21 -9 -28 -28 -283 -33 -510 -11 -193 19 -208 28 -275
175 -23 49 -47 97 -55 105 -7 8 -20 48 -28 88 -9 40 -22 83 -29 95 -8 12 -20
41 -26 63 -15 52 -32 66 -79 66 -27 0 -42 -6 -56 -23 -17 -21 -19 -34 -12
-104 4 -44 9 -242 11 -440 2 -198 6 -389 8 -425 3 -36 7 -270 10 -520 4 -495
14 -775 28 -802 7 -16 11 -91 23 -548 1 -69 9 -246 17 -395 8 -148 16 -290 16
-315 1 -25 6 -83 11 -130 10 -86 33 -478 31 -537 0 -18 4 -61 10 -97 6 -35 12
-134 15 -218 6 -238 14 -420 25 -583 30 -452 44 -1790 27 -2545 -8 -339 -10
-359 -42 -438 -39 -97 -62 -127 -116 -157 -45 -24 -62 -27 -131 -27 -60 1 -89
7 -121 23 -82 42 -92 47 -123 53 -43 10 -118 -11 -145 -40 -12 -13 -30 -24
-40 -24 -10 0 -20 -4 -23 -9 -17 -26 -170 -86 -276 -107 -189 -38 -249 -39
-364 -10 -54 14 -105 31 -113 37 -8 7 -41 26 -73 43 -58 31 -160 118 -160 137
0 44 -88 139 -129 139 -8 0 -23 7 -33 16 -24 23 -93 22 -118 -1 -23 -21 -41
-77 -39 -126 1 -72 -14 -104 -72 -155 -54 -47 -103 -68 -204 -89 -48 -10 -213
-7 -273 6 -145 30 -255 114 -288 223 -36 120 -56 203 -55 232 2 38 -36 96 -69
105 -70 19 -240 1 -274 -29 -39 -36 -49 -72 -52 -206 -2 -89 -9 -143 -20 -175
-18 -49 -55 -94 -91 -114 -86 -47 -139 -69 -213 -89 -75 -20 -106 -22 -260
-21 -96 1 -209 7 -250 12 -132 18 -370 43 -454 47 -44 2 -96 9 -116 14 -19 5
-58 10 -86 10 -85 0 -178 20 -259 55 -184 81 -226 112 -245 185 -6 25 -18 56
-27 68 -15 24 -15 128 11 2037 2 188 9 310 19 370 10 59 17 196 21 400 3 171
11 398 16 505 6 107 22 407 35 665 27 515 40 739 55 945 6 74 15 299 20 500 6
201 15 484 20 630 5 146 14 434 20 640 6 206 17 535 25 730 20 463 20 512 -3
540 -12 15 -29 22 -54 22 -49 0 -56 -5 -87 -71 -14 -31 -36 -70 -48 -86 -11
-17 -35 -67 -52 -111 -41 -107 -78 -157 -125 -171 -34 -10 -248 -3 -311 11
-145 33 -212 45 -275 51 -42 4 -93 16 -115 28 -59 30 -175 118 -218 165 -33
38 -37 46 -31 81 5 33 2 43 -23 71 -28 31 -29 36 -21 79 5 25 13 66 18 91 4
25 24 119 43 210 52 248 95 487 102 565 4 39 15 108 25 155 10 47 26 159 35
250 25 259 114 877 205 1421 128 769 376 2158 485 2719 66 339 136 732 226
1263 50 298 66 367 95 398 8 9 31 59 50 109 39 106 59 141 126 222 64 77 163
150 275 204 438 210 833 425 833 452 0 13 290 298 337 331 22 16 49 42 60 57
31 46 185 208 210 222 20 11 80 11 331 1 316 -12 631 -5 842 19 8 1 30 -2 47
-7z"/>
</g>
</svg>
