<?xml version="1.0" standalone="no"?>
<!DOCTYPE svg PUBLIC "-//W3C//DTD SVG 20010904//EN"
 "http://www.w3.org/TR/2001/REC-SVG-20010904/DTD/svg10.dtd">
<svg version="1.0" xmlns="http://www.w3.org/2000/svg"
 width="1500.000000pt" height="2098.000000pt" viewBox="0 0 1500.000000 2098.000000"
 preserveAspectRatio="xMidYMid meet">
<metadata>
Created by potrace 1.16, written by Peter Selinger 2001-2019
</metadata>
<g transform="translate(0.000000,2098.000000) scale(0.100000,-0.100000)"
fill="none" stroke="grey" stroke-width="2">
<path d="M0 10490 l0 -10490 7500 0 7500 0 0 10490 0 10490 -7500 0 -7500 0 0
-10490z m6900 7814 c137 -9 166 -12 185 -20 27 -12 155 -11 180 1 11 5 76 10
145 12 69 1 134 3 145 3 11 1 65 1 120 0 328 -2 445 -2 600 0 136 2 215 -11
252 -40 14 -11 31 -20 39 -20 7 0 25 -6 41 -14 15 -8 41 -20 57 -27 15 -8 33
-25 38 -39 5 -14 16 -32 24 -42 12 -12 13 -21 5 -37 -20 -36 -12 -91 20 -147
29 -51 83 -104 106 -104 18 0 63 -67 63 -93 0 -41 30 -68 80 -72 40 -3 48 -8
85 -56 32 -40 52 -55 86 -66 30 -9 50 -23 64 -45 25 -40 62 -66 98 -71 32 -4
50 -19 95 -80 27 -37 41 -47 75 -53 23 -4 45 -7 50 -6 4 1 7 -9 7 -22 0 -40
30 -65 84 -71 33 -4 54 -12 63 -25 8 -11 22 -20 31 -20 9 0 24 -13 33 -28 20
-35 79 -64 134 -66 23 0 48 -6 56 -11 30 -22 78 -45 92 -45 8 0 21 -7 28 -16
7 -9 22 -20 34 -25 11 -5 27 -13 35 -18 8 -5 35 -18 60 -29 47 -21 131 -108
144 -150 4 -12 19 -36 33 -53 35 -41 83 -144 83 -178 0 -14 7 -36 15 -48 13
-18 24 -53 55 -168 4 -16 12 -41 17 -55 6 -14 13 -47 17 -75 7 -52 29 -134 51
-196 8 -20 17 -65 21 -100 3 -35 15 -90 25 -121 11 -32 19 -75 19 -97 0 -23 6
-58 14 -78 7 -21 21 -65 31 -98 9 -33 21 -73 27 -90 5 -16 14 -59 18 -95 4
-36 13 -83 20 -105 6 -22 15 -53 20 -70 4 -16 18 -68 30 -115 11 -47 28 -105
37 -130 8 -25 19 -67 24 -95 5 -27 13 -68 18 -90 6 -22 17 -71 25 -110 14 -63
50 -204 77 -295 6 -19 14 -61 19 -92 10 -70 28 -151 45 -203 8 -22 19 -71 25
-110 6 -38 16 -86 21 -106 5 -20 9 -48 9 -63 0 -15 4 -35 10 -45 5 -10 16 -56
24 -102 8 -46 22 -111 30 -144 9 -33 16 -79 16 -102 0 -23 8 -61 19 -85 10
-25 24 -71 31 -104 11 -52 32 -123 85 -294 7 -25 17 -67 21 -95 4 -27 14 -68
22 -90 8 -22 18 -62 22 -90 5 -27 13 -66 18 -85 5 -19 17 -62 27 -95 9 -33 25
-99 34 -146 10 -48 22 -92 26 -99 9 -14 27 -96 51 -225 21 -110 31 -161 44
-220 6 -27 15 -77 20 -110 4 -33 14 -78 20 -100 7 -22 16 -69 20 -105 9 -69
16 -100 61 -250 16 -52 31 -124 35 -160 3 -36 12 -83 19 -105 7 -22 18 -56 24
-76 6 -20 16 -65 21 -100 11 -73 22 -134 44 -234 23 -109 45 -215 57 -275 6
-30 14 -71 19 -90 5 -19 13 -60 18 -90 6 -30 20 -93 31 -140 11 -47 21 -102
21 -123 0 -21 5 -48 11 -59 6 -12 15 -48 20 -82 12 -82 34 -204 53 -296 22
-109 23 -113 41 -250 9 -69 21 -140 27 -158 11 -37 23 -105 38 -226 6 -43 13
-83 16 -88 3 -5 12 -53 20 -106 7 -53 18 -117 24 -142 6 -25 17 -88 24 -140 8
-53 21 -120 30 -150 9 -29 16 -67 16 -84 0 -16 9 -69 19 -116 11 -47 25 -112
32 -145 6 -33 18 -86 25 -118 8 -32 14 -71 14 -85 0 -15 7 -49 15 -77 9 -27
20 -92 26 -145 5 -52 18 -131 28 -175 11 -44 22 -105 26 -135 4 -30 15 -86 25
-125 33 -133 48 -210 60 -315 6 -58 18 -149 26 -202 13 -87 13 -101 -1 -134
-8 -20 -15 -52 -15 -71 0 -19 -7 -50 -16 -69 -20 -42 -103 -113 -165 -142 -49
-22 -205 -74 -279 -92 -25 -6 -56 -15 -70 -21 -14 -5 -36 -11 -50 -14 -41 -8
-272 -36 -331 -39 -30 -2 -106 -8 -169 -13 -193 -14 -306 -9 -424 20 -105 25
-136 24 -159 -4 -17 -21 -18 -50 -12 -503 4 -265 10 -508 15 -541 5 -33 12
-188 15 -345 3 -157 7 -301 10 -320 14 -117 -25 -477 -56 -516 -5 -6 -16 -34
-24 -61 -8 -27 -23 -57 -32 -65 -26 -22 -80 -39 -143 -44 -30 -2 -82 -6 -114
-9 -76 -7 -317 -15 -376 -13 -25 0 -54 1 -65 0 -363 -23 -545 -16 -745 28
-142 32 -241 49 -335 60 -49 6 -108 15 -130 20 -179 40 -261 51 -330 41 -89
-13 -191 -44 -230 -71 -16 -12 -58 -34 -92 -50 -34 -17 -68 -38 -75 -47 -7
-10 -48 -36 -91 -58 -136 -70 -182 -93 -197 -99 -8 -3 -22 -10 -30 -15 -34
-21 -111 -51 -171 -66 -35 -9 -71 -19 -79 -22 -8 -3 -37 -8 -65 -9 -27 -2 -63
-5 -79 -7 -16 -2 -46 -1 -65 4 -20 4 -54 10 -77 13 -72 8 -117 18 -219 46
-128 36 -146 43 -169 69 -11 11 -27 21 -37 21 -10 0 -21 5 -24 10 -3 6 -12 10
-20 10 -7 0 -40 17 -72 37 -32 21 -76 47 -98 57 -22 11 -53 29 -70 41 -16 11
-48 26 -70 34 -22 7 -58 21 -80 30 -76 34 -190 70 -295 95 -94 22 -120 24
-245 19 -168 -6 -328 -38 -455 -90 -18 -7 -9 -5 -140 -33 -110 -24 -295 -31
-418 -15 -31 4 -79 9 -107 10 -27 2 -77 8 -110 14 -33 5 -84 13 -114 16 -30 3
-72 10 -93 16 -22 5 -51 12 -66 15 -42 7 -135 30 -157 38 -110 43 -144 78
-178 181 -34 102 -57 213 -57 273 0 26 -4 63 -10 82 -6 22 -9 246 -8 595 1
308 0 715 -1 905 -2 370 -4 383 -53 392 -46 8 -72 -6 -103 -58 -36 -61 -84
-100 -139 -115 -50 -14 -268 -17 -351 -5 -33 4 -78 10 -100 11 -22 2 -78 13
-125 24 -79 20 -109 30 -152 52 -9 4 -45 15 -80 24 -34 9 -67 20 -73 25 -5 4
-26 11 -45 15 -48 10 -213 62 -280 88 -115 45 -160 90 -160 161 0 13 -11 38
-25 54 -29 34 -32 80 -15 222 6 47 15 130 20 185 12 127 44 354 81 575 5 30
13 98 18 150 5 52 16 129 24 170 8 41 20 122 27 180 7 58 16 121 22 140 10 37
25 123 57 310 10 63 24 140 31 170 6 30 15 84 20 120 20 140 32 208 50 280 22
88 36 166 45 235 6 51 30 167 46 220 4 17 13 62 19 100 6 39 17 106 26 150 8
44 21 119 29 167 7 48 17 93 21 100 4 6 13 44 20 82 7 39 22 112 34 161 11 50
25 115 30 145 5 30 16 75 25 99 8 24 15 60 15 80 0 21 7 62 16 92 20 65 55
209 94 384 16 72 38 168 50 215 11 47 27 124 34 171 7 47 18 94 24 105 6 11
18 53 27 94 9 41 23 96 31 122 8 26 14 57 14 70 0 30 37 217 56 286 17 58 31
127 43 214 5 31 12 62 16 69 10 16 54 241 65 334 4 39 15 93 23 120 33 114 47
170 47 192 0 13 7 35 16 48 8 13 15 34 13 47 -1 13 1 34 4 48 3 14 11 57 17
95 7 39 18 86 25 105 8 19 16 58 19 86 2 28 14 78 25 112 12 34 21 77 21 95 0
19 9 60 20 93 11 32 20 70 20 84 0 15 5 31 11 37 10 10 19 43 57 198 6 22 20
85 32 140 11 55 28 125 36 155 9 30 19 78 23 105 3 28 14 61 24 75 9 13 17 36
17 50 0 31 44 252 58 295 13 39 33 138 40 195 2 24 10 53 17 65 7 11 15 46 19
78 3 32 12 68 20 80 8 12 19 47 26 77 20 91 41 163 56 198 8 18 14 43 14 57 0
13 8 43 18 67 11 24 21 70 24 103 3 33 16 87 27 120 27 73 49 167 62 260 5 39
14 81 19 95 5 14 14 53 20 87 6 34 22 82 35 105 14 24 25 59 25 77 0 21 10 50
25 71 17 25 28 58 34 110 12 95 41 197 64 232 11 15 40 49 65 76 26 26 60 68
75 92 35 56 108 112 150 117 18 2 39 11 48 22 8 10 26 22 39 26 13 4 44 26 69
49 25 23 65 48 87 54 23 7 47 19 54 27 7 8 20 15 29 15 9 0 25 6 36 14 11 7
39 17 63 21 24 4 48 15 55 26 8 10 28 22 46 25 21 5 40 19 59 45 15 21 34 39
43 39 20 0 42 25 64 73 9 20 23 37 30 37 6 0 20 9 30 20 10 11 26 20 36 20 10
0 30 10 46 23 15 13 41 31 56 40 15 10 36 30 45 45 11 18 27 28 47 30 31 3 65
33 65 58 0 8 6 14 14 14 7 0 30 18 50 40 20 22 39 39 43 38 5 -1 27 2 51 6 47
9 72 35 72 78 0 20 6 27 22 30 13 2 28 16 37 33 8 17 20 42 28 57 7 14 13 30
13 36 0 5 15 26 34 46 31 34 41 52 75 126 9 19 20 25 49 27 39 2 72 30 72 62
1 32 46 66 100 74 25 4 207 -1 330 -9z"/>
</g>
</svg>
