<?xml version="1.0" standalone="no"?>
<!DOCTYPE svg PUBLIC "-//W3C//DTD SVG 20010904//EN"
 "http://www.w3.org/TR/2001/REC-SVG-20010904/DTD/svg10.dtd">
<svg version="1.0" xmlns="http://www.w3.org/2000/svg"
 width="1500.000000pt" height="2098.000000pt" viewBox="0 0 1500.000000 2098.000000"
 preserveAspectRatio="xMidYMid meet">
<metadata>
Created by potrace 1.16, written by Peter Selinger 2001-2019
</metadata>
<g transform="translate(0.000000,2098.000000) scale(0.100000,-0.100000)"
fill="none" stroke="grey" stroke-width="2">
<path d="M0 10490 l0 -10490 7500 0 7500 0 0 10490 0 10490 -7500 0 -7500 0 0
-10490z m6755 7810 c186 -18 689 -33 900 -27 248 8 519 28 712 53 46 7 48 5
130 -93 45 -55 316 -187 498 -243 22 -6 81 -31 130 -55 50 -24 124 -56 165
-71 41 -14 98 -36 125 -49 395 -180 451 -213 530 -312 105 -134 186 -357 276
-761 10 -46 20 -86 23 -91 6 -8 81 -384 91 -451 13 -93 46 -241 60 -272 7 -18
21 -96 30 -173 9 -77 25 -192 36 -255 10 -63 33 -203 49 -310 17 -107 37 -235
45 -285 48 -303 67 -429 90 -580 14 -93 37 -240 50 -325 28 -180 65 -434 94
-640 11 -80 30 -210 41 -290 18 -130 61 -461 75 -580 38 -328 70 -621 80 -740
41 -494 78 -898 105 -1145 62 -580 101 -910 120 -1010 5 -27 11 -77 15 -110 3
-33 14 -121 25 -195 10 -74 28 -205 40 -290 11 -85 27 -200 35 -255 30 -206
23 -232 -80 -274 -132 -55 -170 -62 -355 -68 -113 -3 -210 -12 -274 -24 -152
-31 -176 -34 -251 -34 -82 0 -111 15 -138 72 -11 21 -24 49 -31 63 -21 44 -95
46 -123 3 -18 -27 -20 -136 -9 -373 3 -63 10 -234 16 -380 5 -146 14 -348 20
-450 24 -438 31 -646 41 -1155 5 -297 17 -679 26 -850 22 -419 29 -1887 12
-2465 -7 -228 -13 -593 -14 -810 -1 -372 -2 -397 -20 -428 -11 -18 -29 -35
-40 -37 -134 -27 -178 -44 -233 -90 -16 -14 -36 -25 -44 -25 -8 0 -18 -4 -24
-9 -55 -53 -439 -66 -564 -18 -8 3 -62 20 -120 37 -58 17 -116 35 -130 39 -34
11 -122 6 -148 -8 -25 -13 -92 -111 -92 -134 0 -17 -51 -95 -104 -159 -29 -37
-45 -46 -108 -64 -88 -26 -176 -23 -231 8 -13 7 -45 24 -70 37 -26 14 -47 28
-47 33 0 4 -24 25 -53 47 -30 21 -69 55 -88 75 -19 20 -61 53 -94 73 -56 35
-66 37 -140 38 -71 0 -85 -3 -122 -28 -24 -15 -47 -27 -52 -27 -6 0 -16 -8
-23 -18 -22 -29 -120 -108 -168 -134 -70 -37 -184 -66 -195 -49 -3 5 -23 12
-44 16 -22 4 -45 13 -52 21 -6 8 -15 14 -20 14 -10 0 -62 35 -117 78 -22 18
-42 32 -45 32 -3 0 -19 14 -37 30 -18 17 -37 30 -43 30 -6 0 -20 9 -31 19 -30
27 -137 61 -194 61 -50 0 -137 -22 -182 -45 -89 -47 -262 -101 -282 -89 -5 3
-36 5 -70 5 -55 0 -151 19 -247 48 -45 14 -175 36 -390 67 -97 13 -183 26
-191 29 -8 2 -40 6 -70 10 -30 3 -116 20 -190 38 -123 29 -136 35 -148 60 -23
47 -31 388 -31 1200 1 426 -2 781 -6 788 -4 6 -7 446 -7 978 1 898 7 1269 32
1921 9 236 24 717 50 1610 6 196 13 412 16 480 6 114 5 127 -13 149 -14 17
-29 23 -58 23 -58 0 -71 -22 -79 -134 -8 -110 -19 -166 -38 -185 -11 -11 -64
-15 -238 -18 l-223 -4 -191 39 c-246 50 -410 99 -445 134 -22 23 -26 34 -25
89 1 69 23 247 84 657 22 151 45 316 50 365 6 50 19 158 30 240 31 240 72 620
145 1350 14 138 30 284 36 325 5 41 18 158 29 260 27 247 65 579 91 775 23
183 53 440 69 600 20 201 61 548 85 720 13 94 40 287 60 430 20 143 43 299 51
347 8 48 18 117 23 155 9 65 21 137 76 463 58 335 119 661 154 815 16 72 41
195 55 275 37 198 57 281 127 520 69 234 96 309 145 398 98 176 299 359 475
433 41 17 88 36 104 44 57 26 140 57 175 67 58 15 143 51 177 74 18 12 54 25
80 28 141 19 226 53 354 141 46 32 111 84 144 116 70 68 94 79 149 67 23 -5
86 -13 141 -18z"/>
</g>
</svg>
