<?xml version="1.0" standalone="no"?>
<!DOCTYPE svg PUBLIC "-//W3C//DTD SVG 20010904//EN"
 "http://www.w3.org/TR/2001/REC-SVG-20010904/DTD/svg10.dtd">
<svg version="1.0" xmlns="http://www.w3.org/2000/svg"
 width="1500.000000pt" height="2098.000000pt" viewBox="0 0 1500.000000 2098.000000"
 preserveAspectRatio="xMidYMid meet">
<metadata>
Created by potrace 1.16, written by Peter Selinger 2001-2019
</metadata>
<g transform="translate(0.000000,2098.000000) scale(0.100000,-0.100000)"
fill="none" stroke="grey" stroke-width="2">
<path d="M0 10490 l0 -10490 7500 0 7500 0 0 10490 0 10490 -7500 0 -7500 0 0
-10490z m6400 7793 c10 -29 50 -109 88 -180 102 -184 172 -248 382 -346 158
-74 330 -102 588 -94 154 4 193 9 297 35 66 17 156 44 201 60 87 33 287 129
338 164 70 47 202 205 285 341 12 20 33 40 45 43 53 13 563 -182 846 -322 230
-115 286 -155 402 -289 107 -123 161 -235 238 -495 91 -304 97 -325 120 -448
11 -62 34 -151 50 -199 37 -109 94 -315 114 -413 32 -159 48 -247 55 -310 5
-36 13 -76 19 -90 6 -14 18 -59 27 -100 9 -41 25 -113 35 -160 53 -233 174
-795 191 -880 5 -30 14 -68 19 -85 5 -16 14 -59 20 -95 7 -36 18 -87 25 -115
8 -27 16 -70 20 -95 3 -25 10 -63 15 -85 5 -22 21 -94 35 -160 39 -178 64
-284 80 -340 21 -69 118 -500 166 -735 22 -107 60 -280 84 -385 94 -404 107
-472 131 -685 18 -168 26 -228 48 -365 22 -137 33 -674 16 -805 -22 -179 -23
-196 -5 -230 l17 -32 -44 -45 c-23 -25 -72 -64 -108 -88 -36 -23 -81 -60 -101
-82 -37 -40 -63 -54 -134 -72 -46 -12 -103 -66 -187 -175 -29 -38 -65 -76 -79
-85 -14 -9 -47 -31 -75 -49 -42 -28 -54 -32 -89 -26 -22 3 -44 9 -50 13 -17
12 -107 40 -178 56 -61 14 -107 29 -172 55 -11 4 -36 14 -55 21 -19 7 -42 18
-51 26 -8 7 -19 13 -23 13 -14 0 -113 83 -196 165 -47 46 -94 84 -105 85 -46
5 -65 -1 -81 -25 -15 -23 -15 -41 -5 -188 7 -89 18 -232 26 -317 8 -85 19
-236 25 -335 6 -99 15 -234 21 -300 5 -66 11 -163 13 -215 3 -95 19 -285 57
-675 11 -115 25 -255 29 -310 5 -55 14 -138 20 -185 6 -47 17 -148 25 -225 8
-77 26 -232 40 -345 14 -113 30 -243 35 -290 5 -47 21 -177 35 -290 21 -177
90 -811 125 -1155 15 -143 37 -388 54 -595 33 -397 51 -587 70 -730 22 -165
61 -505 101 -875 19 -176 39 -360 45 -410 5 -49 19 -178 30 -285 11 -107 24
-219 30 -249 5 -29 10 -97 11 -150 0 -53 5 -134 9 -181 16 -150 12 -210 -16
-251 -15 -21 -24 -49 -24 -72 0 -122 -110 -269 -274 -364 -22 -13 -28 -16 -86
-39 -19 -7 -48 -19 -65 -26 -16 -7 -41 -13 -55 -13 -14 -1 -64 -9 -113 -19
-48 -9 -104 -19 -125 -21 -99 -11 -133 -14 -201 -20 -41 -3 -107 -10 -145 -16
-39 -6 -93 -13 -121 -16 -27 -2 -66 -5 -85 -7 -95 -9 -290 -20 -325 -19 -102
4 -237 24 -301 46 -55 19 -81 34 -113 68 -22 24 -41 52 -41 62 0 10 -11 29
-25 43 -14 14 -25 33 -25 42 0 25 -29 105 -45 122 -7 8 -16 25 -19 36 -10 34
-42 56 -81 56 -45 0 -72 -23 -85 -73 -18 -66 -118 -166 -193 -193 -17 -6 -43
-18 -57 -26 -33 -19 -238 -22 -260 -4 -8 7 -34 17 -57 23 -29 8 -59 28 -92 61
-28 28 -54 50 -59 50 -15 0 -32 104 -50 308 -7 73 -11 85 -38 112 -28 29 -38
31 -164 46 -74 9 -146 16 -159 15 -35 -2 -59 -28 -71 -75 -6 -23 -19 -61 -30
-86 -10 -25 -19 -64 -19 -88 0 -63 -10 -100 -42 -152 -16 -26 -29 -53 -29 -60
0 -7 -11 -25 -25 -42 -14 -16 -25 -35 -25 -42 0 -13 -136 -156 -149 -156 -4 0
-22 -16 -41 -35 -19 -19 -39 -35 -46 -35 -6 0 -17 -7 -24 -15 -7 -8 -19 -15
-27 -15 -7 0 -25 -8 -39 -17 -20 -13 -57 -18 -153 -22 -184 -7 -313 -3 -337
11 -5 3 -34 11 -64 18 -30 7 -78 23 -107 36 -138 61 -299 81 -478 59 -67 -8
-359 -11 -400 -3 -11 2 -24 6 -30 9 -5 4 -35 12 -65 19 -72 16 -93 30 -115 77
-10 21 -27 51 -38 67 -17 24 -21 49 -25 167 -5 136 -6 141 -34 177 -24 30 -28
42 -23 71 4 19 13 103 20 185 7 83 18 162 24 176 17 40 49 283 81 615 17 171
39 384 50 475 29 249 118 1217 126 1370 7 131 44 580 59 715 8 72 17 207 20
300 4 94 14 220 22 280 9 61 17 135 19 165 5 122 16 216 27 235 6 11 12 70 13
130 1 61 9 155 18 210 8 55 25 192 36 304 11 112 23 208 25 211 3 4 9 61 15
126 6 66 15 155 20 199 5 44 14 136 20 205 13 151 64 642 86 830 9 74 20 178
24 230 5 52 13 111 19 130 11 39 27 185 41 355 4 61 20 218 33 350 14 132 33
330 42 440 9 110 23 258 31 329 16 142 10 169 -38 178 -54 10 -71 -4 -118 -97
-25 -50 -61 -112 -79 -140 -40 -58 -244 -265 -283 -286 -14 -8 -49 -28 -79
-46 -56 -34 -280 -95 -349 -96 -66 0 -130 9 -142 21 -7 7 -18 12 -25 12 -31 0
-141 75 -218 148 -33 32 -76 69 -95 84 -48 35 -210 199 -210 213 0 6 -16 35
-36 65 -47 71 -64 111 -64 154 0 19 -12 66 -26 103 -56 149 -63 220 -44 443 6
63 15 165 20 225 5 61 18 160 29 220 11 61 27 157 35 215 33 220 128 777 160
938 34 166 46 221 71 317 7 28 17 79 23 115 14 81 49 248 66 315 8 28 19 77
25 110 11 54 25 110 51 200 5 17 16 66 25 110 105 532 206 1006 265 1251 11
45 35 155 54 245 41 193 72 325 80 337 3 5 12 52 20 103 8 52 28 155 45 229
17 74 38 169 47 210 33 150 135 559 174 700 96 342 135 469 160 530 72 174
116 269 145 316 41 64 153 184 171 184 8 0 33 17 57 38 63 57 109 89 168 117
30 14 86 46 124 70 39 25 113 65 165 91 52 25 104 51 115 57 57 31 76 37 122
41 27 2 64 13 83 24 37 21 160 46 188 38 9 -3 33 1 52 8 19 8 39 13 43 12 5
-1 17 -25 27 -53z"/>
</g>
</svg>
