<?xml version="1.0" standalone="no"?>
<!DOCTYPE svg PUBLIC "-//W3C//DTD SVG 20010904//EN"
 "http://www.w3.org/TR/2001/REC-SVG-20010904/DTD/svg10.dtd">
<svg version="1.0" xmlns="http://www.w3.org/2000/svg"
 width="1500.000000pt" height="2098.000000pt" viewBox="0 0 1500.000000 2098.000000"
 preserveAspectRatio="xMidYMid meet">
<metadata>
Created by potrace 1.16, written by Peter Selinger 2001-2019
</metadata>
<g transform="translate(0.000000,2098.000000) scale(0.100000,-0.100000)"
fill="none" stroke="grey" stroke-width="2">
<path d="M0 10490 l0 -10490 7500 0 7500 0 0 10490 0 10490 -7500 0 -7500 0 0
-10490z m6441 7850 c24 -17 64 -46 89 -65 140 -107 299 -180 466 -214 189 -39
288 -46 629 -45 364 0 452 10 635 72 86 29 222 93 250 117 32 28 184 115 201
115 9 0 41 -16 70 -36 30 -20 77 -44 104 -54 122 -43 498 -242 820 -435 161
-96 179 -112 177 -159 -1 -21 17 -86 43 -154 24 -65 49 -149 55 -187 6 -39 25
-140 41 -225 35 -183 78 -512 114 -880 14 -146 53 -530 85 -855 167 -1659 167
-1651 225 -2480 8 -115 24 -331 35 -480 52 -713 61 -833 70 -1015 6 -107 15
-249 20 -315 29 -355 40 -503 45 -630 4 -77 18 -208 31 -292 19 -114 23 -157
15 -172 -6 -11 -11 -29 -11 -40 0 -38 -147 -125 -229 -136 -25 -4 -131 -10
-236 -14 -123 -5 -219 -15 -274 -27 l-84 -19 -24 30 c-28 35 -81 161 -93 220
-4 22 -15 67 -24 100 -8 33 -23 114 -31 180 -9 66 -22 156 -30 200 -17 94 -56
356 -85 575 -12 85 -34 225 -50 310 -16 85 -32 178 -36 205 -4 28 -13 62 -20
76 -7 15 -18 51 -23 80 -23 133 -43 215 -56 236 -23 35 -89 35 -119 0 -15 -18
-17 -32 -11 -82 3 -33 7 -132 8 -220 2 -96 10 -206 21 -275 22 -137 22 -195 2
-323 -20 -119 -20 -200 -1 -387 8 -80 15 -176 15 -215 0 -38 7 -92 15 -119 8
-27 15 -82 15 -122 0 -40 7 -104 15 -143 8 -38 24 -202 35 -363 11 -161 25
-331 30 -378 6 -47 26 -260 45 -475 19 -214 46 -511 59 -660 14 -148 37 -421
51 -605 14 -184 57 -713 95 -1175 38 -462 78 -970 90 -1130 11 -159 30 -402
40 -540 19 -233 27 -354 65 -900 26 -374 85 -1544 85 -1685 0 -52 6 -126 14
-165 20 -95 23 -251 7 -295 -36 -98 -57 -124 -147 -187 -49 -34 -94 -62 -99
-62 -6 -1 -28 -10 -49 -21 -43 -21 -159 -47 -251 -55 -33 -3 -76 -10 -95 -15
-19 -5 -66 -12 -104 -15 -37 -3 -71 -7 -75 -9 -4 -3 -40 -8 -81 -11 -41 -3
-77 -8 -80 -10 -3 -2 -26 -6 -51 -9 -24 -3 -55 -8 -69 -10 -14 -3 -54 -8 -90
-11 -36 -4 -78 -9 -95 -11 -16 -2 -71 -6 -122 -9 -51 -2 -107 -7 -125 -11 -33
-6 -50 -7 -188 -18 -41 -3 -89 -11 -106 -16 -18 -6 -36 -10 -40 -8 -5 1 -36
-2 -69 -7 -33 -4 -73 -10 -90 -11 -145 -15 -205 -20 -340 -29 -38 -2 -90 -6
-115 -9 -25 -3 -67 -6 -95 -6 -27 -1 -70 -6 -95 -12 -25 -6 -63 -10 -84 -9
-21 0 -57 -4 -79 -10 -21 -6 -78 -12 -126 -13 -48 -2 -96 -7 -106 -13 -21 -10
-162 -9 -250 1 -72 8 -235 56 -267 78 -14 10 -30 18 -35 18 -9 0 -215 156
-253 193 -198 189 -321 215 -535 113 -140 -67 -187 -80 -264 -72 -91 9 -152
31 -190 68 -43 42 -57 72 -65 138 -4 30 -16 70 -28 88 -18 30 -19 44 -15 170
3 75 10 202 16 282 6 80 15 323 20 540 6 217 15 429 20 470 15 106 38 450 61
915 12 220 25 483 30 585 5 102 14 298 20 435 9 221 43 630 70 860 9 76 41
441 75 850 23 273 93 875 165 1420 21 160 51 389 65 510 28 239 91 691 131
930 33 203 40 347 24 471 -16 117 -16 341 0 463 9 71 8 109 -4 202 -9 63 -16
134 -16 159 0 161 10 406 19 465 6 39 11 108 11 155 0 47 7 126 15 175 8 50
15 138 15 196 0 130 -11 152 -80 152 -55 0 -74 -22 -91 -101 -47 -227 -84
-377 -105 -437 -44 -121 -62 -192 -94 -369 -17 -94 -55 -279 -85 -411 -59
-265 -65 -300 -95 -590 -26 -255 -40 -327 -76 -402 -18 -36 -21 -38 -64 -37
-25 0 -119 22 -210 49 l-165 48 -110 -9 c-174 -14 -234 -11 -288 14 -26 11
-50 29 -53 39 -3 10 -13 33 -23 51 -16 31 -16 44 -4 165 7 73 20 215 28 317
23 279 68 711 140 1360 35 322 78 722 95 890 39 392 50 489 115 990 30 228 72
573 95 765 23 193 57 472 76 620 79 615 95 743 124 1010 79 726 92 840 111
975 22 157 90 480 115 545 8 22 30 65 49 95 18 30 38 73 44 96 7 25 19 45 33
52 13 6 70 32 128 57 58 26 143 69 190 95 47 26 112 59 145 73 103 44 336 137
432 173 95 35 202 88 262 130 43 31 49 30 102 -6z"/>
<path d="M7315 17958 c-31 -5 -57 -17 -67 -29 -24 -28 -23 -81 1 -110 17 -21
28 -24 91 -24 63 0 74 3 91 24 25 30 24 82 -1 113 -24 31 -49 36 -115 26z"/>
</g>
</svg>
