<?xml version="1.0" standalone="no"?>
<!DOCTYPE svg PUBLIC "-//W3C//DTD SVG 20010904//EN"
 "http://www.w3.org/TR/2001/REC-SVG-20010904/DTD/svg10.dtd">
<svg version="1.0" xmlns="http://www.w3.org/2000/svg"
 width="2048.000000pt" height="2864.000000pt" viewBox="0 0 2048.000000 2864.000000"
 preserveAspectRatio="xMidYMid meet">
<metadata>
Created by potrace 1.16, written by Peter Selinger 2001-2019
</metadata>
<g transform="translate(0.000000,2864.000000) scale(0.100000,-0.100000)"
fill="none" stroke="grey" stroke-width="2">
<path d="M0 14320 l0 -14320 10240 0 10240 0 0 14320 0 14320 -10240 0 -10240
0 0 -14320z m8845 10661 c28 -5 68 -13 90 -16 22 -4 45 -10 50 -15 6 -4 21
-10 35 -12 15 -2 30 -14 40 -33 13 -27 24 -32 100 -48 47 -10 94 -18 105 -18
114 2 154 -1 243 -15 57 -9 133 -24 168 -34 47 -14 73 -16 95 -10 42 12 49 6
49 -44 0 -72 19 -86 131 -96 53 -4 108 -6 123 -3 35 7 59 43 54 85 -3 31 -2
32 37 35 43 2 75 30 75 64 0 17 8 19 88 19 48 0 97 3 110 6 12 4 22 2 22 -4 0
-6 -10 -12 -21 -14 -12 -2 -31 -15 -42 -29 -16 -23 -18 -36 -12 -88 10 -85 28
-105 95 -105 72 0 90 22 90 111 0 55 -4 67 -25 88 -13 14 -33 25 -45 25 -11 0
-20 4 -20 9 0 4 46 11 103 15 118 8 340 31 450 46 68 10 81 9 109 -7 18 -10
41 -28 51 -40 36 -44 168 -38 202 10 8 12 15 31 15 43 0 24 17 29 248 74 129
25 164 22 217 -20 21 -17 44 -30 52 -30 29 0 63 -32 63 -59 0 -39 67 -146 133
-213 31 -33 87 -95 123 -138 70 -85 107 -117 197 -170 49 -30 57 -38 57 -65 0
-16 3 -40 6 -52 5 -19 2 -23 -15 -23 -11 0 -28 -11 -37 -25 l-16 -25 -17 21
c-20 24 -121 51 -163 42 -32 -6 -58 -37 -58 -69 0 -29 116 -304 138 -326 24
-25 60 -25 126 -3 50 17 58 18 66 5 15 -24 18 -131 5 -183 -6 -20 -1 -37 17
-65 21 -31 27 -59 38 -162 7 -69 19 -154 27 -190 7 -36 20 -96 28 -135 8 -38
19 -90 25 -115 43 -165 74 -297 91 -375 28 -139 95 -431 118 -518 19 -71 19
-82 6 -107 -8 -16 -15 -38 -15 -48 0 -26 37 -72 58 -72 12 0 27 -26 51 -93 52
-142 103 -243 176 -346 59 -84 65 -97 56 -118 -32 -70 7 -109 114 -112 12 -1
53 -30 92 -66 62 -56 93 -77 193 -129 20 -11 20 -42 0 -191 -5 -38 -14 -135
-21 -215 -11 -137 -26 -227 -28 -174 -2 38 -33 66 -75 66 -48 0 -72 -23 -91
-85 -19 -65 -19 -80 3 -107 24 -29 84 -30 123 -1 17 13 30 17 34 11 9 -15 -14
-222 -27 -237 -6 -7 -16 -13 -23 -13 -7 0 -23 -9 -36 -19 -24 -19 -24 -21 -21
-188 4 -172 13 -213 47 -213 12 0 14 -15 9 -92 -12 -188 -12 -187 -74 -219
-58 -31 -90 -61 -90 -86 0 -19 -40 -52 -62 -53 -26 0 -22 12 12 45 36 35 47
67 56 170 5 63 12 86 30 108 29 35 30 62 3 106 -19 31 -19 40 -10 145 24 248
13 298 -64 298 -35 0 -45 -6 -92 -57 -29 -31 -53 -61 -53 -66 0 -5 -6 -9 -13
-9 -9 0 -19 32 -31 100 l-18 101 30 72 c93 222 120 358 127 634 2 77 6 170 10
205 6 59 5 67 -17 93 -19 22 -33 28 -65 28 -22 0 -46 -3 -52 -7 -15 -10 -54
-90 -74 -151 -41 -134 -44 -156 -37 -279 3 -54 1 -61 -23 -80 -124 -101 -150
-124 -162 -147 -10 -18 -26 -29 -48 -33 -34 -6 -96 -68 -126 -124 -15 -28 -6
-153 17 -252 8 -36 18 -114 21 -175 3 -60 10 -116 15 -123 4 -7 9 -43 11 -79
2 -47 9 -73 24 -94 12 -15 21 -40 21 -54 0 -17 18 -43 58 -83 31 -33 116 -122
187 -200 72 -78 138 -142 148 -142 10 0 17 -8 17 -19 0 -10 8 -29 18 -41 22
-28 84 -30 112 -5 16 14 20 15 24 4 30 -98 77 -290 86 -347 9 -56 9 -97 -1
-178 -10 -85 -10 -112 1 -144 15 -45 7 -418 -10 -511 -11 -57 -1 -195 25 -349
28 -167 29 -239 6 -300 -12 -30 -21 -66 -21 -80 0 -33 26 -70 49 -70 15 0 20
-12 25 -72 4 -40 18 -179 32 -308 17 -154 23 -257 19 -298 -5 -49 -3 -68 9
-87 15 -23 24 -89 78 -558 6 -53 8 -100 5 -103 -6 -7 -101 42 -143 73 -34 25
-216 92 -251 93 -14 0 -23 6 -23 15 0 8 5 15 11 15 6 0 32 15 58 34 25 18 70
46 99 60 59 30 61 34 94 164 21 84 21 95 8 119 -8 15 -28 30 -45 35 -57 15
-157 -30 -178 -81 -13 -30 -15 -31 -47 -31 -11 0 -28 -12 -38 -27 -9 -16 -28
-29 -42 -31 -29 -4 -70 -45 -70 -71 0 -23 -40 -65 -51 -54 -5 5 0 37 11 73 31
102 34 140 15 205 -17 57 -17 61 6 163 26 122 20 149 -40 165 -70 18 -213 -37
-250 -96 -22 -35 -23 -78 -6 -247 3 -36 7 -95 8 -131 1 -47 7 -73 19 -86 12
-13 14 -23 8 -33 -16 -25 -11 -76 10 -103 14 -17 18 -34 14 -54 -2 -15 0 -50
6 -78 6 -27 15 -78 19 -112 5 -34 16 -75 26 -90 21 -31 23 -99 5 -132 -6 -13
-9 -35 -6 -50 4 -14 9 -73 12 -131 7 -132 30 -178 108 -216 28 -15 103 -55
168 -91 74 -41 129 -65 152 -66 20 -1 38 -7 40 -13 6 -16 106 -72 136 -76 14
-1 33 -13 43 -25 37 -46 126 -50 154 -7 28 43 10 105 -51 177 -29 34 -68 85
-87 112 -24 33 -46 53 -67 60 -25 7 -32 15 -32 34 0 34 -139 261 -208 339 -30
35 -70 71 -89 80 -29 14 -46 42 -25 42 15 0 97 -57 150 -104 42 -39 59 -48 88
-48 20 0 40 4 46 10 10 10 51 3 102 -17 61 -24 174 -102 180 -123 8 -33 0 -34
-39 -3 -46 35 -101 37 -127 5 -34 -42 -24 -65 77 -171 53 -56 102 -114 110
-130 8 -15 21 -72 28 -125 l14 -96 -23 -8 c-26 -10 -44 -39 -44 -70 0 -11 20
-40 45 -64 25 -25 45 -52 45 -63 0 -10 9 -112 21 -228 11 -115 22 -244 24
-285 2 -41 11 -131 20 -200 8 -69 17 -154 19 -190 3 -36 9 -100 15 -143 9 -73
9 -79 -12 -111 l-23 -33 -17 23 c-20 27 -100 48 -142 36 -63 -18 -71 -90 -15
-142 54 -50 148 -50 179 0 14 24 19 26 34 15 24 -17 38 -126 20 -151 -20 -27
-16 -87 8 -118 17 -22 24 -61 44 -262 14 -142 22 -262 18 -299 -5 -60 -7 -63
-37 -71 -17 -4 -49 -7 -71 -6 -56 2 -297 -37 -314 -51 -7 -6 -30 -13 -50 -14
-39 -2 -71 -31 -71 -64 0 -12 -7 -19 -20 -19 -35 0 -54 -45 -54 -129 1 -193
16 -244 77 -255 34 -6 41 -5 82 9 11 4 33 9 50 11 33 5 132 64 180 109 19 18
46 31 64 33 51 4 104 34 126 72 11 19 28 35 37 35 39 0 46 -25 67 -254 20
-224 20 -225 1 -269 -24 -52 -25 -71 -7 -97 12 -17 11 -24 -10 -54 -12 -19
-23 -27 -23 -19 0 22 -39 68 -57 68 -9 0 -25 8 -36 18 -46 41 -397 -1 -445
-54 -37 -41 -24 -161 21 -200 22 -19 23 -23 10 -40 -11 -14 -13 -34 -9 -74 13
-112 38 -246 51 -266 15 -23 98 -49 145 -46 17 1 48 25 92 72 37 38 85 81 108
95 22 14 46 36 52 50 6 13 19 25 29 28 21 6 59 64 59 91 0 13 4 16 18 11 9 -4
26 -10 38 -12 20 -4 22 -18 42 -296 13 -161 25 -314 28 -342 3 -27 8 -81 9
-120 4 -74 17 -207 34 -342 5 -45 7 -97 4 -116 -3 -19 0 -44 6 -55 6 -11 22
-148 36 -304 32 -358 42 -457 54 -538 30 -213 32 -236 16 -273 -20 -48 -19
-69 5 -100 11 -14 20 -37 20 -52 0 -14 5 -35 10 -45 18 -33 52 -370 41 -399
-17 -45 -24 -137 -12 -160 7 -12 16 -58 20 -104 5 -45 16 -100 24 -123 9 -22
21 -88 27 -146 11 -98 10 -107 -9 -139 -37 -64 -29 -222 15 -270 13 -14 18
-35 17 -72 0 -29 3 -59 7 -67 5 -9 3 -26 -6 -40 -19 -35 -17 -63 6 -93 16 -20
22 -50 30 -163 5 -77 12 -159 15 -184 2 -25 9 -119 14 -209 6 -90 15 -221 20
-290 6 -69 8 -151 4 -182 -3 -31 0 -86 6 -122 6 -35 11 -107 12 -158 0 -52 4
-137 9 -189 5 -52 14 -214 20 -360 6 -146 15 -279 21 -297 5 -17 10 -118 10
-225 1 -111 7 -227 14 -273 8 -44 21 -181 30 -305 9 -124 23 -308 32 -410 9
-107 17 -350 19 -575 3 -312 7 -403 20 -456 22 -92 17 -381 -8 -419 -8 -14
-25 -56 -37 -94 -12 -37 -30 -80 -39 -95 -23 -35 -70 -74 -101 -84 -45 -15
-133 -19 -160 -8 -14 6 -42 13 -61 16 -52 8 -271 64 -300 76 -23 10 -126 22
-174 21 -22 -1 -83 -29 -91 -42 -3 -6 -15 -10 -25 -10 -10 0 -31 -11 -47 -24
-27 -23 -62 -31 -183 -42 -30 -3 -60 -7 -67 -9 -16 -5 -120 20 -135 33 -7 6
-30 13 -50 17 -21 4 -42 13 -49 21 -13 15 -70 29 -114 26 -16 -1 -46 -2 -65
-1 -109 1 -115 0 -132 -22 -10 -11 -18 -27 -18 -35 0 -8 -10 -14 -21 -14 -28
0 -85 -63 -105 -117 -9 -24 -22 -43 -29 -43 -19 0 -65 -59 -72 -91 -3 -16 -9
-29 -14 -29 -15 0 -69 -82 -69 -104 0 -16 -7 -21 -26 -23 -26 -1 -65 -17 -92
-37 -7 -5 -39 -18 -70 -29 -31 -10 -69 -30 -84 -45 -16 -14 -36 -27 -45 -28
-80 -9 -119 -17 -129 -25 -6 -5 -29 -11 -50 -14 -21 -2 -59 -7 -84 -12 -25 -4
-67 -6 -94 -5 -27 1 -67 -3 -88 -9 -28 -7 -43 -7 -53 1 -7 6 -28 12 -47 14
-18 1 -45 9 -58 16 -15 9 -62 15 -117 16 -51 1 -97 5 -103 9 -7 4 -31 9 -53
10 -23 2 -60 8 -82 14 -22 5 -53 9 -70 7 -16 -1 -36 2 -44 8 -7 6 -43 11 -80
13 -64 2 -82 6 -166 37 -22 8 -52 12 -66 9 -17 -3 -38 4 -64 21 -21 14 -45 26
-55 26 -9 0 -25 9 -34 19 -10 11 -37 23 -59 27 -23 4 -45 9 -49 10 -5 1 -16 2
-25 3 -10 1 -26 15 -35 31 -17 30 -45 46 -90 52 -13 2 -37 13 -53 24 -17 12
-41 25 -55 29 -13 4 -37 17 -52 28 -21 16 -45 21 -103 23 -42 1 -82 7 -90 14
-20 16 -127 20 -182 6 -26 -6 -75 -11 -108 -11 -33 1 -76 -2 -95 -8 -103 -28
-197 -43 -234 -35 -22 5 -54 4 -75 -2 -22 -6 -49 -6 -68 -1 -16 5 -42 6 -57 4
-14 -3 -33 0 -42 7 -8 7 -38 14 -67 16 -75 3 -125 14 -138 30 -6 8 -19 14 -28
14 -9 0 -28 6 -43 14 -24 13 -116 36 -158 41 -8 1 -25 7 -37 13 -12 7 -28 12
-36 12 -8 0 -22 9 -32 20 -19 21 -65 37 -137 46 -24 3 -60 10 -80 15 -21 5
-54 10 -75 11 -21 1 -52 10 -70 21 -39 23 -95 25 -126 5 -15 -11 -31 -12 -52
-6 -16 4 -41 6 -55 3 -14 -3 -52 -7 -85 -10 -32 -3 -64 -10 -70 -15 -7 -6 -15
-7 -19 -3 -4 4 -75 8 -159 9 -84 1 -170 6 -192 12 -22 5 -47 10 -55 10 -8 1
-42 4 -75 9 -93 12 -173 8 -193 -10 -9 -8 -37 -18 -61 -22 -29 -5 -55 -18 -80
-42 -20 -19 -47 -41 -62 -48 -14 -7 -43 -33 -66 -58 -22 -24 -47 -47 -54 -51
-34 -17 -61 -35 -82 -53 -12 -11 -51 -28 -87 -37 -36 -9 -72 -20 -80 -23 -16
-7 -27 -8 -112 -17 -31 -3 -60 -6 -65 -7 -4 -1 -20 1 -34 5 -30 9 -39 10 -104
21 -27 4 -83 16 -124 26 -41 11 -77 17 -79 14 -3 -3 -10 -1 -16 4 -14 11 -109
40 -143 45 -48 6 -87 19 -118 38 -16 10 -37 21 -45 24 -28 10 -67 88 -79 155
-6 36 -11 98 -11 139 0 56 -5 80 -21 107 -20 32 -20 36 -6 81 19 57 43 481 29
509 -5 11 -5 78 1 163 5 80 10 217 11 305 1 134 4 164 18 186 16 23 17 35 6
131 -10 86 -9 137 2 260 7 84 13 176 12 203 -3 140 1 292 9 307 5 10 6 91 3
191 -6 153 -5 176 10 199 14 22 18 62 22 249 3 123 8 244 12 269 7 44 8 45 55
54 55 10 82 40 74 82 -3 18 -1 22 6 15 6 -6 17 -11 24 -11 6 0 23 -11 37 -25
14 -14 33 -25 43 -25 10 0 23 -8 30 -18 7 -13 38 -24 95 -36 45 -10 105 -24
132 -32 27 -7 53 -11 58 -8 4 3 16 -4 26 -15 22 -27 119 -61 155 -54 37 7 57
39 57 90 0 60 -40 105 -93 105 -21 0 -44 -6 -52 -12 -13 -10 -15 -8 -15 15 0
46 -80 111 -115 93 -2 -2 -11 7 -20 18 -17 25 -57 35 -96 24 -21 -6 -29 -5
-29 4 0 29 -40 62 -89 76 -28 7 -51 19 -51 26 0 7 -10 25 -23 40 -19 22 -32
27 -75 28 -46 1 -52 3 -52 22 0 12 -9 33 -20 46 -19 25 -19 27 0 284 31 409
25 374 71 422 39 42 48 73 29 102 -17 26 30 29 56 4 22 -23 98 -40 134 -31 15
4 20 0 20 -13 0 -11 24 -44 53 -74 43 -43 66 -58 111 -71 32 -9 60 -14 63 -11
4 3 13 0 22 -8 17 -15 88 -30 131 -27 45 2 57 31 65 149 6 89 4 118 -10 158
-21 62 -30 72 -71 80 -26 5 -34 11 -34 28 0 26 -26 66 -43 66 -18 0 -41 42
-38 68 3 23 -48 120 -74 142 -8 6 -32 13 -54 13 -33 2 -38 4 -30 19 24 45 -1
138 -36 138 -8 0 -26 17 -39 38 -18 28 -45 48 -112 82 l-89 44 40 7 c47 9 74
6 260 -26 289 -49 303 -49 339 -1 20 26 21 40 22 324 0 187 4 304 11 317 6 11
13 70 16 130 5 88 3 124 -12 180 -15 58 -17 80 -8 132 9 52 8 65 -6 86 -27 42
-97 42 -125 -1 -9 -13 -19 -45 -23 -71 -3 -25 -17 -95 -29 -156 -28 -128 -30
-222 -8 -257 8 -12 17 -34 20 -48 3 -14 8 -32 12 -41 5 -12 -1 -15 -28 -16
-19 -1 -40 -4 -45 -8 -18 -11 -51 -82 -51 -111 0 -14 -9 -37 -20 -51 -13 -17
-20 -41 -20 -68 0 -46 -18 -70 -54 -70 -18 -1 -21 5 -20 35 0 19 6 54 13 78 6
23 12 59 12 80 0 20 2 58 5 84 5 40 3 50 -18 70 -27 27 -26 68 1 68 10 0 36
17 59 38 39 36 42 43 42 91 0 29 -4 61 -10 71 -5 10 -10 69 -11 131 0 90 -5
121 -20 150 -22 43 -28 48 -63 51 -17 2 -26 8 -26 20 0 10 -17 36 -39 59 -32
34 -45 41 -77 41 -41 0 -70 -25 -79 -66 -2 -11 -11 -55 -19 -96 -12 -63 -14
-68 -15 -34 -1 23 3 97 9 165 12 152 33 448 60 842 19 269 23 302 42 327 15
21 19 36 14 62 -3 18 -5 53 -4 78 1 25 1 72 0 105 -1 33 7 157 18 275 22 233
36 392 50 595 16 236 30 400 36 420 3 11 8 72 10 135 5 159 22 338 35 362 6
11 9 33 7 48 -4 26 -2 27 24 20 58 -17 120 8 134 53 4 12 16 29 28 38 17 14
21 30 23 81 1 34 5 92 8 127 3 46 1 71 -9 86 -14 21 -115 65 -156 68 -17 1
-20 9 -20 57 0 76 11 91 42 57 38 -43 100 -41 128 5 43 71 1 278 -56 278 -9 0
-5 12 11 36 21 31 25 48 25 114 0 62 -4 82 -20 103 -19 24 -19 25 -1 30 29 7
52 61 58 135 6 77 -11 111 -59 114 -33 3 -43 41 -21 75 12 19 14 39 9 97 -9
100 18 311 45 344 22 29 25 70 6 96 -10 14 -11 30 -4 65 5 25 10 75 13 111 2
36 8 94 13 130 6 36 13 94 17 130 6 59 10 68 50 107 54 52 57 83 13 124 -30
28 -30 29 -23 99 3 39 12 74 18 78 6 4 54 6 106 4 123 -3 150 5 172 49 22 42
24 136 3 166 -22 31 -143 46 -225 28 -25 -6 -30 -3 -30 13 0 39 22 80 48 91
15 6 74 20 132 32 140 27 148 35 180 184 5 22 14 60 20 85 7 25 14 80 16 122
3 74 2 80 -41 166 -24 48 -53 96 -64 106 -30 27 -99 25 -122 -3 -9 -11 -23
-21 -31 -21 -8 0 -19 -5 -26 -12 -16 -16 -16 11 1 123 9 59 20 95 35 114 24
30 28 70 12 125 -5 19 -7 50 -4 68 l7 34 21 -27 c17 -21 30 -27 60 -27 21 0
45 6 52 14 8 8 39 74 69 147 74 180 114 250 207 367 69 86 79 103 76 131 -2
18 0 33 4 33 16 0 46 63 53 109 7 54 24 108 42 136 7 11 13 32 13 48 0 15 9
45 20 67 11 22 20 51 20 66 0 19 4 25 15 20 27 -10 76 6 92 31 9 13 18 49 22
80 3 31 11 58 18 60 19 7 27 -136 18 -332 -7 -150 -9 -273 -7 -337 2 -40 -17
-220 -27 -256 -6 -24 -9 -58 -6 -76 l6 -32 -57 0 c-50 -1 -60 -4 -82 -29 -16
-19 -23 -37 -20 -55 3 -22 0 -26 -22 -28 -48 -4 -136 -124 -157 -214 -13 -60
-17 -76 -42 -175 -6 -23 -11 -52 -11 -65 0 -13 -3 -41 -6 -63 -12 -87 64 -114
211 -77 44 11 123 30 175 42 107 25 130 42 130 98 l0 35 30 -41 c25 -34 36
-42 75 -48 73 -11 141 3 225 45 8 4 19 21 24 37 l9 29 45 -42 c53 -48 68 -52
216 -55 103 -1 110 0 127 21 61 75 -13 133 -221 176 -115 23 -170 3 -170 -64
l0 -25 -16 22 c-8 12 -21 22 -28 22 -8 0 -11 11 -8 33 2 22 -3 41 -16 57 -22
27 -79 33 -193 19 -35 -4 -66 -5 -68 -3 -12 12 26 28 115 49 111 26 192 58
200 78 3 8 15 12 34 9 15 -2 68 5 117 17 48 11 150 25 225 30 132 10 139 10
174 -11 47 -28 112 -28 134 0 20 24 31 176 30 402 0 74 4 214 10 310 6 96 13
317 15 492 4 291 3 318 -13 338 -24 29 -89 31 -112 2 -14 -17 -32 -87 -61
-232 -4 -25 -13 -97 -19 -160 -6 -63 -18 -178 -26 -255 -13 -123 -13 -157 0
-280 8 -77 19 -154 25 -172 14 -47 18 -108 6 -106 -6 0 -13 21 -18 45 -4 23
-14 68 -22 98 -8 30 -23 118 -34 195 -21 144 -31 199 -76 390 -54 230 -66 321
-72 553 -7 254 -10 264 -77 264 -21 0 -45 -7 -56 -17 -24 -21 -50 -97 -50
-145 0 -20 -7 -63 -16 -95 -8 -33 -14 -78 -13 -100 1 -23 -5 -54 -16 -75 -22
-43 -32 -214 -17 -315 11 -79 -1 -110 -17 -44 -25 98 -34 128 -66 214 -19 50
-41 119 -50 155 -9 36 -28 98 -41 139 -22 66 -49 218 -69 383 -3 32 -14 67
-23 78 -20 25 -71 29 -108 10 -20 -11 -29 -11 -44 -2 -38 23 -94 24 -188 2
-121 -29 -130 -40 -114 -148 7 -42 12 -97 12 -122 0 -63 19 -85 95 -110 39
-13 65 -27 65 -36 0 -17 4 -17 -43 0 -96 33 -121 -4 -131 -189 -5 -113 -11
-147 -35 -213 -65 -175 -163 -355 -257 -472 -72 -89 -214 -296 -214 -311 0 -5
-4 -9 -8 -9 -5 0 -3 42 4 93 26 181 46 333 55 427 5 52 13 106 18 120 11 28
34 190 30 205 -5 17 13 168 22 189 7 18 50 312 66 465 3 24 0 60 -6 80 -6 20
-12 108 -14 195 -3 155 -2 160 20 182 34 34 30 70 -12 108 -28 26 -36 42 -43
89 -8 51 -7 57 9 57 22 0 49 37 49 66 0 12 -15 41 -34 63 -40 47 -76 136 -76
185 0 29 -43 317 -70 466 -5 30 -17 98 -25 150 -9 52 -22 124 -31 160 -8 36
-21 101 -29 145 -8 44 -19 96 -24 115 -18 57 -14 90 9 90 25 0 42 29 65 108
23 78 13 105 -48 132 -85 38 -93 49 -107 155 -15 111 -7 128 59 139 51 8 130
51 164 89 l29 32 -23 -35 c-12 -19 -33 -48 -46 -63 -13 -16 -23 -37 -23 -46 0
-10 -13 -38 -30 -62 -52 -76 -34 -129 49 -149 79 -19 170 20 205 88 27 53 86
325 73 338 -3 3 5 21 17 39 13 18 29 55 36 81 12 41 12 51 -3 76 -16 28 -16
29 13 34 37 8 55 29 75 84 22 61 58 105 122 147 81 54 104 114 64 165 -11 14
-49 38 -85 54 -65 29 -86 57 -51 70 16 6 153 -36 225 -69 32 -15 66 -21 118
-22 66 0 76 2 93 24 13 16 19 36 17 57 -1 18 0 36 3 39 4 3 40 -15 82 -39 98
-58 129 -64 216 -37 116 35 240 91 261 118 15 20 20 41 20 89 0 56 -4 68 -28
95 -28 31 -30 32 -148 39 -65 5 -141 13 -169 20 -27 6 -90 18 -140 25 -278 44
-275 43 -327 97 -27 27 -48 53 -48 59 0 16 22 10 57 -17 32 -24 41 -26 130
-25 53 1 99 3 102 5 3 2 101 7 216 10 289 8 530 46 568 88 29 34 17 220 -19
275 -14 22 -89 43 -207 58 -47 6 -81 18 -162 55 -193 88 -211 94 -266 94 -31
1 -63 -4 -70 -10 -17 -13 -64 -3 -63 14 3 41 1 39 79 44 59 3 254 -14 302 -26
66 -17 250 -23 316 -11 45 9 77 51 77 102 0 50 -34 78 -115 97 -69 16 -179 57
-246 92 -37 19 -129 45 -138 40 -14 -9 -93 -18 -170 -21 -74 -2 -87 -5 -103
-25 -10 -12 -18 -32 -18 -43 0 -34 -32 -137 -42 -137 -6 0 -8 6 -5 14 3 8 11
43 17 78 6 35 17 95 25 133 31 150 55 282 61 328 3 26 9 47 13 47 16 0 19
-153 5 -208 -28 -106 -9 -154 60 -154 44 0 67 18 91 72 17 38 18 39 34 19 16
-21 21 -21 114 -16 12 0 83 -3 157 -8 199 -13 220 -12 243 16 18 22 19 36 14
151 -6 161 -11 170 -109 198 -40 11 -86 28 -102 37 -45 25 -104 21 -153 -10
-23 -14 -44 -35 -48 -46 -5 -17 -10 -18 -40 -10 -19 6 -43 9 -52 7 -14 -2 -19
6 -24 40 -8 62 -43 94 -104 96 l-48 1 1 55 c0 48 20 232 25 236 1 1 20 -1 42
-5 39 -6 40 -8 48 -56 9 -54 67 -185 91 -205 9 -6 32 -12 53 -12 47 0 68 25
113 135 18 45 55 126 82 179 26 54 48 110 48 126 0 34 -25 72 -49 72 -9 0 -22
5 -27 10 -13 13 -56 15 -114 6 -31 -5 -53 -15 -70 -35 -24 -28 -25 -28 -40 -9
-11 14 -29 20 -65 21 -30 1 -55 8 -62 17 -40 48 36 376 102 442 22 22 150 69
224 82 19 3 57 17 86 31 28 14 73 27 100 30 28 3 72 7 99 10 34 3 58 12 75 29
27 25 55 36 81 31 8 -2 38 -8 65 -14z m1160 -151 c-28 -12 -95 -12 -95 0 0 6
25 10 58 9 41 0 51 -3 37 -9z m2464 -742 l24 -27 -34 9 c-19 6 -35 10 -37 10
-1 0 2 9 8 21 7 11 12 19 13 17 1 -1 13 -15 26 -30z m701 -4334 c0 -35 -90
-114 -131 -114 -18 0 -9 29 11 35 35 11 78 55 91 92 8 26 14 32 20 22 5 -8 9
-23 9 -35z m-5621 -3488 c-3 -3 -11 5 -18 17 -13 21 -12 21 5 5 10 -10 16 -20
13 -22z m-1142 -3698 c-3 -8 -6 -5 -6 6 -1 11 2 17 5 13 3 -3 4 -12 1 -19z"/>
<path d="M9260 24821 c-19 -5 -58 -57 -66 -88 -1 -7 -81 21 -94 32 -20 17 -46
20 -98 11 -100 -18 -96 -135 6 -139 49 -2 53 -16 17 -59 -30 -35 -32 -76 -6
-110 18 -22 19 -28 6 -64 -9 -26 -20 -40 -34 -42 -25 -4 -51 -38 -51 -68 0
-42 30 -64 95 -70 95 -9 108 -7 136 26 24 28 30 30 92 30 36 0 96 6 134 14 37
8 90 17 116 21 58 8 75 30 112 148 31 98 31 122 0 153 -13 13 -29 33 -35 44
-13 24 -79 71 -154 109 -32 17 -63 35 -70 40 -16 14 -77 21 -106 12z"/>
<path d="M8864 24643 c-12 -2 -30 -13 -40 -24 -9 -10 -23 -19 -31 -19 -19 0
-53 -59 -53 -93 0 -32 55 -95 85 -98 52 -4 65 2 89 40 14 22 37 51 51 65 14
14 25 36 25 50 0 51 -64 92 -126 79z"/>
<path d="M10870 24573 c-8 -3 -29 -11 -46 -19 -17 -7 -55 -13 -84 -13 -35 1
-57 -3 -68 -14 -14 -15 -17 -15 -33 -1 -27 24 -89 21 -111 -6 -29 -36 -22 -66
26 -118 24 -26 45 -59 48 -74 5 -28 5 -28 -56 -29 -33 -1 -77 -4 -96 -7 -79
-11 -196 -4 -300 18 -43 10 -62 20 -84 47 -35 42 -125 84 -186 86 -37 2 -48 7
-62 30 -17 26 -35 32 -83 28 -35 -4 -52 -36 -59 -113 -10 -110 -44 -238 -72
-271 -45 -54 -23 -111 48 -122 24 -4 88 -18 143 -32 91 -22 107 -24 191 -14
56 6 103 17 119 27 20 13 52 18 138 20 123 2 185 -8 204 -36 7 -10 25 -20 40
-23 29 -6 120 10 138 23 16 12 68 23 94 21 32 -4 191 48 213 68 32 30 138 294
138 344 0 20 -73 149 -94 166 -14 12 -84 21 -106 14z"/>
<path d="M11633 24392 c-30 -4 -93 -76 -93 -106 0 -40 31 -68 75 -68 33 0 45
6 77 41 41 43 47 73 23 108 -15 21 -45 31 -82 25z"/>
<path d="M8490 24220 c-20 -4 -39 -33 -97 -145 -39 -77 -72 -150 -72 -161 -2
-45 28 -64 118 -75 103 -12 157 -5 175 24 9 15 16 72 19 169 5 129 4 150 -11
168 -18 22 -83 32 -132 20z"/>
<path d="M9422 24133 c-13 -3 -31 -18 -40 -34 -10 -16 -25 -29 -35 -29 -26 0
-67 -45 -67 -74 0 -34 54 -94 93 -104 18 -5 57 -4 87 0 69 11 94 36 86 88 -3
19 -6 51 -6 71 1 61 -49 95 -118 82z"/>
<path d="M8703 24102 c-41 -6 -53 -38 -53 -142 0 -148 29 -178 175 -181 51 -2
61 2 78 22 16 21 18 33 13 89 -8 76 -29 117 -77 147 -18 12 -43 31 -54 41 -22
22 -49 29 -82 24z"/>
<path d="M10087 23848 c-63 -17 -95 -88 -62 -135 31 -45 145 -36 184 14 61 77
-14 151 -122 121z"/>
<path d="M11362 23742 c-13 -2 -36 -22 -53 -45 -28 -38 -30 -47 -24 -92 3 -27
14 -61 22 -75 10 -15 16 -41 14 -66 -4 -65 34 -99 105 -95 12 1 42 28 75 69
66 79 79 102 79 136 0 30 -54 95 -114 135 -45 31 -70 38 -104 33z"/>
<path d="M9633 23702 c-49 -7 -69 -80 -35 -122 13 -16 29 -22 57 -22 45 0 75
28 75 71 0 53 -39 82 -97 73z"/>
<path d="M11801 23654 c-115 -41 -120 -53 -116 -278 4 -199 6 -208 69 -208 44
0 61 13 88 66 12 23 32 56 45 73 34 45 46 92 50 209 4 86 2 103 -14 121 -25
29 -70 35 -122 17z"/>
<path d="M8723 23503 c-38 -7 -53 -41 -53 -114 0 -97 10 -105 140 -123 58 -8
118 -12 133 -9 36 7 57 38 57 83 0 47 -21 75 -78 104 -43 21 -169 68 -175 65
-1 -1 -12 -4 -24 -6z"/>
<path d="M12173 23211 c-51 -17 -124 -57 -161 -88 -29 -23 -52 -114 -52 -202
0 -86 18 -113 75 -113 35 0 45 7 114 79 168 175 163 168 156 232 -12 99 -44
122 -132 92z"/>
<path d="M11523 23092 c-32 -5 -53 -40 -53 -88 0 -58 25 -86 75 -86 50 0 75
28 75 86 0 67 -33 98 -97 88z"/>
<path d="M8763 22713 c-32 -6 -53 -41 -53 -88 0 -52 21 -81 62 -88 18 -4 87
-2 152 2 106 8 122 11 138 31 47 58 6 112 -98 128 -93 15 -174 21 -201 15z"/>
<path d="M12285 22532 c-11 -3 -40 -18 -64 -36 -24 -17 -61 -43 -83 -58 -21
-16 -42 -28 -47 -28 -15 0 -101 -99 -101 -116 0 -45 24 -147 39 -165 17 -21
76 -29 101 -14 11 7 71 84 135 174 22 31 57 78 78 105 20 27 37 58 37 70 0 47
-44 78 -95 68z"/>
<path d="M12334 21981 c-42 -12 -254 -162 -259 -184 -2 -12 -6 -89 -8 -172 -3
-120 -8 -161 -25 -205 -28 -75 -45 -155 -38 -177 3 -11 24 -36 45 -57 30 -30
47 -38 74 -38 48 0 52 4 86 71 15 31 62 109 103 172 41 63 78 120 83 128 29
49 42 413 16 444 -14 18 -48 25 -77 18z"/>
<path d="M12813 21892 c-24 -4 -75 -67 -148 -182 -26 -41 -72 -101 -102 -132
l-54 -58 6 -62 c4 -35 11 -85 16 -111 5 -26 9 -63 9 -81 0 -48 28 -78 72 -78
20 0 41 2 46 6 20 12 108 175 154 285 62 148 81 215 74 254 -3 20 0 39 9 51
42 56 -7 119 -82 108z"/>
<path d="M10165 21881 c-23 -7 -96 -55 -130 -87 -18 -17 -24 -38 -33 -120 -10
-103 -15 -212 -13 -276 1 -21 2 -86 1 -145 -1 -291 0 -307 19 -333 10 -14 21
-35 25 -46 11 -35 48 -60 116 -79 138 -38 154 -24 164 137 15 235 18 573 6
688 -19 188 -75 282 -155 261z"/>
<path d="M9535 21663 c-11 -3 -66 -25 -121 -49 -56 -24 -109 -44 -117 -44 -9
0 -29 -12 -46 -26 -28 -23 -31 -24 -31 -7 0 29 -27 60 -57 66 -34 7 -270 -39
-300 -59 -33 -21 -37 -54 -19 -169 9 -57 16 -135 16 -173 0 -52 5 -75 18 -92
28 -34 80 -29 144 13 71 48 100 57 170 58 55 1 61 -1 91 -34 36 -40 107 -61
158 -47 17 5 31 5 34 -1 4 -5 13 -9 22 -9 9 0 21 -7 28 -16 6 -9 29 -23 51
-31 21 -8 75 -27 119 -43 44 -15 98 -35 120 -43 49 -19 91 -12 111 18 17 27
20 130 9 330 -4 77 -7 176 -6 221 3 117 -17 136 -129 120 -14 -2 -32 -4 -40
-5 -9 0 -37 -19 -64 -41 -26 -22 -51 -40 -55 -40 -4 0 -6 13 -3 28 7 49 -47
88 -103 75z"/>
<path d="M7743 21643 c-27 -5 -53 -39 -53 -69 0 -40 32 -67 80 -67 33 0 48 6
62 23 47 58 -7 128 -89 113z"/>
<path d="M11083 21263 c-29 -6 -73 -58 -73 -88 0 -69 95 -92 151 -36 61 62 12
140 -78 124z"/>
<path d="M12373 21212 c-11 -2 -44 -27 -72 -57 -71 -75 -70 -101 7 -172 31
-29 66 -54 77 -55 75 -5 111 24 100 82 -3 19 -9 65 -13 101 -9 88 -32 111 -99
101z"/>
<path d="M11505 21132 c-11 -2 -27 -9 -35 -16 -8 -6 -33 -20 -54 -31 -87 -44
-117 -98 -78 -143 30 -36 83 -33 146 11 26 17 60 39 74 48 76 45 34 149 -53
131z"/>
<path d="M12882 21102 c-14 -2 -39 -26 -64 -60 -23 -31 -81 -98 -130 -149
l-88 -91 0 -59 c0 -68 14 -92 73 -130 92 -58 153 -25 231 126 55 108 76 178
76 256 0 87 -27 118 -98 107z"/>
<path d="M11993 21072 c-12 -2 -26 -9 -32 -15 -14 -18 -71 -168 -71 -189 0
-10 -11 -51 -25 -90 -14 -39 -25 -82 -25 -95 0 -13 -9 -41 -20 -63 -22 -44
-26 -91 -9 -123 9 -15 12 -116 11 -337 -1 -173 2 -321 7 -328 4 -7 4 -36 -1
-63 -5 -29 -5 -69 0 -98 5 -29 5 -56 0 -65 -10 -17 16 -208 35 -261 6 -17 93
-112 193 -213 172 -174 184 -184 220 -184 31 0 43 6 64 32 l26 32 28 -36 c15
-20 36 -36 47 -36 12 0 19 -7 19 -19 0 -30 38 -111 55 -117 11 -5 12 -11 5
-24 -16 -29 -12 -65 10 -93 11 -14 20 -36 20 -49 0 -22 85 -177 113 -205 17
-17 54 -18 122 -5 38 8 53 7 65 -3 8 -7 25 -16 38 -19 32 -10 27 -21 -11 -23
-37 -3 -67 -33 -67 -69 0 -43 39 -71 122 -89 94 -20 166 -14 191 16 37 46 34
66 -31 194 -124 243 -186 417 -208 583 -31 234 -82 391 -150 459 -13 13 -24
29 -24 36 0 7 -6 22 -14 33 -17 24 -22 71 -12 102 8 25 -7 138 -29 217 -8 28
-22 104 -31 170 -9 66 -21 145 -26 175 -5 30 -13 101 -17 157 -10 137 -27 162
-106 153 -28 -3 -43 -17 -68 -64 -15 -30 -22 -36 -25 -23 -6 29 17 84 54 129
46 55 64 90 64 128 0 38 -15 53 -161 164 -92 70 -109 79 -146 79 -23 0 -49 -6
-58 -13 -20 -17 -29 -7 -16 18 19 36 12 63 -25 97 -36 34 -62 43 -101 37z"/>
<path d="M8123 21012 c-37 -6 -53 -40 -53 -114 0 -37 -6 -118 -14 -180 -18
-143 -19 -197 -1 -224 29 -45 120 -36 265 26 50 22 98 40 106 40 24 0 64 47
64 74 0 56 -68 153 -187 263 -114 107 -137 122 -180 115z"/>
<path d="M7530 20910 c-29 -7 -157 -151 -166 -186 -4 -14 -14 -24 -24 -24 -25
0 -60 -47 -60 -79 0 -43 25 -69 73 -75 23 -3 87 -10 142 -16 55 -7 145 -20
200 -30 111 -21 149 -18 170 13 27 39 19 68 -36 116 -103 93 -161 157 -192
215 -34 63 -58 78 -107 66z"/>
<path d="M11020 20878 c-93 -24 -107 -134 -19 -152 72 -14 139 27 139 85 0 55
-53 85 -120 67z"/>
<path d="M8922 20822 c-45 -7 -54 -39 -46 -162 5 -79 12 -117 23 -131 12 -14
45 -25 121 -40 58 -11 130 -26 160 -34 110 -28 143 0 134 110 -4 38 -12 80
-20 91 -13 21 -207 127 -265 145 -68 21 -85 25 -107 21z"/>
<path d="M11423 20763 c-51 -10 -68 -83 -34 -139 31 -51 100 -52 132 -1 50 82
-4 159 -98 140z"/>
<path d="M10135 20643 c-11 -3 -49 -18 -85 -33 -88 -39 -375 -84 -594 -94 -72
-3 -82 -6 -103 -30 -29 -34 -30 -83 -3 -133 12 -23 20 -57 20 -85 0 -34 6 -54
23 -73 22 -26 220 -122 262 -128 13 -1 30 -8 38 -16 9 -7 29 -13 45 -13 41 -1
169 50 189 76 10 12 26 25 36 29 10 4 23 19 30 34 9 20 20 29 40 30 28 2 87
26 182 73 37 19 52 33 58 55 5 17 13 44 18 61 5 17 9 69 9 116 0 110 -12 127
-90 133 -30 2 -64 1 -75 -2z"/>
<path d="M7192 20493 c-12 -2 -30 -16 -39 -30 -16 -23 -15 -34 7 -166 28 -171
28 -285 1 -387 -11 -41 -32 -120 -46 -175 -14 -55 -34 -131 -45 -170 -11 -38
-20 -82 -20 -96 0 -39 32 -72 102 -108 35 -18 86 -50 113 -71 28 -21 59 -39
70 -40 45 -5 65 1 80 23 14 21 14 37 -1 158 -16 136 -14 237 5 319 39 162 65
251 101 355 12 33 24 97 27 142 7 91 -4 118 -69 179 -35 34 -48 38 -154 54
-38 5 -78 12 -89 14 -11 2 -30 2 -43 -1z"/>
<path d="M8391 20483 c-58 -18 -91 -55 -91 -103 0 -34 26 -70 51 -70 10 0 19
-4 19 -10 0 -5 43 -53 95 -106 86 -87 98 -96 132 -96 26 0 42 6 55 22 26 32
33 86 16 113 -11 15 -14 39 -11 77 6 66 -22 140 -61 166 -37 23 -139 27 -205
7z"/>
<path d="M7800 20411 c-31 -9 -55 -50 -47 -82 12 -46 91 -152 118 -160 44 -11
79 1 100 35 24 39 24 53 0 110 -29 67 -110 113 -171 97z"/>
<path d="M8713 20102 c-48 -7 -68 -72 -35 -112 39 -48 132 -17 132 44 0 48
-41 76 -97 68z"/>
<path d="M10911 20100 c-16 -4 -38 -27 -63 -65 -62 -99 -118 -199 -118 -214 0
-7 -11 -26 -25 -43 -45 -53 -27 -102 53 -142 101 -50 196 -53 219 -5 6 13 19
40 29 60 11 24 15 46 10 65 -4 16 -6 58 -5 94 1 36 1 83 1 105 0 22 -1 53 -1
69 -1 58 -43 90 -100 76z"/>
<path d="M8003 19852 c-12 -2 -36 -19 -53 -39 -31 -35 -31 -36 -27 -127 6
-147 41 -212 155 -290 102 -70 212 -4 212 127 0 21 -15 44 -55 86 -30 32 -79
97 -108 146 -55 91 -73 105 -124 97z"/>
<path d="M11433 19772 c-28 -4 -143 -146 -143 -177 0 -41 30 -64 98 -74 121
-19 152 3 152 109 0 105 -36 153 -107 142z"/>
<path d="M9347 19609 c-32 -9 -71 -37 -139 -101 -53 -49 -61 -84 -31 -128 l17
-25 -22 19 c-39 34 -85 24 -151 -33 -82 -71 -121 -118 -121 -144 1 -60 22
-160 44 -203 57 -113 152 -153 196 -82 21 35 26 135 11 241 -4 31 -6 59 -4 61
3 2 17 1 32 -4 47 -13 80 -1 105 39 13 20 58 73 100 119 70 75 76 86 76 125 0
86 -47 134 -113 116z"/>
<path d="M8376 19456 c-72 -20 -98 -86 -76 -192 14 -65 18 -70 151 -173 74
-58 90 -65 136 -62 28 1 54 40 64 94 4 23 13 56 20 74 11 28 11 37 -4 69 -10
20 -26 38 -37 41 -11 3 -22 13 -25 24 -8 23 -129 119 -164 128 -14 5 -44 3
-65 -3z"/>
<path d="M11450 19441 c-32 -9 -55 -50 -47 -82 4 -13 22 -41 40 -62 27 -33 38
-39 72 -39 51 0 75 28 75 88 0 73 -64 117 -140 95z"/>
<path d="M9718 19389 c-40 -10 -138 -89 -144 -115 -7 -27 10 -77 32 -95 7 -6
30 -11 51 -11 32 0 45 8 100 65 66 68 76 94 48 134 -17 24 -49 32 -87 22z"/>
<path d="M7903 19382 c-53 -8 -80 -91 -49 -151 21 -40 41 -53 83 -53 29 0 43
7 65 31 38 43 38 89 -2 134 -30 35 -56 45 -97 39z"/>
<path d="M11043 19352 c-45 -7 -62 -46 -61 -135 0 -48 -4 -93 -12 -109 -15
-32 -7 -88 18 -118 13 -16 29 -22 56 -22 75 0 95 49 96 227 0 141 -17 169 -97
157z"/>
<path d="M8043 19202 c-12 -2 -27 -10 -33 -18 -7 -8 -21 -14 -31 -14 -24 0
-49 -38 -49 -76 0 -39 59 -130 133 -205 75 -76 132 -85 168 -26 33 55 16 137
-29 137 -14 0 -17 7 -14 38 2 29 -5 50 -36 98 -40 62 -60 74 -109 66z"/>
<path d="M11660 19100 c-18 -4 -34 -23 -57 -65 -37 -70 -41 -113 -13 -148 14
-17 20 -40 20 -72 0 -39 5 -52 30 -75 36 -33 36 -35 10 -67 -43 -55 -12 -116
60 -116 45 0 80 26 80 60 0 8 11 28 25 45 31 37 34 103 6 139 -22 29 -32 74
-35 154 -2 101 -55 162 -126 145z"/>
<path d="M8733 18972 c-29 -4 -73 -57 -73 -87 0 -31 93 -137 128 -148 67 -19
132 16 132 71 0 43 -58 132 -86 132 -6 0 -17 6 -23 14 -13 16 -45 23 -78 18z"/>
<path d="M11413 18662 c-26 -4 -53 -37 -53 -65 0 -10 15 -67 34 -125 19 -59
47 -161 63 -227 33 -140 50 -167 108 -167 60 0 92 51 65 102 -6 11 -19 102
-30 202 -24 216 -25 219 -47 246 -18 21 -97 41 -140 34z"/>
<path d="M10533 18542 c-26 -4 -53 -37 -53 -64 0 -24 45 -124 60 -133 25 -16
84 -7 102 15 24 30 22 55 -10 120 -28 56 -50 70 -99 62z"/>
<path d="M12263 18312 c-27 -4 -53 -38 -53 -67 0 -24 47 -106 88 -154 27 -32
35 -35 82 -35 43 0 56 4 71 23 25 31 26 123 1 171 -16 33 -22 36 -92 50 -41 9
-85 14 -97 12z"/>
<path d="M7245 18284 c-80 -21 -116 -79 -80 -131 20 -28 101 -65 144 -65 51 0
71 29 71 102 0 93 -39 120 -135 94z"/>
<path d="M10973 18072 c-48 -7 -68 -72 -35 -112 39 -48 132 -17 132 44 0 48
-41 76 -97 68z"/>
<path d="M7142 18043 c-34 -7 -50 -41 -58 -123 -5 -65 -4 -78 12 -97 35 -40
93 -34 148 17 77 71 95 150 42 185 -25 16 -105 27 -144 18z"/>
<path d="M12680 17961 c-13 -4 -33 -22 -44 -40 -18 -31 -18 -41 -8 -140 5 -58
15 -131 21 -161 6 -30 13 -111 15 -180 8 -209 26 -246 124 -241 14 1 29 12 40
31 9 16 22 30 29 30 7 0 49 25 95 55 46 31 112 69 148 86 94 43 94 44 104 73
17 47 -2 76 -87 126 -50 29 -112 80 -175 143 -53 53 -102 97 -108 97 -7 0 -14
13 -17 29 -8 38 -54 88 -87 94 -14 2 -36 2 -50 -2z"/>
<path d="M10952 17903 c-40 -8 -56 -49 -69 -172 -6 -64 -15 -131 -19 -149 -11
-55 13 -77 103 -98 43 -9 137 -36 208 -60 72 -23 159 -50 194 -59 35 -9 96
-32 135 -52 129 -65 186 -44 186 67 0 63 -26 110 -60 110 -9 0 -23 7 -31 16
-7 8 -33 27 -58 40 -102 56 -131 77 -236 178 -114 110 -173 149 -259 172 -52
14 -55 14 -94 7z"/>
<path d="M12043 17852 c-28 -4 -53 -38 -53 -70 0 -15 15 -39 38 -62 20 -21 45
-54 55 -75 10 -20 61 -104 113 -186 53 -82 115 -184 137 -226 44 -81 65 -96
117 -83 53 12 77 120 44 198 -10 26 -13 51 -9 84 6 41 4 50 -17 70 -16 17 -22
33 -20 53 2 19 -10 55 -30 95 -36 71 -30 66 -223 155 -94 43 -122 52 -152 47z"/>
<path d="M10572 17702 c-12 -2 -29 -13 -37 -25 -18 -28 -30 -120 -18 -141 6
-10 6 -45 0 -89 -9 -71 3 -186 25 -230 5 -10 10 -51 12 -92 4 -106 34 -142
106 -125 41 10 59 55 65 169 4 67 11 111 21 127 12 17 14 40 10 96 -2 40 -5
89 -5 109 0 28 -14 56 -54 115 -54 79 -76 94 -125 86z"/>
<path d="M10893 17453 c-38 -7 -53 -41 -53 -114 0 -70 23 -119 56 -119 27 0
164 -50 251 -90 46 -22 87 -40 90 -40 4 0 71 -36 150 -81 158 -90 201 -100
235 -59 30 38 23 68 -29 117 -65 60 -216 173 -283 210 -290 161 -355 189 -417
176z"/>
<path d="M11983 17212 c-54 -8 -73 -107 -30 -159 13 -15 33 -44 45 -64 31 -51
46 -61 89 -61 40 0 73 28 73 63 0 23 -83 191 -102 206 -17 13 -47 20 -75 15z"/>
<path d="M10862 17152 c-36 -6 -49 -39 -60 -152 -11 -108 -5 -172 20 -195 7
-7 42 -24 78 -38 36 -14 108 -46 160 -70 52 -25 142 -62 200 -82 58 -21 132
-51 164 -67 72 -36 123 -39 148 -8 46 57 26 81 -211 258 -86 63 -202 158 -258
210 -133 123 -183 153 -241 144z"/>
<path d="M9232 16792 c-39 -6 -52 -40 -51 -135 1 -106 14 -129 74 -129 60 0
73 23 74 129 1 117 -20 146 -97 135z"/>
<path d="M10802 16553 c-34 -7 -50 -40 -58 -123 -6 -71 -5 -77 19 -106 19 -22
43 -34 98 -48 39 -11 94 -30 121 -43 139 -67 317 -123 358 -113 35 8 57 51 45
86 -8 21 -38 44 -123 93 -61 36 -153 95 -203 131 -159 115 -200 134 -257 123z"/>
<path d="M8943 16402 c-36 -5 -53 -40 -53 -107 0 -117 29 -167 96 -167 61 0
78 29 71 120 -9 118 -44 165 -114 154z"/>
<path d="M9344 16041 c-23 -6 -173 -165 -205 -216 -11 -16 -19 -42 -19 -57 0
-15 -5 -38 -11 -52 -9 -18 -9 -46 -1 -103 6 -43 22 -170 36 -283 14 -113 31
-242 37 -287 7 -49 10 -141 7 -232 -4 -107 -2 -155 6 -166 11 -15 98 -56 156
-74 42 -13 73 1 94 42 17 36 17 44 4 116 -9 52 -11 85 -5 99 6 14 5 73 -2 164
-16 183 -16 175 -7 363 4 88 8 267 8 397 0 199 -2 242 -15 262 -17 25 -49 36
-83 27z"/>
<path d="M9722 15982 c-31 -5 -45 -33 -66 -127 -10 -44 -22 -87 -27 -95 -21
-35 -49 -103 -49 -121 0 -11 -6 -30 -14 -42 -33 -52 -28 -189 8 -226 22 -21
130 -21 172 1 38 20 84 86 84 119 0 30 -26 69 -46 69 -9 0 -14 11 -14 35 0 28
5 37 23 44 13 5 36 24 51 42 25 29 27 37 20 83 -23 171 -62 231 -142 218z"/>
<path d="M10742 15763 c-30 -6 -49 -37 -57 -96 -11 -70 7 -92 87 -106 128 -23
198 -29 229 -21 25 8 34 6 48 -10 18 -21 97 -40 136 -32 48 9 70 67 40 108
-24 36 -143 60 -168 35 -6 -6 -18 2 -31 22 -17 26 -39 38 -111 63 -101 35
-140 43 -173 37z"/>
<path d="M7312 15690 c-81 -9 -95 -17 -121 -69 -38 -78 -44 -114 -31 -190 16
-93 33 -114 94 -114 32 0 56 6 77 22 22 16 42 22 77 20 168 -5 212 -3 227 11
20 21 45 119 45 179 0 52 -28 101 -57 101 -9 0 -24 6 -32 14 -38 32 -131 41
-279 26z"/>
<path d="M7770 15621 c-18 -4 -33 -23 -54 -63 -25 -51 -28 -64 -21 -113 3 -30
14 -63 23 -74 23 -27 166 -56 213 -44 42 11 74 57 84 119 6 42 3 52 -22 88
-23 33 -41 45 -91 62 -83 29 -102 33 -132 25z"/>
<path d="M8163 15513 c-49 -10 -68 -73 -34 -114 16 -19 28 -23 76 -23 48 0 60
4 76 23 54 66 -18 136 -118 114z"/>
<path d="M9833 15392 c-22 -3 -83 -64 -83 -82 0 -6 -7 -10 -15 -10 -63 0 -195
-117 -196 -173 -1 -72 -10 -214 -15 -245 -4 -21 -1 -40 10 -57 9 -13 16 -35
16 -48 0 -13 6 -32 14 -42 12 -17 12 -22 -5 -44 -26 -32 -26 -110 0 -143 11
-13 23 -41 26 -61 11 -56 34 -79 80 -79 28 0 44 6 56 21 18 22 59 146 59 179
0 11 14 34 30 52 70 75 93 121 108 215 16 98 17 205 3 268 -8 31 -6 45 6 64
12 17 14 38 10 79 -9 86 -38 116 -104 106z"/>
<path d="M7110 15002 c-51 -15 -78 -118 -42 -162 23 -28 93 -32 120 -6 10 9
24 16 30 16 18 0 52 51 52 80 0 45 -28 70 -85 75 -27 2 -61 1 -75 -3z"/>
<path d="M12122 14842 c-27 -4 -82 -83 -82 -117 0 -30 28 -65 52 -65 17 0 19
-5 15 -27 -3 -16 -12 -46 -21 -68 -8 -22 -15 -58 -16 -80 0 -49 32 -105 60
-105 13 0 20 -7 20 -18 0 -10 7 -27 15 -38 8 -10 15 -26 15 -35 0 -9 9 -28 20
-42 11 -14 20 -33 20 -42 0 -9 11 -27 25 -41 14 -14 25 -28 25 -32 0 -4 7 -18
16 -30 9 -13 17 -47 19 -75 1 -29 16 -115 34 -192 52 -234 71 -274 139 -296
20 -6 50 -21 65 -31 54 -38 139 -17 153 38 4 15 1 64 -5 111 -7 52 -9 121 -5
180 6 87 5 97 -15 123 -26 36 -26 40 -2 40 26 0 39 19 56 84 18 67 19 110 4
137 -6 12 -10 71 -10 135 1 96 -2 121 -19 154 -11 22 -28 44 -38 49 -14 7 -18
18 -14 40 5 35 -20 81 -43 81 -8 0 -15 6 -15 14 0 20 -39 66 -56 66 -8 0 -25
11 -37 25 -12 14 -35 26 -52 28 -17 2 -37 7 -44 11 -21 14 -81 9 -100 -8 -11
-10 -21 -12 -27 -6 -5 5 -23 11 -39 12 -17 1 -34 5 -40 8 -16 11 -48 16 -73
12z"/>
<path d="M11635 14667 c-150 -24 -216 -41 -273 -68 l-63 -31 -19 25 c-26 33
-50 36 -230 27 -300 -16 -290 -10 -290 -157 0 -52 -5 -125 -11 -163 -10 -59
-10 -73 4 -93 24 -36 62 -39 147 -9 68 24 87 26 210 24 224 -3 377 -50 579
-179 65 -42 116 -46 142 -14 24 29 26 244 3 310 -14 41 -14 48 2 76 10 20 14
42 11 57 -9 36 -45 78 -68 78 -15 0 -19 7 -19 38 0 73 -34 94 -125 79z"/>
<path d="M9202 14503 c-30 -6 -42 -26 -108 -183 -82 -198 -84 -204 -83 -283 1
-39 -4 -90 -9 -112 -6 -22 -10 -71 -10 -110 1 -38 -2 -100 -6 -136 -5 -40 -4
-74 1 -84 7 -11 5 -30 -3 -56 -8 -21 -14 -56 -14 -76 1 -21 -4 -94 -10 -163
-13 -152 -14 -186 -3 -272 13 -103 31 -112 173 -90 78 13 110 34 110 74 0 28
-38 98 -58 106 -10 4 -18 19 -18 37 -1 17 -5 40 -9 53 -14 42 13 22 49 -37 43
-70 52 -78 91 -84 23 -3 31 -10 37 -34 12 -47 41 -67 100 -67 43 0 54 4 74 27
22 26 22 27 18 274 -2 136 -9 269 -14 294 -10 51 -13 257 -4 307 5 25 0 42
-20 72 -14 22 -31 40 -36 40 -6 0 -4 10 4 23 17 26 16 258 -2 320 -13 50 -53
91 -122 126 -61 31 -94 40 -128 34z"/>
<path d="M10702 13933 c-31 -6 -53 -43 -50 -84 1 -19 -2 -57 -6 -85 -6 -42 -4
-54 12 -74 16 -19 29 -23 75 -24 46 -1 57 -4 57 -17 0 -27 33 -59 62 -61 15
-1 30 -8 32 -15 3 -7 32 -26 66 -43 33 -17 85 -46 115 -65 90 -58 156 -73 191
-44 9 7 27 15 40 16 18 3 24 -1 24 -15 0 -11 9 -31 20 -45 11 -14 20 -36 20
-49 0 -31 26 -68 48 -68 10 0 22 -13 29 -31 7 -17 21 -33 32 -36 11 -3 23 -14
26 -24 10 -30 90 -90 121 -90 168 -3 186 -1 202 15 9 9 20 42 23 73 4 32 12
83 18 113 6 30 8 78 6 105 -3 28 -4 63 -4 79 0 60 -19 72 -148 94 -261 46
-301 47 -328 9 -12 -17 -15 -18 -15 -5 0 24 -32 56 -60 60 -14 2 -32 10 -40
19 -8 9 -51 31 -95 50 -87 36 -179 90 -265 154 -105 79 -153 99 -208 88z"/>
<path d="M9763 13833 c-49 -9 -71 -90 -35 -131 17 -20 34 -25 80 -23 25 1 62
53 62 87 0 45 -52 77 -107 67z"/>
<path d="M8630 13401 c-36 -9 -106 -146 -115 -226 -7 -59 -8 -287 -1 -415 10
-203 30 -232 142 -207 59 14 94 61 94 125 0 23 7 53 15 65 11 17 16 65 20 173
5 147 5 151 -19 186 -33 50 -53 140 -38 173 36 79 -17 147 -98 126z"/>
<path d="M12503 13403 c-30 -6 -65 -50 -83 -102 -12 -37 -12 -47 1 -69 7 -14
26 -29 40 -33 33 -8 138 26 162 53 21 25 22 86 2 115 -13 18 -77 46 -95 42 -3
-1 -15 -4 -27 -6z"/>
<path d="M13629 13212 c-65 -18 -100 -54 -164 -171 -12 -20 -28 -47 -38 -61
-35 -50 -13 -112 44 -124 70 -14 139 27 139 82 0 21 2 23 15 12 9 -7 34 -13
57 -13 34 0 47 6 70 32 15 17 35 31 44 31 24 0 74 55 74 82 0 13 -11 40 -25
60 -20 30 -36 40 -92 57 -64 19 -91 22 -124 13z"/>
<path d="M8072 12772 c-37 -6 -82 -77 -82 -130 0 -39 -2 -43 -15 -32 -9 7 -36
13 -62 13 -36 0 -51 -5 -65 -23 -25 -31 -22 -79 7 -123 23 -34 39 -41 82 -40
9 0 8 -5 -2 -21 -8 -11 -17 -44 -21 -73 -6 -49 -4 -54 23 -81 25 -26 28 -32
16 -48 -7 -10 -13 -27 -13 -37 0 -16 -3 -17 -15 -7 -39 32 -142 -3 -160 -55
-5 -16 -21 -40 -34 -53 -18 -18 -22 -30 -17 -55 8 -40 8 -44 0 -84 -5 -28 -2
-37 23 -60 l30 -28 -32 1 c-18 1 -37 4 -44 8 -7 5 -29 7 -49 7 -42 -2 -77 -2
-89 0 -37 6 -55 -5 -87 -55 -20 -29 -36 -63 -36 -75 0 -12 -7 -33 -16 -46 -9
-14 -14 -36 -12 -50 5 -21 2 -25 -14 -19 -10 3 -37 3 -59 -1 -31 -5 -45 -14
-58 -36 -9 -16 -24 -29 -33 -29 -22 0 -48 -38 -48 -70 0 -31 45 -100 65 -100
9 0 15 -10 15 -24 0 -55 72 -87 148 -67 23 6 30 3 44 -19 17 -29 51 -40 94
-32 34 6 66 57 61 100 -2 25 1 32 15 32 22 0 78 75 78 104 1 12 7 32 15 46 28
49 7 120 -36 120 -32 0 -21 15 12 16 16 1 40 6 52 12 12 5 30 13 39 16 30 9
60 67 54 104 -4 26 -1 32 14 32 27 0 60 47 60 86 0 32 1 32 33 24 42 -12 163
-6 181 9 19 16 48 96 44 123 -2 15 4 27 17 33 22 11 56 103 54 145 -1 14 2 62
6 106 5 54 4 93 -3 114 -9 24 -9 37 0 53 6 12 12 52 12 89 1 76 -20 117 -68
129 -16 5 -34 17 -42 27 -14 21 -45 30 -82 24z"/>
<path d="M10975 12726 c-73 -24 -155 -68 -178 -95 -12 -14 -35 -27 -51 -29
-35 -4 -97 -34 -115 -56 -21 -25 -32 -84 -36 -179 -4 -108 9 -130 74 -130 40
0 46 5 122 84 43 46 82 95 85 109 4 20 12 25 37 27 22 2 42 13 65 38 18 19 37
35 43 35 18 0 117 68 128 89 17 31 13 57 -11 86 -28 32 -103 42 -163 21z"/>
<path d="M7303 12663 c-27 -5 -113 -116 -113 -145 0 -11 -10 -28 -22 -38 -22
-17 -23 -26 -24 -150 -2 -158 5 -173 79 -173 30 0 54 6 66 17 31 29 91 132 91
159 0 13 7 31 17 38 9 8 22 29 30 48 19 45 8 193 -16 221 -17 20 -70 31 -108
23z"/>
<path d="M9325 12643 c-11 -3 -26 -10 -33 -16 -8 -6 -31 -10 -51 -8 -42 3
-176 -29 -245 -58 -24 -11 -51 -30 -59 -43 -9 -13 -21 -65 -27 -117 -11 -87
-11 -95 7 -120 25 -33 48 -39 163 -40 52 -1 159 -8 238 -15 79 -8 155 -11 170
-7 37 10 59 51 46 88 -6 18 -6 50 0 89 8 56 7 65 -22 125 -39 82 -75 117 -127
123 -22 2 -49 2 -60 -1z"/>
<path d="M9280 12108 c-188 -13 -361 -44 -381 -67 -12 -15 -17 -54 -22 -168
-8 -192 -9 -191 129 -216 108 -19 179 -36 264 -61 30 -9 98 -23 150 -30 185
-27 186 -25 183 263 -4 313 8 303 -323 279z"/>
<path d="M11133 12093 c-12 -2 -27 -11 -33 -19 -7 -8 -20 -14 -29 -14 -10 0
-43 -30 -74 -66 -72 -83 -73 -103 -11 -204 60 -97 65 -102 109 -102 28 0 44 8
73 36 30 31 37 46 43 96 4 33 16 78 28 100 53 102 -3 194 -106 173z"/>
<path d="M6790 12020 c-46 -11 -67 -58 -74 -168 -8 -105 2 -170 29 -192 9 -7
34 -13 57 -13 33 0 47 6 65 27 22 25 23 35 22 164 -1 147 -9 176 -51 184 -13
2 -34 1 -48 -2z"/>
<path d="M10803 11698 c-58 -15 -80 -74 -45 -119 15 -18 29 -22 67 -22 55 0
85 25 85 72 0 57 -44 85 -107 69z"/>
<path d="M12763 11653 c-27 -5 -53 -39 -53 -68 0 -30 28 -65 51 -65 19 0 19
-1 5 -22 -9 -12 -16 -32 -16 -43 0 -25 47 -171 66 -205 7 -14 29 -60 48 -102
19 -42 43 -82 54 -89 24 -15 18 -39 -10 -39 -10 0 -31 -12 -45 -26 -24 -24
-25 -31 -20 -87 7 -78 43 -193 67 -210 9 -6 20 -25 23 -42 3 -16 8 -40 12 -52
6 -17 3 -23 -9 -23 -8 0 -23 -11 -31 -24 -14 -20 -14 -42 -6 -161 8 -118 13
-143 32 -168 12 -16 17 -27 11 -23 -18 11 -73 -6 -88 -29 -12 -19 -13 -40 -3
-141 18 -184 -17 -406 -87 -559 -12 -26 -20 -31 -49 -31 -30 0 -47 -5 -105
-34 -30 -14 -61 -73 -60 -115 0 -22 -2 -54 -6 -72 -3 -17 -2 -39 4 -48 6 -12
5 -28 -2 -47 -9 -23 -8 -35 6 -58 l16 -28 -28 8 c-42 12 -77 1 -110 -37 -37
-41 -41 -97 -10 -136 25 -31 25 -37 1 -37 -22 0 -61 -44 -61 -69 0 -9 -7 -25
-15 -35 -20 -26 -19 -59 3 -86 24 -29 89 -31 112 -3 14 18 18 18 37 6 12 -8
44 -16 70 -18 87 -4 117 -14 134 -44 16 -28 77 -50 99 -36 6 3 10 0 10 -8 0
-30 34 -58 72 -60 31 -2 38 -6 38 -23 0 -11 7 -29 15 -40 20 -26 19 -34 -4
-34 -26 0 -59 -43 -67 -87 -5 -29 0 -48 27 -102 29 -55 40 -67 69 -76 19 -5
41 -14 49 -19 7 -5 32 -9 54 -9 52 0 82 32 72 78 -3 16 -10 60 -14 97 -9 75
-31 118 -61 118 -24 0 -25 8 -5 34 8 11 15 34 15 51 0 17 -7 40 -15 51 -8 10
-15 34 -15 52 0 18 -8 47 -17 65 -9 18 -20 55 -24 82 -13 85 -25 140 -33 153
-4 7 -3 12 1 12 5 0 15 -16 22 -35 13 -36 57 -75 85 -75 13 0 15 -4 6 -19 -5
-11 -10 -29 -10 -40 0 -23 65 -157 81 -167 6 -3 27 -6 47 -6 40 0 72 29 72 66
0 14 11 28 30 40 41 24 84 109 76 150 -4 17 -11 69 -16 116 -5 47 -14 110 -20
140 -6 30 -14 85 -18 121 -4 36 -12 72 -18 80 -13 16 -27 115 -25 177 2 32 -6
55 -28 92 -16 26 -33 66 -37 87 -7 41 -47 128 -64 138 -5 3 -10 23 -10 43 0
44 -23 82 -51 82 -11 0 -19 7 -19 18 -1 9 -3 46 -5 82 -8 97 -7 108 11 135 8
13 14 39 13 57 -1 18 8 66 20 107 25 79 29 155 18 336 -4 55 -7 107 -7 115
-11 180 -37 316 -65 340 -10 8 -11 18 -2 46 8 26 8 44 -1 68 -7 18 -12 50 -12
72 0 22 -6 49 -14 59 -8 12 -12 33 -8 57 6 48 -32 169 -61 197 -12 11 -35 21
-50 23 -16 2 -38 16 -50 30 -23 27 -56 38 -94 31z"/>
<path d="M8950 11536 c-36 -10 -49 -20 -67 -51 -29 -52 -29 -97 0 -129 19 -22
37 -28 131 -41 59 -8 125 -19 145 -24 20 -6 70 -13 111 -16 41 -4 94 -11 118
-16 142 -30 219 -29 245 3 17 20 19 33 13 113 -8 101 -21 130 -65 138 -125 25
-564 41 -631 23z"/>
<path d="M10850 11510 c-14 -3 -31 -18 -39 -32 -13 -22 -13 -32 -1 -68 21 -64
40 -82 85 -82 54 0 79 31 71 87 -12 72 -57 110 -116 95z"/>
<path d="M11743 11402 c-24 -4 -63 -46 -63 -68 0 -8 -8 -14 -18 -14 -23 0 -42
-21 -70 -78 -25 -49 -30 -138 -9 -166 12 -16 10 -22 -9 -41 -29 -29 -32 -123
-5 -156 24 -29 89 -29 113 0 20 26 23 116 4 146 -12 19 -10 20 26 22 21 0 45
6 53 13 21 17 48 96 43 124 -3 16 0 27 9 30 16 6 43 66 43 94 0 30 -42 85 -70
92 -14 3 -35 4 -47 2z"/>
<path d="M9385 11203 c-149 -7 -314 -27 -453 -54 -76 -15 -91 -48 -83 -179 0
-8 -2 -33 -5 -56 -5 -34 -2 -46 19 -70 l25 -29 279 0 c153 0 291 4 306 8 22 6
28 5 25 -5 -3 -7 -22 -16 -44 -20 -21 -5 -52 -15 -69 -22 -51 -24 -287 -79
-385 -91 -84 -10 -125 -23 -146 -46 -20 -22 -32 -91 -40 -225 -5 -75 -4 -83
19 -109 21 -25 30 -28 79 -27 30 1 75 6 99 11 55 13 139 14 139 2 0 -5 -21
-12 -47 -15 -27 -4 -68 -11 -93 -16 -25 -4 -73 -14 -108 -21 -43 -8 -68 -19
-77 -33 -20 -28 -20 -154 0 -182 30 -43 135 -37 172 10 26 32 44 24 30 -14 -8
-21 -8 -36 2 -56 10 -22 10 -25 -1 -17 -25 21 -80 22 -144 2 -91 -28 -96 -38
-94 -201 1 -73 -2 -148 -5 -166 -9 -40 13 -77 50 -84 61 -12 155 34 155 76 0
8 6 14 13 13 6 0 21 1 32 2 25 2 224 161 240 192 8 14 24 23 45 26 19 2 41 9
49 16 9 7 33 22 54 32 22 11 44 27 50 35 7 9 35 21 62 27 72 17 161 60 185 90
19 24 20 36 15 172 -2 81 -9 178 -15 217 -6 38 -11 91 -12 119 0 27 -4 57 -9
67 -5 9 -11 99 -13 200 -5 201 -21 351 -42 385 -24 39 -72 45 -259 36z"/>
<path d="M7140 11170 c-40 -9 -70 -91 -71 -192 -3 -192 -2 -236 1 -263 1 -16
-1 -57 -5 -90 -9 -77 10 -107 68 -107 30 0 45 8 78 41 23 23 45 41 49 41 5 0
22 19 40 42 25 35 30 51 29 88 -1 25 1 56 5 68 13 41 -3 110 -34 145 -20 24
-26 37 -19 48 16 25 10 59 -16 85 -14 14 -25 30 -25 37 0 41 -50 69 -100 57z"/>
<path d="M6743 11112 c-27 -4 -73 -56 -73 -83 0 -11 -6 -30 -14 -42 -9 -14
-16 -66 -20 -147 -3 -69 -8 -138 -12 -155 -11 -59 84 -157 152 -157 63 0 80
29 88 150 4 55 4 111 1 124 -3 12 -6 68 -8 123 -4 148 -36 200 -114 187z"/>
<path d="M11843 10642 c-38 -12 -193 -162 -200 -192 -3 -16 -13 -30 -23 -33
-27 -7 -48 -46 -55 -102 -6 -44 -3 -55 24 -97 32 -50 79 -79 133 -81 18 -1 39
-10 46 -19 16 -22 71 -37 107 -30 33 6 65 54 65 98 0 17 6 37 14 44 16 13 76
162 76 189 0 9 -8 33 -19 53 -11 22 -15 42 -10 50 15 22 10 75 -8 97 -13 16
-32 22 -73 25 -30 3 -65 2 -77 -2z"/>
<path d="M11265 10063 c-11 -3 -36 -20 -55 -38 -44 -42 -183 -128 -266 -165
-34 -16 -67 -37 -72 -47 -6 -10 -10 -47 -11 -82 0 -56 6 -74 49 -161 27 -54
57 -104 67 -112 12 -9 18 -27 19 -58 1 -25 13 -86 27 -137 40 -142 36 -378 -7
-461 -9 -17 -16 -36 -16 -41 0 -6 -11 -27 -25 -47 -30 -44 -32 -74 -7 -104 17
-21 31 -24 138 -31 65 -4 142 -15 169 -24 65 -21 143 -13 167 16 29 34 43 96
31 129 -6 16 -11 125 -12 262 -4 528 -22 854 -51 909 -6 10 -10 32 -10 49 0
29 -41 124 -57 133 -16 9 -59 14 -78 10z"/>
<path d="M11632 10053 c-13 -3 -36 -23 -53 -45 -28 -39 -29 -46 -28 -133 1
-52 -3 -100 -10 -112 -10 -19 -13 -63 -14 -208 0 -22 0 -56 0 -75 -1 -84 14
-338 21 -370 5 -21 4 -44 -2 -58 -7 -16 -6 -33 2 -56 7 -18 12 -73 12 -122 0
-49 5 -105 10 -124 6 -19 11 -66 11 -103 0 -37 6 -82 13 -99 8 -17 11 -49 8
-74 -3 -30 0 -51 12 -68 9 -14 16 -37 16 -52 0 -30 92 -123 125 -125 63 -4 95
22 95 77 0 46 18 43 59 -11 18 -25 39 -45 46 -45 7 0 15 -13 18 -30 4 -16 21
-46 40 -66 29 -32 40 -37 77 -37 65 0 98 50 69 105 -6 11 -12 45 -14 75 -2 30
-10 64 -18 77 -11 17 -12 27 -4 42 6 10 12 77 12 149 1 83 7 140 15 157 11 23
10 36 -5 83 -9 31 -25 61 -35 67 -14 9 -15 16 -7 38 7 18 7 44 0 78 -7 34 -6
56 1 69 6 11 10 96 11 213 0 171 -2 199 -18 223 -9 15 -25 27 -35 27 -25 0
-45 36 -32 60 5 10 10 26 10 34 0 8 11 32 25 52 20 29 25 49 25 94 0 54 -3 62
-46 114 -27 34 -54 57 -67 58 -50 3 -73 -4 -95 -30 -12 -15 -36 -40 -52 -57
-16 -16 -38 -57 -49 -89 -24 -68 -28 -73 -42 -59 -14 14 15 95 57 156 65 94
56 137 -37 172 -68 27 -97 33 -127 28z"/>
<path d="M12673 9792 c-39 -6 -63 -48 -63 -112 0 -75 20 -102 75 -102 58 0 85
35 85 110 0 84 -29 114 -97 104z"/>
<path d="M7060 9551 c-34 -9 -62 -65 -56 -114 5 -44 31 -87 56 -94 15 -4 16
-9 7 -32 -13 -35 -2 -108 22 -147 30 -49 117 -55 147 -9 35 53 22 177 -21 190
-50 16 -48 13 -31 37 18 25 21 90 6 118 -9 17 -49 40 -90 52 -8 3 -26 2 -40
-1z"/>
<path d="M7525 9163 c-32 -8 -93 -78 -104 -120 -14 -48 -14 -59 1 -86 6 -12
13 -64 14 -114 2 -51 7 -100 12 -109 7 -12 3 -22 -15 -40 -12 -13 -23 -31 -23
-41 0 -31 30 -137 45 -160 8 -12 16 -37 16 -55 3 -58 -11 -212 -22 -255 -16
-59 -3 -147 25 -180 17 -20 31 -26 64 -26 23 0 48 6 57 13 13 11 15 8 15 -18
0 -51 29 -76 88 -76 34 0 57 6 70 17 10 9 26 17 35 17 35 0 50 44 42 128 -4
43 -14 88 -23 102 -9 14 -15 37 -13 52 1 15 -3 37 -10 50 -8 13 -20 43 -29 68
-9 28 -24 49 -40 57 -24 12 -24 13 -3 13 48 0 67 75 39 155 -13 36 -12 42 5
64 24 30 27 137 4 167 -8 10 -15 31 -15 45 0 38 -29 69 -67 72 -45 3 -48 22
-4 24 40 2 71 31 71 68 0 29 -36 75 -59 75 -12 0 -20 10 -24 30 -4 16 -17 36
-29 44 -26 17 -92 27 -123 19z"/>
<path d="M7082 8462 c-42 -6 -62 -56 -62 -153 0 -72 3 -91 21 -113 11 -14 29
-26 40 -26 27 0 24 -18 -3 -22 -15 -2 -31 -19 -47 -47 -20 -36 -25 -65 -31
-162 -5 -64 -11 -122 -14 -128 -11 -17 6 -111 23 -133 19 -22 85 -28 104 -9 6
6 19 11 29 11 29 0 51 44 44 87 -3 21 -6 43 -5 48 9 140 12 162 29 180 25 28
40 60 40 85 0 27 -55 80 -83 80 -20 0 -20 1 -2 20 10 11 23 44 27 73 5 29 11
66 14 82 3 22 -3 43 -25 76 -30 47 -52 58 -99 51z"/>
<path d="M10842 8353 c-12 -3 -29 -15 -38 -28 -27 -41 3 -165 39 -165 9 0 12
-10 9 -29 -2 -16 2 -39 9 -52 13 -25 15 -114 4 -180 -8 -47 14 -89 46 -89 l20
0 -20 -26 c-28 -35 -26 -66 3 -101 17 -20 22 -34 15 -44 -15 -24 -10 -85 9
-109 18 -22 76 -31 101 -15 7 4 11 -5 11 -23 0 -51 28 -74 90 -75 49 -2 57 -5
73 -31 10 -15 27 -31 39 -34 12 -3 45 -18 73 -33 95 -50 133 -45 180 26 35 52
36 58 29 107 -4 29 -7 80 -6 113 3 67 -19 158 -42 184 -10 11 -16 36 -16 64 0
34 -6 52 -22 70 -35 38 -156 99 -202 102 -23 2 -49 6 -58 10 -10 4 -28 8 -41
9 -21 1 -22 4 -14 27 16 41 2 70 -75 159 -145 165 -155 174 -216 163z"/>
<path d="M13033 7992 c-12 -2 -27 -10 -33 -18 -7 -8 -21 -14 -31 -14 -31 0
-48 -39 -48 -108 1 -55 4 -68 28 -94 53 -60 138 -31 186 63 32 64 31 76 -5
126 -30 40 -54 52 -97 45z"/>
<path d="M8733 7952 c-30 -4 -63 -48 -63 -82 0 -70 90 -100 137 -45 54 63 9
140 -74 127z"/>
<path d="M9293 7942 c-35 -5 -63 -49 -63 -96 0 -44 22 -86 44 -86 8 0 16 -13
18 -30 3 -20 0 -30 -8 -30 -7 0 -23 -13 -37 -29 -19 -23 -25 -44 -30 -111 -4
-49 -2 -90 4 -101 7 -15 4 -26 -13 -50 -22 -30 -23 -40 -31 -322 -6 -249 -5
-304 9 -371 19 -92 39 -154 58 -176 8 -8 16 -35 19 -60 2 -25 11 -70 20 -100
26 -92 2 -77 -43 27 -66 151 -76 182 -119 373 -18 80 -74 241 -89 260 -9 11
-29 21 -44 22 l-27 2 20 32 c10 17 19 40 19 50 0 23 -46 168 -62 198 -7 11
-11 32 -9 46 1 14 -7 37 -17 50 -27 35 -37 90 -26 146 4 24 0 37 -21 62 -15
18 -34 32 -44 32 -9 0 -22 5 -28 11 -19 19 -85 13 -104 -10 -25 -31 -26 -423
-1 -461 22 -34 16 -72 -24 -153 -30 -61 -34 -78 -34 -149 0 -86 9 -114 43
-128 l22 -9 -22 0 c-39 -2 -53 -37 -53 -136 0 -99 14 -134 53 -136 l22 0 -22
-9 c-28 -11 -45 -44 -42 -78 2 -15 -2 -36 -9 -48 -7 -14 -10 -58 -7 -125 2
-58 -1 -112 -7 -122 -14 -27 0 -133 22 -160 17 -20 27 -22 114 -22 58 0 99 4
107 12 7 7 21 8 39 3 16 -5 112 -9 213 -9 194 -1 215 -5 313 -54 59 -30 149
-54 182 -49 46 7 53 36 42 178 -6 71 -15 201 -20 289 -15 248 -30 447 -36 480
-8 43 -31 75 -54 75 -17 0 -17 2 5 25 14 13 25 32 25 42 0 10 -11 99 -25 198
-14 99 -25 212 -25 251 0 58 -4 78 -23 106 -31 44 -38 76 -38 165 1 54 -7 91
-29 154 -45 124 -61 141 -127 131z"/>
<path d="M14053 7792 c-30 -5 -63 -48 -63 -81 0 -34 26 -71 50 -71 17 0 17 -2
-5 -25 -32 -31 -33 -78 -2 -109 12 -13 29 -36 37 -52 11 -19 28 -32 55 -40 55
-15 87 -5 105 34 8 17 21 32 27 32 22 0 46 48 39 78 -4 15 -7 42 -6 59 1 39
-38 119 -74 152 -20 19 -37 24 -83 25 -32 1 -68 0 -80 -2z"/>
<path d="M11953 7673 c-32 -6 -53 -41 -53 -88 0 -42 22 -85 43 -85 7 0 19 -13
28 -29 19 -32 52 -42 125 -36 62 5 84 29 84 94 0 52 -21 91 -49 91 -10 0 -24
7 -31 15 -7 8 -31 20 -54 26 -61 15 -69 16 -93 12z"/>
<path d="M12862 7642 c-37 -6 -53 -39 -79 -163 -8 -41 41 -91 89 -91 48 0 56
6 79 59 47 109 1 209 -89 195z"/>
<path d="M7022 7612 c-39 -6 -49 -39 -55 -164 -2 -64 -1 -122 4 -129 4 -7 1
-22 -7 -33 -19 -28 -18 -79 4 -106 26 -32 98 -32 124 0 28 35 33 70 15 102
-16 28 -16 29 8 38 67 25 67 143 1 249 -25 38 -49 50 -94 43z"/>
<path d="M10773 7203 c-27 -5 -53 -39 -53 -69 0 -34 31 -64 67 -67 27 -2 33
-6 33 -24 0 -34 49 -83 86 -86 26 -2 30 -5 26 -24 -7 -38 22 -67 111 -110 95
-46 150 -59 200 -45 32 9 33 9 29 -19 -6 -41 20 -74 81 -105 71 -36 123 -36
155 1 20 24 23 35 18 69 -8 50 -35 90 -65 94 -14 2 -21 11 -21 25 0 29 -27 67
-47 67 -9 0 -30 16 -47 36 -25 29 -38 36 -69 36 -21 0 -44 -6 -52 -12 -12 -10
-15 -9 -15 7 0 28 -38 73 -61 73 -12 0 -19 7 -19 19 0 35 -33 63 -74 63 -21 0
-43 -5 -48 -10 -8 -8 -21 -3 -43 14 -17 13 -45 25 -61 26 -16 2 -36 10 -44 19
-17 19 -53 28 -87 22z"/>
<path d="M12033 6902 c-54 -8 -69 -87 -30 -162 16 -32 30 -46 52 -52 65 -17
125 15 125 68 0 11 -18 48 -39 81 -39 61 -59 72 -108 65z"/>
<path d="M14263 6832 c-48 -7 -87 -98 -64 -148 6 -13 22 -29 36 -36 18 -8 25
-19 25 -39 0 -15 10 -40 23 -55 31 -36 101 -38 129 -4 22 27 23 47 3 93 -8 20
-15 49 -15 65 0 36 -59 114 -92 122 -13 3 -33 4 -45 2z"/>
<path d="M14153 6482 c-48 -7 -68 -76 -36 -122 10 -14 25 -38 33 -54 38 -75
170 -41 170 43 0 35 -35 91 -57 91 -10 0 -23 8 -30 19 -12 20 -43 29 -80 23z"/>
<path d="M10522 6452 c-38 -6 -53 -41 -46 -108 6 -44 14 -65 33 -85 20 -19 25
-33 23 -58 -5 -47 16 -71 97 -114 86 -46 135 -51 164 -16 19 24 19 36 -1 126
-12 56 -63 119 -103 127 -17 3 -35 4 -39 1 -5 -3 -3 9 3 25 17 46 -6 81 -63
95 -25 6 -55 9 -68 7z"/>
<path d="M13441 6418 c-65 -10 -157 -51 -170 -76 -4 -9 -19 -48 -31 -85 -22
-64 -22 -73 -11 -135 7 -37 20 -78 29 -92 10 -16 15 -44 13 -80 -3 -73 18
-102 73 -102 30 0 46 8 75 34 20 19 59 53 88 77 29 23 55 51 58 61 4 11 14 20
24 20 10 0 26 9 37 21 15 17 19 38 20 127 2 135 -19 185 -90 216 -49 22 -58
23 -115 14z"/>
<path d="M12950 6201 c-31 -9 -55 -50 -47 -82 13 -49 49 -80 97 -84 45 -3 45
-4 42 -37 -5 -50 23 -80 73 -80 63 0 96 59 61 107 -8 12 -12 32 -9 50 6 37
-21 73 -57 77 -14 2 -39 13 -55 24 -36 25 -72 34 -105 25z"/>
<path d="M6452 6083 c-12 -2 -29 -15 -38 -28 -13 -20 -24 -24 -62 -23 -91 1
-131 -35 -118 -106 10 -53 35 -78 80 -78 39 0 71 21 81 53 9 27 25 23 25 -5 0
-52 75 -90 158 -80 51 6 72 34 72 98 0 58 -20 96 -51 96 -10 0 -19 6 -19 14 0
40 -67 72 -128 59z"/>
<path d="M8680 5731 c-28 -7 -60 -61 -60 -102 0 -15 8 -37 18 -49 24 -30 89
-31 113 -1 10 12 22 21 28 21 15 0 41 41 41 66 0 52 -67 83 -140 65z"/>
<path d="M10543 5693 c-29 -5 -53 -40 -53 -73 0 -35 56 -110 83 -111 27 -2 23
-2 77 6 51 7 80 33 80 72 0 27 -73 102 -100 104 -8 0 -26 2 -40 3 -14 2 -35 1
-47 -1z"/>
<path d="M12942 5599 c-68 -20 -95 -120 -47 -177 25 -30 24 -42 -6 -42 -23 0
-59 -46 -59 -76 0 -30 48 -124 67 -131 8 -3 28 -6 44 -7 24 -1 29 -5 29 -27 0
-33 35 -79 61 -79 12 0 19 -7 19 -19 0 -33 33 -60 95 -75 142 -35 162 3 131
254 -11 92 -17 111 -46 154 -30 44 -33 55 -31 110 3 79 -17 108 -73 108 -20 0
-40 -3 -43 -6 -3 -3 -11 -2 -18 4 -18 15 -87 20 -123 9z"/>
<path d="M13425 5537 c-29 -9 -46 -23 -63 -52 -21 -36 -22 -48 -17 -119 3 -43
10 -87 16 -97 13 -26 45 -41 85 -41 42 0 62 15 72 55 6 24 14 31 37 34 35 4
65 36 65 68 0 13 -11 37 -25 53 -14 17 -25 37 -25 45 0 48 -74 76 -145 54z"/>
<path d="M14382 5542 c-34 -5 -51 -40 -51 -104 0 -74 20 -100 74 -100 54 0 74
26 74 100 0 85 -28 114 -97 104z"/>
<path d="M7825 5522 c-28 -6 -54 -31 -77 -76 -17 -33 -18 -46 -10 -94 6 -37 6
-64 0 -78 -14 -29 -4 -66 26 -100 20 -24 31 -28 76 -28 45 0 56 4 76 28 28 31
31 80 10 139 -9 28 -10 52 -3 94 8 48 7 58 -10 81 -20 27 -55 41 -88 34z"/>
<path d="M7492 5292 c-43 -7 -62 -56 -61 -157 1 -105 -7 -151 -32 -184 -25
-32 -24 -71 4 -112 19 -29 21 -40 13 -71 -7 -29 -6 -42 7 -62 10 -14 17 -38
17 -55 0 -73 100 -104 138 -41 17 27 20 28 34 14 9 -9 34 -17 57 -17 32 -2 40
-5 35 -17 -29 -66 -2 -113 66 -113 54 0 90 35 90 89 0 27 4 34 19 34 25 0 81
64 81 93 0 12 -11 38 -24 58 -19 28 -34 37 -76 47 -28 7 -56 10 -61 6 -5 -3
-9 8 -9 23 0 16 -7 38 -15 49 -18 24 -19 35 -2 29 26 -10 73 12 95 45 28 42
28 72 -1 106 -31 35 -101 38 -128 6 -15 -19 -18 -20 -29 -7 -7 8 -18 15 -24
15 -29 0 -59 52 -85 146 -16 60 -52 85 -109 76z"/>
<path d="M8663 5152 c-28 -4 -53 -38 -53 -70 0 -29 51 -80 89 -88 14 -4 34
-14 44 -22 11 -10 37 -16 69 -16 41 0 54 5 69 23 63 77 20 150 -90 157 -26 1
-54 5 -63 8 -32 11 -43 12 -65 8z"/>
<path d="M13432 5132 c-45 -7 -55 -41 -43 -144 16 -134 46 -166 136 -145 88
20 96 74 27 196 -48 87 -67 101 -120 93z"/>
<path d="M14273 4853 c-26 -5 -53 -39 -53 -67 0 -19 62 -120 81 -132 25 -15
83 -6 101 16 21 26 22 41 7 92 -19 70 -71 104 -136 91z"/>
<path d="M10683 4752 c-48 -7 -68 -72 -35 -112 39 -48 132 -17 132 44 0 48
-41 76 -97 68z"/>
<path d="M13273 4432 c-28 -4 -63 -47 -63 -77 0 -66 92 -93 137 -40 52 60 8
129 -74 117z"/>
<path d="M7723 4413 c-49 -10 -68 -73 -34 -114 15 -19 28 -23 71 -23 43 0 56
4 71 23 52 64 -15 134 -108 114z"/>
<path d="M12252 4163 c-13 -3 -31 -18 -40 -34 -10 -16 -25 -29 -34 -29 -31 0
-47 -40 -47 -114 0 -69 1 -70 42 -108 23 -21 58 -43 77 -48 50 -13 112 -4 133
21 20 24 21 38 6 94 -6 22 -10 57 -9 78 3 99 -48 154 -128 140z"/>
<path d="M11599 3816 c-135 -46 -281 -118 -307 -151 -14 -18 -34 -30 -54 -32
-18 -2 -43 -10 -56 -19 -28 -19 -41 -10 -70 46 -10 20 -27 37 -42 41 -30 7
-168 -31 -184 -52 -6 -8 -22 -15 -36 -17 -14 -1 -32 -5 -40 -8 -8 -4 -29 -8
-47 -10 -18 -1 -42 -8 -55 -15 -12 -6 -39 -13 -60 -15 -52 -3 -63 -15 -84 -81
-14 -43 -15 -64 -8 -93 9 -31 7 -41 -8 -60 -51 -63 27 -143 116 -119 22 6 32
4 45 -11 9 -10 45 -26 81 -35 99 -26 396 -150 480 -201 58 -36 85 -47 120 -48
44 -1 46 -2 42 -29 -3 -21 4 -35 34 -63 68 -63 175 -126 244 -143 72 -18 103
-17 121 5 10 13 14 13 29 -1 9 -9 31 -17 49 -18 24 -1 31 -7 31 -22 0 -37 28
-62 81 -75 66 -16 183 -8 208 14 9 9 23 16 29 16 7 0 21 14 31 31 10 17 34 38
52 47 26 13 38 28 49 62 8 25 21 55 28 67 32 57 1 112 -66 118 -43 3 -70 20
-102 64 -9 12 -29 23 -47 24 -24 3 -39 13 -58 40 -14 21 -36 54 -51 74 -14 21
-32 44 -40 53 -8 8 -22 25 -32 37 -9 12 -28 24 -42 25 -41 6 -50 16 -40 44 23
59 -3 104 -61 107 -31 2 -36 5 -28 19 5 9 9 44 9 77 0 52 -4 65 -27 91 -17 18
-39 31 -55 32 -33 3 -33 3 -8 35 24 31 25 40 4 103 -27 82 -49 88 -175 46z"/>
<path d="M7798 3454 c-72 -22 -99 -77 -60 -123 9 -12 31 -22 47 -24 17 -2 37
-7 44 -12 8 -4 32 -8 54 -8 46 0 77 28 77 69 0 27 -23 89 -37 97 -22 14 -83
15 -125 1z"/>
<path d="M7652 3212 c-28 -4 -55 -43 -51 -74 2 -13 -4 -34 -14 -48 -22 -32
-22 -67 2 -107 24 -38 49 -43 116 -25 76 20 104 68 73 125 -7 12 -11 34 -9 48
4 48 -56 91 -117 81z"/>
<path d="M9393 3202 c-31 -5 -41 -21 -62 -98 -10 -38 -35 -109 -55 -158 -41
-103 -43 -115 -17 -147 16 -20 28 -24 81 -24 53 0 65 4 81 24 10 13 19 32 19
42 0 10 7 19 15 19 28 0 43 45 55 168 10 109 9 126 -5 148 -8 13 -23 25 -33
25 -9 1 -26 2 -37 3 -11 1 -30 0 -42 -2z"/>
<path d="M8780 3040 c-18 -4 -37 -27 -67 -80 -47 -83 -52 -107 -25 -140 25
-31 89 -31 114 2 10 12 29 35 43 50 31 36 43 109 22 142 -17 26 -49 35 -87 26z"/>
<path d="M11203 2513 c-48 -9 -68 -73 -35 -111 24 -29 147 -65 195 -57 65 11
89 79 45 129 -29 33 -134 53 -205 39z"/>
</g>
</svg>
