<?xml version="1.0" standalone="no"?>
<!DOCTYPE svg PUBLIC "-//W3C//DTD SVG 20010904//EN"
 "http://www.w3.org/TR/2001/REC-SVG-20010904/DTD/svg10.dtd">
<svg version="1.0" xmlns="http://www.w3.org/2000/svg"
 width="2048.000000pt" height="2864.000000pt" viewBox="0 0 2048.000000 2864.000000"
 preserveAspectRatio="xMidYMid meet">
<metadata>
Created by potrace 1.16, written by Peter Selinger 2001-2019
</metadata>
<g transform="translate(0.000000,2864.000000) scale(0.100000,-0.100000)"
fill="none" stroke="grey" stroke-width="2">
<path d="M0 14320 l0 -14320 10240 0 10240 0 0 14320 0 14320 -10240 0 -10240
0 0 -14320z m8115 10743 c4 -16 15 -53 26 -84 10 -31 19 -71 19 -90 -1 -58 31
-276 66 -465 19 -99 35 -212 35 -250 0 -66 19 -154 37 -178 5 -6 19 -65 31
-131 12 -66 29 -156 38 -200 8 -44 19 -111 23 -150 4 -38 17 -113 28 -165 38
-180 62 -325 62 -371 0 -39 7 -56 49 -115 54 -77 323 -335 395 -380 26 -16 63
-41 84 -56 174 -127 306 -204 500 -291 82 -37 220 -66 493 -107 94 -14 469
-18 489 -5 8 5 32 10 53 11 21 1 43 7 50 12 7 6 63 24 126 41 63 17 130 42
150 55 20 14 70 41 113 60 42 20 90 47 106 61 16 14 49 36 72 49 23 13 71 48
106 77 36 30 71 54 77 55 7 0 21 2 32 2 11 1 63 40 115 87 52 46 105 93 118
104 12 11 22 30 22 42 0 12 21 47 46 78 82 99 86 112 139 431 20 121 30 176
50 275 10 44 21 105 25 136 4 31 14 67 23 80 19 31 34 103 42 199 10 121 26
193 51 230 20 30 23 46 21 120 -1 57 4 93 13 110 7 14 19 63 26 110 7 47 17
101 22 120 28 94 52 198 52 226 0 36 34 203 51 252 10 28 15 32 46 32 39 0 39
0 14 -95 -5 -22 -8 -65 -4 -95 3 -31 -2 -114 -11 -185 -44 -352 -83 -775 -91
-985 -7 -213 -32 -397 -57 -429 -11 -15 -19 -41 -19 -65 0 -63 1 -113 3 -143
1 -16 -3 -93 -10 -173 -6 -80 -9 -199 -6 -265 3 -66 5 -140 5 -164 0 -24 6
-56 14 -70 31 -58 72 -158 79 -190 3 -19 19 -55 35 -80 16 -25 32 -56 35 -68
4 -12 25 -36 46 -53 22 -18 68 -66 102 -109 204 -253 497 -563 624 -661 101
-78 207 -154 264 -190 30 -18 65 -45 77 -59 12 -15 43 -32 75 -41 53 -16 53
-16 56 -60 2 -24 -2 -65 -8 -90 -7 -25 -13 -141 -15 -260 -2 -118 -9 -289 -16
-380 -11 -147 -15 -169 -37 -202 -17 -27 -23 -46 -19 -65 3 -17 0 -36 -9 -47
-27 -38 -6 -116 32 -116 12 0 14 -7 8 -32 -9 -41 -6 -546 4 -723 5 -71 7 -227
6 -345 -1 -118 2 -434 7 -703 9 -434 8 -490 -6 -509 -20 -30 -19 -69 4 -115
17 -34 20 -78 30 -463 13 -479 18 -611 32 -825 5 -82 11 -181 13 -220 2 -38 9
-169 16 -290 10 -176 11 -241 1 -325 -11 -92 -11 -111 3 -151 9 -26 20 -100
26 -165 5 -66 16 -207 25 -314 8 -107 22 -274 30 -370 9 -96 18 -213 20 -260
3 -47 9 -119 15 -160 5 -41 14 -145 20 -230 5 -85 14 -175 19 -200 5 -25 14
-103 21 -175 6 -71 15 -164 20 -205 6 -41 19 -158 30 -260 11 -102 25 -225 32
-275 6 -49 15 -135 19 -190 4 -55 12 -131 18 -170 6 -38 15 -119 21 -180 24
-232 29 -274 45 -395 9 -69 20 -177 25 -240 5 -63 25 -234 44 -380 47 -353 77
-651 75 -736 -1 -38 4 -89 10 -114 7 -25 16 -94 20 -155 5 -60 18 -171 29
-246 30 -193 58 -429 82 -689 11 -124 23 -236 25 -250 3 -14 10 -70 15 -125 5
-55 16 -156 24 -225 9 -69 18 -141 20 -160 3 -19 11 -82 20 -140 29 -201 47
-376 53 -510 6 -145 7 -150 85 -290 23 -41 52 -120 78 -215 22 -82 54 -188 71
-235 41 -115 89 -318 89 -378 0 -27 7 -66 15 -86 12 -28 13 -41 4 -58 -16 -29
-3 -96 26 -138 28 -41 61 -172 71 -285 4 -44 13 -92 20 -107 8 -15 14 -53 14
-85 0 -35 6 -67 14 -79 8 -11 29 -79 46 -150 17 -71 45 -183 62 -249 17 -66
39 -156 49 -200 10 -44 34 -142 53 -219 20 -76 39 -164 43 -195 3 -31 12 -74
20 -96 l14 -40 -65 -60 c-35 -33 -70 -72 -78 -86 -15 -30 -84 -109 -95 -109
-5 0 -66 -59 -137 -130 -71 -72 -132 -130 -136 -130 -4 0 -30 -18 -56 -40 -27
-22 -53 -40 -59 -40 -6 0 -27 -11 -47 -25 -22 -15 -109 -45 -220 -75 -101 -28
-209 -64 -241 -81 -32 -16 -62 -29 -66 -29 -7 0 -53 -26 -166 -93 -11 -7 -36
-24 -56 -39 -20 -16 -40 -28 -44 -28 -5 0 -23 -11 -41 -25 -18 -14 -38 -25
-45 -25 -7 0 -24 -11 -38 -24 -15 -13 -40 -32 -57 -43 -61 -36 -130 -93 -143
-116 -8 -15 -28 -27 -56 -35 -36 -10 -50 -21 -79 -65 -20 -30 -36 -60 -36 -68
0 -9 -12 -15 -31 -16 -18 -1 -39 -9 -48 -16 -9 -8 -24 -17 -34 -21 -10 -3 -24
-20 -30 -36 -6 -17 -17 -30 -23 -30 -7 0 -25 -15 -42 -34 -16 -19 -38 -36 -48
-38 -11 -1 -26 -17 -34 -33 -13 -25 -23 -30 -55 -32 -21 -2 -43 -7 -49 -13 -5
-5 -18 -10 -28 -10 -11 0 -29 -10 -42 -23 -18 -19 -28 -21 -52 -15 -32 9 -103
1 -120 -13 -6 -5 -13 -7 -16 -4 -3 3 -24 7 -48 10 -69 6 -103 16 -131 38 -18
13 -43 20 -71 20 -24 -1 -48 4 -55 9 -14 11 -97 17 -138 8 -22 -4 -34 -1 -45
11 -18 21 -58 30 -160 34 -41 2 -90 8 -108 14 -29 9 -67 7 -98 -3 -6 -2 -37 2
-70 10 -52 13 -89 16 -144 13 -20 -2 -113 11 -118 15 -2 2 -15 1 -30 -3 -22
-6 -34 -2 -60 21 -18 15 -41 28 -50 28 -10 0 -23 5 -28 10 -6 6 -33 12 -60 13
-44 2 -52 6 -76 38 -16 23 -37 38 -57 42 -17 4 -55 18 -85 32 -29 14 -60 25
-69 25 -8 0 -29 12 -46 26 -23 19 -46 27 -84 30 -28 2 -65 8 -82 12 -16 5 -52
5 -80 0 -27 -4 -87 -10 -133 -12 -58 -3 -91 -10 -110 -23 -15 -10 -40 -19 -57
-20 -16 -2 -34 -8 -39 -13 -6 -6 -18 -10 -27 -10 -10 0 -24 -8 -31 -17 -7 -10
-22 -19 -33 -20 -64 -7 -102 -16 -116 -29 -9 -8 -18 -12 -20 -9 -3 2 -38 -5
-79 -16 -41 -11 -88 -22 -105 -24 -16 -2 -57 -10 -90 -18 -33 -8 -80 -18 -105
-21 -25 -4 -54 -13 -66 -21 -15 -10 -32 -11 -68 -4 -43 8 -86 5 -109 -8 -8 -5
-58 -9 -227 -18 -118 -6 -113 -6 -195 -5 -127 0 -216 -7 -227 -18 -9 -9 -16
-8 -29 4 -17 15 -51 20 -184 27 -16 1 -39 12 -50 24 -11 12 -37 24 -59 28 -21
3 -42 8 -47 11 -5 3 -42 7 -82 10 -74 4 -117 18 -117 39 0 26 -43 65 -103 94
-35 17 -70 31 -78 31 -8 0 -20 9 -27 20 -7 11 -20 20 -30 20 -10 0 -22 4 -28
9 -5 6 -20 11 -34 13 -31 5 -70 29 -70 44 0 7 -8 22 -18 33 -20 26 -111 38
-167 22 -22 -6 -37 -5 -44 2 -6 6 -36 11 -67 11 -47 0 -60 -4 -78 -24 -11 -14
-32 -26 -46 -28 -27 -3 -60 -35 -60 -58 0 -8 -7 -14 -16 -14 -9 0 -35 -16 -58
-35 -24 -19 -50 -35 -59 -35 -8 0 -27 -13 -40 -30 -14 -16 -32 -30 -39 -30 -8
0 -30 -8 -51 -19 -20 -10 -57 -25 -82 -32 -26 -8 -53 -21 -61 -30 -12 -13 -23
-15 -43 -9 -15 4 -45 5 -67 3 -62 -8 -134 -5 -147 5 -16 13 -127 33 -139 26
-5 -3 -16 3 -24 15 -15 20 -91 61 -115 61 -6 0 -20 11 -31 25 -11 14 -25 25
-31 25 -7 0 -20 13 -29 29 -11 21 -27 32 -51 36 -26 5 -38 15 -50 40 -12 25
-31 41 -70 60 -30 14 -58 25 -63 25 -5 0 -15 9 -22 20 -7 11 -21 20 -32 20
-11 0 -29 14 -42 30 -27 37 -68 59 -122 65 -69 9 -76 11 -88 23 -7 7 -19 12
-27 12 -8 0 -22 7 -31 15 -9 8 -38 17 -65 21 -28 3 -57 7 -65 8 -8 1 -28 8
-43 14 -16 7 -34 12 -41 12 -7 0 -26 12 -42 28 -16 15 -43 38 -60 52 -31 26
-41 56 -65 199 -6 30 -16 66 -23 80 -15 29 -36 111 -36 140 0 10 -10 30 -21
45 -14 18 -21 41 -21 69 1 23 -10 69 -24 103 -13 33 -24 72 -24 85 0 14 -7 34
-15 46 -22 31 -20 99 5 247 15 93 19 136 12 151 -6 12 -34 36 -64 53 -29 17
-69 45 -88 62 -33 29 -34 31 -21 63 7 17 16 50 20 72 4 22 13 50 19 62 7 12
12 42 12 66 0 25 9 74 20 109 11 34 20 73 20 86 0 35 39 172 55 196 8 11 15
32 15 46 0 14 11 41 25 60 14 19 25 45 25 58 0 14 13 63 29 111 16 47 32 102
36 121 4 19 14 43 23 53 9 10 19 39 23 65 4 26 41 146 82 267 42 121 83 247
91 280 34 132 84 267 104 281 11 8 26 31 32 52 15 46 88 199 112 232 12 17 25
74 38 170 19 128 53 305 133 675 13 61 30 121 39 135 9 14 18 57 21 95 3 39
14 103 23 143 15 62 16 77 5 108 -15 41 -7 133 14 175 9 16 13 56 12 110 -2
73 1 91 22 131 22 40 24 51 15 90 -15 65 3 259 71 758 9 63 23 171 31 239 8
68 18 142 23 165 5 22 12 75 16 116 3 41 15 145 25 231 11 86 36 302 55 480
20 178 40 358 45 399 5 41 23 190 40 331 17 140 35 271 41 290 5 19 14 105 19
191 5 86 14 201 19 255 39 357 53 472 72 583 11 69 18 148 16 175 -7 87 38
754 54 806 7 22 8 48 4 65 -5 16 -7 34 -5 39 2 6 7 116 11 245 19 628 29 830
38 849 5 9 9 90 10 181 0 91 5 192 11 225 5 33 10 89 10 125 0 36 7 146 15
245 8 99 19 285 25 414 8 164 16 245 26 270 10 24 13 52 9 86 -4 27 1 127 10
220 9 94 23 242 30 330 8 88 19 196 24 240 21 170 40 470 45 703 3 147 10 250
17 263 8 15 8 39 0 87 -6 37 -9 110 -6 162 2 52 7 172 10 265 13 458 16 510
32 548 13 29 14 45 6 72 -8 25 -6 64 7 157 42 290 43 306 25 335 -14 21 -16
37 -10 82 4 31 11 146 15 256 4 110 13 225 19 255 22 103 23 118 11 139 -7 13
-9 39 -5 65 6 38 13 48 63 84 32 23 105 79 163 124 306 238 406 329 559 509
58 67 123 143 145 169 22 25 60 74 85 109 25 35 87 120 138 189 52 70 105 146
118 168 56 95 74 400 42 694 -9 85 -22 236 -28 335 -6 99 -15 232 -20 295 -5
72 -5 121 1 132 6 12 6 46 0 96 -15 112 -30 298 -41 527 -6 110 -15 229 -20
265 -6 36 -17 126 -25 200 -8 74 -17 151 -21 171 -6 34 -4 37 22 47 45 16 53
14 59 -15z"/>
<path d="M11892 23072 c-33 -5 -54 -44 -59 -115 -7 -80 13 -109 72 -109 53 0
70 24 79 107 10 95 -16 128 -92 117z"/>
<path d="M6543 6932 c-28 -4 -63 -47 -63 -77 0 -41 32 -68 80 -68 50 0 80 27
80 72 0 52 -39 82 -97 73z"/>
</g>
</svg>
