<?xml version="1.0" standalone="no"?>
<!DOCTYPE svg PUBLIC "-//W3C//DTD SVG 20010904//EN"
 "http://www.w3.org/TR/2001/REC-SVG-20010904/DTD/svg10.dtd">
<svg version="1.0" xmlns="http://www.w3.org/2000/svg"
 width="2048.000000pt" height="2864.000000pt" viewBox="0 0 2048.000000 2864.000000"
 preserveAspectRatio="xMidYMid meet">
<metadata>
Created by potrace 1.16, written by Peter Selinger 2001-2019
</metadata>
<g transform="translate(0.000000,2864.000000) scale(0.100000,-0.100000)"
fill="none" stroke="grey" stroke-width="2">
<path d="M0 14320 l0 -14320 10240 0 10240 0 0 14320 0 14320 -10240 0 -10240
0 0 -14320z m12033 10666 c35 -24 98 -43 125 -37 8 1 20 -3 27 -9 8 -7 31 -13
52 -14 49 -4 65 -11 141 -63 35 -24 72 -43 82 -43 10 0 21 -4 24 -8 3 -5 40
-17 83 -27 43 -11 88 -27 101 -36 12 -10 40 -20 62 -24 21 -4 44 -13 51 -21 6
-8 17 -14 24 -14 6 0 20 -9 30 -20 10 -11 26 -20 35 -20 9 0 20 -4 25 -9 6 -4
49 -20 97 -35 140 -44 146 -59 153 -366 6 -276 15 -573 20 -686 24 -480 36
-670 59 -894 7 -69 13 -141 13 -160 0 -19 7 -80 17 -135 9 -55 21 -126 26
-157 4 -32 11 -61 14 -66 8 -14 28 -143 27 -185 0 -21 12 -62 29 -95 15 -31
33 -77 40 -102 17 -67 60 -190 81 -232 11 -21 19 -46 19 -56 0 -11 10 -34 23
-53 13 -19 47 -77 76 -129 30 -52 71 -112 92 -132 22 -21 39 -42 39 -48 0 -11
-23 -33 -73 -73 -22 -17 -31 -37 -42 -92 -15 -69 -47 -183 -86 -297 -21 -65
-45 -147 -123 -433 -30 -110 -69 -244 -86 -299 -18 -54 -40 -132 -50 -175 -11
-42 -31 -110 -45 -151 -14 -41 -34 -113 -45 -160 -58 -266 -218 -891 -250
-974 -5 -15 -10 -44 -10 -65 0 -20 -7 -61 -16 -90 -13 -45 -14 -67 -4 -138 6
-47 15 -191 20 -321 13 -346 38 -794 49 -897 10 -91 26 -316 36 -520 3 -60 17
-229 31 -375 14 -146 27 -281 28 -300 4 -45 14 -136 26 -225 12 -86 37 -332
45 -440 3 -44 10 -118 16 -165 13 -115 38 -473 49 -705 4 -104 13 -228 19
-275 10 -76 47 -561 71 -935 5 -77 18 -216 29 -309 12 -93 25 -239 31 -325 6
-86 17 -212 25 -281 7 -69 19 -199 25 -290 6 -91 18 -214 26 -275 8 -60 21
-227 29 -370 9 -143 20 -321 25 -395 6 -74 15 -214 20 -310 6 -96 15 -212 20
-258 6 -45 15 -130 20 -187 16 -169 28 -299 45 -475 28 -291 51 -611 75 -1050
17 -308 29 -485 34 -511 3 -13 13 -132 22 -264 8 -132 18 -274 20 -315 3 -41
7 -120 10 -175 2 -55 6 -120 9 -145 2 -25 11 -241 20 -480 8 -239 20 -498 25
-575 6 -77 15 -261 20 -410 6 -148 14 -355 20 -460 5 -104 12 -327 15 -495 4
-168 11 -368 16 -445 5 -77 14 -239 19 -360 5 -121 16 -366 24 -545 9 -179 16
-346 16 -371 0 -32 7 -57 23 -81 29 -42 41 -82 38 -126 -2 -19 2 -46 8 -60 29
-74 30 -370 1 -457 -5 -17 -12 -73 -16 -125 -13 -212 -17 -246 -29 -263 -7
-10 -40 -38 -73 -62 -57 -41 -66 -45 -134 -48 -40 -3 -79 0 -86 6 -12 10 -96
12 -111 3 -4 -3 -23 -1 -42 4 -18 6 -54 12 -80 14 -25 3 -50 6 -55 7 -33 6
-57 -4 -71 -30 -14 -23 -29 -31 -90 -45 -52 -13 -78 -25 -92 -42 -10 -13 -24
-24 -31 -24 -6 0 -23 -9 -37 -20 -14 -11 -33 -20 -42 -20 -9 0 -27 -9 -41 -20
-14 -11 -32 -20 -41 -20 -8 0 -26 -11 -38 -24 -13 -13 -38 -27 -56 -30 -18 -4
-38 -13 -45 -21 -7 -8 -18 -15 -25 -15 -16 0 -76 -29 -97 -47 -22 -19 -130
-23 -154 -6 -10 7 -25 13 -33 13 -9 0 -29 7 -46 16 -16 9 -46 16 -65 16 -20 0
-43 8 -55 18 -11 10 -31 20 -45 22 -14 2 -41 21 -62 41 -20 20 -44 37 -53 37
-20 0 -49 35 -79 93 -20 39 -25 42 -95 60 -70 17 -76 17 -128 1 -65 -20 -79
-39 -88 -117 -3 -31 -10 -57 -15 -57 -5 0 -24 -24 -42 -53 -18 -28 -39 -61
-46 -72 -7 -11 -20 -32 -30 -47 -9 -16 -22 -28 -28 -28 -6 0 -19 -9 -29 -20
-10 -11 -23 -20 -30 -20 -6 0 -36 -23 -65 -50 -29 -28 -60 -50 -67 -50 -7 0
-21 -12 -31 -27 -16 -27 -21 -28 -102 -29 -47 -1 -101 -2 -120 -3 -40 -2 -60
1 -77 12 -6 4 -24 8 -39 9 -15 2 -40 15 -55 30 -15 16 -36 28 -45 28 -10 0
-34 18 -54 40 -23 27 -44 41 -62 42 -16 1 -28 7 -28 14 0 15 -98 144 -110 144
-5 0 -28 20 -51 44 -47 52 -81 66 -181 72 -112 8 -139 6 -157 -9 -9 -7 -26
-14 -37 -15 -49 -2 -102 -24 -137 -56 -20 -19 -49 -37 -64 -41 -33 -8 -115
-67 -142 -101 -10 -13 -24 -24 -29 -24 -6 0 -19 -11 -30 -25 -11 -14 -24 -25
-29 -25 -5 0 -14 -5 -20 -11 -7 -7 -28 -13 -49 -15 -20 -2 -44 -10 -53 -19
-13 -11 -20 -12 -29 -3 -23 23 -240 13 -266 -13 -17 -15 -26 -10 -26 15 0 43
-31 69 -83 70 -31 1 -47 5 -47 14 0 26 -42 94 -68 109 -15 9 -39 33 -55 55
-15 21 -40 44 -55 51 -15 6 -32 19 -39 28 -7 9 -24 19 -39 22 -32 6 -122 -17
-142 -37 -9 -9 -23 -12 -41 -7 -14 4 -46 5 -71 3 -112 -9 -322 -3 -337 10 -18
14 -209 17 -323 4 -36 -4 -72 -7 -80 -8 -36 -1 -186 -42 -200 -54 -11 -9 -26
-11 -50 -5 -19 4 -59 7 -89 6 -45 -2 -58 -7 -77 -28 -18 -21 -29 -26 -52 -21
-46 9 -111 -13 -130 -45 -14 -25 -23 -29 -75 -34 -32 -3 -66 -12 -75 -20 -23
-20 -85 -28 -124 -16 -18 5 -63 11 -99 13 -37 2 -71 6 -77 10 -6 3 -23 7 -38
8 -15 2 -37 12 -49 23 -140 131 -188 182 -209 224 -75 147 -76 150 -76 266 -1
134 -11 189 -40 220 l-22 23 7 289 c4 158 8 412 9 563 2 151 8 340 14 420 6
80 14 201 17 270 31 744 78 1480 135 2150 28 322 40 511 56 885 8 182 19 425
24 540 9 210 21 398 41 615 14 159 49 726 59 950 5 102 13 241 19 310 10 120
35 428 66 820 8 102 19 298 25 435 6 138 15 295 20 350 5 55 23 300 40 545 17
245 35 495 40 555 6 61 14 164 20 230 10 136 26 274 40 355 5 30 11 184 14
342 3 157 10 317 15 355 6 37 15 145 21 238 32 478 52 692 67 720 6 11 11 61
11 110 0 50 10 218 22 375 11 157 27 406 35 553 8 148 19 296 25 330 5 34 10
93 10 130 0 42 5 76 14 90 12 17 15 63 14 217 -1 133 4 232 15 310 19 130 37
310 67 644 12 126 25 261 31 300 5 39 14 99 18 133 5 34 13 67 17 75 5 7 12
101 15 208 7 228 22 359 54 490 55 221 66 347 39 435 -10 33 -13 67 -9 102 5
37 2 60 -9 82 -9 17 -32 85 -51 151 -18 66 -45 142 -59 168 -14 26 -36 83 -50
127 -129 423 -278 877 -306 935 -15 30 -31 71 -35 90 -4 19 -22 71 -40 115
-50 119 -95 251 -140 407 -8 29 -28 80 -45 115 -16 34 -30 75 -30 91 0 16 -8
40 -18 53 -10 13 -26 43 -36 66 -10 22 -36 58 -57 79 -50 49 -55 97 -10 112
32 11 95 95 156 207 20 39 48 86 61 105 13 19 30 64 38 100 7 36 21 88 29 115
33 110 75 263 87 320 6 33 23 94 37 135 28 86 37 133 53 280 6 58 18 164 26
235 8 72 19 303 25 515 10 396 34 840 55 992 3 25 2 54 -3 62 -5 9 -5 55 0
109 7 78 14 103 49 169 45 88 91 134 143 144 20 3 44 17 55 31 25 32 100 82
115 77 18 -7 188 36 206 52 10 9 32 14 55 13 67 -4 135 21 157 60 19 31 22 33
61 26 58 -11 85 -8 126 14 20 10 50 22 68 26 17 3 52 23 76 44 57 46 88 50
112 13 34 -50 55 -96 85 -187 40 -119 48 -129 105 -143 48 -12 529 -56 569
-53 11 1 128 4 260 7 205 5 247 3 292 -11 45 -14 61 -15 104 -5 28 7 67 10 88
6 20 -3 55 0 76 6 22 6 49 10 61 9 11 -1 56 10 98 24 134 43 218 31 290 -41
42 -42 49 -45 123 -55 43 -6 96 -9 118 -8 97 6 593 -3 625 -11 46 -12 83 -12
219 -2 113 9 115 10 143 43 50 60 59 84 124 339 13 52 26 101 29 108 7 19 39
14 78 -12z"/>
<path d="M8793 24523 c-26 -5 -53 -39 -53 -67 0 -18 22 -79 91 -256 16 -41 29
-90 29 -109 0 -21 13 -55 35 -91 19 -32 47 -84 61 -116 14 -33 31 -72 38 -89
34 -76 96 -287 96 -326 0 -34 8 -55 39 -99 21 -30 48 -82 60 -115 24 -65 66
-163 114 -265 52 -112 67 -151 67 -171 0 -21 55 -125 72 -135 5 -3 26 -6 46
-6 56 0 68 22 76 149 4 59 12 140 18 178 6 39 12 95 13 125 4 93 25 290 40
390 8 52 14 104 13 115 -2 27 49 341 63 382 5 18 12 62 15 98 5 68 43 203 75
267 24 47 24 70 1 98 -16 20 -33 24 -138 33 -65 6 -193 9 -284 6 -230 -6 -413
-5 -495 2 -38 3 -80 4 -92 2z"/>
<path d="M10780 24455 c-72 -17 -93 -44 -87 -105 17 -147 28 -509 18 -577 -18
-119 -14 -243 8 -294 26 -58 85 -343 83 -396 -1 -22 6 -61 17 -85 44 -103 34
-300 -20 -418 -17 -37 -53 -89 -86 -123 l-55 -58 7 -202 c7 -214 13 -241 57
-249 51 -9 72 5 105 72 17 36 46 101 63 145 34 84 114 260 131 285 22 34 69
136 69 150 0 15 11 44 98 255 27 66 61 170 76 230 26 109 31 128 82 300 87
299 199 597 300 800 41 83 74 160 74 171 0 34 -36 71 -77 79 -49 10 -188 14
-383 14 -85 -1 -168 -1 -185 -1 -30 0 -126 8 -200 16 -22 3 -65 -1 -95 -9z"/>
<path d="M10025 24393 c-25 -6 -83 -60 -101 -94 -7 -15 -18 -65 -23 -110 -6
-46 -13 -99 -17 -117 -4 -21 -1 -40 9 -55 8 -13 17 -45 20 -72 2 -28 12 -88
22 -135 9 -47 20 -121 24 -166 3 -45 11 -87 18 -95 6 -8 21 -72 33 -144 13
-71 29 -147 36 -169 8 -21 14 -54 14 -72 0 -18 9 -56 20 -83 24 -62 90 -384
90 -443 0 -24 8 -63 17 -88 12 -33 16 -83 17 -190 1 -134 -1 -149 -23 -195
-13 -27 -53 -78 -88 -112 -63 -61 -73 -85 -54 -122 10 -18 4 -33 -33 -85 -18
-25 -18 -29 3 -179 12 -83 24 -197 27 -252 3 -55 9 -116 14 -135 5 -19 16 -66
26 -105 35 -147 99 -314 125 -330 20 -13 80 -7 99 10 10 9 24 31 30 48 15 39
65 147 131 283 27 55 49 107 49 115 0 8 13 42 30 76 l29 63 5 285 c3 157 8
290 11 295 3 5 0 86 -6 182 -12 185 -18 207 -68 232 -44 23 -64 63 -77 160
-15 105 1 242 42 377 67 221 79 310 89 694 7 245 5 267 -26 415 -18 84 -57
200 -82 245 -30 53 -80 71 -153 55 -48 -10 -102 -7 -234 14 -14 3 -34 2 -45
-1z"/>
<path d="M9732 23332 c-48 -7 -64 -65 -82 -287 -5 -66 -15 -178 -21 -250 -7
-71 -13 -195 -15 -275 -2 -131 0 -152 22 -220 36 -108 64 -160 106 -193 46
-37 103 -40 131 -6 16 20 18 37 14 148 -3 69 -10 180 -16 246 -7 66 -14 174
-16 240 -2 66 -11 199 -19 295 -9 96 -13 192 -10 213 10 64 -27 99 -94 89z"/>
<path d="M9962 22932 c-12 -2 -30 -14 -38 -27 -17 -26 -16 -47 6 -250 5 -55
12 -163 15 -240 5 -169 16 -250 37 -271 18 -19 82 -21 103 -4 22 19 46 100 52
180 5 76 -19 306 -36 338 -5 9 -12 44 -16 77 -8 74 -31 163 -45 180 -12 15
-45 22 -78 17z"/>
</g>
</svg>
