<?xml version="1.0" standalone="no"?>
<!DOCTYPE svg PUBLIC "-//W3C//DTD SVG 20010904//EN"
 "http://www.w3.org/TR/2001/REC-SVG-20010904/DTD/svg10.dtd">
<svg version="1.0" xmlns="http://www.w3.org/2000/svg"
 width="1500.000000pt" height="2098.000000pt" viewBox="0 0 1500.000000 2098.000000"
 preserveAspectRatio="xMidYMid meet">
<metadata>
Created by potrace 1.16, written by Peter Selinger 2001-2019
</metadata>
<g transform="translate(0.000000,2098.000000) scale(0.100000,-0.100000)"
fill="none" stroke="grey" stroke-width="2">
<path d="M0 10490 l0 -10490 7500 0 7500 0 0 10490 0 10490 -7500 0 -7500 0 0
-10490z m8565 7763 c100 -114 227 -231 346 -319 67 -49 138 -103 158 -120 21
-18 87 -50 156 -77 66 -25 154 -60 195 -77 41 -17 149 -59 240 -92 207 -75
545 -240 725 -353 221 -138 385 -265 403 -313 6 -15 43 -191 82 -392 39 -201
111 -567 160 -815 153 -774 221 -1170 305 -1775 14 -102 34 -248 45 -325 26
-187 103 -798 140 -1120 17 -143 39 -334 50 -425 120 -1008 156 -1312 205
-1760 14 -124 46 -357 175 -1275 11 -77 22 -174 26 -215 4 -41 11 -83 16 -93
5 -10 16 -69 23 -130 56 -461 89 -725 110 -862 45 -293 94 -680 101 -788 l7
-106 -30 -28 c-22 -21 -32 -41 -37 -77 -4 -27 -17 -63 -28 -80 -28 -42 -124
-121 -189 -155 -214 -112 -292 -141 -459 -170 -63 -11 -122 -20 -130 -20 -206
-5 -235 -2 -375 38 -38 10 -82 22 -98 25 -15 4 -44 24 -65 45 -21 22 -47 40
-57 41 -45 5 -65 -1 -81 -25 -15 -23 -15 -42 1 -247 9 -123 28 -333 41 -468
39 -389 42 -431 54 -700 6 -140 17 -334 25 -430 22 -273 29 -477 17 -484 -6
-3 -16 -23 -23 -44 -17 -53 -44 -86 -99 -121 -154 -100 -357 -116 -553 -44
-37 14 -109 52 -159 84 -99 64 -137 78 -292 110 -144 29 -206 12 -206 -57 0
-17 -11 -26 -46 -40 -67 -26 -84 -58 -84 -164 0 -190 -53 -258 -265 -342 -49
-20 -121 -43 -160 -53 -38 -9 -88 -23 -110 -30 -64 -22 -246 -46 -337 -44 -97
2 -198 17 -359 53 -64 14 -176 33 -249 41 -73 9 -136 18 -139 20 -4 2 -42 6
-86 9 -44 3 -129 11 -190 17 -104 11 -194 9 -415 -9 -101 -7 -562 -6 -720 3
-98 5 -310 22 -390 31 -25 3 -79 7 -120 10 -41 2 -106 8 -145 14 -38 5 -90 12
-115 14 -54 6 -267 54 -405 91 -55 15 -143 38 -195 50 -52 13 -130 35 -174 49
-43 14 -85 26 -92 26 -8 0 -22 4 -32 9 -9 6 -61 24 -115 41 -106 34 -183 69
-237 109 -52 38 -68 61 -75 106 -4 22 -13 49 -20 60 -25 40 -35 247 -14 287 6
11 14 191 20 411 5 216 11 415 14 442 3 28 14 185 25 350 12 165 27 368 35
450 8 83 21 254 30 380 8 127 18 248 21 270 6 50 -24 104 -58 106 -90 5 -111
-23 -153 -201 -40 -166 -43 -168 -355 -261 -93 -28 -155 -34 -325 -33 -163 0
-272 13 -350 41 -46 17 -72 30 -165 90 -19 13 -41 26 -47 29 -19 9 -92 85
-106 108 -8 14 -11 62 -10 136 2 107 1 117 -22 150 l-24 35 25 150 c13 83 31
195 39 250 16 106 67 394 115 660 30 159 100 575 120 710 6 39 15 84 20 100 5
17 14 75 20 130 5 55 17 143 25 195 15 98 70 490 131 940 44 327 105 823 149
1210 19 168 59 517 89 775 139 1190 169 1420 287 2230 58 398 82 550 154 990
216 1318 237 1427 309 1652 35 106 40 116 99 176 35 35 101 87 147 116 233
143 803 391 1120 487 129 38 244 80 316 114 23 11 45 20 49 20 4 0 54 43 111
95 57 52 121 106 143 119 22 14 55 49 75 78 35 52 166 171 231 209 33 20 37
20 126 4 191 -33 244 -36 634 -41 439 -5 834 11 1090 45 77 10 144 19 150 20
5 1 32 -25 60 -56z"/>
</g>
</svg>
