<?xml version="1.0" standalone="no"?>
<!DOCTYPE svg PUBLIC "-//W3C//DTD SVG 20010904//EN"
 "http://www.w3.org/TR/2001/REC-SVG-20010904/DTD/svg10.dtd">
<svg version="1.0" xmlns="http://www.w3.org/2000/svg"
 width="2048.000000pt" height="2864.000000pt" viewBox="0 0 2048.000000 2864.000000"
 preserveAspectRatio="xMidYMid meet">
<metadata>
Created by potrace 1.16, written by Peter Selinger 2001-2019
</metadata>
<g transform="translate(0.000000,2864.000000) scale(0.100000,-0.100000)"
fill="none" stroke="grey" stroke-width="2">
<path d="M0 14320 l0 -14320 10240 0 10240 0 0 14320 0 14320 -10240 0 -10240
0 0 -14320z m10760 10695 c30 -1 153 -3 273 -3 l218 -2 61 -57 c56 -54 249
-276 345 -396 37 -48 49 -56 125 -82 46 -15 225 -86 398 -156 173 -70 344
-139 380 -154 242 -97 439 -235 582 -406 34 -42 133 -157 219 -255 177 -204
261 -303 448 -529 279 -337 1205 -1281 1321 -1347 25 -14 53 -34 62 -45 16
-18 15 -21 -17 -62 -19 -23 -39 -59 -46 -79 -7 -20 -31 -62 -55 -92 -69 -89
-280 -308 -409 -426 -214 -195 -255 -241 -255 -291 0 -58 -19 -104 -66 -163
-53 -67 -80 -123 -104 -215 -34 -133 -67 -210 -139 -319 -18 -28 -39 -62 -46
-76 -7 -14 -35 -50 -61 -80 -26 -30 -53 -68 -61 -85 -7 -16 -29 -50 -48 -75
-44 -58 -91 -128 -140 -210 -70 -118 -165 -227 -240 -275 -27 -18 -59 -42 -69
-54 -11 -11 -24 -21 -30 -21 -6 0 -39 -24 -72 -52 -79 -68 -209 -172 -254
-203 -118 -81 -206 -139 -282 -188 -48 -31 -92 -65 -98 -77 -11 -20 -27 -120
-48 -300 -13 -106 -15 -172 -16 -380 0 -159 1 -168 28 -234 51 -124 176 -592
206 -776 11 -63 27 -144 35 -180 8 -36 26 -119 40 -185 14 -66 39 -178 54
-250 51 -232 84 -457 101 -675 6 -74 15 -148 20 -165 5 -16 18 -129 29 -250
36 -376 42 -438 51 -490 16 -90 63 -523 75 -695 7 -92 44 -402 75 -625 11 -77
29 -239 40 -360 35 -370 49 -515 65 -645 42 -354 56 -472 65 -540 5 -41 17
-151 25 -245 21 -253 70 -740 114 -1145 11 -96 25 -231 31 -300 14 -153 34
-328 55 -480 31 -227 76 -569 100 -770 14 -113 48 -367 75 -565 28 -198 55
-394 61 -435 6 -41 25 -158 44 -260 19 -102 45 -261 59 -355 14 -93 37 -244
50 -335 14 -91 33 -214 42 -275 30 -203 164 -1008 204 -1230 22 -121 49 -274
60 -340 11 -66 34 -199 51 -295 17 -96 42 -247 55 -335 13 -88 37 -239 54
-335 17 -96 35 -202 39 -235 10 -70 70 -437 106 -640 14 -77 32 -196 40 -265
8 -69 19 -150 24 -180 20 -112 31 -200 31 -253 0 -52 -2 -56 -35 -75 -22 -14
-36 -31 -40 -49 -9 -44 -45 -106 -74 -129 -15 -12 -77 -49 -138 -83 -61 -34
-116 -68 -123 -76 -7 -8 -20 -15 -30 -15 -10 0 -23 -7 -30 -15 -7 -8 -17 -15
-23 -15 -5 0 -26 -12 -46 -27 -20 -16 -38 -28 -41 -28 -25 -3 -86 -18 -99 -25
-49 -27 -143 -58 -241 -80 -30 -7 -61 -17 -68 -23 -7 -6 -32 -11 -56 -12 -24
-2 -52 -5 -62 -9 -10 -3 -39 -8 -64 -11 -25 -3 -58 -7 -75 -10 -16 -2 -64 -7
-105 -10 -41 -3 -86 -8 -99 -11 -27 -6 -183 -17 -221 -15 -14 0 -47 5 -75 10
-27 5 -57 9 -65 9 -31 0 -217 12 -250 16 -66 8 -132 33 -315 121 -60 29 -132
60 -160 70 -27 10 -68 28 -90 41 -67 36 -138 47 -270 40 -66 -4 -165 -8 -220
-9 -56 -1 -109 -8 -122 -15 -12 -6 -45 -17 -75 -23 -29 -6 -62 -16 -73 -22
-11 -6 -24 -10 -30 -8 -5 2 -68 4 -140 5 l-130 1 -20 34 c-11 18 -34 48 -52
66 -19 21 -33 49 -37 72 -12 76 -35 301 -41 408 -4 61 -13 157 -20 215 -25
195 -70 657 -95 980 -6 74 -15 167 -20 205 -6 39 -19 171 -31 295 -31 336 -36
385 -53 510 -9 63 -22 180 -30 260 -24 238 -46 429 -61 530 -19 123 -52 405
-70 595 -16 159 -48 450 -65 575 -5 41 -14 138 -20 215 -11 145 -17 201 -50
470 -26 212 -47 457 -55 635 -4 80 -11 163 -17 185 -6 22 -11 63 -13 90 -1 28
-8 73 -14 100 -17 76 -30 155 -35 205 -18 202 -49 367 -82 433 -8 16 -14 39
-14 52 0 65 -109 96 -146 41 -18 -28 -45 -134 -44 -174 1 -15 -4 -47 -10 -72
-15 -60 -26 -173 -44 -480 -24 -384 -67 -1033 -76 -1135 -5 -49 -18 -205 -29
-345 -12 -140 -23 -261 -26 -268 -6 -16 -38 -308 -55 -487 -6 -66 -17 -181
-25 -255 -8 -74 -19 -182 -25 -240 -6 -58 -15 -141 -20 -185 -6 -44 -22 -179
-35 -300 -14 -121 -34 -294 -45 -385 -11 -91 -25 -212 -30 -270 -5 -58 -16
-166 -25 -240 -8 -74 -24 -241 -35 -370 -11 -129 -27 -287 -35 -350 -8 -63
-23 -223 -34 -355 -32 -369 -50 -558 -66 -695 -40 -324 -47 -378 -56 -415 -10
-40 -11 -41 -77 -55 -69 -16 -68 -15 -102 -90 -14 -30 -62 -43 -150 -42 -87 2
-100 3 -135 15 -11 3 -31 9 -45 12 -69 15 -152 34 -210 50 -128 34 -315 17
-405 -37 -16 -9 -43 -25 -60 -34 -35 -20 -105 -78 -180 -149 -28 -27 -74 -70
-101 -95 -27 -25 -61 -59 -74 -75 -15 -18 -44 -36 -70 -44 -25 -8 -58 -22 -75
-32 -16 -9 -46 -20 -65 -24 -19 -4 -39 -11 -45 -15 -33 -27 -161 -28 -390 -5
-55 6 -198 45 -235 64 -9 5 -31 12 -50 16 -19 4 -42 13 -51 21 -8 8 -46 24
-82 37 -37 13 -75 30 -84 38 -30 25 -72 49 -85 49 -7 0 -30 11 -50 25 -20 14
-42 25 -49 25 -6 0 -20 11 -31 25 -11 14 -24 25 -30 25 -6 0 -25 11 -42 23
-17 13 -53 32 -79 42 -26 10 -50 22 -53 26 -3 5 -11 9 -18 9 -8 0 -31 16 -52
35 -21 19 -45 35 -55 35 -9 0 -22 7 -29 15 -7 8 -21 15 -31 15 -10 0 -20 4
-24 9 -6 10 -92 71 -100 71 -2 0 -45 25 -95 55 -50 30 -93 55 -96 55 -3 0 -27
14 -54 32 -39 26 -51 40 -59 73 -6 22 -22 51 -35 63 -22 18 -25 28 -21 64 3
24 10 86 15 138 6 52 20 136 30 185 10 50 28 153 40 230 12 77 32 194 45 260
13 66 40 224 59 350 20 127 43 272 52 323 8 51 19 126 24 165 8 65 30 206 75
502 9 55 29 195 46 310 16 116 43 291 59 390 16 99 41 259 55 355 13 96 34
236 45 310 11 74 25 171 31 215 5 44 16 114 24 155 7 42 21 132 30 200 18 145
50 352 70 460 13 74 20 115 70 440 30 197 52 340 66 435 5 39 17 115 25 170 8
55 25 186 38 290 14 105 36 264 50 355 14 91 30 201 35 245 24 188 57 417 66
445 2 8 16 110 30 225 14 116 34 282 45 370 11 88 27 221 35 295 9 74 17 142
20 150 11 39 36 246 55 450 20 220 50 514 90 875 10 99 24 230 30 290 11 118
35 302 51 400 10 63 43 319 84 660 44 363 112 891 151 1165 31 223 55 419 64
525 16 178 29 303 45 420 9 61 20 162 25 225 16 201 50 513 65 585 7 39 19
106 25 150 17 120 47 279 92 490 22 105 46 222 53 260 8 39 26 124 41 190 15
66 30 145 34 175 10 74 66 337 92 430 20 72 20 82 7 240 -7 91 -13 209 -14
262 0 109 -13 139 -76 170 -19 10 -45 27 -59 38 -87 72 -149 120 -156 120 -21
0 -214 204 -214 225 0 4 -29 51 -65 105 -35 54 -78 122 -95 151 -46 76 -103
146 -237 288 -24 24 -43 47 -43 50 0 4 -28 37 -63 75 -59 64 -97 128 -162 269
-14 32 -32 60 -40 63 -7 3 -18 17 -24 32 -7 15 -54 70 -106 121 -52 52 -95 99
-95 104 0 4 -22 32 -49 60 -64 69 -178 222 -195 262 -8 17 -25 40 -38 51 -14
11 -32 33 -41 49 -8 17 -24 39 -36 49 -12 11 -21 25 -21 32 0 7 -17 33 -37 57
-21 24 -60 74 -88 111 -27 37 -69 88 -91 114 -119 135 -236 278 -288 352 -25
36 -63 90 -84 120 -21 30 -42 67 -45 81 -4 14 -20 43 -37 64 -55 69 -52 103
11 140 18 11 59 47 89 79 94 100 601 600 634 624 38 27 394 400 547 572 115
129 169 193 299 356 78 97 315 363 336 376 6 4 47 54 90 110 104 136 202 233
294 290 158 98 582 273 1055 434 88 30 174 60 192 66 21 7 118 98 275 255
l243 245 665 -7 c366 -4 690 -8 720 -10z"/>
<path d="M9933 24364 c-35 -8 -53 -42 -53 -100 0 -36 6 -59 19 -75 18 -23 26
-24 126 -24 100 0 108 1 126 24 26 32 26 120 0 152 -16 20 -28 23 -107 25 -49
1 -99 0 -111 -2z"/>
</g>
</svg>
