<?xml version="1.0" standalone="no"?>
<!DOCTYPE svg PUBLIC "-//W3C//DTD SVG 20010904//EN"
 "http://www.w3.org/TR/2001/REC-SVG-20010904/DTD/svg10.dtd">
<svg version="1.0" xmlns="http://www.w3.org/2000/svg"
 width="1500.000000pt" height="2098.000000pt" viewBox="0 0 1500.000000 2098.000000"
 preserveAspectRatio="xMidYMid meet">
<metadata>
Created by potrace 1.16, written by Peter Selinger 2001-2019
</metadata>
<g transform="translate(0.000000,2098.000000) scale(0.100000,-0.100000)"
fill="none" stroke="grey" stroke-width="2">
<path d="M0 10490 l0 -10490 7500 0 7500 0 0 10490 0 10490 -7500 0 -7500 0 0
-10490z m7080 7814 c32 -3 53 -13 75 -34 47 -45 117 -46 143 0 10 19 30 34 50
39 18 5 189 7 395 4 321 -4 363 -7 375 -21 7 -10 39 -58 71 -107 33 -50 76
-103 97 -118 21 -14 105 -91 186 -169 99 -97 166 -153 205 -173 51 -27 58 -34
64 -67 6 -38 24 -68 41 -68 5 0 35 -12 66 -27 40 -19 72 -27 107 -26 46 0 51
-2 65 -31 11 -23 26 -34 59 -43 70 -20 114 -24 150 -13 29 8 41 5 85 -18 28
-16 76 -38 106 -51 30 -12 114 -62 185 -109 96 -64 143 -103 178 -147 56 -70
181 -320 225 -450 62 -181 122 -385 142 -483 11 -56 45 -199 75 -319 158 -636
311 -1421 445 -2288 47 -303 180 -1116 195 -1190 6 -28 4 -31 -27 -40 -25 -8
-40 -22 -60 -60 -34 -61 -35 -86 -5 -120 17 -20 32 -27 61 -27 20 0 40 3 44 6
6 7 45 -131 62 -219 5 -27 21 -131 35 -230 27 -190 43 -292 76 -495 24 -151
46 -340 60 -513 9 -125 11 -134 74 -292 36 -90 65 -170 65 -177 0 -7 6 -23 14
-34 15 -20 42 -93 96 -254 16 -47 52 -145 80 -219 28 -74 65 -190 81 -258 l31
-125 -26 -37 c-14 -20 -26 -42 -26 -49 0 -6 -5 -35 -11 -64 -10 -48 -19 -61
-91 -130 -44 -43 -82 -78 -84 -78 -3 0 -32 -19 -126 -82 -133 -89 -424 -205
-523 -208 -136 -5 -153 -2 -185 33 -17 17 -43 53 -58 78 -15 26 -43 71 -62
100 -37 56 -49 82 -124 264 -47 116 -117 280 -140 330 -77 164 -136 299 -136
308 0 7 -6 21 -13 32 -28 42 -88 227 -96 297 -9 75 -30 140 -51 153 -6 4 -28
7 -48 7 -51 0 -75 -31 -69 -92 2 -25 16 -187 30 -360 15 -173 29 -340 32 -370
3 -30 10 -154 15 -275 5 -121 16 -258 24 -305 15 -94 28 -219 51 -505 8 -104
20 -224 25 -265 21 -159 61 -616 75 -850 8 -135 19 -292 25 -350 36 -405 55
-791 85 -1778 15 -486 31 -821 60 -1267 9 -132 25 -433 36 -670 10 -236 24
-461 29 -500 5 -38 9 -282 9 -542 l1 -472 -30 -21 c-42 -30 -56 -63 -64 -149
-5 -58 -12 -80 -31 -103 -14 -16 -25 -36 -25 -43 0 -15 -83 -85 -120 -102 -79
-34 -110 -45 -122 -41 -7 3 -26 1 -42 -3 -21 -6 -35 -5 -45 5 -9 7 -38 19 -66
26 -27 7 -57 18 -65 25 -8 6 -28 17 -44 24 -16 7 -43 23 -60 37 -17 14 -74 60
-126 103 -117 96 -159 116 -284 137 -82 14 -107 15 -153 4 -95 -21 -316 -96
-368 -125 -47 -26 -70 -41 -175 -118 -63 -46 -163 -92 -242 -111 -54 -14 -82
-15 -145 -7 -42 5 -81 7 -86 4 -12 -7 -195 46 -237 70 -49 27 -65 42 -129 127
-58 76 -82 133 -86 205 -9 145 -31 241 -61 266 -8 7 -33 12 -56 12 -63 0 -78
-25 -78 -129 0 -45 -4 -85 -9 -88 -5 -4 -17 -32 -26 -64 -26 -88 -37 -104 -85
-125 -39 -18 -65 -20 -200 -19 -85 1 -181 -3 -213 -9 -61 -11 -202 -62 -227
-84 -8 -7 -27 -15 -43 -19 -24 -6 -85 -31 -162 -66 -22 -11 -156 -52 -224 -70
-73 -19 -183 -26 -261 -16 -160 21 -357 39 -440 41 -41 2 -96 10 -121 19 -25
8 -63 18 -85 21 -21 3 -74 18 -117 32 -137 47 -200 132 -197 269 1 38 -5 57
-21 78 -21 27 -22 34 -16 159 4 73 16 344 27 602 11 259 24 549 30 645 6 96
15 384 20 639 9 432 16 594 40 941 5 74 9 209 10 300 0 256 21 689 61 1260 6
80 14 215 19 300 6 85 19 270 30 410 11 140 31 399 45 575 45 578 88 1057 120
1340 8 72 19 191 25 265 6 74 17 203 25 285 8 83 17 231 20 330 3 99 8 203 11
231 7 66 -15 96 -70 96 -51 0 -70 -21 -97 -105 -31 -97 -67 -187 -89 -217 -17
-25 -140 -294 -140 -307 0 -7 -110 -229 -136 -273 -8 -14 -19 -36 -25 -50 -5
-14 -21 -43 -34 -65 -14 -22 -25 -51 -25 -65 -1 -43 -100 -183 -148 -209 -44
-23 -166 -7 -312 43 -186 62 -244 87 -380 165 -30 17 -77 42 -105 56 -62 31
-80 42 -128 79 -41 31 -97 118 -97 152 0 11 -7 29 -15 40 -21 28 -18 81 10
170 14 43 25 86 25 96 0 9 15 61 34 115 18 54 63 184 99 290 36 106 79 218 96
250 16 32 33 70 36 86 11 52 55 26 55 -34 0 -54 27 -82 78 -82 45 0 68 13 77
44 4 11 17 31 31 44 63 63 -8 157 -119 159 -59 1 -68 21 -37 81 11 22 20 58
20 85 0 89 61 611 95 810 8 47 22 130 30 185 9 55 22 141 31 190 37 218 74
440 84 505 5 30 18 109 30 175 12 66 26 147 31 180 5 33 18 110 29 170 11 61
32 180 46 265 14 85 37 218 50 295 14 77 39 225 55 328 16 104 31 192 34 197
3 4 12 64 20 132 18 143 24 180 60 383 14 83 37 214 50 293 13 79 31 180 40
225 8 45 33 177 55 294 22 117 56 277 76 355 20 79 42 168 50 198 40 171 138
538 183 685 86 279 127 380 207 516 127 212 135 220 330 325 182 98 228 120
344 164 41 15 107 42 145 60 39 17 115 52 170 77 238 107 218 94 384 262 84
86 221 220 305 298 146 138 152 142 186 137 19 -3 55 -8 80 -10z"/>
<path d="M7253 18079 c-59 -17 -80 -76 -44 -120 17 -21 28 -24 86 -24 58 0 69
3 86 24 24 29 24 72 2 100 -21 24 -84 34 -130 20z"/>
<path d="M6373 16902 c-49 -7 -70 -88 -35 -132 13 -16 29 -22 57 -22 47 0 75
28 75 76 0 57 -37 87 -97 78z"/>
<path d="M6410 16650 c-27 -6 -78 -88 -79 -127 -1 -37 40 -75 81 -75 47 0 54
5 78 52 47 93 6 171 -80 150z"/>
<path d="M9973 13392 c-33 -5 -53 -40 -53 -94 0 -64 30 -100 85 -100 57 0 79
30 70 97 -10 81 -38 107 -102 97z"/>
<path d="M10215 12183 c-31 -8 -46 -24 -71 -78 -32 -67 -31 -120 1 -168 14
-20 33 -37 41 -37 9 0 23 -9 33 -21 12 -15 28 -21 56 -21 74 0 113 85 62 136
-20 20 -22 26 -10 42 7 10 13 26 13 36 0 20 -35 94 -47 101 -16 9 -59 14 -78
10z"/>
<path d="M7143 11572 c-28 -4 -63 -47 -63 -77 0 -66 92 -93 137 -40 52 60 8
129 -74 117z"/>
</g>
</svg>
