<?xml version="1.0" standalone="no"?>
<!DOCTYPE svg PUBLIC "-//W3C//DTD SVG 20010904//EN"
 "http://www.w3.org/TR/2001/REC-SVG-20010904/DTD/svg10.dtd">
<svg version="1.0" xmlns="http://www.w3.org/2000/svg"
 width="2048.000000pt" height="2864.000000pt" viewBox="0 0 2048.000000 2864.000000"
 preserveAspectRatio="xMidYMid meet">
<metadata>
Created by potrace 1.16, written by Peter Selinger 2001-2019
</metadata>
<g transform="translate(0.000000,2864.000000) scale(0.100000,-0.100000)"
fill="none" stroke="grey" stroke-width="2">
<path d="M0 14320 l0 -14320 10240 0 10240 0 0 14320 0 14320 -10240 0 -10240
0 0 -14320z m11543 10674 c18 -10 95 -56 172 -104 319 -199 498 -319 513 -345
12 -18 78 -58 222 -132 164 -84 279 -154 575 -351 273 -182 388 -265 440 -317
78 -77 274 -239 317 -261 16 -8 28 -21 28 -28 0 -8 -20 -40 -44 -73 -24 -32
-51 -74 -61 -93 -39 -76 -137 -309 -157 -370 -11 -36 -43 -117 -70 -180 -132
-301 -185 -448 -227 -630 -70 -300 -76 -377 -75 -885 1 -474 3 -502 64 -724
28 -105 26 -124 -24 -205 -65 -106 -71 -119 -110 -271 -50 -191 -112 -408
-153 -540 -19 -60 -45 -144 -57 -185 -13 -41 -53 -172 -90 -290 -65 -206 -151
-529 -176 -655 -7 -33 -23 -94 -37 -135 -23 -66 -25 -80 -14 -118 6 -23 11
-84 12 -135 0 -90 6 -134 29 -247 7 -30 23 -113 36 -185 32 -167 48 -235 90
-370 68 -223 93 -339 103 -482 6 -76 15 -165 21 -198 6 -33 21 -186 35 -340
14 -154 32 -359 40 -455 9 -96 31 -343 50 -549 19 -206 35 -398 35 -427 0 -29
4 -75 10 -101 5 -26 19 -174 31 -328 36 -483 47 -619 53 -640 2 -11 10 -63 16
-115 6 -52 15 -129 21 -170 9 -71 39 -379 59 -595 5 -55 14 -145 20 -200 11
-102 29 -305 56 -615 8 -96 23 -308 34 -470 21 -322 39 -569 70 -960 23 -291
66 -901 75 -1065 10 -188 71 -947 100 -1250 8 -82 17 -186 20 -230 9 -123 24
-314 40 -490 8 -88 19 -227 25 -310 6 -82 15 -193 20 -245 5 -52 19 -212 30
-355 11 -143 29 -368 40 -500 11 -132 26 -341 35 -465 8 -124 17 -245 20 -270
3 -25 9 -110 15 -190 5 -80 19 -269 29 -420 11 -151 27 -399 36 -550 8 -151
22 -372 30 -490 8 -118 22 -323 30 -455 24 -386 25 -397 35 -475 13 -110 15
-401 3 -505 -13 -108 -27 -161 -51 -197 -28 -42 -112 -102 -172 -122 -30 -10
-64 -21 -75 -26 -34 -14 -123 -37 -310 -80 -205 -47 -195 -45 -295 -59 -185
-25 -216 -30 -233 -35 -9 -3 -24 -8 -33 -11 -9 -3 -62 -7 -118 -10 -101 -4
-133 -8 -193 -24 -18 -5 -48 -6 -67 -1 -19 4 -37 6 -40 3 -10 -10 -254 -16
-601 -14 -22 0 -67 0 -100 0 -33 -1 -73 2 -90 5 -154 29 -205 41 -235 56 -19
9 -60 25 -90 34 -99 32 -158 67 -188 113 -12 18 -28 33 -35 33 -6 0 -19 14
-27 31 -8 17 -28 39 -44 48 -47 27 -97 83 -128 143 -16 32 -33 60 -38 63 -6 4
-10 34 -10 68 0 34 -4 78 -9 97 -13 46 -38 402 -51 702 -5 130 -12 242 -14
250 -3 7 -14 123 -26 258 -11 135 -25 292 -31 350 -9 104 -39 492 -59 765 -26
350 -98 1613 -120 2095 -29 645 -61 1301 -70 1430 -5 80 -14 226 -20 325 -22
382 -42 701 -60 970 -11 154 -20 303 -20 331 0 68 -22 96 -74 96 -21 0 -45 -7
-54 -16 -15 -15 -38 -156 -63 -381 -5 -49 -15 -101 -21 -115 -10 -22 -20 -81
-32 -185 -2 -16 -6 -41 -10 -55 -3 -14 -10 -92 -16 -175 -29 -445 -51 -826
-60 -1035 -5 -129 -14 -307 -19 -395 -6 -88 -17 -295 -26 -460 -9 -165 -21
-365 -26 -445 -5 -80 -16 -262 -24 -405 -7 -143 -18 -321 -24 -395 -6 -74 -15
-218 -21 -320 -6 -102 -13 -205 -15 -230 -6 -78 -35 -507 -45 -690 -5 -96 -14
-236 -20 -310 -5 -74 -14 -209 -20 -300 -6 -91 -15 -237 -21 -325 -14 -219
-29 -552 -34 -780 -4 -185 -16 -333 -34 -445 -22 -130 -41 -274 -40 -298 3
-43 -28 -104 -76 -147 -54 -50 -80 -66 -180 -115 -44 -22 -87 -44 -95 -49 -35
-23 -196 -64 -245 -62 -168 4 -262 11 -310 24 -33 9 -71 16 -85 16 -59 0 -136
7 -148 15 -15 9 -113 18 -205 18 -38 0 -83 4 -100 9 -18 6 -58 10 -89 10 -32
0 -86 6 -121 13 -35 7 -110 14 -167 15 -225 5 -296 9 -322 19 -15 6 -44 13
-65 16 -22 2 -68 12 -103 21 -45 12 -116 18 -230 20 -172 2 -225 11 -275 45
-16 12 -46 28 -65 36 -79 34 -137 85 -191 167 -30 45 -61 96 -69 112 -17 36
-20 194 -9 575 8 248 15 370 40 615 5 55 16 244 24 420 13 280 25 462 65 1043
6 72 16 203 24 290 8 86 17 204 21 262 3 58 10 141 15 185 5 44 16 193 25 330
9 138 18 257 20 265 4 14 18 175 45 495 6 72 17 191 25 265 17 160 29 291 50
535 9 99 25 277 36 395 11 118 24 267 29 330 24 311 49 590 91 1010 11 113 24
257 29 320 6 63 12 129 15 145 3 17 12 113 20 215 8 102 20 226 25 275 12 114
38 445 86 1090 8 116 19 260 24 320 9 102 14 178 40 585 6 85 15 196 20 245 6
50 17 182 25 295 8 113 20 257 25 320 6 63 15 187 20 275 20 333 57 832 75
1010 2 22 9 105 15 185 6 80 17 206 25 280 36 337 46 462 55 710 10 274 15
302 65 440 36 98 59 189 85 335 12 66 28 154 35 195 8 41 35 194 60 340 68
393 122 635 172 758 22 56 24 73 19 140 -7 79 4 183 26 259 11 39 10 51 -14
125 -15 46 -30 99 -34 118 -3 19 -21 69 -39 111 -54 123 -131 409 -206 764
-21 96 -66 270 -148 563 -62 225 -91 368 -98 492 -4 71 -10 102 -24 122 -24
34 -24 64 1 158 80 297 92 738 36 1265 -34 318 -89 512 -283 1000 -104 263
-149 359 -211 451 -38 56 -72 125 -72 145 0 5 24 21 53 35 28 15 71 40 94 55
23 16 44 29 47 29 9 0 161 108 371 265 648 482 659 490 736 533 31 18 75 52
97 76 55 59 90 85 212 154 58 33 157 91 220 129 63 38 201 116 305 172 105 57
194 107 199 112 19 17 104 8 295 -31 496 -103 794 -127 1167 -95 229 19 390
49 654 119 112 29 188 33 233 10z"/>
</g>
</svg>
