<?xml version="1.0" standalone="no"?>
<!DOCTYPE svg PUBLIC "-//W3C//DTD SVG 20010904//EN"
 "http://www.w3.org/TR/2001/REC-SVG-20010904/DTD/svg10.dtd">
<svg version="1.0" xmlns="http://www.w3.org/2000/svg"
 width="2048.000000pt" height="2864.000000pt" viewBox="0 0 2048.000000 2864.000000"
 preserveAspectRatio="xMidYMid meet">
<metadata>
Created by potrace 1.16, written by Peter Selinger 2001-2019
</metadata>
<g transform="translate(0.000000,2864.000000) scale(0.100000,-0.100000)"
fill="none" stroke="grey" stroke-width="2">
<path d="M0 14320 l0 -14320 10240 0 10240 0 0 14320 0 14320 -10240 0 -10240
0 0 -14320z m11120 10680 c12 -16 26 -30 32 -30 11 0 60 -42 153 -129 28 -26
114 -105 193 -176 110 -98 154 -131 190 -141 25 -8 56 -21 68 -29 49 -32 177
-102 278 -152 38 -19 83 -45 100 -57 17 -13 42 -27 56 -31 26 -8 125 -59 225
-116 33 -19 103 -56 155 -82 216 -108 311 -165 421 -249 41 -32 130 -99 199
-149 174 -128 251 -190 357 -288 119 -112 164 -148 196 -160 49 -19 39 -103
-47 -426 -14 -49 -38 -142 -55 -205 -17 -63 -52 -198 -77 -300 -82 -338 -125
-482 -146 -500 -28 -22 -54 -148 -108 -520 -12 -80 -29 -179 -40 -220 -50
-200 -159 -832 -160 -923 0 -32 -9 -84 -20 -117 -11 -32 -27 -108 -35 -167
-21 -151 -42 -253 -75 -363 -16 -52 -32 -113 -35 -135 -4 -22 -31 -168 -61
-325 -118 -618 -107 -525 -119 -1030 -9 -369 -14 -509 -21 -552 -5 -32 1 -51
46 -135 60 -111 79 -162 122 -318 94 -344 141 -620 223 -1307 13 -113 31 -257
39 -320 8 -62 22 -198 31 -303 9 -104 25 -266 36 -360 25 -208 40 -386 79
-890 17 -214 35 -437 40 -495 10 -108 31 -412 50 -715 6 -93 17 -237 25 -320
13 -143 23 -290 45 -685 5 -96 17 -281 25 -410 8 -129 20 -309 25 -398 6 -90
12 -180 15 -200 3 -21 12 -122 20 -227 48 -603 42 -488 85 -1475 41 -934 55
-1207 74 -1525 8 -132 22 -368 30 -525 25 -445 45 -750 71 -1065 14 -159 31
-402 40 -540 8 -137 19 -317 25 -400 5 -82 17 -258 25 -390 9 -132 25 -352 35
-490 69 -895 80 -1071 82 -1275 l1 -185 -33 -85 c-18 -47 -38 -100 -45 -117
-13 -38 -53 -83 -72 -83 -7 0 -21 -4 -31 -9 -51 -25 -95 -40 -162 -56 -41 -9
-79 -21 -85 -25 -5 -4 -36 -10 -68 -14 -66 -7 -289 -61 -327 -78 -14 -6 -28
-11 -31 -10 -4 1 -21 -3 -38 -8 -18 -5 -56 -11 -85 -15 -29 -3 -81 -13 -117
-23 -42 -12 -75 -15 -93 -11 -23 6 -192 11 -341 10 -138 -2 -482 -10 -490 -12
-5 -2 -33 0 -62 4 -40 6 -75 2 -150 -17 -54 -13 -118 -27 -142 -30 -25 -4 -59
-13 -75 -21 -75 -34 -276 -96 -331 -102 -121 -12 -223 -6 -262 15 -87 44 -183
171 -183 239 0 17 -16 41 -45 70 -25 24 -45 45 -45 47 0 1 -9 51 -20 111 -11
60 -20 125 -20 144 0 20 -7 68 -15 106 -15 71 -26 198 -45 540 -6 105 -15 249
-21 320 -5 72 -14 222 -19 335 -5 113 -14 291 -19 395 -10 172 -37 870 -47
1155 -5 175 -24 665 -29 755 -13 266 -25 560 -30 765 -3 129 -7 282 -10 340
-3 58 -7 222 -10 365 -7 325 -23 652 -36 713 -5 26 -11 63 -13 82 -7 62 -25
163 -46 245 -11 44 -20 94 -20 110 0 17 -7 41 -16 53 -12 18 -16 47 -16 122 1
118 -11 142 -71 142 -68 0 -92 -39 -107 -174 -6 -51 -15 -106 -20 -123 -13
-42 -29 -342 -40 -778 -6 -204 -14 -464 -20 -577 -11 -232 -18 -535 -25 -1045
-12 -883 -47 -1916 -75 -2205 -11 -113 -25 -270 -30 -350 -12 -173 -26 -329
-45 -505 -8 -71 -19 -184 -25 -250 -45 -530 -77 -774 -110 -835 -5 -8 -30 -27
-57 -41 -35 -19 -54 -38 -72 -72 -15 -28 -36 -52 -55 -61 -17 -9 -41 -26 -53
-40 -13 -13 -44 -29 -70 -36 -27 -6 -55 -17 -63 -24 -8 -6 -44 -29 -80 -51
-36 -21 -83 -52 -105 -70 -22 -18 -58 -40 -80 -50 -22 -10 -47 -24 -55 -31
-14 -11 -85 -35 -120 -40 -57 -8 -115 -14 -180 -20 -41 -3 -84 -7 -95 -8 -11
-1 -33 2 -50 6 -16 5 -63 11 -103 13 -39 2 -80 6 -90 9 -9 3 -31 8 -47 10 -17
2 -45 9 -62 14 -18 6 -33 9 -33 6 0 -2 -10 2 -23 10 -12 8 -33 17 -47 19 -37
6 -74 23 -89 40 -7 9 -25 19 -41 22 -15 3 -45 15 -66 26 -21 10 -46 19 -55 19
-9 0 -22 7 -29 15 -7 8 -18 15 -24 15 -6 0 -28 11 -48 25 -20 14 -42 25 -49
25 -6 0 -27 14 -46 30 -18 17 -42 30 -52 30 -10 0 -24 6 -30 14 -6 7 -37 21
-69 30 -31 9 -93 28 -137 41 -44 14 -93 27 -108 29 -16 3 -43 10 -62 16 -18 6
-55 15 -81 20 -27 5 -92 19 -144 31 -52 11 -111 22 -131 23 -20 2 -40 5 -45 8
-5 3 -34 11 -64 18 -30 7 -83 26 -117 41 -34 16 -66 29 -71 29 -5 0 -17 9 -27
20 -10 11 -22 20 -27 20 -18 0 -80 54 -95 84 -22 42 -29 283 -14 465 11 128
17 220 41 681 6 102 23 336 40 520 16 184 34 423 40 530 6 107 18 278 26 380
8 102 19 248 25 325 5 77 16 203 24 280 8 77 22 237 30 355 9 118 20 262 26
320 17 182 27 290 43 445 17 171 31 349 46 579 6 87 16 168 21 179 6 10 9 31
6 46 -3 14 -1 33 4 42 10 20 32 334 54 769 16 338 35 606 60 870 8 85 21 301
30 480 9 179 20 368 25 420 5 52 12 167 15 255 3 88 10 205 15 260 5 55 14
174 20 265 6 91 17 230 25 310 8 80 19 260 25 400 5 140 15 302 20 360 6 58
15 167 20 242 5 76 14 146 19 157 6 10 13 154 16 332 3 173 10 413 15 534 22
477 41 836 45 848 3 6 9 93 14 192 31 555 62 951 91 1140 10 64 25 220 40 405
30 384 74 659 144 908 15 50 29 120 33 155 3 34 12 75 20 90 13 27 39 133 68
282 39 204 55 274 73 315 16 39 19 66 17 195 -1 83 -7 238 -13 345 -6 107 -12
254 -12 325 -1 209 -45 458 -134 755 -24 80 -46 159 -49 175 -3 17 -14 66 -25
110 -11 44 -25 107 -32 140 -6 33 -29 132 -50 220 -22 89 -50 246 -64 351 -14
105 -30 212 -36 240 -25 124 -31 161 -55 344 -36 270 -70 453 -145 765 -15 66
-40 198 -54 294 -16 103 -45 238 -71 330 -24 86 -51 190 -59 231 -37 178 -204
719 -247 799 -10 20 -19 49 -19 66 0 28 14 41 148 143 81 61 185 148 232 192
47 45 118 109 159 143 41 34 95 80 120 103 61 54 257 197 301 219 19 9 42 23
50 30 21 19 157 95 169 95 5 0 42 22 82 50 39 27 92 57 118 66 25 10 53 23 61
30 24 20 163 90 206 104 21 7 66 25 99 40 108 51 155 70 168 70 7 0 17 4 23 9
5 4 43 21 84 37 64 24 89 41 171 119 79 74 213 199 333 310 12 11 50 43 84 72
l62 52 78 -29 c139 -50 480 -109 763 -130 119 -9 168 -8 275 5 155 18 357 69
491 124 121 49 145 51 173 11z"/>
<path d="M9900 24321 c-27 -7 -60 -61 -60 -97 0 -42 32 -67 85 -67 59 0 85 25
85 83 0 62 -48 97 -110 81z"/>
</g>
</svg>
