<?xml version="1.0" standalone="no"?>
<!DOCTYPE svg PUBLIC "-//W3C//DTD SVG 20010904//EN"
 "http://www.w3.org/TR/2001/REC-SVG-20010904/DTD/svg10.dtd">
<svg version="1.0" xmlns="http://www.w3.org/2000/svg"
 width="1500.000000pt" height="2098.000000pt" viewBox="0 0 1500.000000 2098.000000"
 preserveAspectRatio="xMidYMid meet">
<metadata>
Created by potrace 1.16, written by Peter Selinger 2001-2019
</metadata>
<g transform="translate(0.000000,2098.000000) scale(0.100000,-0.100000)"
fill="none" stroke="grey" stroke-width="2">
<path d="M0 10490 l0 -10490 7500 0 7500 0 0 10490 0 10490 -7500 0 -7500 0 0
-10490z m6654 7849 c21 -6 48 -22 60 -35 22 -26 90 -48 191 -63 75 -11 175
-40 195 -57 36 -30 256 -71 350 -64 52 3 87 3 170 0 67 -2 106 2 174 16 11 3
75 11 141 19 141 17 163 22 190 45 42 35 265 140 298 140 40 0 147 -50 202
-94 22 -18 62 -45 88 -62 26 -16 67 -41 90 -56 23 -15 47 -28 54 -28 20 0 149
-68 181 -95 17 -14 35 -25 41 -25 9 0 228 -105 276 -132 11 -7 41 -22 67 -35
26 -12 62 -36 81 -53 19 -16 40 -30 46 -30 6 0 29 -11 51 -25 22 -14 44 -25
50 -25 5 0 44 -21 85 -47 120 -73 212 -204 289 -406 14 -37 26 -76 26 -87 0
-11 16 -68 36 -127 52 -155 99 -352 124 -518 6 -38 24 -128 39 -200 16 -71 32
-152 36 -180 17 -120 45 -273 55 -301 7 -16 16 -51 20 -79 5 -27 20 -108 34
-180 15 -71 30 -150 35 -175 4 -25 17 -81 28 -125 11 -44 26 -109 32 -145 11
-65 23 -123 60 -280 11 -47 21 -101 21 -121 0 -20 9 -62 20 -94 11 -32 20 -72
20 -89 0 -17 9 -64 20 -104 20 -73 35 -147 65 -327 10 -55 24 -119 31 -143 19
-59 32 -119 44 -204 6 -40 24 -129 41 -198 17 -69 37 -159 44 -200 7 -41 18
-93 24 -115 5 -22 15 -74 21 -115 12 -88 32 -190 53 -275 8 -33 22 -103 31
-155 10 -52 24 -117 31 -145 8 -27 17 -77 20 -110 4 -33 15 -89 25 -125 10
-36 26 -110 35 -165 9 -55 27 -145 40 -200 13 -55 31 -140 40 -190 9 -49 25
-130 35 -180 11 -49 22 -110 26 -135 3 -25 14 -78 25 -119 10 -41 19 -98 19
-125 0 -31 12 -83 29 -131 15 -44 34 -105 40 -135 7 -30 26 -111 43 -180 31
-128 31 -133 10 -292 -9 -72 -52 -134 -124 -181 -29 -18 -59 -41 -67 -50 -7
-10 -19 -17 -26 -17 -7 0 -36 -25 -65 -56 -46 -49 -156 -134 -174 -134 -3 0
-35 -18 -71 -40 -36 -22 -69 -40 -74 -40 -5 0 -24 -8 -43 -17 -18 -9 -42 -21
-53 -26 -11 -6 -47 -11 -80 -13 -67 -2 -58 -7 -209 129 -43 39 -90 79 -105 88
-14 9 -39 31 -55 48 -17 17 -36 31 -43 31 -7 0 -13 5 -13 11 0 6 -42 55 -94
108 -51 53 -111 116 -133 140 -34 36 -46 43 -79 43 -42 0 -74 -28 -74 -66 0
-48 48 -449 76 -636 8 -58 19 -154 24 -215 5 -60 16 -162 24 -225 29 -206 39
-294 37 -330 -1 -19 3 -60 10 -90 6 -30 15 -129 19 -220 24 -433 30 -528 34
-560 9 -61 26 -272 31 -365 2 -49 9 -160 14 -245 25 -356 35 -544 36 -700 0
-91 4 -170 8 -176 6 -10 20 -214 19 -269 -1 -11 3 -81 8 -155 14 -196 35 -612
33 -630 -2 -8 2 -73 7 -145 9 -128 25 -573 35 -980 3 -115 10 -383 15 -595 6
-212 13 -493 15 -625 6 -294 13 -449 25 -580 7 -75 23 -676 23 -850 0 -27 -45
-143 -91 -233 -23 -46 -173 -203 -268 -282 -43 -36 -95 -81 -115 -100 -43 -41
-73 -60 -93 -60 -8 0 -27 -11 -43 -24 -61 -51 -317 -110 -361 -82 -6 4 -28 8
-47 10 -19 2 -44 11 -53 20 -10 9 -24 16 -30 16 -12 0 -92 103 -92 118 0 5 -8
20 -19 33 -10 13 -22 39 -26 57 -3 18 -24 55 -46 82 -30 38 -39 58 -39 89 0
58 -26 84 -83 84 -47 0 -57 -5 -138 -71 -147 -120 -207 -166 -229 -175 -14 -6
-32 -16 -40 -23 -8 -6 -60 -23 -115 -37 -99 -25 -182 -27 -230 -7 -11 4 -35
14 -53 20 -22 9 -40 26 -52 51 -11 20 -33 58 -50 82 -16 25 -30 52 -30 61 0
27 -60 85 -100 96 -61 16 -93 4 -144 -56 -26 -29 -52 -66 -59 -81 -26 -61
-139 -193 -164 -193 -8 0 -26 -9 -40 -20 -14 -11 -33 -20 -42 -20 -10 0 -21
-4 -27 -10 -25 -25 -166 -20 -339 12 -79 14 -151 27 -200 36 -39 6 -254 8
-425 3 -92 -3 -199 4 -233 15 -12 4 -33 15 -46 25 -13 11 -31 19 -40 19 -19 0
-62 42 -81 80 -7 14 -27 43 -45 65 -17 22 -36 52 -43 67 -25 60 -120 82 -166
39 -12 -11 -26 -21 -31 -21 -4 0 -24 -16 -43 -36 -19 -19 -44 -40 -56 -45 -11
-5 -34 -18 -51 -29 -37 -25 -151 -80 -165 -80 -11 0 -46 -18 -70 -37 -10 -8
-58 -10 -150 -8 -148 3 -172 6 -192 21 -7 6 -26 16 -43 23 -45 17 -175 149
-175 177 0 5 -24 49 -54 99 -75 126 -90 190 -76 337 6 62 15 133 20 158 18 86
32 307 36 565 2 143 7 379 11 525 5 146 7 279 6 295 -14 231 8 1154 33 1400 3
22 8 193 12 380 6 254 11 346 21 364 10 18 11 39 5 80 -10 67 -8 179 7 481 6
124 13 267 14 318 2 51 9 115 15 144 8 30 10 79 7 120 -3 39 1 124 9 196 9 70
13 148 9 173 -3 26 1 125 9 220 15 184 29 436 41 749 2 63 11 165 19 227 8 62
12 127 9 146 -3 18 2 78 10 133 9 54 18 151 22 214 4 63 11 147 16 185 6 39
19 142 30 230 11 88 27 212 35 275 8 63 19 158 24 210 5 52 16 131 25 175 8
44 22 125 30 180 22 144 64 388 80 476 8 42 15 87 15 101 0 31 -28 66 -55 69
-54 4 -66 -2 -100 -53 -171 -257 -307 -427 -364 -457 -10 -6 -33 -30 -52 -55
-19 -25 -39 -46 -45 -46 -6 0 -47 -42 -92 -92 -77 -88 -108 -113 -177 -136
-37 -13 -57 -13 -122 -1 -47 9 -136 45 -173 70 -8 5 -28 17 -44 27 -16 9 -52
37 -80 62 -28 25 -87 74 -131 110 -44 36 -92 79 -107 95 -70 80 -88 104 -88
122 0 11 -10 33 -21 48 -29 35 -43 110 -27 138 17 32 38 165 47 302 5 78 18
162 38 240 36 143 47 189 74 315 11 52 29 136 40 185 11 50 24 113 28 141 5
28 14 61 20 72 6 11 11 34 11 51 0 17 6 48 14 68 8 21 17 61 20 90 4 28 14 69
23 90 9 21 20 63 24 93 17 120 38 207 76 301 10 24 13 51 8 76 -4 26 -1 53 9
79 8 21 17 65 21 96 4 35 14 67 27 84 16 19 25 54 35 133 7 58 22 133 33 167
10 33 24 89 29 125 10 61 34 177 81 389 12 52 27 127 35 165 8 39 21 104 30
145 9 41 20 100 24 130 5 30 14 68 20 83 6 16 11 41 11 56 0 15 13 85 30 157
16 71 30 145 30 164 0 31 19 110 52 220 5 19 14 64 18 100 13 110 89 468 135
635 9 33 21 88 25 122 5 34 16 78 25 98 8 21 15 48 15 60 0 13 23 119 51 236
46 194 70 290 144 574 39 152 70 233 188 490 25 55 61 139 80 187 64 160 210
344 316 397 31 16 103 60 161 98 244 162 385 243 421 243 7 0 26 11 44 24 17
13 53 35 81 48 27 14 71 37 98 51 27 15 56 27 64 27 24 0 104 52 148 98 54 55
104 90 129 91 11 1 37 -4 59 -10z"/>
<path d="M7283 17812 c-50 -8 -70 -88 -34 -133 17 -21 28 -24 86 -24 58 0 69
3 86 24 24 29 25 82 2 110 -18 21 -86 33 -140 23z"/>
</g>
</svg>
