<?xml version="1.0" standalone="no"?>
<!DOCTYPE svg PUBLIC "-//W3C//DTD SVG 20010904//EN"
 "http://www.w3.org/TR/2001/REC-SVG-20010904/DTD/svg10.dtd">
<svg version="1.0" xmlns="http://www.w3.org/2000/svg"
 width="1256.000000pt" height="1757.000000pt" viewBox="0 0 1256.000000 1757.000000"
 preserveAspectRatio="xMidYMid meet">
<metadata>
Created by potrace 1.16, written by Peter Selinger 2001-2019
</metadata>
<g transform="translate(0.000000,1757.000000) scale(0.100000,-0.100000)"
fill="none" stroke="grey" stroke-width="2">
<path d="M0 8785 l0 -8785 6280 0 6280 0 0 8785 0 8785 -6280 0 -6280 0 0
-8785z m6355 8176 c17 -4 41 -4 55 0 82 23 166 -6 272 -97 88 -75 162 -171
218 -283 52 -104 138 -321 157 -395 8 -34 21 -71 29 -83 18 -29 44 -134 49
-198 3 -48 20 -362 30 -555 2 -52 4 -150 4 -217 0 -130 9 -172 59 -286 16 -35
40 -68 61 -84 l35 -27 -31 -8 c-71 -18 -121 -142 -89 -220 22 -52 4 -57 -46
-14 -58 50 -95 51 -163 5 -23 -16 -47 -29 -52 -29 -5 0 -40 -31 -76 -69 -72
-74 -81 -102 -49 -139 25 -30 185 -120 317 -178 33 -14 73 -32 89 -40 16 -8
35 -14 43 -14 17 0 7 -75 -13 -105 -28 -40 -4 -105 39 -105 20 0 19 -2 -8 -18
l-29 -18 -16 30 c-16 32 -60 50 -93 40 -12 -4 -24 1 -33 15 -31 44 -138 71
-167 42 -19 -19 -37 -12 -37 13 0 14 -10 37 -23 52 -18 21 -32 27 -64 27 -45
0 -78 -20 -155 -90 -26 -24 -55 -43 -64 -43 -19 0 -78 -33 -113 -64 -16 -14
-25 -17 -28 -9 -2 7 -14 27 -26 45 -41 61 -156 73 -197 20 -29 -36 -101 -191
-139 -297 -18 -49 -39 -106 -46 -125 -8 -19 -19 -54 -25 -77 -6 -24 -14 -43
-19 -43 -5 0 -9 66 -9 148 -1 137 -13 280 -46 532 -18 147 -44 192 -109 192
-50 0 -96 -28 -113 -68 -8 -19 -17 -34 -20 -34 -3 0 -15 12 -28 26 -17 21 -31
27 -64 27 -25 0 -50 -7 -60 -17 -10 -9 -26 -16 -35 -16 -8 0 -24 -10 -34 -22
-14 -18 -30 -23 -71 -25 -30 -1 -61 -8 -69 -15 -9 -7 -37 -23 -62 -34 -38 -18
-47 -19 -54 -8 -15 25 41 104 74 104 10 0 28 15 41 33 12 17 52 64 89 103 71
75 99 119 99 156 0 29 -35 87 -58 95 -9 4 -24 16 -33 28 -9 11 -33 27 -52 34
-29 12 -41 25 -65 80 -50 110 -55 137 -49 235 5 62 18 128 42 206 20 63 43
160 52 216 16 99 16 103 -7 210 -40 190 -38 309 10 538 31 151 156 436 247
565 68 95 168 197 244 247 80 52 188 103 244 114 43 9 190 3 240 -9z m1658
-3286 c56 -11 78 -38 88 -107 5 -35 9 -76 9 -92 0 -16 6 -39 14 -51 17 -25 12
-35 -16 -35 -30 0 -59 -58 -56 -114 1 -32 -2 -51 -10 -54 -14 -4 -15 18 -1 78
6 25 12 89 14 142 4 120 -7 141 -75 141 -37 0 -48 -6 -73 -33 -21 -24 -28 -40
-25 -61 4 -22 1 -29 -12 -29 -29 0 -67 -38 -125 -123 -30 -45 -71 -104 -90
-132 -19 -27 -35 -56 -35 -64 0 -39 -72 -131 -103 -131 -1 0 -2 21 -2 47 0 35
6 52 23 69 12 13 22 30 22 37 0 8 9 17 19 20 11 3 37 31 57 63 20 33 43 63 51
67 7 4 26 34 41 65 16 31 41 75 55 96 30 44 34 81 12 113 -14 20 -13 21 19 21
44 0 55 7 72 48 8 19 20 34 28 34 7 0 19 7 26 15 11 14 14 13 27 -4 7 -11 28
-23 46 -26z m-261 -31 l16 -35 -31 7 c-18 4 -43 7 -56 6 -27 -2 -68 -35 -76
-63 -3 -10 -20 -33 -38 -52 -18 -19 -44 -48 -59 -65 -15 -18 -34 -32 -42 -32
-8 0 -27 -10 -43 -23 -38 -32 -67 -42 -59 -21 3 8 6 24 6 35 0 10 6 19 13 19
8 0 28 18 46 40 17 22 40 40 51 40 10 0 40 25 67 55 26 30 53 55 60 55 6 0 20
12 30 26 15 21 50 37 93 43 3 0 12 -16 22 -35z m-3613 -458 c86 -159 159 -287
174 -304 8 -9 29 -42 47 -72 18 -30 49 -77 69 -105 21 -27 44 -64 50 -82 7
-18 20 -38 28 -45 18 -15 63 -102 63 -122 0 -9 12 -50 26 -93 14 -43 34 -125
44 -183 10 -58 30 -161 44 -230 13 -69 34 -172 45 -230 35 -181 50 -245 75
-320 14 -40 22 -78 19 -84 -14 -22 -33 -218 -31 -321 1 -71 -2 -118 -10 -132
-7 -12 -16 -48 -21 -80 -10 -68 -46 -256 -70 -363 l-16 -75 -42 67 c-23 36
-89 156 -147 265 -57 109 -129 242 -159 295 -124 219 -160 322 -177 512 -6 59
-17 141 -25 181 -9 41 -29 165 -46 277 -27 183 -31 242 -40 588 -11 407 -9
493 18 651 19 115 22 115 82 5z m3021 7 c0 -26 -1 -26 -14 -8 -14 20 -12 35 5
35 5 0 9 -12 9 -27z m730 -33 c-11 -21 -20 -53 -20 -70 0 -34 -6 -37 -30 -15
-16 15 -15 18 11 47 16 16 32 41 35 54 3 13 10 24 15 24 5 0 0 -18 -11 -40z
m257 -90 c-8 -22 -8 -38 -1 -58 11 -28 10 -29 -33 -41 -53 -16 -60 -11 -38 23
10 15 15 37 13 51 -4 19 -1 25 11 25 10 0 26 7 37 15 10 8 20 15 21 15 1 0 -4
-13 -10 -30z m-1300 -16 c-3 -3 -12 -4 -19 -1 -8 3 -5 6 6 6 11 1 17 -2 13 -5z
m963 -153 c0 -36 32 -61 84 -66 27 -3 55 -10 62 -16 17 -14 80 -14 97 -1 24
19 64 22 77 7 7 -8 18 -15 24 -15 13 0 11 -76 -3 -135 -6 -22 -11 -62 -11 -88
0 -62 -34 -283 -70 -467 -64 -319 -74 -522 -35 -745 13 -75 15 -179 14 -615
-1 -339 2 -533 8 -545 24 -47 41 -117 36 -148 -4 -24 2 -47 22 -85 35 -67 54
-143 48 -189 -4 -30 1 -46 21 -76 15 -22 26 -52 26 -71 0 -19 6 -56 14 -82 8
-27 24 -96 36 -154 11 -58 25 -123 30 -145 28 -127 61 -293 74 -380 26 -165
27 -178 31 -240 2 -33 8 -89 14 -125 6 -36 18 -112 27 -170 8 -58 21 -141 29
-185 7 -44 18 -116 24 -160 6 -44 18 -120 27 -170 9 -49 24 -164 34 -255 10
-91 26 -196 34 -235 8 -38 15 -90 16 -114 0 -25 4 -58 9 -75 24 -81 45 -217
71 -455 7 -74 6 -86 -8 -97 -11 -8 -24 -9 -43 -2 -25 9 -26 12 -17 41 22 68
21 85 -4 110 -23 23 -24 27 -11 51 19 36 7 113 -21 141 -23 23 -22 46 1 82 11
16 13 36 8 73 -9 69 -30 92 -86 95 -69 4 -74 9 -71 63 4 56 -18 91 -60 94 -24
2 -25 4 -12 22 8 11 14 30 14 42 0 29 -35 72 -63 76 -19 3 -17 6 16 21 40 19
67 64 67 109 0 33 -27 68 -52 68 -20 0 -21 1 -3 20 10 11 22 41 27 68 5 26 11
59 14 74 7 32 -32 78 -66 78 -20 0 -20 1 -4 26 10 14 18 46 19 72 1 26 6 59
10 74 4 15 2 48 -4 75 -7 26 -11 76 -11 110 1 54 -2 66 -24 88 -14 14 -34 25
-45 25 -19 0 -19 2 4 25 30 29 33 73 7 105 -25 31 -89 31 -114 0 -34 -42 -12
-119 35 -121 l22 0 -22 -9 c-12 -5 -27 -18 -33 -30 -16 -30 -32 -114 -36 -190
-2 -36 -8 -83 -13 -105 -17 -70 -12 -151 10 -180 11 -14 29 -25 40 -25 12 0
17 -4 13 -11 -4 -6 -8 -58 -10 -115 -1 -57 -8 -112 -13 -123 -6 -11 -11 -24
-11 -30 0 -5 -11 -21 -25 -35 -14 -14 -25 -36 -25 -49 0 -30 36 -77 58 -77 17
0 21 -18 21 -114 0 -47 24 -86 54 -87 l22 -2 -22 -4 c-12 -2 -27 -10 -33 -18
-14 -17 -50 -114 -50 -136 0 -27 33 -59 63 -61 20 -2 27 -8 27 -23 0 -11 4
-27 9 -35 7 -10 0 -25 -25 -52 -19 -21 -34 -46 -34 -56 0 -9 -7 -26 -15 -36
-8 -11 -15 -28 -15 -38 0 -10 -5 -18 -10 -18 -16 0 -50 -62 -50 -90 0 -44 34
-124 57 -135 15 -6 22 -20 25 -45 3 -32 1 -36 -22 -38 -33 -3 -49 -21 -62 -68
-22 -87 -22 -92 10 -124 17 -16 40 -30 51 -30 19 0 19 -1 -4 -25 -14 -13 -25
-32 -25 -42 0 -13 -9 -19 -33 -20 -40 -3 -67 -34 -67 -77 0 -42 23 -72 60 -80
30 -6 31 -7 16 -28 -32 -45 -10 -101 47 -117 24 -7 26 -9 10 -10 -33 -1 -64
-48 -63 -95 0 -23 -2 -55 -6 -72 -4 -24 0 -38 22 -65 19 -22 21 -28 7 -16 -31
27 -92 25 -115 -3 -22 -27 -23 -60 -3 -86 20 -26 19 -32 -7 -36 -14 -3 -33 5
-50 20 -39 36 -103 34 -135 -2 -28 -32 -30 -76 -5 -106 13 -17 30 -23 63 -24
43 -1 45 -2 41 -29 -2 -15 2 -37 10 -50 18 -28 12 -57 -12 -57 -10 0 -22 -5
-25 -10 -9 -15 -25 -2 -25 19 0 11 -8 29 -18 41 -15 18 -29 23 -67 23 -57 0
-85 -25 -85 -76 0 -34 33 -108 56 -128 19 -16 90 -15 109 1 13 11 18 10 30 -6
12 -17 11 -20 -6 -26 -20 -8 -28 -24 -50 -96 -9 -32 -9 -48 -1 -67 16 -36 -3
-41 -31 -9 -20 22 -32 27 -70 27 -25 0 -52 -5 -59 -11 -11 -8 -13 -3 -10 27 5
52 -22 83 -73 83 -27 0 -44 -6 -55 -19 -9 -11 -27 -22 -42 -25 -23 -4 -27 -1
-30 23 -4 27 -3 28 33 24 51 -5 121 13 142 37 22 26 22 89 -1 118 -12 15 -30
22 -58 23 l-41 2 8 35 c14 57 10 80 -16 105 -22 23 -22 25 -5 25 73 0 56 172
-19 190 l-21 5 20 37 c26 49 25 74 -3 102 -21 21 -22 26 -10 42 15 20 13 49
-6 119 -7 22 -13 60 -15 85 -7 93 -32 150 -67 150 -10 0 -21 5 -24 10 -3 6 3
10 14 10 24 0 51 36 51 66 0 35 -31 65 -67 66 -26 1 -30 3 -18 12 30 22 85
121 85 152 0 40 -27 74 -62 76 -24 2 -41 17 -20 19 97 7 107 14 137 102 18 54
18 58 2 92 -9 20 -17 55 -17 78 -1 57 -15 117 -34 135 -10 10 -33 15 -65 15
-45 0 -49 2 -40 18 5 10 9 26 9 36 0 21 63 46 79 30 5 -5 26 -9 47 -9 49 0 78
32 70 77 -9 42 -7 95 4 116 20 37 11 76 -30 128 -43 54 -48 75 -25 105 39 51
4 117 -62 119 -38 2 -40 3 -27 22 21 29 17 63 -11 90 -13 14 -23 25 -22 26 1
0 16 3 32 5 52 8 64 34 64 132 -1 56 -6 95 -14 108 -15 24 -11 34 16 34 22 0
49 37 49 66 0 12 -8 32 -19 45 -17 21 -27 23 -94 23 -58 1 -80 -3 -94 -17 -19
-16 -19 -16 -15 12 3 22 -2 36 -20 54 -21 21 -23 27 -11 43 15 20 17 62 4 82
-5 9 0 22 15 37 13 13 24 28 24 34 0 5 13 12 30 16 36 8 70 48 70 84 0 33 -26
71 -48 71 -14 0 -17 8 -14 45 4 43 29 107 45 113 4 1 16 2 28 2 53 0 126 141
100 196 -6 14 -11 39 -11 56 0 22 -10 39 -36 63 -55 51 -103 52 -153 5 -17
-15 -39 -31 -48 -34 -10 -4 -6 3 9 16 40 33 78 88 78 113 0 15 7 21 26 23 14
1 30 4 35 8 22 13 102 150 121 207 11 34 24 69 29 77 12 20 33 65 55 118 15
36 16 49 6 76 -7 17 -15 53 -18 79 -6 43 -5 47 14 47 46 0 89 111 63 166 -9
21 -8 24 9 24 23 0 50 36 50 68 0 12 -10 33 -22 45 -18 17 -22 32 -20 61 2 27
-3 47 -16 66 -17 23 -18 28 -6 45 20 27 17 69 -5 96 -14 17 -16 29 -10 41 5
10 9 30 8 45 0 15 5 48 12 71 10 37 9 49 -3 76 -15 29 -14 33 4 56 24 30 20
89 -10 129 -19 27 -19 27 0 51 21 26 21 74 1 150 -6 22 -6 43 0 57 21 48 -18
112 -73 117 -19 2 -43 7 -54 11 -10 5 -31 8 -47 9 -22 1 -29 6 -29 21 0 37
-28 63 -74 70 -70 11 -127 -3 -161 -39 -16 -17 -47 -40 -68 -50 -21 -9 -41
-24 -44 -33 -5 -12 -16 -13 -57 -7 -137 21 -190 -1 -220 -90 -15 -43 -18 -64
-10 -84 5 -15 8 -40 6 -56 l-4 -29 -19 32 c-18 30 -33 36 -84 32 -15 -1 -23 7
-30 30 -6 18 -19 37 -30 43 -11 6 -35 22 -53 34 -67 48 -150 18 -140 -50 3
-20 0 -28 -11 -28 -8 0 -24 -9 -36 -20 l-21 -20 4 33 c2 22 -2 40 -15 54 -19
22 -114 51 -150 45 -26 -4 -133 -126 -133 -152 0 -10 -8 -20 -17 -24 -10 -3
-26 -10 -35 -16 -10 -5 -26 -14 -35 -18 -41 -20 -60 -68 -68 -167 -4 -52 -9
-95 -11 -95 -3 0 -15 12 -28 26 -17 20 -32 27 -63 28 l-41 1 -4 56 c-2 32 0
55 4 53 16 -10 88 18 103 39 17 25 20 70 5 97 -25 47 -178 91 -221 65 -7 -5
-37 -10 -66 -10 -29 -1 -58 -7 -66 -13 -9 -8 -25 -8 -57 2 -44 13 -44 14 -17
21 15 4 42 5 59 3 45 -7 140 19 161 44 21 25 22 81 2 138 -24 67 -19 147 11
208 28 57 115 142 146 142 11 0 26 13 36 30 9 16 23 30 29 30 36 0 59 129 63
346 2 111 -11 133 -80 139 -45 3 -45 4 -44 40 2 45 4 46 40 37 16 -4 39 -6 52
-4 30 5 64 59 59 95 -4 33 -1 34 22 6 22 -28 84 -29 114 -2 12 11 35 27 50 37
15 9 30 29 33 44 5 24 10 27 49 27 41 0 44 -2 47 -30 3 -28 1 -30 -31 -32 -18
-1 -43 -11 -55 -22 -12 -12 -27 -21 -32 -21 -17 0 -50 -42 -78 -100 -14 -30
-34 -67 -43 -81 -16 -25 -15 -30 1 -81 13 -41 27 -64 56 -87 21 -17 45 -31 52
-31 7 0 20 -13 29 -29 9 -15 27 -30 40 -33 39 -7 88 11 106 38 16 25 14 58 -8
133 -3 9 6 15 26 18 55 7 99 80 76 129 -9 21 -8 24 8 24 26 0 53 36 101 135
54 110 59 138 31 176 l-22 30 28 -7 c15 -4 34 -7 43 -7 8 0 22 -9 30 -20 23
-28 97 -28 120 0 9 11 33 23 54 27 22 4 48 13 60 21 12 7 39 16 61 20 50 8 98
44 115 84 7 17 19 31 26 31 8 0 22 4 32 9 9 5 30 14 45 20 16 6 34 24 41 42
12 30 64 69 90 69 7 0 32 20 55 45 23 25 46 45 51 45 5 0 35 14 67 31 51 28
67 31 152 33 86 3 96 5 114 27 12 15 17 34 15 56 -2 18 0 33 4 33 4 0 8 -9 8
-19z m-2360 -1 c0 -5 -5 -10 -11 -10 -5 0 -7 5 -4 10 3 6 8 10 11 10 2 0 4 -4
4 -10z m526 -137 c7 -25 -19 -72 -43 -80 -18 -6 -21 46 -4 81 18 37 38 37 47
-1z m-237 -325 c-2 -2 -19 -16 -38 -33 l-34 -30 23 33 c13 17 30 32 39 32 8 0
12 -1 10 -2z m-806 -138 c7 0 12 -15 13 -32 0 -18 6 -48 12 -65 10 -32 9 -33
-21 -41 -31 -8 -32 -8 -38 30 -7 48 -26 68 -66 71 -21 1 -35 10 -45 27 -14 25
-14 25 21 27 22 1 42 9 51 21 14 18 15 17 38 -10 13 -15 29 -28 35 -28z m752
-129 c-6 -5 -21 -12 -35 -15 -24 -7 -24 -6 -6 8 21 17 57 23 41 7z m-113 -135
c-2 -18 1 -42 6 -53 8 -15 6 -20 -13 -29 -22 -11 -23 -10 -18 20 2 19 -1 39
-10 51 -13 17 -13 20 7 31 31 18 32 17 28 -20z m-328 -111 c-4 -8 -13 -15 -22
-15 -13 0 -12 3 4 15 24 18 25 18 18 0z m383 -128 c52 -8 64 -19 48 -41 -14
-18 -15 -18 -33 4 -27 33 -89 31 -118 -5 -18 -22 -22 -24 -27 -10 -4 8 -2 24
5 34 12 20 68 40 83 30 6 -4 24 -9 42 -12z m-240 -33 c-3 -3 -12 -4 -19 -1 -8
3 -5 6 6 6 11 1 17 -2 13 -5z m286 -87 c6 -16 -45 -40 -70 -34 -14 4 -13 5 4
6 13 0 28 10 35 21 15 23 24 25 31 7z m-216 -110 c7 0 13 -12 13 -26 0 -15 8
-38 17 -51 9 -14 13 -22 9 -18 -4 3 -20 3 -36 -2 -25 -7 -30 -4 -51 29 -13 20
-23 46 -21 59 3 18 8 21 30 15 15 -3 32 -6 39 -6z m1693 -620 c0 -2 -10 -12
-21 -23 -22 -19 -22 -19 -10 4 10 18 31 31 31 19z m-1776 -86 c3 -5 -5 -11
-19 -13 -28 -6 -35 8 -7 15 9 3 18 5 19 6 1 0 4 -3 7 -8z m1063 -132 c10 -1
38 -3 63 -5 81 -6 111 -6 117 0 3 3 13 -4 22 -15 9 -10 27 -20 41 -20 42 -3
114 12 130 26 13 11 18 10 32 -9 16 -23 16 -23 -10 -20 -54 7 -93 -7 -113 -40
-41 -67 -16 -122 61 -132 48 -6 49 -7 35 -27 -20 -28 -19 -57 2 -87 10 -14 16
-35 15 -47 -4 -29 14 -62 41 -73 l22 -9 -23 0 c-15 -1 -36 -20 -67 -62 -47
-64 -54 -91 -32 -124 19 -28 29 -69 14 -57 -22 17 -61 21 -109 11 -36 -8 -52
-8 -63 1 -19 16 -82 15 -101 -1 -25 -21 -46 -70 -41 -96 3 -16 -2 -28 -17 -38
-29 -21 -32 -19 -28 23 4 40 -26 92 -54 92 -13 0 -13 3 0 22 9 12 16 30 16 40
0 9 11 28 25 42 14 14 25 37 25 51 0 18 5 25 20 25 11 0 27 12 36 26 15 22 16
35 7 93 -14 92 -8 116 32 135 18 9 40 16 49 16 22 0 47 41 46 76 0 16 2 43 6
59 11 57 -49 92 -151 87 -33 -2 -65 -33 -65 -64 0 -17 -4 -19 -27 -13 -16 4
-29 8 -31 10 -9 9 -2 126 9 143 13 20 13 20 31 -9 10 -16 26 -30 35 -30z m838
-178 c-3 -6 -11 -11 -17 -11 -6 0 -6 6 2 15 14 17 26 13 15 -4z m22 -153 c-4
-18 -9 -47 -12 -64 l-7 -31 -22 21 c-18 17 -20 24 -10 36 7 8 17 27 23 43 15
39 35 35 28 -5z m6 -134 c17 -21 17 -22 -6 -26 -20 -4 -23 -1 -19 24 3 16 5
28 6 26 1 -2 9 -13 19 -24z m-1433 -289 c0 -29 -27 -65 -49 -65 -24 0 -33 50
-14 76 7 10 13 27 13 38 0 18 1 18 25 -4 14 -13 25 -33 25 -45z m950 20 c7 -9
8 -15 2 -15 -5 0 -12 7 -16 15 -3 8 -4 15 -2 15 2 0 9 -7 16 -15z m-1609 -235
l-10 -55 4 64 c3 35 6 94 7 130 l2 66 3 -75 c2 -41 -1 -100 -6 -130z m2199 17
c0 -2 -15 -16 -32 -33 l-33 -29 29 33 c28 30 36 37 36 29z m-1036 -119 c-10
-13 -20 -25 -22 -28 -2 -2 -7 2 -12 10 -6 10 -2 17 13 26 34 19 42 16 21 -8z
m903 -109 c-14 -4 -30 -10 -36 -13 -6 -4 -3 7 7 23 16 28 18 29 35 13 18 -16
18 -17 -6 -23z m-909 11 c7 -11 20 -20 30 -20 10 0 22 -4 28 -9 5 -5 18 -10
29 -11 49 -5 66 1 85 33 12 19 20 25 20 16 0 -33 34 -61 76 -62 37 -2 39 -4
36 -29 -3 -19 3 -34 20 -51 l24 -24 -25 -11 c-17 -8 -28 -9 -37 -1 -8 6 -29
11 -49 11 -30 0 -35 3 -35 23 0 39 -31 67 -75 67 -28 0 -44 -6 -57 -22 -39
-48 -8 -112 53 -112 33 0 35 -2 31 -27 -6 -41 26 -73 72 -73 21 0 45 7 57 18
18 16 20 16 37 1 10 -10 24 -17 30 -17 7 0 12 -5 12 -11 0 -5 -5 -7 -10 -4 -6
4 -29 4 -51 0 -31 -5 -45 -15 -64 -43 -32 -47 -31 -74 3 -112 19 -23 37 -32
63 -33 34 -2 36 -3 23 -22 -20 -29 -17 -63 9 -88 12 -13 30 -35 40 -50 9 -15
26 -27 37 -27 18 0 17 -2 -5 -24 -32 -32 -43 -107 -21 -141 14 -22 31 -29 72
-28 6 0 8 -12 6 -28 -2 -16 2 -39 10 -52 15 -21 14 -22 -19 -24 -18 -1 -46 -8
-61 -16 -27 -13 -29 -12 -44 13 -23 40 -104 50 -145 18 -15 -12 -66 25 -82 60
-6 12 -17 25 -25 28 -11 4 -8 11 10 29 13 13 24 31 24 40 0 8 9 15 19 15 33 0
61 47 61 100 0 66 -23 93 -78 92 -35 -1 -42 2 -42 19 0 11 -10 30 -23 43 -21
21 -22 26 -10 42 8 11 12 32 10 49 -9 57 -26 108 -39 121 -11 11 -74 25 -114
27 -7 0 -3 14 8 34 13 21 18 43 15 61 -3 15 -9 45 -14 67 -12 58 -5 125 12
125 8 0 20 9 27 20 7 11 15 20 18 20 3 0 11 -9 18 -20z m-523 -198 c6 -4 20
-22 33 -40 21 -30 22 -33 5 -38 -10 -3 -30 -12 -44 -19 -23 -13 -28 -12 -47 7
l-21 21 22 39 c22 38 33 44 52 30z m105 -635 c0 -17 -6 -23 -26 -25 -35 -3
-51 -16 -64 -57 -11 -32 -44 -55 -58 -40 -11 10 -1 79 13 94 7 7 32 15 55 16
24 2 50 11 59 19 20 21 21 20 21 -7z m-939 -213 c-5 -16 -10 -21 -10 -12 -1
18 10 51 15 45 2 -1 -1 -16 -5 -33z m612 -352 c-12 -2 -27 -10 -33 -18 -20
-24 -32 -16 -13 9 13 17 24 22 43 18 23 -5 23 -6 3 -9z m47 14 c0 -3 -4 -8
-10 -11 -5 -3 -10 -1 -10 4 0 6 5 11 10 11 6 0 10 -2 10 -4z m867 -128 c15 -1
37 2 48 6 18 5 23 -2 38 -53 10 -33 24 -64 32 -71 11 -9 11 -16 -3 -40 -14
-23 -15 -35 -6 -58 11 -30 11 -30 -24 -30 -101 0 -111 -150 -11 -155 35 -2 36
-3 26 -32 -5 -16 -12 -44 -14 -61 l-5 -32 -38 40 c-32 34 -44 41 -76 41 -37 0
-39 2 -39 30 0 18 9 40 23 53 45 47 15 116 -51 116 -35 0 -37 2 -37 31 0 27 1
29 18 16 80 -67 182 -50 182 30 0 33 -26 71 -48 71 -23 1 -52 24 -52 42 0 9
-7 33 -16 54 -16 39 -16 39 4 21 11 -10 33 -19 49 -19z m-668 -2 c8 -5 8 -13
1 -26 -5 -10 -10 -28 -10 -39 0 -14 -9 -23 -26 -27 -28 -7 -35 -2 -51 36 -17
40 -1 65 39 64 19 -1 40 -4 47 -8z m-307 -109 c21 -1 38 -3 38 -4 0 -1 -25
-13 -55 -27 -39 -17 -58 -33 -66 -53 -21 -53 -26 -58 -58 -60 -18 -1 -38 -4
-46 -6 -21 -9 -26 4 -10 27 20 27 19 66 -2 96 -16 23 -16 24 0 12 27 -22 88
-18 109 8 10 12 18 29 18 37 0 11 5 9 18 -6 11 -15 30 -23 54 -24z m1645 37
c-3 -3 -12 -4 -19 -1 -8 3 -5 6 6 6 11 1 17 -2 13 -5z m-297 -173 c-15 -29
-12 -63 7 -90 12 -18 13 -23 2 -19 -8 3 -26 2 -41 -3 -15 -4 -47 -2 -74 5 -42
11 -45 13 -29 26 9 8 29 16 44 17 14 2 34 14 43 26 22 27 50 57 55 57 2 0 -1
-9 -7 -19z m-1440 -204 c32 -1 50 -8 65 -25 21 -24 61 -31 105 -17 l25 8 -24
-20 c-23 -18 -29 -19 -72 -8 -65 17 -94 9 -130 -36 -17 -22 -43 -42 -57 -45
-15 -4 -32 -11 -39 -16 -18 -14 -31 -2 -26 26 3 13 0 33 -6 45 -10 18 -9 21 8
21 34 0 54 43 46 96 l-6 45 33 -36 c27 -30 40 -36 78 -38z m1716 -89 c-11 -15
-25 -27 -30 -27 -5 -1 -24 -12 -42 -26 l-34 -26 23 35 c12 19 30 37 40 39 10
3 23 19 29 35 11 27 13 29 24 14 10 -13 8 -21 -10 -44z m-1249 -106 c-26 -5
-50 -47 -45 -80 4 -27 3 -28 -41 -27 -42 0 -47 3 -62 35 -14 29 -15 39 -4 60
11 21 20 25 71 26 45 1 62 6 74 22 15 19 15 19 20 -7 4 -20 1 -27 -13 -29z
m797 25 c20 -1 36 -7 36 -13 0 -6 9 -22 19 -35 19 -24 19 -25 0 -48 -12 -15
-19 -38 -18 -60 0 -20 -5 -51 -12 -68 -10 -24 -11 -40 -3 -60 10 -28 10 -28
-33 -29 -24 -1 -50 -7 -58 -14 -12 -10 -19 -7 -38 15 -17 20 -32 27 -60 27
-21 0 -44 -5 -52 -12 -18 -15 -35 -5 -35 21 0 31 -42 66 -89 74 -23 4 -40 9
-37 12 3 3 27 0 54 -7 75 -18 112 -4 139 50 12 25 22 55 23 68 0 15 6 22 19
22 23 0 61 45 61 72 0 17 2 17 24 3 14 -9 41 -17 60 -18z m-1404 -115 c0 -33
29 -60 72 -67 37 -7 40 -9 21 -16 -12 -4 -28 -19 -35 -33 l-13 -25 -25 37
c-13 20 -37 54 -52 74 l-29 37 23 4 c13 2 26 5 31 6 4 0 7 -7 7 -17z m629
-104 c-1 -55 -5 -50 -11 15 -2 20 0 37 4 37 4 0 7 -24 7 -52z m-528 -108 c23
0 24 -4 3 -35 -11 -17 -14 -36 -10 -55 3 -17 4 -30 2 -30 -3 0 -11 -3 -19 -6
-11 -4 -13 1 -10 20 7 32 -21 76 -47 76 -17 0 -17 2 5 25 14 13 25 30 25 37 0
7 7 2 16 -10 8 -12 24 -22 35 -22z m529 -25 c0 -14 -2 -25 -4 -25 -2 0 -6 11
-8 25 -3 14 -1 25 3 25 5 0 9 -11 9 -25z m1330 -189 c0 -2 -8 -10 -17 -17 -16
-13 -17 -12 -4 4 13 16 21 21 21 13z m-1435 -132 c42 -27 28 -93 -22 -106 -23
-6 -44 12 -76 65 -14 22 -15 27 -3 27 7 0 27 7 42 15 35 18 30 18 59 -1z
m-225 -8 c0 -2 -7 -9 -15 -16 -13 -11 -14 -10 -9 4 5 14 24 23 24 12z m833
-196 c3 -8 8 -23 12 -32 5 -13 2 -18 -9 -18 -9 0 -16 8 -16 19 0 10 -9 30 -20
44 l-20 25 25 -11 c13 -7 26 -19 28 -27z m-998 -104 c34 -7 35 -7 19 -31 -26
-40 -10 -99 40 -152 35 -37 49 -45 79 -45 20 0 40 3 46 7 7 4 11 -4 11 -21 0
-45 76 -103 124 -95 5 1 30 3 56 5 l48 4 6 -40 c9 -53 -10 -92 -47 -96 -16 -2
-35 2 -42 8 -23 19 -87 15 -105 -7 -9 -11 -35 -23 -59 -27 l-42 -6 15 22 c38
54 5 111 -64 111 -38 0 -48 -5 -80 -40 -31 -32 -38 -49 -44 -97 -10 -85 13
-114 86 -108 12 1 21 -13 32 -51 9 -30 24 -61 35 -71 19 -18 79 -24 100 -12
23 15 -15 -62 -56 -112 -46 -57 -51 -78 -29 -120 7 -15 18 -40 22 -57 5 -16
19 -34 31 -40 14 -7 19 -16 14 -24 -5 -7 -9 -50 -9 -94 -1 -61 -6 -94 -22
-131 -15 -32 -20 -60 -17 -81 4 -22 -1 -41 -14 -61 -10 -16 -19 -39 -19 -51 0
-12 -5 -25 -10 -28 -19 -12 -60 -104 -60 -135 0 -47 46 -92 96 -93 37 -1 39
-3 38 -32 0 -17 -6 -40 -12 -52 -7 -12 -12 -33 -12 -46 0 -13 -9 -32 -20 -42
-19 -18 -20 -17 -20 6 0 85 -109 128 -148 58 -10 -16 -22 -29 -28 -29 -26 0
-76 -34 -90 -62 -16 -30 -16 -30 -30 -9 -8 12 -24 21 -34 21 -17 0 -17 2 5 25
14 13 25 35 25 48 0 20 5 23 37 24 67 2 95 67 50 118 -31 37 -92 38 -122 2
-25 -31 -52 -26 -30 6 8 12 15 32 15 44 0 13 6 23 14 23 41 0 62 103 30 148
-8 12 -10 22 -5 22 6 0 24 19 41 42 26 35 30 50 30 102 0 69 -18 106 -53 107
l-22 0 22 9 c27 11 43 40 43 78 0 17 6 32 15 36 23 8 55 67 55 101 0 17 -9 45
-20 63 -11 18 -20 39 -20 46 0 7 -9 25 -20 39 -11 14 -20 40 -20 60 0 44 -26
75 -65 79 -22 2 -33 11 -42 31 -7 16 -21 31 -32 34 -16 4 -17 9 -8 33 13 34
-4 79 -32 87 -17 4 -17 7 6 29 18 18 24 35 24 67 -1 23 2 60 5 82 6 49 -24
105 -56 105 -12 0 -18 5 -15 10 3 6 15 10 26 10 11 0 27 14 39 33 11 17 31 44
45 60 14 15 25 35 25 45 0 14 9 18 42 18 50 2 90 40 88 83 -1 14 -2 42 -1 60
l1 35 30 -41 c22 -30 40 -43 65 -47z m3252 -203 c-2 -27 -3 -5 -3 47 0 52 1
74 3 48 2 -27 2 -69 0 -95z m-2744 63 c9 -7 17 -26 17 -41 0 -28 -28 -85 -43
-85 -4 0 -1 10 7 22 20 28 20 59 1 84 -25 34 -16 45 18 20z m802 -75 c-12 -12
-17 -12 -27 -3 -7 7 -20 12 -31 12 -10 0 -15 5 -12 10 3 6 15 10 26 10 10 0
24 9 31 20 12 19 13 19 20 -7 5 -19 3 -32 -7 -42z m-195 -155 c10 -13 7 -14
-19 -6 -35 10 -69 3 -94 -19 -18 -15 -18 -15 0 17 10 17 26 32 35 32 9 0 25
11 35 24 l18 24 6 -29 c4 -16 12 -35 19 -43z m2168 -81 c0 -26 -2 -24 -14 15
-8 25 -11 52 -8 60 8 18 22 -28 22 -75z m-1659 52 c-2 -1 -13 -9 -24 -17 -19
-14 -19 -14 -6 3 7 9 18 17 24 17 6 0 8 -1 6 -3z m-69 -30 c0 -2 -10 -12 -22
-23 l-23 -19 19 23 c18 21 26 27 26 19z m-336 -62 c2 -6 -9 -12 -25 -13 -26
-2 -37 7 -24 19 8 9 45 4 49 -6z m2074 -97 c13 -17 41 -234 31 -249 -13 -21
-41 92 -34 140 5 39 3 51 -15 74 -12 15 -30 27 -40 27 -17 0 -17 3 5 25 14 13
26 34 26 47 1 14 4 9 8 -14 4 -20 13 -43 19 -50z m-1998 57 c0 -12 -19 -12
-23 0 -4 9 -1 12 9 8 7 -3 14 -7 14 -8z m-761 -62 c-6 -21 -15 -49 -22 -62
l-12 -23 -6 28 c-4 16 -10 37 -14 47 -5 13 -2 17 13 17 11 0 25 7 32 15 18 22
19 19 9 -22z m593 3 c-3 -25 -9 -34 -21 -33 -9 0 -27 -2 -41 -6 -23 -6 -25 -3
-25 28 0 32 1 34 38 33 21 0 41 2 44 6 9 9 9 9 5 -28z m78 -90 c0 -11 -19 -15
-25 -6 -3 5 1 10 9 10 9 0 16 -2 16 -4z m-681 -77 c11 -8 16 -20 13 -34 -3
-19 -10 -23 -35 -22 -31 2 -32 4 -29 42 1 22 5 51 8 65 7 24 7 24 16 -8 5 -18
17 -37 27 -43z m660 -28 c9 -16 7 -17 -15 -13 -19 3 -22 7 -13 18 15 18 16 18
28 -5z m2154 -144 c2 -33 -1 -43 -9 -36 -7 5 -26 11 -43 12 -38 2 -38 5 -6 17
14 5 30 21 37 35 15 33 20 26 21 -28z m-2817 -76 c18 -21 19 -29 10 -53 -7
-19 -7 -39 0 -67 8 -29 7 -43 -3 -57 -18 -24 -16 -97 3 -142 19 -44 21 -117 4
-154 -8 -16 -10 -37 -5 -55 10 -37 7 -85 -11 -142 -18 -61 -18 -84 4 -111 18
-22 18 -23 -6 -47 -19 -19 -23 -31 -18 -56 4 -18 6 -36 5 -42 0 -5 -2 -45 -4
-89 -1 -43 -8 -96 -15 -117 -9 -28 -10 -45 -3 -61 7 -16 7 -30 0 -46 -8 -17
-8 -32 0 -53 9 -22 8 -29 -1 -29 -15 0 -39 67 -38 107 0 15 3 93 7 173 4 80 8
309 10 510 1 201 6 376 9 390 4 14 3 44 -1 65 -19 93 6 129 53 76z m-775 -254
c-10 -9 -11 -8 -5 6 3 10 9 15 12 12 3 -3 0 -11 -7 -18z m3672 -235 c-3 -12
-9 -19 -14 -16 -5 3 -3 14 3 24 15 24 19 21 11 -8z m-1262 -134 c-2 -24 -12
-54 -22 -67 -20 -25 -25 -81 -10 -109 7 -13 4 -20 -15 -29 -21 -10 -24 -9 -24
11 0 30 -27 66 -51 66 -18 0 -19 1 -3 25 9 14 14 36 12 50 -4 20 2 29 33 50
21 14 45 25 53 25 8 0 18 5 21 10 10 16 11 12 6 -32z m1286 20 c-3 -8 -6 -5
-6 6 -1 11 2 17 5 13 3 -3 4 -12 1 -19z m17 -94 l2 -49 -21 20 c-19 19 -19 22
-5 51 8 18 16 30 18 29 2 -2 4 -25 6 -51z m-3614 -358 c0 -44 75 -75 139 -56
22 6 39 5 51 -2 17 -11 17 -13 -2 -39 -14 -18 -19 -37 -16 -58 5 -36 -10 -45
-32 -19 -8 10 -31 19 -50 20 -26 2 -40 10 -52 31 -10 15 -24 27 -32 27 -10 0
-15 16 -18 55 -1 30 0 55 5 55 4 0 7 -6 7 -14z m587 -348 c-3 -8 -6 -5 -6 6
-1 11 2 17 5 13 3 -3 4 -12 1 -19z m-26 -179 c-13 -43 -5 -113 15 -147 11 -17
17 -111 25 -435 8 -320 13 -417 24 -433 26 -40 95 -36 126 6 17 23 19 60 25
418 6 340 9 392 22 392 9 0 23 -7 32 -15 10 -9 60 -27 111 -42 94 -26 94 -26
269 -14 96 6 192 13 212 15 45 5 46 24 -14 -189 -69 -243 -108 -404 -108 -446
0 -23 8 -54 17 -70 12 -20 15 -34 8 -43 -50 -68 -49 -65 -37 -125 15 -73 15
-162 0 -250 -11 -68 -11 -70 14 -108 21 -30 27 -53 30 -115 4 -69 9 -83 46
-140 39 -60 88 -165 126 -271 25 -66 76 -98 164 -104 36 -2 68 -5 72 -8 4 -2
21 0 38 5 18 4 34 5 37 1 6 -10 115 -34 133 -29 15 3 24 -10 39 -59 10 -30 10
-31 -23 -37 -44 -9 -76 -50 -74 -96 3 -65 3 -65 -65 -85 -49 -14 -74 -27 -95
-52 -16 -18 -33 -33 -38 -33 -14 0 -57 -51 -102 -123 -26 -40 -50 -67 -60 -67
-9 0 -33 -11 -53 -24 -20 -14 -58 -27 -84 -30 -75 -9 -197 -46 -213 -65 -10
-11 -23 -15 -40 -11 -14 4 -47 0 -75 -8 -27 -7 -60 -13 -73 -13 -12 0 -61 -9
-110 -20 -48 -12 -104 -23 -126 -25 -21 -2 -45 -9 -54 -16 -8 -7 -33 -18 -56
-23 -29 -8 -47 -20 -61 -43 -11 -17 -25 -31 -31 -32 -6 0 -44 -31 -84 -70 -40
-38 -76 -70 -79 -70 -3 0 -31 -26 -62 -58 -69 -71 -132 -102 -269 -136 -231
-57 -419 -11 -497 121 -24 42 -27 57 -30 167 -2 67 -5 146 -6 177 -2 52 1 59
36 98 20 22 37 50 37 62 0 31 24 70 75 119 26 25 56 63 67 85 11 22 54 91 95
153 41 61 86 140 100 175 22 54 46 95 124 207 15 23 16 46 9 265 -8 224 -11
248 -40 355 -125 459 -271 1031 -265 1041 3 3 24 9 47 12 66 8 229 46 242 55
6 5 22 6 36 2 75 -19 118 36 86 110 -5 12 1 16 21 18 39 3 66 38 61 79 -3 26
0 33 13 33 10 0 28 12 41 28 15 18 31 26 46 24 27 -4 29 -22 2 -22 -23 0 -60
-53 -60 -85 0 -24 28 -105 41 -121 28 -34 157 -20 184 19 21 30 19 100 -2 125
-10 12 -29 22 -43 24 -14 2 -31 11 -38 21 -7 9 -23 17 -34 17 -50 0 -5 11 58
14 54 3 72 8 84 24 15 20 15 20 18 -1 2 -12 -1 -38 -7 -58z"/>
<path d="M5902 11323 c-39 -8 -51 -41 -51 -135 0 -48 -3 -107 -6 -131 -10 -67
21 -94 102 -89 14 1 33 17 49 42 22 33 25 46 20 82 -9 66 -7 98 9 121 46 66
-26 131 -123 110z"/>
<path d="M6565 11292 c-3 -3 -70 -9 -118 -11 -10 -1 -26 -14 -35 -31 -9 -16
-25 -30 -35 -30 -10 0 -29 -11 -42 -24 -20 -20 -24 -34 -24 -85 1 -65 18 -98
54 -102 28 -4 171 10 295 27 115 16 143 33 140 83 -3 40 -1 44 15 31 9 -7 34
-13 57 -13 48 0 78 28 78 73 0 46 -30 73 -80 73 -33 0 -48 -6 -61 -22 -10 -13
-20 -17 -24 -11 -3 5 -13 10 -22 10 -9 0 -24 7 -33 15 -12 11 -41 17 -90 18
-39 1 -73 1 -75 -1z"/>
<path d="M7812 10502 c-33 -5 -57 -48 -58 -107 0 -27 -6 -60 -13 -73 -14 -27
-7 -90 13 -118 10 -13 10 -24 2 -45 -23 -62 25 -112 107 -112 33 0 45 6 66 32
14 17 34 31 43 31 39 0 65 83 47 151 -6 24 -10 62 -10 85 2 40 -28 126 -47
138 -6 3 -34 8 -62 11 -28 3 -55 6 -58 8 -4 2 -17 1 -30 -1z"/>
<path d="M7352 8303 c-31 -6 -49 -38 -57 -103 -6 -47 -4 -59 13 -80 18 -22 28
-25 87 -24 58 0 70 3 86 23 43 53 37 103 -18 147 -40 33 -73 43 -111 37z"/>
<path d="M5303 6333 c-49 -9 -69 -81 -35 -123 27 -33 89 -31 119 5 53 61 1
133 -84 118z"/>
</g>
</svg>
