<?xml version="1.0" standalone="no"?>
<!DOCTYPE svg PUBLIC "-//W3C//DTD SVG 20010904//EN"
 "http://www.w3.org/TR/2001/REC-SVG-20010904/DTD/svg10.dtd">
<svg version="1.0" xmlns="http://www.w3.org/2000/svg"
 width="1500.000000pt" height="2098.000000pt" viewBox="0 0 1500.000000 2098.000000"
 preserveAspectRatio="xMidYMid meet">
<metadata>
Created by potrace 1.16, written by Peter Selinger 2001-2019
</metadata>
<g transform="translate(0.000000,2098.000000) scale(0.100000,-0.100000)"
fill="none" stroke="grey" stroke-width="2">
<path d="M0 10490 l0 -10490 7500 0 7500 0 0 10490 0 10490 -7500 0 -7500 0 0
-10490z m7676 9565 c34 -11 64 -14 103 -9 94 11 132 5 207 -32 76 -39 101 -60
195 -172 34 -40 70 -77 80 -83 10 -5 19 -18 19 -28 0 -11 19 -43 42 -73 62
-77 84 -111 91 -139 19 -82 60 -211 79 -249 12 -25 25 -65 29 -90 4 -25 16
-81 28 -125 12 -44 26 -111 32 -150 5 -38 14 -99 19 -135 5 -36 10 -121 10
-190 1 -69 7 -197 13 -285 8 -105 9 -202 3 -283 -6 -87 -5 -132 3 -149 6 -13
11 -40 11 -59 0 -51 38 -183 67 -234 14 -25 48 -71 76 -102 41 -49 46 -58 29
-58 -24 0 -52 -35 -52 -66 0 -19 -5 -21 -47 -19 -41 1 -55 8 -96 44 -53 48
-103 57 -137 26 -10 -9 -24 -14 -29 -10 -29 17 -92 7 -128 -21 -21 -16 -51
-33 -68 -39 -36 -12 -60 -52 -52 -87 9 -36 81 -113 146 -157 31 -20 119 -70
196 -110 77 -40 154 -84 172 -97 17 -13 37 -24 44 -24 17 0 98 -62 104 -81 11
-34 63 -71 97 -71 32 0 34 -2 30 -29 -3 -20 -10 -29 -23 -29 -25 0 -51 -42
-48 -77 2 -15 -2 -38 -9 -50 -18 -34 -14 -62 13 -89 14 -14 25 -31 25 -38 0
-7 9 -25 21 -39 16 -21 18 -31 10 -46 -6 -11 -11 -34 -11 -51 0 -40 28 -126
46 -141 22 -18 91 -14 114 6 10 9 38 19 60 20 48 4 63 15 80 54 13 33 53 44
108 29 18 -5 48 -6 65 -2 45 9 106 50 119 79 6 14 20 25 30 25 30 0 68 45 68
81 l0 31 38 -32 c20 -18 52 -60 70 -94 43 -78 50 -85 92 -89 34 -4 34 -5 31
-46 -2 -36 2 -46 38 -83 42 -43 44 -46 42 -88 -1 -14 10 -43 24 -65 56 -90 68
-132 115 -390 5 -27 13 -70 19 -95 10 -50 37 -187 51 -265 5 -27 17 -111 26
-185 9 -74 25 -166 35 -205 10 -38 23 -122 29 -185 6 -63 15 -144 21 -180 15
-99 43 -492 44 -610 0 -123 -23 -217 -67 -268 -40 -47 -43 -72 -19 -169 12
-47 31 -172 42 -277 19 -181 31 -267 78 -538 36 -204 41 -317 51 -992 10 -674
20 -901 46 -1016 11 -48 14 -95 9 -180 -5 -92 -3 -124 9 -159 10 -27 16 -77
16 -135 0 -50 5 -120 10 -156 5 -36 14 -123 20 -195 6 -71 18 -163 26 -204 18
-88 15 -105 -37 -193 -21 -37 -46 -94 -55 -128 -8 -34 -28 -89 -43 -123 -15
-34 -36 -87 -46 -117 -23 -71 -34 -83 -119 -129 -39 -21 -108 -59 -152 -84
-65 -38 -91 -47 -128 -47 -59 0 -175 -28 -198 -48 -30 -26 -36 -71 -48 -352
-6 -151 -18 -349 -26 -440 -18 -188 -20 -899 -4 -1200 5 -96 14 -269 20 -385
9 -163 9 -303 -2 -625 -14 -453 -14 -480 -5 -745 7 -184 15 -235 41 -264 14
-16 31 -156 66 -551 15 -175 16 -364 2 -479 -13 -112 -11 -121 53 -231 13 -22
12 -27 -7 -47 -11 -12 -37 -27 -57 -34 -20 -6 -68 -24 -107 -39 -121 -49 -272
-80 -392 -80 -59 0 -123 -5 -142 -10 -19 -6 -69 -13 -110 -16 -41 -3 -91 -9
-110 -14 -47 -13 -227 -13 -235 0 -3 6 -15 10 -25 10 -17 0 -17 2 5 25 30 29
33 83 8 113 -21 23 -96 43 -136 35 -31 -6 -57 -37 -57 -68 0 -29 28 -65 49
-65 10 0 24 -7 31 -15 7 -8 22 -15 34 -15 18 0 17 -2 -8 -15 -26 -14 -39 -13
-131 5 -57 11 -140 20 -186 21 -76 2 -83 1 -101 -21 -16 -19 -18 -34 -14 -70
17 -124 18 -212 2 -288 -9 -43 -16 -95 -16 -114 0 -36 29 -130 50 -165 10 -16
11 -30 2 -66 -19 -73 -14 -109 22 -190 20 -42 51 -144 71 -229 20 -84 41 -166
47 -181 12 -32 41 -54 77 -59 14 -2 43 -22 64 -45 22 -24 45 -43 52 -43 6 0
22 -11 35 -25 13 -14 30 -25 38 -25 7 0 25 -9 39 -20 14 -11 34 -20 44 -20 11
0 19 -4 19 -10 0 -5 -4 -10 -9 -10 -5 0 -26 -22 -47 -50 -21 -27 -44 -50 -52
-50 -12 0 -47 -16 -92 -41 -8 -5 -25 -13 -36 -18 -12 -5 -43 -37 -69 -71 -59
-77 -92 -107 -124 -115 -14 -4 -32 -12 -39 -18 -8 -6 -21 -11 -30 -12 -77 -7
-113 -18 -134 -43 -23 -28 -35 -30 -141 -32 -26 0 -65 -6 -85 -13 -26 -9 -48
-10 -72 -4 -36 9 -135 -6 -145 -23 -3 -5 -20 -4 -38 1 -19 5 -46 5 -63 0 -25
-7 -33 -5 -42 9 -6 10 -30 21 -53 25 -24 4 -50 15 -58 25 -38 41 -180 59 -221
27 -25 -20 -59 -37 -74 -37 -8 0 -26 -15 -41 -33 -47 -58 -85 -97 -95 -97 -6
0 -31 -15 -57 -33 -27 -19 -74 -42 -105 -51 -31 -10 -62 -24 -69 -32 -6 -8
-20 -14 -29 -14 -10 0 -36 -23 -59 -51 -22 -28 -50 -59 -63 -69 -43 -33 -152
-88 -248 -126 -91 -35 -101 -36 -220 -37 -109 -1 -133 2 -185 23 -106 41 -170
92 -207 163 -18 36 -22 59 -23 162 0 80 -5 128 -14 144 -8 15 -12 45 -9 80 3
46 11 65 41 104 20 26 41 66 48 89 7 28 30 62 68 102 32 34 72 88 91 121 18
33 54 92 80 130 66 100 96 155 120 219 12 30 38 79 57 108 20 29 54 93 76 143
l39 90 -7 268 c-9 332 0 312 -148 312 -61 0 -110 -5 -118 -11 -41 -32 -95 -23
-246 43 -18 7 -35 17 -37 22 -11 18 -81 22 -165 10 -77 -11 -91 -10 -121 4
-18 10 -39 17 -47 17 -27 0 -12 18 22 24 19 4 41 16 49 28 l15 21 18 -21 c10
-12 29 -23 43 -23 37 -2 164 21 174 31 5 5 16 -4 25 -23 9 -17 25 -34 36 -37
11 -3 31 -13 45 -22 14 -9 66 -23 115 -30 75 -11 105 -11 170 0 126 20 128 27
89 232 -9 47 -16 99 -15 116 1 18 -7 42 -20 57 -11 15 -29 61 -39 103 -21 91
-35 107 -91 107 -64 0 -82 -27 -77 -118 3 -38 7 -76 9 -83 5 -16 -58 -40 -106
-40 -18 0 -39 -3 -44 -7 -25 -15 -51 -84 -49 -129 1 -25 -3 -51 -10 -58 -9 -9
-12 -8 -12 9 0 11 -8 31 -18 44 -25 30 -95 31 -146 1 -21 -12 -43 -22 -51 -22
-8 0 -21 -10 -29 -22 -16 -22 -16 -22 -31 -3 -18 25 -16 45 8 56 9 5 25 13 35
18 29 14 39 58 20 91 -15 27 -15 30 1 44 10 9 22 16 28 16 6 0 25 13 42 29 22
20 31 38 31 60 0 24 4 31 19 31 23 0 61 45 61 71 0 12 7 19 19 19 22 0 51 35
51 61 0 9 16 33 35 52 63 63 42 138 -45 154 -41 8 -45 11 -51 43 -8 51 -55
120 -82 121 -47 3 -63 -3 -89 -34 -18 -22 -36 -32 -57 -33 -47 -2 -59 -10 -81
-53 -25 -49 -25 -74 -3 -112 l18 -29 -43 -39 c-26 -24 -42 -47 -42 -61 0 -22
-1 -23 -20 -5 -11 10 -20 25 -20 34 0 9 -8 28 -17 41 -13 19 -17 41 -15 85 4
78 9 92 32 98 36 9 45 49 26 119 -25 96 -26 91 24 94 54 3 90 37 90 87 0 18 7
41 15 51 21 28 18 60 -8 93 -44 52 -46 63 -26 111 26 60 24 86 -11 125 -35 41
-41 87 -10 87 11 0 27 12 37 26 14 22 15 33 6 68 -6 22 -8 61 -5 84 3 34 0 50
-17 73 -25 33 -26 47 -6 73 17 23 19 59 5 85 -11 21 5 91 21 91 14 0 49 62 49
88 0 13 -8 37 -17 52 -15 25 -15 37 -4 97 7 37 14 86 17 108 2 22 6 51 8 65 3
14 8 42 11 63 4 27 11 37 24 37 10 0 24 6 31 14 6 8 21 16 32 18 35 5 62 51
54 91 -11 57 -35 79 -91 82 -46 3 -50 6 -56 32 -3 15 -3 53 -1 83 8 87 3 510
-9 792 -9 221 -8 260 4 280 8 13 18 39 22 58 11 59 16 70 30 70 20 0 45 40 45
71 0 33 -35 79 -60 79 -11 0 -26 13 -35 30 -13 25 -14 62 -10 237 4 114 6 223
6 241 0 17 1 40 1 50 3 87 -5 180 -16 197 -10 15 -13 66 -11 215 3 214 11 286
29 271 28 -23 92 -16 121 14 29 28 32 61 8 95 -12 17 -18 44 -18 81 l0 55 54
0 c44 0 57 4 73 23 37 47 32 114 -9 127 -10 3 -28 11 -41 17 -38 18 -94 12
-114 -13 -28 -34 -33 -70 -16 -101 l16 -26 -39 0 c-22 0 -47 -7 -57 -17 -27
-23 -47 -20 -86 15 -19 16 -61 39 -93 50 -32 12 -103 42 -158 69 -55 27 -112
52 -128 55 -29 8 -67 48 -67 72 0 8 -7 28 -16 45 -19 36 -59 206 -69 294 -4
32 -14 86 -22 119 -38 154 -38 137 2 325 51 240 85 443 85 515 0 33 -7 89 -16
125 -13 55 -15 106 -9 322 7 273 6 287 -52 823 -68 638 -71 963 -10 1285 18
98 21 153 22 370 1 237 3 264 29 390 19 90 30 180 33 271 l6 137 -36 36 c-31
31 -36 41 -30 69 3 17 10 40 14 49 13 25 11 62 -5 83 -9 12 -11 26 -6 35 4 8
11 150 15 315 4 165 8 327 11 360 2 33 4 78 4 101 0 32 7 48 30 72 34 36 39
75 14 110 -8 12 -24 22 -35 22 -16 0 -19 5 -15 38 3 20 8 69 11 109 5 76 23
117 68 163 22 23 27 38 27 75 0 25 5 56 12 68 7 14 13 87 14 204 1 101 5 187
9 193 12 19 43 125 49 169 4 24 16 55 26 69 11 13 20 35 20 48 0 29 16 31 38
5 10 -11 28 -21 42 -23 16 -2 30 -14 40 -33 18 -35 50 -44 109 -31 60 14 74
39 69 121 -5 78 8 86 65 42 41 -32 104 -40 130 -18 12 9 13 6 9 -15 -3 -16 3
-35 16 -53 17 -24 18 -29 5 -47 -27 -37 5 -154 43 -154 8 0 13 -4 10 -9 -3 -4
-24 -8 -48 -8 -48 0 -78 -28 -78 -73 0 -56 59 -86 160 -81 25 1 60 33 60 55 0
6 10 16 23 21 12 6 26 24 31 42 8 26 17 33 52 42 42 11 84 49 84 77 0 23 14
16 32 -15 18 -33 46 -41 102 -27 28 7 44 18 58 43 l20 33 29 -45 c28 -44 41
-51 94 -45 11 1 25 6 31 11 6 5 14 6 17 2 12 -12 7 -34 -13 -60 -11 -14 -20
-34 -20 -44 0 -12 -7 -19 -20 -19 -26 0 -60 -55 -60 -97 0 -21 -9 -41 -26 -58
-24 -24 -26 -32 -21 -77 4 -28 13 -61 22 -74 8 -13 14 -24 13 -25 -2 -1 -21
-3 -42 -5 -21 -1 -43 -7 -48 -12 -5 -5 -18 -8 -28 -5 -15 4 -17 12 -13 38 4
28 0 39 -35 75 -33 35 -45 42 -78 42 -51 0 -79 -32 -88 -101 -4 -29 -10 -49
-15 -47 -10 6 -108 18 -140 17 -13 -1 -29 -5 -35 -10 -12 -10 -16 -11 -46 -11
-31 0 -62 -57 -56 -102 3 -31 -1 -45 -25 -74 -35 -44 -38 -94 -10 -141 21 -34
49 -43 93 -32 31 8 41 0 27 -21 -20 -33 -10 -80 26 -116 19 -19 35 -41 35 -48
0 -26 35 -57 67 -59 31 -2 33 -5 33 -38 0 -19 7 -44 15 -55 8 -10 15 -40 15
-65 0 -63 23 -91 74 -91 21 0 43 5 49 11 6 6 19 11 28 11 9 0 22 7 29 15 21
25 47 17 69 -20 14 -24 30 -37 51 -41 34 -7 36 -15 16 -47 -8 -12 -17 -49 -20
-83 -8 -78 10 -106 69 -106 46 0 75 28 75 73 0 18 7 32 20 39 23 12 60 80 60
110 0 13 7 20 18 20 11 0 27 9 37 20 10 11 24 20 32 20 8 0 22 13 31 30 9 16
23 30 31 30 8 0 23 7 33 17 28 26 63 25 89 -3 12 -13 40 -29 61 -35 22 -5 45
-18 53 -27 8 -9 22 -28 33 -41 14 -18 28 -24 61 -24 25 0 49 7 58 16 15 15 30
65 40 140 3 20 10 37 16 37 6 0 18 7 27 15 16 15 18 11 25 -51 5 -48 13 -73
28 -88 12 -12 27 -35 32 -51 6 -16 21 -35 33 -41 13 -6 33 -21 46 -33 15 -14
39 -24 63 -25 21 -1 45 -5 53 -9 77 -32 136 -26 160 16 30 53 -14 104 -96 111
-33 3 -39 9 -60 52 -13 27 -35 59 -50 70 -21 17 -24 25 -16 40 5 11 13 39 17
64 10 71 15 82 32 76 35 -14 84 6 108 43 20 30 24 49 24 111 0 65 -5 88 -40
172 -43 102 -52 115 -84 118 -49 5 -66 -1 -85 -32 -27 -45 -25 -84 5 -114 19
-19 25 -35 25 -67 0 -24 7 -53 16 -65 12 -18 13 -23 3 -21 -18 4 -84 -9 -118
-23 -14 -6 -42 -12 -61 -14 -39 -3 -80 -42 -80 -76 0 -20 -1 -20 -20 -3 -12
11 -35 18 -60 18 -33 0 -47 -7 -72 -32 -35 -36 -63 -39 -87 -10 -24 30 -89 29
-113 -1 -14 -17 -24 -21 -43 -16 l-26 7 21 26 c24 31 25 44 5 103 -8 25 -17
57 -20 72 -3 14 -16 39 -29 55 -17 20 -22 34 -15 44 14 23 10 55 -9 79 -14 17
-30 23 -63 24 l-44 1 0 80 c0 79 0 80 26 82 14 1 32 3 39 5 10 2 13 -7 11 -33
-3 -52 24 -81 80 -83 24 -1 55 -8 69 -16 14 -7 45 -13 69 -13 37 0 49 5 73 32
27 30 28 36 27 123 -1 83 -3 93 -26 115 -29 30 -26 35 13 24 20 -6 53 -2 109
13 78 21 81 23 102 66 13 25 22 56 21 70 -1 14 5 36 15 50 9 13 17 36 17 50 0
38 -41 103 -70 110 -38 9 -98 -9 -120 -37 l-19 -24 -48 25 c-26 15 -59 43 -73
63 -37 55 -106 66 -168 26 -13 -8 -25 -13 -26 -11 -1 2 -7 18 -14 37 -10 30
-9 37 5 53 16 18 17 17 45 -8 22 -22 37 -27 74 -27 53 0 84 26 84 69 0 14 6
24 14 24 20 0 46 39 46 67 0 12 -10 34 -23 49 -18 21 -32 27 -64 27 -50 0 -61
-7 -77 -45 l-13 -29 -27 27 c-15 15 -37 33 -49 39 -12 6 -20 18 -18 26 20 68
2 139 -36 139 -9 0 -24 7 -34 16 -17 15 -78 22 -96 11 -5 -3 -16 8 -26 24 -17
30 -17 30 6 23 27 -9 73 -8 88 2 6 3 20 26 30 50 23 50 30 56 78 60 38 3 81
41 81 71 0 8 11 28 25 45 32 38 32 69 0 107 -30 35 -87 48 -152 33 l-41 -10
-6 82 c-2 44 -4 104 -4 131 1 28 -3 101 -7 163 -5 74 -4 141 3 195 7 45 17
123 23 172 6 50 24 160 41 245 29 152 42 281 39 390 -4 144 84 589 146 743 36
90 102 219 123 242 9 11 29 39 43 62 35 56 138 165 196 206 42 31 139 86 246
140 68 34 266 41 351 12z m1638 -3409 c8 -18 24 -41 37 -50 23 -16 23 -16 2
-16 -12 0 -25 -4 -28 -10 -13 -21 -23 -8 -30 36 -3 26 -9 53 -12 60 -12 31 18
12 31 -20z m176 -112 c0 -11 7 -29 15 -40 20 -27 19 -40 -3 -21 -10 10 -24 17
-30 17 -7 0 -12 10 -12 23 0 12 -7 32 -15 43 -8 12 -12 24 -8 27 10 11 52 -28
53 -49z m-380 -95 c0 -5 -11 2 -24 18 -13 15 -21 33 -19 41 6 13 43 -38 43
-59z m-2940 34 c0 -26 -1 -26 -14 -7 -11 14 -11 21 -3 26 17 11 17 11 17 -19z
m3475 6 c11 -17 -1 -21 -15 -4 -8 9 -8 15 -2 15 6 0 14 -5 17 -11z m-3655
-849 c-14 -27 -12 -63 5 -86 20 -26 19 -29 -12 -32 -32 -2 -63 -34 -63 -66 0
-28 -19 -56 -27 -38 -12 29 -56 72 -75 72 -17 0 -19 4 -13 33 13 60 39 89 81
93 45 4 74 32 74 73 0 14 3 37 7 51 6 22 8 18 20 -28 10 -37 10 -58 3 -72z
m418 -322 c15 -15 16 -38 2 -38 -5 0 -10 8 -10 18 0 10 -7 27 -15 39 -10 15
-13 31 -8 55 7 33 7 33 13 -14 3 -27 11 -53 18 -60z m-211 -195 c-8 -9 -20
-12 -26 -9 -19 12 -12 21 15 23 24 1 25 -1 11 -14z m-708 -6516 c1 -10 -3 -15
-9 -12 -5 3 -10 21 -9 38 0 27 2 29 9 12 5 -11 9 -28 9 -38z m-252 -5309 c-3
-8 -6 -5 -6 6 -1 11 2 17 5 13 3 -3 4 -12 1 -19z m12 -260 l30 -27 -37 6 c-20
3 -50 12 -66 19 -16 8 -35 14 -42 14 -7 0 -16 5 -19 10 -4 6 -3 10 2 9 33 -6
56 4 71 31 l17 30 7 -33 c3 -17 20 -44 37 -59z m101 -42 c26 -9 37 -15 25 -17
-32 -3 -49 2 -65 17 -18 17 -16 17 40 0z"/>
<path d="M8702 16763 c-28 -5 -82 -77 -82 -108 0 -13 8 -33 18 -45 20 -24 53
-28 162 -17 53 5 69 11 88 32 29 35 28 68 -5 105 -25 28 -35 31 -93 34 -36 2
-75 1 -88 -1z"/>
<path d="M8445 16233 c-29 -7 -46 -24 -62 -61 -11 -28 -17 -32 -36 -26 -35 11
-78 7 -96 -10 -9 -8 -43 -52 -76 -96 -33 -45 -72 -96 -86 -113 -14 -18 -37
-51 -51 -75 -21 -35 -27 -40 -37 -29 -29 35 -114 28 -139 -12 -13 -20 -26 -27
-57 -28 -47 -3 -65 -19 -74 -64 -5 -25 -13 -35 -29 -37 -26 -4 -52 -38 -52
-67 0 -11 9 -44 20 -73 11 -29 20 -65 20 -81 0 -37 29 -73 72 -90 34 -13 35
-14 26 -55 -20 -88 -20 -111 -1 -133 18 -21 35 -27 80 -24 30 1 103 95 103
133 0 18 8 36 21 47 11 9 24 32 28 51 4 22 14 36 26 40 40 11 86 56 120 117
19 35 35 70 35 78 0 8 9 15 19 15 11 0 22 4 25 8 3 5 20 9 38 10 24 1 42 10
66 36 34 38 40 71 19 100 -12 16 -10 22 11 43 18 19 23 32 19 56 -3 24 2 39
19 60 13 16 24 40 24 54 0 19 3 23 13 15 13 -11 37 -15 74 -13 27 1 83 83 83
121 0 32 -26 70 -47 70 -9 0 -24 6 -32 14 -19 16 -59 25 -86 19z"/>
<path d="M8653 16033 c-27 -5 -53 -39 -53 -69 0 -12 9 -33 20 -47 26 -32 18
-51 -22 -54 -43 -3 -138 -101 -138 -142 0 -43 28 -71 75 -74 27 -1 46 -9 60
-25 23 -27 85 -33 111 -12 29 25 26 0 -3 -28 -28 -26 -31 -33 -31 -96 0 -63 2
-72 28 -98 24 -23 49 -33 81 -30 3 1 3 -12 1 -29 -2 -17 3 -39 12 -54 21 -31
20 -33 -6 -37 -12 -2 -37 -22 -55 -46 -27 -35 -33 -53 -33 -92 0 -65 23 -93
76 -93 50 0 121 43 130 78 6 24 2 106 -7 135 -2 9 4 16 19 18 37 6 55 44 47
98 -7 48 -41 94 -68 94 -16 0 -25 43 -29 140 l-2 54 44 13 c50 14 80 44 79 77
0 11 -12 44 -27 71 -31 57 -72 78 -153 77 -53 0 -77 24 -59 58 34 64 -19 127
-97 113z"/>
<path d="M9593 16032 c-48 -7 -68 -72 -35 -112 39 -48 132 -17 132 44 0 48
-41 76 -97 68z"/>
<path d="M5370 15428 c-43 -11 -80 -50 -80 -85 0 -30 63 -92 94 -94 70 -4 96
21 96 90 0 78 -36 107 -110 89z"/>
<path d="M7763 14843 c-27 -5 -53 -39 -53 -69 0 -40 32 -67 80 -67 33 0 48 6
62 23 47 58 -7 128 -89 113z"/>
<path d="M6099 14276 c-95 -31 -65 -148 38 -148 45 0 73 29 73 76 0 64 -45 93
-111 72z"/>
<path d="M6963 14189 c-18 -5 -48 -24 -66 -42 -26 -26 -38 -32 -57 -27 -15 4
-56 -2 -100 -15 -62 -18 -78 -27 -90 -51 -8 -16 -23 -40 -33 -54 -23 -32 -22
-101 1 -130 27 -33 83 -30 126 8 20 17 52 33 76 37 50 8 75 41 66 85 -5 29 -4
30 22 24 15 -4 29 -11 30 -16 2 -5 15 -22 28 -37 13 -16 24 -38 24 -50 0 -12
20 -42 43 -67 37 -39 50 -46 83 -46 28 0 43 6 56 23 14 17 31 23 71 25 29 2
62 5 74 8 15 3 26 -2 37 -19 10 -15 29 -25 58 -30 24 -4 51 -14 60 -22 26 -23
89 -19 110 7 38 46 7 159 -44 161 -43 2 -73 13 -99 36 -19 16 -61 19 -139 10
-53 -6 -56 -6 -71 22 -12 20 -27 30 -53 35 -37 7 -56 29 -56 64 0 53 -78 83
-157 61z"/>
<path d="M6213 14113 c-27 -5 -53 -39 -53 -69 0 -40 32 -67 80 -67 33 0 48 6
62 23 47 58 -7 128 -89 113z"/>
<path d="M7933 13682 c-48 -7 -68 -72 -35 -112 39 -48 132 -17 132 44 0 48
-41 76 -97 68z"/>
<path d="M5812 13462 c-33 -5 -47 -35 -66 -137 -10 -49 -38 -171 -62 -269 -35
-138 -49 -223 -64 -370 -21 -216 -29 -268 -70 -486 -84 -442 -137 -881 -146
-1230 -6 -192 -5 -212 19 -327 28 -136 59 -204 97 -213 42 -11 74 4 95 43 16
30 18 41 9 66 -8 20 -9 45 -2 83 6 29 8 78 5 108 -3 38 0 62 9 74 7 10 13 37
13 60 -1 41 52 311 73 376 6 19 12 111 13 205 3 200 17 322 71 608 23 122 31
147 45 147 22 0 59 46 59 74 0 12 -7 32 -16 45 -15 21 -15 27 4 89 11 37 25
105 31 152 6 47 18 132 26 190 30 211 30 264 2 390 -15 63 -31 149 -38 190 -6
41 -16 86 -22 99 -13 26 -47 39 -85 33z"/>
<path d="M6853 13232 c-33 -5 -53 -40 -53 -93 0 -62 23 -91 72 -91 20 0 42 3
47 7 16 9 51 81 51 103 0 44 -62 83 -117 74z"/>
<path d="M6235 13140 c-40 -11 -105 -51 -120 -74 -9 -13 -15 -36 -15 -52 1
-16 -4 -49 -10 -74 -34 -131 -18 -182 54 -182 21 0 43 5 49 11 6 6 19 11 28
11 10 0 24 8 31 18 7 9 24 18 38 20 30 4 60 36 60 66 0 12 -11 37 -24 56 -21
32 -22 37 -10 67 36 85 -7 154 -81 133z"/>
<path d="M7213 13142 c-48 -7 -68 -72 -35 -112 39 -48 132 -17 132 44 0 48
-41 76 -97 68z"/>
<path d="M7013 12882 c-27 -4 -53 -38 -53 -68 0 -50 73 -96 138 -86 26 4 62
55 62 88 0 39 -31 65 -80 67 -25 1 -55 1 -67 -1z"/>
<path d="M7076 12689 c-15 -4 -36 -15 -46 -24 -10 -9 -24 -15 -32 -14 -43 6
-58 -3 -92 -55 -20 -29 -36 -62 -36 -73 0 -33 36 -70 76 -78 20 -3 44 -16 54
-27 12 -15 28 -21 57 -21 51 0 59 5 84 56 12 23 37 56 55 73 55 51 42 116 -29
148 -50 22 -60 23 -91 15z"/>
<path d="M7052 12233 c-12 -2 -30 -15 -39 -29 -12 -18 -21 -23 -37 -18 -64 21
-116 -9 -116 -67 0 -48 37 -79 99 -84 30 -3 68 -9 85 -13 50 -13 75 -3 106 40
68 93 10 192 -98 171z"/>
<path d="M6292 12193 c-12 -3 -30 -16 -40 -31 -9 -14 -27 -36 -39 -49 -26 -25
-31 -79 -10 -107 12 -16 10 -22 -10 -42 -46 -46 -21 -107 49 -120 52 -9 79 -6
96 10 15 15 52 113 52 139 0 10 9 30 20 44 49 62 32 135 -35 147 -20 4 -42 9
-48 10 -7 2 -22 1 -35 -1z"/>
<path d="M6515 11863 c-27 -7 -51 -29 -64 -62 -10 -22 -19 -27 -46 -28 -18 -1
-39 -4 -45 -8 -17 -11 -40 -70 -40 -103 0 -33 32 -79 64 -92 21 -9 21 -9 0 -9
-30 -1 -104 -85 -104 -119 0 -25 -3 -27 -42 -29 -30 -1 -48 -8 -60 -23 -19
-24 -23 -66 -9 -89 7 -10 -1 -23 -24 -46 -60 -56 -55 -129 10 -149 19 -5 36
-21 45 -40 9 -18 24 -32 37 -34 22 -3 22 -4 7 -28 -13 -18 -15 -37 -9 -79 9
-79 32 -100 103 -96 47 2 91 138 61 192 -15 28 -13 57 6 79 22 26 45 78 45
102 0 32 -27 68 -51 68 -33 0 -21 25 14 27 19 2 39 11 50 24 18 22 23 75 8 98
-5 7 -4 25 2 42 14 37 0 80 -33 96 -22 11 -23 13 -5 13 54 2 99 10 108 19 7 7
23 0 49 -20 47 -38 103 -42 129 -10 10 12 24 21 32 21 21 0 57 48 57 76 0 13
-12 38 -28 55 -23 25 -35 31 -76 32 -46 2 -50 4 -58 32 -14 57 -80 100 -133
88z"/>
<path d="M6723 11432 c-34 -5 -53 -40 -53 -99 0 -70 29 -105 85 -105 58 0 79
30 71 102 -10 85 -37 112 -103 102z"/>
<path d="M5881 11031 c-36 -10 -59 -49 -66 -111 -6 -46 -3 -60 12 -79 40 -49
132 -19 133 43 0 11 7 30 15 40 44 58 -18 128 -94 107z"/>
<path d="M6303 10603 c-49 -9 -68 -73 -35 -114 15 -18 29 -22 67 -22 38 0 52
4 67 22 49 62 -12 131 -99 114z"/>
<path d="M5763 10283 c-24 -5 -53 -38 -53 -61 0 -8 -11 -27 -25 -44 -77 -91
35 -196 117 -109 16 17 37 31 48 31 23 0 60 45 60 74 0 25 -56 106 -73 106 -7
0 -21 2 -32 4 -11 2 -30 2 -42 -1z"/>
<path d="M6065 10093 c-11 -3 -28 -12 -39 -22 -20 -18 -56 -93 -56 -119 -1
-23 -35 -62 -53 -62 -27 0 -59 -51 -54 -85 3 -21 -3 -41 -19 -65 -13 -19 -24
-44 -24 -56 0 -33 31 -64 65 -66 17 -1 35 -5 41 -10 7 -5 25 -10 42 -11 l29
-2 -19 -25 c-11 -14 -36 -30 -56 -36 -50 -15 -76 -52 -68 -97 9 -47 34 -76 71
-81 41 -5 66 -15 92 -38 30 -28 92 -27 115 2 22 27 23 59 4 103 -12 30 -11 35
5 56 39 48 14 102 -55 120 -22 6 -43 8 -47 5 -5 -3 -1 8 8 25 15 24 16 37 7
69 -9 33 -8 46 7 73 10 19 18 52 19 75 0 40 22 74 47 74 21 0 63 61 63 91 0
32 -38 79 -64 79 -8 0 -20 2 -28 4 -7 2 -22 1 -33 -1z"/>
<path d="M6423 10032 c-29 -4 -53 -38 -53 -75 0 -16 -9 -40 -20 -54 -25 -32
-25 -69 0 -110 40 -66 148 -35 138 39 -4 22 -1 28 13 28 22 0 49 37 49 65 0
30 -56 102 -83 107 -12 2 -32 2 -44 0z"/>
<path d="M5683 9372 c-49 -7 -70 -88 -35 -132 14 -17 29 -23 62 -23 33 0 48 6
62 23 50 61 -6 144 -89 132z"/>
<path d="M6193 8862 c-50 -8 -70 -88 -33 -134 14 -18 37 -29 82 -39 76 -16 98
-14 121 13 36 43 10 114 -45 121 -15 1 -35 10 -45 19 -21 18 -49 25 -80 20z"/>
<path d="M5603 7723 c-28 -5 -53 -39 -53 -71 0 -12 11 -34 25 -48 14 -14 25
-29 25 -33 0 -18 42 -61 59 -61 12 0 21 -10 24 -27 3 -16 19 -43 34 -61 23
-28 35 -34 68 -34 33 0 45 6 68 34 39 46 44 75 21 117 -16 30 -27 37 -66 45
-34 7 -49 15 -57 33 -6 13 -18 26 -26 29 -8 4 -15 12 -15 19 0 36 -57 67 -107
58z"/>
<path d="M5953 7518 c-60 -16 -80 -75 -44 -134 46 -75 151 -32 151 61 0 61
-42 90 -107 73z"/>
<path d="M6050 4671 c-32 -9 -70 -66 -70 -106 0 -41 38 -97 70 -105 66 -16 94
12 104 106 6 50 4 65 -11 81 -21 24 -57 33 -93 24z"/>
<path d="M8503 4112 c-32 -5 -53 -40 -53 -88 0 -58 25 -86 75 -86 30 0 45 6
62 27 28 31 29 58 5 104 -17 36 -47 50 -89 43z"/>
<path d="M8953 3863 c-33 -6 -53 -41 -53 -93 0 -83 42 -110 132 -83 75 22 111
94 71 141 -16 17 -96 45 -120 41 -4 -1 -18 -4 -30 -6z"/>
<path d="M9320 3790 c-14 -3 -31 -18 -39 -35 -7 -17 -22 -47 -32 -67 -23 -45
-24 -65 -3 -128 20 -60 33 -72 81 -72 48 0 75 30 71 83 -1 20 4 44 11 53 12
14 15 13 30 -5 24 -30 89 -29 113 1 40 49 8 112 -56 112 -21 0 -45 -7 -57 -18
-18 -16 -19 -16 -19 7 0 52 -44 83 -100 69z"/>
<path d="M8770 3651 c-28 -7 -69 -79 -70 -123 0 -43 38 -80 85 -80 46 0 68 22
87 84 22 73 -32 135 -102 119z"/>
<path d="M8312 3602 c-30 -5 -49 -35 -72 -118 -30 -105 -27 -152 15 -206 38
-51 77 -65 146 -53 49 8 69 36 69 93 0 33 -6 49 -26 69 -23 23 -27 35 -28 93
-2 97 -32 133 -104 122z"/>
<path d="M7003 3433 c-50 -9 -71 -98 -34 -144 15 -18 28 -23 68 -23 84 0 132
50 105 109 -17 37 -89 67 -139 58z"/>
<path d="M8952 3412 c-36 -6 -55 -44 -48 -97 11 -68 36 -90 102 -86 31 2 94
64 94 94 0 52 -79 100 -148 89z"/>
<path d="M7463 3383 c-29 -5 -63 -49 -63 -79 0 -12 11 -35 23 -50 20 -23 32
-27 72 -27 38 0 52 4 67 22 51 64 -13 149 -99 134z"/>
<path d="M6993 3212 c-42 -7 -53 -38 -53 -148 0 -89 3 -107 25 -148 14 -26 25
-57 25 -69 0 -29 30 -105 112 -278 131 -280 127 -389 -20 -536 -27 -28 -62
-69 -77 -93 -15 -24 -54 -70 -87 -103 -86 -85 -106 -142 -69 -188 18 -23 26
-24 138 -25 66 -1 142 5 173 12 30 7 86 15 123 18 37 2 74 9 82 16 7 6 29 51
49 100 42 105 62 242 52 359 -3 42 -10 130 -15 196 -5 66 -13 134 -16 151 -5
21 -2 42 9 62 9 17 16 55 16 86 0 38 10 79 31 133 25 65 32 97 36 190 l6 112
-29 29 c-34 33 -169 88 -264 107 -69 14 -210 24 -247 17z"/>
</g>
</svg>
