<?xml version="1.0" standalone="no"?>
<!DOCTYPE svg PUBLIC "-//W3C//DTD SVG 20010904//EN"
 "http://www.w3.org/TR/2001/REC-SVG-20010904/DTD/svg10.dtd">
<svg version="1.0" xmlns="http://www.w3.org/2000/svg"
 width="480.000000pt" height="672.000000pt" viewBox="0 0 480.000000 672.000000"
 preserveAspectRatio="xMidYMid meet">
<metadata>
Created by potrace 1.16, written by Peter Selinger 2001-2019
</metadata>
<g transform="translate(0.000000,672.000000) scale(0.100000,-0.100000)"
fill="none" stroke="grey" stroke-width="2">
<path d="M0 3360 l0 -3360 2400 0 2400 0 0 3360 0 3360 -2400 0 -2400 0 0
-3360z m2373 3118 c122 -36 253 -244 332 -528 34 -124 108 -285 177 -385 52
-76 54 -82 42 -110 -29 -68 -4 -117 61 -117 45 0 85 36 85 78 l0 25 30 -23
c46 -33 78 -109 96 -228 13 -80 17 -188 19 -460 1 -282 6 -380 20 -475 15
-100 18 -198 20 -585 2 -441 1 -468 -18 -530 -11 -36 -27 -78 -36 -93 -18 -31
-104 -100 -139 -111 -44 -14 -50 -40 -62 -266 -6 -118 -15 -246 -20 -285 -14
-106 -30 -480 -32 -755 -2 -215 0 -250 16 -287 17 -41 17 -42 -4 -71 -18 -24
-21 -38 -16 -65 4 -23 2 -38 -7 -45 -17 -14 -145 -42 -214 -47 -62 -4 -68 -7
-89 -47 -13 -25 -15 -48 -9 -117 3 -47 6 -115 5 -151 -1 -68 33 -188 67 -239
46 -68 60 -143 43 -225 -20 -97 -74 -136 -189 -136 -64 0 -113 20 -137 55 -49
70 -74 92 -116 101 -62 14 -116 -1 -228 -65 -8 -4 -53 -27 -100 -50 -75 -36
-93 -41 -155 -41 -52 0 -78 5 -102 20 -32 19 -33 22 -33 85 0 49 6 78 26 120
15 30 31 58 35 61 17 10 69 137 87 209 24 102 23 320 -4 395 -22 65 -38 75
-145 91 -151 23 -145 18 -129 103 11 55 11 70 0 93 -10 20 -15 76 -16 203 -4
438 -19 668 -63 963 -30 206 -31 211 -21 420 13 292 47 517 126 822 20 77 43
183 51 235 8 52 31 163 50 245 33 138 36 166 41 347 3 112 0 256 -7 335 -9
103 -9 158 0 218 6 44 12 82 15 84 2 2 10 -2 18 -9 23 -19 86 -15 106 7 15 15
62 115 83 175 3 9 26 25 51 36 24 11 49 28 54 39 19 37 35 215 29 322 -7 116
-22 182 -57 250 -19 38 -22 56 -18 120 9 147 87 255 209 290 65 20 102 19 172
-1z"/>
<path d="M2183 6292 c-49 -7 -69 -80 -35 -122 13 -16 29 -22 57 -22 45 0 75
28 75 71 0 53 -39 82 -97 73z"/>
<path d="M2130 1130 c-35 -8 -56 -56 -65 -144 -6 -71 -5 -77 27 -137 29 -57
33 -72 31 -136 -3 -92 13 -116 77 -115 69 1 139 22 155 46 9 14 18 75 25 166
6 79 13 148 16 152 12 20 -9 121 -31 146 -21 25 -28 26 -116 27 -52 1 -105 -2
-119 -5z"/>
</g>
</svg>
