<?xml version="1.0" standalone="no"?>
<!DOCTYPE svg PUBLIC "-//W3C//DTD SVG 20010904//EN"
 "http://www.w3.org/TR/2001/REC-SVG-20010904/DTD/svg10.dtd">
<svg version="1.0" xmlns="http://www.w3.org/2000/svg"
 width="480.000000pt" height="672.000000pt" viewBox="0 0 480.000000 672.000000"
 preserveAspectRatio="xMidYMid meet">
<metadata>
Created by potrace 1.16, written by Peter Selinger 2001-2019
</metadata>
<g transform="translate(0.000000,672.000000) scale(0.100000,-0.100000)"
fill="none" stroke="grey" stroke-width="2">
<path d="M0 3360 l0 -3360 2400 0 2400 0 0 3360 0 3360 -2400 0 -2400 0 0
-3360z m2520 3035 c14 -7 41 -35 61 -62 108 -146 134 -236 147 -511 7 -152 9
-162 36 -202 26 -40 27 -42 9 -56 -10 -7 -26 -14 -35 -14 -21 0 -48 -37 -48
-67 0 -35 39 -68 115 -98 118 -45 148 -61 201 -104 47 -37 52 -45 63 -103 24
-121 54 -233 77 -287 30 -67 30 -77 -2 -136 -25 -48 -25 -50 -15 -165 7 -83
19 -144 41 -211 39 -119 76 -316 90 -484 19 -238 31 -339 45 -410 8 -38 21
-143 30 -233 13 -138 13 -167 2 -190 -8 -15 -24 -56 -37 -92 -22 -66 -22 -66
-6 -210 9 -80 30 -244 46 -365 55 -398 95 -794 82 -807 -4 -4 -32 -11 -60 -13
-64 -7 -101 -20 -108 -40 -4 -8 -30 -22 -60 -31 -62 -18 -84 -43 -84 -96 0
-31 -5 -40 -27 -51 -58 -30 -240 -63 -383 -71 -104 -6 -111 -13 -133 -128 -30
-163 -14 -304 48 -429 34 -67 46 -73 131 -71 68 2 75 0 89 -22 15 -22 15 -27
0 -56 -9 -17 -40 -46 -70 -65 -30 -19 -64 -52 -77 -73 -22 -37 -25 -38 -88
-40 -36 -2 -110 -9 -165 -17 -110 -16 -139 -35 -133 -86 2 -26 -16 -59 -33
-59 -5 0 -27 -11 -48 -26 -30 -20 -51 -25 -99 -25 -100 -1 -169 47 -188 131
-11 48 -7 66 26 135 15 33 42 102 60 152 31 90 31 96 25 205 -7 119 -69 397
-98 441 -9 14 -37 29 -78 41 -35 11 -67 24 -71 30 -4 6 -8 27 -8 47 0 21 -8
47 -19 60 -16 21 -29 23 -142 29 -68 3 -133 11 -143 17 -15 8 -19 22 -19 64 1
133 48 786 63 879 5 30 14 100 20 155 6 55 23 173 37 263 31 190 29 205 -37
242 -39 21 -58 24 -142 25 -79 1 -100 4 -117 19 -52 48 -65 136 -32 234 10 31
22 77 26 102 4 25 15 74 25 110 10 36 26 144 35 240 11 116 28 222 50 315 19
77 37 165 41 195 4 30 20 83 35 118 37 81 49 158 49 308 l0 121 -50 71 c-27
39 -50 76 -50 81 0 15 167 259 216 317 52 60 121 97 225 119 147 31 173 40
188 67 13 22 13 32 1 68 -8 23 -22 53 -32 65 -24 31 -23 42 12 163 16 56 32
126 35 155 28 240 124 404 257 438 43 11 165 1 198 -16z"/>
<path d="M1752 4232 c-13 -2 -32 -18 -43 -35 -40 -66 -13 -129 56 -129 46 0
71 24 81 78 11 60 -28 96 -94 86z"/>
</g>
</svg>
