<?xml version="1.0" standalone="no"?>
<!DOCTYPE svg PUBLIC "-//W3C//DTD SVG 20010904//EN"
 "http://www.w3.org/TR/2001/REC-SVG-20010904/DTD/svg10.dtd">
<svg version="1.0" xmlns="http://www.w3.org/2000/svg"
 width="480.000000pt" height="672.000000pt" viewBox="0 0 480.000000 672.000000"
 preserveAspectRatio="xMidYMid meet">
<metadata>
Created by potrace 1.16, written by Peter Selinger 2001-2019
</metadata>
<g transform="translate(0.000000,672.000000) scale(0.100000,-0.100000)"
fill="none" stroke="grey" stroke-width="2">
<path d="M0 3360 l0 -3360 2400 0 2400 0 0 3360 0 3360 -2400 0 -2400 0 0
-3360z m2425 3135 c17 -8 56 -23 88 -34 42 -14 79 -39 133 -86 87 -78 90 -87
81 -250 -5 -91 -11 -124 -32 -171 -40 -90 -43 -140 -11 -209 33 -72 33 -102 0
-146 -20 -27 -25 -42 -20 -73 6 -52 35 -89 78 -101 63 -18 228 -163 228 -200
0 -7 13 -43 30 -79 65 -145 97 -304 110 -541 6 -122 14 -174 30 -220 54 -150
74 -314 100 -820 6 -126 16 -218 30 -273 25 -105 25 -122 -5 -207 -19 -56 -33
-77 -67 -105 -23 -19 -58 -50 -76 -68 l-34 -32 6 -298 c8 -374 -14 -973 -39
-1077 -40 -168 -76 -348 -90 -450 -21 -154 -10 -230 50 -355 84 -174 96 -188
198 -251 26 -16 50 -37 53 -46 15 -50 37 -86 54 -90 30 -8 10 -34 -49 -67
l-51 -27 -73 16 c-39 9 -92 15 -117 14 -83 -3 -90 -1 -90 26 0 13 -11 37 -25
52 -14 16 -34 43 -45 60 -12 20 -28 34 -42 35 -39 2 -72 -3 -85 -14 -7 -6 -23
-8 -36 -4 -22 5 -25 13 -31 78 -4 48 -15 87 -31 116 -34 60 -33 125 1 211 25
62 26 73 20 171 -4 58 -11 143 -17 190 -12 97 -83 333 -106 351 -8 7 -37 13
-65 13 -40 0 -54 -5 -68 -22 -11 -14 -33 -23 -63 -26 -60 -8 -94 -21 -105 -43
-17 -31 -32 -153 -39 -303 -5 -124 -3 -150 11 -177 9 -18 16 -50 16 -72 0 -56
33 -93 83 -93 21 0 44 6 53 13 25 21 58 -5 72 -57 7 -25 10 -50 6 -55 -9 -16
-55 -31 -104 -35 -64 -4 -80 -28 -80 -116 0 -44 6 -80 16 -100 26 -50 53 -199
41 -225 -9 -20 -60 -48 -80 -44 -4 1 -55 3 -113 5 l-105 4 -42 48 c-53 59 -57
74 -41 154 26 141 46 311 39 337 -4 16 -9 71 -11 123 -2 79 -10 121 -48 245
-24 83 -56 181 -71 219 -14 38 -37 112 -50 164 -13 53 -30 101 -37 107 -7 7
-71 29 -143 50 -71 21 -149 46 -172 56 -23 11 -48 19 -56 19 -8 0 -35 11 -61
25 -26 14 -53 25 -60 25 -7 0 -20 6 -29 12 -15 12 -16 17 -1 63 8 28 33 136
54 240 22 105 63 280 91 390 28 110 59 234 67 277 19 95 12 110 -79 156 -76
38 -157 113 -164 150 -3 15 -10 42 -16 60 -8 25 -7 59 5 135 9 56 21 232 26
392 11 310 17 362 54 495 14 47 32 121 41 165 16 76 23 123 60 415 27 220 76
386 150 506 62 101 85 128 127 149 56 27 94 85 118 179 12 47 39 111 66 158
38 66 47 94 59 171 8 51 19 106 25 121 6 16 15 49 21 75 18 82 134 331 174
374 35 36 69 58 108 68 42 11 164 1 202 -16z"/>
</g>
</svg>
