<?xml version="1.0" standalone="no"?>
<!DOCTYPE svg PUBLIC "-//W3C//DTD SVG 20010904//EN"
 "http://www.w3.org/TR/2001/REC-SVG-20010904/DTD/svg10.dtd">
<svg version="1.0" xmlns="http://www.w3.org/2000/svg"
 width="480.000000pt" height="672.000000pt" viewBox="0 0 480.000000 672.000000"
 preserveAspectRatio="xMidYMid meet">
<metadata>
Created by potrace 1.16, written by Peter Selinger 2001-2019
</metadata>
<g transform="translate(0.000000,672.000000) scale(0.100000,-0.100000)"
fill="none" stroke="grey" stroke-width="2">
<path d="M0 3360 l0 -3360 2400 0 2400 0 0 3360 0 3360 -2400 0 -2400 0 0
-3360z m2696 3102 c40 -21 96 -95 135 -176 57 -120 79 -217 83 -373 4 -123 6
-135 33 -186 32 -59 32 -61 -24 -130 -13 -16 -23 -40 -23 -54 0 -33 63 -93
117 -112 41 -15 146 -74 178 -101 11 -9 28 -20 38 -23 9 -4 23 -21 31 -39 53
-120 79 -175 94 -191 13 -15 14 -21 3 -39 -35 -57 -49 -135 -56 -323 -7 -194
7 -368 36 -455 7 -19 15 -129 19 -245 4 -116 13 -235 20 -267 13 -54 12 -60
-13 -136 -24 -71 -27 -93 -26 -213 0 -74 -4 -222 -10 -329 -17 -305 -27 -835
-25 -1315 3 -458 -9 -833 -27 -867 -6 -11 -17 -17 -27 -14 -9 3 -46 6 -82 7
-36 1 -92 9 -125 16 -39 10 -98 13 -169 11 -99 -3 -110 -5 -127 -27 -24 -30
-24 -52 2 -104 36 -70 69 -178 69 -226 0 -56 -32 -106 -75 -117 -16 -3 -32 -7
-35 -6 -209 15 -256 7 -323 -57 -23 -22 -63 -60 -89 -85 -107 -101 -270 -137
-336 -75 -18 16 -22 31 -22 80 0 76 15 110 80 184 125 143 121 209 -12 239
-40 9 -104 27 -142 39 l-68 22 6 285 c6 222 11 297 23 338 14 43 15 58 5 85
-15 42 -16 204 -1 247 7 18 11 82 10 144 -8 662 -9 684 -24 713 -21 38 -37
112 -37 168 0 26 -5 55 -11 66 -11 22 -23 261 -17 384 7 169 0 312 -16 343
-21 40 -20 122 1 189 l17 53 -37 147 c-51 210 -59 287 -46 473 16 212 15 694
-1 729 -6 14 -18 38 -25 54 -13 24 -12 27 4 27 24 0 40 20 96 125 26 50 64
107 83 127 l36 37 17 -29 c13 -20 29 -31 56 -36 57 -12 74 -6 116 38 31 32 38
46 35 70 -3 16 -1 31 3 34 18 10 99 199 99 228 0 17 7 56 15 86 9 30 22 97 30
149 19 116 52 214 97 284 43 68 72 95 133 123 42 20 63 23 130 21 44 -2 89 -8
101 -15z"/>
<path d="M2193 5302 c-28 -4 -63 -47 -63 -76 0 -31 26 -63 56 -69 38 -7 91 10
109 36 44 62 -13 124 -102 109z"/>
</g>
</svg>
