<?xml version="1.0" standalone="no"?>
<!DOCTYPE svg PUBLIC "-//W3C//DTD SVG 20010904//EN"
 "http://www.w3.org/TR/2001/REC-SVG-20010904/DTD/svg10.dtd">
<svg version="1.0" xmlns="http://www.w3.org/2000/svg"
 width="480.000000pt" height="672.000000pt" viewBox="0 0 480.000000 672.000000"
 preserveAspectRatio="xMidYMid meet">
<metadata>
Created by potrace 1.16, written by Peter Selinger 2001-2019
</metadata>
<g transform="translate(0.000000,672.000000) scale(0.100000,-0.100000)"
fill="none" stroke="grey" stroke-width="2">
<path d="M0 3360 l0 -3360 725 0 725 0 2 88 c2 106 2 120 -11 202 -6 36 -11
142 -11 237 -1 137 2 178 14 202 13 24 16 65 16 194 0 187 -6 204 -78 225 -36
11 -42 18 -76 94 -21 46 -49 100 -62 121 l-25 38 16 107 c24 157 28 563 9 837
-24 329 -5 843 36 995 25 91 28 170 22 580 -4 208 8 373 35 503 18 88 18 88
-4 128 -20 37 -20 39 -3 39 20 0 60 44 60 66 0 7 13 20 29 28 16 9 37 30 48
48 15 26 27 33 53 35 35 3 66 24 75 54 4 11 14 19 23 20 9 0 31 8 47 18 34 21
74 13 112 -22 17 -15 37 -20 83 -21 75 0 91 14 102 91 5 32 11 74 14 93 5 29
0 43 -30 82 -26 33 -46 49 -69 53 -37 8 -77 61 -77 104 0 15 16 107 35 205 24
124 37 219 40 310 6 142 11 168 57 296 37 104 67 159 125 228 58 68 111 103
205 136 87 30 107 31 163 12 22 -8 54 -12 71 -9 42 7 88 -25 146 -101 68 -89
86 -124 124 -238 49 -144 64 -231 71 -398 5 -128 9 -155 35 -225 46 -122 47
-129 32 -150 -18 -24 -18 -66 0 -90 12 -17 12 -22 -5 -44 -40 -50 -8 -122 63
-142 69 -19 109 -15 133 15 20 25 22 25 45 9 14 -10 44 -17 77 -17 34 -1 53
-5 53 -13 0 -28 45 -64 83 -66 30 -2 41 -9 57 -34 11 -18 36 -41 57 -52 67
-36 66 -34 52 -79 -11 -37 -9 -47 24 -129 40 -99 66 -191 98 -338 19 -86 23
-148 29 -445 5 -206 12 -361 19 -385 7 -22 16 -101 21 -175 5 -74 17 -167 27
-205 16 -63 18 -128 19 -630 1 -595 1 -589 54 -839 17 -81 19 -108 11 -145 -6
-25 -13 -85 -17 -133 l-6 -87 -61 -44 c-34 -24 -77 -52 -95 -61 -18 -9 -38
-27 -43 -40 -12 -26 0 -190 25 -341 8 -49 20 -133 26 -185 6 -52 18 -117 26
-145 13 -45 42 -185 59 -290 3 -22 13 -70 21 -107 l16 -68 514 0 514 0 0 3360
0 3360 -2400 0 -2400 0 0 -3360z"/>
<path d="M2020 4650 c-31 -7 -55 -49 -47 -81 9 -34 65 -99 86 -99 14 0 17 -6
13 -30 -5 -34 20 -80 44 -80 8 0 28 -10 44 -22 20 -14 45 -21 79 -22 28 -1 56
-7 63 -14 6 -6 19 -12 28 -12 9 0 21 -5 27 -11 17 -17 74 -12 118 10 21 12 45
21 52 21 26 0 45 46 38 94 -6 37 -4 46 8 46 22 0 77 67 77 94 0 58 -48 79
-135 59 -22 -5 -56 -6 -75 -2 -37 8 -77 3 -97 -14 -9 -6 -17 -6 -26 1 -7 6
-40 15 -72 21 -33 6 -78 13 -100 17 -22 4 -44 10 -50 14 -17 12 -49 17 -75 10z"/>
</g>
</svg>
