<?xml version="1.0" standalone="no"?>
<!DOCTYPE svg PUBLIC "-//W3C//DTD SVG 20010904//EN"
 "http://www.w3.org/TR/2001/REC-SVG-20010904/DTD/svg10.dtd">
<svg version="1.0" xmlns="http://www.w3.org/2000/svg"
 width="480.000000pt" height="672.000000pt" viewBox="0 0 480.000000 672.000000"
 preserveAspectRatio="xMidYMid meet">
<metadata>
Created by potrace 1.16, written by Peter Selinger 2001-2019
</metadata>
<g transform="translate(0.000000,672.000000) scale(0.100000,-0.100000)"
fill="none" stroke="grey" stroke-width="2">
<path d="M0 3360 l0 -3360 2400 0 2400 0 0 3360 0 3360 -2400 0 -2400 0 0
-3360z m1925 2405 c68 -131 115 -214 204 -360 76 -123 205 -310 223 -321 20
-13 80 -5 100 13 30 27 126 163 202 286 73 119 147 261 195 378 43 103 58 116
114 99 23 -7 59 -21 81 -32 l38 -20 -7 -66 c-11 -98 -8 -518 5 -598 6 -42 25
-99 47 -144 20 -41 36 -86 34 -100 -1 -14 -26 -79 -56 -145 -66 -150 -82 -207
-90 -320 -7 -102 8 -358 30 -509 9 -56 22 -162 29 -236 45 -433 58 -553 67
-620 16 -121 39 -450 89 -1285 13 -203 16 -237 35 -380 8 -60 24 -229 35 -375
11 -146 27 -320 35 -387 18 -144 13 -158 -50 -168 -22 -3 -72 -15 -111 -27
-66 -18 -74 -19 -121 -5 -60 18 -72 16 -174 -29 -74 -33 -79 -34 -245 -38 -93
-3 -182 -10 -197 -15 -16 -6 -57 -11 -92 -11 -36 0 -86 -8 -112 -17 -58 -20
-191 -22 -247 -3 -22 7 -62 33 -88 58 -43 40 -53 45 -94 44 -25 0 -76 10 -112
23 -37 13 -85 26 -107 30 -68 11 -95 26 -114 62 -16 32 -16 42 -4 107 7 39 20
98 28 131 8 33 22 132 30 220 21 224 32 327 56 503 20 151 52 481 69 697 58
776 103 1322 130 1570 16 149 34 314 39 367 6 56 7 107 2 120 -5 13 -12 64
-16 113 -10 126 -34 211 -104 369 -34 75 -61 139 -61 141 0 3 16 30 37 62 59
92 73 143 73 261 0 151 -19 382 -41 497 -21 110 -22 108 46 126 22 5 54 16 70
24 17 8 34 13 39 12 5 -2 32 -48 61 -102z"/>
</g>
</svg>
