<?xml version="1.0" standalone="no"?>
<!DOCTYPE svg PUBLIC "-//W3C//DTD SVG 20010904//EN"
 "http://www.w3.org/TR/2001/REC-SVG-20010904/DTD/svg10.dtd">
<svg version="1.0" xmlns="http://www.w3.org/2000/svg"
 width="640.000000pt" height="895.000000pt" viewBox="0 0 640.000000 895.000000"
 preserveAspectRatio="xMidYMid meet">
<metadata>
Created by potrace 1.16, written by Peter Selinger 2001-2019
</metadata>
<g transform="translate(0.000000,895.000000) scale(0.100000,-0.100000)"
fill="none" stroke="grey" stroke-width="2">
<path d="M0 4475 l0 -4475 3200 0 3200 0 0 4475 0 4475 -3200 0 -3200 0 0
-4475z m3331 4055 c109 -56 207 -260 244 -508 12 -79 14 -143 9 -271 -6 -146
-5 -172 10 -197 9 -16 20 -47 24 -69 7 -35 5 -45 -20 -79 -16 -22 -28 -52 -28
-69 0 -41 53 -87 138 -120 269 -106 256 -99 306 -156 57 -64 76 -105 104 -226
42 -178 51 -276 62 -640 7 -267 10 -297 33 -375 33 -112 42 -159 71 -390 15
-120 27 -278 31 -410 8 -268 20 -422 61 -800 19 -180 19 -174 -4 -208 -10 -15
-38 -61 -61 -104 -34 -62 -53 -85 -107 -125 -37 -26 -79 -60 -95 -75 l-29 -26
-1 -309 c-1 -169 -1 -506 0 -748 2 -440 -4 -582 -33 -770 -21 -129 -20 -129
-47 -114 -12 6 -38 11 -57 11 -46 0 -72 -30 -72 -82 0 -34 -3 -38 -31 -44 -17
-3 -59 -6 -93 -6 -33 0 -77 -5 -96 -10 -40 -11 -94 -61 -109 -102 -8 -22 -20
-29 -66 -39 -76 -17 -93 -41 -77 -110 7 -28 12 -79 12 -114 0 -81 28 -149 70
-173 18 -10 45 -42 65 -77 19 -33 52 -76 73 -96 42 -38 46 -53 59 -184 4 -50
1 -67 -18 -101 -12 -23 -28 -40 -35 -37 -6 2 -40 -3 -75 -12 -64 -17 -141 -21
-295 -15 -72 3 -84 1 -113 -21 -39 -28 -90 -96 -120 -159 -41 -84 -131 -129
-258 -130 -124 0 -233 33 -267 82 -23 32 -21 139 3 186 10 20 29 59 42 85 13
27 32 53 42 58 9 5 33 41 52 78 20 42 42 70 54 74 11 3 32 30 50 66 29 56 31
68 31 166 0 108 -21 232 -45 271 -8 12 -33 27 -57 33 -25 7 -64 28 -88 47 -23
19 -47 34 -51 34 -24 0 -30 56 -35 298 -2 141 -11 320 -19 397 -10 96 -14 224
-13 410 3 233 1 278 -14 325 -22 70 -60 324 -97 649 -27 246 -29 253 -56 282
-16 16 -34 29 -40 29 -20 0 -164 116 -188 151 -24 35 -59 161 -60 214 0 17 5
88 12 159 10 104 11 141 1 188 -8 35 -10 87 -7 131 6 66 -14 294 -43 497 -12
84 -12 275 1 370 19 148 30 390 33 725 l2 340 31 132 c31 129 60 219 102 317
l21 48 20 -25 c23 -29 60 -38 106 -25 45 12 64 42 64 101 0 41 -5 53 -30 77
-31 29 -30 40 2 40 49 0 324 73 343 91 18 17 20 33 21 137 0 147 18 364 38
462 8 41 18 105 21 141 7 77 50 206 90 276 45 75 114 143 180 175 58 29 63 29
169 23 78 -4 120 -12 147 -25z"/>
</g>
</svg>
