<?xml version="1.0" standalone="no"?>
<!DOCTYPE svg PUBLIC "-//W3C//DTD SVG 20010904//EN"
 "http://www.w3.org/TR/2001/REC-SVG-20010904/DTD/svg10.dtd">
<svg version="1.0" xmlns="http://www.w3.org/2000/svg"
 width="640.000000pt" height="895.000000pt" viewBox="0 0 640.000000 895.000000"
 preserveAspectRatio="xMidYMid meet">
<metadata>
Created by potrace 1.16, written by Peter Selinger 2001-2019
</metadata>
<g transform="translate(0.000000,895.000000) scale(0.100000,-0.100000)"
fill="none" stroke="grey" stroke-width="2">
<path d="M0 4475 l0 -4475 3200 0 3200 0 0 4475 0 4475 -3200 0 -3200 0 0
-4475z m3573 4021 c123 -55 210 -194 232 -369 4 -33 16 -58 36 -81 20 -24 29
-44 29 -68 0 -67 -20 -142 -51 -190 -24 -36 -30 -56 -26 -77 4 -21 1 -34 -13
-46 -11 -10 -43 -65 -71 -123 -49 -99 -51 -107 -45 -160 10 -81 37 -136 87
-171 23 -17 50 -31 60 -31 10 0 21 -5 24 -10 8 -13 120 -70 137 -70 7 0 29 -8
48 -19 19 -10 50 -22 69 -26 95 -21 263 -141 302 -216 25 -49 60 -99 132 -187
l59 -71 -49 -59 -49 -59 -25 -189 c-26 -208 -32 -510 -11 -614 6 -30 25 -120
42 -200 33 -157 33 -162 55 -515 9 -132 22 -280 31 -330 8 -49 19 -178 24
-285 6 -150 14 -221 34 -309 30 -133 31 -139 11 -200 -7 -25 -20 -66 -27 -91
-13 -46 -83 -122 -148 -162 -16 -9 -32 -28 -35 -41 -4 -13 -2 -131 4 -263 6
-131 16 -396 21 -589 5 -192 15 -405 21 -473 12 -139 10 -146 -63 -183 -52
-27 -62 -50 -54 -130 7 -77 3 -83 -62 -94 -61 -10 -72 -31 -72 -138 l0 -88
-42 -19 c-84 -37 -236 -60 -392 -60 -151 0 -239 -12 -268 -37 -9 -8 -26 -42
-39 -75 -19 -50 -21 -66 -11 -90 9 -26 8 -34 -10 -58 -19 -27 -20 -36 -13
-155 l7 -127 72 -86 c40 -48 80 -93 89 -101 14 -11 17 -32 17 -117 0 -91 -3
-109 -25 -150 -14 -26 -25 -60 -25 -75 0 -21 -5 -29 -18 -29 -10 0 -31 -14
-46 -31 -15 -17 -42 -37 -59 -45 -18 -8 -39 -18 -47 -23 -50 -29 -150 -46
-235 -40 -79 5 -114 3 -139 -11 -20 -10 -36 -11 -72 -3 -27 6 -59 7 -75 3 -36
-11 -129 -14 -149 -6 -28 11 -65 13 -94 5 -17 -5 -34 -5 -40 0 -11 9 -60 19
-121 26 -17 2 -51 8 -75 15 -48 13 -155 7 -175 -10 -9 -8 -14 -6 -19 5 -7 20
-51 37 -96 37 -29 0 -43 9 -90 58 -41 43 -66 60 -92 65 -20 4 -44 15 -53 26
-10 10 -38 21 -64 25 -29 4 -58 17 -79 35 -18 16 -39 29 -47 29 -8 0 -25 11
-39 25 -14 14 -33 25 -43 25 -11 0 -36 20 -56 45 -21 25 -45 45 -53 45 -8 0
-22 9 -32 21 -22 27 -94 63 -157 78 -27 7 -79 32 -116 57 -37 24 -70 44 -73
44 -17 0 -76 57 -76 73 0 26 -17 57 -52 93 l-30 32 148 7 c82 4 167 13 189 19
71 21 84 87 28 144 -24 24 -26 31 -25 121 0 53 8 141 16 196 9 55 20 127 26
160 15 98 41 491 39 610 -2 174 28 419 81 660 29 136 44 294 31 341 -6 22 -11
66 -11 99 -1 33 -7 78 -15 100 -17 46 -19 197 -4 265 5 25 13 68 18 95 5 28
16 82 24 120 8 39 20 117 27 175 6 58 16 121 21 140 19 78 39 210 70 455 6 50
15 113 21 140 6 28 18 102 28 165 19 118 60 288 85 350 40 100 97 299 105 372
5 46 16 133 24 193 29 213 40 362 42 533 l2 172 29 33 c69 79 260 249 302 269
25 12 69 36 96 54 69 44 172 91 220 99 59 10 94 32 112 71 15 29 15 41 5 77
-23 79 -43 222 -37 263 3 22 14 56 24 75 10 19 22 68 26 109 4 41 13 90 21
109 8 18 14 43 14 56 0 12 13 42 30 66 16 24 30 50 30 57 0 30 52 111 102 158
60 57 150 124 167 124 7 0 20 15 31 33 18 31 90 91 137 116 88 45 224 48 316
7z"/>
</g>
</svg>
