<?xml version="1.0" standalone="no"?>
<!DOCTYPE svg PUBLIC "-//W3C//DTD SVG 20010904//EN"
 "http://www.w3.org/TR/2001/REC-SVG-20010904/DTD/svg10.dtd">
<svg version="1.0" xmlns="http://www.w3.org/2000/svg"
 width="640.000000pt" height="895.000000pt" viewBox="0 0 640.000000 895.000000"
 preserveAspectRatio="xMidYMid meet">
<metadata>
Created by potrace 1.16, written by Peter Selinger 2001-2019
</metadata>
<g transform="translate(0.000000,895.000000) scale(0.100000,-0.100000)"
fill="none" stroke="grey" stroke-width="2">
<path d="M0 4475 l0 -4475 3200 0 3200 0 0 4475 0 4475 -3200 0 -3200 0 0
-4475z m3444 4160 c68 -19 115 -55 168 -128 99 -136 119 -205 154 -532 20
-198 19 -255 -6 -305 -23 -46 -48 -64 -107 -79 -74 -20 -94 -79 -47 -142 14
-19 34 -54 45 -79 23 -51 66 -100 87 -100 9 0 30 -11 48 -25 18 -14 39 -25 47
-25 8 0 20 -7 27 -15 7 -8 27 -19 44 -23 24 -6 34 -16 44 -48 7 -21 19 -45 26
-52 20 -21 84 -17 115 6 24 18 30 18 54 6 15 -8 27 -22 27 -32 0 -25 28 -62
47 -62 17 0 29 -13 68 -71 13 -20 35 -39 50 -43 21 -5 25 -11 19 -24 -23 -55
-26 -143 -10 -288 10 -82 22 -261 27 -399 8 -250 15 -300 58 -440 42 -140 72
-413 82 -765 5 -179 14 -356 20 -395 7 -38 15 -182 18 -320 l7 -250 -46 -100
c-25 -55 -53 -111 -63 -125 -22 -31 -22 -101 -2 -407 8 -125 19 -363 25 -528
12 -352 27 -658 41 -840 28 -367 28 -379 11 -396 -12 -11 -59 -21 -145 -32
-119 -15 -135 -20 -225 -66 -139 -71 -225 -92 -402 -97 -261 -7 -265 -10 -265
-149 1 -184 26 -280 96 -359 43 -50 78 -57 196 -39 102 15 195 11 235 -10 37
-19 108 -71 108 -79 0 -14 -45 -36 -140 -68 -163 -54 -190 -68 -212 -110 -22
-42 -16 -39 -100 -60 -53 -14 -104 -19 -188 -18 -326 4 -317 5 -342 -18 -13
-12 -53 -31 -89 -43 -59 -19 -72 -28 -106 -74 -30 -41 -55 -61 -117 -92 -75
-38 -82 -40 -175 -40 -161 0 -241 43 -241 129 0 16 -5 44 -11 61 -17 45 -5 79
37 106 21 13 51 33 68 44 67 43 100 72 150 135 86 106 91 120 90 240 -1 92 -7
126 -47 268 -25 89 -52 173 -61 186 -16 26 -30 29 -171 41 -38 4 -110 14 -159
23 -119 23 -127 34 -115 155 5 49 17 99 25 113 11 16 14 35 10 56 -13 72 -15
177 -5 245 7 52 7 78 -1 93 -9 17 -7 29 11 65 20 39 21 49 10 87 -6 24 -10 68
-9 98 3 75 -8 256 -16 269 -11 17 -7 539 5 611 5 36 13 90 17 120 4 30 13 64
19 75 17 31 15 170 -3 216 -11 25 -14 52 -10 77 4 20 11 88 16 150 5 62 14
121 20 133 6 11 18 79 26 151 12 101 20 137 37 159 22 30 39 110 58 262 13
109 3 131 -63 143 -24 4 -49 7 -56 5 -7 -1 -32 5 -55 13 -23 8 -74 24 -112 35
-39 11 -88 33 -109 48 -75 56 -165 139 -190 176 -64 94 -70 134 -31 187 14 19
25 41 25 49 0 8 13 38 30 68 16 29 30 57 30 62 0 13 99 144 116 154 8 4 21 21
29 37 9 16 31 45 50 65 52 51 45 95 -19 133 -47 28 -62 61 -74 165 -12 104 -5
142 43 237 39 77 47 108 106 420 39 206 45 227 71 252 17 16 28 37 29 55 0 15
6 48 12 73 9 34 18 46 36 50 35 8 61 48 68 107 5 48 8 53 38 63 18 6 42 21 54
34 17 18 38 25 84 30 34 4 87 14 117 23 30 9 78 17 107 18 28 1 58 7 67 14 24
20 66 97 66 121 0 11 10 34 21 50 22 29 22 40 0 125 -35 137 7 549 74 719 68
171 288 339 400 304 16 -5 52 -16 79 -23z"/>
<path d="M3010 6778 c-77 -15 -113 -78 -72 -128 14 -17 29 -23 60 -23 23 0 47
5 54 10 7 5 27 10 43 11 34 2 65 34 65 67 0 56 -58 80 -150 63z"/>
<path d="M3803 6772 c-48 -7 -68 -72 -35 -112 39 -48 132 -17 132 44 0 48 -41
76 -97 68z"/>
<path d="M3453 6652 c-54 -8 -73 -108 -30 -157 48 -56 147 -20 147 53 0 15
-11 44 -25 63 -24 36 -50 47 -92 41z"/>
<path d="M3163 6612 c-28 -4 -63 -47 -63 -78 0 -40 40 -76 85 -76 30 0 45 6
62 27 53 61 1 140 -84 127z"/>
<path d="M3082 1532 c-12 -2 -30 -14 -38 -28 -14 -21 -15 -47 -9 -189 8 -189
15 -207 77 -207 75 0 91 35 96 213 l4 136 -31 35 c-31 36 -57 46 -99 40z"/>
</g>
</svg>
