<?xml version="1.0" standalone="no"?>
<!DOCTYPE svg PUBLIC "-//W3C//DTD SVG 20010904//EN"
 "http://www.w3.org/TR/2001/REC-SVG-20010904/DTD/svg10.dtd">
<svg version="1.0" xmlns="http://www.w3.org/2000/svg"
 width="640.000000pt" height="895.000000pt" viewBox="0 0 640.000000 895.000000"
 preserveAspectRatio="xMidYMid meet">
<metadata>
Created by potrace 1.16, written by Peter Selinger 2001-2019
</metadata>
<g transform="translate(0.000000,895.000000) scale(0.100000,-0.100000)"
fill="none" stroke="grey" stroke-width="2">
<path d="M0 4475 l0 -4475 3200 0 3200 0 0 4475 0 4475 -3200 0 -3200 0 0
-4475z m3135 4140 c49 -15 69 -28 120 -80 69 -73 107 -152 132 -275 16 -81 12
-152 -16 -309 -6 -29 -10 -117 -9 -196 0 -148 -8 -185 -44 -185 -22 0 -58 -47
-58 -75 0 -13 8 -32 18 -44 24 -31 173 -80 220 -74 21 3 62 -2 92 -11 29 -9
68 -16 86 -16 17 0 51 -9 75 -19 24 -11 61 -23 82 -26 26 -5 44 -16 55 -34 9
-14 34 -46 55 -71 49 -57 67 -92 105 -210 41 -126 47 -150 77 -325 23 -128 28
-201 37 -490 6 -187 10 -379 9 -427 -1 -60 6 -124 24 -209 30 -148 33 -293 9
-562 -19 -215 -14 -585 10 -764 15 -109 15 -113 -5 -158 -17 -38 -19 -58 -14
-106 7 -58 6 -59 -29 -92 -25 -24 -36 -43 -36 -63 0 -29 70 -357 109 -509 11
-44 32 -141 46 -215 14 -74 28 -147 31 -162 3 -15 19 -44 35 -64 16 -20 29
-49 29 -64 0 -37 39 -122 101 -222 28 -45 64 -110 80 -145 46 -104 107 -305
134 -446 14 -73 34 -161 45 -196 24 -80 37 -221 22 -247 -7 -13 -34 -24 -89
-35 -43 -9 -125 -26 -183 -39 -75 -16 -124 -21 -173 -17 -63 4 -72 8 -107 42
-30 30 -45 37 -76 37 -64 0 -74 -23 -74 -163 0 -107 -2 -119 -19 -129 -33 -17
-121 -11 -213 14 -98 27 -130 24 -159 -13 -18 -22 -20 -37 -17 -101 3 -78 18
-117 86 -228 76 -123 138 -156 243 -126 32 10 115 18 201 21 120 4 160 2 220
-12 91 -23 105 -31 119 -73 9 -29 8 -35 -8 -48 -47 -36 -221 -93 -307 -100
-66 -5 -81 -29 -81 -135 0 -87 -1 -92 -28 -115 -59 -51 -210 -70 -313 -39 -67
20 -149 79 -198 143 -37 47 -98 92 -127 92 -6 0 -20 11 -30 24 -10 13 -53 41
-96 62 -51 26 -82 48 -92 67 -32 58 -45 69 -85 69 -30 0 -45 -7 -67 -30 -48
-51 -138 -100 -209 -112 -52 -9 -80 -8 -142 4 -150 29 -193 69 -182 166 7 59
63 169 114 225 15 17 39 51 54 77 17 30 35 48 49 50 15 2 31 20 48 53 22 42
28 68 33 160 7 134 -6 174 -64 188 -35 8 -163 -20 -335 -73 -76 -24 -266 -34
-283 -15 -6 6 -17 93 -26 195 -9 102 -30 334 -46 515 -45 488 -48 537 -60
1060 -10 380 -15 485 -26 502 -8 13 -37 34 -65 48 -27 14 -52 34 -55 43 -13
42 -49 110 -76 145 l-31 38 19 107 c21 123 26 267 29 792 2 319 5 399 24 533
11 87 21 179 21 205 0 26 15 94 32 152 l32 105 -2 280 c-1 154 3 334 8 400 15
165 54 328 102 422 l11 22 18 -23 c10 -13 30 -26 43 -28 39 -8 149 11 166 27
11 12 16 46 20 127 l5 111 125 63 c95 47 135 62 166 62 23 0 47 3 54 7 19 12
60 107 60 141 0 46 -29 75 -123 123 l-84 43 -6 126 c-11 210 26 381 125 577
84 168 151 231 318 299 24 9 120 0 185 -19z"/>
<path d="M3223 1359 c-45 -13 -67 -49 -59 -96 4 -21 10 -68 14 -105 4 -42 14
-74 24 -84 21 -21 94 -22 115 -2 20 21 32 81 33 165 0 61 -3 76 -22 96 -27 30
-61 38 -105 26z"/>
</g>
</svg>
