<?xml version="1.0" standalone="no"?>
<!DOCTYPE svg PUBLIC "-//W3C//DTD SVG 20010904//EN"
 "http://www.w3.org/TR/2001/REC-SVG-20010904/DTD/svg10.dtd">
<svg version="1.0" xmlns="http://www.w3.org/2000/svg"
 width="480.000000pt" height="672.000000pt" viewBox="0 0 480.000000 672.000000"
 preserveAspectRatio="xMidYMid meet">
<metadata>
Created by potrace 1.16, written by Peter Selinger 2001-2019
</metadata>
<g transform="translate(0.000000,672.000000) scale(0.100000,-0.100000)"
fill="none" stroke="grey" stroke-width="2">
<path d="M0 3360 l0 -3360 2400 0 2400 0 0 3360 0 3360 -2400 0 -2400 0 0
-3360z m2423 2980 c59 -31 102 -75 126 -129 26 -62 40 -214 29 -311 -16 -131
-10 -308 11 -333 14 -18 34 -24 174 -53 l87 -19 0 -36 c0 -52 26 -81 74 -81
27 0 45 7 65 26 27 26 28 26 49 9 26 -22 123 -210 158 -307 55 -153 65 -246
66 -656 1 -374 -7 -532 -37 -690 -27 -142 -37 -274 -31 -390 6 -104 4 -122
-18 -194 -22 -69 -32 -85 -84 -135 l-59 -56 3 -325 c2 -297 4 -338 28 -475 42
-244 61 -521 76 -1135 6 -212 14 -430 19 -485 13 -140 -2 -245 -42 -307 -37
-59 -66 -69 -191 -71 -84 -2 -97 0 -118 20 -12 11 -42 26 -65 32 -26 7 -65 31
-100 62 -32 28 -85 69 -118 92 -33 22 -72 51 -87 64 -31 29 -72 32 -137 9 -52
-19 -92 -20 -178 -5 -53 9 -71 18 -101 48 -20 21 -44 42 -52 47 -8 5 -28 34
-43 64 -25 50 -28 68 -31 180 -2 69 -10 184 -19 255 -9 79 -18 264 -22 470
-10 566 -40 923 -100 1210 -14 66 -32 156 -41 199 -17 82 -20 87 -98 149 -26
21 -37 40 -46 80 -7 28 -16 59 -21 68 -6 11 3 51 25 116 24 72 35 126 40 198
4 55 11 134 16 175 6 41 17 173 25 294 9 120 17 221 19 225 14 22 37 250 32
313 -23 285 -16 635 14 713 8 22 11 23 51 11 24 -7 57 -27 75 -45 44 -45 85
-44 163 4 62 37 101 77 101 102 0 7 6 24 14 36 7 12 17 42 20 66 4 24 13 53
21 64 19 27 19 87 2 112 -8 10 -29 23 -48 29 l-34 11 3 73 c1 51 -3 82 -14
104 -25 48 -21 298 6 370 22 60 85 128 140 153 47 21 147 13 203 -15z"/>
</g>
</svg>
