<?xml version="1.0" standalone="no"?>
<!DOCTYPE svg PUBLIC "-//W3C//DTD SVG 20010904//EN"
 "http://www.w3.org/TR/2001/REC-SVG-20010904/DTD/svg10.dtd">
<svg version="1.0" xmlns="http://www.w3.org/2000/svg"
 width="1500.000000pt" height="2098.000000pt" viewBox="0 0 1500.000000 2098.000000"
 preserveAspectRatio="xMidYMid meet">
<metadata>
Created by potrace 1.16, written by Peter Selinger 2001-2019
</metadata>
<g transform="translate(0.000000,2098.000000) scale(0.100000,-0.100000)"
fill="none" stroke="grey" stroke-width="2">
<path d="M0 10490 l0 -10490 2515 0 c2005 0 2515 3 2515 13 0 7 15 13 38 14
26 1 44 10 60 28 24 29 30 21 7 -9 -32 -43 -23 -46 121 -46 124 0 135 1 132
18 -3 9 4 35 15 56 15 30 18 52 13 89 -6 51 -28 97 -47 97 -6 0 -19 10 -28 21
-24 29 -98 31 -120 2 -15 -19 -16 -19 -36 11 -11 17 -30 33 -40 35 -26 4 -35
19 -35 57 0 51 -27 74 -90 80 -88 9 -111 6 -132 -12 -10 -10 -31 -20 -46 -22
-14 -2 -32 -8 -39 -14 -10 -8 -13 -5 -13 14 0 13 -7 33 -15 44 -16 24 -11 34
16 34 30 0 89 87 89 130 0 69 -22 83 -142 89 -29 2 -21 16 10 19 52 4 90 78
63 121 -6 10 -5 22 5 35 33 47 4 115 -51 119 -28 2 -30 5 -27 33 5 39 -32 83
-70 86 -19 2 -28 8 -28 19 0 31 -33 60 -71 62 -34 2 -35 3 -25 29 9 25 12 26
27 12 27 -24 89 -21 111 6 43 52 3 132 -65 132 -21 0 -44 -5 -52 -12 -8 -6
-18 -9 -22 -7 -17 11 -100 21 -157 21 -48 -1 -63 -5 -76 -22 -12 -14 -20 -18
-28 -10 -15 15 -79 12 -107 -6 l-25 -16 0 50 c0 52 -16 96 -45 120 -24 20 -96
16 -114 -6 -9 -11 -29 -20 -45 -22 -38 -3 -50 -14 -70 -66 -16 -41 -19 -44
-51 -43 -22 1 -35 7 -35 15 0 8 -7 26 -15 40 -8 15 -19 46 -25 69 -21 85 -130
123 -219 77 -25 -13 -26 -12 -32 16 -8 37 -26 60 -48 60 -9 0 -21 4 -27 10 -5
5 -23 11 -40 13 -16 2 -36 7 -42 11 -7 4 -30 9 -50 11 -20 2 -51 6 -67 10 -28
6 -30 10 -27 41 3 28 -1 39 -28 64 -33 31 -94 53 -145 52 -35 -1 -65 -33 -65
-70 0 -24 -1 -24 -23 9 -12 19 -33 35 -45 37 -19 3 -22 10 -22 45 0 55 -28
110 -60 118 -14 4 -18 7 -8 8 23 1 58 48 58 78 0 29 -42 73 -69 73 -14 0 -27
13 -40 38 -11 21 -26 44 -35 51 -18 15 -71 17 -107 3 -17 -7 -30 -7 -36 -1 -5
5 -23 11 -39 12 -26 2 -29 5 -26 27 4 26 -30 80 -50 80 -6 0 -19 7 -28 15 -9
8 -30 16 -46 17 -16 1 -36 7 -44 14 -9 8 -31 15 -50 16 -18 2 -43 13 -56 26
-13 12 -33 22 -46 23 l-23 0 22 9 c44 18 57 81 25 121 -15 18 -30 23 -69 23
-44 1 -52 4 -66 29 -15 26 -34 32 -82 27 -11 -1 -25 -6 -30 -10 -7 -6 -9 4 -7
28 4 43 -25 88 -61 95 -12 2 1 5 28 7 28 1 59 4 70 6 11 1 94 8 185 13 91 6
203 15 250 21 75 8 196 17 340 25 25 1 72 5 105 9 125 16 151 22 174 39 7 6
25 13 40 14 36 5 71 47 71 87 0 41 -38 100 -68 104 -16 3 -22 10 -22 29 0 14
-6 37 -13 51 -8 15 -25 49 -38 75 -13 27 -31 54 -39 60 -19 15 -40 74 -40 114
0 17 -9 42 -20 56 -11 14 -20 34 -20 44 0 28 -28 63 -51 63 -20 0 -20 0 0 26
25 31 27 61 6 91 -8 11 -17 47 -19 79 -9 103 -21 171 -35 188 -11 13 -11 22
-2 42 6 14 11 35 11 47 0 33 -61 120 -90 128 -23 6 -23 7 -3 8 29 1 60 43 68
92 8 48 -16 92 -54 97 -26 4 -29 41 -5 77 11 16 14 35 10 53 -4 15 -6 51 -6
80 1 46 -3 56 -29 82 -25 26 -27 30 -10 30 28 0 79 75 79 118 0 27 -9 43 -42
77 l-43 42 22 33 c13 18 23 44 23 57 0 30 -42 73 -72 73 -19 1 -20 2 -7 10 33
19 70 86 69 126 0 21 3 66 6 99 4 33 6 80 6 105 -2 167 -3 174 -24 209 -25 39
-25 72 -3 104 8 12 15 42 15 67 0 25 5 63 11 85 23 88 23 93 -10 125 -17 18
-31 39 -31 49 0 9 -7 26 -15 37 -20 26 -19 34 4 34 41 0 65 67 37 105 -12 16
-12 22 1 42 8 12 13 35 12 50 -2 15 4 39 13 53 24 37 32 93 18 137 -7 21 -15
47 -19 58 -10 31 -1 75 14 75 40 0 59 109 38 211 -8 40 -7 48 9 58 22 14 58
83 58 111 0 12 -4 29 -9 38 -10 22 14 178 34 214 20 35 19 98 -2 128 -9 13
-16 38 -14 55 1 19 -5 41 -17 55 -20 24 -20 24 1 35 12 6 26 23 32 39 5 16 22
42 38 57 33 34 35 72 4 103 -20 20 -22 26 -10 42 7 10 13 27 13 38 0 17 7 21
38 23 41 2 72 31 72 67 0 11 -11 42 -23 67 -22 45 -23 47 -5 69 21 26 23 71 6
103 -7 12 -11 32 -9 44 1 12 -3 31 -9 42 -9 18 -8 21 8 21 25 0 46 25 67 78
19 47 15 93 -12 132 -10 14 -16 34 -15 45 2 12 -1 31 -6 44 -7 19 -3 29 16 48
20 21 23 30 18 66 -4 23 -6 57 -6 76 0 19 -7 45 -15 57 -8 13 -15 36 -15 51 0
24 5 29 28 31 15 1 35 11 44 23 35 41 12 129 -33 129 -23 0 -24 8 -4 34 8 11
15 28 15 37 0 10 11 29 24 42 36 36 44 113 17 165 -12 23 -21 53 -21 67 0 14
-10 36 -22 48 -16 16 -22 32 -20 54 2 18 -1 48 -7 68 -8 31 -7 35 10 35 10 0
25 10 33 23 15 23 41 187 33 209 -2 7 4 24 14 37 11 13 19 40 19 61 0 29 5 39
20 43 31 8 46 51 31 92 -9 26 -9 52 1 120 11 77 10 90 -4 115 -16 28 -16 29 5
32 50 7 100 187 68 246 -10 19 -9 22 7 22 57 0 107 142 68 195 -12 17 -11 22
6 46 15 20 19 35 14 56 -18 72 -17 81 14 149 17 38 30 80 28 94 -1 14 5 36 14
50 9 14 19 52 22 86 6 51 4 65 -12 84 -16 19 -17 28 -8 52 9 23 7 35 -6 59
l-17 30 30 6 c38 7 61 42 58 85 -2 18 3 44 10 57 13 24 11 81 -7 158 -11 51
-28 73 -53 73 -22 0 -24 20 -7 67 9 25 9 41 1 63 -10 26 -8 35 18 74 24 36 31
60 36 118 3 40 12 82 19 93 19 27 17 76 -3 105 -10 14 -22 38 -28 55 -5 16
-20 34 -32 40 -29 12 -28 13 2 66 28 50 31 77 11 104 -16 22 -5 64 26 104 10
13 18 35 18 50 0 35 -35 91 -57 91 -16 0 -18 9 -16 71 2 39 -2 79 -7 89 -9 17
-7 18 19 10 39 -11 79 -1 96 23 19 27 19 87 1 112 -12 17 -12 22 5 44 22 27
24 50 8 85 -10 21 -8 29 10 52 11 15 21 36 21 46 0 11 9 31 20 45 11 14 20 32
20 40 0 7 10 27 21 43 19 25 21 38 16 92 -3 35 -9 70 -12 79 -5 12 1 16 27 17
21 0 39 9 51 24 19 23 19 34 -1 111 -8 30 -7 37 4 37 8 0 23 15 34 33 17 26
20 45 17 104 -3 49 -11 82 -23 100 -10 16 -17 33 -15 38 2 6 7 25 12 43 5 17
14 49 20 70 6 20 12 51 14 67 1 17 7 40 13 51 6 11 14 48 18 83 5 47 13 69 30
86 25 25 31 59 14 85 -11 18 5 40 31 40 22 0 79 83 79 115 0 11 -6 30 -14 41
-12 17 -12 22 0 39 8 10 14 27 14 37 0 11 7 18 20 18 25 0 46 33 55 85 5 35
10 41 33 43 32 2 62 35 62 68 0 17 6 24 20 24 11 0 27 12 37 28 10 15 37 51
60 80 24 30 43 60 43 68 0 7 7 31 15 51 14 34 19 38 53 40 54 3 86 42 78 97
-4 23 -15 53 -26 68 -25 34 -25 33 8 36 30 2 112 81 112 107 0 8 9 15 19 15
26 0 51 37 51 75 0 38 -25 75 -50 75 -16 0 -17 3 -7 30 8 20 8 38 1 57 -8 22
-6 34 11 60 11 18 28 32 37 33 24 0 58 48 58 82 0 17 -9 38 -22 51 -16 15 -22
32 -20 50 4 35 -22 77 -47 77 -17 0 -15 4 10 30 24 24 30 38 29 72 -2 141 9
279 24 300 22 31 20 70 -6 104 -13 15 -17 25 -10 20 20 -12 122 15 138 38 29
42 5 138 -38 156 -23 9 -23 9 -1 9 28 1 63 46 63 82 0 40 31 88 50 79 8 -4 29
-15 47 -24 17 -9 38 -16 47 -16 9 0 16 -8 16 -19 0 -62 96 -86 145 -36 17 16
25 35 25 58 l0 35 33 -12 c17 -6 44 -20 59 -30 38 -25 98 -24 119 3 17 20 17
20 22 -7 9 -47 37 -72 82 -75 35 -2 41 -6 50 -32 6 -16 20 -34 33 -40 13 -6
22 -19 22 -32 0 -13 11 -35 25 -50 13 -16 36 -42 50 -60 27 -34 54 -43 96 -32
23 6 25 4 21 -22 -5 -33 21 -79 43 -79 8 0 31 -18 52 -40 24 -25 48 -41 65
-42 27 -2 37 -15 54 -73 16 -52 104 -75 156 -41 14 9 50 18 81 20 36 3 67 11
85 25 48 34 177 98 213 106 19 4 68 29 110 56 42 27 90 52 107 55 17 4 50 22
72 41 40 34 43 35 93 28 83 -13 123 -9 169 17 36 19 46 32 59 73 9 28 20 79
23 113 l7 64 -37 31 c-171 146 -244 254 -289 427 -9 36 -48 142 -86 237 -74
183 -83 218 -98 378 -6 55 -17 136 -26 180 -13 66 -14 89 -4 131 16 69 2 167
-38 266 -27 66 8 271 77 448 12 30 25 66 30 80 26 81 96 208 140 257 27 30 64
74 82 99 17 24 52 57 77 73 63 40 205 111 222 111 8 0 28 7 44 16 17 9 62 28
100 43 64 24 82 26 200 24 142 -1 191 -12 343 -76 107 -46 155 -74 237 -142
75 -61 148 -148 175 -210 110 -242 146 -350 180 -545 15 -83 30 -106 75 -114
61 -12 86 -28 107 -70 34 -66 36 -83 28 -261 -7 -192 -14 -214 -105 -330 -68
-87 -75 -106 -74 -180 2 -84 -14 -111 -67 -112 -46 -1 -78 -34 -71 -73 3 -14
20 -81 40 -150 19 -69 44 -172 57 -230 12 -58 30 -136 41 -175 10 -38 23 -117
28 -175 14 -153 32 -225 67 -261 16 -17 85 -58 154 -92 69 -34 151 -76 183
-95 58 -33 93 -41 134 -28 14 5 26 1 35 -10 40 -49 90 -89 198 -159 175 -112
180 -116 191 -157 12 -46 31 -59 219 -151 308 -150 421 -246 590 -497 97 -145
171 -308 224 -496 31 -111 109 -473 130 -607 9 -53 36 -179 60 -280 24 -100
56 -236 71 -302 23 -103 76 -311 157 -615 28 -107 36 -390 14 -517 -20 -118
-41 -171 -122 -318 -133 -240 -275 -419 -527 -665 -82 -80 -179 -185 -217
-235 -37 -49 -86 -105 -109 -123 -56 -45 -68 -74 -77 -174 -6 -84 -6 -88 36
-197 23 -61 60 -182 82 -269 l41 -157 9 -530 c4 -291 12 -579 16 -640 4 -60 4
-213 0 -340 -4 -126 -12 -439 -18 -695 -6 -256 -16 -638 -23 -850 -15 -478
-14 -2872 2 -3350 6 -184 17 -433 25 -555 8 -121 20 -305 26 -410 6 -104 15
-231 20 -282 6 -50 10 -128 10 -173 0 -55 8 -114 26 -182 37 -142 30 -195 -37
-275 -27 -32 -61 -76 -76 -98 -16 -21 -50 -60 -77 -85 -27 -25 -86 -79 -130
-120 -92 -86 -207 -146 -339 -179 -84 -21 -103 -31 -113 -64 -7 -23 -54 -71
-79 -81 -18 -7 -55 -88 -55 -122 0 -14 -5 -22 -12 -19 -32 12 -74 -13 -110
-66 -43 -61 -46 -84 -19 -137 10 -20 25 -50 32 -67 16 -32 50 -45 90 -34 15 4
31 3 37 -3 6 -6 31 -11 56 -13 51 -3 52 -5 25 -57 -10 -21 -19 -45 -19 -56 0
-12 -11 -21 -32 -27 -45 -14 -67 -54 -51 -95 10 -27 9 -30 -8 -30 -33 0 -51
-42 -44 -102 6 -49 5 -54 -17 -63 -32 -14 -45 -57 -30 -98 l12 -32 -29 34
c-24 29 -34 34 -71 34 -57 0 -80 -27 -80 -92 0 -50 38 -121 65 -121 12 0 13
-4 3 -19 -11 -18 -37 -28 -98 -38 -32 -5 -60 -38 -60 -71 0 -25 0 -25 -20 -7
-15 13 -36 19 -76 19 -47 0 -60 -4 -75 -23 -23 -28 -24 -60 -4 -87 18 -23 20
-64 2 -64 -19 0 -97 -76 -97 -95 0 -14 -3 -14 -18 5 -25 30 -89 31 -114 1 -20
-25 -39 -30 -192 -46 -21 -3 -46 -11 -56 -20 -12 -11 -19 -12 -27 -4 -6 6 -28
11 -49 11 -51 0 -77 -31 -72 -87 l3 -41 -51 0 c-29 0 -59 -5 -67 -12 -15 -13
-57 -130 -57 -159 0 -11 600 -13 3545 -13 l3545 0 0 10490 0 10490 -7500 0
-7500 0 0 -10490z m4554 -9602 c21 0 45 7 56 17 18 16 18 16 13 -4 -3 -12 -13
-21 -22 -21 -9 0 -31 -16 -49 -35 -45 -45 -67 -34 -67 34 0 44 1 46 15 28 11
-13 28 -19 54 -19z m106 -363 c7 -8 22 -15 34 -16 18 -1 18 -2 -4 -8 -15 -4
-31 -20 -40 -38 -8 -18 -19 -33 -23 -33 -4 0 -22 -10 -38 -22 -35 -26 -59 -66
-59 -99 0 -22 0 -22 -21 -3 -16 15 -36 19 -95 19 -60 0 -74 3 -74 15 0 9 -6
25 -14 36 -13 18 -12 20 12 22 33 2 62 35 62 69 l0 25 18 -22 c28 -35 89 -31
124 9 15 17 34 31 42 31 20 0 46 39 47 70 1 22 2 21 9 -7 4 -18 13 -40 20 -48z
m-6 -397 c-4 -6 -11 -25 -15 -42 -5 -25 -7 -26 -8 -8 -1 23 15 62 25 62 3 0 2
-5 -2 -12z"/>
<path d="M9450 14201 c-30 -8 -38 -24 -86 -171 -20 -63 -53 -142 -73 -175 -35
-58 -36 -63 -39 -180 -2 -66 1 -152 6 -191 11 -75 2 -203 -19 -285 -11 -42
-10 -57 4 -102 9 -30 17 -65 17 -78 0 -13 9 -48 20 -77 11 -29 20 -61 20 -72
0 -37 50 -144 83 -178 17 -19 50 -45 73 -58 22 -13 47 -36 54 -50 8 -14 28
-37 45 -51 16 -14 46 -55 65 -91 26 -49 42 -68 61 -73 42 -11 78 1 100 32 11
16 58 132 104 257 45 125 92 249 104 275 31 73 28 136 -15 237 -46 110 -206
516 -289 735 -92 241 -153 318 -235 296z"/>
<path d="M7595 7222 c-11 -2 -28 -11 -38 -20 -18 -16 -22 -30 -57 -192 -12
-58 -40 -168 -62 -245 -21 -77 -38 -149 -36 -160 1 -11 -4 -31 -11 -44 -7 -13
-11 -39 -8 -60 3 -20 7 -76 10 -126 2 -49 9 -124 15 -165 19 -130 51 -382 58
-450 3 -36 12 -110 19 -165 52 -375 85 -835 85 -1193 0 -123 4 -231 9 -240 6
-11 4 -31 -5 -57 -18 -51 -18 -76 0 -100 10 -14 11 -25 5 -37 -14 -26 -4 -153
13 -180 22 -34 31 -76 30 -143 -1 -62 16 -105 42 -105 22 0 30 -62 20 -160 -5
-45 -2 -60 13 -79 26 -32 90 -32 115 -1 20 24 25 99 9 129 -7 12 -5 31 3 57 9
26 14 107 15 239 2 214 22 517 46 705 21 169 29 517 16 705 -6 88 -15 225 -21
305 -5 80 -14 160 -19 177 -5 18 -19 124 -31 235 -23 225 -45 416 -66 583 -7
61 -20 209 -29 330 -17 238 -39 398 -60 431 -14 22 -46 33 -80 26z"/>
<path d="M5093 752 c-28 -4 -73 -57 -73 -85 0 -12 10 -40 23 -61 36 -64 104
-67 144 -7 29 43 29 69 1 111 -23 34 -55 48 -95 42z"/>
<path d="M5343 533 c-13 -2 -30 -14 -38 -26 -56 -80 68 -167 132 -92 55 63 -3
136 -94 118z"/>
<path d="M6063 92 c-27 -4 -53 -38 -53 -69 0 -22 3 -23 95 -23 86 0 95 2 95
19 0 43 -75 83 -137 73z"/>
</g>
</svg>
