<?xml version="1.0" standalone="no"?>
<!DOCTYPE svg PUBLIC "-//W3C//DTD SVG 20010904//EN"
 "http://www.w3.org/TR/2001/REC-SVG-20010904/DTD/svg10.dtd">
<svg version="1.0" xmlns="http://www.w3.org/2000/svg"
 width="480.000000pt" height="672.000000pt" viewBox="0 0 480.000000 672.000000"
 preserveAspectRatio="xMidYMid meet">
<metadata>
Created by potrace 1.16, written by Peter Selinger 2001-2019
</metadata>
<g transform="translate(0.000000,672.000000) scale(0.100000,-0.100000)"
fill="none" stroke="grey" stroke-width="2">
<path d="M0 3360 l0 -3360 2400 0 2400 0 0 3360 0 3360 -2400 0 -2400 0 0
-3360z m2555 3030 c51 -8 65 -15 95 -48 90 -100 120 -214 129 -487 6 -178 9
-204 27 -235 14 -24 19 -47 16 -70 -6 -54 18 -74 138 -113 58 -19 121 -38 140
-42 56 -11 76 -30 130 -121 68 -115 97 -218 106 -375 5 -98 11 -132 27 -162
20 -36 20 -39 4 -66 -9 -16 -17 -43 -17 -60 0 -16 -5 -41 -11 -55 -9 -19 -7
-45 10 -123 11 -54 21 -117 21 -138 1 -22 8 -71 16 -110 14 -61 36 -542 35
-740 -1 -27 6 -101 15 -164 14 -104 14 -119 -2 -180 -30 -120 -39 -135 -110
-176 -36 -21 -69 -46 -75 -56 -5 -10 -9 -44 -9 -76 0 -32 -7 -120 -15 -196 -8
-76 -17 -222 -21 -325 -6 -202 6 -317 81 -769 l7 -43 -63 2 c-72 2 -131 -20
-156 -59 -22 -33 -82 -354 -95 -511 -10 -117 -10 -139 5 -190 10 -31 23 -75
29 -97 12 -42 63 -130 111 -192 23 -31 27 -45 27 -103 0 -63 -2 -70 -29 -93
-58 -49 -172 -40 -262 20 -30 20 -39 33 -45 66 -5 32 -20 55 -65 102 l-58 60
-121 -3 c-108 -2 -126 0 -155 18 -27 17 -34 29 -44 80 -13 65 -5 93 46 154 13
16 44 70 68 121 42 86 45 99 45 172 0 62 -8 106 -39 212 -22 74 -48 143 -58
153 -22 21 -39 22 -153 10 -47 -5 -98 -7 -115 -6 -16 2 -69 6 -117 9 -48 4
-91 12 -96 18 -19 24 -21 99 -12 387 12 356 -12 1027 -37 1068 -8 12 -39 34
-69 49 -43 20 -60 35 -76 67 -11 23 -29 51 -40 63 -18 20 -19 27 -9 110 13
111 7 384 -14 618 -13 143 -14 199 -6 277 6 55 11 135 11 178 0 44 5 100 12
124 10 38 9 48 -5 70 -10 14 -23 26 -29 26 -22 0 -48 32 -39 49 18 33 25 110
22 236 -4 190 44 425 105 517 25 38 90 75 254 142 188 77 216 116 145 195 -33
37 -35 42 -35 114 0 42 9 121 20 177 11 56 20 114 20 128 0 41 35 165 61 219
31 66 114 146 169 166 54 19 77 20 155 7z"/>
</g>
</svg>
