<?xml version="1.0" standalone="no"?>
<!DOCTYPE svg PUBLIC "-//W3C//DTD SVG 20010904//EN"
 "http://www.w3.org/TR/2001/REC-SVG-20010904/DTD/svg10.dtd">
<svg version="1.0" xmlns="http://www.w3.org/2000/svg"
 width="480.000000pt" height="672.000000pt" viewBox="0 0 480.000000 672.000000"
 preserveAspectRatio="xMidYMid meet">
<metadata>
Created by potrace 1.16, written by Peter Selinger 2001-2019
</metadata>
<g transform="translate(0.000000,672.000000) scale(0.100000,-0.100000)"
fill="none" stroke="grey" stroke-width="2">
<path d="M0 3360 l0 -3360 2400 0 2400 0 0 3360 0 3360 -2400 0 -2400 0 0
-3360z m2389 2999 c71 -39 118 -111 145 -219 9 -36 25 -77 36 -92 15 -20 20
-43 20 -89 l0 -62 -55 -53 c-54 -53 -55 -54 -55 -113 0 -80 34 -156 96 -209
26 -23 53 -42 61 -42 8 0 27 -6 41 -14 36 -19 111 -52 140 -60 12 -4 22 -13
22 -21 0 -7 8 -23 19 -36 25 -32 115 -33 140 -2 34 42 89 -13 148 -148 56
-129 64 -196 87 -729 2 -41 9 -145 15 -231 13 -166 4 -324 -35 -599 -10 -67
-17 -194 -19 -305 -2 -258 -17 -296 -177 -440 -56 -51 -80 -80 -86 -105 -31
-119 -92 -392 -97 -430 -6 -53 10 -302 29 -428 9 -67 11 -201 5 -584 -3 -273
-10 -501 -13 -507 -4 -6 -16 -11 -27 -11 -30 0 -69 -44 -69 -79 0 -69 67 -181
166 -279 19 -18 34 -43 34 -55 0 -13 6 -31 14 -42 21 -31 28 -108 11 -132 -34
-49 -261 -75 -337 -39 -25 12 -43 31 -56 60 -44 92 -176 135 -427 139 -140 3
-185 21 -197 81 -7 33 -4 46 15 75 12 20 27 45 33 56 6 11 33 33 60 49 202
118 269 280 130 315 -25 6 -57 11 -73 11 -15 0 -46 6 -67 14 -27 9 -49 11 -71
5 -62 -17 -226 -36 -231 -27 -8 12 -6 1096 1 1303 4 88 2 300 -4 470 l-9 310
-45 179 c-25 98 -52 185 -60 193 -8 8 -32 15 -53 15 -69 0 -103 -66 -69 -133
12 -22 15 -56 14 -132 -2 -96 11 -249 26 -309 18 -70 -20 -69 -119 4 -55 41
-65 54 -76 95 -7 26 -19 61 -27 76 -13 25 -12 44 6 155 11 70 22 161 25 202 3
41 15 117 26 168 11 51 31 177 46 279 16 115 38 223 56 282 65 206 76 250 87
362 6 63 11 185 11 270 0 123 4 172 20 235 24 91 67 169 95 170 11 1 30 2 43
3 14 0 33 16 50 40 18 27 49 50 98 75 51 26 92 58 152 120 72 73 82 88 82 119
0 29 -9 47 -45 87 -26 30 -48 67 -55 92 -25 97 -51 161 -79 197 -17 22 -31 41
-31 44 0 4 11 17 23 29 20 20 25 38 30 106 12 154 92 259 222 293 51 14 140 3
184 -22z"/>
</g>
</svg>
