<?xml version="1.0" standalone="no"?>
<!DOCTYPE svg PUBLIC "-//W3C//DTD SVG 20010904//EN"
 "http://www.w3.org/TR/2001/REC-SVG-20010904/DTD/svg10.dtd">
<svg version="1.0" xmlns="http://www.w3.org/2000/svg"
 width="640.000000pt" height="895.000000pt" viewBox="0 0 640.000000 895.000000"
 preserveAspectRatio="xMidYMid meet">
<metadata>
Created by potrace 1.16, written by Peter Selinger 2001-2019
</metadata>
<g transform="translate(0.000000,895.000000) scale(0.100000,-0.100000)"
fill="none" stroke="grey" stroke-width="2">
<path d="M0 4475 l0 -4475 3200 0 3200 0 0 4475 0 4475 -3200 0 -3200 0 0
-4475z m3398 4214 c44 2 110 -29 149 -70 18 -19 54 -71 81 -116 90 -150 116
-307 78 -475 -21 -91 -18 -162 12 -272 12 -44 22 -84 22 -90 0 -11 -47 -27
-157 -56 -56 -14 -83 -50 -83 -109 1 -59 14 -82 81 -136 47 -39 110 -73 402
-216 63 -31 138 -106 161 -161 8 -18 24 -82 37 -143 21 -98 23 -137 23 -355 0
-135 -2 -326 -4 -425 -5 -177 -4 -182 27 -305 47 -182 63 -353 73 -795 5 -214
14 -415 19 -445 5 -30 13 -118 16 -195 4 -77 10 -184 15 -237 l8 -97 -57 -112
-57 -112 -65 -23 c-97 -36 -109 -55 -109 -169 0 -55 6 -112 14 -137 29 -87 39
-395 32 -937 -4 -284 -9 -547 -11 -586 -2 -38 0 -95 4 -126 9 -65 -1 -102 -40
-147 -16 -18 -29 -44 -29 -57 0 -29 -27 -49 -93 -69 -41 -12 -55 -12 -103 1
-31 8 -62 12 -68 10 -6 -3 -40 1 -76 9 -75 16 -144 8 -261 -29 -160 -51 -169
-65 -169 -249 1 -157 30 -253 101 -336 39 -44 70 -106 86 -172 12 -51 11 -59
-9 -106 -22 -49 -24 -51 -93 -72 -38 -13 -122 -29 -185 -37 -168 -20 -243 -35
-260 -49 -28 -23 -87 -54 -118 -61 -16 -3 -38 -15 -48 -27 -29 -32 -130 -98
-175 -114 -118 -41 -299 5 -331 85 -15 39 -11 166 7 201 8 16 59 76 113 134
64 68 111 129 135 174 34 63 37 77 37 149 0 89 -13 118 -60 128 -23 5 -34 17
-50 51 -17 39 -28 49 -82 74 -35 16 -79 43 -98 60 l-35 31 2 177 c1 97 3 195
4 217 1 22 2 153 2 290 0 138 0 345 1 460 0 350 -1 505 -5 615 -12 325 2 630
42 930 7 47 13 137 15 200 1 63 5 158 9 210 7 88 5 97 -15 123 -12 15 -29 27
-39 27 -9 0 -26 7 -37 15 -10 8 -26 15 -35 15 -8 0 -35 16 -58 36 -34 29 -51
37 -83 37 -58 0 -78 -27 -78 -104 0 -50 7 -71 45 -144 51 -96 65 -147 69 -261
2 -43 7 -120 11 -170 7 -77 5 -94 -9 -117 -13 -18 -16 -42 -14 -86 1 -33 0
-63 -4 -66 -3 -4 -32 7 -65 24 -32 16 -78 35 -103 42 -26 8 -58 27 -77 47 -33
35 -73 107 -73 133 0 9 -8 47 -19 87 -10 39 -17 73 -14 75 11 12 34 271 28
332 -3 39 -1 95 5 125 23 126 30 197 39 435 11 268 24 365 72 527 16 57 34
139 39 182 5 44 23 120 39 170 28 85 64 314 87 561 19 203 112 484 216 653
l20 33 19 -30 c38 -63 139 -34 139 39 0 34 -33 78 -63 82 -18 3 -14 6 18 17
22 7 50 23 63 35 20 18 37 21 110 22 87 1 140 14 226 55 22 11 45 19 52 19 6
0 26 13 43 29 36 33 40 68 12 102 -13 17 -17 33 -13 65 3 27 -2 58 -11 83 -20
49 -10 154 28 306 14 55 25 118 25 140 1 55 42 193 80 263 87 164 252 282 370
266 25 -3 60 -5 78 -5z"/>
</g>
</svg>
