<?xml version="1.0" standalone="no"?>
<!DOCTYPE svg PUBLIC "-//W3C//DTD SVG 20010904//EN"
 "http://www.w3.org/TR/2001/REC-SVG-20010904/DTD/svg10.dtd">
<svg version="1.0" xmlns="http://www.w3.org/2000/svg"
 width="480.000000pt" height="672.000000pt" viewBox="0 0 480.000000 672.000000"
 preserveAspectRatio="xMidYMid meet">
<metadata>
Created by potrace 1.16, written by Peter Selinger 2001-2019
</metadata>
<g transform="translate(0.000000,672.000000) scale(0.100000,-0.100000)"
fill="none" stroke="grey" stroke-width="2">
<path d="M0 3360 l0 -3360 2400 0 2400 0 0 3360 0 3360 -2400 0 -2400 0 0
-3360z m2440 3095 c44 -23 107 -102 130 -162 50 -134 86 -500 60 -609 -12 -51
-12 -57 6 -81 23 -30 48 -39 150 -52 123 -15 205 -47 279 -107 63 -53 65 -56
65 -100 0 -26 15 -90 34 -147 55 -162 68 -241 77 -482 10 -263 23 -417 40
-465 9 -24 14 -125 16 -320 1 -157 5 -377 9 -490 8 -244 8 -234 -1 -290 -10
-68 -33 -120 -71 -162 -21 -24 -34 -48 -34 -66 0 -15 11 -110 24 -212 14 -102
30 -248 35 -325 6 -77 15 -187 21 -245 10 -115 11 -455 1 -620 l-6 -104 -45
-9 c-50 -9 -80 -37 -80 -73 0 -28 -12 -31 -128 -37 -67 -3 -87 -8 -104 -24
-27 -28 -99 -373 -101 -488 -1 -73 2 -88 38 -170 35 -79 51 -101 133 -184 50
-51 92 -101 92 -111 0 -9 13 -37 30 -61 49 -72 41 -89 -51 -109 -117 -26 -254
11 -322 86 -45 49 -116 81 -200 89 -29 3 -59 8 -69 11 -9 2 -51 -4 -94 -16
-79 -20 -150 -20 -221 2 l-33 10 0 80 0 81 48 52 c71 80 117 144 142 203 35
80 25 191 -34 402 -25 90 -52 171 -60 178 -9 9 -44 17 -88 20 -40 2 -85 11
-99 18 -28 14 -38 15 -246 39 -155 18 -163 20 -163 50 0 13 -8 33 -19 46 -16
20 -26 22 -91 21 -93 -3 -112 3 -105 31 3 12 12 110 20 217 20 251 69 640 106
844 37 204 37 211 -4 250 -20 19 -38 49 -46 76 -6 25 -19 62 -28 82 -14 34
-14 42 5 115 40 155 58 325 67 634 6 239 34 462 71 567 27 75 28 84 35 396 6
215 5 325 -2 338 -8 15 -5 28 13 56 14 20 34 57 46 82 36 76 115 135 247 185
28 10 64 27 80 37 17 10 38 18 48 18 26 0 67 45 67 73 0 34 -30 67 -63 69 -43
4 -62 40 -77 151 -21 158 10 407 65 533 53 119 160 192 287 193 43 0 81 -5 98
-14z"/>
</g>
</svg>
