<?xml version="1.0" standalone="no"?>
<!DOCTYPE svg PUBLIC "-//W3C//DTD SVG 20010904//EN"
 "http://www.w3.org/TR/2001/REC-SVG-20010904/DTD/svg10.dtd">
<svg version="1.0" xmlns="http://www.w3.org/2000/svg"
 width="640.000000pt" height="895.000000pt" viewBox="0 0 640.000000 895.000000"
 preserveAspectRatio="xMidYMid meet">
<metadata>
Created by potrace 1.16, written by Peter Selinger 2001-2019
</metadata>
<g transform="translate(0.000000,895.000000) scale(0.100000,-0.100000)"
fill="none" stroke="grey" stroke-width="2">
<path d="M0 4475 l0 -4475 3200 0 3200 0 0 4475 0 4475 -3200 0 -3200 0 0
-4475z m3234 4082 c77 -18 106 -40 166 -127 46 -67 74 -144 99 -275 30 -150
43 -277 40 -405 -4 -193 -2 -203 31 -245 l29 -37 -20 -28 c-17 -22 -20 -36
-14 -69 9 -55 33 -82 73 -83 31 -1 49 5 116 38 25 13 31 13 47 -2 18 -16 78
-22 99 -9 6 4 20 -1 31 -11 18 -17 45 -29 127 -57 17 -7 32 -15 32 -19 0 -4
27 -67 59 -141 104 -233 165 -453 181 -650 5 -67 15 -183 21 -257 6 -74 20
-177 30 -229 10 -51 19 -121 19 -155 0 -33 11 -106 25 -161 36 -149 45 -251
45 -550 0 -148 5 -304 11 -345 6 -41 10 -105 9 -141 0 -61 33 -290 46 -310 11
-19 -19 -195 -45 -262 -22 -57 -36 -77 -86 -119 -100 -85 -95 -73 -95 -221 0
-72 -4 -181 -9 -241 -18 -201 -34 -509 -34 -621 0 -61 9 -175 21 -255 24 -157
43 -348 67 -670 27 -356 33 -409 55 -457 13 -30 18 -54 13 -67 -5 -12 -8 -46
-8 -76 0 -54 -1 -55 -40 -75 -57 -29 -266 -29 -310 -1 -43 29 -103 25 -132 -8
-21 -25 -23 -37 -23 -130 l0 -102 71 -140 c56 -111 83 -152 132 -202 34 -35
74 -71 90 -80 48 -29 75 -80 82 -157 7 -69 7 -70 -28 -110 -34 -39 -35 -40
-116 -43 -68 -4 -96 0 -164 22 -130 42 -147 53 -169 114 -22 58 -63 96 -118
107 -19 4 -46 14 -60 23 -32 20 -106 19 -220 -4 -103 -21 -169 -11 -241 35
-47 29 -60 49 -79 121 -6 25 -17 56 -24 70 -15 31 -4 62 27 75 14 7 29 33 45
75 13 36 32 81 43 101 10 20 19 54 19 75 0 22 7 48 15 58 23 31 21 211 -4 268
-23 54 -33 62 -97 77 -64 15 -107 5 -184 -44 -46 -30 -63 -35 -113 -35 -33 0
-87 7 -121 16 -37 10 -81 14 -111 11 -27 -3 -76 0 -108 6 l-59 11 8 31 c12 51
6 735 -7 791 -9 35 -13 244 -14 751 -2 790 2 743 -77 763 -24 6 -50 15 -58 20
-8 6 -27 15 -41 21 -31 12 -43 35 -76 149 -17 56 -24 102 -22 135 2 28 3 109
2 180 -1 72 -3 177 -3 235 -1 103 -22 348 -41 485 -12 89 -12 336 0 440 5 44
7 107 4 141 -4 44 1 89 18 165 23 98 24 119 21 384 -3 336 9 508 49 665 16 63
29 125 29 138 0 29 28 72 47 72 29 0 84 42 101 78 15 31 24 37 72 48 58 14 85
11 111 -12 37 -32 146 -19 178 22 10 13 24 53 31 89 11 57 10 68 -4 90 -9 14
-23 25 -31 25 -8 0 -15 6 -15 14 0 29 -50 123 -89 168 l-41 46 0 85 c0 83 1
85 45 153 50 75 80 160 72 202 -7 39 48 247 85 320 73 146 236 259 358 248 19
-2 66 -11 104 -19z"/>
</g>
</svg>
