<?xml version="1.0" standalone="no"?>
<!DOCTYPE svg PUBLIC "-//W3C//DTD SVG 20010904//EN"
 "http://www.w3.org/TR/2001/REC-SVG-20010904/DTD/svg10.dtd">
<svg version="1.0" xmlns="http://www.w3.org/2000/svg"
 width="480.000000pt" height="672.000000pt" viewBox="0 0 480.000000 672.000000"
 preserveAspectRatio="xMidYMid meet">
<metadata>
Created by potrace 1.16, written by Peter Selinger 2001-2019
</metadata>
<g transform="translate(0.000000,672.000000) scale(0.100000,-0.100000)"
fill="none" stroke="grey" stroke-width="2">
<path d="M0 3360 l0 -3360 2400 0 2400 0 0 3360 0 3360 -2400 0 -2400 0 0
-3360z m2356 3038 c59 -16 114 -63 159 -138 61 -101 164 -443 165 -547 0 -33
-5 -46 -25 -61 -14 -11 -73 -70 -130 -131 -115 -121 -124 -144 -84 -195 28
-36 3 -34 -36 3 -49 48 -116 47 -146 -3 -11 -19 -35 -41 -54 -50 -19 -9 -37
-21 -40 -26 -3 -6 -11 -10 -18 -10 -6 0 3 15 19 33 89 94 93 122 32 181 -24
23 -51 53 -60 68 -21 32 -47 37 -115 22 l-52 -12 -10 32 c-33 97 -39 300 -17
497 17 149 39 208 100 268 68 67 205 97 312 69z m787 -1147 c15 -35 40 -119
56 -185 29 -117 30 -131 35 -441 4 -219 11 -352 22 -420 17 -107 15 -185 -10
-450 -14 -146 -13 -480 1 -528 8 -26 2 -125 -13 -197 -4 -19 -23 -53 -44 -76
-72 -78 -73 -83 -65 -194 7 -110 2 -140 -24 -140 -10 0 -24 -7 -31 -15 -11
-14 -15 -12 -31 14 -15 24 -16 34 -6 62 7 19 20 45 30 59 24 35 22 86 -5 113
-21 21 -23 31 -20 102 2 52 -2 99 -13 135 -9 30 -20 111 -25 180 -19 257 -25
277 -90 282 -42 4 -54 30 -31 70 19 32 6 78 -25 92 -17 8 -24 32 -46 174 -19
114 -33 174 -46 191 -36 48 -109 47 -146 -2 -19 -26 -19 -29 -3 -123 10 -53
16 -99 13 -101 -5 -5 -24 79 -31 142 -3 28 -19 77 -35 110 -16 33 -34 75 -41
94 -13 35 -80 91 -110 91 -15 0 -18 15 -23 118 -3 64 -8 158 -11 207 l-6 90
21 -32 c17 -29 39 -39 73 -34 4 0 7 -4 7 -9 0 -6 -9 -10 -20 -10 -25 0 -60
-54 -60 -91 0 -49 34 -73 98 -70 31 1 63 56 60 101 -2 28 1 35 19 40 20 4 103
92 103 109 0 3 21 7 47 7 32 1 52 8 63 20 9 11 25 24 35 30 33 19 54 56 91
164 24 68 45 111 60 123 14 10 30 41 39 71 14 47 58 167 88 236 10 25 10 25
17 -10 4 -19 19 -64 33 -99z m-637 21 c-4 -3 -14 2 -24 12 -16 18 -16 18 6 6
13 -6 21 -14 18 -18z m-756 -257 c45 -138 67 -295 54 -388 -3 -26 -3 -84 1
-128 8 -89 33 -139 75 -149 l25 -6 -23 -8 c-32 -11 -48 -41 -63 -118 -11 -59
-11 -69 5 -92 17 -26 28 -29 101 -28 l40 1 -33 -10 c-18 -5 -40 -22 -50 -37
-14 -22 -25 -27 -60 -29 -24 -1 -50 -7 -58 -14 -18 -15 -69 -176 -95 -304 -24
-117 -22 -206 10 -331 28 -108 51 -295 52 -407 0 -81 -2 -94 -20 -108 -20 -16
-24 -16 -74 3 -28 11 -64 24 -79 29 -28 11 -58 62 -58 99 0 11 -7 35 -16 51
-14 28 -14 43 0 157 8 70 15 152 15 182 0 216 21 656 35 730 9 47 16 101 16
121 0 20 12 72 26 115 23 69 27 104 34 284 9 220 27 361 62 479 16 56 24 69
29 55 4 -10 26 -77 49 -149z m366 -698 c22 -1 36 -10 47 -29 19 -33 14 -35
-20 -8 -14 11 -34 20 -44 20 -10 0 -25 10 -33 22 -22 31 -20 45 2 19 9 -12 31
-23 48 -24z m104 -67 c0 -5 -2 -10 -4 -10 -3 0 -8 5 -11 10 -3 6 -1 10 4 10 6
0 11 -4 11 -10z m28 -98 c2 -7 -5 -12 -16 -12 -10 0 -26 -8 -35 -18 -12 -13
-26 -17 -47 -14 -45 7 -43 17 3 19 29 1 46 8 57 22 16 21 31 23 38 3z m-251
-48 c-3 -3 -12 -4 -19 -1 -8 3 -5 6 6 6 11 1 17 -2 13 -5z m640 -316 c-3 -7
-5 -2 -5 12 0 14 2 19 5 13 2 -7 2 -19 0 -25z m45 -151 c21 -158 28 -237 26
-302 l-2 -70 -3 60 c-1 33 -9 110 -17 170 -21 153 -27 219 -19 211 4 -3 10
-34 15 -69z m-605 -554 c-3 -10 -5 -2 -5 17 0 19 2 27 5 18 2 -10 2 -26 0 -35z
m608 -40 c-4 -30 -9 -53 -11 -50 -3 3 -2 33 2 68 4 35 9 58 12 51 2 -7 1 -38
-3 -69z m-34 -175 c-9 -31 -9 -31 -10 -6 -1 30 11 67 16 51 2 -6 0 -26 -6 -45z
m-26 -186 c-11 -60 -17 -25 -9 50 8 66 9 69 12 28 2 -24 1 -60 -3 -78z m-46
-299 c-8 -10 -30 -38 -51 -63 -20 -25 -43 -60 -51 -79 l-14 -33 -6 38 c-8 47
-3 55 64 109 55 46 82 59 58 28z m376 -63 c13 -11 52 -14 99 -8 31 4 44 -59
45 -202 0 -230 -23 -430 -51 -430 -4 0 -8 15 -8 33 0 18 -6 41 -13 52 -13 19
-37 237 -37 331 0 57 -25 86 -73 86 -21 0 -44 -5 -51 -11 -11 -9 -14 3 -19 61
-4 40 -8 82 -9 92 -2 14 4 20 27 23 17 2 37 12 45 22 14 18 15 17 22 -9 5 -15
15 -33 23 -40z m-359 -1271 c10 -8 52 -15 111 -17 l95 -4 -5 -32 c-3 -17 -11
-71 -18 -121 l-11 -90 37 -113 c32 -101 43 -121 96 -183 33 -38 64 -69 68 -69
12 0 31 -47 31 -77 0 -14 5 -43 12 -65 16 -54 1 -65 -101 -80 -73 -11 -88 -10
-134 6 -82 29 -115 54 -140 104 -16 34 -34 54 -65 71 -48 26 -86 28 -283 16
-97 -6 -120 -5 -147 9 -35 18 -52 70 -33 104 6 12 11 32 11 47 0 14 29 79 64
143 l65 118 5 108 c3 60 8 111 11 114 5 5 157 7 220 3 43 -3 74 22 76 63 1 15
3 13 10 -10 5 -17 16 -37 25 -45z"/>
</g>
</svg>
