<?xml version="1.0" standalone="no"?>
<!DOCTYPE svg PUBLIC "-//W3C//DTD SVG 20010904//EN"
 "http://www.w3.org/TR/2001/REC-SVG-20010904/DTD/svg10.dtd">
<svg version="1.0" xmlns="http://www.w3.org/2000/svg"
 width="480.000000pt" height="672.000000pt" viewBox="0 0 480.000000 672.000000"
 preserveAspectRatio="xMidYMid meet">
<metadata>
Created by potrace 1.16, written by Peter Selinger 2001-2019
</metadata>
<g transform="translate(0.000000,672.000000) scale(0.100000,-0.100000)"
fill="none" stroke="grey" stroke-width="2">
<path d="M0 3360 l0 -3360 2400 0 2400 0 0 3360 0 3360 -2400 0 -2400 0 0
-3360z m2345 3020 c61 -38 107 -114 148 -245 26 -86 39 -223 42 -456 1 -98 5
-132 17 -151 17 -26 26 -29 161 -53 138 -25 206 -67 288 -177 l58 -78 -15 -35
c-18 -44 -17 -104 2 -180 9 -37 19 -145 24 -280 6 -135 15 -243 24 -280 9 -33
16 -85 16 -115 0 -30 8 -84 16 -120 14 -60 34 -528 33 -770 0 -41 5 -114 11
-162 8 -71 8 -92 -4 -120 -8 -18 -23 -55 -33 -81 -12 -32 -38 -68 -76 -105
-32 -32 -62 -64 -66 -72 -9 -17 3 -504 18 -740 6 -85 15 -249 21 -365 6 -115
20 -271 30 -345 21 -152 21 -154 -49 -166 -104 -18 -136 -30 -152 -60 -24 -40
-49 -223 -49 -350 0 -107 23 -226 55 -284 8 -14 27 -52 43 -85 16 -33 46 -74
66 -92 23 -20 36 -40 36 -56 0 -13 9 -36 20 -50 23 -29 26 -70 6 -86 -8 -7
-53 -19 -100 -28 -73 -14 -94 -15 -134 -5 -64 17 -117 54 -147 102 -14 22 -36
42 -49 46 -16 4 -27 17 -35 44 -14 47 -40 78 -66 81 -51 4 -66 -2 -86 -35 -29
-49 -70 -60 -187 -52 -138 11 -138 11 -146 95 -5 63 -3 77 18 119 13 26 29 73
36 105 6 32 23 83 37 114 24 52 25 61 18 163 -8 131 -62 335 -95 362 -11 9
-40 19 -63 23 -23 3 -87 12 -142 20 -55 8 -154 23 -221 32 l-120 18 -12 175
c-7 96 -19 236 -27 310 -10 93 -14 267 -14 559 l-1 424 -35 32 c-48 46 -80
162 -69 255 12 112 13 367 2 575 -9 170 -8 217 6 315 9 63 16 137 16 165 0 27
10 84 21 125 18 63 22 113 26 320 l6 246 -25 28 -24 29 36 96 c51 135 58 146
125 196 73 54 96 66 205 100 47 15 95 35 107 45 13 10 38 21 58 24 62 12 85
78 44 130 -11 14 -28 26 -38 26 -11 0 -25 15 -36 41 -17 37 -18 51 -7 182 6
78 12 172 12 209 0 171 74 306 190 350 66 25 184 24 225 -2z"/>
<path d="M2433 1263 c-63 -12 -72 -133 -22 -279 17 -49 36 -95 44 -102 22 -23
86 -17 108 9 17 21 18 36 12 169 -5 96 -12 152 -21 167 -11 18 -75 46 -94 42
-3 -1 -15 -4 -27 -6z"/>
</g>
</svg>
