<?xml version="1.0" standalone="no"?>
<!DOCTYPE svg PUBLIC "-//W3C//DTD SVG 20010904//EN"
 "http://www.w3.org/TR/2001/REC-SVG-20010904/DTD/svg10.dtd">
<svg version="1.0" xmlns="http://www.w3.org/2000/svg"
 width="640.000000pt" height="895.000000pt" viewBox="0 0 640.000000 895.000000"
 preserveAspectRatio="xMidYMid meet">
<metadata>
Created by potrace 1.16, written by Peter Selinger 2001-2019
</metadata>
<g transform="translate(0.000000,895.000000) scale(0.100000,-0.100000)"
fill="none" stroke="grey" stroke-width="2">
<path d="M0 4475 l0 -4475 3200 0 3200 0 0 4475 0 4475 -3200 0 -3200 0 0
-4475z m3218 4155 c24 1 55 -6 68 -14 13 -9 30 -16 38 -16 23 0 85 -73 112
-130 26 -55 61 -162 94 -285 19 -74 20 -87 9 -173 -9 -72 -9 -123 0 -226 l12
-133 -40 -40 c-64 -64 -48 -128 34 -137 39 -5 188 -41 270 -67 22 -7 56 -24
75 -38 19 -15 47 -32 62 -38 91 -40 226 -374 282 -700 27 -155 47 -432 47
-658 1 -619 -1 -659 -57 -944 -58 -294 -76 -612 -44 -763 9 -43 -27 -278 -49
-318 -7 -14 -34 -44 -60 -66 l-46 -41 -12 -199 c-6 -110 -17 -244 -24 -299 -7
-62 -11 -204 -10 -370 2 -275 -13 -507 -43 -660 -52 -260 -48 -454 14 -575 12
-25 33 -59 46 -77 l24 -31 -33 -19 c-17 -10 -63 -34 -101 -53 -37 -19 -74 -43
-82 -55 -23 -35 -57 -290 -50 -375 22 -253 19 -240 65 -330 41 -81 63 -110
156 -202 l40 -40 0 -86 c0 -95 -11 -120 -70 -160 -85 -57 -261 -76 -340 -37
-59 30 -105 96 -105 151 0 72 -46 141 -128 188 -23 14 -194 53 -282 66 -96 13
-163 39 -179 67 -5 11 -11 58 -12 105 -2 79 -1 87 27 128 23 35 36 44 64 47
21 2 44 13 58 29 13 13 37 27 52 31 35 7 129 101 159 161 24 47 28 136 10 239
-14 82 -31 101 -93 110 -34 4 -56 14 -70 30 -18 20 -32 24 -106 28 -47 3 -128
16 -180 31 -73 20 -122 26 -215 28 -67 2 -130 8 -142 14 -18 10 -20 16 -12 49
22 95 0 136 -72 134 -55 -1 -147 17 -155 31 -3 5 6 32 20 59 15 26 33 70 41
96 24 82 45 255 41 333 -2 41 -9 215 -16 385 -6 171 -14 374 -18 453 -9 181 3
862 17 1007 6 61 23 214 38 341 35 303 40 294 -168 294 -108 0 -141 9 -181 47
-41 40 -94 35 -191 -16 -124 -65 -175 -55 -216 42 -40 95 -33 231 20 362 16
39 36 116 45 175 21 144 33 166 119 211 57 30 80 50 122 106 89 118 94 123
113 123 25 0 58 44 66 89 9 49 38 96 97 158 48 49 52 52 100 51 63 -2 82 19
92 99 3 32 18 114 32 183 14 69 28 185 32 258 7 128 9 135 47 209 42 83 72
111 124 120 19 2 47 16 63 29 16 13 41 27 55 31 15 3 42 19 60 35 18 15 37 28
42 28 18 0 120 83 126 102 3 11 3 44 -1 74 -5 44 -14 63 -51 107 -25 28 -57
55 -71 59 -29 8 -110 -9 -119 -24 -8 -12 -54 67 -54 92 0 9 -9 46 -21 81 -17
53 -19 78 -14 144 7 84 43 256 75 362 48 158 160 300 285 360 65 32 75 34 135
28 36 -3 85 -5 108 -5z"/>
</g>
</svg>
