<?xml version="1.0" standalone="no"?>
<!DOCTYPE svg PUBLIC "-//W3C//DTD SVG 20010904//EN"
 "http://www.w3.org/TR/2001/REC-SVG-20010904/DTD/svg10.dtd">
<svg version="1.0" xmlns="http://www.w3.org/2000/svg"
 width="480.000000pt" height="672.000000pt" viewBox="0 0 480.000000 672.000000"
 preserveAspectRatio="xMidYMid meet">
<metadata>
Created by potrace 1.16, written by Peter Selinger 2001-2019
</metadata>
<g transform="translate(0.000000,672.000000) scale(0.100000,-0.100000)"
fill="none" stroke="grey" stroke-width="2">
<path d="M0 3360 l0 -3360 2400 0 2400 0 0 3360 0 3360 -2400 0 -2400 0 0
-3360z m2573 2950 c155 -58 231 -250 252 -642 6 -116 6 -118 -15 -118 -32 0
-80 -53 -80 -87 0 -38 20 -65 73 -98 37 -24 46 -36 60 -85 21 -70 44 -92 94
-92 28 0 43 7 60 27 13 14 23 32 23 40 0 10 12 7 45 -11 120 -68 145 -169 149
-608 2 -238 5 -302 19 -353 35 -126 48 -265 53 -538 3 -148 7 -285 10 -303 3
-18 19 -49 37 -68 l31 -36 -22 -62 c-24 -66 -28 -135 -11 -205 9 -39 6 -51
-28 -132 -35 -81 -43 -92 -91 -125 -77 -51 -80 -61 -54 -217 32 -190 52 -492
53 -797 0 -146 4 -286 8 -312 5 -31 4 -48 -2 -48 -6 0 -32 14 -59 31 -35 23
-61 32 -90 32 -58 0 -74 -23 -83 -118 -9 -99 -7 -98 -252 -136 -116 -17 -128
-42 -152 -314 -10 -115 -2 -167 36 -240 8 -16 25 -48 36 -70 11 -22 29 -52 39
-67 22 -31 25 -125 5 -152 -24 -33 -156 -45 -272 -25 -43 7 -73 7 -96 1 -82
-25 -140 -52 -190 -90 -115 -86 -205 -109 -318 -79 -58 16 -71 37 -47 78 12
21 17 42 13 65 -6 38 -6 38 112 164 33 36 76 95 96 131 31 60 35 75 35 145 0
81 -48 308 -74 349 -7 11 -18 40 -25 63 -9 31 -21 49 -42 60 -16 10 -31 26
-33 37 -22 118 -50 361 -57 490 -4 88 -15 218 -24 290 -10 89 -15 222 -15 420
0 247 -2 294 -16 313 -8 12 -21 22 -28 22 -23 0 -94 87 -104 127 -23 86 -23
166 -3 253 25 111 25 246 0 523 -16 181 -18 239 -9 343 5 69 15 134 21 146 7
13 10 78 7 187 -2 141 -6 171 -21 195 -14 21 -17 37 -12 67 6 36 2 46 -39 107
-25 37 -50 82 -55 100 -9 30 -7 36 26 70 19 20 76 100 126 177 50 77 103 149
116 160 19 15 42 20 89 21 65 2 104 21 172 84 15 14 38 26 51 28 38 5 57 36
64 107 6 51 3 77 -14 131 -26 82 -26 87 -1 249 26 169 41 225 82 292 38 63 79
92 157 109 82 18 124 16 184 -6z"/>
</g>
</svg>
