<?xml version="1.0" standalone="no"?>
<!DOCTYPE svg PUBLIC "-//W3C//DTD SVG 20010904//EN"
 "http://www.w3.org/TR/2001/REC-SVG-20010904/DTD/svg10.dtd">
<svg version="1.0" xmlns="http://www.w3.org/2000/svg"
 width="480.000000pt" height="672.000000pt" viewBox="0 0 480.000000 672.000000"
 preserveAspectRatio="xMidYMid meet">
<metadata>
Created by potrace 1.16, written by Peter Selinger 2001-2019
</metadata>
<g transform="translate(0.000000,672.000000) scale(0.100000,-0.100000)"
fill="none" stroke="grey" stroke-width="2">
<path d="M0 3360 l0 -3360 2400 0 2400 0 0 3360 0 3360 -2400 0 -2400 0 0
-3360z m2492 3027 c39 -21 84 -71 111 -123 19 -37 51 -203 72 -379 21 -169 50
-310 73 -349 15 -27 28 -34 99 -51 45 -11 88 -26 95 -32 6 -7 17 -13 24 -13
55 0 197 -249 229 -404 17 -79 17 -103 7 -264 -14 -212 -15 -458 -1 -527 9
-42 30 -599 29 -746 0 -31 10 -69 33 -120 50 -108 50 -112 13 -219 -26 -76
-37 -96 -54 -98 -11 -2 -26 -10 -32 -18 -7 -8 -19 -14 -26 -14 -7 0 -21 -11
-30 -25 -15 -23 -15 -34 0 -137 8 -62 17 -126 20 -143 2 -16 9 -55 15 -85 23
-119 40 -367 41 -605 1 -137 6 -414 12 -615 7 -259 7 -432 -1 -595 -10 -221
-10 -233 10 -295 11 -36 20 -86 20 -112 -1 -26 6 -81 14 -122 14 -70 14 -78
-1 -101 -20 -30 -13 -30 -99 -5 -118 34 -172 40 -398 44 -218 5 -218 5 -253
31 -26 20 -45 26 -72 25 -73 -4 -110 0 -157 15 -53 18 -48 18 -166 10 l-87 -5
-55 45 c-37 30 -67 46 -89 47 -41 4 -45 12 -70 148 -16 90 -20 182 -28 635 -5
292 -14 625 -20 740 -6 116 -13 300 -14 410 -6 350 -17 548 -32 572 -8 13 -29
25 -48 29 -27 5 -43 18 -74 62 -68 98 -83 136 -93 240 -5 54 -14 120 -20 147
-8 37 -8 70 0 121 6 38 15 171 21 294 6 124 17 268 25 320 50 322 49 298 35
560 -12 241 -12 247 10 340 26 108 68 222 105 280 32 51 109 101 207 135 42
15 84 35 93 45 24 27 32 71 55 300 33 330 65 479 121 548 26 33 89 73 129 83
45 12 163 -2 202 -24z"/>
</g>
</svg>
