<?xml version="1.0" standalone="no"?>
<!DOCTYPE svg PUBLIC "-//W3C//DTD SVG 20010904//EN"
 "http://www.w3.org/TR/2001/REC-SVG-20010904/DTD/svg10.dtd">
<svg version="1.0" xmlns="http://www.w3.org/2000/svg"
 width="480.000000pt" height="672.000000pt" viewBox="0 0 480.000000 672.000000"
 preserveAspectRatio="xMidYMid meet">
<metadata>
Created by potrace 1.16, written by Peter Selinger 2001-2019
</metadata>
<g transform="translate(0.000000,672.000000) scale(0.100000,-0.100000)"
fill="none" stroke="grey" stroke-width="2">
<path d="M0 3360 l0 -3360 2400 0 2400 0 0 3360 0 3360 -2400 0 -2400 0 0
-3360z m2504 3066 c38 -16 98 -81 127 -137 45 -90 52 -121 59 -299 5 -96 15
-213 24 -259 l15 -84 -25 -29 c-30 -36 -30 -55 -2 -110 28 -57 47 -78 70 -78
11 0 18 -7 18 -18 0 -27 -8 -31 -40 -22 -48 14 -83 -2 -106 -46 -16 -31 -29
-42 -65 -52 -62 -18 -73 -26 -83 -55 -16 -43 6 -75 72 -104 38 -18 75 -26 111
-26 48 0 57 3 77 29 37 46 78 84 91 84 18 0 53 60 53 90 0 23 7 28 60 43 37
11 67 27 79 43 19 25 21 25 46 8 32 -21 54 -63 88 -169 64 -194 80 -325 67
-542 -6 -101 -6 -181 0 -215 20 -110 34 -319 33 -483 -1 -93 -3 -330 -6 -525
l-4 -355 -32 -70 c-19 -41 -48 -85 -72 -106 l-39 -37 0 -93 c0 -52 4 -141 10
-199 5 -58 14 -231 20 -385 6 -154 17 -386 25 -515 23 -370 23 -335 -3 -338
-36 -5 -56 -45 -49 -96 l6 -44 -37 -7 c-20 -3 -79 -5 -131 -3 -90 2 -94 1
-116 -24 -29 -34 -65 -255 -64 -394 0 -88 4 -108 32 -176 32 -79 81 -150 150
-219 24 -25 37 -48 37 -66 1 -15 7 -39 15 -53 22 -38 19 -77 -7 -91 -12 -7
-63 -14 -113 -17 -83 -4 -96 -2 -148 23 -32 14 -65 38 -75 53 -37 56 -93 100
-140 111 -73 17 -152 19 -207 4 -61 -16 -137 -17 -205 -2 l-51 11 6 66 c9 97
13 110 35 117 31 10 158 144 191 201 27 47 29 59 29 149 0 100 -27 238 -56
282 -20 31 -83 45 -188 42 -254 -7 -260 -6 -353 45 -1 1 6 28 15 61 21 80 19
181 -5 213 -10 13 -41 31 -69 41 -49 16 -168 95 -178 117 -2 6 0 29 4 50 5 22
14 75 20 119 12 89 45 275 61 345 6 25 18 54 28 65 10 11 24 30 30 42 13 25
28 464 17 507 -4 16 -21 35 -41 48 -30 17 -35 26 -35 56 0 21 -9 56 -19 78
-16 34 -17 49 -9 85 5 24 12 233 14 464 3 436 18 650 52 785 14 53 16 105 14
280 -3 237 6 341 43 485 33 126 39 135 83 123 39 -11 106 -2 121 15 5 7 18 34
29 62 18 45 23 50 63 60 24 7 54 17 65 23 12 6 24 9 27 6 3 -3 22 -6 42 -6 39
0 71 22 80 56 4 11 14 35 23 53 21 41 8 82 -31 101 -44 21 -49 43 -48 197 1
78 -2 153 -7 166 -15 37 1 228 22 271 25 52 92 126 144 159 37 23 55 28 114
28 39 0 85 -6 102 -13z"/>
</g>
</svg>
