<?xml version="1.0" standalone="no"?>
<!DOCTYPE svg PUBLIC "-//W3C//DTD SVG 20010904//EN"
 "http://www.w3.org/TR/2001/REC-SVG-20010904/DTD/svg10.dtd">
<svg version="1.0" xmlns="http://www.w3.org/2000/svg"
 width="480.000000pt" height="672.000000pt" viewBox="0 0 480.000000 672.000000"
 preserveAspectRatio="xMidYMid meet">
<metadata>
Created by potrace 1.16, written by Peter Selinger 2001-2019
</metadata>
<g transform="translate(0.000000,672.000000) scale(0.100000,-0.100000)"
fill="none" stroke="grey" stroke-width="2">
<path d="M0 3360 l0 -3360 2400 0 2400 0 0 3360 0 3360 -2400 0 -2400 0 0
-3360z m2385 2968 c75 -37 124 -102 146 -194 10 -42 27 -87 39 -99 15 -16 20
-35 20 -76 0 -46 -5 -60 -35 -97 -28 -37 -34 -51 -33 -91 1 -30 -5 -57 -15
-72 -25 -34 -20 -67 16 -129 27 -45 41 -57 75 -68 27 -9 53 -28 73 -53 17 -22
44 -46 60 -54 15 -8 44 -31 63 -51 28 -28 43 -36 73 -37 24 0 50 -9 71 -25 18
-13 45 -27 60 -31 15 -4 37 -23 49 -42 12 -19 33 -48 47 -65 14 -18 26 -37 26
-43 0 -5 20 -33 45 -61 24 -28 52 -64 60 -81 16 -30 16 -32 -19 -82 -35 -51
-36 -54 -36 -154 0 -144 19 -396 36 -476 17 -80 19 -400 4 -547 -6 -52 -13
-142 -16 -200 -3 -58 -9 -132 -15 -165 -6 -37 -6 -102 -1 -170 8 -98 7 -117
-11 -175 -11 -36 -29 -77 -39 -91 -18 -24 -20 -48 -23 -255 -2 -126 -9 -249
-14 -274 -6 -25 -13 -58 -17 -73 -4 -16 -1 -45 6 -66 9 -29 9 -64 0 -161 -14
-151 -14 -158 -6 -338 5 -112 10 -154 26 -189 38 -86 24 -118 -60 -143 -25 -7
-49 -17 -54 -22 -6 -4 -17 -8 -26 -8 -9 0 -26 -11 -38 -25 -12 -14 -31 -25
-41 -25 -11 0 -22 -4 -25 -9 -10 -16 -54 -18 -117 -5 -71 15 -111 10 -134 -16
-26 -28 -66 -187 -77 -305 -11 -119 -11 -122 -2 -333 5 -132 4 -146 -16 -186
-25 -52 -36 -62 -70 -64 -13 -1 -34 -5 -45 -11 -11 -5 -54 -20 -95 -33 l-75
-23 -49 24 c-35 17 -65 24 -100 23 -28 -1 -73 3 -101 8 -27 5 -74 12 -104 15
-29 3 -72 10 -93 16 -22 6 -47 8 -54 5 -8 -3 -60 -8 -115 -11 -87 -5 -104 -4
-120 11 -11 9 -19 20 -19 24 0 4 35 37 77 73 43 37 87 79 97 95 11 16 34 34
52 41 39 14 84 68 153 182 61 103 65 139 25 275 -35 123 -53 156 -89 166 -51
14 -202 13 -219 -1 -9 -8 -26 -11 -40 -7 -23 6 -24 10 -31 130 -4 69 -4 158 0
198 4 40 7 111 6 158 -1 74 8 222 49 765 14 183 13 287 -5 311 -12 18 -87 60
-136 77 -8 3 -21 24 -28 48 -6 24 -18 63 -25 86 -11 35 -11 63 0 160 7 65 13
150 14 188 0 39 5 98 10 131 6 34 17 159 25 277 16 241 25 306 56 422 12 44
30 110 39 146 12 43 21 125 25 237 8 166 7 172 -15 209 -13 21 -26 52 -31 68
-4 17 -11 39 -14 51 -5 15 5 35 38 75 24 30 61 88 81 129 42 84 62 110 84 110
9 0 26 10 39 22 27 25 112 57 170 63 56 6 119 47 140 92 13 25 33 44 68 62 60
32 78 68 54 109 -9 16 -29 31 -50 37 -59 16 -69 31 -69 95 0 32 -6 76 -14 98
-9 23 -16 89 -17 159 -5 175 27 263 118 327 74 52 191 58 278 14z"/>
<path d="M2162 1353 c-12 -2 -30 -16 -39 -30 -15 -23 -15 -33 1 -148 18 -131
38 -206 61 -225 8 -7 31 -12 52 -12 60 0 81 38 103 187 17 123 14 151 -22 190
-28 29 -41 35 -83 39 -27 2 -60 1 -73 -1z"/>
</g>
</svg>
