<?xml version="1.0" standalone="no"?>
<!DOCTYPE svg PUBLIC "-//W3C//DTD SVG 20010904//EN"
 "http://www.w3.org/TR/2001/REC-SVG-20010904/DTD/svg10.dtd">
<svg version="1.0" xmlns="http://www.w3.org/2000/svg"
 width="640.000000pt" height="895.000000pt" viewBox="0 0 640.000000 895.000000"
 preserveAspectRatio="xMidYMid meet">
<metadata>
Created by potrace 1.16, written by Peter Selinger 2001-2019
</metadata>
<g transform="translate(0.000000,895.000000) scale(0.100000,-0.100000)"
fill="none" stroke="grey" stroke-width="2">
<path d="M0 4475 l0 -4475 3200 0 3200 0 0 4475 0 4475 -3200 0 -3200 0 0
-4475z m3118 3994 c121 -28 215 -98 264 -196 30 -62 33 -75 38 -202 4 -75 2
-172 -3 -216 -5 -44 -10 -115 -11 -157 0 -42 -6 -82 -12 -88 -6 -6 -27 -14
-45 -16 -62 -9 -83 -60 -59 -145 6 -20 19 -44 30 -54 32 -29 118 -54 151 -45
36 11 409 -59 409 -76 0 -25 37 -53 75 -58 84 -12 146 -129 229 -431 62 -226
70 -299 64 -587 -3 -134 -1 -256 3 -272 5 -16 15 -93 24 -170 8 -78 21 -175
29 -216 23 -120 37 -383 35 -675 -2 -257 0 -276 26 -406 25 -129 26 -139 11
-168 -9 -17 -20 -62 -25 -100 -10 -77 -15 -91 -36 -91 -8 0 -21 -11 -30 -23
-13 -20 -14 -42 -6 -148 6 -68 15 -189 21 -269 17 -227 31 -343 45 -365 17
-28 30 -597 15 -678 -14 -75 -43 -142 -66 -151 -12 -4 -27 2 -47 21 -37 36
-55 70 -63 123 -8 47 -30 78 -59 81 -46 4 -65 -2 -80 -25 -36 -55 23 -919 81
-1187 7 -33 -21 -46 -133 -59 -109 -12 -121 -23 -139 -122 -21 -111 -29 -309
-15 -336 6 -12 14 -52 18 -90 3 -37 13 -80 23 -97 10 -16 21 -46 25 -65 12
-55 60 -153 89 -179 18 -17 26 -35 26 -56 0 -18 9 -44 20 -58 13 -16 20 -40
20 -66 0 -34 -4 -43 -27 -54 -45 -23 -139 -47 -207 -54 -55 -5 -70 -2 -117 21
-66 34 -119 83 -119 112 0 12 -14 38 -30 59 -17 21 -33 49 -35 62 -3 12 -7 34
-10 47 -13 65 -70 85 -142 50 -21 -10 -49 -19 -63 -21 -76 -7 -155 -3 -239 11
-52 9 -96 14 -99 11 -3 -3 -12 1 -20 7 -8 7 -23 17 -35 23 -30 15 -38 58 -26
143 6 41 8 80 5 87 -3 8 3 15 16 17 73 11 135 274 108 458 -15 108 -47 239
-65 266 -9 14 -35 25 -92 37 -106 23 -289 54 -398 67 -112 13 -239 47 -268 70
-19 16 -21 26 -19 79 4 82 -14 100 -128 125 -114 25 -178 45 -182 58 -2 6 2
38 8 72 14 66 117 776 159 1096 14 107 44 304 65 436 22 133 40 256 40 273 0
21 -9 41 -25 57 -16 16 -33 53 -45 101 -12 41 -28 89 -36 105 -13 26 -13 35 0
81 37 133 49 209 51 317 1 63 7 187 13 275 6 88 16 243 22 345 14 245 37 479
56 565 13 58 15 113 9 315 -8 296 6 598 35 752 24 126 42 167 66 147 8 -7 36
-12 61 -12 58 0 83 26 83 87 0 71 7 81 59 95 26 6 101 41 167 78 65 36 132 72
147 80 50 27 60 53 55 151 -5 110 -26 151 -83 167 -45 13 -58 39 -39 77 17 34
18 68 2 93 -15 23 -15 127 0 310 9 123 27 176 84 257 39 56 139 107 246 127 2
1 24 -4 50 -10z"/>
<path d="M3333 1493 c-60 -11 -69 -89 -20 -154 53 -70 57 -81 57 -187 0 -128
13 -147 97 -143 39 2 79 80 86 165 7 84 -14 256 -36 290 -21 32 -102 45 -184
29z"/>
</g>
</svg>
