<?xml version="1.0" standalone="no"?>
<!DOCTYPE svg PUBLIC "-//W3C//DTD SVG 20010904//EN"
 "http://www.w3.org/TR/2001/REC-SVG-20010904/DTD/svg10.dtd">
<svg version="1.0" xmlns="http://www.w3.org/2000/svg"
 width="640.000000pt" height="895.000000pt" viewBox="0 0 640.000000 895.000000"
 preserveAspectRatio="xMidYMid meet">
<metadata>
Created by potrace 1.16, written by Peter Selinger 2001-2019
</metadata>
<g transform="translate(0.000000,895.000000) scale(0.100000,-0.100000)"
fill="none" stroke="grey" stroke-width="2">
<path d="M0 4475 l0 -4475 3200 0 3200 0 0 4475 0 4475 -3200 0 -3200 0 0
-4475z m3203 4079 c79 -28 160 -115 193 -206 28 -78 35 -142 35 -307 1 -160 0
-164 -24 -190 -30 -32 -47 -64 -47 -88 0 -10 -14 -47 -30 -81 -34 -73 -38
-110 -12 -142 22 -27 74 -29 125 -5 l36 17 66 -70 c77 -82 100 -90 260 -96 71
-3 113 -9 145 -24 59 -25 221 -162 301 -254 35 -40 101 -108 146 -151 l81 -78
-74 -148 -75 -148 12 -109 c6 -60 13 -230 14 -379 1 -165 7 -289 14 -320 15
-64 -2 -561 -23 -685 -8 -47 -18 -130 -21 -185 -3 -55 -11 -127 -17 -160 -9
-51 -7 -79 13 -185 26 -142 26 -151 11 -242 -14 -88 -40 -144 -101 -218 -28
-33 -53 -71 -55 -83 -13 -67 -30 -728 -31 -1237 -1 -449 -6 -634 -19 -795 -9
-115 -18 -215 -20 -221 -3 -6 -27 -14 -54 -18 -29 -4 -56 -14 -66 -25 -10 -10
-30 -72 -45 -137 -16 -66 -49 -205 -75 -309 -56 -230 -60 -308 -21 -385 14
-27 25 -57 25 -67 0 -43 126 -263 151 -263 21 0 88 -73 95 -103 3 -18 14 -48
23 -67 24 -50 14 -101 -22 -118 -88 -42 -235 -37 -342 12 -46 21 -58 32 -70
63 -29 73 -40 87 -77 98 -21 6 -51 26 -70 47 -18 20 -42 38 -53 39 -51 4 -64
-3 -105 -55 -57 -74 -101 -91 -240 -91 -92 0 -111 3 -155 25 -39 20 -51 31
-56 55 -3 17 -11 40 -17 52 -16 28 4 105 47 187 17 32 31 66 31 76 0 11 9 34
19 52 31 52 55 171 42 210 -5 18 -13 67 -17 108 -4 41 -22 129 -42 195 -19 66
-49 179 -67 252 -37 155 -50 178 -102 188 -57 10 -113 37 -162 79 -59 49 -107
73 -185 91 -79 18 -135 9 -247 -41 -118 -53 -196 -64 -379 -53 -85 4 -172 11
-194 15 l-38 6 7 57 c3 31 15 117 26 191 11 74 29 209 40 300 57 483 143 1038
240 1535 23 121 24 145 3 187 -14 31 -14 39 11 138 19 76 29 147 35 255 4 83
15 238 24 345 9 107 23 283 32 390 17 217 46 432 70 529 10 41 16 112 17 191
l1 126 -43 75 c-56 99 -117 196 -151 239 -41 53 -62 100 -56 124 3 12 30 49
59 81 30 33 75 92 100 130 40 63 93 135 201 276 42 55 127 102 266 149 156 52
160 54 205 148 36 75 43 84 79 94 57 17 70 45 62 127 -4 48 -15 86 -36 126
-16 31 -30 67 -30 79 0 27 -26 66 -44 66 -33 0 -38 28 -38 198 1 175 16 281
47 343 41 78 127 149 224 184 42 16 155 9 214 -11z"/>
<path d="M3943 5782 c-28 -4 -53 -38 -53 -72 0 -29 33 -104 50 -115 6 -4 28
-7 48 -7 71 0 89 61 45 150 -18 37 -47 51 -90 44z"/>
<path d="M3405 1782 c-11 -2 -39 -23 -61 -47 l-42 -43 -7 -126 c-8 -134 -1
-236 20 -295 7 -20 16 -70 20 -111 7 -75 32 -151 55 -165 6 -4 27 -7 47 -7
108 0 130 144 91 606 -8 97 -16 144 -27 157 -18 22 -66 37 -96 31z"/>
</g>
</svg>
