<?xml version="1.0" standalone="no"?>
<!DOCTYPE svg PUBLIC "-//W3C//DTD SVG 20010904//EN"
 "http://www.w3.org/TR/2001/REC-SVG-20010904/DTD/svg10.dtd">
<svg version="1.0" xmlns="http://www.w3.org/2000/svg"
 width="640.000000pt" height="895.000000pt" viewBox="0 0 640.000000 895.000000"
 preserveAspectRatio="xMidYMid meet">
<metadata>
Created by potrace 1.16, written by Peter Selinger 2001-2019
</metadata>
<g transform="translate(0.000000,895.000000) scale(0.100000,-0.100000)"
fill="none" stroke="grey" stroke-width="2">
<path d="M0 4475 l0 -4475 3200 0 3200 0 0 4475 0 4475 -3200 0 -3200 0 0
-4475z m3245 4119 c41 -19 86 -49 101 -67 40 -48 81 -140 99 -226 25 -116 28
-125 54 -138 14 -6 29 -19 34 -28 16 -30 -2 -141 -34 -201 -25 -47 -29 -62
-24 -99 7 -46 -11 -116 -30 -114 -64 7 -99 -38 -90 -116 13 -112 153 -323 216
-326 45 -2 64 2 91 22 34 24 38 24 141 -1 47 -10 111 -21 143 -23 33 -3 79
-11 104 -18 45 -13 150 -93 150 -114 0 -6 20 -42 45 -80 25 -39 45 -77 45 -86
0 -9 8 -27 19 -40 10 -13 32 -56 49 -96 17 -39 47 -97 66 -128 20 -30 36 -60
36 -65 0 -6 -15 -32 -34 -58 -70 -100 -67 -84 -61 -379 4 -190 10 -293 22
-353 14 -68 17 -143 16 -375 0 -159 -5 -333 -11 -385 -27 -229 -44 -564 -33
-626 6 -34 11 -82 11 -107 0 -25 5 -58 10 -72 13 -35 -20 -201 -56 -280 -15
-32 -55 -93 -90 -137 l-64 -79 -1 -277 c-2 -291 -1 -383 5 -939 2 -188 0 -402
-4 -475 -4 -73 -4 -189 1 -258 6 -90 5 -134 -3 -157 -10 -27 -9 -39 6 -69 9
-21 13 -40 8 -43 -4 -3 -24 -19 -44 -34 -27 -21 -55 -31 -105 -38 -37 -5 -75
-16 -83 -25 -18 -18 -28 -130 -29 -334 -1 -133 1 -149 24 -197 36 -78 173
-258 262 -345 68 -65 97 -85 195 -132 122 -59 186 -112 172 -145 -4 -9 -9 -28
-11 -43 -9 -47 -42 -53 -231 -39 -92 6 -174 11 -182 12 -85 3 -234 35 -295 63
-76 35 -165 61 -205 58 -14 -1 -33 -12 -43 -24 -21 -25 -23 -23 -59 41 -9 16
-32 37 -51 44 -19 8 -46 27 -60 42 -30 33 -88 38 -130 10 -30 -19 -65 -21
-207 -11 -133 10 -330 13 -360 6 -13 -4 -43 -2 -65 3 -49 11 -75 49 -75 108 0
57 57 167 122 238 88 94 147 178 183 258 31 67 35 85 41 201 5 100 3 140 -9
186 -24 89 -33 94 -162 101 -165 9 -410 41 -500 65 -44 12 -114 39 -155 60
-41 22 -114 51 -161 65 -100 30 -131 53 -124 93 15 92 37 254 60 437 13 116
29 239 35 275 5 36 15 106 20 155 19 162 50 368 70 470 11 55 24 170 30 255 6
85 14 192 17 237 6 89 11 79 -65 144 -11 9 -26 36 -34 60 -8 24 -24 67 -34 94
-17 45 -19 77 -17 320 2 308 19 923 28 1035 11 131 33 263 61 355 14 50 30
106 36 125 13 49 28 468 19 533 -6 44 -16 64 -64 122 -31 38 -57 74 -57 80 0
12 97 194 128 240 12 17 33 54 49 84 31 60 132 166 178 187 17 8 37 18 45 23
29 17 91 41 104 41 7 0 24 8 37 18 13 10 44 24 68 32 25 8 61 25 80 39 23 15
53 25 85 27 39 2 55 9 82 34 51 51 77 121 78 216 1 73 -2 85 -29 129 -22 36
-39 51 -62 57 -48 12 -69 58 -53 109 12 35 11 44 -13 96 -14 32 -31 86 -38
121 -11 61 -11 65 12 95 20 27 25 48 30 132 7 110 26 165 86 248 33 44 105
100 163 124 14 6 65 11 114 11 81 1 95 -2 161 -34z"/>
<path d="M3293 1552 c-72 -11 -71 -153 3 -331 50 -120 58 -158 44 -204 -8 -26
-22 -45 -50 -62 -66 -42 -86 -89 -55 -131 8 -10 15 -33 15 -51 0 -49 37 -85
85 -85 47 0 75 28 75 77 0 44 24 109 62 168 42 65 57 171 58 383 0 198 -3 205
-107 223 -89 16 -104 17 -130 13z"/>
</g>
</svg>
