<?xml version="1.0" standalone="no"?>
<!DOCTYPE svg PUBLIC "-//W3C//DTD SVG 20010904//EN"
 "http://www.w3.org/TR/2001/REC-SVG-20010904/DTD/svg10.dtd">
<svg version="1.0" xmlns="http://www.w3.org/2000/svg"
 width="640.000000pt" height="895.000000pt" viewBox="0 0 640.000000 895.000000"
 preserveAspectRatio="xMidYMid meet">
<metadata>
Created by potrace 1.16, written by Peter Selinger 2001-2019
</metadata>
<g transform="translate(0.000000,895.000000) scale(0.100000,-0.100000)"
fill="none" stroke="grey" stroke-width="2">
<path d="M0 4475 l0 -4475 3200 0 3200 0 0 4475 0 4475 -3200 0 -3200 0 0
-4475z m3128 4089 c116 -34 178 -75 232 -157 54 -80 73 -171 64 -303 -16 -242
-19 -270 -35 -294 -9 -14 -22 -49 -29 -79 -9 -38 -25 -67 -56 -102 -24 -28
-44 -57 -44 -67 0 -36 21 -89 42 -109 23 -21 107 -45 142 -40 34 4 42 -26 21
-90 -11 -32 -27 -69 -37 -82 -10 -13 -18 -31 -18 -39 0 -9 -4 -29 -10 -46 -5
-17 -17 -59 -26 -93 -10 -34 -21 -60 -24 -58 -13 8 -85 -17 -100 -34 -9 -10
-26 -23 -38 -30 -43 -23 -53 -53 -46 -127 6 -53 13 -73 31 -92 14 -13 25 -32
26 -42 1 -20 -33 -100 -43 -100 -9 0 -52 48 -81 90 -13 19 -64 80 -112 135
-49 55 -97 111 -107 125 l-18 25 41 2 c59 2 81 31 72 97 -7 54 -33 112 -61
137 -11 9 -41 22 -68 28 -28 7 -64 25 -81 40 -28 25 -31 30 -19 46 8 10 14 25
14 32 0 7 15 33 33 59 l32 46 -1 126 c0 170 -23 251 -79 282 -28 16 -31 22
-42 106 -9 66 -9 92 0 102 6 8 12 58 13 114 6 207 90 337 252 389 71 23 90 23
160 3z m-481 -1282 c8 -5 6 -13 -7 -29 -15 -19 -19 -20 -24 -7 -15 38 0 56 31
36z m1403 -609 c0 -43 -5 -41 -13 5 -4 18 -2 32 3 32 6 0 10 -16 10 -37z m7
-65 c-3 -8 -6 -5 -6 6 -1 11 2 17 5 13 3 -3 4 -12 1 -19z m22 -68 c1 -13 0
-13 -9 0 -5 8 -9 24 -9 35 l0 20 9 -20 c5 -11 9 -27 9 -35z m1 -150 c14 0 20
-11 25 -52 4 -29 13 -71 20 -93 7 -22 16 -78 20 -123 8 -90 23 -119 65 -124
14 -2 31 -7 38 -12 16 -10 76 -11 92 -1 6 4 20 21 30 38 l19 31 11 -29 c6 -16
27 -46 46 -68 51 -56 49 -61 -110 -262 -18 -23 -19 -29 -5 -142 10 -86 13
-220 12 -498 l-2 -380 35 -158 c19 -87 32 -162 29 -167 -4 -6 -11 -54 -16
-107 -9 -85 -15 -104 -50 -164 -45 -77 -48 -80 -77 -72 -19 4 -22 13 -22 52 0
52 -21 91 -50 91 -16 0 -17 3 -7 29 8 23 7 49 -6 118 -10 48 -17 103 -17 121
0 19 -9 66 -20 105 -10 40 -22 85 -25 101 -7 33 -56 86 -80 86 -34 0 -115 89
-115 126 0 21 -17 52 -58 102 -19 24 -46 65 -58 93 -13 27 -30 52 -39 55 -8 3
-15 10 -15 15 0 13 40 -11 65 -39 44 -50 135 -21 135 43 0 23 -35 75 -50 75
-5 0 -37 27 -72 60 -35 33 -72 60 -83 61 -37 2 -60 -3 -74 -16 -12 -12 -18
-10 -39 18 -13 18 -32 49 -43 69 -10 21 -28 42 -40 48 -39 21 -147 21 -228 -1
-204 -55 -331 1 -331 146 0 40 39 132 62 146 6 4 25 3 42 -2 17 -5 69 -7 116
-4 74 5 88 9 112 32 15 15 30 35 34 45 4 15 9 17 20 8 7 -7 30 -12 51 -12 62
0 93 59 57 110 -14 21 -14 22 5 22 29 0 46 32 71 135 12 49 25 96 29 103 5 8
27 16 50 17 30 3 54 13 86 39 24 20 49 36 55 36 6 0 21 5 33 12 12 7 31 13 42
15 11 2 29 7 40 13 11 5 32 14 47 20 16 5 37 24 47 42 29 49 41 60 58 54 8 -3
23 -6 33 -6z m-1491 -413 c13 -53 29 -68 73 -69 41 0 78 -23 78 -47 0 -10 -7
-42 -16 -70 l-17 -51 -41 7 c-84 13 -102 8 -161 -47 -74 -71 -109 -123 -102
-156 4 -21 -3 -36 -33 -68 -57 -62 -103 -179 -139 -351 -31 -148 -31 -151 -21
-300 18 -263 42 -378 111 -547 10 -27 28 -72 40 -100 43 -109 42 -107 119
-130 70 -21 82 -50 85 -217 2 -109 7 -150 23 -197 25 -70 30 -131 14 -161 -7
-12 -15 -68 -18 -125 -6 -101 -18 -163 -47 -243 -18 -48 -48 -58 -76 -24 -25
31 -116 32 -140 3 -9 -11 -35 -26 -58 -33 -39 -13 -43 -12 -95 18 -99 56 -224
215 -254 323 -26 95 -53 300 -44 343 4 22 24 80 44 129 20 49 36 95 36 103 0
15 -22 90 -46 159 -11 32 -12 52 -4 95 14 68 28 352 40 764 5 176 14 345 19
375 5 30 10 89 10 131 1 63 -3 82 -22 110 -12 18 -32 36 -45 39 -12 3 -31 19
-41 36 -12 19 -30 33 -48 37 -30 6 -123 81 -123 99 0 7 27 8 83 3 45 -4 105
-7 132 -7 l50 0 23 -49 c13 -27 45 -72 70 -100 41 -45 52 -51 87 -51 44 0 72
25 82 74 7 34 8 34 36 2 32 -37 92 -37 124 1 13 14 23 34 23 44 0 10 7 24 16
32 21 17 46 69 79 166 19 56 34 84 49 91 28 13 32 9 45 -41z m826 -57 c3 -5 1
-10 -4 -10 -6 0 -11 5 -11 10 0 6 2 10 4 10 3 0 8 -4 11 -10z m-838 -406 c-3
-3 -12 -4 -19 -1 -8 3 -5 6 6 6 11 1 17 -2 13 -5z m76 -11 c-7 -2 -21 -2 -30
0 -10 3 -4 5 12 5 17 0 24 -2 18 -5z m100 -10 c-7 -2 -21 -2 -30 0 -10 3 -4 5
12 5 17 0 24 -2 18 -5z m104 -9 c-3 -3 -12 -4 -19 -1 -8 3 -5 6 6 6 11 1 17
-2 13 -5z m370 -951 c1 -21 5 -80 10 -130 7 -82 11 -96 35 -117 23 -22 27 -36
32 -103 4 -43 11 -94 16 -113 22 -84 43 -219 42 -268 -1 -45 3 -58 25 -80 27
-27 65 -124 40 -104 -13 11 -38 15 -74 13 -45 -2 -52 -34 -62 -253 -10 -202
-10 -206 -35 -231 -23 -23 -26 -35 -26 -90 0 -49 5 -70 20 -90 24 -30 25 -55
5 -81 -18 -24 -19 -50 -3 -79 8 -16 12 -113 13 -332 0 -219 4 -323 13 -355 8
-25 15 -120 17 -215 3 -114 9 -190 20 -230 9 -33 21 -91 25 -130 10 -77 16
-437 12 -808 -2 -291 -6 -306 -95 -351 -51 -25 -64 -28 -115 -22 -31 4 -109
10 -172 14 -95 6 -131 13 -210 42 -104 38 -99 53 8 22 64 -19 156 -23 182 -7
6 3 37 8 69 9 50 2 70 9 146 55 49 30 100 57 114 61 45 11 57 46 40 120 -17
79 -41 118 -76 126 -15 4 -35 16 -43 27 -27 33 -94 27 -134 -12 -30 -29 -37
-31 -103 -31 -99 0 -126 -7 -173 -47 -49 -43 -51 -34 -5 23 20 24 41 57 46 74
7 19 18 30 29 30 25 0 60 46 60 79 0 15 -7 36 -15 47 -16 23 -11 34 16 34 23
0 69 56 69 84 0 13 -9 35 -20 49 l-20 26 22 3 c40 6 66 87 72 225 3 51 8 98
13 105 4 7 13 63 20 123 6 61 17 136 23 167 8 38 8 62 2 74 -7 13 -6 24 5 41
10 15 13 34 10 53 -4 17 0 45 9 66 21 49 10 187 -17 226 -19 27 -19 27 7 53
28 28 28 23 7 197 -9 68 -31 108 -62 108 -22 0 -27 114 -6 144 20 27 19 56 -1
85 -14 20 -16 41 -11 130 7 138 -2 203 -35 239 -21 22 -24 34 -21 65 4 24 0
46 -11 62 -9 13 -16 41 -16 62 0 21 -9 51 -20 68 -15 23 -20 46 -19 95 0 76
23 259 37 310 6 19 10 68 9 107 -1 50 2 74 11 78 6 2 20 20 29 39 9 20 25 36
36 38 37 6 62 54 63 123 1 40 7 71 18 86 9 13 16 32 16 42 0 11 11 32 25 49
14 16 25 36 25 43 0 10 31 74 35 75 1 0 2 -17 2 -37z m1121 -940 c36 -303 52
-546 57 -848 2 -179 8 -307 15 -335 8 -28 13 -148 15 -315 2 -148 8 -328 14
-398 13 -131 10 -299 -6 -422 -8 -56 -18 -84 -52 -137 -36 -56 -43 -77 -48
-135 -5 -57 -2 -72 14 -91 21 -27 82 -33 108 -12 13 11 15 -15 17 -206 1 -121
1 -237 0 -259 -4 -53 -9 -127 -11 -142 -2 -20 -63 -32 -176 -33 -60 0 -130 -1
-155 -3 -33 -1 -62 7 -113 31 -37 18 -132 54 -210 79 -146 46 -184 66 -158 82
22 14 72 0 331 -94 44 -17 87 -9 104 19 22 34 56 657 58 1053 0 188 5 340 9
337 5 -3 25 -2 44 2 28 5 42 16 62 48 38 58 54 139 74 371 11 122 0 319 -23
410 -5 21 -11 63 -13 93 -4 62 -26 102 -58 103 -45 2 -62 -3 -80 -24 -19 -21
-19 -20 -16 68 1 50 -1 132 -6 183 -8 88 -7 92 12 92 29 0 59 38 88 108 29 72
31 90 10 120 -13 18 -14 26 -4 44 11 20 14 79 12 213 -1 47 6 162 12 191 l7
31 22 -22 c20 -20 26 -45 44 -202z m-174 -1168 c3 -110 2 -238 -3 -285 -6 -65
-8 -16 -10 204 0 159 1 287 4 285 2 -3 7 -95 9 -204z m-1671 -1916 c59 -16 40
-18 -28 -4 -33 7 -49 14 -35 14 14 1 42 -4 63 -10z"/>
<path d="M3392 5713 c-41 -8 -54 -42 -46 -128 9 -96 24 -117 85 -118 69 -1
155 10 186 25 52 25 56 110 5 133 -12 5 -22 15 -22 21 0 29 -36 54 -85 59 -27
3 -61 7 -75 9 -14 2 -35 1 -48 -1z"/>
</g>
</svg>
