<?xml version="1.0" standalone="no"?>
<!DOCTYPE svg PUBLIC "-//W3C//DTD SVG 20010904//EN"
 "http://www.w3.org/TR/2001/REC-SVG-20010904/DTD/svg10.dtd">
<svg version="1.0" xmlns="http://www.w3.org/2000/svg"
 width="480.000000pt" height="672.000000pt" viewBox="0 0 480.000000 672.000000"
 preserveAspectRatio="xMidYMid meet">
<metadata>
Created by potrace 1.16, written by Peter Selinger 2001-2019
</metadata>
<g transform="translate(0.000000,672.000000) scale(0.100000,-0.100000)"
fill="none" stroke="grey" stroke-width="2">
<path d="M0 3360 l0 -3360 2400 0 2400 0 0 3360 0 3360 -2400 0 -2400 0 0
-3360z m2733 3103 c20 -9 55 -35 77 -60 39 -44 52 -74 84 -185 10 -33 26 -64
38 -72 17 -12 20 -24 19 -77 -1 -42 -7 -72 -21 -94 -11 -18 -20 -50 -20 -71 0
-58 -10 -84 -30 -84 -10 0 -28 -12 -40 -27 -18 -23 -20 -35 -14 -78 15 -114
59 -184 142 -226 15 -7 28 -14 30 -15 2 -1 -5 -18 -15 -38 -11 -24 -26 -39
-43 -43 -14 -3 -31 -11 -39 -17 -8 -6 -16 -10 -18 -8 -31 22 -106 -61 -101
-114 3 -36 -6 -49 -74 -105 -48 -41 -48 -41 -75 -23 -43 28 -207 197 -220 227
-7 15 -20 30 -28 33 -21 8 -75 60 -75 72 0 5 9 12 19 15 11 3 28 19 39 36 10
16 31 40 46 52 60 47 75 145 30 198 -14 17 -32 31 -39 31 -24 0 -40 33 -41 84
-1 28 -10 81 -20 119 -15 56 -16 73 -6 100 7 19 12 51 12 73 0 50 25 146 47
182 26 42 75 92 107 109 64 33 153 35 229 6z m-664 -1173 c16 -69 13 -153 -10
-274 -19 -96 -20 -119 -10 -166 7 -30 16 -84 19 -119 6 -49 13 -68 31 -82 18
-15 25 -34 32 -96 5 -43 10 -82 11 -88 1 -5 -6 -24 -15 -42 -35 -66 -8 -126
63 -138 40 -7 56 -25 23 -26 -49 -1 -103 -8 -114 -14 -17 -11 -45 -79 -69
-170 -17 -65 -20 -95 -15 -156 7 -77 -8 -183 -40 -289 -8 -28 -15 -120 -19
-245 -3 -110 -9 -218 -14 -240 -6 -22 -13 -65 -16 -95 -10 -83 -15 -87 -73
-58 -66 33 -121 76 -138 107 -33 65 -48 162 -41 270 4 58 9 252 12 431 5 357
17 479 64 650 26 95 30 129 39 350 11 266 20 319 81 455 33 73 64 115 86 115
7 0 21 11 31 23 l17 24 28 -41 c15 -23 32 -62 37 -86z m1267 33 c31 -20 75
-106 102 -198 18 -61 21 -107 26 -350 4 -255 7 -289 29 -380 38 -153 46 -248
52 -675 3 -217 11 -433 17 -480 10 -81 10 -89 -15 -160 l-27 -75 16 -135 c8
-74 26 -229 39 -345 14 -115 30 -309 35 -430 10 -210 10 -222 -9 -265 -11 -25
-22 -53 -25 -63 -3 -9 -16 -21 -29 -26 -12 -5 -29 -16 -36 -25 -7 -9 -19 -16
-26 -16 -8 0 -29 -18 -48 -40 -45 -53 -122 -79 -259 -86 -133 -7 -173 -18
-200 -54 -12 -17 -29 -30 -38 -30 -34 0 -52 -41 -94 -211 -34 -138 -44 -200
-49 -299 -7 -133 7 -239 38 -287 36 -54 11 -238 -34 -263 -25 -13 -164 -23
-220 -15 -77 10 -84 20 -84 106 -1 57 6 93 28 154 24 67 29 98 31 190 1 77 8
134 24 190 16 58 23 119 27 225 5 135 4 147 -15 170 -19 23 -26 25 -94 23
-101 -2 -219 -28 -239 -52 -24 -30 -53 -236 -53 -386 0 -115 2 -136 23 -183
22 -49 23 -61 16 -155 -4 -56 -9 -139 -11 -184 -4 -99 -15 -124 -76 -162 -144
-92 -257 -116 -383 -84 -64 16 -70 20 -73 46 -2 16 5 38 17 53 12 15 21 36 21
48 0 12 22 44 48 72 80 85 136 249 153 449 10 112 2 318 -18 463 l-5 43 28 -8
c74 -19 125 10 124 71 -1 17 4 51 10 74 7 31 8 97 0 229 -5 102 -7 189 -5 193
3 5 7 100 9 212 5 225 14 285 51 322 14 14 25 30 25 36 0 7 9 23 20 37 26 34
27 102 1 134 -18 23 -18 23 10 62 16 22 29 48 29 59 0 39 25 98 42 98 30 0 58
48 58 102 0 39 6 57 25 80 14 16 25 36 25 44 0 8 10 28 21 44 18 24 21 37 16
75 -6 39 -3 52 19 85 16 24 25 49 22 62 -4 19 0 23 26 25 41 3 58 24 67 80 5
26 11 64 14 83 3 19 8 54 11 78 4 32 9 42 24 42 24 0 70 55 70 85 0 12 9 42
20 66 11 24 20 54 20 65 0 12 11 42 25 65 49 86 29 126 -77 159 -40 13 -79 27
-85 33 -7 5 -69 14 -138 20 -69 5 -125 14 -125 19 0 4 26 5 58 1 31 -5 90 -8
130 -8 68 0 76 2 98 28 13 15 24 39 24 53 0 28 -41 74 -65 74 -14 0 -14 3 2
23 13 18 27 24 60 24 50 0 77 20 95 69 8 22 19 34 30 34 25 0 56 55 63 110 3
25 10 52 16 60 5 8 16 29 24 45 8 17 39 56 68 88 l54 59 72 2 c85 4 99 14 112
81 7 37 18 57 49 85 35 33 40 42 40 82 0 25 3 65 6 90 5 39 10 46 38 55 17 6
32 11 34 12 1 0 14 -6 28 -16z m-971 -480 l0 -38 -44 -1 c-48 -1 -81 -28 -81
-65 0 -10 -4 -19 -9 -19 -10 0 -24 118 -15 132 3 5 11 4 20 -3 23 -19 87 -14
104 10 21 29 25 26 25 -16z m-80 -573 c-3 -5 -12 -10 -20 -10 -8 0 -17 5 -20
10 -4 6 5 10 20 10 15 0 24 -4 20 -10z"/>
<path d="M2822 3883 c-28 -6 -52 -41 -64 -96 -5 -23 -13 -63 -19 -89 -6 -30
-6 -61 0 -90 7 -30 7 -62 -1 -106 -11 -57 -10 -65 9 -90 18 -25 19 -31 7 -53
-7 -13 -13 -47 -14 -76 0 -72 29 -106 90 -106 64 0 80 24 80 124 0 43 4 88 10
101 5 13 14 109 19 213 l9 190 -24 38 c-13 20 -31 37 -38 37 -8 0 -20 2 -28 4
-7 2 -23 1 -36 -1z"/>
<path d="M2770 2138 c-67 -17 -98 -78 -64 -126 14 -21 14 -26 -6 -68 -14 -27
-20 -57 -18 -74 3 -17 1 -30 -4 -30 -14 0 -68 -94 -68 -120 0 -14 14 -46 30
-72 29 -46 44 -54 88 -49 7 1 12 -9 12 -22 0 -14 8 -35 18 -47 26 -32 98 -32
123 -1 25 31 34 84 18 112 -7 13 -14 42 -15 64 -2 22 -6 68 -11 103 -5 34 -6
68 -2 75 4 6 9 53 13 102 6 79 4 94 -13 121 -22 35 -50 44 -101 32z"/>
</g>
</svg>
