<?xml version="1.0" standalone="no"?>
<!DOCTYPE svg PUBLIC "-//W3C//DTD SVG 20010904//EN"
 "http://www.w3.org/TR/2001/REC-SVG-20010904/DTD/svg10.dtd">
<svg version="1.0" xmlns="http://www.w3.org/2000/svg"
 width="480.000000pt" height="672.000000pt" viewBox="0 0 480.000000 672.000000"
 preserveAspectRatio="xMidYMid meet">
<metadata>
Created by potrace 1.16, written by Peter Selinger 2001-2019
</metadata>
<g transform="translate(0.000000,672.000000) scale(0.100000,-0.100000)"
fill="none" stroke="grey" stroke-width="2">
<path d="M0 3360 l0 -3360 2400 0 2400 0 0 3360 0 3360 -2400 0 -2400 0 0
-3360z m2410 3208 c48 -17 80 -38 125 -80 98 -91 128 -165 125 -312 0 -15 5
-43 12 -62 10 -29 9 -36 -7 -54 -12 -13 -22 -45 -27 -87 -4 -37 -16 -83 -27
-102 -42 -80 -69 -128 -89 -161 -12 -19 -22 -45 -22 -56 0 -31 32 -67 72 -82
74 -26 205 -105 251 -150 106 -103 153 -226 213 -555 14 -74 13 -79 -7 -119
-20 -39 -21 -48 -10 -108 7 -36 32 -128 56 -205 26 -82 61 -231 86 -360 22
-121 49 -246 60 -277 10 -32 19 -72 19 -90 1 -58 18 -112 43 -134 34 -29 47
-56 47 -98 0 -76 -40 -131 -108 -148 -68 -17 -78 -39 -64 -153 16 -124 16
-122 -15 -137 -15 -7 -32 -25 -37 -40 -12 -34 52 -674 103 -1033 6 -39 15
-125 21 -190 6 -66 13 -132 16 -147 5 -24 1 -30 -23 -39 -15 -6 -82 -13 -148
-15 -204 -6 -239 -11 -294 -39 -67 -34 -87 -67 -95 -163 -4 -42 -18 -153 -31
-247 -28 -204 -30 -456 -3 -497 20 -30 35 -104 47 -233 9 -88 8 -104 -8 -141
-28 -62 -57 -77 -144 -75 -137 3 -137 3 -188 62 l-48 53 33 37 c33 36 33 37
41 169 6 122 5 135 -12 159 -12 15 -22 50 -26 84 -5 52 -2 65 29 131 41 86 49
141 39 270 -8 115 -22 138 -79 138 -47 0 -52 -6 -110 -111 -25 -46 -62 -101
-81 -122 -47 -52 -46 -86 2 -157 34 -49 37 -59 37 -120 -1 -37 -6 -92 -12
-122 -6 -30 -11 -112 -11 -182 l-1 -127 30 -35 c17 -19 26 -37 21 -41 -6 -3
-20 -32 -31 -64 l-22 -58 -51 -6 c-29 -3 -71 -15 -94 -27 -80 -39 -115 -37
-263 13 -73 26 -137 52 -141 59 -14 21 -10 48 10 82 10 17 22 42 26 56 4 14
17 36 29 50 24 26 94 145 114 194 46 106 67 331 38 399 -7 19 -32 48 -55 66
-37 29 -41 37 -41 76 0 70 -11 77 -238 131 -196 47 -204 50 -221 80 -15 25
-33 37 -86 54 -36 12 -77 32 -91 44 -23 20 -23 24 -14 86 15 96 68 500 80 610
6 52 22 158 35 235 22 126 55 329 88 548 10 72 9 86 -12 169 -19 74 -23 113
-21 221 2 154 -13 394 -31 522 -21 142 -19 520 4 620 16 67 18 115 15 295 l-3
216 -34 52 -34 53 17 77 c19 88 111 281 162 341 41 47 129 90 294 143 159 52
180 70 215 188 15 47 31 103 36 125 6 22 28 61 50 88 50 58 60 91 58 187 -3
150 70 308 165 357 90 47 155 52 246 21z"/>
</g>
</svg>
