<?xml version="1.0" standalone="no"?>
<!DOCTYPE svg PUBLIC "-//W3C//DTD SVG 20010904//EN"
 "http://www.w3.org/TR/2001/REC-SVG-20010904/DTD/svg10.dtd">
<svg version="1.0" xmlns="http://www.w3.org/2000/svg"
 width="480.000000pt" height="672.000000pt" viewBox="0 0 480.000000 672.000000"
 preserveAspectRatio="xMidYMid meet">
<metadata>
Created by potrace 1.16, written by Peter Selinger 2001-2019
</metadata>
<g transform="translate(0.000000,672.000000) scale(0.100000,-0.100000)"
fill="none" stroke="grey" stroke-width="2">
<path d="M0 3360 l0 -3360 2400 0 2400 0 0 3360 0 3360 -2400 0 -2400 0 0
-3360z m2545 3075 c50 -21 106 -84 142 -161 46 -97 74 -219 94 -416 14 -134 8
-207 -20 -251 -40 -63 -45 -77 -35 -105 5 -14 22 -33 38 -42 16 -8 39 -25 51
-37 l23 -22 -22 -3 c-23 -3 -75 -88 -76 -124 0 -46 40 -70 107 -66 53 4 93
119 58 169 -13 19 -13 22 1 27 30 11 61 6 79 -14 10 -11 25 -20 33 -20 24 0
98 -47 115 -73 23 -36 65 -187 82 -302 9 -55 20 -192 25 -305 7 -156 14 -222
30 -275 11 -38 27 -117 35 -175 8 -58 19 -134 25 -170 5 -36 10 -141 10 -235
0 -93 5 -213 11 -265 5 -52 11 -176 13 -274 l3 -180 -35 -73 c-19 -41 -48 -86
-65 -101 -82 -73 -73 -29 -81 -397 -3 -182 -9 -397 -12 -480 -3 -82 -1 -274 5
-425 7 -151 16 -459 21 -684 7 -350 7 -412 -6 -430 -8 -11 -14 -32 -14 -47 0
-55 -74 -88 -270 -119 -74 -12 -155 -26 -179 -31 -82 -19 -205 -22 -277 -8
-38 7 -77 12 -86 10 -18 -2 -105 -58 -143 -90 -22 -18 -57 -36 -91 -46 -12 -3
-61 -1 -110 5 -106 12 -194 51 -272 122 -48 42 -50 47 -45 84 8 60 -17 84 -95
91 -70 6 -69 5 -52 94 6 30 17 104 26 164 8 61 19 127 25 147 8 32 24 144 79
558 17 128 42 389 51 529 4 74 13 157 19 184 6 29 11 180 11 359 0 267 -2 313
-16 334 -8 13 -21 24 -29 24 -7 0 -35 22 -63 48 -49 47 -51 51 -67 139 -13 72
-15 108 -7 174 10 91 0 425 -19 622 -9 88 -9 143 0 220 21 182 29 307 39 587
12 336 28 438 93 593 16 37 23 45 34 36 22 -18 81 -13 113 11 19 13 37 40 48
71 15 42 21 49 45 49 26 0 27 -3 30 -52 2 -29 -1 -74 -6 -100 -13 -61 6 -90
65 -104 54 -12 124 3 145 30 20 28 19 168 -2 223 -14 35 -15 49 -5 69 20 45
13 74 -25 111 l-37 34 7 172 c4 95 11 202 16 239 23 160 85 274 187 344 56 39
65 42 129 42 38 0 83 -6 99 -13z"/>
</g>
</svg>
