<?xml version="1.0" standalone="no"?>
<!DOCTYPE svg PUBLIC "-//W3C//DTD SVG 20010904//EN"
 "http://www.w3.org/TR/2001/REC-SVG-20010904/DTD/svg10.dtd">
<svg version="1.0" xmlns="http://www.w3.org/2000/svg"
 width="640.000000pt" height="895.000000pt" viewBox="0 0 640.000000 895.000000"
 preserveAspectRatio="xMidYMid meet">
<metadata>
Created by potrace 1.16, written by Peter Selinger 2001-2019
</metadata>
<g transform="translate(0.000000,895.000000) scale(0.100000,-0.100000)"
fill="none" stroke="grey" stroke-width="2">
<path d="M0 4475 l0 -4475 3200 0 3200 0 0 4475 0 4475 -3200 0 -3200 0 0
-4475z m3250 4100 c97 -2 222 -159 278 -350 36 -123 42 -175 50 -425 8 -227
11 -249 33 -304 25 -61 30 -66 89 -87 19 -7 49 -28 67 -47 27 -30 48 -38 156
-67 149 -39 153 -41 242 -120 39 -34 85 -70 103 -79 37 -19 37 -19 16 -99 -8
-34 -14 -70 -11 -81 2 -12 20 -83 40 -158 43 -165 53 -237 67 -478 7 -110 21
-233 35 -305 13 -66 26 -156 29 -200 3 -44 14 -116 25 -161 29 -113 41 -273
41 -534 0 -124 4 -279 10 -345 36 -447 37 -474 20 -560 -24 -122 -65 -182
-218 -315 -22 -19 -23 -25 -16 -108 4 -48 6 -91 5 -97 -10 -37 -16 -409 -8
-495 10 -115 5 -143 -49 -290 -26 -72 -27 -84 -29 -275 -2 -220 -10 -280 -75
-570 -22 -99 -67 -315 -100 -479 -53 -262 -60 -314 -60 -416 0 -115 1 -119 59
-336 12 -46 79 -163 124 -218 42 -50 56 -94 57 -177 0 -87 -74 -142 -193 -142
-57 0 -78 5 -140 36 -40 20 -81 44 -90 54 -9 10 -23 48 -31 83 -8 36 -21 94
-29 129 -18 77 -41 103 -92 103 -32 0 -44 -7 -74 -41 -34 -39 -42 -43 -124
-58 -159 -31 -262 11 -303 122 -27 73 -24 104 22 202 19 40 34 79 34 88 0 9 7
27 16 40 30 46 47 153 44 279 -2 108 -6 132 -46 263 -122 400 -253 890 -264
983 -6 47 -17 153 -26 235 -24 234 -45 314 -167 628 -25 66 -51 125 -56 131
-16 19 -105 36 -221 41 l-105 5 -11 34 c-7 18 -17 85 -24 147 -15 149 -15 148
-54 193 -33 38 -35 39 -112 43 -44 2 -92 4 -108 4 -16 0 -35 4 -42 10 -6 5
-35 12 -63 16 -50 6 -51 7 -61 47 -6 23 -23 91 -39 151 -17 61 -35 150 -42
198 -12 87 -12 89 25 240 20 84 45 219 56 301 36 265 36 266 121 625 17 69 45
153 64 191 55 109 72 200 80 410 8 247 24 450 41 533 8 38 14 82 14 99 0 18
18 69 40 114 31 65 49 89 87 117 64 46 139 83 188 91 49 9 188 88 215 123 34
43 19 112 -32 145 -25 17 -58 99 -58 144 0 15 11 95 24 178 13 83 27 189 31
236 9 129 42 277 81 358 38 83 132 185 199 217 55 26 144 45 180 37 17 -3 46
-6 65 -7z"/>
<path d="M3480 3471 c-46 -13 -56 -47 -40 -142 10 -58 13 -130 10 -234 -8
-234 -5 -403 9 -490 6 -44 13 -181 16 -305 2 -124 12 -369 23 -545 17 -273 22
-327 40 -366 24 -55 32 -61 80 -61 26 0 42 7 55 24 19 22 19 36 13 293 -4 149
-14 344 -23 435 -20 214 -13 395 22 538 31 127 31 141 0 277 -14 61 -30 139
-35 175 -46 307 -62 378 -86 392 -19 11 -60 15 -84 9z"/>
</g>
</svg>
