<?xml version="1.0" standalone="no"?>
<!DOCTYPE svg PUBLIC "-//W3C//DTD SVG 20010904//EN"
 "http://www.w3.org/TR/2001/REC-SVG-20010904/DTD/svg10.dtd">
<svg version="1.0" xmlns="http://www.w3.org/2000/svg"
 width="480.000000pt" height="672.000000pt" viewBox="0 0 480.000000 672.000000"
 preserveAspectRatio="xMidYMid meet">
<metadata>
Created by potrace 1.16, written by Peter Selinger 2001-2019
</metadata>
<g transform="translate(0.000000,672.000000) scale(0.100000,-0.100000)"
fill="none" stroke="grey" stroke-width="2">
<path d="M0 4126 c0 -2463 1 -2595 18 -2600 9 -2 366 -8 792 -11 426 -4 777
-8 780 -10 3 -2 30 1 60 6 87 16 90 22 90 218 0 91 5 372 11 623 11 412 10
460 -4 481 -17 27 -49 36 -87 27 -18 -4 -38 2 -70 22 -74 46 -89 63 -101 114
-6 27 -15 63 -20 80 -7 23 -3 55 16 130 14 54 32 150 40 213 8 63 29 159 46
215 17 55 46 179 64 276 19 101 50 225 74 292 62 182 72 247 81 568 8 289 13
329 54 407 8 17 31 43 50 59 89 73 104 84 111 84 4 0 19 8 33 19 15 10 38 22
52 26 14 4 38 19 53 34 33 29 87 130 87 160 0 11 -15 39 -34 64 -44 57 -50 69
-87 169 -30 80 -31 89 -31 241 0 155 1 159 32 224 36 79 90 147 132 169 16 8
55 19 86 25 156 25 297 -91 317 -261 4 -34 17 -70 32 -93 22 -32 25 -44 20
-87 -4 -29 -15 -62 -27 -78 -16 -19 -21 -38 -19 -72 2 -38 -2 -50 -25 -73 -25
-26 -28 -34 -24 -78 5 -50 30 -96 59 -109 17 -8 65 -33 139 -73 30 -17 67 -36
82 -44 14 -7 63 -18 107 -23 44 -5 93 -16 108 -24 38 -20 87 -73 111 -121 29
-59 70 -237 77 -340 6 -86 -5 -306 -25 -485 -5 -47 -12 -132 -15 -190 -10
-178 -54 -399 -130 -650 -77 -254 -79 -269 -65 -344 20 -106 0 -230 -55 -341
-33 -66 -55 -133 -84 -255 -22 -91 -44 -178 -50 -193 -6 -15 -18 -84 -26 -153
-16 -138 -17 -127 57 -424 14 -60 22 -134 27 -247 5 -131 9 -165 22 -179 13
-13 47 -17 165 -22 82 -3 167 -5 189 -5 22 0 370 1 773 2 l732 1 0 2615 0
2615 -2400 0 -2400 0 0 -2594z"/>
<path d="M3142 5182 c-33 -5 -56 -45 -48 -86 10 -54 35 -78 81 -78 47 0 75 28
75 77 0 59 -46 96 -108 87z"/>
</g>
</svg>
