<?xml version="1.0" standalone="no"?>
<!DOCTYPE svg PUBLIC "-//W3C//DTD SVG 20010904//EN"
 "http://www.w3.org/TR/2001/REC-SVG-20010904/DTD/svg10.dtd">
<svg version="1.0" xmlns="http://www.w3.org/2000/svg"
 width="480.000000pt" height="672.000000pt" viewBox="0 0 480.000000 672.000000"
 preserveAspectRatio="xMidYMid meet">
<metadata>
Created by potrace 1.16, written by Peter Selinger 2001-2019
</metadata>
<g transform="translate(0.000000,672.000000) scale(0.100000,-0.100000)"
fill="none" stroke="grey" stroke-width="2">
<path d="M0 3360 l0 -3360 2400 0 2400 0 0 3360 0 3360 -2400 0 -2400 0 0
-3360z m2507 3000 c68 -15 138 -77 174 -154 26 -54 29 -72 29 -156 0 -70 4
-101 15 -118 18 -25 8 -76 -27 -145 -11 -22 -18 -53 -17 -70 1 -18 -1 -44 -6
-59 -7 -26 -11 -28 -58 -26 -41 0 -54 -3 -69 -22 -25 -31 -23 -73 7 -108 14
-16 35 -58 47 -93 16 -44 30 -67 48 -76 68 -34 288 -132 310 -138 33 -10 110
-66 185 -134 57 -52 60 -57 57 -95 -2 -23 -10 -63 -19 -90 -13 -42 -15 -85
-10 -270 7 -239 16 -322 52 -461 37 -143 48 -315 60 -935 2 -96 9 -208 15
-249 11 -65 10 -82 -5 -130 -36 -115 -45 -129 -104 -164 -42 -25 -59 -41 -67
-67 -7 -20 -16 -191 -23 -395 -20 -626 -32 -766 -92 -1125 -33 -195 -74 -464
-84 -553 -5 -42 -13 -64 -31 -82 -13 -13 -24 -31 -24 -39 0 -19 -56 -55 -135
-86 -33 -13 -74 -36 -90 -52 -17 -15 -36 -28 -42 -28 -6 0 -25 -16 -41 -35
-22 -27 -37 -36 -64 -37 -19 -1 -41 2 -48 7 -32 20 -155 13 -250 -13 -119 -34
-258 -35 -393 -3 -97 23 -179 26 -276 10 -62 -10 -65 -9 -89 15 l-25 25 39 33
c107 91 110 95 122 193 15 118 24 905 12 1110 -5 88 -16 223 -24 300 -11 99
-16 242 -16 493 0 392 -1 398 -65 448 -20 16 -45 45 -55 64 -34 67 -70 190
-70 243 0 30 -6 62 -14 72 -12 17 -12 22 0 39 17 24 18 178 4 331 -36 371 -32
583 11 734 16 53 22 134 34 404 l15 337 -24 48 c-41 83 -41 85 6 112 24 13 83
50 133 82 91 59 181 93 353 133 85 20 107 35 147 103 25 43 36 52 68 57 44 8
66 36 74 95 5 33 1 48 -17 72 -16 22 -23 44 -22 71 1 25 -6 52 -18 72 -28 45
-28 142 0 177 11 14 31 61 45 105 29 94 75 152 149 190 78 40 129 49 203 33z"/>
</g>
</svg>
