<?xml version="1.0" standalone="no"?>
<!DOCTYPE svg PUBLIC "-//W3C//DTD SVG 20010904//EN"
 "http://www.w3.org/TR/2001/REC-SVG-20010904/DTD/svg10.dtd">
<svg version="1.0" xmlns="http://www.w3.org/2000/svg"
 width="480.000000pt" height="672.000000pt" viewBox="0 0 480.000000 672.000000"
 preserveAspectRatio="xMidYMid meet">
<metadata>
Created by potrace 1.16, written by Peter Selinger 2001-2019
</metadata>
<g transform="translate(0.000000,672.000000) scale(0.100000,-0.100000)"
fill="none" stroke="grey" stroke-width="2">
<path d="M0 3360 l0 -3360 2400 0 2400 0 0 3360 0 3360 -2400 0 -2400 0 0
-3360z m2569 3111 c98 -50 146 -121 199 -296 32 -106 57 -300 46 -366 -7 -39
16 -140 67 -291 26 -79 28 -95 18 -120 -14 -35 -5 -142 15 -174 16 -24 57 -35
99 -27 29 6 87 64 87 88 0 26 19 16 44 -22 50 -77 58 -140 62 -498 3 -340 6
-379 48 -600 13 -71 29 -186 35 -255 16 -179 31 -366 41 -510 5 -69 14 -172
19 -229 l10 -104 -47 -96 c-36 -75 -61 -110 -111 -159 -40 -38 -71 -60 -79
-57 -28 10 -83 -7 -99 -31 -36 -55 -93 -310 -211 -944 -41 -217 -67 -459 -77
-710 -9 -215 -9 -217 -53 -227 -36 -9 -45 -19 -71 -86 -7 -17 -25 -34 -46 -43
-49 -20 -69 -54 -63 -109 6 -53 29 -91 69 -113 35 -21 37 -45 4 -84 -14 -16
-32 -53 -41 -81 -26 -86 -104 -136 -214 -137 -114 0 -160 32 -160 113 0 47
-27 78 -67 79 -21 1 -70 -17 -130 -48 -87 -43 -106 -49 -163 -49 -78 0 -137
25 -146 62 -9 36 18 111 65 178 46 65 50 91 21 128 -11 14 -20 36 -20 49 0 13
-7 33 -15 44 -9 11 -15 42 -15 79 0 61 -13 154 -49 350 -19 110 -24 136 -41
250 -9 63 -29 209 -55 405 -22 166 -21 730 1 882 15 105 15 112 -2 151 -10 23
-37 62 -60 87 -69 76 -81 179 -38 319 26 85 26 90 29 441 1 215 7 371 13 395
27 100 71 416 72 515 0 86 70 509 102 617 18 64 22 71 34 55 8 -11 10 -33 7
-63 -5 -41 -2 -50 24 -79 24 -27 37 -33 70 -33 53 0 58 4 92 72 44 85 65 226
41 270 -8 15 -2 24 31 47 27 19 50 47 68 84 15 30 41 75 59 99 18 24 32 56 32
71 0 15 7 47 15 71 12 33 15 86 15 228 -1 162 1 193 19 243 46 133 132 187
314 197 15 0 54 -12 86 -28z"/>
<path d="M2333 6313 c-28 -5 -63 -49 -63 -78 0 -13 8 -33 19 -46 15 -19 28
-23 71 -23 43 0 56 4 71 23 53 65 -8 142 -98 124z"/>
</g>
</svg>
