<?xml version="1.0" standalone="no"?>
<!DOCTYPE svg PUBLIC "-//W3C//DTD SVG 20010904//EN"
 "http://www.w3.org/TR/2001/REC-SVG-20010904/DTD/svg10.dtd">
<svg version="1.0" xmlns="http://www.w3.org/2000/svg"
 width="480.000000pt" height="672.000000pt" viewBox="0 0 480.000000 672.000000"
 preserveAspectRatio="xMidYMid meet">
<metadata>
Created by potrace 1.16, written by Peter Selinger 2001-2019
</metadata>
<g transform="translate(0.000000,672.000000) scale(0.100000,-0.100000)"
fill="none" stroke="grey" stroke-width="2">
<path d="M0 3360 l0 -3360 454 0 455 0 25 82 c41 136 64 235 86 377 12 73 30
161 41 196 18 58 79 595 79 693 0 43 -31 92 -58 92 -9 1 -37 19 -61 41 -43 38
-45 43 -58 127 -7 48 -17 173 -23 277 -5 105 -14 235 -21 290 -8 75 -8 118 0
173 8 53 8 110 1 210 -6 75 -13 144 -15 152 -3 8 -9 66 -15 129 -18 196 25
529 96 741 49 146 61 208 84 450 24 245 47 377 96 539 39 127 127 316 172 370
l28 34 -4 -35 c-3 -29 2 -41 25 -65 32 -34 115 -64 157 -56 37 7 51 33 71 128
25 117 37 140 70 143 15 1 33 6 39 10 6 5 24 9 39 10 16 1 74 17 130 36 56 20
130 40 165 47 43 8 67 18 77 33 21 28 18 93 -4 143 -11 23 -32 86 -47 140 -26
93 -31 101 -85 153 -61 59 -85 115 -91 209 -3 43 -2 44 47 71 85 48 96 72 72
165 -11 40 -11 64 -1 122 27 157 191 327 392 409 56 22 82 45 82 71 0 11 -227
13 -1250 13 l-1250 0 0 -3360z"/>
<path d="M2730 6707 c0 -20 30 -57 46 -57 27 0 94 -40 133 -80 72 -75 128
-206 163 -385 29 -151 36 -475 13 -620 -18 -117 -49 -181 -90 -187 -10 -2 -30
-18 -42 -37 -56 -82 -39 -128 52 -148 33 -8 89 -23 125 -33 36 -11 94 -26 128
-34 35 -8 72 -22 81 -30 10 -9 24 -16 31 -16 7 0 21 -6 29 -14 9 -7 59 -24
111 -36 52 -13 109 -29 125 -36 78 -32 222 -198 285 -327 21 -45 68 -167 103
-272 36 -104 90 -257 121 -338 102 -270 114 -347 76 -515 -37 -168 -102 -315
-239 -541 -45 -73 -81 -144 -81 -157 0 -14 11 -50 24 -82 36 -85 57 -202 63
-342 2 -69 13 -163 23 -210 49 -228 54 -279 37 -401 -34 -240 -47 -394 -57
-679 -8 -216 -15 -301 -25 -316 -11 -17 -27 -22 -81 -27 -55 -4 -72 -9 -87
-28 -18 -22 -19 -58 -9 -366 3 -88 2 -142 -4 -275 l-5 -118 510 0 511 0 0
3360 0 3360 -1035 0 c-833 0 -1035 -2 -1035 -13z"/>
<path d="M3402 5033 c-33 -6 -53 -44 -59 -110 -4 -47 -2 -62 14 -81 47 -59
213 7 213 84 0 56 -99 120 -168 107z"/>
<path d="M1543 2813 c-50 -9 -71 -98 -35 -143 18 -22 77 -31 102 -15 15 9 40
68 40 94 0 42 -53 74 -107 64z"/>
<path d="M1312 2398 c-36 -10 -72 -58 -72 -96 0 -29 22 -71 48 -96 24 -20 85
-24 107 -6 15 12 45 104 45 138 0 50 -61 78 -128 60z"/>
<path d="M3545 1442 c-11 -2 -28 -11 -38 -20 -25 -22 -247 -476 -247 -504 0
-13 9 -37 19 -54 15 -25 29 -33 77 -42 103 -21 177 -13 200 23 61 94 112 510
69 572 -15 22 -46 31 -80 25z"/>
<path d="M3433 753 c-27 -5 -53 -39 -53 -68 0 -30 26 -62 56 -69 14 -4 44 -18
66 -32 84 -53 158 -20 158 69 0 56 -21 84 -67 91 -70 10 -138 14 -160 9z"/>
</g>
</svg>
