<?xml version="1.0" standalone="no"?>
<!DOCTYPE svg PUBLIC "-//W3C//DTD SVG 20010904//EN"
 "http://www.w3.org/TR/2001/REC-SVG-20010904/DTD/svg10.dtd">
<svg version="1.0" xmlns="http://www.w3.org/2000/svg"
 width="640.000000pt" height="895.000000pt" viewBox="0 0 640.000000 895.000000"
 preserveAspectRatio="xMidYMid meet">
<metadata>
Created by potrace 1.16, written by Peter Selinger 2001-2019
</metadata>
<g transform="translate(0.000000,895.000000) scale(0.100000,-0.100000)"
fill="none" stroke="grey" stroke-width="2">
<path d="M0 6445 l0 -2505 40 0 c36 0 40 -3 40 -24 0 -67 92 -95 137 -41 17
19 23 39 23 71 0 32 4 44 15 44 11 0 15 -13 15 -53 0 -76 16 -93 100 -107 38
-6 88 -9 111 -5 39 7 40 6 30 -13 -6 -12 -11 -29 -11 -39 0 -15 -8 -19 -42
-19 -53 -2 -83 -33 -73 -79 3 -16 9 -54 13 -83 10 -64 28 -84 78 -84 29 0 44
6 61 27 13 14 23 33 23 41 0 8 6 14 13 14 8 0 13 -23 15 -72 3 -77 20 -118 50
-118 20 0 162 -136 162 -155 0 -7 8 -23 18 -35 14 -18 30 -23 65 -24 36 -1 47
-5 47 -17 0 -9 9 -28 20 -41 21 -27 16 -45 -7 -26 -8 6 -35 11 -60 11 -63 0
-78 -20 -86 -119 -6 -59 -4 -83 7 -100 17 -24 12 -34 -16 -34 -10 0 -30 -11
-43 -25 -21 -20 -25 -34 -25 -79 0 -74 -30 -122 -83 -131 -47 -8 -68 -39 -75
-105 -4 -48 -5 -49 -45 -56 -50 -8 -107 -60 -107 -97 0 -29 35 -77 57 -77 8 0
28 -13 43 -30 15 -16 38 -30 49 -30 18 0 20 -3 11 -19 -16 -31 -13 -163 5
-188 19 -27 58 -33 240 -37 82 -1 152 -8 170 -15 42 -17 161 -29 369 -36 98
-3 199 -10 225 -14 50 -10 165 -13 499 -15 207 -1 214 0 231 20 14 17 21 66
35 230 21 244 52 430 101 604 19 68 35 138 35 154 0 17 7 69 15 116 13 70 15
135 9 377 -7 287 -7 293 -30 325 -29 39 -30 53 -4 103 15 29 20 59 20 113 l0
73 -114 119 c-90 94 -117 127 -123 157 -12 57 -9 231 5 388 10 101 11 242 7
510 -3 204 -2 577 4 830 10 484 15 532 69 740 31 115 122 407 142 453 27 61
89 137 128 156 18 9 125 32 238 52 113 19 216 39 230 44 31 12 64 66 64 105 0
17 -12 47 -26 68 -35 52 -35 134 1 234 14 40 25 82 25 94 0 24 -24 112 -47
176 -21 58 -4 202 34 277 54 107 124 195 178 224 39 20 167 53 232 59 120 11
252 -105 298 -262 10 -33 29 -96 43 -140 24 -74 26 -96 29 -310 1 -126 4 -243
5 -259 4 -35 -32 -59 -105 -70 -53 -8 -77 -33 -77 -81 0 -41 18 -65 87 -111
68 -46 96 -75 124 -127 21 -41 40 -51 244 -137 150 -63 142 -56 176 -145 17
-44 42 -138 55 -210 13 -71 40 -213 59 -315 56 -292 58 -320 60 -595 1 -253
-18 -834 -30 -938 -3 -29 -10 -135 -15 -237 -9 -184 -8 -185 16 -239 29 -65
29 -65 3 -101 -20 -26 -21 -36 -15 -108 l7 -80 -54 -109 c-30 -60 -66 -121
-81 -136 -31 -31 -33 -60 -10 -168 10 -42 14 -84 11 -93 -9 -23 -68 -45 -192
-71 -196 -43 -189 -37 -229 -205 -87 -365 -81 -318 -82 -625 0 -176 -5 -308
-13 -355 -18 -107 -77 -337 -112 -430 -34 -94 -35 -110 -11 -140 13 -17 31
-23 72 -25 30 -2 584 -6 1230 -9 646 -3 1219 -9 1273 -12 l97 -5 0 3546 0
3545 -3200 0 -3200 0 0 -2505z m210 -2150 c0 -8 -4 -15 -10 -15 -5 0 -10 7
-10 15 0 8 5 15 10 15 6 0 10 -7 10 -15z m517 -527 c-2 -13 -4 -3 -4 22 0 25
2 35 4 23 2 -13 2 -33 0 -45z"/>
<path d="M3251 3631 c-47 -13 -59 -46 -86 -237 -35 -252 -47 -306 -104 -441
-93 -222 -134 -358 -172 -581 -26 -157 -48 -256 -70 -321 -24 -69 -24 -103 0
-132 19 -24 23 -24 222 -27 245 -4 283 0 306 34 15 23 15 45 3 258 -12 211
-11 251 5 438 18 193 18 221 3 444 -9 142 -12 268 -7 309 23 217 22 209 3 232
-21 24 -66 35 -103 24z"/>
</g>
</svg>
