<?xml version="1.0" standalone="no"?>
<!DOCTYPE svg PUBLIC "-//W3C//DTD SVG 20010904//EN"
 "http://www.w3.org/TR/2001/REC-SVG-20010904/DTD/svg10.dtd">
<svg version="1.0" xmlns="http://www.w3.org/2000/svg"
 width="480.000000pt" height="672.000000pt" viewBox="0 0 480.000000 672.000000"
 preserveAspectRatio="xMidYMid meet">
<metadata>
Created by potrace 1.16, written by Peter Selinger 2001-2019
</metadata>
<g transform="translate(0.000000,672.000000) scale(0.100000,-0.100000)"
fill="none" stroke="grey" stroke-width="2">
<path d="M0 3360 l0 -3360 2400 0 2400 0 0 3360 0 3360 -2400 0 -2400 0 0
-3360z m2590 3063 c48 -17 97 -47 118 -73 50 -60 84 -210 82 -362 0 -59 4
-117 10 -127 12 -23 4 -51 -15 -51 -7 0 -27 -13 -44 -29 -30 -29 -31 -31 -31
-124 0 -105 12 -133 70 -157 21 -9 30 -19 30 -36 0 -14 18 -42 45 -70 43 -45
47 -47 103 -48 39 0 68 6 85 17 24 16 27 15 67 -14 22 -16 54 -51 70 -77 16
-26 38 -60 50 -75 12 -15 26 -42 31 -60 34 -129 49 -195 49 -213 0 -12 11 -46
24 -75 43 -98 68 -232 73 -389 l5 -145 -30 -42 c-17 -22 -73 -75 -124 -115
-51 -41 -108 -89 -127 -107 -39 -36 -39 -32 0 -256 20 -111 23 -166 23 -380 0
-248 0 -252 -37 -445 -21 -107 -44 -235 -52 -285 -7 -49 -22 -144 -33 -210
-31 -186 -65 -530 -82 -835 -13 -217 -26 -385 -45 -560 -20 -183 -33 -371 -40
-579 -4 -96 -11 -185 -16 -198 -11 -30 -80 -62 -168 -78 -55 -11 -80 -10 -174
6 -91 16 -120 17 -171 8 -76 -14 -136 5 -136 43 0 87 24 316 44 433 29 166 66
457 101 797 27 269 33 539 15 760 -5 68 -14 197 -20 288 -14 203 -25 226 -108
211 -32 -5 -47 -31 -77 -136 -80 -279 -100 -512 -110 -1285 -12 -996 -14
-1042 -34 -1070 -10 -14 -33 -27 -52 -31 -67 -14 -386 -43 -504 -46 -66 -2
-165 -6 -220 -9 -111 -6 -146 4 -108 31 28 20 53 96 53 164 0 31 5 83 10 116
16 100 29 211 45 395 23 271 42 466 70 695 39 324 45 384 55 615 13 275 58
520 140 755 11 33 43 148 71 255 27 107 58 222 69 255 10 33 28 103 40 155 12
52 39 160 61 240 21 80 39 153 39 163 0 33 -22 61 -167 208 -168 170 -206 220
-199 264 3 17 12 77 20 135 9 65 30 147 55 215 43 121 150 357 211 470 22 39
40 83 40 97 0 14 8 32 18 40 23 20 145 78 164 78 8 0 32 14 53 30 47 37 84 38
179 6 43 -15 82 -22 99 -19 32 6 97 84 97 117 0 36 -37 86 -69 92 -38 8 -58
43 -41 74 9 17 11 67 5 192 -8 214 2 256 78 333 82 82 154 97 267 58z"/>
<path d="M3002 4522 c-12 -2 -30 -14 -38 -27 -33 -50 9 -184 58 -186 73 -4
103 23 95 87 -10 91 -51 136 -115 126z"/>
</g>
</svg>
