<?xml version="1.0" standalone="no"?>
<!DOCTYPE svg PUBLIC "-//W3C//DTD SVG 20010904//EN"
 "http://www.w3.org/TR/2001/REC-SVG-20010904/DTD/svg10.dtd">
<svg version="1.0" xmlns="http://www.w3.org/2000/svg"
 width="480.000000pt" height="672.000000pt" viewBox="0 0 480.000000 672.000000"
 preserveAspectRatio="xMidYMid meet">
<metadata>
Created by potrace 1.16, written by Peter Selinger 2001-2019
</metadata>
<g transform="translate(0.000000,672.000000) scale(0.100000,-0.100000)"
fill="none" stroke="grey" stroke-width="2">
<path d="M0 3360 l0 -3360 2400 0 2400 0 0 3360 0 3360 -2400 0 -2400 0 0
-3360z m2523 3074 c61 -21 128 -94 173 -187 36 -77 64 -199 89 -397 8 -63 17
-135 21 -160 6 -44 5 -46 -22 -48 -35 -2 -74 -44 -74 -78 0 -37 24 -88 52
-110 14 -11 28 -29 32 -41 10 -31 31 -45 73 -47 21 -1 50 -9 63 -19 13 -9 32
-17 40 -17 9 0 29 -13 45 -30 16 -16 36 -30 44 -30 25 -1 48 -41 56 -97 4 -29
15 -69 26 -90 10 -20 19 -50 19 -66 0 -16 6 -41 14 -55 17 -34 35 -99 48 -177
5 -33 16 -82 24 -109 8 -26 14 -73 14 -103 0 -44 -5 -61 -25 -85 -14 -17 -35
-49 -46 -70 l-20 -40 20 -107 c29 -149 39 -241 46 -436 3 -93 13 -219 22 -280
8 -60 19 -146 23 -190 4 -44 14 -117 23 -162 l16 -82 -35 -76 c-25 -54 -43
-79 -64 -90 -57 -29 -57 -32 -64 -390 -4 -181 -9 -440 -12 -575 -4 -135 -7
-272 -8 -305 -1 -39 -7 -69 -19 -85 -9 -13 -17 -38 -17 -54 0 -20 -12 -42 -40
-72 -22 -24 -40 -49 -40 -56 0 -7 -28 -22 -63 -32 -34 -10 -66 -21 -72 -24 -5
-3 -28 -7 -50 -8 -90 -4 -130 -14 -152 -39 -27 -31 -44 -91 -42 -148 1 -23 -1
-94 -6 -157 -5 -82 -4 -124 5 -145 24 -60 62 -261 60 -319 -2 -68 -25 -111
-69 -127 -60 -23 -185 -41 -222 -31 -46 12 -85 5 -102 -17 -7 -9 -25 -21 -42
-26 -19 -7 -37 -24 -50 -48 -28 -51 -137 -98 -236 -100 -92 -3 -103 9 -101
101 2 62 8 79 61 183 88 172 105 238 97 379 -4 88 -16 155 -49 286 -24 95 -51
183 -60 197 -20 31 -61 39 -109 22 -33 -11 -42 -10 -76 6 -20 10 -50 20 -65
21 -15 1 -27 3 -27 5 0 1 4 13 10 28 5 14 12 71 15 127 4 56 10 109 14 117 5
9 11 90 14 181 4 120 10 176 22 204 9 22 14 51 12 65 -3 14 1 37 8 52 8 15 13
53 13 90 -1 35 1 82 6 104 5 27 2 54 -9 84 -12 34 -13 65 -8 145 12 165 5 264
-21 313 -8 17 -38 51 -65 74 -49 43 -67 82 -98 214 -2 12 4 68 15 125 16 86
19 139 16 295 -1 105 -7 222 -13 260 -15 101 -13 240 5 358 9 60 16 172 17
272 1 188 6 169 -82 325 -23 40 -29 70 -31 153 0 16 10 41 25 58 14 17 25 39
25 49 0 10 7 20 15 23 8 4 27 25 42 49 15 24 47 67 70 96 24 30 43 64 43 76 0
13 9 31 19 40 11 10 25 31 31 47 7 16 19 29 27 29 8 0 28 7 46 16 22 12 61 17
127 18 130 3 174 17 206 66 20 30 25 47 20 67 -4 16 -10 46 -15 68 -4 23 -11
47 -15 54 -9 14 -18 197 -17 365 0 96 3 115 26 161 24 50 92 126 131 148 20
12 117 34 155 36 14 0 46 -6 72 -15z"/>
<path d="M2303 1359 c-56 -16 -64 -40 -56 -168 8 -144 23 -167 110 -162 44 2
70 74 80 217 4 58 1 74 -14 91 -21 26 -75 36 -120 22z"/>
</g>
</svg>
