<?xml version="1.0" standalone="no"?>
<!DOCTYPE svg PUBLIC "-//W3C//DTD SVG 20010904//EN"
 "http://www.w3.org/TR/2001/REC-SVG-20010904/DTD/svg10.dtd">
<svg version="1.0" xmlns="http://www.w3.org/2000/svg"
 width="640.000000pt" height="895.000000pt" viewBox="0 0 640.000000 895.000000"
 preserveAspectRatio="xMidYMid meet">
<metadata>
Created by potrace 1.16, written by Peter Selinger 2001-2019
</metadata>
<g transform="translate(0.000000,895.000000) scale(0.100000,-0.100000)"
fill="none" stroke="grey" stroke-width="2">
<path d="M0 4475 l0 -4475 3200 0 3200 0 0 4475 0 4475 -3200 0 -3200 0 0
-4475z m3405 3952 c54 -17 80 -32 115 -67 65 -65 108 -156 121 -260 11 -85 18
-111 41 -142 15 -21 -2 -116 -35 -192 -19 -45 -19 -51 -6 -88 14 -38 14 -44
-4 -79 -11 -22 -25 -39 -33 -39 -7 0 -21 -12 -30 -27 -10 -16 -32 -51 -51 -78
-38 -58 -41 -91 -12 -154 20 -46 51 -114 73 -161 23 -49 101 -44 126 7 13 27
19 31 40 26 14 -3 34 -12 45 -18 24 -15 85 -30 220 -55 61 -11 124 -31 160
-49 57 -28 63 -35 93 -98 37 -80 53 -134 87 -302 27 -132 32 -225 21 -359 -4
-50 -2 -99 4 -123 9 -32 8 -43 -6 -64 -15 -23 -16 -44 -10 -156 3 -76 14 -162
26 -207 35 -135 41 -258 39 -807 l-1 -530 27 -144 c22 -117 25 -152 16 -185
-5 -23 -13 -61 -16 -86 -9 -68 -37 -118 -109 -198 l-66 -73 1 -577 c1 -524 13
-1301 21 -1361 2 -20 -3 -26 -30 -33 -21 -6 -40 -21 -56 -46 -40 -63 -63 -80
-122 -93 -37 -8 -61 -20 -70 -35 -21 -32 -74 -308 -74 -388 0 -57 5 -77 27
-115 64 -110 149 -205 233 -258 68 -43 229 -172 240 -193 6 -10 10 -29 10 -42
0 -29 -23 -95 -37 -109 -30 -30 -294 -13 -402 26 -21 7 -55 16 -75 19 -19 3
-74 14 -122 25 -79 18 -92 18 -155 5 -81 -17 -85 -15 -170 62 -60 54 -91 66
-155 58 -27 -3 -47 -13 -64 -33 -14 -17 -41 -41 -61 -54 -32 -21 -45 -24 -121
-22 -47 1 -90 5 -96 8 -5 4 -37 8 -71 11 -84 5 -124 33 -152 106 -30 75 -67
140 -97 169 -22 22 -23 25 -8 36 9 7 41 20 71 30 50 15 63 26 125 100 37 45
75 97 82 116 10 23 15 82 16 179 1 131 -1 156 -27 259 -16 63 -36 120 -43 128
-8 7 -44 22 -80 32 -59 17 -71 18 -124 5 -33 -7 -77 -16 -99 -19 -22 -4 -58
-10 -80 -15 -65 -15 -124 -11 -228 15 -54 14 -106 25 -115 25 -10 0 -26 6 -36
13 -17 12 -17 16 -2 67 25 84 36 474 36 1256 0 670 -1 693 -20 717 -11 13 -35
32 -55 41 -41 20 -62 56 -76 134 -6 31 -17 68 -24 83 -11 21 -12 46 -4 119 5
52 11 192 13 312 3 119 7 221 10 226 3 5 10 145 16 311 11 314 27 468 60 593
70 259 70 258 70 380 0 66 -4 127 -8 136 -14 30 4 461 22 522 50 166 71 229
87 262 23 45 77 108 93 108 6 0 47 11 91 24 44 14 105 33 135 42 30 8 91 34
134 56 70 35 82 38 102 27 32 -17 82 -14 105 6 29 27 79 159 91 245 13 88 4
128 -33 137 -28 8 -49 54 -49 111 0 32 -6 58 -18 73 -29 39 -43 79 -49 144 -5
58 -4 63 22 87 24 23 29 38 41 128 20 155 72 249 171 307 97 56 175 62 308 20z"/>
<path d="M3293 1702 c-13 -2 -32 -15 -43 -29 -17 -22 -20 -41 -20 -128 0 -66
5 -118 15 -145 8 -23 15 -60 15 -81 0 -21 6 -58 13 -81 31 -96 39 -151 33
-207 -8 -71 6 -92 78 -116 89 -29 143 1 162 90 3 16 15 47 26 68 23 45 44 208
53 415 7 166 2 185 -62 197 -47 9 -240 21 -270 17z"/>
</g>
</svg>
