<?xml version="1.0" standalone="no"?>
<!DOCTYPE svg PUBLIC "-//W3C//DTD SVG 20010904//EN"
 "http://www.w3.org/TR/2001/REC-SVG-20010904/DTD/svg10.dtd">
<svg version="1.0" xmlns="http://www.w3.org/2000/svg"
 width="640.000000pt" height="895.000000pt" viewBox="0 0 640.000000 895.000000"
 preserveAspectRatio="xMidYMid meet">
<metadata>
Created by potrace 1.16, written by Peter Selinger 2001-2019
</metadata>
<g transform="translate(0.000000,895.000000) scale(0.100000,-0.100000)"
fill="none" stroke="grey" stroke-width="2">
<path d="M0 4475 l0 -4475 3200 0 3200 0 0 4475 0 4475 -3200 0 -3200 0 0
-4475z m3320 4139 c117 -59 185 -162 220 -336 16 -77 24 -96 51 -120 31 -29
31 -30 24 -95 -9 -83 -15 -100 -60 -159 -36 -46 -39 -62 -24 -113 3 -9 -8 -17
-28 -23 -19 -5 -43 -24 -63 -51 -32 -42 -32 -42 -27 -142 3 -70 11 -117 26
-157 30 -79 48 -98 96 -102 22 -2 72 -19 110 -38 39 -20 114 -47 169 -62 134
-36 249 -91 317 -154 67 -61 120 -158 169 -307 18 -55 41 -121 51 -147 24 -59
24 -64 -5 -98 -34 -41 -40 -142 -21 -400 17 -248 21 -277 46 -385 41 -174 47
-511 20 -1170 -6 -130 -6 -242 0 -275 5 -31 10 -103 11 -161 2 -83 -1 -114
-15 -150 -36 -87 -82 -171 -104 -189 -19 -15 -178 -85 -235 -103 -44 -15 -48
-39 -53 -338 -3 -156 -12 -526 -22 -821 l-17 -537 -46 -18 c-37 -15 -74 -18
-208 -18 l-164 0 -29 -33 c-16 -18 -29 -39 -29 -48 0 -18 -113 -432 -135 -495
-9 -24 -20 -108 -25 -189 -9 -142 -9 -146 14 -195 13 -27 43 -97 67 -155 37
-92 42 -114 42 -181 0 -72 -23 -149 -43 -149 -4 0 -40 -30 -79 -66 -65 -60
-73 -65 -103 -59 -62 14 -159 76 -187 120 -25 40 -26 46 -20 126 15 172 12
214 -22 296 -39 93 -37 165 5 227 53 79 68 152 79 398 9 205 9 229 -6 252 -22
32 -67 39 -242 35 -176 -5 -170 1 -180 -181 -3 -73 -4 -212 -1 -308 5 -180 14
-232 66 -375 17 -47 20 -73 16 -120 -5 -54 -10 -63 -43 -92 -21 -18 -48 -41
-60 -52 -31 -28 -30 -75 2 -107 l26 -26 -22 -63 c-12 -35 -29 -70 -38 -78 -9
-7 -52 -23 -96 -36 -44 -12 -98 -31 -120 -41 -53 -25 -129 -44 -305 -74 -80
-14 -161 -30 -180 -36 -52 -15 -66 -13 -83 14 -19 28 -16 34 74 168 31 46 69
105 84 132 17 28 58 73 100 107 82 68 111 105 186 244 53 99 53 101 57 200 3
89 -2 128 -48 360 -29 143 -59 270 -66 282 -8 13 -22 23 -32 23 -9 0 -31 9
-48 19 l-31 19 -5 526 c-3 290 -2 547 3 572 5 24 10 226 13 447 l4 402 -45 41
c-24 23 -67 52 -94 65 -44 20 -53 30 -80 87 -31 65 -39 87 -64 178 -15 56 -7
221 15 323 7 31 9 75 5 105 -3 28 -5 62 -4 76 1 14 1 189 0 390 -2 336 0 381
23 560 14 107 34 224 45 259 32 98 39 165 46 456 l7 271 -34 44 c-52 69 -52
68 -25 108 14 20 43 80 63 132 40 99 127 239 188 302 60 62 160 114 261 136
166 36 249 51 344 61 52 6 100 16 107 23 31 31 57 125 62 220 l5 97 -31 30
c-17 17 -40 31 -51 31 -27 0 -40 26 -34 70 4 26 -2 50 -20 86 -48 95 -53 187
-13 235 24 28 26 38 25 117 -1 67 3 100 20 142 21 56 80 135 134 179 48 40
143 69 224 70 63 0 81 -4 143 -35z"/>
<path d="M3102 8536 c-75 -19 -93 -72 -44 -127 22 -24 36 -31 65 -31 21 0 46
7 56 16 10 9 25 16 34 16 20 0 47 38 47 66 0 57 -70 83 -158 60z"/>
</g>
</svg>
