<?xml version="1.0" standalone="no"?>
<!DOCTYPE svg PUBLIC "-//W3C//DTD SVG 20010904//EN"
 "http://www.w3.org/TR/2001/REC-SVG-20010904/DTD/svg10.dtd">
<svg version="1.0" xmlns="http://www.w3.org/2000/svg"
 width="480.000000pt" height="672.000000pt" viewBox="0 0 480.000000 672.000000"
 preserveAspectRatio="xMidYMid meet">
<metadata>
Created by potrace 1.16, written by Peter Selinger 2001-2019
</metadata>
<g transform="translate(0.000000,672.000000) scale(0.100000,-0.100000)"
fill="none" stroke="grey" stroke-width="2">
<path d="M0 3360 l0 -3360 2400 0 2400 0 0 3360 0 3360 -2400 0 -2400 0 0
-3360z m2504 3080 c62 -31 112 -90 131 -154 27 -89 41 -259 26 -315 -7 -28
-10 -64 -6 -81 8 -34 -6 -57 -42 -71 -12 -4 -30 -20 -39 -34 -15 -24 -16 -33
-4 -98 12 -62 19 -77 51 -108 20 -20 45 -51 54 -68 9 -18 23 -35 31 -38 26
-10 14 -21 -35 -33 -27 -6 -64 -22 -82 -36 -18 -13 -39 -24 -46 -24 -29 0 -63
-48 -63 -87 0 -56 21 -81 78 -88 26 -4 64 -11 84 -16 47 -12 174 15 204 43 12
10 30 37 40 59 11 25 29 46 48 55 40 19 70 37 89 52 24 20 55 -15 80 -88 20
-56 28 -67 59 -82 29 -14 43 -32 72 -92 20 -41 43 -103 52 -138 9 -35 31 -108
49 -163 40 -122 67 -297 58 -380 -8 -85 -69 -170 -129 -181 -65 -12 -68 -24
-69 -237 -1 -106 -7 -307 -14 -447 -8 -159 -9 -276 -4 -310 6 -34 5 -68 -1
-88 -14 -50 2 -178 115 -912 11 -74 27 -180 35 -235 8 -55 19 -120 24 -145 9
-42 7 -47 -18 -70 -30 -28 -206 -90 -312 -111 -88 -17 -110 -40 -110 -114 0
-68 -1 -68 -154 -83 -67 -7 -114 -16 -123 -25 -15 -15 -113 -395 -113 -437 0
-14 4 -31 9 -39 6 -10 4 -25 -5 -42 -8 -17 -14 -58 -14 -104 0 -44 -6 -87 -14
-103 -7 -15 -16 -66 -20 -114 -6 -83 -5 -88 20 -118 24 -28 26 -35 16 -63 -48
-143 -59 -151 -203 -162 -31 -2 -61 -5 -65 -6 -25 -6 -102 15 -111 30 -19 31
-19 128 0 149 23 25 94 191 102 239 4 21 16 67 26 102 10 35 19 85 19 112 0
26 7 69 16 95 13 38 15 84 12 243 -4 233 -8 246 -85 256 -27 4 -81 13 -121 21
-127 25 -171 2 -191 -99 -22 -109 -51 -345 -51 -405 0 -43 6 -75 20 -102 11
-22 23 -61 26 -87 4 -27 13 -58 20 -70 20 -32 18 -50 -12 -100 -18 -31 -27
-64 -31 -114 -5 -62 -3 -73 16 -100 25 -34 23 -61 -10 -126 -31 -62 -125 -122
-233 -149 -84 -21 -141 -9 -157 34 -15 38 -1 116 27 154 100 139 138 371 93
578 -14 64 -35 198 -64 394 -25 177 -37 210 -83 228 -87 34 -92 37 -92 66 0
41 -22 65 -79 87 -28 11 -62 29 -76 40 l-24 20 20 80 c10 44 40 170 65 280 56
249 111 458 143 550 24 70 61 223 61 255 0 28 -10 43 -56 88 l-56 54 -14 92
c-13 89 -13 93 12 171 14 44 29 118 34 165 5 47 13 123 19 170 6 47 15 149 21
227 6 79 17 178 25 220 26 137 16 184 -43 196 -67 13 -138 110 -148 201 -4 37
1 81 20 160 28 114 105 314 137 355 11 13 19 29 19 36 0 15 63 109 98 148 15
15 40 31 57 35 23 6 36 20 56 57 22 43 29 49 50 46 13 -3 36 -5 52 -5 23 -1
27 -5 27 -31 0 -43 25 -73 65 -81 20 -3 38 -10 40 -15 6 -8 36 -13 155 -25
114 -12 152 -9 171 15 9 11 22 21 27 21 18 0 52 52 52 79 0 61 -47 173 -80
191 -24 13 -26 44 -5 93 31 74 6 167 -45 167 -10 0 -21 8 -25 18 -11 27 -19
154 -19 317 -1 139 1 153 22 194 72 134 210 178 346 111z"/>
</g>
</svg>
