<?xml version="1.0" standalone="no"?>
<!DOCTYPE svg PUBLIC "-//W3C//DTD SVG 20010904//EN"
 "http://www.w3.org/TR/2001/REC-SVG-20010904/DTD/svg10.dtd">
<svg version="1.0" xmlns="http://www.w3.org/2000/svg"
 width="480.000000pt" height="672.000000pt" viewBox="0 0 480.000000 672.000000"
 preserveAspectRatio="xMidYMid meet">
<metadata>
Created by potrace 1.16, written by Peter Selinger 2001-2019
</metadata>
<g transform="translate(0.000000,672.000000) scale(0.100000,-0.100000)"
fill="none" stroke="grey" stroke-width="2">
<path d="M0 3360 l0 -3360 2400 0 2400 0 0 3360 0 3360 -2400 0 -2400 0 0
-3360z m2358 3025 c64 -19 116 -63 146 -124 26 -51 57 -210 59 -300 1 -49 -2
-62 -26 -90 -23 -28 -27 -42 -27 -94 0 -77 22 -163 49 -191 12 -12 21 -34 21
-48 0 -14 8 -36 18 -48 24 -29 112 -36 265 -21 177 19 213 2 246 -112 7 -23
21 -60 32 -82 10 -22 19 -47 19 -55 0 -9 6 -24 14 -35 18 -27 56 -152 56 -184
0 -15 7 -36 15 -48 12 -17 13 -30 4 -75 -10 -47 -20 -303 -20 -473 1 -33 1
-105 1 -160 1 -129 -16 -328 -40 -480 -11 -66 -19 -160 -19 -210 0 -49 -2
-101 -5 -115 -4 -14 -3 -54 2 -89 12 -86 -6 -172 -44 -213 -16 -17 -52 -48
-81 -69 -29 -22 -58 -49 -65 -62 -9 -16 -11 -99 -9 -322 2 -265 5 -317 27
-444 30 -175 60 -310 76 -346 10 -22 9 -31 -7 -57 -22 -38 -27 -96 -55 -570
-29 -504 -17 -718 50 -848 25 -49 27 -131 4 -170 -19 -31 -72 -60 -109 -60
-44 0 -130 39 -164 74 -30 30 -33 38 -26 68 5 18 8 91 9 163 1 128 0 131 -34
208 -28 64 -32 81 -22 95 13 18 19 31 48 100 17 41 17 46 -5 170 -35 198 -98
419 -127 443 -39 32 -198 -12 -224 -61 -8 -14 -13 -78 -14 -169 l-1 -146 43
-80 c23 -45 42 -85 42 -91 0 -6 -14 -39 -31 -74 l-32 -63 7 -151 c6 -135 5
-155 -12 -187 -10 -19 -23 -34 -30 -31 -6 2 -49 -4 -96 -13 -73 -13 -90 -14
-118 -2 -48 20 -57 37 -60 104 -2 47 1 65 15 81 28 31 76 157 89 233 9 57 8
87 -6 171 -18 112 -56 233 -81 257 -11 11 -41 16 -117 17 -225 5 -359 33 -450
94 -32 21 -63 40 -70 42 -9 3 -7 26 9 94 47 194 116 613 147 894 34 298 37
370 23 472 -17 118 -31 144 -89 153 -59 10 -125 59 -133 99 -3 17 -11 53 -18
79 -9 40 -8 58 6 110 25 89 44 189 56 287 38 335 94 691 127 804 18 63 18 117
-1 207 -12 57 -13 84 -5 131 6 33 11 85 10 116 -3 129 74 419 120 454 15 11
94 32 200 54 96 20 181 41 188 47 24 19 62 109 62 146 0 29 -9 49 -35 82 -19
24 -42 66 -50 93 -8 28 -24 59 -34 70 -20 22 -26 65 -37 262 -7 115 6 159 66
228 65 74 148 93 258 61z"/>
</g>
</svg>
