<?xml version="1.0" standalone="no"?>
<!DOCTYPE svg PUBLIC "-//W3C//DTD SVG 20010904//EN"
 "http://www.w3.org/TR/2001/REC-SVG-20010904/DTD/svg10.dtd">
<svg version="1.0" xmlns="http://www.w3.org/2000/svg"
 width="480.000000pt" height="672.000000pt" viewBox="0 0 480.000000 672.000000"
 preserveAspectRatio="xMidYMid meet">
<metadata>
Created by potrace 1.16, written by Peter Selinger 2001-2019
</metadata>
<g transform="translate(0.000000,672.000000) scale(0.100000,-0.100000)"
fill="none" stroke="grey" stroke-width="2">
<path d="M0 3360 l0 -3360 2400 0 2400 0 0 3360 0 3360 -2400 0 -2400 0 0
-3360z m2469 3091 c107 -55 177 -218 202 -471 6 -63 20 -140 30 -170 32 -89
39 -130 27 -156 -9 -18 -6 -39 11 -93 25 -80 37 -93 85 -93 73 0 116 13 133
40 9 15 18 29 19 31 2 2 17 -7 34 -19 46 -33 133 -218 167 -355 27 -108 28
-115 29 -445 1 -195 6 -379 13 -440 14 -113 9 -242 -14 -419 -7 -58 -16 -221
-20 -361 -3 -140 -10 -271 -15 -290 -5 -19 -11 -46 -14 -60 -9 -43 -56 -105
-103 -135 -68 -42 -83 -74 -83 -172 0 -44 -9 -134 -21 -200 -66 -378 -63 -344
-64 -819 0 -356 -3 -445 -14 -458 -8 -9 -38 -23 -68 -32 -32 -9 -59 -24 -68
-38 -8 -12 -29 -87 -46 -167 -27 -130 -30 -158 -27 -289 3 -140 4 -148 35
-210 18 -36 39 -91 48 -122 8 -31 26 -69 39 -85 19 -22 25 -45 31 -110 l7 -83
-28 -10 c-35 -14 -203 -25 -237 -16 -37 9 -97 64 -97 88 0 47 -134 120 -192
105 -21 -6 -117 7 -181 24 -38 10 -39 11 -34 47 13 88 21 109 53 143 36 37 70
94 129 216 32 65 35 80 35 160 0 92 -38 278 -65 319 -15 23 -97 44 -169 44
-23 0 -105 10 -184 22 l-143 23 6 90 c17 292 27 609 28 970 2 471 6 449 -89
491 -40 17 -60 34 -80 66 -14 24 -37 54 -50 68 -22 25 -23 26 -8 105 7 44 18
125 24 180 5 55 16 147 24 205 8 58 17 170 20 250 11 228 43 450 83 570 25 73
25 84 27 370 2 234 6 311 19 370 27 119 31 125 80 127 46 1 57 11 110 102 18
30 39 58 47 62 8 4 51 24 95 43 121 54 129 59 140 89 12 37 -10 78 -50 92 -68
23 -64 10 -81 263 -14 214 -14 236 1 289 20 69 54 131 103 185 45 50 83 69
152 78 93 12 119 11 159 -9z"/>
</g>
</svg>
