<?xml version="1.0" standalone="no"?>
<!DOCTYPE svg PUBLIC "-//W3C//DTD SVG 20010904//EN"
 "http://www.w3.org/TR/2001/REC-SVG-20010904/DTD/svg10.dtd">
<svg version="1.0" xmlns="http://www.w3.org/2000/svg"
 width="480.000000pt" height="672.000000pt" viewBox="0 0 480.000000 672.000000"
 preserveAspectRatio="xMidYMid meet">
<metadata>
Created by potrace 1.16, written by Peter Selinger 2001-2019
</metadata>
<g transform="translate(0.000000,672.000000) scale(0.100000,-0.100000)"
fill="none" stroke="grey" stroke-width="2">
<path d="M0 3360 l0 -3360 2400 0 2400 0 0 3360 0 3360 -2400 0 -2400 0 0
-3360z m2601 3042 c48 -31 91 -77 116 -126 38 -72 45 -129 52 -386 3 -140 9
-260 13 -265 3 -6 11 -45 17 -88 12 -88 30 -130 72 -169 21 -20 29 -36 29 -61
0 -51 27 -79 75 -79 28 0 44 6 56 21 16 19 18 19 32 3 44 -50 81 -194 97 -377
25 -285 58 -468 114 -643 30 -92 64 -214 76 -272 13 -58 38 -175 57 -260 19
-85 41 -191 50 -235 9 -44 28 -135 43 -202 26 -119 26 -122 9 -155 -10 -18
-28 -57 -39 -87 -24 -62 -68 -116 -118 -147 -40 -25 -68 -21 -97 12 -11 12
-29 24 -40 25 -40 5 -103 -13 -123 -34 -42 -45 -98 -201 -182 -506 -43 -160
-50 -196 -50 -277 0 -228 -70 -506 -227 -899 -33 -82 -37 -103 -45 -235 -8
-133 -7 -149 12 -210 12 -36 27 -81 33 -100 50 -159 7 -273 -112 -299 -54 -11
-130 -7 -163 10 -27 14 -76 94 -68 110 4 8 11 57 15 109 6 85 4 98 -12 117
-18 21 -35 27 -80 24 -31 -2 -113 -125 -113 -171 0 -11 18 -40 39 -63 l40 -43
-30 -53 c-48 -89 -74 -116 -151 -157 -67 -35 -80 -39 -150 -39 -63 0 -82 4
-105 21 -27 21 -28 25 -26 91 3 79 36 160 102 250 60 82 98 205 106 344 7 111
6 121 -24 227 -27 96 -67 327 -102 597 -8 58 -7 112 1 195 10 90 10 130 0 185
-24 139 -36 429 -25 606 l7 108 -75 79 c-42 44 -82 95 -90 113 -26 64 -29 137
-8 234 17 82 18 110 10 310 -4 121 -11 247 -14 280 -4 33 2 155 12 270 19 221
20 343 8 644 -8 193 7 374 41 494 12 41 54 -39 47 -89 -10 -67 62 -98 141 -60
56 26 60 43 43 195 l-15 134 43 56 c23 31 58 88 78 126 101 195 106 209 122
310 51 329 84 403 214 487 40 25 54 28 131 28 77 0 91 -3 131 -28z"/>
<path d="M2373 6253 c-28 -6 -63 -49 -63 -77 0 -55 59 -85 131 -66 95 26 90
134 -6 144 -22 2 -50 2 -62 -1z"/>
<path d="M2344 2282 c-33 -5 -53 -33 -73 -104 -10 -35 -26 -78 -35 -96 -9 -17
-16 -45 -16 -62 0 -37 36 -150 55 -169 17 -18 84 -17 102 2 16 16 46 172 58
300 9 107 -15 141 -91 129z"/>
<path d="M2305 1532 c-11 -2 -25 -8 -31 -13 -15 -12 -58 -151 -78 -254 -62
-312 -66 -360 -41 -405 8 -14 14 -37 15 -51 0 -42 30 -71 72 -71 20 0 42 3 48
7 20 13 37 67 50 160 7 50 22 115 33 145 28 75 38 416 14 454 -16 24 -47 35
-82 28z"/>
</g>
</svg>
