<?xml version="1.0" standalone="no"?>
<!DOCTYPE svg PUBLIC "-//W3C//DTD SVG 20010904//EN"
 "http://www.w3.org/TR/2001/REC-SVG-20010904/DTD/svg10.dtd">
<svg version="1.0" xmlns="http://www.w3.org/2000/svg"
 width="640.000000pt" height="895.000000pt" viewBox="0 0 640.000000 895.000000"
 preserveAspectRatio="xMidYMid meet">
<metadata>
Created by potrace 1.16, written by Peter Selinger 2001-2019
</metadata>
<g transform="translate(0.000000,895.000000) scale(0.100000,-0.100000)"
fill="none" stroke="grey" stroke-width="2">
<path d="M0 4475 l0 -4475 3200 0 3200 0 0 4475 0 4475 -3200 0 -3200 0 0
-4475z m3064 4155 c160 -24 220 -86 386 -402 140 -266 148 -297 114 -418 -25
-87 -22 -157 11 -328 34 -180 43 -192 160 -227 46 -14 103 -29 127 -34 30 -5
42 -12 39 -22 -17 -63 -21 -115 -12 -136 6 -13 11 -34 11 -47 0 -44 31 -69 85
-69 39 0 52 4 68 24 12 14 31 24 49 25 25 1 32 -5 52 -45 72 -143 110 -319
136 -631 11 -129 48 -455 60 -530 5 -30 9 -83 9 -117 1 -34 8 -106 18 -159 14
-86 14 -118 4 -254 -7 -85 -24 -240 -38 -345 -33 -238 -35 -398 -6 -547 15
-82 18 -112 9 -126 -6 -11 -30 -55 -53 -98 -34 -65 -54 -91 -114 -139 -39 -33
-84 -70 -98 -82 l-26 -21 -9 -334 c-4 -183 -9 -418 -9 -523 -1 -176 1 -197 26
-289 15 -54 27 -117 27 -140 0 -22 11 -93 24 -156 43 -206 51 -276 37 -307 -7
-15 -15 -66 -17 -113 -2 -47 -8 -191 -14 -320 -18 -403 -18 -422 -4 -535 20
-156 22 -163 65 -231 21 -34 49 -90 63 -124 40 -97 158 -244 230 -285 11 -6
24 -40 37 -95 11 -47 22 -95 26 -107 16 -66 -31 -103 -134 -103 -88 0 -272 65
-345 122 -20 15 -65 42 -100 59 -62 30 -74 37 -157 92 -52 34 -69 67 -53 102
7 14 20 25 31 25 25 0 51 36 51 71 0 14 -13 43 -29 63 -40 50 -50 139 -25 222
26 88 22 171 -14 304 -17 63 -45 174 -63 245 -18 72 -44 159 -59 195 -27 63
-101 231 -124 279 -15 33 -49 41 -189 44 -118 2 -119 2 -142 -25 -20 -23 -24
-42 -30 -133 -4 -58 -4 -185 0 -283 6 -150 10 -186 30 -237 13 -33 26 -87 29
-120 3 -33 11 -87 17 -120 7 -33 12 -109 13 -170 1 -106 13 -168 50 -245 7
-16 10 -56 6 -112 -5 -91 -12 -103 -84 -145 -37 -22 -154 -15 -221 12 -33 14
-65 25 -71 25 -5 0 -25 16 -44 35 -19 19 -40 35 -47 35 -6 0 -15 17 -18 38
-10 59 -47 142 -72 162 -13 10 -23 21 -23 24 0 4 26 18 58 32 80 36 99 57 123
138 23 75 23 104 0 346 -7 85 -14 108 -65 220 -32 69 -75 172 -95 230 -63 173
-121 304 -145 326 -26 23 -123 45 -306 69 -167 22 -261 44 -266 64 -3 9 -12
30 -20 46 -12 25 -13 60 -4 220 15 281 24 955 15 1149 -8 194 -14 208 -96 221
-55 9 -124 52 -182 114 -36 39 -47 58 -52 97 -4 27 -17 71 -28 98 l-20 48 26
117 c35 155 47 225 47 280 0 25 14 111 30 191 16 80 41 224 56 320 37 252 68
392 125 553 79 223 79 226 90 447 19 418 44 580 115 744 44 104 96 166 170
202 31 15 58 33 61 40 2 6 24 15 48 19 49 7 91 46 101 93 3 15 14 43 25 63 27
52 24 86 -16 172 -46 99 -46 148 1 393 20 104 39 245 44 314 10 145 29 210 88
296 47 70 131 151 164 158 23 6 82 11 148 14 19 1 66 -3 104 -8z"/>
</g>
</svg>
