<?xml version="1.0" standalone="no"?>
<!DOCTYPE svg PUBLIC "-//W3C//DTD SVG 20010904//EN"
 "http://www.w3.org/TR/2001/REC-SVG-20010904/DTD/svg10.dtd">
<svg version="1.0" xmlns="http://www.w3.org/2000/svg"
 width="480.000000pt" height="672.000000pt" viewBox="0 0 480.000000 672.000000"
 preserveAspectRatio="xMidYMid meet">
<metadata>
Created by potrace 1.16, written by Peter Selinger 2001-2019
</metadata>
<g transform="translate(0.000000,672.000000) scale(0.100000,-0.100000)"
fill="none" stroke="grey" stroke-width="2">
<path d="M0 3360 l0 -3360 2400 0 2400 0 0 3360 0 3360 -2400 0 -2400 0 0
-3360z m2455 3075 c103 -18 172 -96 210 -240 9 -36 25 -69 40 -83 45 -41 31
-138 -29 -209 -32 -38 -60 -140 -53 -194 3 -20 14 -56 25 -81 18 -41 28 -50
123 -101 62 -33 128 -60 164 -67 234 -46 253 -57 306 -174 93 -204 92 -204 95
-546 1 -168 5 -393 9 -501 8 -208 6 -235 -46 -719 -7 -74 -8 -134 0 -202 9
-89 8 -104 -11 -160 -29 -85 -59 -128 -127 -182 -32 -25 -63 -58 -69 -73 -6
-15 -18 -109 -28 -208 -14 -150 -16 -236 -10 -515 15 -723 27 -914 61 -980 8
-16 15 -34 15 -40 0 -20 -43 -48 -83 -55 -83 -15 -106 -63 -107 -230 0 -149
38 -255 140 -391 l60 -79 0 -83 0 -83 -37 -16 c-52 -21 -167 -21 -217 1 -74
31 -99 59 -135 145 -21 51 -43 89 -58 98 -18 12 -55 17 -141 18 -136 3 -282
19 -310 34 -12 7 -22 25 -25 48 -3 21 -9 53 -13 71 -5 25 0 46 17 82 13 27 29
49 35 50 42 1 72 102 73 249 1 81 -2 102 -16 119 -19 20 -132 49 -283 73 -116
17 -172 36 -221 71 -47 34 -97 41 -189 25 -59 -10 -73 -1 -60 43 5 19 17 165
25 324 8 160 22 383 30 496 39 554 48 731 37 754 -6 13 -35 38 -64 55 -30 16
-59 41 -65 53 -24 50 -50 155 -47 183 2 17 9 120 14 230 30 641 42 751 100
924 16 49 34 117 39 152 23 144 41 319 41 404 0 101 17 180 55 255 14 27 25
58 25 69 0 12 19 33 48 53 61 43 99 61 196 87 79 22 140 57 185 105 14 14 30
26 37 26 7 0 22 12 33 26 32 40 27 90 -14 151 -19 28 -37 64 -40 79 -4 16 -23
62 -43 103 -40 79 -39 76 -28 259 10 161 84 263 216 298 25 7 52 11 60 9 8 -2
33 -6 55 -10z"/>
</g>
</svg>
