<?xml version="1.0" standalone="no"?>
<!DOCTYPE svg PUBLIC "-//W3C//DTD SVG 20010904//EN"
 "http://www.w3.org/TR/2001/REC-SVG-20010904/DTD/svg10.dtd">
<svg version="1.0" xmlns="http://www.w3.org/2000/svg"
 width="1024.000000pt" height="1432.000000pt" viewBox="0 0 1024.000000 1432.000000"
 preserveAspectRatio="xMidYMid meet">
<metadata>
Created by potrace 1.16, written by Peter Selinger 2001-2019
</metadata>
<g transform="translate(0.000000,1432.000000) scale(0.100000,-0.100000)"
fill="none" stroke="grey" stroke-width="2">
<path d="M0 7160 l0 -7160 5120 0 5120 0 0 7160 0 7160 -5120 0 -5120 0 0
-7160z m5250 6457 c82 -31 102 -44 145 -90 135 -143 224 -338 225 -487 0 -62
20 -100 51 -100 11 0 28 -14 40 -32 18 -29 20 -45 16 -138 -4 -116 -17 -152
-81 -229 -42 -50 -38 -36 -40 -141 -2 -49 -9 -105 -19 -133 -24 -67 -22 -86
16 -142 89 -132 127 -214 127 -271 0 -49 32 -94 68 -94 10 0 27 -9 37 -20 23
-26 82 -42 169 -46 38 -2 71 -6 74 -8 8 -9 8 -75 -1 -69 -4 2 -36 6 -70 8
-125 8 -146 13 -170 41 -48 55 -145 21 -135 -48 4 -22 1 -28 -13 -28 -23 0
-49 -37 -49 -70 0 -33 26 -70 49 -70 9 0 22 -5 28 -11 5 -5 26 -11 44 -12 31
-2 34 -5 31 -27 -9 -64 89 -101 130 -50 16 19 20 21 35 9 10 -9 41 -14 86 -13
63 1 72 3 94 28 12 15 23 34 23 43 0 9 5 31 11 48 10 27 17 31 47 32 44 1 68
27 77 84 l7 41 56 -6 c30 -3 57 -8 59 -10 3 -2 18 0 34 4 22 7 29 5 29 -6 0
-8 0 -17 1 -21 0 -5 -19 -13 -43 -18 -60 -15 -77 -47 -58 -105 22 -67 40 -83
90 -83 37 0 48 5 73 33 29 33 30 40 14 123 -1 7 7 12 18 12 18 0 20 -6 17 -45
-4 -57 19 -90 66 -93 27 -2 35 -8 52 -44 23 -48 28 -53 72 -57 52 -6 66 -15
72 -52 5 -23 2 -41 -9 -56 -24 -36 -18 -63 30 -119 51 -60 76 -124 68 -174 -4
-22 0 -43 9 -57 8 -13 23 -62 32 -110 15 -74 16 -93 4 -123 -11 -32 -10 -40 5
-67 9 -16 17 -40 17 -53 0 -13 11 -36 24 -52 29 -35 40 -92 17 -94 -9 -1 -20
0 -26 1 -98 20 -146 -50 -90 -132 14 -20 35 -38 47 -40 31 -5 89 11 110 29 14
13 20 13 33 3 22 -18 19 -40 -15 -90 -16 -25 -30 -55 -30 -67 0 -13 -12 -28
-35 -41 -19 -12 -37 -31 -39 -44 -21 -97 -28 -279 -27 -663 1 -236 -4 -486 -9
-555 -14 -158 -71 -501 -115 -690 -19 -80 -48 -228 -65 -330 -16 -102 -35
-207 -41 -235 -6 -27 -15 -68 -19 -90 -5 -23 -4 -97 2 -170 16 -199 -10 -457
-57 -570 -31 -74 -153 -224 -222 -274 -49 -36 -46 -26 -68 -241 -19 -193 -64
-479 -105 -670 -16 -74 -36 -193 -45 -265 -9 -71 -27 -175 -40 -230 -23 -98
-58 -390 -59 -490 -1 -73 13 -369 24 -520 5 -71 10 -229 10 -350 1 -212 14
-396 41 -574 11 -72 11 -85 -1 -89 -41 -14 -58 -48 -64 -133 -4 -46 -14 -154
-21 -239 -21 -234 -37 -597 -30 -670 7 -69 26 -110 50 -110 21 0 20 -58 -2
-82 -35 -39 -55 -288 -32 -400 6 -29 23 -93 39 -143 38 -126 50 -179 50 -226
0 -22 8 -56 19 -77 27 -55 32 -97 17 -145 -8 -23 -14 -73 -15 -111 0 -64 -11
-96 -33 -96 -5 0 -29 -16 -52 -35 -23 -19 -69 -47 -102 -62 -59 -28 -60 -28
-274 -28 -199 0 -218 2 -262 22 -25 11 -52 31 -58 43 -22 40 -24 124 -5 174
29 76 3 196 -43 196 -10 0 -27 7 -38 15 -10 8 -25 15 -32 15 -7 0 -24 12 -36
27 -23 26 -29 28 -120 29 -71 1 -102 6 -114 17 -18 16 -92 40 -92 30 0 -4 -9
2 -21 13 -30 27 -177 28 -206 1 -11 -9 -22 -14 -26 -11 -10 10 -78 7 -90 -5
-7 -7 -14 -7 -24 1 -11 9 -48 11 -148 7 -81 -4 -242 23 -322 53 -43 16 -53 24
-58 50 -8 32 10 78 30 78 6 0 26 15 44 34 28 29 36 48 47 112 10 59 20 84 41
106 15 15 33 28 40 28 7 0 42 12 79 26 52 21 71 35 90 65 13 22 28 39 34 39 5
0 43 39 85 88 55 63 92 118 131 197 31 61 64 124 74 140 12 20 24 74 34 162
21 170 20 210 -3 317 -11 48 -38 210 -61 359 -23 156 -48 287 -58 306 -14 29
-26 37 -67 48 -27 6 -59 16 -70 22 -61 28 -95 41 -108 41 -9 0 -19 4 -22 10
-14 23 -132 66 -231 84 -11 2 -36 11 -56 19 -20 8 -62 21 -95 27 -32 7 -83 20
-113 30 -127 40 -157 49 -189 55 -19 3 -41 9 -50 14 -41 21 -214 53 -288 53
-40 -1 -52 4 -69 25 -16 20 -29 26 -63 26 -23 0 -47 -5 -53 -11 -8 -8 -21 -3
-45 15 -30 23 -34 31 -29 57 3 17 10 85 15 151 5 66 14 132 20 147 10 27 51
351 58 463 2 33 8 85 14 115 7 30 11 84 10 121 -1 57 2 70 28 110 33 48 37 69
19 102 -16 31 -12 132 7 161 9 13 16 41 15 62 0 57 6 104 19 149 6 22 11 73
11 114 0 41 4 88 10 105 5 17 18 89 30 160 13 82 29 147 45 177 16 32 24 65
24 101 0 29 5 67 12 83 12 31 26 93 36 158 7 48 -15 82 -65 102 -20 9 -69 37
-109 63 -71 46 -72 48 -96 122 -14 41 -28 96 -31 121 -3 26 -13 63 -22 82 -21
45 -13 100 52 367 37 148 48 213 55 329 10 158 33 284 85 466 41 146 51 198
109 579 54 358 52 348 149 651 75 235 108 382 122 537 8 100 -4 121 -78 138
-80 19 -114 40 -110 68 2 13 -3 33 -11 45 -13 21 -13 25 9 50 13 16 24 34 24
42 0 7 14 28 31 45 28 27 31 35 25 68 -20 113 -19 132 4 174 16 29 21 49 17
75 -7 38 6 74 40 116 24 30 29 62 13 87 -6 10 -3 24 9 45 10 16 21 52 25 79 3
27 17 69 31 92 16 27 25 58 25 86 0 24 7 52 15 62 8 11 15 29 15 40 0 16 10
54 26 101 2 6 20 32 39 59 25 35 35 59 35 86 0 32 6 43 38 68 54 43 103 61
166 59 32 -1 61 4 68 11 9 9 16 8 31 -6 24 -22 147 -23 172 -2 10 8 34 50 54
95 33 70 46 87 103 132 36 28 78 58 94 66 39 21 87 73 112 122 25 51 38 160
22 200 -6 17 -49 69 -96 116 -65 67 -92 104 -119 162 -19 42 -41 80 -49 84
-22 13 -38 53 -38 92 1 20 -8 74 -18 121 -20 84 -32 334 -31 625 l0 110 60
122 c40 79 78 140 112 177 62 68 201 150 272 159 26 4 60 14 75 22 47 27 179
14 292 -28z m880 -2048 c0 -14 -17 -10 -23 5 -4 10 -1 13 9 9 7 -3 14 -9 14
-14z"/>
<path d="M4785 13353 c-93 -20 -131 -79 -87 -133 18 -22 29 -24 127 -16 17 1
42 -1 57 -5 37 -10 139 17 161 43 40 48 12 99 -65 116 -64 15 -113 13 -193 -5z"/>
<path d="M5725 11263 c-11 -3 -38 -18 -59 -34 -38 -27 -40 -28 -52 -10 -30 43
-123 30 -154 -22 -11 -18 -20 -42 -20 -53 0 -29 37 -74 61 -74 30 0 22 -25 -8
-28 -16 -1 -38 -13 -51 -28 -22 -25 -24 -25 -42 -9 -26 24 -90 22 -110 -3 -16
-19 -16 -19 -33 9 -14 25 -36 35 -69 30 -4 0 -34 -3 -67 -5 -83 -5 -141 -48
-141 -104 0 -29 31 -62 60 -63 38 -1 183 8 196 12 6 2 22 -9 35 -25 20 -23 33
-29 67 -29 23 0 48 6 57 13 13 11 15 9 15 -14 0 -16 13 -41 33 -63 28 -30 40
-36 76 -36 28 0 52 8 71 22 35 25 38 26 62 4 11 -10 35 -16 65 -16 52 0 83 26
83 70 0 26 -40 73 -63 73 -7 0 -25 6 -40 13 -33 15 -38 57 -8 57 42 0 111 82
111 132 0 13 9 37 20 53 49 74 -8 150 -95 128z"/>
<path d="M4132 11202 c-26 -4 -81 -84 -82 -117 0 -30 28 -65 51 -65 19 0 19
-1 5 -22 -22 -31 -21 -110 2 -137 11 -13 34 -22 65 -26 26 -3 51 -6 55 -7 30
-8 98 18 132 51 l39 36 0 107 c1 128 -10 151 -76 151 -50 0 -61 -7 -79 -47
l-13 -31 -1 30 c0 57 -38 86 -98 77z"/>
<path d="M6403 11142 c-48 -7 -68 -72 -35 -112 39 -48 132 -17 132 44 0 48
-41 76 -97 68z"/>
<path d="M4523 11013 c-47 -9 -66 -69 -39 -122 21 -40 41 -53 83 -53 73 0 121
96 76 151 -18 21 -75 32 -120 24z"/>
<path d="M6613 10922 c-14 -2 -36 -24 -59 -58 -30 -46 -36 -64 -38 -112 l-1
-58 -35 -1 c-38 -1 -70 -31 -70 -67 0 -12 11 -38 25 -57 26 -39 60 -52 105
-39 25 7 28 5 33 -19 11 -52 39 -74 92 -74 55 0 85 25 85 72 0 26 1 26 72 27
61 1 74 5 90 24 27 33 23 77 -10 108 -15 15 -35 40 -45 55 -33 51 -89 107
-107 107 -10 0 -23 13 -30 29 -20 50 -57 71 -107 63z m26 -285 c46 -2 51 -4
51 -25 0 -18 -4 -22 -18 -18 -9 3 -32 2 -50 -3 -27 -8 -32 -7 -32 7 0 10 -8
29 -17 42 -15 22 -15 23 -1 12 9 -7 39 -14 67 -15z"/>
<path d="M4153 10802 c-48 -7 -68 -72 -35 -112 39 -48 132 -17 132 44 0 48
-41 76 -97 68z"/>
<path d="M6445 10322 c-31 -6 -42 -19 -59 -72 -20 -60 -20 -80 -1 -107 18 -25
57 -34 101 -21 44 12 64 42 64 99 0 72 -43 113 -105 101z"/>
<path d="M6220 9470 c-34 -8 -90 -84 -90 -122 0 -19 15 -53 40 -90 22 -33 40
-68 40 -78 0 -60 102 -87 136 -35 15 22 14 33 -6 152 -12 70 -28 138 -36 149
-14 24 -47 33 -84 24z"/>
<path d="M4833 9072 c-27 -4 -53 -38 -53 -69 0 -12 11 -34 24 -49 20 -24 31
-28 76 -28 43 0 56 4 71 23 24 29 24 63 2 89 -19 21 -84 40 -120 34z"/>
<path d="M5795 7962 c-11 -2 -26 -9 -33 -15 -7 -6 -28 -12 -45 -14 -41 -4 -70
-38 -65 -75 4 -27 -5 -37 -16 -19 -7 11 -82 26 -111 22 -11 -1 -27 -10 -35
-19 -8 -9 -28 -18 -45 -20 -40 -5 -59 -24 -80 -80 -10 -26 -24 -56 -32 -67
-18 -27 -16 -79 5 -105 20 -25 80 -32 140 -17 28 8 32 6 32 -11 0 -63 93 -89
137 -37 42 49 18 115 -43 117 l-31 1 30 43 c26 38 34 43 56 37 14 -4 46 -7 71
-6 37 2 49 7 72 35 15 18 30 41 34 51 3 10 16 29 30 42 42 43 25 127 -28 137
-13 2 -32 2 -43 0z"/>
<path d="M5663 6922 c-48 -7 -68 -72 -35 -112 39 -48 132 -17 132 44 0 48 -41
76 -97 68z"/>
<path d="M5262 6892 c-36 -6 -55 -44 -48 -97 10 -62 33 -87 81 -87 56 0 79 30
70 92 -11 76 -39 102 -103 92z"/>
<path d="M4843 6832 c-29 -4 -73 -57 -73 -87 0 -69 91 -93 142 -36 57 64 17
136 -69 123z"/>
<path d="M5383 2692 c-44 -6 -53 -37 -53 -167 0 -151 13 -239 45 -316 14 -33
32 -105 40 -159 21 -151 59 -206 133 -192 13 3 30 16 39 29 28 42 -4 303 -73
603 -20 85 -42 165 -49 176 -14 22 -44 32 -82 26z"/>
</g>
</svg>
